<?xml version="1.0" encoding="UTF-8" standalone="yes"?>
<!-- Created with sK1/UniConvertor (http://sk1project.org/) -->
<svg xmlns="http://www.w3.org/2000/svg" xmlns:xlink="http://www.w3.org/1999/xlink"
  width="1024pt" height="1024pt" viewBox="0 0 1024 1024"
  fill-rule="evenodd">
<g>
<g>
<path style="stroke:none; fill:#000000" d="M 56 112L 56 168L 112 168L 168 168L 168 112L 168 56L 112 56L 56 56L 56 112zM 152 112L 152 152L 112 152L 72 152L 72 112L 72 72L 112 72L 152 72L 152 112z"/>
<path style="stroke:none; fill:#000000" d="M 87.5 88.3C 87.2 89 87.1 99.7 87.2 112L 87.5 134.5L 111 134.5L 134.5 134.5L 134.5 111L 134.5 87.5L 111.2 87.2C 92.9 87 87.8 87.2 87.5 88.3z"/>
<path style="stroke:none; fill:#000000" d="M 184 80L 184 104L 200 104L 216 104L 216 136L 216 168L 208 168L 200 168L 200 160L 200 152L 192 152L 184 152L 184 160L 184 168L 192 168L 200 168L 200 176L 200 184L 152 184L 104 184L 104 192L 104 200L 120 200L 136 200L 136 208L 136 216L 128 216L 120 216L 120 224L 120 232L 104 232L 88 232L 88 224L 88 216L 72 216L 56 216L 56 264L 56 312L 64 312L 72 312L 72 320L 72 328L 64 328L 56 328L 56 336L 56 344L 64 344L 72 344L 72 352L 72 360L 64 360L 56 360L 56 392L 56 424L 64 424L 72 424L 72 448L 72 472L 64 472L 56 472L 56 496L 56 520L 64 520L 72 520L 72 536L 72 552L 88 552L 104 552L 104 544L 104 536L 112 536L 120 536L 120 552L 120 568L 112 568L 104 568L 104 576L 104 584L 136 584L 168 584L 168 592L 168 600L 144 600L 120 600L 120 616L 120 632L 128 632L 136 632L 136 648L 136 664L 144 664L 152 664L 152 672L 152 680L 168 680L 184 680L 184 672L 184 664L 168 664L 152 664L 152 656L 152 648L 192 648L 232 648L 232 656L 232 664L 240 664L 248 664L 248 672L 248 680L 256 680L 264 680L 264 688L 264 696L 272 696L 280 696L 280 688L 280 680L 272 680L 264 680L 264 672L 264 664L 256 664L 248 664L 248 656L 248 648L 256 648L 264 648L 264 640L 264 632L 272 632L 280 632L 280 608L 280 584L 272 584L 264 584L 264 568L 264 552L 248 552L 232 552L 232 560L 232 568L 224 568L 216 568L 216 560L 216 552L 208 552L 200 552L 200 544L 200 536L 224 536L 248 536L 248 520L 248 504L 264 504L 280 504L 280 520L 280 536L 288 536L 296 536L 296 552L 296 568L 304 568L 312 568L 312 576L 312 584L 304 584L 296 584L 296 608L 296 632L 304 632L 312 632L 312 640L 312 648L 304 648L 296 648L 296 656L 296 664L 304 664L 312 664L 312 672L 312 680L 304 680L 296 680L 296 688L 296 696L 304 696L 312 696L 312 704L 312 712L 328 712L 344 712L 344 720L 344 728L 288 728L 232 728L 232 752L 232 776L 224 776L 216 776L 216 784L 216 792L 208 792L 200 792L 200 800L 200 808L 192 808L 184 808L 184 816L 184 824L 168 824L 152 824L 152 832L 152 840L 168 840L 184 840L 184 880L 184 920L 192 920L 200 920L 200 928L 200 936L 208 936L 216 936L 216 944L 216 952L 200 952L 184 952L 184 960L 184 968L 264 968L 344 968L 344 960L 344 952L 320 952L 296 952L 296 944L 296 936L 304 936L 312 936L 312 928L 312 920L 328 920L 344 920L 344 928L 344 936L 352 936L 360 936L 360 944L 360 952L 368 952L 376 952L 376 960L 376 968L 400 968L 424 968L 424 960L 424 952L 432 952L 440 952L 440 960L 440 968L 456 968L 472 968L 472 952L 472 936L 480 936L 488 936L 488 928L 488 920L 480 920L 472 920L 472 912L 472 904L 488 904L 504 904L 504 912L 504 920L 512 920L 520 920L 520 928L 520 936L 512 936L 504 936L 504 952L 504 968L 512 968L 520 968L 520 960L 520 952L 528 952L 536 952L 536 960L 536 968L 544 968L 552 968L 552 960L 552 952L 544 952L 536 952L 536 936L 536 920L 544 920L 552 920L 552 928L 552 936L 560 936L 568 936L 568 952L 568 968L 584 968L 600 968L 600 952L 600 936L 608 936L 616 936L 616 928L 616 920L 624 920L 632 920L 632 928L 632 936L 640 936L 648 936L 648 928L 648 920L 640 920L 632 920L 632 912L 632 904L 640 904L 648 904L 648 896L 648 888L 672 888L 696 888L 696 896L 696 904L 712 904L 728 904L 728 912L 728 920L 736 920L 744 920L 744 912L 744 904L 752 904L 760 904L 760 928L 760 952L 768 952L 776 952L 776 960L 776 968L 784 968L 792 968L 792 952L 792 936L 784 936L 776 936L 776 928L 776 920L 784 920L 792 920L 792 912L 792 904L 808 904L 824 904L 824 912L 824 920L 832 920L 840 920L 840 928L 840 936L 848 936L 856 936L 856 920L 856 904L 872 904L 888 904L 888 912L 888 920L 880 920L 872 920L 872 928L 872 936L 880 936L 888 936L 888 944L 888 952L 880 952L 872 952L 872 960L 872 968L 888 968L 904 968L 904 952L 904 936L 912 936L 920 936L 920 944L 920 952L 928 952L 936 952L 936 944L 936 936L 952 936L 968 936L 968 928L 968 920L 960 920L 952 920L 952 912L 952 904L 960 904L 968 904L 968 896L 968 888L 952 888L 936 888L 936 880L 936 872L 952 872L 968 872L 968 824L 968 776L 944 776L 920 776L 920 784L 920 792L 912 792L 904 792L 904 784L 904 776L 896 776L 888 776L 888 784L 888 792L 896 792L 904 792L 904 800L 904 808L 880 808L 856 808L 856 800L 856 792L 848 792L 840 792L 840 808L 840 824L 832 824L 824 824L 824 800L 824 776L 816 776L 808 776L 808 784L 808 792L 800 792L 792 792L 792 768L 792 744L 800 744L 808 744L 808 752L 808 760L 824 760L 840 760L 840 752L 840 744L 848 744L 856 744L 856 752L 856 760L 872 760L 888 760L 888 744L 888 728L 896 728L 904 728L 904 744L 904 760L 928 760L 952 760L 952 752L 952 744L 944 744L 936 744L 936 736L 936 728L 952 728L 968 728L 968 712L 968 696L 952 696L 936 696L 936 688L 936 680L 952 680L 968 680L 968 664L 968 648L 960 648L 952 648L 952 640L 952 632L 960 632L 968 632L 968 608L 968 584L 960 584L 952 584L 952 592L 952 600L 944 600L 936 600L 936 584L 936 568L 944 568L 952 568L 952 560L 952 552L 960 552L 968 552L 968 544L 968 536L 960 536L 952 536L 952 528L 952 520L 960 520L 968 520L 968 512L 968 504L 960 504L 952 504L 952 512L 952 520L 944 520L 936 520L 936 512L 936 504L 928 504L 920 504L 920 496L 920 488L 912 488L 904 488L 904 472L 904 456L 896 456L 888 456L 888 464L 888 472L 872 472L 856 472L 856 448L 856 424L 864 424L 872 424L 872 408L 872 392L 880 392L 888 392L 888 400L 888 408L 904 408L 920 408L 920 416L 920 424L 904 424L 888 424L 888 432L 888 440L 904 440L 920 440L 920 456L 920 472L 928 472L 936 472L 936 480L 936 488L 944 488L 952 488L 952 480L 952 472L 960 472L 968 472L 968 440L 968 408L 944 408L 920 408L 920 400L 920 392L 928 392L 936 392L 936 384L 936 376L 944 376L 952 376L 952 368L 952 360L 960 360L 968 360L 968 328L 968 296L 960 296L 952 296L 952 288L 952 280L 960 280L 968 280L 968 256L 968 232L 960 232L 952 232L 952 224L 952 216L 960 216L 968 216L 968 200L 968 184L 944 184L 920 184L 920 192L 920 200L 912 200L 904 200L 904 192L 904 184L 896 184L 888 184L 888 192L 888 200L 872 200L 856 200L 856 192L 856 184L 848 184L 840 184L 840 168L 840 152L 832 152L 824 152L 824 160L 824 168L 816 168L 808 168L 808 152L 808 136L 816 136L 824 136L 824 96L 824 56L 808 56L 792 56L 792 64L 792 72L 776 72L 760 72L 760 64L 760 56L 752 56L 744 56L 744 64L 744 72L 752 72L 760 72L 760 80L 760 88L 744 88L 728 88L 728 80L 728 72L 720 72L 712 72L 712 88L 712 104L 704 104L 696 104L 696 120L 696 136L 688 136L 680 136L 680 128L 680 120L 672 120L 664 120L 664 128L 664 136L 672 136L 680 136L 680 144L 680 152L 672 152L 664 152L 664 168L 664 184L 656 184L 648 184L 648 160L 648 136L 640 136L 632 136L 632 120L 632 104L 624 104L 616 104L 616 96L 616 88L 608 88L 600 88L 600 96L 600 104L 608 104L 616 104L 616 112L 616 120L 600 120L 584 120L 584 136L 584 152L 576 152L 568 152L 568 144L 568 136L 560 136L 552 136L 552 128L 552 120L 560 120L 568 120L 568 112L 568 104L 576 104L 584 104L 584 88L 584 72L 608 72L 632 72L 632 80L 632 88L 640 88L 648 88L 648 96L 648 104L 656 104L 664 104L 664 96L 664 88L 680 88L 696 88L 696 72L 696 56L 672 56L 648 56L 648 64L 648 72L 640 72L 632 72L 632 64L 632 56L 608 56L 584 56L 584 64L 584 72L 576 72L 568 72L 568 64L 568 56L 552 56L 536 56L 536 64L 536 72L 552 72L 568 72L 568 80L 568 88L 544 88L 520 88L 520 104L 520 120L 512 120L 504 120L 504 96L 504 72L 496 72L 488 72L 488 64L 488 56L 480 56L 472 56L 472 64L 472 72L 464 72L 456 72L 456 64L 456 56L 424 56L 392 56L 392 72L 392 88L 400 88L 408 88L 408 80L 408 72L 432 72L 456 72L 456 80L 456 88L 448 88L 440 88L 440 96L 440 104L 448 104L 456 104L 456 96L 456 88L 472 88L 488 88L 488 104L 488 120L 456 120L 424 120L 424 112L 424 104L 408 104L 392 104L 392 128L 392 152L 384 152L 376 152L 376 120L 376 88L 368 88L 360 88L 360 80L 360 72L 368 72L 376 72L 376 64L 376 56L 352 56L 328 56L 328 64L 328 72L 336 72L 344 72L 344 80L 344 88L 352 88L 360 88L 360 96L 360 104L 352 104L 344 104L 344 120L 344 136L 336 136L 328 136L 328 128L 328 120L 320 120L 312 120L 312 96L 312 72L 304 72L 296 72L 296 96L 296 120L 288 120L 280 120L 280 112L 280 104L 272 104L 264 104L 264 96L 264 88L 272 88L 280 88L 280 80L 280 72L 240 72L 200 72L 200 64L 200 56L 192 56L 184 56L 184 80zM 664 80L 664 88L 656 88L 648 88L 648 80L 648 72L 656 72L 664 72L 664 80zM 808 80L 808 88L 800 88L 792 88L 792 80L 792 72L 800 72L 808 72L 808 80zM 248 96L 248 104L 256 104L 264 104L 264 112L 264 120L 272 120L 280 120L 280 128L 280 136L 272 136L 264 136L 264 144L 264 152L 272 152L 280 152L 280 160L 280 168L 288 168L 296 168L 296 144L 296 120L 304 120L 312 120L 312 128L 312 136L 320 136L 328 136L 328 144L 328 152L 336 152L 344 152L 344 160L 344 168L 352 168L 360 168L 360 160L 360 152L 368 152L 376 152L 376 168L 376 184L 360 184L 344 184L 344 192L 344 200L 360 200L 376 200L 376 216L 376 232L 384 232L 392 232L 392 240L 392 248L 384 248L 376 248L 376 256L 376 264L 368 264L 360 264L 360 288L 360 312L 352 312L 344 312L 344 320L 344 328L 360 328L 376 328L 376 336L 376 344L 368 344L 360 344L 360 352L 360 360L 376 360L 392 360L 392 368L 392 376L 384 376L 376 376L 376 384L 376 392L 392 392L 408 392L 408 376L 408 360L 416 360L 424 360L 424 368L 424 376L 432 376L 440 376L 440 384L 440 392L 424 392L 408 392L 408 400L 408 408L 448 408L 488 408L 488 400L 488 392L 472 392L 456 392L 456 384L 456 376L 464 376L 472 376L 472 368L 472 360L 456 360L 440 360L 440 352L 440 344L 456 344L 472 344L 472 336L 472 328L 464 328L 456 328L 456 312L 456 296L 472 296L 488 296L 488 280L 488 264L 480 264L 472 264L 472 272L 472 280L 464 280L 456 280L 456 264L 456 248L 480 248L 504 248L 504 240L 504 232L 472 232L 440 232L 440 240L 440 248L 432 248L 424 248L 424 240L 424 232L 416 232L 408 232L 408 224L 408 216L 400 216L 392 216L 392 184L 392 152L 400 152L 408 152L 408 136L 408 120L 416 120L 424 120L 424 128L 424 136L 440 136L 456 136L 456 144L 456 152L 464 152L 472 152L 472 160L 472 168L 464 168L 456 168L 456 160L 456 152L 448 152L 440 152L 440 160L 440 168L 432 168L 424 168L 424 160L 424 152L 416 152L 408 152L 408 168L 408 184L 416 184L 424 184L 424 192L 424 200L 440 200L 456 200L 456 208L 456 216L 472 216L 488 216L 488 208L 488 200L 504 200L 520 200L 520 216L 520 232L 528 232L 536 232L 536 240L 536 248L 552 248L 568 248L 568 240L 568 232L 576 232L 584 232L 584 240L 584 248L 576 248L 568 248L 568 256L 568 264L 576 264L 584 264L 584 296L 584 328L 576 328L 568 328L 568 344L 568 360L 552 360L 536 360L 536 368L 536 376L 544 376L 552 376L 552 384L 552 392L 560 392L 568 392L 568 384L 568 376L 576 376L 584 376L 584 384L 584 392L 592 392L 600 392L 600 376L 600 360L 608 360L 616 360L 616 376L 616 392L 632 392L 648 392L 648 384L 648 376L 640 376L 632 376L 632 368L 632 360L 648 360L 664 360L 664 376L 664 392L 656 392L 648 392L 648 400L 648 408L 640 408L 632 408L 632 424L 632 440L 624 440L 616 440L 616 448L 616 456L 648 456L 680 456L 680 448L 680 440L 672 440L 664 440L 664 424L 664 408L 672 408L 680 408L 680 376L 680 344L 656 344L 632 344L 632 336L 632 328L 640 328L 648 328L 648 304L 648 280L 632 280L 616 280L 616 288L 616 296L 624 296L 632 296L 632 304L 632 312L 624 312L 616 312L 616 304L 616 296L 608 296L 600 296L 600 288L 600 280L 608 280L 616 280L 616 272L 616 264L 608 264L 600 264L 600 256L 600 248L 616 248L 632 248L 632 256L 632 264L 640 264L 648 264L 648 272L 648 280L 664 280L 680 280L 680 272L 680 264L 672 264L 664 264L 664 248L 664 232L 672 232L 680 232L 680 208L 680 184L 688 184L 696 184L 696 176L 696 168L 688 168L 680 168L 680 160L 680 152L 688 152L 696 152L 696 160L 696 168L 704 168L 712 168L 712 136L 712 104L 728 104L 744 104L 744 112L 744 120L 736 120L 728 120L 728 144L 728 168L 720 168L 712 168L 712 176L 712 184L 744 184L 776 184L 776 200L 776 216L 768 216L 760 216L 760 208L 760 200L 752 200L 744 200L 744 208L 744 216L 736 216L 728 216L 728 208L 728 200L 720 200L 712 200L 712 216L 712 232L 720 232L 728 232L 728 240L 728 248L 736 248L 744 248L 744 240L 744 232L 760 232L 776 232L 776 240L 776 248L 792 248L 808 248L 808 240L 808 232L 800 232L 792 232L 792 224L 792 216L 800 216L 808 216L 808 224L 808 232L 816 232L 824 232L 824 216L 824 200L 808 200L 792 200L 792 184L 792 168L 784 168L 776 168L 776 160L 776 152L 768 152L 760 152L 760 160L 760 168L 752 168L 744 168L 744 160L 744 152L 752 152L 760 152L 760 136L 760 120L 776 120L 792 120L 792 112L 792 104L 800 104L 808 104L 808 120L 808 136L 800 136L 792 136L 792 152L 792 168L 800 168L 808 168L 808 176L 808 184L 824 184L 840 184L 840 200L 840 216L 848 216L 856 216L 856 224L 856 232L 864 232L 872 232L 872 224L 872 216L 880 216L 888 216L 888 208L 888 200L 896 200L 904 200L 904 208L 904 216L 920 216L 936 216L 936 224L 936 232L 944 232L 952 232L 952 248L 952 264L 936 264L 920 264L 920 272L 920 280L 928 280L 936 280L 936 288L 936 296L 944 296L 952 296L 952 312L 952 328L 944 328L 936 328L 936 312L 936 296L 928 296L 920 296L 920 304L 920 312L 912 312L 904 312L 904 320L 904 328L 912 328L 920 328L 920 336L 920 344L 936 344L 952 344L 952 352L 952 360L 928 360L 904 360L 904 352L 904 344L 896 344L 888 344L 888 360L 888 376L 880 376L 872 376L 872 360L 872 344L 856 344L 840 344L 840 352L 840 360L 848 360L 856 360L 856 376L 856 392L 848 392L 840 392L 840 376L 840 360L 832 360L 824 360L 824 352L 824 344L 832 344L 840 344L 840 320L 840 296L 824 296L 808 296L 808 288L 808 280L 800 280L 792 280L 792 272L 792 264L 784 264L 776 264L 776 288L 776 312L 768 312L 760 312L 760 288L 760 264L 768 264L 776 264L 776 256L 776 248L 760 248L 744 248L 744 264L 744 280L 728 280L 712 280L 712 272L 712 264L 720 264L 728 264L 728 256L 728 248L 720 248L 712 248L 712 240L 712 232L 704 232L 696 232L 696 264L 696 296L 704 296L 712 296L 712 320L 712 344L 736 344L 760 344L 760 352L 760 360L 736 360L 712 360L 712 368L 712 376L 728 376L 744 376L 744 384L 744 392L 752 392L 760 392L 760 384L 760 376L 776 376L 792 376L 792 352L 792 328L 800 328L 808 328L 808 320L 808 312L 816 312L 824 312L 824 320L 824 328L 816 328L 808 328L 808 352L 808 376L 816 376L 824 376L 824 392L 824 408L 840 408L 856 408L 856 416L 856 424L 840 424L 824 424L 824 416L 824 408L 816 408L 808 408L 808 416L 808 424L 800 424L 792 424L 792 416L 792 408L 800 408L 808 408L 808 400L 808 392L 792 392L 776 392L 776 400L 776 408L 768 408L 760 408L 760 416L 760 424L 768 424L 776 424L 776 432L 776 440L 768 440L 760 440L 760 432L 760 424L 744 424L 728 424L 728 432L 728 440L 736 440L 744 440L 744 448L 744 456L 736 456L 728 456L 728 464L 728 472L 744 472L 760 472L 760 464L 760 456L 776 456L 792 456L 792 448L 792 440L 800 440L 808 440L 808 448L 808 456L 816 456L 824 456L 824 472L 824 488L 816 488L 808 488L 808 472L 808 456L 800 456L 792 456L 792 472L 792 488L 752 488L 712 488L 712 504L 712 520L 720 520L 728 520L 728 512L 728 504L 744 504L 760 504L 760 528L 760 552L 768 552L 776 552L 776 536L 776 520L 792 520L 808 520L 808 528L 808 536L 816 536L 824 536L 824 544L 824 552L 840 552L 856 552L 856 560L 856 568L 872 568L 888 568L 888 560L 888 552L 896 552L 904 552L 904 536L 904 520L 912 520L 920 520L 920 528L 920 536L 936 536L 952 536L 952 544L 952 552L 928 552L 904 552L 904 560L 904 568L 896 568L 888 568L 888 584L 888 600L 856 600L 824 600L 824 592L 824 584L 816 584L 808 584L 808 600L 808 616L 792 616L 776 616L 776 624L 776 632L 760 632L 744 632L 744 648L 744 664L 736 664L 728 664L 728 680L 728 696L 736 696L 744 696L 744 688L 744 680L 752 680L 760 680L 760 664L 760 648L 776 648L 792 648L 792 640L 792 632L 808 632L 824 632L 824 624L 824 616L 832 616L 840 616L 840 624L 840 632L 848 632L 856 632L 856 624L 856 616L 864 616L 872 616L 872 624L 872 632L 864 632L 856 632L 856 640L 856 648L 864 648L 872 648L 872 656L 872 664L 880 664L 888 664L 888 648L 888 632L 904 632L 920 632L 920 640L 920 648L 912 648L 904 648L 904 656L 904 664L 920 664L 936 664L 936 656L 936 648L 944 648L 952 648L 952 656L 952 664L 944 664L 936 664L 936 672L 936 680L 904 680L 872 680L 872 688L 872 696L 896 696L 920 696L 920 712L 920 728L 912 728L 904 728L 904 720L 904 712L 896 712L 888 712L 888 720L 888 728L 880 728L 872 728L 872 736L 872 744L 864 744L 856 744L 856 736L 856 728L 848 728L 840 728L 840 736L 840 744L 832 744L 824 744L 824 736L 824 728L 816 728L 808 728L 808 704L 808 680L 800 680L 792 680L 792 688L 792 696L 784 696L 776 696L 776 704L 776 712L 784 712L 792 712L 792 720L 792 728L 784 728L 776 728L 776 720L 776 712L 768 712L 760 712L 760 728L 760 744L 752 744L 744 744L 744 728L 744 712L 736 712L 728 712L 728 704L 728 696L 720 696L 712 696L 712 712L 712 728L 672 728L 632 728L 632 752L 632 776L 640 776L 648 776L 648 784L 648 792L 632 792L 616 792L 616 784L 616 776L 608 776L 600 776L 600 744L 600 712L 608 712L 616 712L 616 696L 616 680L 632 680L 648 680L 648 672L 648 664L 616 664L 584 664L 584 688L 584 712L 576 712L 568 712L 568 744L 568 776L 576 776L 584 776L 584 784L 584 792L 560 792L 536 792L 536 784L 536 776L 544 776L 552 776L 552 768L 552 760L 544 760L 536 760L 536 752L 536 744L 544 744L 552 744L 552 736L 552 728L 544 728L 536 728L 536 720L 536 712L 512 712L 488 712L 488 720L 488 728L 472 728L 456 728L 456 736L 456 744L 448 744L 440 744L 440 736L 440 728L 432 728L 424 728L 424 736L 424 744L 416 744L 408 744L 408 752L 408 760L 424 760L 440 760L 440 768L 440 776L 416 776L 392 776L 392 784L 392 792L 400 792L 408 792L 408 800L 408 808L 416 808L 424 808L 424 800L 424 792L 440 792L 456 792L 456 776L 456 760L 464 760L 472 760L 472 768L 472 776L 480 776L 488 776L 488 768L 488 760L 496 760L 504 760L 504 744L 504 728L 512 728L 520 728L 520 744L 520 760L 512 760L 504 760L 504 776L 504 792L 480 792L 456 792L 456 800L 456 808L 472 808L 488 808L 488 816L 488 824L 480 824L 472 824L 472 840L 472 856L 464 856L 456 856L 456 864L 456 872L 464 872L 472 872L 472 880L 472 888L 464 888L 456 888L 456 896L 456 904L 440 904L 424 904L 424 912L 424 920L 440 920L 456 920L 456 928L 456 936L 440 936L 424 936L 424 944L 424 952L 408 952L 392 952L 392 944L 392 936L 384 936L 376 936L 376 912L 376 888L 368 888L 360 888L 360 904L 360 920L 352 920L 344 920L 344 912L 344 904L 336 904L 328 904L 328 896L 328 888L 320 888L 312 888L 312 880L 312 872L 320 872L 328 872L 328 832L 328 792L 336 792L 344 792L 344 808L 344 824L 352 824L 360 824L 360 832L 360 840L 368 840L 376 840L 376 848L 376 856L 368 856L 360 856L 360 848L 360 840L 352 840L 344 840L 344 864L 344 888L 352 888L 360 888L 360 880L 360 872L 376 872L 392 872L 392 904L 392 936L 400 936L 408 936L 408 912L 408 888L 432 888L 456 888L 456 880L 456 872L 440 872L 424 872L 424 864L 424 856L 408 856L 392 856L 392 840L 392 824L 384 824L 376 824L 376 816L 376 808L 368 808L 360 808L 360 784L 360 760L 344 760L 328 760L 328 752L 328 744L 336 744L 344 744L 344 736L 344 728L 368 728L 392 728L 392 736L 392 744L 400 744L 408 744L 408 728L 408 712L 424 712L 440 712L 440 704L 440 696L 448 696L 456 696L 456 688L 456 680L 440 680L 424 680L 424 688L 424 696L 408 696L 392 696L 392 688L 392 680L 384 680L 376 680L 376 664L 376 648L 368 648L 360 648L 360 656L 360 664L 352 664L 344 664L 344 672L 344 680L 352 680L 360 680L 360 696L 360 712L 352 712L 344 712L 344 696L 344 680L 336 680L 328 680L 328 688L 328 696L 320 696L 312 696L 312 688L 312 680L 320 680L 328 680L 328 672L 328 664L 320 664L 312 664L 312 656L 312 648L 320 648L 328 648L 328 640L 328 632L 336 632L 344 632L 344 640L 344 648L 352 648L 360 648L 360 632L 360 616L 352 616L 344 616L 344 608L 344 600L 360 600L 376 600L 376 592L 376 584L 352 584L 328 584L 328 592L 328 600L 320 600L 312 600L 312 592L 312 584L 320 584L 328 584L 328 576L 328 568L 344 568L 360 568L 360 560L 360 552L 368 552L 376 552L 376 544L 376 536L 336 536L 296 536L 296 528L 296 520L 304 520L 312 520L 312 512L 312 504L 304 504L 296 504L 296 496L 296 488L 288 488L 280 488L 280 480L 280 472L 272 472L 264 472L 264 480L 264 488L 256 488L 248 488L 248 480L 248 472L 240 472L 232 472L 232 496L 232 520L 216 520L 200 520L 200 496L 200 472L 192 472L 184 472L 184 464L 184 456L 176 456L 168 456L 168 464L 168 472L 152 472L 136 472L 136 464L 136 456L 152 456L 168 456L 168 448L 168 440L 144 440L 120 440L 120 456L 120 472L 104 472L 88 472L 88 480L 88 488L 80 488L 72 488L 72 480L 72 472L 80 472L 88 472L 88 464L 88 456L 96 456L 104 456L 104 448L 104 440L 96 440L 88 440L 88 432L 88 424L 80 424L 72 424L 72 392L 72 360L 80 360L 88 360L 88 352L 88 344L 80 344L 72 344L 72 336L 72 328L 88 328L 104 328L 104 344L 104 360L 112 360L 120 360L 120 368L 120 376L 112 376L 104 376L 104 408L 104 440L 112 440L 120 440L 120 432L 120 424L 128 424L 136 424L 136 416L 136 408L 128 408L 120 408L 120 400L 120 392L 128 392L 136 392L 136 400L 136 408L 144 408L 152 408L 152 400L 152 392L 160 392L 168 392L 168 384L 168 376L 152 376L 136 376L 136 360L 136 344L 128 344L 120 344L 120 336L 120 328L 128 328L 136 328L 136 320L 136 312L 104 312L 72 312L 72 288L 72 264L 88 264L 104 264L 104 256L 104 248L 112 248L 120 248L 120 240L 120 232L 128 232L 136 232L 136 224L 136 216L 144 216L 152 216L 152 208L 152 200L 168 200L 184 200L 184 208L 184 216L 192 216L 200 216L 200 208L 200 200L 208 200L 216 200L 216 184L 216 168L 224 168L 232 168L 232 160L 232 152L 240 152L 248 152L 248 144L 248 136L 240 136L 232 136L 232 128L 232 120L 240 120L 248 120L 248 112L 248 104L 232 104L 216 104L 216 96L 216 88L 232 88L 248 88L 248 96zM 776 96L 776 104L 768 104L 760 104L 760 96L 760 88L 768 88L 776 88L 776 96zM 552 112L 552 120L 544 120L 536 120L 536 112L 536 104L 544 104L 552 104L 552 112zM 536 160L 536 184L 512 184L 488 184L 488 160L 488 136L 512 136L 536 136L 536 160zM 632 152L 632 168L 624 168L 616 168L 616 176L 616 184L 632 184L 648 184L 648 200L 648 216L 640 216L 632 216L 632 224L 632 232L 616 232L 600 232L 600 224L 600 216L 576 216L 552 216L 552 184L 552 152L 560 152L 568 152L 568 168L 568 184L 576 184L 584 184L 584 168L 584 152L 592 152L 600 152L 600 160L 600 168L 608 168L 616 168L 616 152L 616 136L 624 136L 632 136L 632 152zM 440 296L 440 328L 432 328L 424 328L 424 312L 424 296L 416 296L 408 296L 408 304L 408 312L 400 312L 392 312L 392 296L 392 280L 400 280L 408 280L 408 272L 408 264L 424 264L 440 264L 440 296zM 744 320L 744 328L 736 328L 728 328L 728 320L 728 312L 736 312L 744 312L 744 320zM 408 336L 408 344L 400 344L 392 344L 392 336L 392 328L 400 328L 408 328L 408 336zM 952 440L 952 456L 944 456L 936 456L 936 440L 936 424L 944 424L 952 424L 952 440zM 120 496L 120 504L 112 504L 104 504L 104 520L 104 536L 96 536L 88 536L 88 528L 88 520L 80 520L 72 520L 72 512L 72 504L 88 504L 104 504L 104 496L 104 488L 112 488L 120 488L 120 496zM 184 512L 184 536L 160 536L 136 536L 136 512L 136 488L 160 488L 184 488L 184 512zM 888 512L 888 536L 864 536L 840 536L 840 512L 840 488L 864 488L 888 488L 888 512zM 168 560L 168 568L 160 568L 152 568L 152 560L 152 552L 160 552L 168 552L 168 560zM 200 576L 200 584L 216 584L 232 584L 232 592L 232 600L 224 600L 216 600L 216 608L 216 616L 232 616L 248 616L 248 600L 248 584L 256 584L 264 584L 264 600L 264 616L 256 616L 248 616L 248 624L 248 632L 216 632L 184 632L 184 624L 184 616L 192 616L 200 616L 200 608L 200 600L 192 600L 184 600L 184 584L 184 568L 192 568L 200 568L 200 576zM 936 608L 936 616L 944 616L 952 616L 952 624L 952 632L 944 632L 936 632L 936 624L 936 616L 928 616L 920 616L 920 608L 920 600L 928 600L 936 600L 936 608zM 168 624L 168 632L 160 632L 152 632L 152 624L 152 616L 160 616L 168 616L 168 624zM 296 752L 296 760L 304 760L 312 760L 312 768L 312 776L 304 776L 296 776L 296 784L 296 792L 288 792L 280 792L 280 784L 280 776L 288 776L 296 776L 296 768L 296 760L 280 760L 264 760L 264 784L 264 808L 272 808L 280 808L 280 816L 280 824L 272 824L 264 824L 264 816L 264 808L 256 808L 248 808L 248 824L 248 840L 224 840L 200 840L 200 824L 200 808L 208 808L 216 808L 216 800L 216 792L 224 792L 232 792L 232 800L 232 808L 240 808L 248 808L 248 776L 248 744L 272 744L 296 744L 296 752zM 664 752L 664 760L 656 760L 648 760L 648 752L 648 744L 656 744L 664 744L 664 752zM 728 752L 728 760L 736 760L 744 760L 744 776L 744 792L 736 792L 728 792L 728 784L 728 776L 720 776L 712 776L 712 792L 712 808L 720 808L 728 808L 728 816L 728 824L 736 824L 744 824L 744 816L 744 808L 760 808L 776 808L 776 800L 776 792L 768 792L 760 792L 760 776L 760 760L 768 760L 776 760L 776 776L 776 792L 784 792L 792 792L 792 800L 792 808L 784 808L 776 808L 776 816L 776 824L 792 824L 808 824L 808 832L 808 840L 816 840L 824 840L 824 848L 824 856L 816 856L 808 856L 808 864L 808 872L 792 872L 776 872L 776 888L 776 904L 768 904L 760 904L 760 888L 760 872L 736 872L 712 872L 712 880L 712 888L 704 888L 696 888L 696 880L 696 872L 704 872L 712 872L 712 864L 712 856L 736 856L 760 856L 760 848L 760 840L 736 840L 712 840L 712 824L 712 808L 704 808L 696 808L 696 816L 696 824L 688 824L 680 824L 680 832L 680 840L 688 840L 696 840L 696 848L 696 856L 688 856L 680 856L 680 864L 680 872L 672 872L 664 872L 664 864L 664 856L 648 856L 632 856L 632 848L 632 840L 648 840L 664 840L 664 824L 664 808L 672 808L 680 808L 680 792L 680 776L 688 776L 696 776L 696 760L 696 744L 712 744L 728 744L 728 752zM 936 800L 936 808L 944 808L 952 808L 952 824L 952 840L 944 840L 936 840L 936 824L 936 808L 928 808L 920 808L 920 800L 920 792L 928 792L 936 792L 936 800zM 312 816L 312 824L 304 824L 296 824L 296 816L 296 808L 304 808L 312 808L 312 816zM 584 816L 584 824L 600 824L 616 824L 616 840L 616 856L 608 856L 600 856L 600 864L 600 872L 584 872L 568 872L 568 896L 568 920L 560 920L 552 920L 552 888L 552 856L 560 856L 568 856L 568 848L 568 840L 560 840L 552 840L 552 832L 552 824L 544 824L 536 824L 536 816L 536 808L 560 808L 584 808L 584 816zM 648 816L 648 824L 640 824L 632 824L 632 816L 632 808L 640 808L 648 808L 648 816zM 296 848L 296 856L 288 856L 280 856L 280 872L 280 888L 272 888L 264 888L 264 896L 264 904L 272 904L 280 904L 280 912L 280 920L 272 920L 264 920L 264 928L 264 936L 272 936L 280 936L 280 944L 280 952L 272 952L 264 952L 264 944L 264 936L 256 936L 248 936L 248 944L 248 952L 240 952L 232 952L 232 944L 232 936L 224 936L 216 936L 216 928L 216 920L 208 920L 200 920L 200 904L 200 888L 208 888L 216 888L 216 904L 216 920L 240 920L 264 920L 264 912L 264 904L 256 904L 248 904L 248 896L 248 888L 240 888L 232 888L 232 872L 232 856L 240 856L 248 856L 248 864L 248 872L 256 872L 264 872L 264 864L 264 856L 272 856L 280 856L 280 848L 280 840L 288 840L 296 840L 296 848zM 536 864L 536 888L 512 888L 488 888L 488 864L 488 840L 512 840L 536 840L 536 864zM 888 864L 888 888L 864 888L 840 888L 840 864L 840 840L 864 840L 888 840L 888 864zM 936 864L 936 872L 928 872L 920 872L 920 880L 920 888L 928 888L 936 888L 936 896L 936 904L 928 904L 920 904L 920 912L 920 920L 928 920L 936 920L 936 928L 936 936L 928 936L 920 936L 920 928L 920 920L 912 920L 904 920L 904 912L 904 904L 912 904L 920 904L 920 896L 920 888L 912 888L 904 888L 904 880L 904 872L 912 872L 920 872L 920 864L 920 856L 928 856L 936 856L 936 864zM 744 896L 744 904L 736 904L 728 904L 728 896L 728 888L 736 888L 744 888L 744 896zM 312 912L 312 920L 304 920L 296 920L 296 912L 296 904L 304 904L 312 904L 312 912zM 536 912L 536 920L 528 920L 520 920L 520 912L 520 904L 528 904L 536 904L 536 912zM 616 912L 616 920L 608 920L 600 920L 600 928L 600 936L 592 936L 584 936L 584 920L 584 904L 600 904L 616 904L 616 912z"/>
<path style="stroke:none; fill:#000000" d="M 248 160L 248 168L 240 168L 232 168L 232 176L 232 184L 240 184L 248 184L 248 192L 248 200L 232 200L 216 200L 216 208L 216 216L 208 216L 200 216L 200 224L 200 232L 208 232L 216 232L 216 240L 216 248L 168 248L 120 248L 120 256L 120 264L 152 264L 184 264L 184 272L 184 280L 144 280L 104 280L 104 288L 104 296L 144 296L 184 296L 184 304L 184 312L 168 312L 152 312L 152 320L 152 328L 160 328L 168 328L 168 336L 168 344L 160 344L 152 344L 152 352L 152 360L 160 360L 168 360L 168 368L 168 376L 176 376L 184 376L 184 384L 184 392L 176 392L 168 392L 168 400L 168 408L 160 408L 152 408L 152 416L 152 424L 160 424L 168 424L 168 432L 168 440L 176 440L 184 440L 184 448L 184 456L 192 456L 200 456L 200 464L 200 472L 208 472L 216 472L 216 456L 216 440L 224 440L 232 440L 232 432L 232 424L 248 424L 264 424L 264 432L 264 440L 272 440L 280 440L 280 456L 280 472L 288 472L 296 472L 296 480L 296 488L 304 488L 312 488L 312 496L 312 504L 320 504L 328 504L 328 512L 328 520L 360 520L 392 520L 392 528L 392 536L 400 536L 408 536L 408 528L 408 520L 416 520L 424 520L 424 544L 424 568L 408 568L 392 568L 392 560L 392 552L 384 552L 376 552L 376 568L 376 584L 400 584L 424 584L 424 600L 424 616L 400 616L 376 616L 376 624L 376 632L 384 632L 392 632L 392 648L 392 664L 400 664L 408 664L 408 672L 408 680L 416 680L 424 680L 424 672L 424 664L 440 664L 456 664L 456 672L 456 680L 464 680L 472 680L 472 688L 472 696L 464 696L 456 696L 456 704L 456 712L 472 712L 488 712L 488 704L 488 696L 504 696L 520 696L 520 688L 520 680L 528 680L 536 680L 536 696L 536 712L 552 712L 568 712L 568 704L 568 696L 560 696L 552 696L 552 680L 552 664L 560 664L 568 664L 568 656L 568 648L 584 648L 600 648L 600 640L 600 632L 616 632L 632 632L 632 640L 632 648L 640 648L 648 648L 648 656L 648 664L 664 664L 680 664L 680 656L 680 648L 672 648L 664 648L 664 632L 664 616L 672 616L 680 616L 680 608L 680 600L 688 600L 696 600L 696 592L 696 584L 704 584L 712 584L 712 600L 712 616L 720 616L 728 616L 728 624L 728 632L 720 632L 712 632L 712 640L 712 648L 704 648L 696 648L 696 672L 696 696L 688 696L 680 696L 680 688L 680 680L 672 680L 664 680L 664 688L 664 696L 672 696L 680 696L 680 704L 680 712L 688 712L 696 712L 696 704L 696 696L 704 696L 712 696L 712 672L 712 648L 720 648L 728 648L 728 640L 728 632L 736 632L 744 632L 744 624L 744 616L 760 616L 776 616L 776 608L 776 600L 760 600L 744 600L 744 608L 744 616L 736 616L 728 616L 728 600L 728 584L 720 584L 712 584L 712 576L 712 568L 736 568L 760 568L 760 560L 760 552L 752 552L 744 552L 744 536L 744 520L 736 520L 728 520L 728 536L 728 552L 720 552L 712 552L 712 544L 712 536L 704 536L 696 536L 696 512L 696 488L 704 488L 712 488L 712 472L 712 456L 720 456L 728 456L 728 448L 728 440L 720 440L 712 440L 712 432L 712 424L 720 424L 728 424L 728 416L 728 408L 736 408L 744 408L 744 400L 744 392L 728 392L 712 392L 712 408L 712 424L 696 424L 680 424L 680 432L 680 440L 688 440L 696 440L 696 464L 696 488L 672 488L 648 488L 648 480L 648 472L 632 472L 616 472L 616 464L 616 456L 608 456L 600 456L 600 448L 600 440L 608 440L 616 440L 616 432L 616 424L 600 424L 584 424L 584 416L 584 408L 576 408L 568 408L 568 416L 568 424L 560 424L 552 424L 552 408L 552 392L 544 392L 536 392L 536 400L 536 408L 528 408L 520 408L 520 416L 520 424L 512 424L 504 424L 504 432L 504 440L 496 440L 488 440L 488 432L 488 424L 464 424L 440 424L 440 440L 440 456L 424 456L 408 456L 408 448L 408 440L 416 440L 424 440L 424 432L 424 424L 408 424L 392 424L 392 440L 392 456L 400 456L 408 456L 408 464L 408 472L 368 472L 328 472L 328 464L 328 456L 320 456L 312 456L 312 464L 312 472L 304 472L 296 472L 296 456L 296 440L 288 440L 280 440L 280 432L 280 424L 272 424L 264 424L 264 416L 264 408L 248 408L 232 408L 232 416L 232 424L 224 424L 216 424L 216 400L 216 376L 208 376L 200 376L 200 368L 200 360L 216 360L 232 360L 232 368L 232 376L 240 376L 248 376L 248 384L 248 392L 264 392L 280 392L 280 400L 280 408L 296 408L 312 408L 312 400L 312 392L 336 392L 360 392L 360 384L 360 376L 344 376L 328 376L 328 368L 328 360L 336 360L 344 360L 344 352L 344 344L 336 344L 328 344L 328 328L 328 312L 336 312L 344 312L 344 288L 344 264L 352 264L 360 264L 360 256L 360 248L 352 248L 344 248L 344 240L 344 232L 336 232L 328 232L 328 240L 328 248L 320 248L 312 248L 312 232L 312 216L 328 216L 344 216L 344 208L 344 200L 336 200L 328 200L 328 192L 328 184L 336 184L 344 184L 344 176L 344 168L 336 168L 328 168L 328 160L 328 152L 320 152L 312 152L 312 160L 312 168L 304 168L 296 168L 296 184L 296 200L 288 200L 280 200L 280 208L 280 216L 264 216L 248 216L 248 208L 248 200L 256 200L 264 200L 264 192L 264 184L 272 184L 280 184L 280 176L 280 168L 272 168L 264 168L 264 160L 264 152L 256 152L 248 152L 248 160zM 264 176L 264 184L 256 184L 248 184L 248 176L 248 168L 256 168L 264 168L 264 176zM 312 208L 312 216L 304 216L 296 216L 296 208L 296 200L 304 200L 312 200L 312 208zM 248 240L 248 248L 240 248L 232 248L 232 264L 232 280L 256 280L 280 280L 280 272L 280 264L 272 264L 264 264L 264 248L 264 232L 280 232L 296 232L 296 240L 296 248L 304 248L 312 248L 312 256L 312 264L 304 264L 296 264L 296 272L 296 280L 312 280L 328 280L 328 288L 328 296L 320 296L 312 296L 312 304L 312 312L 304 312L 296 312L 296 320L 296 328L 304 328L 312 328L 312 336L 312 344L 320 344L 328 344L 328 352L 328 360L 304 360L 280 360L 280 368L 280 376L 264 376L 248 376L 248 368L 248 360L 240 360L 232 360L 232 352L 232 344L 208 344L 184 344L 184 352L 184 360L 176 360L 168 360L 168 352L 168 344L 176 344L 184 344L 184 336L 184 328L 200 328L 216 328L 216 320L 216 312L 208 312L 200 312L 200 288L 200 264L 208 264L 216 264L 216 256L 216 248L 224 248L 232 248L 232 240L 232 232L 240 232L 248 232L 248 240zM 344 256L 344 264L 336 264L 328 264L 328 256L 328 248L 336 248L 344 248L 344 256zM 312 384L 312 392L 304 392L 296 392L 296 384L 296 376L 304 376L 312 376L 312 384zM 200 408L 200 424L 184 424L 168 424L 168 416L 168 408L 176 408L 184 408L 184 400L 184 392L 192 392L 200 392L 200 408zM 536 432L 536 440L 544 440L 552 440L 552 448L 552 456L 544 456L 536 456L 536 448L 536 440L 528 440L 520 440L 520 432L 520 424L 528 424L 536 424L 536 432zM 584 432L 584 440L 576 440L 568 440L 568 432L 568 424L 576 424L 584 424L 584 432zM 488 448L 488 456L 496 456L 504 456L 504 464L 504 472L 496 472L 488 472L 488 464L 488 456L 480 456L 472 456L 472 480L 472 504L 464 504L 456 504L 456 496L 456 488L 448 488L 440 488L 440 480L 440 472L 448 472L 456 472L 456 456L 456 440L 472 440L 488 440L 488 448zM 584 472L 584 488L 568 488L 552 488L 552 480L 552 472L 560 472L 568 472L 568 464L 568 456L 576 456L 584 456L 584 472zM 328 480L 328 488L 320 488L 312 488L 312 480L 312 472L 320 472L 328 472L 328 480zM 424 480L 424 488L 416 488L 408 488L 408 496L 408 504L 400 504L 392 504L 392 496L 392 488L 400 488L 408 488L 408 480L 408 472L 416 472L 424 472L 424 480zM 616 480L 616 488L 624 488L 632 488L 632 504L 632 520L 640 520L 648 520L 648 512L 648 504L 664 504L 680 504L 680 520L 680 536L 688 536L 696 536L 696 552L 696 568L 688 568L 680 568L 680 552L 680 536L 672 536L 664 536L 664 552L 664 568L 656 568L 648 568L 648 584L 648 600L 656 600L 664 600L 664 592L 664 584L 672 584L 680 584L 680 592L 680 600L 672 600L 664 600L 664 608L 664 616L 656 616L 648 616L 648 608L 648 600L 640 600L 632 600L 632 608L 632 616L 616 616L 600 616L 600 624L 600 632L 584 632L 568 632L 568 640L 568 648L 560 648L 552 648L 552 656L 552 664L 544 664L 536 664L 536 656L 536 648L 528 648L 520 648L 520 632L 520 616L 528 616L 536 616L 536 632L 536 648L 544 648L 552 648L 552 640L 552 632L 560 632L 568 632L 568 624L 568 616L 584 616L 600 616L 600 608L 600 600L 552 600L 504 600L 504 592L 504 584L 496 584L 488 584L 488 576L 488 568L 480 568L 472 568L 472 576L 472 584L 464 584L 456 584L 456 600L 456 616L 464 616L 472 616L 472 608L 472 600L 480 600L 488 600L 488 616L 488 632L 496 632L 504 632L 504 648L 504 664L 512 664L 520 664L 520 672L 520 680L 512 680L 504 680L 504 672L 504 664L 488 664L 472 664L 472 656L 472 648L 456 648L 440 648L 440 640L 440 632L 448 632L 456 632L 456 624L 456 616L 448 616L 440 616L 440 600L 440 584L 432 584L 424 584L 424 576L 424 568L 448 568L 472 568L 472 560L 472 552L 496 552L 520 552L 520 568L 520 584L 544 584L 568 584L 568 576L 568 568L 560 568L 552 568L 552 552L 552 536L 560 536L 568 536L 568 544L 568 552L 592 552L 616 552L 616 544L 616 536L 600 536L 584 536L 584 528L 584 520L 600 520L 616 520L 616 504L 616 488L 608 488L 600 488L 600 480L 600 472L 608 472L 616 472L 616 480zM 376 496L 376 504L 360 504L 344 504L 344 496L 344 488L 360 488L 376 488L 376 496zM 536 512L 536 536L 512 536L 488 536L 488 512L 488 488L 512 488L 536 488L 536 512zM 440 512L 440 520L 432 520L 424 520L 424 512L 424 504L 432 504L 440 504L 440 512zM 456 544L 456 552L 448 552L 440 552L 440 544L 440 536L 448 536L 456 536L 456 544zM 424 648L 424 664L 416 664L 408 664L 408 648L 408 632L 416 632L 424 632L 424 648z"/>
<path style="stroke:none; fill:#000000" d="M 280 296L 280 312L 272 312L 264 312L 264 304L 264 296L 248 296L 232 296L 232 312L 232 328L 240 328L 248 328L 248 336L 248 344L 256 344L 264 344L 264 336L 264 328L 272 328L 280 328L 280 320L 280 312L 288 312L 296 312L 296 296L 296 280L 288 280L 280 280L 280 296zM 264 320L 264 328L 256 328L 248 328L 248 320L 248 312L 256 312L 264 312L 264 320z"/>
<path style="stroke:none; fill:#000000" d="M 632 544L 632 552L 640 552L 648 552L 648 544L 648 536L 640 536L 632 536L 632 544z"/>
<path style="stroke:none; fill:#000000" d="M 584 576L 584 584L 592 584L 600 584L 600 592L 600 600L 608 600L 616 600L 616 592L 616 584L 624 584L 632 584L 632 576L 632 568L 624 568L 616 568L 616 576L 616 584L 608 584L 600 584L 600 576L 600 568L 592 568L 584 568L 584 576z"/>
<path style="stroke:none; fill:#000000" d="M 504 512L 504 520L 512 520L 520 520L 520 512L 520 504L 512 504L 504 504L 504 512z"/>
<path style="stroke:none; fill:#000000" d="M 696 192L 696 200L 704 200L 712 200L 712 192L 712 184L 704 184L 696 184L 696 192z"/>
<path style="stroke:none; fill:#000000" d="M 408 208L 408 216L 416 216L 424 216L 424 208L 424 200L 416 200L 408 200L 408 208z"/>
<path style="stroke:none; fill:#000000" d="M 152 224L 152 232L 160 232L 168 232L 168 224L 168 216L 160 216L 152 216L 152 224z"/>
<path style="stroke:none; fill:#000000" d="M 824 256L 824 280L 840 280L 856 280L 856 256L 856 232L 840 232L 824 232L 824 256z"/>
<path style="stroke:none; fill:#000000" d="M 872 240L 872 248L 880 248L 888 248L 888 272L 888 296L 872 296L 856 296L 856 304L 856 312L 880 312L 904 312L 904 280L 904 248L 920 248L 936 248L 936 240L 936 232L 904 232L 872 232L 872 240z"/>
<path style="stroke:none; fill:#000000" d="M 504 280L 504 312L 488 312L 472 312L 472 320L 472 328L 488 328L 504 328L 504 320L 504 312L 512 312L 520 312L 520 320L 520 328L 528 328L 536 328L 536 320L 536 312L 544 312L 552 312L 552 320L 552 328L 560 328L 568 328L 568 320L 568 312L 560 312L 552 312L 552 304L 552 296L 536 296L 520 296L 520 272L 520 248L 512 248L 504 248L 504 280z"/>
<path style="stroke:none; fill:#000000" d="M 536 272L 536 280L 544 280L 552 280L 552 272L 552 264L 544 264L 536 264L 536 272z"/>
<path style="stroke:none; fill:#000000" d="M 664 304L 664 312L 680 312L 696 312L 696 304L 696 296L 680 296L 664 296L 664 304z"/>
<path style="stroke:none; fill:#000000" d="M 872 336L 872 344L 880 344L 888 344L 888 336L 888 328L 880 328L 872 328L 872 336z"/>
<path style="stroke:none; fill:#000000" d="M 488 368L 488 392L 496 392L 504 392L 504 376L 504 360L 520 360L 536 360L 536 352L 536 344L 512 344L 488 344L 488 368z"/>
<path style="stroke:none; fill:#000000" d="M 696 352L 696 360L 704 360L 712 360L 712 352L 712 344L 704 344L 696 344L 696 352z"/>
<path style="stroke:none; fill:#000000" d="M 88 368L 88 376L 96 376L 104 376L 104 368L 104 360L 96 360L 88 360L 88 368z"/>
<path style="stroke:none; fill:#000000" d="M 328 416L 328 424L 320 424L 312 424L 312 432L 312 440L 320 440L 328 440L 328 432L 328 424L 336 424L 344 424L 344 432L 344 440L 352 440L 360 440L 360 432L 360 424L 368 424L 376 424L 376 416L 376 408L 368 408L 360 408L 360 416L 360 424L 352 424L 344 424L 344 416L 344 408L 336 408L 328 408L 328 416z"/>
<path style="stroke:none; fill:#000000" d="M 792 544L 792 552L 784 552L 776 552L 776 568L 776 584L 784 584L 792 584L 792 568L 792 552L 800 552L 808 552L 808 544L 808 536L 800 536L 792 536L 792 544z"/>
<path style="stroke:none; fill:#000000" d="M 824 576L 824 584L 832 584L 840 584L 840 576L 840 568L 832 568L 824 568L 824 576z"/>
<path style="stroke:none; fill:#000000" d="M 824 640L 824 648L 816 648L 808 648L 808 656L 808 664L 816 664L 824 664L 824 656L 824 648L 832 648L 840 648L 840 656L 840 664L 848 664L 856 664L 856 656L 856 648L 848 648L 840 648L 840 640L 840 632L 832 632L 824 632L 824 640z"/>
<path style="stroke:none; fill:#000000" d="M 328 656L 328 664L 336 664L 344 664L 344 656L 344 648L 336 648L 328 648L 328 656z"/>
<path style="stroke:none; fill:#000000" d="M 744 704L 744 712L 752 712L 760 712L 760 704L 760 696L 752 696L 744 696L 744 704z"/>
<path style="stroke:none; fill:#000000" d="M 824 704L 824 712L 840 712L 856 712L 856 720L 856 728L 864 728L 872 728L 872 712L 872 696L 848 696L 824 696L 824 704z"/>
<path style="stroke:none; fill:#000000" d="M 616 720L 616 728L 624 728L 632 728L 632 720L 632 712L 624 712L 616 712L 616 720z"/>
<path style="stroke:none; fill:#000000" d="M 360 752L 360 760L 368 760L 376 760L 376 768L 376 776L 384 776L 392 776L 392 760L 392 744L 376 744L 360 744L 360 752z"/>
<path style="stroke:none; fill:#000000" d="M 376 800L 376 808L 384 808L 392 808L 392 800L 392 792L 384 792L 376 792L 376 800z"/>
<path style="stroke:none; fill:#000000" d="M 440 824L 440 840L 432 840L 424 840L 424 848L 424 856L 432 856L 440 856L 440 848L 440 840L 448 840L 456 840L 456 824L 456 808L 448 808L 440 808L 440 824z"/>
<path style="stroke:none; fill:#000000" d="M 504 160L 504 168L 512 168L 520 168L 520 160L 520 152L 512 152L 504 152L 504 160z"/>
<path style="stroke:none; fill:#000000" d="M 584 192L 584 200L 592 200L 600 200L 600 208L 600 216L 608 216L 616 216L 616 208L 616 200L 608 200L 600 200L 600 192L 600 184L 592 184L 584 184L 584 192z"/>
<path style="stroke:none; fill:#000000" d="M 152 512L 152 520L 160 520L 168 520L 168 512L 168 504L 160 504L 152 504L 152 512z"/>
<path style="stroke:none; fill:#000000" d="M 856 512L 856 520L 864 520L 872 520L 872 512L 872 504L 864 504L 856 504L 856 512z"/>
<path style="stroke:none; fill:#000000" d="M 216 816L 216 824L 224 824L 232 824L 232 816L 232 808L 224 808L 216 808L 216 816z"/>
<path style="stroke:none; fill:#000000" d="M 584 848L 584 856L 592 856L 600 856L 600 848L 600 840L 592 840L 584 840L 584 848z"/>
<path style="stroke:none; fill:#000000" d="M 504 864L 504 872L 512 872L 520 872L 520 864L 520 856L 512 856L 504 856L 504 864z"/>
<path style="stroke:none; fill:#000000" d="M 856 864L 856 872L 864 872L 872 872L 872 864L 872 856L 864 856L 856 856L 856 864z"/>
<path style="stroke:none; fill:#000000" d="M 856 112L 856 168L 912 168L 968 168L 968 112L 968 56L 912 56L 856 56L 856 112zM 952 112L 952 152L 912 152L 872 152L 872 112L 872 72L 912 72L 952 72L 952 112z"/>
<path style="stroke:none; fill:#000000" d="M 887.5 88.3C 887.2 89 887.1 99.7 887.2 112L 887.5 134.5L 911 134.5L 934.5 134.5L 934.5 111L 934.5 87.5L 911.2 87.2C 892.9 87 887.8 87.2 887.5 88.3z"/>
<path style="stroke:none; fill:#000000" d="M 184 128L 184 136L 192 136L 200 136L 200 128L 200 120L 192 120L 184 120L 184 128z"/>
<path style="stroke:none; fill:#000000" d="M 56 192L 56 200L 64 200L 72 200L 72 192L 72 184L 64 184L 56 184L 56 192z"/>
<path style="stroke:none; fill:#000000" d="M 72 592L 72 600L 64 600L 56 600L 56 608L 56 616L 64 616L 72 616L 72 608L 72 600L 80 600L 88 600L 88 592L 88 584L 80 584L 72 584L 72 592z"/>
<path style="stroke:none; fill:#000000" d="M 88 624L 88 632L 80 632L 72 632L 72 640L 72 648L 64 648L 56 648L 56 656L 56 664L 64 664L 72 664L 72 656L 72 648L 80 648L 88 648L 88 656L 88 664L 96 664L 104 664L 104 640L 104 616L 96 616L 88 616L 88 624z"/>
<path style="stroke:none; fill:#000000" d="M 200 672L 200 680L 208 680L 216 680L 216 696L 216 712L 224 712L 232 712L 232 696L 232 680L 224 680L 216 680L 216 672L 216 664L 208 664L 200 664L 200 672z"/>
<path style="stroke:none; fill:#000000" d="M 120 688L 120 696L 112 696L 104 696L 104 720L 104 744L 88 744L 72 744L 72 728L 72 712L 80 712L 88 712L 88 704L 88 696L 72 696L 56 696L 56 720L 56 744L 64 744L 72 744L 72 760L 72 776L 64 776L 56 776L 56 800L 56 824L 96 824L 136 824L 136 816L 136 808L 152 808L 168 808L 168 800L 168 792L 176 792L 184 792L 184 784L 184 776L 192 776L 200 776L 200 768L 200 760L 208 760L 216 760L 216 744L 216 728L 200 728L 184 728L 184 720L 184 712L 192 712L 200 712L 200 704L 200 696L 192 696L 184 696L 184 704L 184 712L 176 712L 168 712L 168 704L 168 696L 160 696L 152 696L 152 704L 152 712L 136 712L 120 712L 120 704L 120 696L 128 696L 136 696L 136 688L 136 680L 128 680L 120 680L 120 688zM 168 720L 168 728L 160 728L 152 728L 152 736L 152 744L 168 744L 184 744L 184 752L 184 760L 168 760L 152 760L 152 752L 152 744L 144 744L 136 744L 136 760L 136 776L 128 776L 120 776L 120 784L 120 792L 128 792L 136 792L 136 800L 136 808L 120 808L 104 808L 104 792L 104 776L 96 776L 88 776L 88 768L 88 760L 96 760L 104 760L 104 752L 104 744L 120 744L 136 744L 136 736L 136 728L 144 728L 152 728L 152 720L 152 712L 160 712L 168 712L 168 720zM 168 784L 168 792L 160 792L 152 792L 152 784L 152 776L 160 776L 168 776L 168 784zM 88 800L 88 808L 80 808L 72 808L 72 800L 72 792L 80 792L 88 792L 88 800z"/>
<path style="stroke:none; fill:#000000" d="M 104 768L 104 776L 112 776L 120 776L 120 768L 120 760L 112 760L 104 760L 104 768z"/>
<path style="stroke:none; fill:#000000" d="M 56 912L 56 968L 112 968L 168 968L 168 912L 168 856L 112 856L 56 856L 56 912zM 152 912L 152 952L 112 952L 72 952L 72 912L 72 872L 112 872L 152 872L 152 912z"/>
<path style="stroke:none; fill:#000000" d="M 87.5 888.3C 87.2 889 87.1 899.7 87.2 912L 87.5 934.5L 111 934.5L 134.5 934.5L 134.5 911L 134.5 887.5L 111.2 887.2C 92.9 887 87.8 887.2 87.5 888.3z"/>
<path style="stroke:none; fill:#000000" d="M 664 928L 664 952L 656 952L 648 952L 648 960L 648 968L 672 968L 696 968L 696 952L 696 936L 704 936L 712 936L 712 944L 712 952L 728 952L 744 952L 744 944L 744 936L 728 936L 712 936L 712 928L 712 920L 704 920L 696 920L 696 928L 696 936L 688 936L 680 936L 680 920L 680 904L 672 904L 664 904L 664 928z"/>
<path style="stroke:none; fill:#000000" d="M 616 960L 616 968L 624 968L 632 968L 632 960L 632 952L 624 952L 616 952L 616 960z"/>
<path style="stroke:none; fill:#000000" d="M 808 960L 808 968L 832 968L 856 968L 856 960L 856 952L 832 952L 808 952L 808 960z"/>
</g>
</g>
</svg>