<?xml version="1.0" encoding="UTF-8" standalone="yes"?>
<!-- Created with sK1/UniConvertor (http://sk1project.org/) -->
<svg xmlns="http://www.w3.org/2000/svg" xmlns:xlink="http://www.w3.org/1999/xlink"
  width="1024pt" height="1024pt" viewBox="0 0 1024 1024"
  fill-rule="evenodd">
<g>
<g>
<path style="stroke:none; fill:#000000" d="M 39 112.5L 39 186L 112.5 186L 186 186L 186 112.5L 186 39L 112.5 39L 39 39L 39 112.5zM 165 112.5L 165 165L 112.5 165L 60 165L 60 112.5L 60 60L 112.5 60L 165 60L 165 112.5z"/>
<path style="stroke:none; fill:#000000" d="M 80 111L 80 142L 111 142L 142 142L 142 111L 142 80L 111 80L 80 80L 80 111z"/>
<path style="stroke:none; fill:#000000" d="M 333 49.5L 333 60L 375 60L 417 60L 417 70.5L 417 81L 427.5 81L 438 81L 438 91.5L 438 102L 427.5 102L 417 102L 417 175.5L 417 249L 406.5 249L 396 249L 396 238.5L 396 228L 385.5 228L 375 228L 375 238.5L 375 249L 343.5 249L 312 249L 312 238.5L 312 228L 301.5 228L 291 228L 291 217.5L 291 207L 280.5 207L 270 207L 270 217.5L 270 228L 259.5 228L 249 228L 249 217.5L 249 207L 238.5 207L 228 207L 228 186L 228 165L 238.5 165L 249 165L 249 175.5L 249 186L 259.5 186L 270 186L 270 175.5L 270 165L 280.5 165L 291 165L 291 175.5L 291 186L 301.5 186L 312 186L 312 175.5L 312 165L 301.5 165L 291 165L 291 154.5L 291 144L 301.5 144L 312 144L 312 123L 312 102L 343.5 102L 375 102L 375 91.5L 375 81L 343.5 81L 312 81L 312 91.5L 312 102L 301.5 102L 291 102L 291 81L 291 60L 280.5 60L 270 60L 270 81L 270 102L 259.5 102L 249 102L 249 112.5L 249 123L 238.5 123L 228 123L 228 102L 228 81L 238.5 81L 249 81L 249 70.5L 249 60L 238.5 60L 228 60L 228 70.5L 228 81L 217.5 81L 207 81L 207 144L 207 207L 217.5 207L 228 207L 228 228L 228 249L 196.5 249L 165 249L 165 238.5L 165 228L 175.5 228L 186 228L 186 217.5L 186 207L 133.5 207L 81 207L 81 217.5L 81 228L 70.5 228L 60 228L 60 217.5L 60 207L 49.5 207L 39 207L 39 238.5L 39 270L 49.5 270L 60 270L 60 259.5L 60 249L 70.5 249L 81 249L 81 280.5L 81 312L 60 312L 39 312L 39 322.5L 39 333L 49.5 333L 60 333L 60 354L 60 375L 49.5 375L 39 375L 39 396L 39 417L 49.5 417L 60 417L 60 396L 60 375L 70.5 375L 81 375L 81 406.5L 81 438L 60 438L 39 438L 39 448.5L 39 459L 60 459L 81 459L 81 469.5L 81 480L 70.5 480L 60 480L 60 490.5L 60 501L 70.5 501L 81 501L 81 490.5L 81 480L 102 480L 123 480L 123 490.5L 123 501L 112.5 501L 102 501L 102 522L 102 543L 91.5 543L 81 543L 81 553.5L 81 564L 70.5 564L 60 564L 60 574.5L 60 585L 49.5 585L 39 585L 39 595.5L 39 606L 49.5 606L 60 606L 60 595.5L 60 585L 70.5 585L 81 585L 81 574.5L 81 564L 91.5 564L 102 564L 102 553.5L 102 543L 112.5 543L 123 543L 123 553.5L 123 564L 165 564L 207 564L 207 574.5L 207 585L 186 585L 165 585L 165 595.5L 165 606L 154.5 606L 144 606L 144 595.5L 144 585L 133.5 585L 123 585L 123 595.5L 123 606L 102 606L 81 606L 81 627L 81 648L 70.5 648L 60 648L 60 637.5L 60 627L 49.5 627L 39 627L 39 637.5L 39 648L 49.5 648L 60 648L 60 658.5L 60 669L 49.5 669L 39 669L 39 679.5L 39 690L 49.5 690L 60 690L 60 700.5L 60 711L 49.5 711L 39 711L 39 732L 39 753L 81 753L 123 753L 123 763.5L 123 774L 91.5 774L 60 774L 60 784.5L 60 795L 49.5 795L 39 795L 39 805.5L 39 816L 49.5 816L 60 816L 60 805.5L 60 795L 81 795L 102 795L 102 805.5L 102 816L 123 816L 144 816L 144 784.5L 144 753L 133.5 753L 123 753L 123 742.5L 123 732L 154.5 732L 186 732L 186 742.5L 186 753L 175.5 753L 165 753L 165 763.5L 165 774L 175.5 774L 186 774L 186 763.5L 186 753L 207 753L 228 753L 228 784.5L 228 816L 217.5 816L 207 816L 207 805.5L 207 795L 186 795L 165 795L 165 805.5L 165 816L 186 816L 207 816L 207 826.5L 207 837L 217.5 837L 228 837L 228 826.5L 228 816L 238.5 816L 249 816L 249 837L 249 858L 259.5 858L 270 858L 270 868.5L 270 879L 249 879L 228 879L 228 868.5L 228 858L 217.5 858L 207 858L 207 900L 207 942L 217.5 942L 228 942L 228 921L 228 900L 259.5 900L 291 900L 291 910.5L 291 921L 280.5 921L 270 921L 270 931.5L 270 942L 259.5 942L 249 942L 249 952.5L 249 963L 280.5 963L 312 963L 312 942L 312 921L 322.5 921L 333 921L 333 910.5L 333 900L 343.5 900L 354 900L 354 910.5L 354 921L 364.5 921L 375 921L 375 931.5L 375 942L 385.5 942L 396 942L 396 963L 396 984L 417 984L 438 984L 438 963L 438 942L 448.5 942L 459 942L 459 931.5L 459 921L 480 921L 501 921L 501 931.5L 501 942L 490.5 942L 480 942L 480 963L 480 984L 522 984L 564 984L 564 973.5L 564 963L 574.5 963L 585 963L 585 973.5L 585 984L 595.5 984L 606 984L 606 973.5L 606 963L 595.5 963L 585 963L 585 952.5L 585 942L 595.5 942L 606 942L 606 931.5L 606 921L 627 921L 648 921L 648 942L 648 963L 669 963L 690 963L 690 973.5L 690 984L 763.5 984L 837 984L 837 973.5L 837 963L 784.5 963L 732 963L 732 952.5L 732 942L 721.5 942L 711 942L 711 931.5L 711 921L 732 921L 753 921L 753 931.5L 753 942L 774 942L 795 942L 795 921L 795 900L 805.5 900L 816 900L 816 910.5L 816 921L 826.5 921L 837 921L 837 931.5L 837 942L 847.5 942L 858 942L 858 952.5L 858 963L 879 963L 900 963L 900 952.5L 900 942L 879 942L 858 942L 858 931.5L 858 921L 847.5 921L 837 921L 837 910.5L 837 900L 858 900L 879 900L 879 910.5L 879 921L 889.5 921L 900 921L 900 910.5L 900 900L 910.5 900L 921 900L 921 910.5L 921 921L 942 921L 963 921L 963 900L 963 879L 973.5 879L 984 879L 984 858L 984 837L 973.5 837L 963 837L 963 816L 963 795L 973.5 795L 984 795L 984 774L 984 753L 973.5 753L 963 753L 963 774L 963 795L 952.5 795L 942 795L 942 784.5L 942 774L 931.5 774L 921 774L 921 763.5L 921 753L 931.5 753L 942 753L 942 742.5L 942 732L 952.5 732L 963 732L 963 721.5L 963 711L 973.5 711L 984 711L 984 700.5L 984 690L 963 690L 942 690L 942 711L 942 732L 910.5 732L 879 732L 879 721.5L 879 711L 868.5 711L 858 711L 858 721.5L 858 732L 847.5 732L 837 732L 837 742.5L 837 753L 847.5 753L 858 753L 858 763.5L 858 774L 879 774L 900 774L 900 784.5L 900 795L 858 795L 816 795L 816 784.5L 816 774L 795 774L 774 774L 774 784.5L 774 795L 763.5 795L 753 795L 753 805.5L 753 816L 763.5 816L 774 816L 774 826.5L 774 837L 753 837L 732 837L 732 826.5L 732 816L 721.5 816L 711 816L 711 784.5L 711 753L 753 753L 795 753L 795 742.5L 795 732L 805.5 732L 816 732L 816 721.5L 816 711L 826.5 711L 837 711L 837 700.5L 837 690L 858 690L 879 690L 879 669L 879 648L 858 648L 837 648L 837 637.5L 837 627L 826.5 627L 816 627L 816 637.5L 816 648L 826.5 648L 837 648L 837 669L 837 690L 826.5 690L 816 690L 816 679.5L 816 669L 805.5 669L 795 669L 795 658.5L 795 648L 784.5 648L 774 648L 774 637.5L 774 627L 742.5 627L 711 627L 711 606L 711 585L 753 585L 795 585L 795 595.5L 795 606L 805.5 606L 816 606L 816 595.5L 816 585L 805.5 585L 795 585L 795 574.5L 795 564L 816 564L 837 564L 837 574.5L 837 585L 847.5 585L 858 585L 858 595.5L 858 606L 879 606L 900 606L 900 595.5L 900 585L 921 585L 942 585L 942 595.5L 942 606L 952.5 606L 963 606L 963 627L 963 648L 952.5 648L 942 648L 942 637.5L 942 627L 921 627L 900 627L 900 648L 900 669L 942 669L 984 669L 984 637.5L 984 606L 973.5 606L 963 606L 963 595.5L 963 585L 952.5 585L 942 585L 942 574.5L 942 564L 952.5 564L 963 564L 963 553.5L 963 543L 973.5 543L 984 543L 984 532.5L 984 522L 973.5 522L 963 522L 963 532.5L 963 543L 952.5 543L 942 543L 942 522L 942 501L 952.5 501L 963 501L 963 480L 963 459L 973.5 459L 984 459L 984 448.5L 984 438L 973.5 438L 963 438L 963 427.5L 963 417L 952.5 417L 942 417L 942 406.5L 942 396L 952.5 396L 963 396L 963 385.5L 963 375L 973.5 375L 984 375L 984 364.5L 984 354L 963 354L 942 354L 942 364.5L 942 375L 910.5 375L 879 375L 879 364.5L 879 354L 868.5 354L 858 354L 858 322.5L 858 291L 868.5 291L 879 291L 879 270L 879 249L 910.5 249L 942 249L 942 280.5L 942 312L 910.5 312L 879 312L 879 322.5L 879 333L 931.5 333L 984 333L 984 322.5L 984 312L 973.5 312L 963 312L 963 301.5L 963 291L 973.5 291L 984 291L 984 280.5L 984 270L 973.5 270L 963 270L 963 259.5L 963 249L 973.5 249L 984 249L 984 238.5L 984 228L 963 228L 942 228L 942 217.5L 942 207L 889.5 207L 837 207L 837 217.5L 837 228L 847.5 228L 858 228L 858 259.5L 858 291L 847.5 291L 837 291L 837 280.5L 837 270L 816 270L 795 270L 795 259.5L 795 249L 805.5 249L 816 249L 816 207L 816 165L 805.5 165L 795 165L 795 196.5L 795 228L 784.5 228L 774 228L 774 217.5L 774 207L 753 207L 732 207L 732 186L 732 165L 742.5 165L 753 165L 753 175.5L 753 186L 763.5 186L 774 186L 774 175.5L 774 165L 763.5 165L 753 165L 753 154.5L 753 144L 784.5 144L 816 144L 816 123L 816 102L 805.5 102L 795 102L 795 81L 795 60L 805.5 60L 816 60L 816 49.5L 816 39L 805.5 39L 795 39L 795 49.5L 795 60L 784.5 60L 774 60L 774 91.5L 774 123L 763.5 123L 753 123L 753 91.5L 753 60L 742.5 60L 732 60L 732 49.5L 732 39L 700.5 39L 669 39L 669 49.5L 669 60L 658.5 60L 648 60L 648 49.5L 648 39L 627 39L 606 39L 606 60L 606 81L 616.5 81L 627 81L 627 70.5L 627 60L 637.5 60L 648 60L 648 81L 648 102L 637.5 102L 627 102L 627 112.5L 627 123L 616.5 123L 606 123L 606 112.5L 606 102L 595.5 102L 585 102L 585 91.5L 585 81L 574.5 81L 564 81L 564 91.5L 564 102L 532.5 102L 501 102L 501 112.5L 501 123L 480 123L 459 123L 459 133.5L 459 144L 448.5 144L 438 144L 438 123L 438 102L 448.5 102L 459 102L 459 91.5L 459 81L 490.5 81L 522 81L 522 70.5L 522 60L 543 60L 564 60L 564 49.5L 564 39L 543 39L 522 39L 522 49.5L 522 60L 501 60L 480 60L 480 49.5L 480 39L 469.5 39L 459 39L 459 60L 459 81L 448.5 81L 438 81L 438 60L 438 39L 385.5 39L 333 39L 333 49.5zM 690 70.5L 690 81L 700.5 81L 711 81L 711 70.5L 711 60L 721.5 60L 732 60L 732 70.5L 732 81L 721.5 81L 711 81L 711 91.5L 711 102L 721.5 102L 732 102L 732 112.5L 732 123L 711 123L 690 123L 690 133.5L 690 144L 679.5 144L 669 144L 669 133.5L 669 123L 658.5 123L 648 123L 648 112.5L 648 102L 669 102L 690 102L 690 91.5L 690 81L 679.5 81L 669 81L 669 70.5L 669 60L 679.5 60L 690 60L 690 70.5zM 291 112.5L 291 123L 280.5 123L 270 123L 270 112.5L 270 102L 280.5 102L 291 102L 291 112.5zM 585 112.5L 585 123L 574.5 123L 564 123L 564 112.5L 564 102L 574.5 102L 585 102L 585 112.5zM 543 175.5L 543 207L 511.5 207L 480 207L 480 175.5L 480 144L 511.5 144L 543 144L 543 175.5zM 585 165L 585 186L 595.5 186L 606 186L 606 165L 606 144L 627 144L 648 144L 648 154.5L 648 165L 658.5 165L 669 165L 669 175.5L 669 186L 658.5 186L 648 186L 648 196.5L 648 207L 669 207L 690 207L 690 217.5L 690 228L 700.5 228L 711 228L 711 238.5L 711 249L 721.5 249L 732 249L 732 238.5L 732 228L 753 228L 774 228L 774 259.5L 774 291L 753 291L 732 291L 732 301.5L 732 312L 742.5 312L 753 312L 753 322.5L 753 333L 795 333L 837 333L 837 343.5L 837 354L 847.5 354L 858 354L 858 364.5L 858 375L 868.5 375L 879 375L 879 385.5L 879 396L 868.5 396L 858 396L 858 417L 858 438L 868.5 438L 879 438L 879 427.5L 879 417L 910.5 417L 942 417L 942 427.5L 942 438L 931.5 438L 921 438L 921 448.5L 921 459L 868.5 459L 816 459L 816 448.5L 816 438L 805.5 438L 795 438L 795 459L 795 480L 784.5 480L 774 480L 774 469.5L 774 459L 753 459L 732 459L 732 469.5L 732 480L 742.5 480L 753 480L 753 501L 753 522L 774 522L 795 522L 795 543L 795 564L 784.5 564L 774 564L 774 553.5L 774 543L 742.5 543L 711 543L 711 564L 711 585L 700.5 585L 690 585L 690 574.5L 690 564L 679.5 564L 669 564L 669 585L 669 606L 658.5 606L 648 606L 648 616.5L 648 627L 679.5 627L 711 627L 711 637.5L 711 648L 700.5 648L 690 648L 690 658.5L 690 669L 679.5 669L 669 669L 669 679.5L 669 690L 648 690L 627 690L 627 679.5L 627 669L 648 669L 669 669L 669 658.5L 669 648L 648 648L 627 648L 627 616.5L 627 585L 637.5 585L 648 585L 648 574.5L 648 564L 637.5 564L 627 564L 627 543L 627 522L 616.5 522L 606 522L 606 532.5L 606 543L 595.5 543L 585 543L 585 532.5L 585 522L 574.5 522L 564 522L 564 511.5L 564 501L 574.5 501L 585 501L 585 490.5L 585 480L 574.5 480L 564 480L 564 469.5L 564 459L 543 459L 522 459L 522 438L 522 417L 501 417L 480 417L 480 427.5L 480 438L 490.5 438L 501 438L 501 448.5L 501 459L 490.5 459L 480 459L 480 448.5L 480 438L 459 438L 438 438L 438 448.5L 438 459L 448.5 459L 459 459L 459 469.5L 459 480L 448.5 480L 438 480L 438 469.5L 438 459L 427.5 459L 417 459L 417 469.5L 417 480L 406.5 480L 396 480L 396 501L 396 522L 406.5 522L 417 522L 417 511.5L 417 501L 427.5 501L 438 501L 438 511.5L 438 522L 448.5 522L 459 522L 459 532.5L 459 543L 448.5 543L 438 543L 438 553.5L 438 564L 427.5 564L 417 564L 417 574.5L 417 585L 406.5 585L 396 585L 396 595.5L 396 606L 375 606L 354 606L 354 616.5L 354 627L 364.5 627L 375 627L 375 648L 375 669L 343.5 669L 312 669L 312 679.5L 312 690L 301.5 690L 291 690L 291 700.5L 291 711L 280.5 711L 270 711L 270 721.5L 270 732L 291 732L 312 732L 312 721.5L 312 711L 322.5 711L 333 711L 333 700.5L 333 690L 343.5 690L 354 690L 354 700.5L 354 711L 343.5 711L 333 711L 333 753L 333 795L 343.5 795L 354 795L 354 784.5L 354 774L 375 774L 396 774L 396 763.5L 396 753L 406.5 753L 417 753L 417 742.5L 417 732L 396 732L 375 732L 375 742.5L 375 753L 364.5 753L 354 753L 354 742.5L 354 732L 364.5 732L 375 732L 375 721.5L 375 711L 448.5 711L 522 711L 522 732L 522 753L 532.5 753L 543 753L 543 763.5L 543 774L 501 774L 459 774L 459 763.5L 459 753L 469.5 753L 480 753L 480 742.5L 480 732L 459 732L 438 732L 438 763.5L 438 795L 448.5 795L 459 795L 459 805.5L 459 816L 448.5 816L 438 816L 438 805.5L 438 795L 427.5 795L 417 795L 417 816L 417 837L 396 837L 375 837L 375 826.5L 375 816L 385.5 816L 396 816L 396 805.5L 396 795L 375 795L 354 795L 354 826.5L 354 858L 364.5 858L 375 858L 375 879L 375 900L 385.5 900L 396 900L 396 889.5L 396 879L 406.5 879L 417 879L 417 868.5L 417 858L 438 858L 459 858L 459 879L 459 900L 427.5 900L 396 900L 396 910.5L 396 921L 385.5 921L 375 921L 375 910.5L 375 900L 364.5 900L 354 900L 354 879L 354 858L 333 858L 312 858L 312 868.5L 312 879L 322.5 879L 333 879L 333 889.5L 333 900L 322.5 900L 312 900L 312 889.5L 312 879L 301.5 879L 291 879L 291 868.5L 291 858L 301.5 858L 312 858L 312 847.5L 312 837L 291 837L 270 837L 270 826.5L 270 816L 259.5 816L 249 816L 249 784.5L 249 753L 238.5 753L 228 753L 228 742.5L 228 732L 238.5 732L 249 732L 249 711L 249 690L 228 690L 207 690L 207 711L 207 732L 196.5 732L 186 732L 186 721.5L 186 711L 154.5 711L 123 711L 123 690L 123 669L 144 669L 165 669L 165 658.5L 165 648L 154.5 648L 144 648L 144 637.5L 144 627L 133.5 627L 123 627L 123 637.5L 123 648L 112.5 648L 102 648L 102 679.5L 102 711L 91.5 711L 81 711L 81 721.5L 81 732L 70.5 732L 60 732L 60 721.5L 60 711L 70.5 711L 81 711L 81 679.5L 81 648L 91.5 648L 102 648L 102 637.5L 102 627L 112.5 627L 123 627L 123 616.5L 123 606L 133.5 606L 144 606L 144 616.5L 144 627L 154.5 627L 165 627L 165 616.5L 165 606L 175.5 606L 186 606L 186 616.5L 186 627L 175.5 627L 165 627L 165 637.5L 165 648L 186 648L 207 648L 207 616.5L 207 585L 228 585L 249 585L 249 564L 249 543L 238.5 543L 228 543L 228 532.5L 228 522L 249 522L 270 522L 270 532.5L 270 543L 291 543L 312 543L 312 532.5L 312 522L 301.5 522L 291 522L 291 490.5L 291 459L 280.5 459L 270 459L 270 480L 270 501L 259.5 501L 249 501L 249 490.5L 249 480L 238.5 480L 228 480L 228 469.5L 228 459L 238.5 459L 249 459L 249 448.5L 249 438L 259.5 438L 270 438L 270 427.5L 270 417L 259.5 417L 249 417L 249 396L 249 375L 238.5 375L 228 375L 228 364.5L 228 354L 238.5 354L 249 354L 249 364.5L 249 375L 259.5 375L 270 375L 270 364.5L 270 354L 280.5 354L 291 354L 291 343.5L 291 333L 270 333L 249 333L 249 322.5L 249 312L 238.5 312L 228 312L 228 322.5L 228 333L 217.5 333L 207 333L 207 375L 207 417L 217.5 417L 228 417L 228 427.5L 228 438L 217.5 438L 207 438L 207 448.5L 207 459L 175.5 459L 144 459L 144 448.5L 144 438L 133.5 438L 123 438L 123 448.5L 123 459L 102 459L 81 459L 81 448.5L 81 438L 102 438L 123 438L 123 427.5L 123 417L 112.5 417L 102 417L 102 385.5L 102 354L 112.5 354L 123 354L 123 343.5L 123 333L 112.5 333L 102 333L 102 312L 102 291L 112.5 291L 123 291L 123 301.5L 123 312L 165 312L 207 312L 207 301.5L 207 291L 186 291L 165 291L 165 280.5L 165 270L 196.5 270L 228 270L 228 259.5L 228 249L 238.5 249L 249 249L 249 280.5L 249 312L 259.5 312L 270 312L 270 291L 270 270L 280.5 270L 291 270L 291 259.5L 291 249L 280.5 249L 270 249L 270 238.5L 270 228L 280.5 228L 291 228L 291 238.5L 291 249L 301.5 249L 312 249L 312 259.5L 312 270L 322.5 270L 333 270L 333 291L 333 312L 322.5 312L 312 312L 312 322.5L 312 333L 322.5 333L 333 333L 333 343.5L 333 354L 322.5 354L 312 354L 312 364.5L 312 375L 322.5 375L 333 375L 333 385.5L 333 396L 343.5 396L 354 396L 354 385.5L 354 375L 364.5 375L 375 375L 375 364.5L 375 354L 406.5 354L 438 354L 438 322.5L 438 291L 427.5 291L 417 291L 417 301.5L 417 312L 406.5 312L 396 312L 396 322.5L 396 333L 385.5 333L 375 333L 375 312L 375 291L 364.5 291L 354 291L 354 280.5L 354 270L 364.5 270L 375 270L 375 280.5L 375 291L 385.5 291L 396 291L 396 280.5L 396 270L 417 270L 438 270L 438 259.5L 438 249L 448.5 249L 459 249L 459 238.5L 459 228L 490.5 228L 522 228L 522 238.5L 522 249L 490.5 249L 459 249L 459 259.5L 459 270L 448.5 270L 438 270L 438 280.5L 438 291L 448.5 291L 459 291L 459 301.5L 459 312L 469.5 312L 480 312L 480 301.5L 480 291L 490.5 291L 501 291L 501 280.5L 501 270L 543 270L 585 270L 585 249L 585 228L 595.5 228L 606 228L 606 238.5L 606 249L 616.5 249L 627 249L 627 238.5L 627 228L 637.5 228L 648 228L 648 217.5L 648 207L 637.5 207L 627 207L 627 196.5L 627 186L 616.5 186L 606 186L 606 196.5L 606 207L 595.5 207L 585 207L 585 196.5L 585 186L 574.5 186L 564 186L 564 165L 564 144L 574.5 144L 585 144L 585 165zM 732 154.5L 732 165L 721.5 165L 711 165L 711 175.5L 711 186L 700.5 186L 690 186L 690 175.5L 690 165L 700.5 165L 711 165L 711 154.5L 711 144L 721.5 144L 732 144L 732 154.5zM 459 186L 459 207L 448.5 207L 438 207L 438 186L 438 165L 448.5 165L 459 165L 459 186zM 144 238.5L 144 249L 133.5 249L 123 249L 123 259.5L 123 270L 112.5 270L 102 270L 102 259.5L 102 249L 112.5 249L 123 249L 123 238.5L 123 228L 133.5 228L 144 228L 144 238.5zM 837 301.5L 837 312L 826.5 312L 816 312L 816 301.5L 816 291L 826.5 291L 837 291L 837 301.5zM 207 511.5L 207 543L 175.5 543L 144 543L 144 511.5L 144 480L 175.5 480L 207 480L 207 511.5zM 543 511.5L 543 543L 511.5 543L 480 543L 480 511.5L 480 480L 511.5 480L 543 480L 543 511.5zM 879 511.5L 879 543L 847.5 543L 816 543L 816 511.5L 816 480L 847.5 480L 879 480L 879 511.5zM 921 522L 921 543L 931.5 543L 942 543L 942 553.5L 942 564L 931.5 564L 921 564L 921 553.5L 921 543L 910.5 543L 900 543L 900 522L 900 501L 910.5 501L 921 501L 921 522zM 480 574.5L 480 585L 501 585L 522 585L 522 574.5L 522 564L 532.5 564L 543 564L 543 574.5L 543 585L 532.5 585L 522 585L 522 595.5L 522 606L 532.5 606L 543 606L 543 616.5L 543 627L 564 627L 585 627L 585 616.5L 585 606L 595.5 606L 606 606L 606 616.5L 606 627L 595.5 627L 585 627L 585 637.5L 585 648L 553.5 648L 522 648L 522 669L 522 690L 480 690L 438 690L 438 658.5L 438 627L 427.5 627L 417 627L 417 637.5L 417 648L 406.5 648L 396 648L 396 637.5L 396 627L 406.5 627L 417 627L 417 616.5L 417 606L 427.5 606L 438 606L 438 595.5L 438 585L 448.5 585L 459 585L 459 574.5L 459 564L 469.5 564L 480 564L 480 574.5zM 606 574.5L 606 585L 585 585L 564 585L 564 574.5L 564 564L 585 564L 606 564L 606 574.5zM 753 669L 753 690L 763.5 690L 774 690L 774 679.5L 774 669L 784.5 669L 795 669L 795 679.5L 795 690L 805.5 690L 816 690L 816 700.5L 816 711L 805.5 711L 795 711L 795 721.5L 795 732L 784.5 732L 774 732L 774 721.5L 774 711L 753 711L 732 711L 732 721.5L 732 732L 711 732L 690 732L 690 753L 690 774L 669 774L 648 774L 648 784.5L 648 795L 637.5 795L 627 795L 627 784.5L 627 774L 616.5 774L 606 774L 606 784.5L 606 795L 595.5 795L 585 795L 585 805.5L 585 816L 574.5 816L 564 816L 564 805.5L 564 795L 574.5 795L 585 795L 585 784.5L 585 774L 574.5 774L 564 774L 564 763.5L 564 753L 574.5 753L 585 753L 585 763.5L 585 774L 595.5 774L 606 774L 606 763.5L 606 753L 637.5 753L 669 753L 669 742.5L 669 732L 658.5 732L 648 732L 648 721.5L 648 711L 669 711L 690 711L 690 700.5L 690 690L 700.5 690L 711 690L 711 679.5L 711 669L 721.5 669L 732 669L 732 658.5L 732 648L 742.5 648L 753 648L 753 669zM 417 679.5L 417 690L 406.5 690L 396 690L 396 679.5L 396 669L 406.5 669L 417 669L 417 679.5zM 606 700.5L 606 711L 616.5 711L 627 711L 627 721.5L 627 732L 616.5 732L 606 732L 606 721.5L 606 711L 595.5 711L 585 711L 585 721.5L 585 732L 564 732L 543 732L 543 721.5L 543 711L 564 711L 585 711L 585 700.5L 585 690L 595.5 690L 606 690L 606 700.5zM 879 742.5L 879 753L 868.5 753L 858 753L 858 742.5L 858 732L 868.5 732L 879 732L 879 742.5zM 690 805.5L 690 816L 700.5 816L 711 816L 711 826.5L 711 837L 721.5 837L 732 837L 732 847.5L 732 858L 753 858L 774 858L 774 868.5L 774 879L 784.5 879L 795 879L 795 889.5L 795 900L 784.5 900L 774 900L 774 910.5L 774 921L 763.5 921L 753 921L 753 910.5L 753 900L 732 900L 711 900L 711 889.5L 711 879L 700.5 879L 690 879L 690 889.5L 690 900L 679.5 900L 669 900L 669 910.5L 669 921L 658.5 921L 648 921L 648 910.5L 648 900L 627 900L 606 900L 606 910.5L 606 921L 553.5 921L 501 921L 501 910.5L 501 900L 553.5 900L 606 900L 606 889.5L 606 879L 595.5 879L 585 879L 585 868.5L 585 858L 574.5 858L 564 858L 564 847.5L 564 837L 606 837L 648 837L 648 826.5L 648 816L 658.5 816L 669 816L 669 805.5L 669 795L 679.5 795L 690 795L 690 805.5zM 795 805.5L 795 816L 784.5 816L 774 816L 774 805.5L 774 795L 784.5 795L 795 795L 795 805.5zM 543 847.5L 543 879L 511.5 879L 480 879L 480 847.5L 480 816L 511.5 816L 543 816L 543 847.5zM 879 847.5L 879 879L 847.5 879L 816 879L 816 847.5L 816 816L 847.5 816L 879 816L 879 847.5zM 921 847.5L 921 858L 942 858L 963 858L 963 868.5L 963 879L 931.5 879L 900 879L 900 858L 900 837L 910.5 837L 921 837L 921 847.5zM 564 952.5L 564 963L 532.5 963L 501 963L 501 952.5L 501 942L 532.5 942L 564 942L 564 952.5zM 711 952.5L 711 963L 700.5 963L 690 963L 690 952.5L 690 942L 700.5 942L 711 942L 711 952.5z"/>
<path style="stroke:none; fill:#000000" d="M 501 175.5L 501 186L 511.5 186L 522 186L 522 175.5L 522 165L 511.5 165L 501 165L 501 175.5z"/>
<path style="stroke:none; fill:#000000" d="M 627 175.5L 627 186L 637.5 186L 648 186L 648 175.5L 648 165L 637.5 165L 627 165L 627 175.5z"/>
<path style="stroke:none; fill:#000000" d="M 648 238.5L 648 249L 658.5 249L 669 249L 669 238.5L 669 228L 658.5 228L 648 228L 648 238.5z"/>
<path style="stroke:none; fill:#000000" d="M 690 259.5L 690 270L 669 270L 648 270L 648 280.5L 648 291L 616.5 291L 585 291L 585 301.5L 585 312L 595.5 312L 606 312L 606 322.5L 606 333L 627 333L 648 333L 648 354L 648 375L 669 375L 690 375L 690 385.5L 690 396L 700.5 396L 711 396L 711 406.5L 711 417L 679.5 417L 648 417L 648 406.5L 648 396L 627 396L 606 396L 606 385.5L 606 375L 616.5 375L 627 375L 627 364.5L 627 354L 616.5 354L 606 354L 606 364.5L 606 375L 595.5 375L 585 375L 585 364.5L 585 354L 574.5 354L 564 354L 564 322.5L 564 291L 532.5 291L 501 291L 501 301.5L 501 312L 511.5 312L 522 312L 522 322.5L 522 333L 501 333L 480 333L 480 343.5L 480 354L 490.5 354L 501 354L 501 364.5L 501 375L 480 375L 459 375L 459 364.5L 459 354L 448.5 354L 438 354L 438 364.5L 438 375L 406.5 375L 375 375L 375 385.5L 375 396L 364.5 396L 354 396L 354 406.5L 354 417L 343.5 417L 333 417L 333 406.5L 333 396L 322.5 396L 312 396L 312 385.5L 312 375L 291 375L 270 375L 270 396L 270 417L 280.5 417L 291 417L 291 406.5L 291 396L 301.5 396L 312 396L 312 406.5L 312 417L 322.5 417L 333 417L 333 427.5L 333 438L 312 438L 291 438L 291 448.5L 291 459L 301.5 459L 312 459L 312 490.5L 312 522L 322.5 522L 333 522L 333 501L 333 480L 354 480L 375 480L 375 469.5L 375 459L 385.5 459L 396 459L 396 448.5L 396 438L 417 438L 438 438L 438 427.5L 438 417L 448.5 417L 459 417L 459 406.5L 459 396L 501 396L 543 396L 543 417L 543 438L 553.5 438L 564 438L 564 448.5L 564 459L 574.5 459L 585 459L 585 469.5L 585 480L 595.5 480L 606 480L 606 490.5L 606 501L 595.5 501L 585 501L 585 511.5L 585 522L 595.5 522L 606 522L 606 511.5L 606 501L 627 501L 648 501L 648 511.5L 648 522L 658.5 522L 669 522L 669 532.5L 669 543L 690 543L 711 543L 711 522L 711 501L 721.5 501L 732 501L 732 490.5L 732 480L 700.5 480L 669 480L 669 490.5L 669 501L 658.5 501L 648 501L 648 490.5L 648 480L 627 480L 606 480L 606 469.5L 606 459L 595.5 459L 585 459L 585 438L 585 417L 616.5 417L 648 417L 648 438L 648 459L 669 459L 690 459L 690 448.5L 690 438L 700.5 438L 711 438L 711 448.5L 711 459L 721.5 459L 732 459L 732 448.5L 732 438L 753 438L 774 438L 774 427.5L 774 417L 763.5 417L 753 417L 753 406.5L 753 396L 763.5 396L 774 396L 774 385.5L 774 375L 784.5 375L 795 375L 795 396L 795 417L 805.5 417L 816 417L 816 385.5L 816 354L 795 354L 774 354L 774 364.5L 774 375L 763.5 375L 753 375L 753 385.5L 753 396L 742.5 396L 732 396L 732 375L 732 354L 742.5 354L 753 354L 753 343.5L 753 333L 742.5 333L 732 333L 732 322.5L 732 312L 721.5 312L 711 312L 711 322.5L 711 333L 721.5 333L 732 333L 732 343.5L 732 354L 711 354L 690 354L 690 333L 690 312L 679.5 312L 669 312L 669 301.5L 669 291L 679.5 291L 690 291L 690 280.5L 690 270L 700.5 270L 711 270L 711 259.5L 711 249L 700.5 249L 690 249L 690 259.5zM 564 364.5L 564 375L 574.5 375L 585 375L 585 396L 585 417L 574.5 417L 564 417L 564 396L 564 375L 543 375L 522 375L 522 364.5L 522 354L 543 354L 564 354L 564 364.5zM 396 406.5L 396 417L 385.5 417L 375 417L 375 427.5L 375 438L 364.5 438L 354 438L 354 448.5L 354 459L 343.5 459L 333 459L 333 448.5L 333 438L 343.5 438L 354 438L 354 427.5L 354 417L 364.5 417L 375 417L 375 406.5L 375 396L 385.5 396L 396 396L 396 406.5zM 438 406.5L 438 417L 427.5 417L 417 417L 417 406.5L 417 396L 427.5 396L 438 396L 438 406.5zM 732 427.5L 732 438L 721.5 438L 711 438L 711 427.5L 711 417L 721.5 417L 732 417L 732 427.5z"/>
<path style="stroke:none; fill:#000000" d="M 732 259.5L 732 270L 742.5 270L 753 270L 753 259.5L 753 249L 742.5 249L 732 249L 732 259.5z"/>
<path style="stroke:none; fill:#000000" d="M 291 301.5L 291 312L 301.5 312L 312 312L 312 301.5L 312 291L 301.5 291L 291 291L 291 301.5z"/>
<path style="stroke:none; fill:#000000" d="M 165 343.5L 165 354L 175.5 354L 186 354L 186 343.5L 186 333L 175.5 333L 165 333L 165 343.5z"/>
<path style="stroke:none; fill:#000000" d="M 144 406.5L 144 438L 175.5 438L 207 438L 207 427.5L 207 417L 186 417L 165 417L 165 406.5L 165 396L 175.5 396L 186 396L 186 385.5L 186 375L 165 375L 144 375L 144 406.5z"/>
<path style="stroke:none; fill:#000000" d="M 837 385.5L 837 396L 847.5 396L 858 396L 858 385.5L 858 375L 847.5 375L 837 375L 837 385.5z"/>
<path style="stroke:none; fill:#000000" d="M 354 511.5L 354 522L 364.5 522L 375 522L 375 511.5L 375 501L 364.5 501L 354 501L 354 511.5z"/>
<path style="stroke:none; fill:#000000" d="M 333 553.5L 333 564L 354 564L 375 564L 375 574.5L 375 585L 385.5 585L 396 585L 396 574.5L 396 564L 406.5 564L 417 564L 417 553.5L 417 543L 375 543L 333 543L 333 553.5z"/>
<path style="stroke:none; fill:#000000" d="M 270 574.5L 270 585L 280.5 585L 291 585L 291 595.5L 291 606L 280.5 606L 270 606L 270 627L 270 648L 280.5 648L 291 648L 291 658.5L 291 669L 301.5 669L 312 669L 312 658.5L 312 648L 301.5 648L 291 648L 291 627L 291 606L 301.5 606L 312 606L 312 585L 312 564L 291 564L 270 564L 270 574.5z"/>
<path style="stroke:none; fill:#000000" d="M 228 648L 228 669L 238.5 669L 249 669L 249 648L 249 627L 238.5 627L 228 627L 228 648z"/>
<path style="stroke:none; fill:#000000" d="M 333 637.5L 333 648L 343.5 648L 354 648L 354 637.5L 354 627L 343.5 627L 333 627L 333 637.5z"/>
<path style="stroke:none; fill:#000000" d="M 165 679.5L 165 690L 175.5 690L 186 690L 186 679.5L 186 669L 175.5 669L 165 669L 165 679.5z"/>
<path style="stroke:none; fill:#000000" d="M 291 763.5L 291 774L 280.5 774L 270 774L 270 795L 270 816L 291 816L 312 816L 312 826.5L 312 837L 322.5 837L 333 837L 333 816L 333 795L 322.5 795L 312 795L 312 774L 312 753L 301.5 753L 291 753L 291 763.5z"/>
<path style="stroke:none; fill:#000000" d="M 396 784.5L 396 795L 406.5 795L 417 795L 417 784.5L 417 774L 406.5 774L 396 774L 396 784.5z"/>
<path style="stroke:none; fill:#000000" d="M 165 511.5L 165 522L 175.5 522L 186 522L 186 511.5L 186 501L 175.5 501L 165 501L 165 511.5z"/>
<path style="stroke:none; fill:#000000" d="M 501 511.5L 501 522L 511.5 522L 522 522L 522 511.5L 522 501L 511.5 501L 501 501L 501 511.5z"/>
<path style="stroke:none; fill:#000000" d="M 837 511.5L 837 522L 847.5 522L 858 522L 858 511.5L 858 501L 847.5 501L 837 501L 837 511.5z"/>
<path style="stroke:none; fill:#000000" d="M 459 637.5L 459 669L 469.5 669L 480 669L 480 658.5L 480 648L 490.5 648L 501 648L 501 637.5L 501 627L 511.5 627L 522 627L 522 616.5L 522 606L 490.5 606L 459 606L 459 637.5z"/>
<path style="stroke:none; fill:#000000" d="M 774 700.5L 774 711L 784.5 711L 795 711L 795 700.5L 795 690L 784.5 690L 774 690L 774 700.5z"/>
<path style="stroke:none; fill:#000000" d="M 648 847.5L 648 858L 637.5 858L 627 858L 627 868.5L 627 879L 658.5 879L 690 879L 690 868.5L 690 858L 700.5 858L 711 858L 711 847.5L 711 837L 679.5 837L 648 837L 648 847.5z"/>
<path style="stroke:none; fill:#000000" d="M 753 889.5L 753 900L 763.5 900L 774 900L 774 889.5L 774 879L 763.5 879L 753 879L 753 889.5z"/>
<path style="stroke:none; fill:#000000" d="M 501 847.5L 501 858L 511.5 858L 522 858L 522 847.5L 522 837L 511.5 837L 501 837L 501 847.5z"/>
<path style="stroke:none; fill:#000000" d="M 837 847.5L 837 858L 847.5 858L 858 858L 858 847.5L 858 837L 847.5 837L 837 837L 837 847.5z"/>
<path style="stroke:none; fill:#000000" d="M 837 112.5L 837 186L 910.5 186L 984 186L 984 112.5L 984 39L 910.5 39L 837 39L 837 112.5zM 963 112.5L 963 165L 910.5 165L 858 165L 858 112.5L 858 60L 910.5 60L 963 60L 963 112.5z"/>
<path style="stroke:none; fill:#000000" d="M 878 111L 878 142L 909 142L 940 142L 940 111L 940 80L 909 80L 878 80L 878 111z"/>
<path style="stroke:none; fill:#000000" d="M 333 165L 333 207L 343.5 207L 354 207L 354 186L 354 165L 364.5 165L 375 165L 375 186L 375 207L 385.5 207L 396 207L 396 186L 396 165L 385.5 165L 375 165L 375 154.5L 375 144L 364.5 144L 354 144L 354 133.5L 354 123L 343.5 123L 333 123L 333 165z"/>
<path style="stroke:none; fill:#000000" d="M 900 280.5L 900 291L 910.5 291L 921 291L 921 280.5L 921 270L 910.5 270L 900 270L 900 280.5z"/>
<path style="stroke:none; fill:#000000" d="M 39 532.5L 39 543L 49.5 543L 60 543L 60 532.5L 60 522L 49.5 522L 39 522L 39 532.5z"/>
<path style="stroke:none; fill:#000000" d="M 900 700.5L 900 711L 910.5 711L 921 711L 921 700.5L 921 690L 910.5 690L 900 690L 900 700.5z"/>
<path style="stroke:none; fill:#000000" d="M 39 910.5L 39 984L 112.5 984L 186 984L 186 910.5L 186 837L 112.5 837L 39 837L 39 910.5zM 165 910.5L 165 963L 112.5 963L 60 963L 60 910.5L 60 858L 112.5 858L 165 858L 165 910.5z"/>
<path style="stroke:none; fill:#000000" d="M 80 909L 80 940L 111 940L 142 940L 142 909L 142 878L 111 878L 80 878L 80 909z"/>
<path style="stroke:none; fill:#000000" d="M 333 952.5L 333 963L 343.5 963L 354 963L 354 973.5L 354 984L 364.5 984L 375 984L 375 973.5L 375 963L 364.5 963L 354 963L 354 952.5L 354 942L 343.5 942L 333 942L 333 952.5z"/>
<path style="stroke:none; fill:#000000" d="M 921 963L 921 984L 942 984L 963 984L 963 973.5L 963 963L 973.5 963L 984 963L 984 952.5L 984 942L 952.5 942L 921 942L 921 963z"/>
<path style="stroke:none; fill:#000000" d="M 207 973.5L 207 984L 217.5 984L 228 984L 228 973.5L 228 963L 217.5 963L 207 963L 207 973.5z"/>
</g>
</g>
</svg>