<?xml version="1.0" encoding="UTF-8" standalone="yes"?>
<!-- Created with sK1/UniConvertor (http://sk1project.org/) -->
<svg xmlns="http://www.w3.org/2000/svg" xmlns:xlink="http://www.w3.org/1999/xlink"
  width="1024pt" height="1024pt" viewBox="0 0 1024 1024"
  fill-rule="evenodd">
<g>
<g>
<path style="stroke:none; fill:#000000" d="M 57 106L 57 155L 106 155L 155 155L 155 106L 155 57L 106 57L 57 57L 57 106zM 141 106L 141 141L 106 141L 71 141L 71 106L 71 71L 106 71L 141 71L 141 106z"/>
<path style="stroke:none; fill:#000000" d="M 85 105.5L 85 126L 105.5 126L 126 126L 126 105.5L 126 85L 105.5 85L 85 85L 85 105.5z"/>
<path style="stroke:none; fill:#000000" d="M 211 64L 211 71L 204 71L 197 71L 197 85L 197 99L 190 99L 183 99L 183 92L 183 85L 176 85L 169 85L 169 127L 169 169L 176 169L 183 169L 183 183L 183 197L 176 197L 169 197L 169 204L 169 211L 162 211L 155 211L 155 204L 155 197L 148 197L 141 197L 141 190L 141 183L 148 183L 155 183L 155 176L 155 169L 120 169L 85 169L 85 176L 85 183L 92 183L 99 183L 99 190L 99 197L 85 197L 71 197L 71 183L 71 169L 64 169L 57 169L 57 183L 57 197L 64 197L 71 197L 71 204L 71 211L 64 211L 57 211L 57 225L 57 239L 64 239L 71 239L 71 246L 71 253L 64 253L 57 253L 57 260L 57 267L 64 267L 71 267L 71 260L 71 253L 78 253L 85 253L 85 246L 85 239L 106 239L 127 239L 127 246L 127 253L 134 253L 141 253L 141 260L 141 267L 127 267L 113 267L 113 260L 113 253L 106 253L 99 253L 99 267L 99 281L 113 281L 127 281L 127 309L 127 337L 120 337L 113 337L 113 344L 113 351L 106 351L 99 351L 99 344L 99 337L 92 337L 85 337L 85 344L 85 351L 92 351L 99 351L 99 358L 99 365L 113 365L 127 365L 127 351L 127 337L 134 337L 141 337L 141 344L 141 351L 148 351L 155 351L 155 358L 155 365L 148 365L 141 365L 141 372L 141 379L 113 379L 85 379L 85 372L 85 365L 78 365L 71 365L 71 372L 71 379L 78 379L 85 379L 85 386L 85 393L 99 393L 113 393L 113 400L 113 407L 99 407L 85 407L 85 414L 85 421L 78 421L 71 421L 71 407L 71 393L 64 393L 57 393L 57 442L 57 491L 64 491L 71 491L 71 484L 71 477L 78 477L 85 477L 85 484L 85 491L 92 491L 99 491L 99 498L 99 505L 92 505L 85 505L 85 512L 85 519L 78 519L 71 519L 71 512L 71 505L 64 505L 57 505L 57 512L 57 519L 64 519L 71 519L 71 526L 71 533L 64 533L 57 533L 57 540L 57 547L 64 547L 71 547L 71 540L 71 533L 85 533L 99 533L 99 540L 99 547L 92 547L 85 547L 85 561L 85 575L 92 575L 99 575L 99 582L 99 589L 85 589L 71 589L 71 596L 71 603L 64 603L 57 603L 57 617L 57 631L 64 631L 71 631L 71 638L 71 645L 64 645L 57 645L 57 659L 57 673L 64 673L 71 673L 71 680L 71 687L 64 687L 57 687L 57 708L 57 729L 71 729L 85 729L 85 736L 85 743L 71 743L 57 743L 57 750L 57 757L 71 757L 85 757L 85 771L 85 785L 99 785L 113 785L 113 792L 113 799L 106 799L 99 799L 99 806L 99 813L 92 813L 85 813L 85 820L 85 827L 92 827L 99 827L 99 834L 99 841L 85 841L 71 841L 71 834L 71 827L 64 827L 57 827L 57 834L 57 841L 64 841L 71 841L 71 848L 71 855L 85 855L 99 855L 99 848L 99 841L 106 841L 113 841L 113 848L 113 855L 120 855L 127 855L 127 848L 127 841L 120 841L 113 841L 113 827L 113 813L 120 813L 127 813L 127 820L 127 827L 148 827L 169 827L 169 820L 169 813L 148 813L 127 813L 127 799L 127 785L 120 785L 113 785L 113 778L 113 771L 134 771L 155 771L 155 778L 155 785L 148 785L 141 785L 141 792L 141 799L 162 799L 183 799L 183 813L 183 827L 190 827L 197 827L 197 834L 197 841L 169 841L 141 841L 141 848L 141 855L 155 855L 169 855L 169 862L 169 869L 176 869L 183 869L 183 876L 183 883L 176 883L 169 883L 169 911L 169 939L 183 939L 197 939L 197 932L 197 925L 211 925L 225 925L 225 939L 225 953L 218 953L 211 953L 211 960L 211 967L 232 967L 253 967L 253 960L 253 953L 260 953L 267 953L 267 946L 267 939L 260 939L 253 939L 253 932L 253 925L 260 925L 267 925L 267 918L 267 911L 281 911L 295 911L 295 904L 295 897L 281 897L 267 897L 267 890L 267 883L 281 883L 295 883L 295 876L 295 869L 302 869L 309 869L 309 897L 309 925L 302 925L 295 925L 295 932L 295 939L 288 939L 281 939L 281 953L 281 967L 295 967L 309 967L 309 960L 309 953L 302 953L 295 953L 295 946L 295 939L 316 939L 337 939L 337 925L 337 911L 344 911L 351 911L 351 918L 351 925L 358 925L 365 925L 365 946L 365 967L 372 967L 379 967L 379 960L 379 953L 386 953L 393 953L 393 960L 393 967L 421 967L 449 967L 449 925L 449 883L 456 883L 463 883L 463 876L 463 869L 470 869L 477 869L 477 890L 477 911L 470 911L 463 911L 463 925L 463 939L 477 939L 491 939L 491 925L 491 911L 519 911L 547 911L 547 918L 547 925L 533 925L 519 925L 519 932L 519 939L 512 939L 505 939L 505 946L 505 953L 512 953L 519 953L 519 960L 519 967L 526 967L 533 967L 533 960L 533 953L 540 953L 547 953L 547 946L 547 939L 561 939L 575 939L 575 953L 575 967L 589 967L 603 967L 603 960L 603 953L 596 953L 589 953L 589 939L 589 925L 596 925L 603 925L 603 932L 603 939L 610 939L 617 939L 617 953L 617 967L 624 967L 631 967L 631 960L 631 953L 645 953L 659 953L 659 960L 659 967L 666 967L 673 967L 673 960L 673 953L 680 953L 687 953L 687 960L 687 967L 708 967L 729 967L 729 960L 729 953L 708 953L 687 953L 687 946L 687 939L 680 939L 673 939L 673 932L 673 925L 680 925L 687 925L 687 911L 687 897L 680 897L 673 897L 673 911L 673 925L 666 925L 659 925L 659 932L 659 939L 652 939L 645 939L 645 925L 645 911L 631 911L 617 911L 617 890L 617 869L 624 869L 631 869L 631 883L 631 897L 645 897L 659 897L 659 890L 659 883L 666 883L 673 883L 673 876L 673 869L 680 869L 687 869L 687 876L 687 883L 708 883L 729 883L 729 897L 729 911L 722 911L 715 911L 715 904L 715 897L 708 897L 701 897L 701 904L 701 911L 708 911L 715 911L 715 925L 715 939L 729 939L 743 939L 743 946L 743 953L 750 953L 757 953L 757 960L 757 967L 764 967L 771 967L 771 960L 771 953L 778 953L 785 953L 785 960L 785 967L 792 967L 799 967L 799 960L 799 953L 813 953L 827 953L 827 960L 827 967L 834 967L 841 967L 841 960L 841 953L 848 953L 855 953L 855 946L 855 939L 862 939L 869 939L 869 953L 869 967L 890 967L 911 967L 911 960L 911 953L 918 953L 925 953L 925 960L 925 967L 932 967L 939 967L 939 953L 939 939L 946 939L 953 939L 953 946L 953 953L 960 953L 967 953L 967 946L 967 939L 960 939L 953 939L 953 932L 953 925L 939 925L 925 925L 925 911L 925 897L 918 897L 911 897L 911 883L 911 869L 918 869L 925 869L 925 876L 925 883L 932 883L 939 883L 939 897L 939 911L 946 911L 953 911L 953 904L 953 897L 960 897L 967 897L 967 890L 967 883L 960 883L 953 883L 953 869L 953 855L 946 855L 939 855L 939 862L 939 869L 932 869L 925 869L 925 855L 925 841L 946 841L 967 841L 967 834L 967 827L 960 827L 953 827L 953 820L 953 813L 960 813L 967 813L 967 806L 967 799L 960 799L 953 799L 953 806L 953 813L 939 813L 925 813L 925 799L 925 785L 932 785L 939 785L 939 778L 939 771L 932 771L 925 771L 925 764L 925 757L 918 757L 911 757L 911 750L 911 743L 918 743L 925 743L 925 729L 925 715L 932 715L 939 715L 939 722L 939 729L 953 729L 967 729L 967 722L 967 715L 960 715L 953 715L 953 708L 953 701L 960 701L 967 701L 967 694L 967 687L 960 687L 953 687L 953 694L 953 701L 939 701L 925 701L 925 694L 925 687L 918 687L 911 687L 911 659L 911 631L 904 631L 897 631L 897 624L 897 617L 904 617L 911 617L 911 610L 911 603L 897 603L 883 603L 883 617L 883 631L 869 631L 855 631L 855 638L 855 645L 862 645L 869 645L 869 652L 869 659L 855 659L 841 659L 841 673L 841 687L 834 687L 827 687L 827 694L 827 701L 848 701L 869 701L 869 708L 869 715L 855 715L 841 715L 841 729L 841 743L 827 743L 813 743L 813 736L 813 729L 820 729L 827 729L 827 722L 827 715L 820 715L 813 715L 813 701L 813 687L 806 687L 799 687L 799 680L 799 673L 813 673L 827 673L 827 659L 827 645L 834 645L 841 645L 841 638L 841 631L 827 631L 813 631L 813 645L 813 659L 792 659L 771 659L 771 652L 771 645L 785 645L 799 645L 799 624L 799 603L 806 603L 813 603L 813 610L 813 617L 820 617L 827 617L 827 610L 827 603L 820 603L 813 603L 813 596L 813 589L 855 589L 897 589L 897 582L 897 575L 911 575L 925 575L 925 561L 925 547L 932 547L 939 547L 939 540L 939 533L 946 533L 953 533L 953 526L 953 519L 960 519L 967 519L 967 505L 967 491L 953 491L 939 491L 939 484L 939 477L 946 477L 953 477L 953 470L 953 463L 946 463L 939 463L 939 470L 939 477L 932 477L 925 477L 925 470L 925 463L 918 463L 911 463L 911 456L 911 449L 918 449L 925 449L 925 442L 925 435L 932 435L 939 435L 939 442L 939 449L 953 449L 967 449L 967 442L 967 435L 960 435L 953 435L 953 428L 953 421L 960 421L 967 421L 967 414L 967 407L 960 407L 953 407L 953 414L 953 421L 939 421L 925 421L 925 414L 925 407L 932 407L 939 407L 939 400L 939 393L 953 393L 967 393L 967 379L 967 365L 946 365L 925 365L 925 351L 925 337L 918 337L 911 337L 911 323L 911 309L 897 309L 883 309L 883 302L 883 295L 890 295L 897 295L 897 288L 897 281L 932 281L 967 281L 967 260L 967 239L 960 239L 953 239L 953 232L 953 225L 960 225L 967 225L 967 211L 967 197L 960 197L 953 197L 953 190L 953 183L 946 183L 939 183L 939 176L 939 169L 904 169L 869 169L 869 176L 869 183L 890 183L 911 183L 911 190L 911 197L 897 197L 883 197L 883 218L 883 239L 876 239L 869 239L 869 232L 869 225L 862 225L 855 225L 855 239L 855 253L 848 253L 841 253L 841 239L 841 225L 834 225L 827 225L 827 211L 827 197L 820 197L 813 197L 813 190L 813 183L 799 183L 785 183L 785 190L 785 197L 799 197L 813 197L 813 211L 813 225L 820 225L 827 225L 827 232L 827 239L 820 239L 813 239L 813 253L 813 267L 806 267L 799 267L 799 274L 799 281L 792 281L 785 281L 785 274L 785 267L 778 267L 771 267L 771 274L 771 281L 764 281L 757 281L 757 267L 757 253L 743 253L 729 253L 729 274L 729 295L 736 295L 743 295L 743 288L 743 281L 750 281L 757 281L 757 295L 757 309L 743 309L 729 309L 729 316L 729 323L 722 323L 715 323L 715 302L 715 281L 701 281L 687 281L 687 274L 687 267L 680 267L 673 267L 673 260L 673 253L 680 253L 687 253L 687 246L 687 239L 694 239L 701 239L 701 253L 701 267L 708 267L 715 267L 715 246L 715 225L 701 225L 687 225L 687 218L 687 211L 701 211L 715 211L 715 204L 715 197L 701 197L 687 197L 687 183L 687 169L 680 169L 673 169L 673 162L 673 155L 680 155L 687 155L 687 148L 687 141L 694 141L 701 141L 701 148L 701 155L 708 155L 715 155L 715 148L 715 141L 722 141L 729 141L 729 162L 729 183L 736 183L 743 183L 743 190L 743 197L 736 197L 729 197L 729 218L 729 239L 736 239L 743 239L 743 232L 743 225L 750 225L 757 225L 757 232L 757 239L 764 239L 771 239L 771 246L 771 253L 785 253L 799 253L 799 246L 799 239L 785 239L 771 239L 771 232L 771 225L 764 225L 757 225L 757 218L 757 211L 764 211L 771 211L 771 190L 771 169L 778 169L 785 169L 785 162L 785 155L 792 155L 799 155L 799 162L 799 169L 820 169L 841 169L 841 162L 841 155L 848 155L 855 155L 855 148L 855 141L 848 141L 841 141L 841 148L 841 155L 834 155L 827 155L 827 141L 827 127L 813 127L 799 127L 799 120L 799 113L 792 113L 785 113L 785 99L 785 85L 778 85L 771 85L 771 78L 771 71L 792 71L 813 71L 813 64L 813 57L 792 57L 771 57L 771 64L 771 71L 764 71L 757 71L 757 78L 757 85L 750 85L 743 85L 743 78L 743 71L 736 71L 729 71L 729 78L 729 85L 722 85L 715 85L 715 92L 715 99L 708 99L 701 99L 701 106L 701 113L 708 113L 715 113L 715 106L 715 99L 722 99L 729 99L 729 106L 729 113L 736 113L 743 113L 743 106L 743 99L 750 99L 757 99L 757 113L 757 127L 736 127L 715 127L 715 134L 715 141L 708 141L 701 141L 701 134L 701 127L 694 127L 687 127L 687 120L 687 113L 680 113L 673 113L 673 106L 673 99L 666 99L 659 99L 659 92L 659 85L 666 85L 673 85L 673 78L 673 71L 680 71L 687 71L 687 78L 687 85L 694 85L 701 85L 701 71L 701 57L 687 57L 673 57L 673 64L 673 71L 666 71L 659 71L 659 64L 659 57L 652 57L 645 57L 645 64L 645 71L 638 71L 631 71L 631 64L 631 57L 624 57L 617 57L 617 64L 617 71L 624 71L 631 71L 631 85L 631 99L 645 99L 659 99L 659 120L 659 141L 652 141L 645 141L 645 148L 645 155L 638 155L 631 155L 631 148L 631 141L 624 141L 617 141L 617 134L 617 127L 631 127L 645 127L 645 120L 645 113L 631 113L 617 113L 617 99L 617 85L 610 85L 603 85L 603 92L 603 99L 596 99L 589 99L 589 106L 589 113L 582 113L 575 113L 575 92L 575 71L 582 71L 589 71L 589 64L 589 57L 582 57L 575 57L 575 64L 575 71L 568 71L 561 71L 561 64L 561 57L 554 57L 547 57L 547 78L 547 99L 540 99L 533 99L 533 106L 533 113L 526 113L 519 113L 519 99L 519 85L 526 85L 533 85L 533 78L 533 71L 526 71L 519 71L 519 64L 519 57L 512 57L 505 57L 505 64L 505 71L 498 71L 491 71L 491 64L 491 57L 477 57L 463 57L 463 64L 463 71L 456 71L 449 71L 449 64L 449 57L 414 57L 379 57L 379 64L 379 71L 365 71L 351 71L 351 78L 351 85L 344 85L 337 85L 337 78L 337 71L 330 71L 323 71L 323 78L 323 85L 316 85L 309 85L 309 78L 309 71L 302 71L 295 71L 295 78L 295 85L 274 85L 253 85L 253 92L 253 99L 246 99L 239 99L 239 78L 239 57L 225 57L 211 57L 211 64zM 225 78L 225 85L 218 85L 211 85L 211 78L 211 71L 218 71L 225 71L 225 78zM 449 78L 449 85L 456 85L 463 85L 463 92L 463 99L 477 99L 491 99L 491 92L 491 85L 498 85L 505 85L 505 78L 505 71L 512 71L 519 71L 519 78L 519 85L 512 85L 505 85L 505 92L 505 99L 498 99L 491 99L 491 106L 491 113L 470 113L 449 113L 449 120L 449 127L 442 127L 435 127L 435 134L 435 141L 442 141L 449 141L 449 148L 449 155L 456 155L 463 155L 463 148L 463 141L 470 141L 477 141L 477 148L 477 155L 470 155L 463 155L 463 162L 463 169L 470 169L 477 169L 477 176L 477 183L 470 183L 463 183L 463 190L 463 197L 456 197L 449 197L 449 190L 449 183L 435 183L 421 183L 421 190L 421 197L 428 197L 435 197L 435 204L 435 211L 449 211L 463 211L 463 218L 463 225L 470 225L 477 225L 477 232L 477 239L 470 239L 463 239L 463 246L 463 253L 477 253L 491 253L 491 239L 491 225L 498 225L 505 225L 505 211L 505 197L 498 197L 491 197L 491 204L 491 211L 484 211L 477 211L 477 204L 477 197L 484 197L 491 197L 491 190L 491 183L 498 183L 505 183L 505 190L 505 197L 519 197L 533 197L 533 190L 533 183L 547 183L 561 183L 561 176L 561 169L 554 169L 547 169L 547 155L 547 141L 554 141L 561 141L 561 148L 561 155L 568 155L 575 155L 575 141L 575 127L 561 127L 547 127L 547 113L 547 99L 554 99L 561 99L 561 106L 561 113L 568 113L 575 113L 575 120L 575 127L 582 127L 589 127L 589 141L 589 155L 596 155L 603 155L 603 148L 603 141L 610 141L 617 141L 617 155L 617 169L 645 169L 673 169L 673 183L 673 197L 680 197L 687 197L 687 204L 687 211L 680 211L 673 211L 673 218L 673 225L 680 225L 687 225L 687 232L 687 239L 666 239L 645 239L 645 246L 645 253L 652 253L 659 253L 659 260L 659 267L 666 267L 673 267L 673 274L 673 281L 680 281L 687 281L 687 288L 687 295L 694 295L 701 295L 701 309L 701 323L 708 323L 715 323L 715 330L 715 337L 729 337L 743 337L 743 330L 743 323L 750 323L 757 323L 757 316L 757 309L 778 309L 799 309L 799 302L 799 295L 806 295L 813 295L 813 288L 813 281L 827 281L 841 281L 841 274L 841 267L 834 267L 827 267L 827 260L 827 253L 834 253L 841 253L 841 260L 841 267L 848 267L 855 267L 855 260L 855 253L 869 253L 883 253L 883 246L 883 239L 890 239L 897 239L 897 225L 897 211L 904 211L 911 211L 911 204L 911 197L 918 197L 925 197L 925 190L 925 183L 932 183L 939 183L 939 190L 939 197L 946 197L 953 197L 953 204L 953 211L 946 211L 939 211L 939 218L 939 225L 932 225L 925 225L 925 232L 925 239L 939 239L 953 239L 953 253L 953 267L 946 267L 939 267L 939 260L 939 253L 932 253L 925 253L 925 260L 925 267L 918 267L 911 267L 911 260L 911 253L 897 253L 883 253L 883 267L 883 281L 869 281L 855 281L 855 295L 855 309L 869 309L 883 309L 883 316L 883 323L 890 323L 897 323L 897 330L 897 337L 876 337L 855 337L 855 351L 855 365L 869 365L 883 365L 883 372L 883 379L 890 379L 897 379L 897 393L 897 407L 904 407L 911 407L 911 393L 911 379L 925 379L 939 379L 939 386L 939 393L 932 393L 925 393L 925 400L 925 407L 918 407L 911 407L 911 414L 911 421L 904 421L 897 421L 897 435L 897 449L 883 449L 869 449L 869 442L 869 435L 862 435L 855 435L 855 442L 855 449L 848 449L 841 449L 841 456L 841 463L 834 463L 827 463L 827 470L 827 477L 834 477L 841 477L 841 484L 841 491L 834 491L 827 491L 827 484L 827 477L 820 477L 813 477L 813 470L 813 463L 792 463L 771 463L 771 456L 771 449L 764 449L 757 449L 757 456L 757 463L 750 463L 743 463L 743 470L 743 477L 729 477L 715 477L 715 463L 715 449L 694 449L 673 449L 673 463L 673 477L 680 477L 687 477L 687 470L 687 463L 694 463L 701 463L 701 477L 701 491L 715 491L 729 491L 729 498L 729 505L 708 505L 687 505L 687 512L 687 519L 694 519L 701 519L 701 533L 701 547L 715 547L 729 547L 729 561L 729 575L 750 575L 771 575L 771 568L 771 561L 764 561L 757 561L 757 554L 757 547L 764 547L 771 547L 771 554L 771 561L 778 561L 785 561L 785 547L 785 533L 792 533L 799 533L 799 526L 799 519L 792 519L 785 519L 785 505L 785 491L 778 491L 771 491L 771 498L 771 505L 764 505L 757 505L 757 512L 757 519L 750 519L 743 519L 743 526L 743 533L 729 533L 715 533L 715 526L 715 519L 729 519L 743 519L 743 512L 743 505L 750 505L 757 505L 757 498L 757 491L 764 491L 771 491L 771 484L 771 477L 785 477L 799 477L 799 491L 799 505L 813 505L 827 505L 827 512L 827 519L 834 519L 841 519L 841 526L 841 533L 820 533L 799 533L 799 554L 799 575L 806 575L 813 575L 813 568L 813 561L 820 561L 827 561L 827 554L 827 547L 841 547L 855 547L 855 554L 855 561L 862 561L 869 561L 869 554L 869 547L 876 547L 883 547L 883 561L 883 575L 848 575L 813 575L 813 582L 813 589L 806 589L 799 589L 799 596L 799 603L 785 603L 771 603L 771 610L 771 617L 778 617L 785 617L 785 624L 785 631L 778 631L 771 631L 771 638L 771 645L 743 645L 715 645L 715 652L 715 659L 729 659L 743 659L 743 666L 743 673L 722 673L 701 673L 701 680L 701 687L 736 687L 771 687L 771 680L 771 673L 764 673L 757 673L 757 666L 757 659L 764 659L 771 659L 771 666L 771 673L 778 673L 785 673L 785 680L 785 687L 778 687L 771 687L 771 694L 771 701L 785 701L 799 701L 799 722L 799 743L 806 743L 813 743L 813 750L 813 757L 834 757L 855 757L 855 764L 855 771L 862 771L 869 771L 869 757L 869 743L 862 743L 855 743L 855 736L 855 729L 869 729L 883 729L 883 736L 883 743L 890 743L 897 743L 897 736L 897 729L 904 729L 911 729L 911 736L 911 743L 904 743L 897 743L 897 750L 897 757L 904 757L 911 757L 911 764L 911 771L 918 771L 925 771L 925 778L 925 785L 918 785L 911 785L 911 778L 911 771L 897 771L 883 771L 883 785L 883 799L 890 799L 897 799L 897 806L 897 813L 911 813L 925 813L 925 827L 925 841L 918 841L 911 841L 911 834L 911 827L 897 827L 883 827L 883 813L 883 799L 862 799L 841 799L 841 792L 841 785L 848 785L 855 785L 855 778L 855 771L 813 771L 771 771L 771 778L 771 785L 799 785L 827 785L 827 799L 827 813L 848 813L 869 813L 869 820L 869 827L 862 827L 855 827L 855 834L 855 841L 848 841L 841 841L 841 848L 841 855L 813 855L 785 855L 785 848L 785 841L 771 841L 757 841L 757 848L 757 855L 750 855L 743 855L 743 862L 743 869L 722 869L 701 869L 701 862L 701 855L 687 855L 673 855L 673 848L 673 841L 666 841L 659 841L 659 848L 659 855L 652 855L 645 855L 645 862L 645 869L 638 869L 631 869L 631 862L 631 855L 624 855L 617 855L 617 841L 617 827L 610 827L 603 827L 603 834L 603 841L 596 841L 589 841L 589 848L 589 855L 596 855L 603 855L 603 876L 603 897L 596 897L 589 897L 589 911L 589 925L 582 925L 575 925L 575 911L 575 897L 561 897L 547 897L 547 890L 547 883L 561 883L 575 883L 575 876L 575 869L 568 869L 561 869L 561 862L 561 855L 568 855L 575 855L 575 848L 575 841L 533 841L 491 841L 491 813L 491 785L 498 785L 505 785L 505 778L 505 771L 498 771L 491 771L 491 757L 491 743L 505 743L 519 743L 519 736L 519 729L 512 729L 505 729L 505 722L 505 715L 498 715L 491 715L 491 722L 491 729L 463 729L 435 729L 435 743L 435 757L 442 757L 449 757L 449 750L 449 743L 463 743L 477 743L 477 764L 477 785L 470 785L 463 785L 463 792L 463 799L 470 799L 477 799L 477 820L 477 841L 470 841L 463 841L 463 855L 463 869L 456 869L 449 869L 449 848L 449 827L 456 827L 463 827L 463 820L 463 813L 456 813L 449 813L 449 799L 449 785L 442 785L 435 785L 435 792L 435 799L 428 799L 421 799L 421 813L 421 827L 428 827L 435 827L 435 883L 435 939L 421 939L 407 939L 407 932L 407 925L 386 925L 365 925L 365 918L 365 911L 386 911L 407 911L 407 918L 407 925L 414 925L 421 925L 421 897L 421 869L 414 869L 407 869L 407 862L 407 855L 414 855L 421 855L 421 848L 421 841L 414 841L 407 841L 407 834L 407 827L 400 827L 393 827L 393 799L 393 771L 372 771L 351 771L 351 764L 351 757L 358 757L 365 757L 365 743L 365 729L 358 729L 351 729L 351 736L 351 743L 344 743L 337 743L 337 750L 337 757L 323 757L 309 757L 309 764L 309 771L 302 771L 295 771L 295 778L 295 785L 288 785L 281 785L 281 792L 281 799L 295 799L 309 799L 309 792L 309 785L 316 785L 323 785L 323 778L 323 771L 330 771L 337 771L 337 778L 337 785L 344 785L 351 785L 351 792L 351 799L 344 799L 337 799L 337 813L 337 827L 330 827L 323 827L 323 834L 323 841L 337 841L 351 841L 351 834L 351 827L 365 827L 379 827L 379 834L 379 841L 386 841L 393 841L 393 848L 393 855L 379 855L 365 855L 365 848L 365 841L 358 841L 351 841L 351 855L 351 869L 358 869L 365 869L 365 883L 365 897L 358 897L 351 897L 351 883L 351 869L 344 869L 337 869L 337 876L 337 883L 330 883L 323 883L 323 876L 323 869L 316 869L 309 869L 309 862L 309 855L 295 855L 281 855L 281 827L 281 799L 274 799L 267 799L 267 820L 267 841L 260 841L 253 841L 253 820L 253 799L 232 799L 211 799L 211 806L 211 813L 218 813L 225 813L 225 820L 225 827L 211 827L 197 827L 197 813L 197 799L 204 799L 211 799L 211 785L 211 771L 218 771L 225 771L 225 764L 225 757L 239 757L 253 757L 253 736L 253 715L 246 715L 239 715L 239 708L 239 701L 246 701L 253 701L 253 708L 253 715L 260 715L 267 715L 267 722L 267 729L 274 729L 281 729L 281 715L 281 701L 274 701L 267 701L 267 687L 267 673L 281 673L 295 673L 295 659L 295 645L 302 645L 309 645L 309 659L 309 673L 302 673L 295 673L 295 680L 295 687L 288 687L 281 687L 281 694L 281 701L 288 701L 295 701L 295 715L 295 729L 288 729L 281 729L 281 743L 281 757L 288 757L 295 757L 295 750L 295 743L 316 743L 337 743L 337 736L 337 729L 330 729L 323 729L 323 722L 323 715L 344 715L 365 715L 365 722L 365 729L 372 729L 379 729L 379 722L 379 715L 386 715L 393 715L 393 708L 393 701L 407 701L 421 701L 421 694L 421 687L 414 687L 407 687L 407 680L 407 673L 400 673L 393 673L 393 680L 393 687L 386 687L 379 687L 379 680L 379 673L 386 673L 393 673L 393 659L 393 645L 386 645L 379 645L 379 652L 379 659L 358 659L 337 659L 337 652L 337 645L 330 645L 323 645L 323 631L 323 617L 330 617L 337 617L 337 610L 337 603L 344 603L 351 603L 351 610L 351 617L 344 617L 337 617L 337 624L 337 631L 351 631L 365 631L 365 638L 365 645L 372 645L 379 645L 379 638L 379 631L 386 631L 393 631L 393 638L 393 645L 400 645L 407 645L 407 638L 407 631L 414 631L 421 631L 421 624L 421 617L 428 617L 435 617L 435 610L 435 603L 428 603L 421 603L 421 596L 421 589L 414 589L 407 589L 407 603L 407 617L 400 617L 393 617L 393 610L 393 603L 386 603L 379 603L 379 610L 379 617L 372 617L 365 617L 365 610L 365 603L 372 603L 379 603L 379 575L 379 547L 386 547L 393 547L 393 533L 393 519L 379 519L 365 519L 365 512L 365 505L 358 505L 351 505L 351 512L 351 519L 344 519L 337 519L 337 512L 337 505L 344 505L 351 505L 351 498L 351 491L 358 491L 365 491L 365 498L 365 505L 386 505L 407 505L 407 498L 407 491L 393 491L 379 491L 379 484L 379 477L 372 477L 365 477L 365 470L 365 463L 372 463L 379 463L 379 456L 379 449L 386 449L 393 449L 393 442L 393 435L 400 435L 407 435L 407 428L 407 421L 421 421L 435 421L 435 414L 435 407L 428 407L 421 407L 421 400L 421 393L 428 393L 435 393L 435 386L 435 379L 428 379L 421 379L 421 372L 421 365L 414 365L 407 365L 407 372L 407 379L 400 379L 393 379L 393 386L 393 393L 400 393L 407 393L 407 400L 407 407L 400 407L 393 407L 393 414L 393 421L 386 421L 379 421L 379 428L 379 435L 372 435L 365 435L 365 428L 365 421L 358 421L 351 421L 351 414L 351 407L 358 407L 365 407L 365 414L 365 421L 372 421L 379 421L 379 414L 379 407L 386 407L 393 407L 393 400L 393 393L 372 393L 351 393L 351 386L 351 379L 316 379L 281 379L 281 393L 281 407L 288 407L 295 407L 295 400L 295 393L 316 393L 337 393L 337 407L 337 421L 330 421L 323 421L 323 428L 323 435L 302 435L 281 435L 281 421L 281 407L 267 407L 253 407L 253 414L 253 421L 246 421L 239 421L 239 414L 239 407L 246 407L 253 407L 253 393L 253 379L 246 379L 239 379L 239 386L 239 393L 232 393L 225 393L 225 386L 225 379L 218 379L 211 379L 211 393L 211 407L 218 407L 225 407L 225 414L 225 421L 218 421L 211 421L 211 414L 211 407L 204 407L 197 407L 197 428L 197 449L 204 449L 211 449L 211 442L 211 435L 218 435L 225 435L 225 442L 225 449L 218 449L 211 449L 211 456L 211 463L 225 463L 239 463L 239 470L 239 477L 246 477L 253 477L 253 470L 253 463L 267 463L 281 463L 281 470L 281 477L 288 477L 295 477L 295 463L 295 449L 302 449L 309 449L 309 463L 309 477L 323 477L 337 477L 337 470L 337 463L 330 463L 323 463L 323 456L 323 449L 330 449L 337 449L 337 442L 337 435L 344 435L 351 435L 351 442L 351 449L 344 449L 337 449L 337 456L 337 463L 344 463L 351 463L 351 470L 351 477L 344 477L 337 477L 337 484L 337 491L 323 491L 309 491L 309 484L 309 477L 302 477L 295 477L 295 491L 295 505L 281 505L 267 505L 267 491L 267 477L 260 477L 253 477L 253 484L 253 491L 246 491L 239 491L 239 498L 239 505L 246 505L 253 505L 253 512L 253 519L 246 519L 239 519L 239 512L 239 505L 232 505L 225 505L 225 498L 225 491L 218 491L 211 491L 211 484L 211 477L 204 477L 197 477L 197 491L 197 505L 190 505L 183 505L 183 491L 183 477L 190 477L 197 477L 197 470L 197 463L 183 463L 169 463L 169 470L 169 477L 141 477L 113 477L 113 484L 113 491L 106 491L 99 491L 99 484L 99 477L 106 477L 113 477L 113 470L 113 463L 92 463L 71 463L 71 456L 71 449L 78 449L 85 449L 85 442L 85 435L 92 435L 99 435L 99 428L 99 421L 106 421L 113 421L 113 414L 113 407L 120 407L 127 407L 127 414L 127 421L 134 421L 141 421L 141 414L 141 407L 155 407L 169 407L 169 414L 169 421L 155 421L 141 421L 141 428L 141 435L 155 435L 169 435L 169 442L 169 449L 176 449L 183 449L 183 414L 183 379L 176 379L 169 379L 169 386L 169 393L 155 393L 141 393L 141 386L 141 379L 148 379L 155 379L 155 372L 155 365L 169 365L 183 365L 183 358L 183 351L 169 351L 155 351L 155 344L 155 337L 148 337L 141 337L 141 330L 141 323L 148 323L 155 323L 155 316L 155 309L 148 309L 141 309L 141 302L 141 295L 148 295L 155 295L 155 302L 155 309L 162 309L 169 309L 169 302L 169 295L 176 295L 183 295L 183 288L 183 281L 190 281L 197 281L 197 260L 197 239L 204 239L 211 239L 211 225L 211 211L 232 211L 253 211L 253 225L 253 239L 260 239L 267 239L 267 225L 267 211L 274 211L 281 211L 281 225L 281 239L 288 239L 295 239L 295 232L 295 225L 302 225L 309 225L 309 218L 309 211L 302 211L 295 211L 295 204L 295 197L 246 197L 197 197L 197 183L 197 169L 204 169L 211 169L 211 176L 211 183L 232 183L 253 183L 253 176L 253 169L 246 169L 239 169L 239 141L 239 113L 232 113L 225 113L 225 120L 225 127L 218 127L 211 127L 211 120L 211 113L 218 113L 225 113L 225 106L 225 99L 232 99L 239 99L 239 106L 239 113L 246 113L 253 113L 253 120L 253 127L 260 127L 267 127L 267 120L 267 113L 274 113L 281 113L 281 120L 281 127L 288 127L 295 127L 295 106L 295 85L 302 85L 309 85L 309 92L 309 99L 330 99L 351 99L 351 106L 351 113L 358 113L 365 113L 365 134L 365 155L 358 155L 351 155L 351 134L 351 113L 337 113L 323 113L 323 127L 323 141L 330 141L 337 141L 337 155L 337 169L 351 169L 365 169L 365 176L 365 183L 372 183L 379 183L 379 134L 379 85L 386 85L 393 85L 393 78L 393 71L 421 71L 449 71L 449 78zM 743 92L 743 99L 736 99L 729 99L 729 92L 729 85L 736 85L 743 85L 743 92zM 771 92L 771 99L 764 99L 757 99L 757 92L 757 85L 764 85L 771 85L 771 92zM 533 148L 533 169L 512 169L 491 169L 491 148L 491 127L 512 127L 533 127L 533 148zM 687 134L 687 141L 680 141L 673 141L 673 148L 673 155L 666 155L 659 155L 659 148L 659 141L 666 141L 673 141L 673 134L 673 127L 680 127L 687 127L 687 134zM 771 134L 771 141L 778 141L 785 141L 785 134L 785 127L 792 127L 799 127L 799 134L 799 141L 806 141L 813 141L 813 148L 813 155L 806 155L 799 155L 799 148L 799 141L 792 141L 785 141L 785 148L 785 155L 778 155L 771 155L 771 162L 771 169L 764 169L 757 169L 757 176L 757 183L 750 183L 743 183L 743 176L 743 169L 750 169L 757 169L 757 162L 757 155L 750 155L 743 155L 743 148L 743 141L 750 141L 757 141L 757 134L 757 127L 764 127L 771 127L 771 134zM 197 148L 197 155L 190 155L 183 155L 183 148L 183 141L 190 141L 197 141L 197 148zM 225 148L 225 155L 218 155L 211 155L 211 148L 211 141L 218 141L 225 141L 225 148zM 127 204L 127 211L 141 211L 155 211L 155 218L 155 225L 169 225L 183 225L 183 218L 183 211L 190 211L 197 211L 197 218L 197 225L 190 225L 183 225L 183 232L 183 239L 169 239L 155 239L 155 246L 155 253L 148 253L 141 253L 141 246L 141 239L 148 239L 155 239L 155 232L 155 225L 141 225L 127 225L 127 218L 127 211L 113 211L 99 211L 99 218L 99 225L 92 225L 85 225L 85 232L 85 239L 78 239L 71 239L 71 225L 71 211L 85 211L 99 211L 99 204L 99 197L 113 197L 127 197L 127 204zM 757 204L 757 211L 750 211L 743 211L 743 204L 743 197L 750 197L 757 197L 757 204zM 183 260L 183 267L 176 267L 169 267L 169 274L 169 281L 155 281L 141 281L 141 274L 141 267L 155 267L 169 267L 169 260L 169 253L 176 253L 183 253L 183 260zM 785 288L 785 295L 778 295L 771 295L 771 288L 771 281L 778 281L 785 281L 785 288zM 911 358L 911 365L 904 365L 897 365L 897 358L 897 351L 904 351L 911 351L 911 358zM 883 470L 883 477L 876 477L 869 477L 869 470L 869 463L 876 463L 883 463L 883 470zM 911 470L 911 477L 918 477L 925 477L 925 484L 925 491L 918 491L 911 491L 911 484L 911 477L 904 477L 897 477L 897 470L 897 463L 904 463L 911 463L 911 470zM 169 512L 169 533L 148 533L 127 533L 127 512L 127 491L 148 491L 169 491L 169 512zM 897 512L 897 533L 876 533L 855 533L 855 512L 855 491L 876 491L 897 491L 897 512zM 323 519L 323 533L 316 533L 309 533L 309 540L 309 547L 316 547L 323 547L 323 554L 323 561L 309 561L 295 561L 295 568L 295 575L 274 575L 253 575L 253 582L 253 589L 246 589L 239 589L 239 582L 239 575L 246 575L 253 575L 253 561L 253 547L 246 547L 239 547L 239 554L 239 561L 232 561L 225 561L 225 575L 225 589L 211 589L 197 589L 197 596L 197 603L 204 603L 211 603L 211 610L 211 617L 204 617L 197 617L 197 610L 197 603L 183 603L 169 603L 169 610L 169 617L 176 617L 183 617L 183 624L 183 631L 176 631L 169 631L 169 652L 169 673L 183 673L 197 673L 197 680L 197 687L 204 687L 211 687L 211 680L 211 673L 218 673L 225 673L 225 687L 225 701L 197 701L 169 701L 169 694L 169 687L 162 687L 155 687L 155 694L 155 701L 148 701L 141 701L 141 708L 141 715L 148 715L 155 715L 155 722L 155 729L 162 729L 169 729L 169 722L 169 715L 176 715L 183 715L 183 722L 183 729L 176 729L 169 729L 169 736L 169 743L 162 743L 155 743L 155 750L 155 757L 169 757L 183 757L 183 764L 183 771L 169 771L 155 771L 155 764L 155 757L 148 757L 141 757L 141 750L 141 743L 134 743L 127 743L 127 750L 127 757L 113 757L 99 757L 99 743L 99 729L 92 729L 85 729L 85 708L 85 687L 92 687L 99 687L 99 701L 99 715L 106 715L 113 715L 113 722L 113 729L 127 729L 141 729L 141 722L 141 715L 134 715L 127 715L 127 708L 127 701L 134 701L 141 701L 141 694L 141 687L 148 687L 155 687L 155 680L 155 673L 148 673L 141 673L 141 666L 141 659L 148 659L 155 659L 155 652L 155 645L 134 645L 113 645L 113 652L 113 659L 120 659L 127 659L 127 673L 127 687L 120 687L 113 687L 113 680L 113 673L 106 673L 99 673L 99 666L 99 659L 92 659L 85 659L 85 666L 85 673L 78 673L 71 673L 71 666L 71 659L 78 659L 85 659L 85 631L 85 603L 92 603L 99 603L 99 596L 99 589L 113 589L 127 589L 127 596L 127 603L 113 603L 99 603L 99 617L 99 631L 106 631L 113 631L 113 624L 113 617L 127 617L 141 617L 141 610L 141 603L 148 603L 155 603L 155 596L 155 589L 148 589L 141 589L 141 582L 141 575L 134 575L 127 575L 127 568L 127 561L 134 561L 141 561L 141 554L 141 547L 148 547L 155 547L 155 554L 155 561L 169 561L 183 561L 183 554L 183 547L 197 547L 211 547L 211 533L 211 519L 218 519L 225 519L 225 533L 225 547L 232 547L 239 547L 239 540L 239 533L 253 533L 267 533L 267 547L 267 561L 274 561L 281 561L 281 540L 281 519L 295 519L 309 519L 309 512L 309 505L 316 505L 323 505L 323 519zM 113 526L 113 533L 106 533L 99 533L 99 526L 99 519L 106 519L 113 519L 113 526zM 197 526L 197 533L 190 533L 183 533L 183 526L 183 519L 190 519L 197 519L 197 526zM 939 526L 939 533L 932 533L 925 533L 925 526L 925 519L 932 519L 939 519L 939 526zM 365 540L 365 547L 358 547L 351 547L 351 540L 351 533L 358 533L 365 533L 365 540zM 113 568L 113 575L 106 575L 99 575L 99 568L 99 561L 106 561L 113 561L 113 568zM 323 582L 323 589L 316 589L 309 589L 309 582L 309 575L 316 575L 323 575L 323 582zM 351 582L 351 589L 344 589L 337 589L 337 582L 337 575L 344 575L 351 575L 351 582zM 253 610L 253 617L 260 617L 267 617L 267 610L 267 603L 288 603L 309 603L 309 610L 309 617L 302 617L 295 617L 295 624L 295 631L 274 631L 253 631L 253 638L 253 645L 267 645L 281 645L 281 652L 281 659L 267 659L 253 659L 253 652L 253 645L 246 645L 239 645L 239 652L 239 659L 225 659L 211 659L 211 645L 211 631L 218 631L 225 631L 225 617L 225 603L 239 603L 253 603L 253 610zM 897 645L 897 659L 890 659L 883 659L 883 645L 883 631L 890 631L 897 631L 897 645zM 253 680L 253 687L 246 687L 239 687L 239 680L 239 673L 246 673L 253 673L 253 680zM 337 680L 337 687L 330 687L 323 687L 323 694L 323 701L 316 701L 309 701L 309 694L 309 687L 316 687L 323 687L 323 680L 323 673L 330 673L 337 673L 337 680zM 365 680L 365 687L 358 687L 351 687L 351 680L 351 673L 358 673L 365 673L 365 680zM 883 680L 883 687L 869 687L 855 687L 855 680L 855 673L 869 673L 883 673L 883 680zM 911 694L 911 701L 918 701L 925 701L 925 708L 925 715L 904 715L 883 715L 883 708L 883 701L 890 701L 897 701L 897 694L 897 687L 904 687L 911 687L 911 694zM 225 722L 225 729L 232 729L 239 729L 239 736L 239 743L 232 743L 225 743L 225 736L 225 729L 218 729L 211 729L 211 722L 211 715L 218 715L 225 715L 225 722zM 211 750L 211 757L 204 757L 197 757L 197 750L 197 743L 204 743L 211 743L 211 750zM 379 792L 379 799L 372 799L 365 799L 365 792L 365 785L 372 785L 379 785L 379 792zM 225 855L 225 869L 211 869L 197 869L 197 855L 197 841L 211 841L 225 841L 225 855zM 253 862L 253 869L 246 869L 239 869L 239 862L 239 855L 246 855L 253 855L 253 862zM 533 876L 533 897L 512 897L 491 897L 491 876L 491 855L 512 855L 533 855L 533 876zM 897 876L 897 897L 876 897L 855 897L 855 876L 855 855L 876 855L 897 855L 897 876zM 799 890L 799 911L 806 911L 813 911L 813 904L 813 897L 827 897L 841 897L 841 911L 841 925L 848 925L 855 925L 855 918L 855 911L 883 911L 911 911L 911 918L 911 925L 918 925L 925 925L 925 932L 925 939L 918 939L 911 939L 911 946L 911 953L 904 953L 897 953L 897 946L 897 939L 890 939L 883 939L 883 932L 883 925L 869 925L 855 925L 855 932L 855 939L 848 939L 841 939L 841 932L 841 925L 834 925L 827 925L 827 918L 827 911L 820 911L 813 911L 813 925L 813 939L 799 939L 785 939L 785 932L 785 925L 792 925L 799 925L 799 918L 799 911L 792 911L 785 911L 785 897L 785 883L 778 883L 771 883L 771 890L 771 897L 764 897L 757 897L 757 904L 757 911L 764 911L 771 911L 771 918L 771 925L 764 925L 757 925L 757 932L 757 939L 764 939L 771 939L 771 946L 771 953L 764 953L 757 953L 757 946L 757 939L 750 939L 743 939L 743 932L 743 925L 736 925L 729 925L 729 918L 729 911L 736 911L 743 911L 743 904L 743 897L 750 897L 757 897L 757 890L 757 883L 764 883L 771 883L 771 876L 771 869L 785 869L 799 869L 799 890zM 239 897L 239 911L 246 911L 253 911L 253 918L 253 925L 246 925L 239 925L 239 918L 239 911L 232 911L 225 911L 225 904L 225 897L 218 897L 211 897L 211 904L 211 911L 204 911L 197 911L 197 918L 197 925L 190 925L 183 925L 183 918L 183 911L 190 911L 197 911L 197 904L 197 897L 190 897L 183 897L 183 890L 183 883L 211 883L 239 883L 239 897zM 393 890L 393 897L 386 897L 379 897L 379 890L 379 883L 386 883L 393 883L 393 890zM 337 904L 337 911L 330 911L 323 911L 323 904L 323 897L 330 897L 337 897L 337 904zM 631 932L 631 939L 624 939L 617 939L 617 932L 617 925L 624 925L 631 925L 631 932zM 673 946L 673 953L 666 953L 659 953L 659 946L 659 939L 666 939L 673 939L 673 946z"/>
<path style="stroke:none; fill:#000000" d="M 393 99L 393 113L 400 113L 407 113L 407 127L 407 141L 400 141L 393 141L 393 155L 393 169L 400 169L 407 169L 407 176L 407 183L 400 183L 393 183L 393 190L 393 197L 379 197L 365 197L 365 190L 365 183L 358 183L 351 183L 351 197L 351 211L 344 211L 337 211L 337 197L 337 183L 330 183L 323 183L 323 190L 323 197L 316 197L 309 197L 309 204L 309 211L 316 211L 323 211L 323 218L 323 225L 316 225L 309 225L 309 239L 309 253L 316 253L 323 253L 323 246L 323 239L 330 239L 337 239L 337 232L 337 225L 344 225L 351 225L 351 232L 351 239L 365 239L 379 239L 379 253L 379 267L 358 267L 337 267L 337 274L 337 281L 330 281L 323 281L 323 288L 323 295L 316 295L 309 295L 309 288L 309 281L 295 281L 281 281L 281 288L 281 295L 288 295L 295 295L 295 309L 295 323L 288 323L 281 323L 281 316L 281 309L 267 309L 253 309L 253 302L 253 295L 246 295L 239 295L 239 288L 239 281L 246 281L 253 281L 253 274L 253 267L 274 267L 295 267L 295 260L 295 253L 288 253L 281 253L 281 246L 281 239L 274 239L 267 239L 267 246L 267 253L 260 253L 253 253L 253 246L 253 239L 239 239L 225 239L 225 288L 225 337L 218 337L 211 337L 211 344L 211 351L 204 351L 197 351L 197 365L 197 379L 204 379L 211 379L 211 372L 211 365L 218 365L 225 365L 225 372L 225 379L 232 379L 239 379L 239 372L 239 365L 246 365L 253 365L 253 372L 253 379L 267 379L 281 379L 281 372L 281 365L 288 365L 295 365L 295 344L 295 323L 302 323L 309 323L 309 330L 309 337L 323 337L 337 337L 337 344L 337 351L 330 351L 323 351L 323 358L 323 365L 330 365L 337 365L 337 358L 337 351L 344 351L 351 351L 351 344L 351 337L 379 337L 407 337L 407 330L 407 323L 400 323L 393 323L 393 316L 393 309L 407 309L 421 309L 421 302L 421 295L 414 295L 407 295L 407 281L 407 267L 414 267L 421 267L 421 274L 421 281L 428 281L 435 281L 435 302L 435 323L 428 323L 421 323L 421 330L 421 337L 428 337L 435 337L 435 330L 435 323L 449 323L 463 323L 463 330L 463 337L 477 337L 491 337L 491 344L 491 351L 477 351L 463 351L 463 358L 463 365L 449 365L 435 365L 435 372L 435 379L 449 379L 463 379L 463 386L 463 393L 456 393L 449 393L 449 407L 449 421L 442 421L 435 421L 435 428L 435 435L 428 435L 421 435L 421 442L 421 449L 428 449L 435 449L 435 456L 435 463L 442 463L 449 463L 449 470L 449 477L 442 477L 435 477L 435 484L 435 491L 428 491L 421 491L 421 484L 421 477L 414 477L 407 477L 407 484L 407 491L 414 491L 421 491L 421 498L 421 505L 414 505L 407 505L 407 526L 407 547L 414 547L 421 547L 421 554L 421 561L 414 561L 407 561L 407 568L 407 575L 400 575L 393 575L 393 582L 393 589L 400 589L 407 589L 407 582L 407 575L 421 575L 435 575L 435 589L 435 603L 456 603L 477 603L 477 610L 477 617L 470 617L 463 617L 463 624L 463 631L 456 631L 449 631L 449 624L 449 617L 442 617L 435 617L 435 624L 435 631L 442 631L 449 631L 449 638L 449 645L 442 645L 435 645L 435 652L 435 659L 449 659L 463 659L 463 645L 463 631L 470 631L 477 631L 477 624L 477 617L 491 617L 505 617L 505 610L 505 603L 512 603L 519 603L 519 610L 519 617L 540 617L 561 617L 561 624L 561 631L 568 631L 575 631L 575 610L 575 589L 561 589L 547 589L 547 582L 547 575L 554 575L 561 575L 561 568L 561 561L 554 561L 547 561L 547 568L 547 575L 533 575L 519 575L 519 582L 519 589L 512 589L 505 589L 505 568L 505 547L 512 547L 519 547L 519 554L 519 561L 526 561L 533 561L 533 554L 533 547L 561 547L 589 547L 589 540L 589 533L 596 533L 603 533L 603 526L 603 519L 610 519L 617 519L 617 526L 617 533L 624 533L 631 533L 631 540L 631 547L 617 547L 603 547L 603 554L 603 561L 596 561L 589 561L 589 568L 589 575L 596 575L 603 575L 603 582L 603 589L 617 589L 631 589L 631 596L 631 603L 617 603L 603 603L 603 610L 603 617L 596 617L 589 617L 589 624L 589 631L 596 631L 603 631L 603 638L 603 645L 624 645L 645 645L 645 638L 645 631L 638 631L 631 631L 631 624L 631 617L 645 617L 659 617L 659 624L 659 631L 666 631L 673 631L 673 638L 673 645L 666 645L 659 645L 659 652L 659 659L 645 659L 631 659L 631 666L 631 673L 610 673L 589 673L 589 666L 589 659L 582 659L 575 659L 575 652L 575 645L 561 645L 547 645L 547 638L 547 631L 526 631L 505 631L 505 645L 505 659L 491 659L 477 659L 477 666L 477 673L 463 673L 449 673L 449 687L 449 701L 442 701L 435 701L 435 708L 435 715L 449 715L 463 715L 463 701L 463 687L 470 687L 477 687L 477 680L 477 673L 484 673L 491 673L 491 687L 491 701L 498 701L 505 701L 505 708L 505 715L 519 715L 533 715L 533 722L 533 729L 540 729L 547 729L 547 736L 547 743L 533 743L 519 743L 519 750L 519 757L 512 757L 505 757L 505 764L 505 771L 512 771L 519 771L 519 778L 519 785L 526 785L 533 785L 533 778L 533 771L 554 771L 575 771L 575 778L 575 785L 561 785L 547 785L 547 792L 547 799L 533 799L 519 799L 519 806L 519 813L 512 813L 505 813L 505 820L 505 827L 512 827L 519 827L 519 820L 519 813L 533 813L 547 813L 547 820L 547 827L 561 827L 575 827L 575 820L 575 813L 582 813L 589 813L 589 806L 589 799L 603 799L 617 799L 617 806L 617 813L 624 813L 631 813L 631 806L 631 799L 638 799L 645 799L 645 792L 645 785L 659 785L 673 785L 673 799L 673 813L 659 813L 645 813L 645 820L 645 827L 638 827L 631 827L 631 834L 631 841L 645 841L 659 841L 659 834L 659 827L 666 827L 673 827L 673 820L 673 813L 680 813L 687 813L 687 820L 687 827L 694 827L 701 827L 701 813L 701 799L 708 799L 715 799L 715 820L 715 841L 708 841L 701 841L 701 848L 701 855L 722 855L 743 855L 743 848L 743 841L 750 841L 757 841L 757 834L 757 827L 764 827L 771 827L 771 820L 771 813L 785 813L 799 813L 799 820L 799 827L 792 827L 785 827L 785 834L 785 841L 813 841L 841 841L 841 834L 841 827L 834 827L 827 827L 827 820L 827 813L 813 813L 799 813L 799 806L 799 799L 785 799L 771 799L 771 792L 771 785L 764 785L 757 785L 757 778L 757 771L 764 771L 771 771L 771 750L 771 729L 764 729L 757 729L 757 722L 757 715L 750 715L 743 715L 743 708L 743 701L 722 701L 701 701L 701 694L 701 687L 680 687L 659 687L 659 694L 659 701L 645 701L 631 701L 631 687L 631 673L 645 673L 659 673L 659 666L 659 659L 666 659L 673 659L 673 652L 673 645L 687 645L 701 645L 701 638L 701 631L 736 631L 771 631L 771 624L 771 617L 764 617L 757 617L 757 610L 757 603L 764 603L 771 603L 771 596L 771 589L 750 589L 729 589L 729 596L 729 603L 736 603L 743 603L 743 610L 743 617L 715 617L 687 617L 687 624L 687 631L 680 631L 673 631L 673 624L 673 617L 666 617L 659 617L 659 610L 659 603L 666 603L 673 603L 673 596L 673 589L 687 589L 701 589L 701 596L 701 603L 708 603L 715 603L 715 596L 715 589L 708 589L 701 589L 701 582L 701 575L 708 575L 715 575L 715 568L 715 561L 701 561L 687 561L 687 554L 687 547L 680 547L 673 547L 673 554L 673 561L 680 561L 687 561L 687 568L 687 575L 645 575L 603 575L 603 568L 603 561L 631 561L 659 561L 659 547L 659 533L 652 533L 645 533L 645 526L 645 519L 631 519L 617 519L 617 512L 617 505L 638 505L 659 505L 659 498L 659 491L 666 491L 673 491L 673 484L 673 477L 666 477L 659 477L 659 470L 659 463L 652 463L 645 463L 645 477L 645 491L 624 491L 603 491L 603 484L 603 477L 610 477L 617 477L 617 470L 617 463L 624 463L 631 463L 631 456L 631 449L 624 449L 617 449L 617 442L 617 435L 610 435L 603 435L 603 442L 603 449L 596 449L 589 449L 589 428L 589 407L 596 407L 603 407L 603 414L 603 421L 624 421L 645 421L 645 414L 645 407L 638 407L 631 407L 631 400L 631 393L 652 393L 673 393L 673 407L 673 421L 666 421L 659 421L 659 428L 659 435L 652 435L 645 435L 645 442L 645 449L 659 449L 673 449L 673 435L 673 421L 680 421L 687 421L 687 414L 687 407L 694 407L 701 407L 701 421L 701 435L 708 435L 715 435L 715 442L 715 449L 722 449L 729 449L 729 456L 729 463L 736 463L 743 463L 743 456L 743 449L 750 449L 757 449L 757 442L 757 435L 750 435L 743 435L 743 428L 743 421L 736 421L 729 421L 729 414L 729 407L 736 407L 743 407L 743 400L 743 393L 736 393L 729 393L 729 400L 729 407L 722 407L 715 407L 715 400L 715 393L 694 393L 673 393L 673 386L 673 379L 659 379L 645 379L 645 365L 645 351L 638 351L 631 351L 631 344L 631 337L 645 337L 659 337L 659 330L 659 323L 666 323L 673 323L 673 316L 673 309L 680 309L 687 309L 687 302L 687 295L 680 295L 673 295L 673 288L 673 281L 666 281L 659 281L 659 274L 659 267L 631 267L 603 267L 603 274L 603 281L 596 281L 589 281L 589 274L 589 267L 582 267L 575 267L 575 260L 575 253L 561 253L 547 253L 547 246L 547 239L 554 239L 561 239L 561 225L 561 211L 568 211L 575 211L 575 204L 575 197L 582 197L 589 197L 589 204L 589 211L 596 211L 603 211L 603 204L 603 197L 617 197L 631 197L 631 211L 631 225L 624 225L 617 225L 617 232L 617 239L 610 239L 603 239L 603 232L 603 225L 596 225L 589 225L 589 232L 589 239L 596 239L 603 239L 603 246L 603 253L 617 253L 631 253L 631 246L 631 239L 638 239L 645 239L 645 232L 645 225L 652 225L 659 225L 659 218L 659 211L 666 211L 673 211L 673 204L 673 197L 666 197L 659 197L 659 204L 659 211L 652 211L 645 211L 645 197L 645 183L 631 183L 617 183L 617 176L 617 169L 603 169L 589 169L 589 162L 589 155L 582 155L 575 155L 575 162L 575 169L 582 169L 589 169L 589 176L 589 183L 582 183L 575 183L 575 190L 575 197L 554 197L 533 197L 533 204L 533 211L 540 211L 547 211L 547 218L 547 225L 526 225L 505 225L 505 239L 505 253L 498 253L 491 253L 491 267L 491 281L 484 281L 477 281L 477 274L 477 267L 470 267L 463 267L 463 260L 463 253L 449 253L 435 253L 435 260L 435 267L 428 267L 421 267L 421 260L 421 253L 414 253L 407 253L 407 239L 407 225L 414 225L 421 225L 421 232L 421 239L 442 239L 463 239L 463 232L 463 225L 449 225L 435 225L 435 218L 435 211L 428 211L 421 211L 421 204L 421 197L 414 197L 407 197L 407 190L 407 183L 414 183L 421 183L 421 176L 421 169L 428 169L 435 169L 435 155L 435 141L 428 141L 421 141L 421 127L 421 113L 414 113L 407 113L 407 106L 407 99L 414 99L 421 99L 421 92L 421 85L 407 85L 393 85L 393 99zM 421 155L 421 169L 414 169L 407 169L 407 155L 407 141L 414 141L 421 141L 421 155zM 603 190L 603 197L 596 197L 589 197L 589 190L 589 183L 596 183L 603 183L 603 190zM 379 218L 379 225L 365 225L 351 225L 351 218L 351 211L 365 211L 379 211L 379 218zM 407 218L 407 225L 400 225L 393 225L 393 218L 393 211L 400 211L 407 211L 407 218zM 533 253L 533 267L 540 267L 547 267L 547 274L 547 281L 554 281L 561 281L 561 288L 561 295L 575 295L 589 295L 589 302L 589 309L 610 309L 631 309L 631 316L 631 323L 624 323L 617 323L 617 330L 617 337L 603 337L 589 337L 589 344L 589 351L 596 351L 603 351L 603 358L 603 365L 617 365L 631 365L 631 372L 631 379L 624 379L 617 379L 617 393L 617 407L 610 407L 603 407L 603 400L 603 393L 596 393L 589 393L 589 400L 589 407L 582 407L 575 407L 575 414L 575 421L 561 421L 547 421L 547 407L 547 393L 533 393L 519 393L 519 400L 519 407L 526 407L 533 407L 533 414L 533 421L 526 421L 519 421L 519 428L 519 435L 533 435L 547 435L 547 442L 547 449L 568 449L 589 449L 589 456L 589 463L 596 463L 603 463L 603 470L 603 477L 596 477L 589 477L 589 484L 589 491L 596 491L 603 491L 603 498L 603 505L 596 505L 589 505L 589 519L 589 533L 568 533L 547 533L 547 519L 547 505L 554 505L 561 505L 561 512L 561 519L 568 519L 575 519L 575 512L 575 505L 582 505L 589 505L 589 498L 589 491L 582 491L 575 491L 575 484L 575 477L 547 477L 519 477L 519 470L 519 463L 505 463L 491 463L 491 449L 491 435L 484 435L 477 435L 477 442L 477 449L 470 449L 463 449L 463 456L 463 463L 470 463L 477 463L 477 470L 477 477L 470 477L 463 477L 463 470L 463 463L 456 463L 449 463L 449 456L 449 449L 442 449L 435 449L 435 442L 435 435L 449 435L 463 435L 463 428L 463 421L 477 421L 491 421L 491 414L 491 407L 498 407L 505 407L 505 386L 505 365L 498 365L 491 365L 491 379L 491 393L 484 393L 477 393L 477 400L 477 407L 470 407L 463 407L 463 400L 463 393L 470 393L 477 393L 477 386L 477 379L 470 379L 463 379L 463 372L 463 365L 477 365L 491 365L 491 358L 491 351L 498 351L 505 351L 505 358L 505 365L 526 365L 547 365L 547 351L 547 337L 540 337L 533 337L 533 344L 533 351L 526 351L 519 351L 519 337L 519 323L 512 323L 505 323L 505 316L 505 309L 498 309L 491 309L 491 316L 491 323L 477 323L 463 323L 463 316L 463 309L 456 309L 449 309L 449 302L 449 295L 456 295L 463 295L 463 302L 463 309L 477 309L 491 309L 491 295L 491 281L 505 281L 519 281L 519 274L 519 267L 512 267L 505 267L 505 260L 505 253L 512 253L 519 253L 519 246L 519 239L 526 239L 533 239L 533 253zM 253 260L 253 267L 246 267L 239 267L 239 260L 239 253L 246 253L 253 253L 253 260zM 407 260L 407 267L 400 267L 393 267L 393 288L 393 309L 386 309L 379 309L 379 302L 379 295L 365 295L 351 295L 351 302L 351 309L 358 309L 365 309L 365 316L 365 323L 358 323L 351 323L 351 330L 351 337L 344 337L 337 337L 337 330L 337 323L 344 323L 351 323L 351 316L 351 309L 344 309L 337 309L 337 302L 337 295L 344 295L 351 295L 351 288L 351 281L 365 281L 379 281L 379 274L 379 267L 386 267L 393 267L 393 260L 393 253L 400 253L 407 253L 407 260zM 463 274L 463 281L 449 281L 435 281L 435 274L 435 267L 449 267L 463 267L 463 274zM 617 288L 617 295L 610 295L 603 295L 603 288L 603 281L 610 281L 617 281L 617 288zM 659 288L 659 295L 666 295L 673 295L 673 302L 673 309L 666 309L 659 309L 659 302L 659 295L 645 295L 631 295L 631 288L 631 281L 645 281L 659 281L 659 288zM 253 316L 253 323L 267 323L 281 323L 281 330L 281 337L 274 337L 267 337L 267 344L 267 351L 260 351L 253 351L 253 337L 253 323L 246 323L 239 323L 239 316L 239 309L 246 309L 253 309L 253 316zM 323 316L 323 323L 316 323L 309 323L 309 316L 309 309L 316 309L 323 309L 323 316zM 239 344L 239 351L 232 351L 225 351L 225 344L 225 337L 232 337L 239 337L 239 344zM 449 498L 449 505L 456 505L 463 505L 463 498L 463 491L 470 491L 477 491L 477 498L 477 505L 470 505L 463 505L 463 519L 463 533L 456 533L 449 533L 449 519L 449 505L 442 505L 435 505L 435 519L 435 533L 428 533L 421 533L 421 519L 421 505L 428 505L 435 505L 435 498L 435 491L 442 491L 449 491L 449 498zM 533 512L 533 533L 512 533L 491 533L 491 512L 491 491L 512 491L 533 491L 533 512zM 477 554L 477 561L 484 561L 491 561L 491 575L 491 589L 498 589L 505 589L 505 596L 505 603L 498 603L 491 603L 491 596L 491 589L 477 589L 463 589L 463 582L 463 575L 449 575L 435 575L 435 568L 435 561L 442 561L 449 561L 449 554L 449 547L 463 547L 477 547L 477 554zM 533 596L 533 603L 526 603L 519 603L 519 596L 519 589L 526 589L 533 589L 533 596zM 659 596L 659 603L 652 603L 645 603L 645 596L 645 589L 652 589L 659 589L 659 596zM 617 624L 617 631L 610 631L 603 631L 603 624L 603 617L 610 617L 617 617L 617 624zM 547 666L 547 673L 568 673L 589 673L 589 680L 589 687L 582 687L 575 687L 575 694L 575 701L 561 701L 547 701L 547 708L 547 715L 540 715L 533 715L 533 708L 533 701L 540 701L 547 701L 547 694L 547 687L 533 687L 519 687L 519 680L 519 673L 512 673L 505 673L 505 666L 505 659L 526 659L 547 659L 547 666zM 631 708L 631 715L 624 715L 617 715L 617 729L 617 743L 610 743L 603 743L 603 750L 603 757L 624 757L 645 757L 645 750L 645 743L 638 743L 631 743L 631 736L 631 729L 645 729L 659 729L 659 722L 659 715L 666 715L 673 715L 673 708L 673 701L 680 701L 687 701L 687 708L 687 715L 701 715L 715 715L 715 722L 715 729L 701 729L 687 729L 687 736L 687 743L 715 743L 743 743L 743 736L 743 729L 736 729L 729 729L 729 722L 729 715L 736 715L 743 715L 743 722L 743 729L 750 729L 757 729L 757 736L 757 743L 750 743L 743 743L 743 750L 743 757L 750 757L 757 757L 757 764L 757 771L 750 771L 743 771L 743 778L 743 785L 750 785L 757 785L 757 792L 757 799L 750 799L 743 799L 743 806L 743 813L 736 813L 729 813L 729 806L 729 799L 722 799L 715 799L 715 792L 715 785L 708 785L 701 785L 701 792L 701 799L 694 799L 687 799L 687 792L 687 785L 680 785L 673 785L 673 778L 673 771L 666 771L 659 771L 659 764L 659 757L 652 757L 645 757L 645 764L 645 771L 631 771L 617 771L 617 778L 617 785L 624 785L 631 785L 631 792L 631 799L 624 799L 617 799L 617 792L 617 785L 603 785L 589 785L 589 778L 589 771L 582 771L 575 771L 575 764L 575 757L 561 757L 547 757L 547 750L 547 743L 554 743L 561 743L 561 736L 561 729L 568 729L 575 729L 575 722L 575 715L 589 715L 603 715L 603 708L 603 701L 617 701L 631 701L 631 708zM 533 764L 533 771L 526 771L 519 771L 519 764L 519 757L 526 757L 533 757L 533 764zM 575 806L 575 813L 561 813L 547 813L 547 806L 547 799L 561 799L 575 799L 575 806z"/>
<path style="stroke:none; fill:#000000" d="M 533 288L 533 295L 519 295L 505 295L 505 302L 505 309L 512 309L 519 309L 519 316L 519 323L 526 323L 533 323L 533 309L 533 295L 540 295L 547 295L 547 288L 547 281L 540 281L 533 281L 533 288z"/>
<path style="stroke:none; fill:#000000" d="M 547 316L 547 323L 554 323L 561 323L 561 337L 561 351L 568 351L 575 351L 575 344L 575 337L 582 337L 589 337L 589 323L 589 309L 568 309L 547 309L 547 316z"/>
<path style="stroke:none; fill:#000000" d="M 561 372L 561 379L 554 379L 547 379L 547 386L 547 393L 568 393L 589 393L 589 379L 589 365L 575 365L 561 365L 561 372z"/>
<path style="stroke:none; fill:#000000" d="M 505 414L 505 421L 498 421L 491 421L 491 428L 491 435L 498 435L 505 435L 505 442L 505 449L 512 449L 519 449L 519 456L 519 463L 533 463L 547 463L 547 456L 547 449L 533 449L 519 449L 519 442L 519 435L 512 435L 505 435L 505 428L 505 421L 512 421L 519 421L 519 414L 519 407L 512 407L 505 407L 505 414z"/>
<path style="stroke:none; fill:#000000" d="M 575 470L 575 477L 582 477L 589 477L 589 470L 589 463L 582 463L 575 463L 575 470z"/>
<path style="stroke:none; fill:#000000" d="M 505 512L 505 519L 512 519L 519 519L 519 512L 519 505L 512 505L 505 505L 505 512z"/>
<path style="stroke:none; fill:#000000" d="M 463 568L 463 575L 470 575L 477 575L 477 568L 477 561L 470 561L 463 561L 463 568z"/>
<path style="stroke:none; fill:#000000" d="M 589 736L 589 743L 596 743L 603 743L 603 736L 603 729L 596 729L 589 729L 589 736z"/>
<path style="stroke:none; fill:#000000" d="M 673 750L 673 757L 680 757L 687 757L 687 764L 687 771L 715 771L 743 771L 743 764L 743 757L 715 757L 687 757L 687 750L 687 743L 680 743L 673 743L 673 750z"/>
<path style="stroke:none; fill:#000000" d="M 729 792L 729 799L 736 799L 743 799L 743 792L 743 785L 736 785L 729 785L 729 792z"/>
<path style="stroke:none; fill:#000000" d="M 267 134L 267 141L 260 141L 253 141L 253 155L 253 169L 260 169L 267 169L 267 176L 267 183L 288 183L 309 183L 309 176L 309 169L 316 169L 323 169L 323 155L 323 141L 316 141L 309 141L 309 148L 309 155L 302 155L 295 155L 295 148L 295 141L 288 141L 281 141L 281 134L 281 127L 274 127L 267 127L 267 134zM 281 148L 281 155L 288 155L 295 155L 295 162L 295 169L 288 169L 281 169L 281 162L 281 155L 274 155L 267 155L 267 148L 267 141L 274 141L 281 141L 281 148z"/>
<path style="stroke:none; fill:#000000" d="M 925 204L 925 211L 918 211L 911 211L 911 218L 911 225L 918 225L 925 225L 925 218L 925 211L 932 211L 939 211L 939 204L 939 197L 932 197L 925 197L 925 204z"/>
<path style="stroke:none; fill:#000000" d="M 911 246L 911 253L 918 253L 925 253L 925 246L 925 239L 918 239L 911 239L 911 246z"/>
<path style="stroke:none; fill:#000000" d="M 197 288L 197 295L 204 295L 211 295L 211 288L 211 281L 204 281L 197 281L 197 288z"/>
<path style="stroke:none; fill:#000000" d="M 813 302L 813 309L 827 309L 841 309L 841 316L 841 323L 820 323L 799 323L 799 330L 799 337L 813 337L 827 337L 827 351L 827 365L 820 365L 813 365L 813 358L 813 351L 799 351L 785 351L 785 337L 785 323L 778 323L 771 323L 771 330L 771 337L 764 337L 757 337L 757 344L 757 351L 764 351L 771 351L 771 365L 771 379L 778 379L 785 379L 785 393L 785 407L 778 407L 771 407L 771 400L 771 393L 764 393L 757 393L 757 400L 757 407L 764 407L 771 407L 771 414L 771 421L 785 421L 799 421L 799 435L 799 449L 820 449L 841 449L 841 442L 841 435L 848 435L 855 435L 855 428L 855 421L 848 421L 841 421L 841 400L 841 379L 848 379L 855 379L 855 372L 855 365L 848 365L 841 365L 841 344L 841 323L 848 323L 855 323L 855 316L 855 309L 848 309L 841 309L 841 302L 841 295L 827 295L 813 295L 813 302zM 813 372L 813 379L 799 379L 785 379L 785 372L 785 365L 799 365L 813 365L 813 372zM 827 407L 827 421L 834 421L 841 421L 841 428L 841 435L 834 435L 827 435L 827 428L 827 421L 820 421L 813 421L 813 414L 813 407L 806 407L 799 407L 799 400L 799 393L 813 393L 827 393L 827 407z"/>
<path style="stroke:none; fill:#000000" d="M 197 316L 197 323L 190 323L 183 323L 183 330L 183 337L 190 337L 197 337L 197 330L 197 323L 204 323L 211 323L 211 316L 211 309L 204 309L 197 309L 197 316z"/>
<path style="stroke:none; fill:#000000" d="M 155 330L 155 337L 162 337L 169 337L 169 330L 169 323L 162 323L 155 323L 155 330z"/>
<path style="stroke:none; fill:#000000" d="M 687 344L 687 351L 680 351L 673 351L 673 358L 673 365L 687 365L 701 365L 701 358L 701 351L 708 351L 715 351L 715 344L 715 337L 701 337L 687 337L 687 344z"/>
<path style="stroke:none; fill:#000000" d="M 393 358L 393 365L 400 365L 407 365L 407 358L 407 351L 400 351L 393 351L 393 358z"/>
<path style="stroke:none; fill:#000000" d="M 351 372L 351 379L 365 379L 379 379L 379 372L 379 365L 365 365L 351 365L 351 372z"/>
<path style="stroke:none; fill:#000000" d="M 715 372L 715 379L 729 379L 743 379L 743 372L 743 365L 729 365L 715 365L 715 372z"/>
<path style="stroke:none; fill:#000000" d="M 855 400L 855 407L 862 407L 869 407L 869 421L 869 435L 876 435L 883 435L 883 414L 883 393L 869 393L 855 393L 855 400z"/>
<path style="stroke:none; fill:#000000" d="M 309 414L 309 421L 316 421L 323 421L 323 414L 323 407L 316 407L 309 407L 309 414z"/>
<path style="stroke:none; fill:#000000" d="M 99 442L 99 449L 113 449L 127 449L 127 442L 127 435L 113 435L 99 435L 99 442z"/>
<path style="stroke:none; fill:#000000" d="M 771 442L 771 449L 778 449L 785 449L 785 442L 785 435L 778 435L 771 435L 771 442z"/>
<path style="stroke:none; fill:#000000" d="M 141 456L 141 463L 148 463L 155 463L 155 456L 155 449L 148 449L 141 449L 141 456z"/>
<path style="stroke:none; fill:#000000" d="M 393 456L 393 463L 386 463L 379 463L 379 470L 379 477L 386 477L 393 477L 393 470L 393 463L 400 463L 407 463L 407 456L 407 449L 400 449L 393 449L 393 456z"/>
<path style="stroke:none; fill:#000000" d="M 673 526L 673 533L 680 533L 687 533L 687 526L 687 519L 680 519L 673 519L 673 526z"/>
<path style="stroke:none; fill:#000000" d="M 785 582L 785 589L 792 589L 799 589L 799 582L 799 575L 792 575L 785 575L 785 582z"/>
<path style="stroke:none; fill:#000000" d="M 407 666L 407 673L 414 673L 421 673L 421 666L 421 659L 414 659L 407 659L 407 666z"/>
<path style="stroke:none; fill:#000000" d="M 393 743L 393 757L 400 757L 407 757L 407 764L 407 771L 414 771L 421 771L 421 778L 421 785L 414 785L 407 785L 407 792L 407 799L 414 799L 421 799L 421 792L 421 785L 428 785L 435 785L 435 778L 435 771L 428 771L 421 771L 421 764L 421 757L 414 757L 407 757L 407 750L 407 743L 414 743L 421 743L 421 736L 421 729L 407 729L 393 729L 393 743z"/>
<path style="stroke:none; fill:#000000" d="M 785 750L 785 757L 792 757L 799 757L 799 750L 799 743L 792 743L 785 743L 785 750z"/>
<path style="stroke:none; fill:#000000" d="M 267 764L 267 771L 253 771L 239 771L 239 778L 239 785L 246 785L 253 785L 253 792L 253 799L 260 799L 267 799L 267 785L 267 771L 274 771L 281 771L 281 764L 281 757L 274 757L 267 757L 267 764z"/>
<path style="stroke:none; fill:#000000" d="M 449 764L 449 771L 456 771L 463 771L 463 764L 463 757L 456 757L 449 757L 449 764z"/>
<path style="stroke:none; fill:#000000" d="M 309 806L 309 813L 302 813L 295 813L 295 820L 295 827L 309 827L 323 827L 323 813L 323 799L 316 799L 309 799L 309 806z"/>
<path style="stroke:none; fill:#000000" d="M 309 848L 309 855L 316 855L 323 855L 323 862L 323 869L 330 869L 337 869L 337 862L 337 855L 330 855L 323 855L 323 848L 323 841L 316 841L 309 841L 309 848z"/>
<path style="stroke:none; fill:#000000" d="M 575 890L 575 897L 582 897L 589 897L 589 890L 589 883L 582 883L 575 883L 575 890z"/>
<path style="stroke:none; fill:#000000" d="M 505 148L 505 155L 512 155L 519 155L 519 148L 519 141L 512 141L 505 141L 505 148z"/>
<path style="stroke:none; fill:#000000" d="M 757 148L 757 155L 764 155L 771 155L 771 148L 771 141L 764 141L 757 141L 757 148z"/>
<path style="stroke:none; fill:#000000" d="M 141 512L 141 519L 148 519L 155 519L 155 512L 155 505L 148 505L 141 505L 141 512z"/>
<path style="stroke:none; fill:#000000" d="M 869 512L 869 519L 876 519L 883 519L 883 512L 883 505L 876 505L 869 505L 869 512z"/>
<path style="stroke:none; fill:#000000" d="M 141 568L 141 575L 148 575L 155 575L 155 568L 155 561L 148 561L 141 561L 141 568z"/>
<path style="stroke:none; fill:#000000" d="M 169 582L 169 589L 183 589L 197 589L 197 582L 197 575L 183 575L 169 575L 169 582z"/>
<path style="stroke:none; fill:#000000" d="M 141 624L 141 631L 148 631L 155 631L 155 624L 155 617L 148 617L 141 617L 141 624z"/>
<path style="stroke:none; fill:#000000" d="M 141 736L 141 743L 148 743L 155 743L 155 736L 155 729L 148 729L 141 729L 141 736z"/>
<path style="stroke:none; fill:#000000" d="M 239 624L 239 631L 232 631L 225 631L 225 638L 225 645L 232 645L 239 645L 239 638L 239 631L 246 631L 253 631L 253 624L 253 617L 246 617L 239 617L 239 624z"/>
<path style="stroke:none; fill:#000000" d="M 505 876L 505 883L 512 883L 519 883L 519 876L 519 869L 512 869L 505 869L 505 876z"/>
<path style="stroke:none; fill:#000000" d="M 869 876L 869 883L 876 883L 883 883L 883 876L 883 869L 876 869L 869 869L 869 876z"/>
<path style="stroke:none; fill:#000000" d="M 743 918L 743 925L 750 925L 757 925L 757 918L 757 911L 750 911L 743 911L 743 918z"/>
<path style="stroke:none; fill:#000000" d="M 897 932L 897 939L 904 939L 911 939L 911 932L 911 925L 904 925L 897 925L 897 932z"/>
<path style="stroke:none; fill:#000000" d="M 827 64L 827 71L 834 71L 841 71L 841 85L 841 99L 834 99L 827 99L 827 92L 827 85L 813 85L 799 85L 799 92L 799 99L 806 99L 813 99L 813 106L 813 113L 827 113L 841 113L 841 120L 841 127L 848 127L 855 127L 855 120L 855 113L 848 113L 841 113L 841 106L 841 99L 848 99L 855 99L 855 85L 855 71L 848 71L 841 71L 841 64L 841 57L 834 57L 827 57L 827 64z"/>
<path style="stroke:none; fill:#000000" d="M 869 106L 869 155L 918 155L 967 155L 967 106L 967 57L 918 57L 869 57L 869 106zM 953 106L 953 141L 918 141L 883 141L 883 106L 883 71L 918 71L 953 71L 953 106z"/>
<path style="stroke:none; fill:#000000" d="M 897 105.5L 897 126L 917.5 126L 938 126L 938 105.5L 938 85L 917.5 85L 897 85L 897 105.5z"/>
<path style="stroke:none; fill:#000000" d="M 701 176L 701 183L 708 183L 715 183L 715 176L 715 169L 708 169L 701 169L 701 176z"/>
<path style="stroke:none; fill:#000000" d="M 841 204L 841 211L 848 211L 855 211L 855 204L 855 197L 848 197L 841 197L 841 204z"/>
<path style="stroke:none; fill:#000000" d="M 785 218L 785 225L 792 225L 799 225L 799 218L 799 211L 792 211L 785 211L 785 218z"/>
<path style="stroke:none; fill:#000000" d="M 57 302L 57 323L 64 323L 71 323L 71 309L 71 295L 78 295L 85 295L 85 288L 85 281L 71 281L 57 281L 57 302z"/>
<path style="stroke:none; fill:#000000" d="M 939 323L 939 337L 953 337L 967 337L 967 323L 967 309L 953 309L 939 309L 939 323z"/>
<path style="stroke:none; fill:#000000" d="M 57 344L 57 351L 64 351L 71 351L 71 344L 71 337L 64 337L 57 337L 57 344z"/>
<path style="stroke:none; fill:#000000" d="M 953 554L 953 561L 960 561L 967 561L 967 554L 967 547L 960 547L 953 547L 953 554z"/>
<path style="stroke:none; fill:#000000" d="M 57 568L 57 575L 64 575L 71 575L 71 568L 71 561L 64 561L 57 561L 57 568z"/>
<path style="stroke:none; fill:#000000" d="M 953 589L 953 603L 946 603L 939 603L 939 596L 939 589L 932 589L 925 589L 925 596L 925 603L 932 603L 939 603L 939 610L 939 617L 953 617L 967 617L 967 596L 967 575L 960 575L 953 575L 953 589z"/>
<path style="stroke:none; fill:#000000" d="M 953 638L 953 645L 939 645L 925 645L 925 652L 925 659L 939 659L 953 659L 953 666L 953 673L 960 673L 967 673L 967 666L 967 659L 960 659L 953 659L 953 652L 953 645L 960 645L 967 645L 967 638L 967 631L 960 631L 953 631L 953 638z"/>
<path style="stroke:none; fill:#000000" d="M 939 750L 939 757L 946 757L 953 757L 953 750L 953 743L 946 743L 939 743L 939 750z"/>
<path style="stroke:none; fill:#000000" d="M 953 778L 953 785L 960 785L 967 785L 967 778L 967 771L 960 771L 953 771L 953 778z"/>
<path style="stroke:none; fill:#000000" d="M 57 918L 57 967L 106 967L 155 967L 155 918L 155 869L 106 869L 57 869L 57 918zM 141 918L 141 953L 106 953L 71 953L 71 918L 71 883L 106 883L 141 883L 141 918z"/>
<path style="stroke:none; fill:#000000" d="M 85 917.5L 85 938L 105.5 938L 126 938L 126 917.5L 126 897L 105.5 897L 85 897L 85 917.5z"/>
<path style="stroke:none; fill:#000000" d="M 169 960L 169 967L 183 967L 197 967L 197 960L 197 953L 183 953L 169 953L 169 960z"/>
<path style="stroke:none; fill:#000000" d="M 323 960L 323 967L 330 967L 337 967L 337 960L 337 953L 330 953L 323 953L 323 960z"/>
<path style="stroke:none; fill:#000000" d="M 463 960L 463 967L 470 967L 477 967L 477 960L 477 953L 470 953L 463 953L 463 960z"/>
</g>
</g>
</svg>