<?xml version="1.0" encoding="UTF-8" standalone="yes"?>
<!-- Created with sK1/UniConvertor (http://sk1project.org/) -->
<svg xmlns="http://www.w3.org/2000/svg" xmlns:xlink="http://www.w3.org/1999/xlink"
  width="1024pt" height="1024pt" viewBox="0 0 1024 1024"
  fill-rule="evenodd">
<g>
<g>
<path style="stroke:none; fill:#000000" d="M 63 108.5L 63 154L 108.5 154L 154 154L 154 108.5L 154 63L 108.5 63L 63 63L 63 108.5zM 141 108.5L 141 141L 108.5 141L 76 141L 76 108.5L 76 76L 108.5 76L 141 76L 141 108.5z"/>
<path style="stroke:none; fill:#000000" d="M 89 108L 89 127L 108 127L 127 127L 127 108L 127 89L 108 89L 89 89L 89 108z"/>
<path style="stroke:none; fill:#000000" d="M 180 69.5L 180 76L 186.5 76L 193 76L 193 82.5L 193 89L 180 89L 167 89L 167 128L 167 167L 173.5 167L 180 167L 180 180L 180 193L 199.5 193L 219 193L 219 199.5L 219 206L 212.5 206L 206 206L 206 225.5L 206 245L 199.5 245L 193 245L 193 225.5L 193 206L 173.5 206L 154 206L 154 199.5L 154 193L 147.5 193L 141 193L 141 199.5L 141 206L 147.5 206L 154 206L 154 212.5L 154 219L 141 219L 128 219L 128 212.5L 128 206L 121.5 206L 115 206L 115 219L 115 232L 121.5 232L 128 232L 128 245L 128 258L 121.5 258L 115 258L 115 264.5L 115 271L 102 271L 89 271L 89 277.5L 89 284L 82.5 284L 76 284L 76 290.5L 76 297L 69.5 297L 63 297L 63 310L 63 323L 69.5 323L 76 323L 76 329.5L 76 336L 69.5 336L 63 336L 63 355.5L 63 375L 69.5 375L 76 375L 76 381.5L 76 388L 69.5 388L 63 388L 63 414L 63 440L 69.5 440L 76 440L 76 446.5L 76 453L 69.5 453L 63 453L 63 479L 63 505L 69.5 505L 76 505L 76 492L 76 479L 89 479L 102 479L 102 485.5L 102 492L 95.5 492L 89 492L 89 505L 89 518L 95.5 518L 102 518L 102 505L 102 492L 108.5 492L 115 492L 115 518L 115 544L 121.5 544L 128 544L 128 557L 128 570L 141 570L 154 570L 154 576.5L 154 583L 141 583L 128 583L 128 596L 128 609L 115 609L 102 609L 102 602.5L 102 596L 108.5 596L 115 596L 115 589.5L 115 583L 108.5 583L 102 583L 102 576.5L 102 570L 95.5 570L 89 570L 89 576.5L 89 583L 82.5 583L 76 583L 76 563.5L 76 544L 69.5 544L 63 544L 63 576.5L 63 609L 69.5 609L 76 609L 76 615.5L 76 622L 82.5 622L 89 622L 89 615.5L 89 609L 95.5 609L 102 609L 102 622L 102 635L 89 635L 76 635L 76 641.5L 76 648L 89 648L 102 648L 102 654.5L 102 661L 89 661L 76 661L 76 674L 76 687L 82.5 687L 89 687L 89 693.5L 89 700L 82.5 700L 76 700L 76 713L 76 726L 69.5 726L 63 726L 63 739L 63 752L 69.5 752L 76 752L 76 758.5L 76 765L 82.5 765L 89 765L 89 771.5L 89 778L 102 778L 115 778L 115 771.5L 115 765L 128 765L 141 765L 141 771.5L 141 778L 134.5 778L 128 778L 128 784.5L 128 791L 134.5 791L 141 791L 141 797.5L 141 804L 134.5 804L 128 804L 128 810.5L 128 817L 121.5 817L 115 817L 115 810.5L 115 804L 108.5 804L 102 804L 102 797.5L 102 791L 89 791L 76 791L 76 784.5L 76 778L 69.5 778L 63 778L 63 784.5L 63 791L 69.5 791L 76 791L 76 797.5L 76 804L 69.5 804L 63 804L 63 830L 63 856L 69.5 856L 76 856L 76 836.5L 76 817L 82.5 817L 89 817L 89 823.5L 89 830L 95.5 830L 102 830L 102 823.5L 102 817L 108.5 817L 115 817L 115 823.5L 115 830L 134.5 830L 154 830L 154 823.5L 154 817L 147.5 817L 141 817L 141 810.5L 141 804L 147.5 804L 154 804L 154 797.5L 154 791L 160.5 791L 167 791L 167 830L 167 869L 173.5 869L 180 869L 180 875.5L 180 882L 173.5 882L 167 882L 167 908L 167 934L 180 934L 193 934L 193 947L 193 960L 199.5 960L 206 960L 206 947L 206 934L 212.5 934L 219 934L 219 921L 219 908L 206 908L 193 908L 193 914.5L 193 921L 186.5 921L 180 921L 180 901.5L 180 882L 186.5 882L 193 882L 193 888.5L 193 895L 212.5 895L 232 895L 232 901.5L 232 908L 238.5 908L 245 908L 245 914.5L 245 921L 258 921L 271 921L 271 914.5L 271 908L 277.5 908L 284 908L 284 901.5L 284 895L 277.5 895L 271 895L 271 888.5L 271 882L 264.5 882L 258 882L 258 869L 258 856L 251.5 856L 245 856L 245 843L 245 830L 238.5 830L 232 830L 232 843L 232 856L 212.5 856L 193 856L 193 849.5L 193 843L 199.5 843L 206 843L 206 836.5L 206 830L 212.5 830L 219 830L 219 823.5L 219 817L 225.5 817L 232 817L 232 810.5L 232 804L 245 804L 258 804L 258 797.5L 258 791L 251.5 791L 245 791L 245 784.5L 245 778L 258 778L 271 778L 271 784.5L 271 791L 290.5 791L 310 791L 310 797.5L 310 804L 290.5 804L 271 804L 271 810.5L 271 817L 284 817L 297 817L 297 823.5L 297 830L 290.5 830L 284 830L 284 836.5L 284 843L 297 843L 310 843L 310 836.5L 310 830L 316.5 830L 323 830L 323 843L 323 856L 336 856L 349 856L 349 862.5L 349 869L 342.5 869L 336 869L 336 882L 336 895L 342.5 895L 349 895L 349 901.5L 349 908L 375 908L 401 908L 401 921L 401 934L 394.5 934L 388 934L 388 927.5L 388 921L 381.5 921L 375 921L 375 927.5L 375 934L 381.5 934L 388 934L 388 947L 388 960L 407.5 960L 427 960L 427 953.5L 427 947L 414 947L 401 947L 401 940.5L 401 934L 427 934L 453 934L 453 921L 453 908L 459.5 908L 466 908L 466 901.5L 466 895L 472.5 895L 479 895L 479 908L 479 921L 472.5 921L 466 921L 466 940.5L 466 960L 472.5 960L 479 960L 479 953.5L 479 947L 485.5 947L 492 947L 492 953.5L 492 960L 531 960L 570 960L 570 953.5L 570 947L 609 947L 648 947L 648 953.5L 648 960L 661 960L 674 960L 674 953.5L 674 947L 680.5 947L 687 947L 687 953.5L 687 960L 693.5 960L 700 960L 700 953.5L 700 947L 706.5 947L 713 947L 713 953.5L 713 960L 719.5 960L 726 960L 726 953.5L 726 947L 732.5 947L 739 947L 739 940.5L 739 934L 732.5 934L 726 934L 726 940.5L 726 947L 719.5 947L 713 947L 713 940.5L 713 934L 706.5 934L 700 934L 700 927.5L 700 921L 732.5 921L 765 921L 765 927.5L 765 934L 758.5 934L 752 934L 752 947L 752 960L 758.5 960L 765 960L 765 953.5L 765 947L 784.5 947L 804 947L 804 953.5L 804 960L 830 960L 856 960L 856 953.5L 856 947L 830 947L 804 947L 804 940.5L 804 934L 797.5 934L 791 934L 791 927.5L 791 921L 797.5 921L 804 921L 804 914.5L 804 908L 810.5 908L 817 908L 817 921L 817 934L 830 934L 843 934L 843 927.5L 843 921L 856 921L 869 921L 869 914.5L 869 908L 875.5 908L 882 908L 882 914.5L 882 921L 888.5 921L 895 921L 895 927.5L 895 934L 888.5 934L 882 934L 882 940.5L 882 947L 875.5 947L 869 947L 869 953.5L 869 960L 875.5 960L 882 960L 882 953.5L 882 947L 901.5 947L 921 947L 921 940.5L 921 934L 914.5 934L 908 934L 908 927.5L 908 921L 927.5 921L 947 921L 947 914.5L 947 908L 940.5 908L 934 908L 934 901.5L 934 895L 921 895L 908 895L 908 888.5L 908 882L 914.5 882L 921 882L 921 875.5L 921 869L 927.5 869L 934 869L 934 862.5L 934 856L 940.5 856L 947 856L 947 849.5L 947 843L 953.5 843L 960 843L 960 836.5L 960 830L 953.5 830L 947 830L 947 817L 947 804L 934 804L 921 804L 921 810.5L 921 817L 927.5 817L 934 817L 934 823.5L 934 830L 921 830L 908 830L 908 810.5L 908 791L 914.5 791L 921 791L 921 784.5L 921 778L 914.5 778L 908 778L 908 765L 908 752L 901.5 752L 895 752L 895 745.5L 895 739L 888.5 739L 882 739L 882 745.5L 882 752L 875.5 752L 869 752L 869 739L 869 726L 875.5 726L 882 726L 882 719.5L 882 713L 888.5 713L 895 713L 895 719.5L 895 726L 908 726L 921 726L 921 732.5L 921 739L 927.5 739L 934 739L 934 745.5L 934 752L 927.5 752L 921 752L 921 758.5L 921 765L 927.5 765L 934 765L 934 771.5L 934 778L 940.5 778L 947 778L 947 784.5L 947 791L 953.5 791L 960 791L 960 778L 960 765L 947 765L 934 765L 934 758.5L 934 752L 940.5 752L 947 752L 947 745.5L 947 739L 953.5 739L 960 739L 960 732.5L 960 726L 953.5 726L 947 726L 947 732.5L 947 739L 940.5 739L 934 739L 934 732.5L 934 726L 927.5 726L 921 726L 921 719.5L 921 713L 934 713L 947 713L 947 700L 947 687L 953.5 687L 960 687L 960 680.5L 960 674L 953.5 674L 947 674L 947 667.5L 947 661L 953.5 661L 960 661L 960 654.5L 960 648L 953.5 648L 947 648L 947 641.5L 947 635L 953.5 635L 960 635L 960 628.5L 960 622L 940.5 622L 921 622L 921 615.5L 921 609L 927.5 609L 934 609L 934 602.5L 934 596L 940.5 596L 947 596L 947 589.5L 947 583L 953.5 583L 960 583L 960 576.5L 960 570L 940.5 570L 921 570L 921 583L 921 596L 914.5 596L 908 596L 908 628.5L 908 661L 901.5 661L 895 661L 895 654.5L 895 648L 882 648L 869 648L 869 641.5L 869 635L 856 635L 843 635L 843 628.5L 843 622L 849.5 622L 856 622L 856 615.5L 856 609L 849.5 609L 843 609L 843 602.5L 843 596L 849.5 596L 856 596L 856 589.5L 856 583L 849.5 583L 843 583L 843 589.5L 843 596L 836.5 596L 830 596L 830 589.5L 830 583L 817 583L 804 583L 804 589.5L 804 596L 797.5 596L 791 596L 791 589.5L 791 583L 784.5 583L 778 583L 778 576.5L 778 570L 784.5 570L 791 570L 791 563.5L 791 557L 797.5 557L 804 557L 804 563.5L 804 570L 810.5 570L 817 570L 817 563.5L 817 557L 823.5 557L 830 557L 830 563.5L 830 570L 836.5 570L 843 570L 843 557L 843 544L 849.5 544L 856 544L 856 550.5L 856 557L 869 557L 882 557L 882 563.5L 882 570L 875.5 570L 869 570L 869 576.5L 869 583L 875.5 583L 882 583L 882 589.5L 882 596L 875.5 596L 869 596L 869 602.5L 869 609L 875.5 609L 882 609L 882 622L 882 635L 888.5 635L 895 635L 895 609L 895 583L 888.5 583L 882 583L 882 576.5L 882 570L 888.5 570L 895 570L 895 563.5L 895 557L 888.5 557L 882 557L 882 550.5L 882 544L 901.5 544L 921 544L 921 550.5L 921 557L 940.5 557L 960 557L 960 550.5L 960 544L 953.5 544L 947 544L 947 537.5L 947 531L 953.5 531L 960 531L 960 524.5L 960 518L 953.5 518L 947 518L 947 505L 947 492L 953.5 492L 960 492L 960 479L 960 466L 953.5 466L 947 466L 947 459.5L 947 453L 940.5 453L 934 453L 934 446.5L 934 440L 940.5 440L 947 440L 947 433.5L 947 427L 953.5 427L 960 427L 960 414L 960 401L 953.5 401L 947 401L 947 394.5L 947 388L 940.5 388L 934 388L 934 362L 934 336L 927.5 336L 921 336L 921 355.5L 921 375L 914.5 375L 908 375L 908 381.5L 908 388L 895 388L 882 388L 882 381.5L 882 375L 888.5 375L 895 375L 895 368.5L 895 362L 888.5 362L 882 362L 882 355.5L 882 349L 869 349L 856 349L 856 342.5L 856 336L 862.5 336L 869 336L 869 323L 869 310L 856 310L 843 310L 843 303.5L 843 297L 875.5 297L 908 297L 908 303.5L 908 310L 914.5 310L 921 310L 921 316.5L 921 323L 927.5 323L 934 323L 934 316.5L 934 310L 927.5 310L 921 310L 921 303.5L 921 297L 927.5 297L 934 297L 934 290.5L 934 284L 940.5 284L 947 284L 947 277.5L 947 271L 953.5 271L 960 271L 960 264.5L 960 258L 953.5 258L 947 258L 947 251.5L 947 245L 940.5 245L 934 245L 934 238.5L 934 232L 940.5 232L 947 232L 947 225.5L 947 219L 953.5 219L 960 219L 960 212.5L 960 206L 953.5 206L 947 206L 947 199.5L 947 193L 953.5 193L 960 193L 960 186.5L 960 180L 953.5 180L 947 180L 947 186.5L 947 193L 940.5 193L 934 193L 934 180L 934 167L 901.5 167L 869 167L 869 173.5L 869 180L 875.5 180L 882 180L 882 199.5L 882 219L 875.5 219L 869 219L 869 212.5L 869 206L 849.5 206L 830 206L 830 238.5L 830 271L 804 271L 778 271L 778 264.5L 778 258L 784.5 258L 791 258L 791 251.5L 791 245L 804 245L 817 245L 817 238.5L 817 232L 804 232L 791 232L 791 225.5L 791 219L 784.5 219L 778 219L 778 212.5L 778 206L 784.5 206L 791 206L 791 199.5L 791 193L 797.5 193L 804 193L 804 206L 804 219L 810.5 219L 817 219L 817 199.5L 817 180L 836.5 180L 856 180L 856 160.5L 856 141L 849.5 141L 843 141L 843 154L 843 167L 830 167L 817 167L 817 160.5L 817 154L 823.5 154L 830 154L 830 134.5L 830 115L 823.5 115L 817 115L 817 108.5L 817 102L 823.5 102L 830 102L 830 95.5L 830 89L 823.5 89L 817 89L 817 82.5L 817 76L 836.5 76L 856 76L 856 69.5L 856 63L 836.5 63L 817 63L 817 69.5L 817 76L 810.5 76L 804 76L 804 69.5L 804 63L 797.5 63L 791 63L 791 69.5L 791 76L 797.5 76L 804 76L 804 89L 804 102L 797.5 102L 791 102L 791 95.5L 791 89L 784.5 89L 778 89L 778 76L 778 63L 771.5 63L 765 63L 765 76L 765 89L 758.5 89L 752 89L 752 102L 752 115L 745.5 115L 739 115L 739 108.5L 739 102L 726 102L 713 102L 713 95.5L 713 89L 706.5 89L 700 89L 700 95.5L 700 102L 693.5 102L 687 102L 687 89L 687 76L 680.5 76L 674 76L 674 69.5L 674 63L 667.5 63L 661 63L 661 69.5L 661 76L 654.5 76L 648 76L 648 69.5L 648 63L 641.5 63L 635 63L 635 69.5L 635 76L 628.5 76L 622 76L 622 82.5L 622 89L 615.5 89L 609 89L 609 76L 609 63L 596 63L 583 63L 583 69.5L 583 76L 589.5 76L 596 76L 596 82.5L 596 89L 589.5 89L 583 89L 583 95.5L 583 102L 570 102L 557 102L 557 95.5L 557 89L 563.5 89L 570 89L 570 82.5L 570 76L 563.5 76L 557 76L 557 82.5L 557 89L 550.5 89L 544 89L 544 82.5L 544 76L 537.5 76L 531 76L 531 69.5L 531 63L 524.5 63L 518 63L 518 69.5L 518 76L 524.5 76L 531 76L 531 82.5L 531 89L 524.5 89L 518 89L 518 102L 518 115L 492 115L 466 115L 466 108.5L 466 102L 472.5 102L 479 102L 479 95.5L 479 89L 485.5 89L 492 89L 492 95.5L 492 102L 498.5 102L 505 102L 505 95.5L 505 89L 498.5 89L 492 89L 492 82.5L 492 76L 498.5 76L 505 76L 505 69.5L 505 63L 479 63L 453 63L 453 69.5L 453 76L 440 76L 427 76L 427 82.5L 427 89L 446.5 89L 466 89L 466 95.5L 466 102L 440 102L 414 102L 414 82.5L 414 63L 407.5 63L 401 63L 401 69.5L 401 76L 394.5 76L 388 76L 388 69.5L 388 63L 375 63L 362 63L 362 69.5L 362 76L 355.5 76L 349 76L 349 82.5L 349 89L 342.5 89L 336 89L 336 82.5L 336 76L 323 76L 310 76L 310 69.5L 310 63L 303.5 63L 297 63L 297 108.5L 297 154L 303.5 154L 310 154L 310 160.5L 310 167L 303.5 167L 297 167L 297 173.5L 297 180L 290.5 180L 284 180L 284 186.5L 284 193L 271 193L 258 193L 258 180L 258 167L 271 167L 284 167L 284 154L 284 141L 277.5 141L 271 141L 271 134.5L 271 128L 277.5 128L 284 128L 284 115L 284 102L 277.5 102L 271 102L 271 95.5L 271 89L 277.5 89L 284 89L 284 76L 284 63L 277.5 63L 271 63L 271 69.5L 271 76L 264.5 76L 258 76L 258 69.5L 258 63L 251.5 63L 245 63L 245 69.5L 245 76L 238.5 76L 232 76L 232 82.5L 232 89L 245 89L 258 89L 258 95.5L 258 102L 251.5 102L 245 102L 245 108.5L 245 115L 258 115L 271 115L 271 121.5L 271 128L 264.5 128L 258 128L 258 134.5L 258 141L 251.5 141L 245 141L 245 134.5L 245 128L 238.5 128L 232 128L 232 134.5L 232 141L 225.5 141L 219 141L 219 147.5L 219 154L 225.5 154L 232 154L 232 147.5L 232 141L 238.5 141L 245 141L 245 154L 245 167L 232 167L 219 167L 219 173.5L 219 180L 212.5 180L 206 180L 206 173.5L 206 167L 199.5 167L 193 167L 193 160.5L 193 154L 199.5 154L 206 154L 206 141L 206 128L 212.5 128L 219 128L 219 121.5L 219 115L 225.5 115L 232 115L 232 108.5L 232 102L 225.5 102L 219 102L 219 82.5L 219 63L 212.5 63L 206 63L 206 69.5L 206 76L 199.5 76L 193 76L 193 69.5L 193 63L 186.5 63L 180 63L 180 69.5zM 388 82.5L 388 89L 394.5 89L 401 89L 401 95.5L 401 102L 394.5 102L 388 102L 388 108.5L 388 115L 407.5 115L 427 115L 427 121.5L 427 128L 420.5 128L 414 128L 414 134.5L 414 141L 420.5 141L 427 141L 427 147.5L 427 154L 433.5 154L 440 154L 440 147.5L 440 141L 446.5 141L 453 141L 453 147.5L 453 154L 459.5 154L 466 154L 466 147.5L 466 141L 472.5 141L 479 141L 479 154L 479 167L 466 167L 453 167L 453 180L 453 193L 440 193L 427 193L 427 199.5L 427 206L 433.5 206L 440 206L 440 212.5L 440 219L 427 219L 414 219L 414 225.5L 414 232L 420.5 232L 427 232L 427 238.5L 427 245L 407.5 245L 388 245L 388 238.5L 388 232L 381.5 232L 375 232L 375 238.5L 375 245L 368.5 245L 362 245L 362 251.5L 362 258L 381.5 258L 401 258L 401 264.5L 401 271L 407.5 271L 414 271L 414 264.5L 414 258L 427 258L 440 258L 440 277.5L 440 297L 427 297L 414 297L 414 290.5L 414 284L 407.5 284L 401 284L 401 297L 401 310L 433.5 310L 466 310L 466 303.5L 466 297L 459.5 297L 453 297L 453 290.5L 453 284L 459.5 284L 466 284L 466 277.5L 466 271L 459.5 271L 453 271L 453 264.5L 453 258L 459.5 258L 466 258L 466 251.5L 466 245L 472.5 245L 479 245L 479 238.5L 479 232L 472.5 232L 466 232L 466 225.5L 466 219L 459.5 219L 453 219L 453 212.5L 453 206L 459.5 206L 466 206L 466 212.5L 466 219L 472.5 219L 479 219L 479 206L 479 193L 485.5 193L 492 193L 492 206L 492 219L 485.5 219L 479 219L 479 225.5L 479 232L 485.5 232L 492 232L 492 238.5L 492 245L 485.5 245L 479 245L 479 251.5L 479 258L 472.5 258L 466 258L 466 264.5L 466 271L 472.5 271L 479 271L 479 277.5L 479 284L 492 284L 505 284L 505 277.5L 505 271L 498.5 271L 492 271L 492 264.5L 492 258L 498.5 258L 505 258L 505 264.5L 505 271L 511.5 271L 518 271L 518 284L 518 297L 524.5 297L 531 297L 531 303.5L 531 310L 537.5 310L 544 310L 544 303.5L 544 297L 570 297L 596 297L 596 284L 596 271L 583 271L 570 271L 570 264.5L 570 258L 557 258L 544 258L 544 264.5L 544 271L 550.5 271L 557 271L 557 277.5L 557 284L 550.5 284L 544 284L 544 277.5L 544 271L 537.5 271L 531 271L 531 264.5L 531 258L 524.5 258L 518 258L 518 251.5L 518 245L 511.5 245L 505 245L 505 225.5L 505 206L 511.5 206L 518 206L 518 199.5L 518 193L 511.5 193L 505 193L 505 186.5L 505 180L 511.5 180L 518 180L 518 186.5L 518 193L 524.5 193L 531 193L 531 199.5L 531 206L 537.5 206L 544 206L 544 212.5L 544 219L 550.5 219L 557 219L 557 199.5L 557 180L 550.5 180L 544 180L 544 173.5L 544 167L 550.5 167L 557 167L 557 160.5L 557 154L 550.5 154L 544 154L 544 147.5L 544 141L 550.5 141L 557 141L 557 134.5L 557 128L 550.5 128L 544 128L 544 115L 544 102L 537.5 102L 531 102L 531 95.5L 531 89L 537.5 89L 544 89L 544 95.5L 544 102L 550.5 102L 557 102L 557 115L 557 128L 563.5 128L 570 128L 570 121.5L 570 115L 576.5 115L 583 115L 583 108.5L 583 102L 602.5 102L 622 102L 622 95.5L 622 89L 628.5 89L 635 89L 635 82.5L 635 76L 641.5 76L 648 76L 648 82.5L 648 89L 654.5 89L 661 89L 661 82.5L 661 76L 667.5 76L 674 76L 674 89L 674 102L 680.5 102L 687 102L 687 108.5L 687 115L 706.5 115L 726 115L 726 121.5L 726 128L 739 128L 752 128L 752 121.5L 752 115L 758.5 115L 765 115L 765 108.5L 765 102L 778 102L 791 102L 791 108.5L 791 115L 778 115L 765 115L 765 134.5L 765 154L 758.5 154L 752 154L 752 160.5L 752 167L 765 167L 778 167L 778 154L 778 141L 784.5 141L 791 141L 791 134.5L 791 128L 797.5 128L 804 128L 804 134.5L 804 141L 810.5 141L 817 141L 817 147.5L 817 154L 810.5 154L 804 154L 804 167L 804 180L 797.5 180L 791 180L 791 173.5L 791 167L 784.5 167L 778 167L 778 173.5L 778 180L 765 180L 752 180L 752 173.5L 752 167L 745.5 167L 739 167L 739 173.5L 739 180L 732.5 180L 726 180L 726 173.5L 726 167L 719.5 167L 713 167L 713 173.5L 713 180L 706.5 180L 700 180L 700 186.5L 700 193L 674 193L 648 193L 648 199.5L 648 206L 641.5 206L 635 206L 635 199.5L 635 193L 622 193L 609 193L 609 199.5L 609 206L 602.5 206L 596 206L 596 219L 596 232L 602.5 232L 609 232L 609 238.5L 609 245L 615.5 245L 622 245L 622 232L 622 219L 635 219L 648 219L 648 225.5L 648 232L 641.5 232L 635 232L 635 238.5L 635 245L 641.5 245L 648 245L 648 251.5L 648 258L 654.5 258L 661 258L 661 245L 661 232L 667.5 232L 674 232L 674 245L 674 258L 680.5 258L 687 258L 687 264.5L 687 271L 667.5 271L 648 271L 648 277.5L 648 284L 641.5 284L 635 284L 635 290.5L 635 297L 654.5 297L 674 297L 674 303.5L 674 310L 687 310L 700 310L 700 303.5L 700 297L 693.5 297L 687 297L 687 290.5L 687 284L 693.5 284L 700 284L 700 271L 700 258L 713 258L 726 258L 726 251.5L 726 245L 706.5 245L 687 245L 687 238.5L 687 232L 693.5 232L 700 232L 700 225.5L 700 219L 706.5 219L 713 219L 713 212.5L 713 206L 719.5 206L 726 206L 726 199.5L 726 193L 732.5 193L 739 193L 739 199.5L 739 206L 745.5 206L 752 206L 752 219L 752 232L 758.5 232L 765 232L 765 225.5L 765 219L 771.5 219L 778 219L 778 225.5L 778 232L 784.5 232L 791 232L 791 238.5L 791 245L 784.5 245L 778 245L 778 251.5L 778 258L 765 258L 752 258L 752 264.5L 752 271L 765 271L 778 271L 778 277.5L 778 284L 784.5 284L 791 284L 791 290.5L 791 297L 784.5 297L 778 297L 778 303.5L 778 310L 791 310L 804 310L 804 303.5L 804 297L 817 297L 830 297L 830 290.5L 830 284L 836.5 284L 843 284L 843 277.5L 843 271L 856 271L 869 271L 869 277.5L 869 284L 856 284L 843 284L 843 290.5L 843 297L 836.5 297L 830 297L 830 310L 830 323L 823.5 323L 817 323L 817 316.5L 817 310L 810.5 310L 804 310L 804 323L 804 336L 797.5 336L 791 336L 791 342.5L 791 349L 797.5 349L 804 349L 804 355.5L 804 362L 810.5 362L 817 362L 817 349L 817 336L 830 336L 843 336L 843 342.5L 843 349L 849.5 349L 856 349L 856 355.5L 856 362L 843 362L 830 362L 830 368.5L 830 375L 836.5 375L 843 375L 843 381.5L 843 388L 849.5 388L 856 388L 856 381.5L 856 375L 862.5 375L 869 375L 869 368.5L 869 362L 875.5 362L 882 362L 882 368.5L 882 375L 875.5 375L 869 375L 869 381.5L 869 388L 875.5 388L 882 388L 882 394.5L 882 401L 908 401L 934 401L 934 407.5L 934 414L 940.5 414L 947 414L 947 420.5L 947 427L 940.5 427L 934 427L 934 420.5L 934 414L 927.5 414L 921 414L 921 420.5L 921 427L 908 427L 895 427L 895 420.5L 895 414L 888.5 414L 882 414L 882 420.5L 882 427L 875.5 427L 869 427L 869 433.5L 869 440L 875.5 440L 882 440L 882 446.5L 882 453L 908 453L 934 453L 934 459.5L 934 466L 940.5 466L 947 466L 947 479L 947 492L 940.5 492L 934 492L 934 479L 934 466L 927.5 466L 921 466L 921 472.5L 921 479L 914.5 479L 908 479L 908 472.5L 908 466L 895 466L 882 466L 882 472.5L 882 479L 875.5 479L 869 479L 869 472.5L 869 466L 856 466L 843 466L 843 485.5L 843 505L 830 505L 817 505L 817 511.5L 817 518L 823.5 518L 830 518L 830 524.5L 830 531L 836.5 531L 843 531L 843 537.5L 843 544L 836.5 544L 830 544L 830 537.5L 830 531L 817 531L 804 531L 804 524.5L 804 518L 797.5 518L 791 518L 791 524.5L 791 531L 784.5 531L 778 531L 778 537.5L 778 544L 784.5 544L 791 544L 791 550.5L 791 557L 771.5 557L 752 557L 752 576.5L 752 596L 745.5 596L 739 596L 739 602.5L 739 609L 752 609L 765 609L 765 622L 765 635L 778 635L 791 635L 791 622L 791 609L 804 609L 817 609L 817 602.5L 817 596L 823.5 596L 830 596L 830 602.5L 830 609L 836.5 609L 843 609L 843 615.5L 843 622L 836.5 622L 830 622L 830 628.5L 830 635L 817 635L 804 635L 804 641.5L 804 648L 810.5 648L 817 648L 817 667.5L 817 687L 810.5 687L 804 687L 804 693.5L 804 700L 810.5 700L 817 700L 817 706.5L 817 713L 830 713L 843 713L 843 706.5L 843 700L 836.5 700L 830 700L 830 680.5L 830 661L 836.5 661L 843 661L 843 654.5L 843 648L 856 648L 869 648L 869 654.5L 869 661L 875.5 661L 882 661L 882 667.5L 882 674L 895 674L 908 674L 908 667.5L 908 661L 921 661L 934 661L 934 667.5L 934 674L 940.5 674L 947 674L 947 680.5L 947 687L 940.5 687L 934 687L 934 680.5L 934 674L 927.5 674L 921 674L 921 680.5L 921 687L 901.5 687L 882 687L 882 693.5L 882 700L 875.5 700L 869 700L 869 713L 869 726L 849.5 726L 830 726L 830 732.5L 830 739L 843 739L 856 739L 856 745.5L 856 752L 862.5 752L 869 752L 869 758.5L 869 765L 875.5 765L 882 765L 882 758.5L 882 752L 888.5 752L 895 752L 895 758.5L 895 765L 888.5 765L 882 765L 882 771.5L 882 778L 895 778L 908 778L 908 784.5L 908 791L 901.5 791L 895 791L 895 804L 895 817L 888.5 817L 882 817L 882 823.5L 882 830L 895 830L 908 830L 908 836.5L 908 843L 888.5 843L 869 843L 869 836.5L 869 830L 849.5 830L 830 830L 830 836.5L 830 843L 836.5 843L 843 843L 843 849.5L 843 856L 836.5 856L 830 856L 830 875.5L 830 895L 836.5 895L 843 895L 843 901.5L 843 908L 836.5 908L 830 908L 830 901.5L 830 895L 817 895L 804 895L 804 901.5L 804 908L 797.5 908L 791 908L 791 888.5L 791 869L 784.5 869L 778 869L 778 875.5L 778 882L 771.5 882L 765 882L 765 875.5L 765 869L 758.5 869L 752 869L 752 875.5L 752 882L 739 882L 726 882L 726 875.5L 726 869L 687 869L 648 869L 648 875.5L 648 882L 667.5 882L 687 882L 687 895L 687 908L 693.5 908L 700 908L 700 901.5L 700 895L 706.5 895L 713 895L 713 901.5L 713 908L 706.5 908L 700 908L 700 914.5L 700 921L 693.5 921L 687 921L 687 927.5L 687 934L 693.5 934L 700 934L 700 940.5L 700 947L 693.5 947L 687 947L 687 940.5L 687 934L 680.5 934L 674 934L 674 940.5L 674 947L 661 947L 648 947L 648 934L 648 921L 654.5 921L 661 921L 661 927.5L 661 934L 667.5 934L 674 934L 674 914.5L 674 895L 648 895L 622 895L 622 901.5L 622 908L 628.5 908L 635 908L 635 914.5L 635 921L 622 921L 609 921L 609 927.5L 609 934L 596 934L 583 934L 583 927.5L 583 921L 596 921L 609 921L 609 914.5L 609 908L 596 908L 583 908L 583 895L 583 882L 576.5 882L 570 882L 570 888.5L 570 895L 563.5 895L 557 895L 557 901.5L 557 908L 563.5 908L 570 908L 570 927.5L 570 947L 563.5 947L 557 947L 557 940.5L 557 934L 550.5 934L 544 934L 544 940.5L 544 947L 537.5 947L 531 947L 531 940.5L 531 934L 524.5 934L 518 934L 518 940.5L 518 947L 505 947L 492 947L 492 940.5L 492 934L 485.5 934L 479 934L 479 927.5L 479 921L 492 921L 505 921L 505 914.5L 505 908L 524.5 908L 544 908L 544 895L 544 882L 550.5 882L 557 882L 557 875.5L 557 869L 550.5 869L 544 869L 544 856L 544 843L 550.5 843L 557 843L 557 836.5L 557 830L 563.5 830L 570 830L 570 823.5L 570 817L 576.5 817L 583 817L 583 823.5L 583 830L 576.5 830L 570 830L 570 836.5L 570 843L 563.5 843L 557 843L 557 849.5L 557 856L 570 856L 583 856L 583 849.5L 583 843L 589.5 843L 596 843L 596 836.5L 596 830L 602.5 830L 609 830L 609 836.5L 609 843L 615.5 843L 622 843L 622 849.5L 622 856L 628.5 856L 635 856L 635 849.5L 635 843L 641.5 843L 648 843L 648 836.5L 648 830L 641.5 830L 635 830L 635 823.5L 635 817L 641.5 817L 648 817L 648 823.5L 648 830L 654.5 830L 661 830L 661 817L 661 804L 667.5 804L 674 804L 674 797.5L 674 791L 667.5 791L 661 791L 661 784.5L 661 778L 667.5 778L 674 778L 674 771.5L 674 765L 661 765L 648 765L 648 771.5L 648 778L 641.5 778L 635 778L 635 771.5L 635 765L 622 765L 609 765L 609 758.5L 609 752L 589.5 752L 570 752L 570 758.5L 570 765L 583 765L 596 765L 596 778L 596 791L 622 791L 648 791L 648 797.5L 648 804L 622 804L 596 804L 596 797.5L 596 791L 589.5 791L 583 791L 583 797.5L 583 804L 576.5 804L 570 804L 570 797.5L 570 791L 563.5 791L 557 791L 557 797.5L 557 804L 544 804L 531 804L 531 797.5L 531 791L 544 791L 557 791L 557 778L 557 765L 550.5 765L 544 765L 544 758.5L 544 752L 518 752L 492 752L 492 745.5L 492 739L 511.5 739L 531 739L 531 732.5L 531 726L 544 726L 557 726L 557 713L 557 700L 537.5 700L 518 700L 518 713L 518 726L 505 726L 492 726L 492 719.5L 492 713L 498.5 713L 505 713L 505 706.5L 505 700L 479 700L 453 700L 453 706.5L 453 713L 446.5 713L 440 713L 440 700L 440 687L 433.5 687L 427 687L 427 700L 427 713L 407.5 713L 388 713L 388 719.5L 388 726L 381.5 726L 375 726L 375 745.5L 375 765L 381.5 765L 388 765L 388 752L 388 739L 394.5 739L 401 739L 401 745.5L 401 752L 407.5 752L 414 752L 414 758.5L 414 765L 420.5 765L 427 765L 427 758.5L 427 752L 433.5 752L 440 752L 440 745.5L 440 739L 427 739L 414 739L 414 732.5L 414 726L 427 726L 440 726L 440 732.5L 440 739L 446.5 739L 453 739L 453 732.5L 453 726L 459.5 726L 466 726L 466 719.5L 466 713L 472.5 713L 479 713L 479 719.5L 479 726L 472.5 726L 466 726L 466 732.5L 466 739L 472.5 739L 479 739L 479 752L 479 765L 485.5 765L 492 765L 492 771.5L 492 778L 479 778L 466 778L 466 784.5L 466 791L 479 791L 492 791L 492 804L 492 817L 498.5 817L 505 817L 505 804L 505 791L 511.5 791L 518 791L 518 804L 518 817L 524.5 817L 531 817L 531 830L 531 843L 524.5 843L 518 843L 518 836.5L 518 830L 505 830L 492 830L 492 836.5L 492 843L 485.5 843L 479 843L 479 862.5L 479 882L 472.5 882L 466 882L 466 888.5L 466 895L 459.5 895L 453 895L 453 901.5L 453 908L 446.5 908L 440 908L 440 901.5L 440 895L 394.5 895L 349 895L 349 888.5L 349 882L 362 882L 375 882L 375 875.5L 375 869L 368.5 869L 362 869L 362 862.5L 362 856L 355.5 856L 349 856L 349 849.5L 349 843L 355.5 843L 362 843L 362 836.5L 362 830L 355.5 830L 349 830L 349 817L 349 804L 342.5 804L 336 804L 336 797.5L 336 791L 342.5 791L 349 791L 349 797.5L 349 804L 355.5 804L 362 804L 362 797.5L 362 791L 368.5 791L 375 791L 375 804L 375 817L 381.5 817L 388 817L 388 810.5L 388 804L 407.5 804L 427 804L 427 810.5L 427 817L 420.5 817L 414 817L 414 823.5L 414 830L 427 830L 440 830L 440 810.5L 440 791L 420.5 791L 401 791L 401 778L 401 765L 394.5 765L 388 765L 388 771.5L 388 778L 381.5 778L 375 778L 375 771.5L 375 765L 355.5 765L 336 765L 336 758.5L 336 752L 329.5 752L 323 752L 323 758.5L 323 765L 316.5 765L 310 765L 310 771.5L 310 778L 303.5 778L 297 778L 297 765L 297 752L 290.5 752L 284 752L 284 758.5L 284 765L 264.5 765L 245 765L 245 771.5L 245 778L 238.5 778L 232 778L 232 791L 232 804L 225.5 804L 219 804L 219 810.5L 219 817L 212.5 817L 206 817L 206 804L 206 791L 212.5 791L 219 791L 219 784.5L 219 778L 212.5 778L 206 778L 206 771.5L 206 765L 212.5 765L 219 765L 219 758.5L 219 752L 212.5 752L 206 752L 206 745.5L 206 739L 212.5 739L 219 739L 219 726L 219 713L 212.5 713L 206 713L 206 700L 206 687L 212.5 687L 219 687L 219 700L 219 713L 225.5 713L 232 713L 232 719.5L 232 726L 238.5 726L 245 726L 245 713L 245 700L 258 700L 271 700L 271 706.5L 271 713L 277.5 713L 284 713L 284 706.5L 284 700L 290.5 700L 297 700L 297 693.5L 297 687L 303.5 687L 310 687L 310 680.5L 310 674L 303.5 674L 297 674L 297 667.5L 297 661L 290.5 661L 284 661L 284 654.5L 284 648L 277.5 648L 271 648L 271 654.5L 271 661L 264.5 661L 258 661L 258 667.5L 258 674L 251.5 674L 245 674L 245 680.5L 245 687L 238.5 687L 232 687L 232 680.5L 232 674L 238.5 674L 245 674L 245 667.5L 245 661L 232 661L 219 661L 219 648L 219 635L 212.5 635L 206 635L 206 628.5L 206 622L 219 622L 232 622L 232 602.5L 232 583L 225.5 583L 219 583L 219 589.5L 219 596L 212.5 596L 206 596L 206 602.5L 206 609L 199.5 609L 193 609L 193 615.5L 193 622L 186.5 622L 180 622L 180 609L 180 596L 173.5 596L 167 596L 167 602.5L 167 609L 154 609L 141 609L 141 602.5L 141 596L 154 596L 167 596L 167 589.5L 167 583L 173.5 583L 180 583L 180 576.5L 180 570L 173.5 570L 167 570L 167 563.5L 167 557L 154 557L 141 557L 141 550.5L 141 544L 154 544L 167 544L 167 550.5L 167 557L 180 557L 193 557L 193 570L 193 583L 199.5 583L 206 583L 206 576.5L 206 570L 212.5 570L 219 570L 219 563.5L 219 557L 225.5 557L 232 557L 232 550.5L 232 544L 238.5 544L 245 544L 245 537.5L 245 531L 238.5 531L 232 531L 232 524.5L 232 518L 219 518L 206 518L 206 531L 206 544L 199.5 544L 193 544L 193 531L 193 518L 199.5 518L 206 518L 206 511.5L 206 505L 219 505L 232 505L 232 498.5L 232 492L 219 492L 206 492L 206 472.5L 206 453L 212.5 453L 219 453L 219 446.5L 219 440L 212.5 440L 206 440L 206 420.5L 206 401L 212.5 401L 219 401L 219 388L 219 375L 212.5 375L 206 375L 206 381.5L 206 388L 199.5 388L 193 388L 193 381.5L 193 375L 199.5 375L 206 375L 206 368.5L 206 362L 212.5 362L 219 362L 219 355.5L 219 349L 206 349L 193 349L 193 336L 193 323L 186.5 323L 180 323L 180 329.5L 180 336L 173.5 336L 167 336L 167 342.5L 167 349L 173.5 349L 180 349L 180 362L 180 375L 160.5 375L 141 375L 141 381.5L 141 388L 147.5 388L 154 388L 154 394.5L 154 401L 160.5 401L 167 401L 167 407.5L 167 414L 160.5 414L 154 414L 154 420.5L 154 427L 147.5 427L 141 427L 141 420.5L 141 414L 147.5 414L 154 414L 154 407.5L 154 401L 141 401L 128 401L 128 394.5L 128 388L 121.5 388L 115 388L 115 407.5L 115 427L 102 427L 89 427L 89 433.5L 89 440L 82.5 440L 76 440L 76 414L 76 388L 82.5 388L 89 388L 89 401L 89 414L 95.5 414L 102 414L 102 394.5L 102 375L 89 375L 76 375L 76 368.5L 76 362L 89 362L 102 362L 102 355.5L 102 349L 108.5 349L 115 349L 115 355.5L 115 362L 108.5 362L 102 362L 102 368.5L 102 375L 121.5 375L 141 375L 141 368.5L 141 362L 134.5 362L 128 362L 128 349L 128 336L 147.5 336L 167 336L 167 323L 167 310L 160.5 310L 154 310L 154 316.5L 154 323L 147.5 323L 141 323L 141 316.5L 141 310L 147.5 310L 154 310L 154 303.5L 154 297L 147.5 297L 141 297L 141 290.5L 141 284L 128 284L 115 284L 115 297L 115 310L 108.5 310L 102 310L 102 316.5L 102 323L 95.5 323L 89 323L 89 316.5L 89 310L 82.5 310L 76 310L 76 303.5L 76 297L 82.5 297L 89 297L 89 290.5L 89 284L 102 284L 115 284L 115 277.5L 115 271L 128 271L 141 271L 141 264.5L 141 258L 147.5 258L 154 258L 154 264.5L 154 271L 160.5 271L 167 271L 167 277.5L 167 284L 160.5 284L 154 284L 154 290.5L 154 297L 160.5 297L 167 297L 167 303.5L 167 310L 173.5 310L 180 310L 180 303.5L 180 297L 186.5 297L 193 297L 193 290.5L 193 284L 186.5 284L 180 284L 180 277.5L 180 271L 186.5 271L 193 271L 193 264.5L 193 258L 186.5 258L 180 258L 180 251.5L 180 245L 173.5 245L 167 245L 167 232L 167 219L 173.5 219L 180 219L 180 232L 180 245L 186.5 245L 193 245L 193 251.5L 193 258L 199.5 258L 206 258L 206 251.5L 206 245L 212.5 245L 219 245L 219 238.5L 219 232L 232 232L 245 232L 245 225.5L 245 219L 258 219L 271 219L 271 212.5L 271 206L 277.5 206L 284 206L 284 199.5L 284 193L 297 193L 310 193L 310 180L 310 167L 316.5 167L 323 167L 323 180L 323 193L 329.5 193L 336 193L 336 206L 336 219L 329.5 219L 323 219L 323 212.5L 323 206L 316.5 206L 310 206L 310 212.5L 310 219L 297 219L 284 219L 284 225.5L 284 232L 277.5 232L 271 232L 271 245L 271 258L 277.5 258L 284 258L 284 251.5L 284 245L 297 245L 310 245L 310 238.5L 310 232L 329.5 232L 349 232L 349 238.5L 349 245L 355.5 245L 362 245L 362 225.5L 362 206L 355.5 206L 349 206L 349 193L 349 180L 342.5 180L 336 180L 336 154L 336 128L 329.5 128L 323 128L 323 141L 323 154L 316.5 154L 310 154L 310 141L 310 128L 316.5 128L 323 128L 323 115L 323 102L 336 102L 349 102L 349 95.5L 349 89L 355.5 89L 362 89L 362 95.5L 362 102L 368.5 102L 375 102L 375 89L 375 76L 381.5 76L 388 76L 388 82.5zM 479 82.5L 479 89L 472.5 89L 466 89L 466 82.5L 466 76L 472.5 76L 479 76L 479 82.5zM 206 102L 206 115L 199.5 115L 193 115L 193 134.5L 193 154L 186.5 154L 180 154L 180 134.5L 180 115L 186.5 115L 193 115L 193 102L 193 89L 199.5 89L 206 89L 206 102zM 531 147.5L 531 167L 511.5 167L 492 167L 492 147.5L 492 128L 511.5 128L 531 128L 531 147.5zM 271 147.5L 271 154L 264.5 154L 258 154L 258 147.5L 258 141L 264.5 141L 271 141L 271 147.5zM 232 186.5L 232 193L 238.5 193L 245 193L 245 199.5L 245 206L 238.5 206L 232 206L 232 212.5L 232 219L 225.5 219L 219 219L 219 212.5L 219 206L 225.5 206L 232 206L 232 199.5L 232 193L 225.5 193L 219 193L 219 186.5L 219 180L 225.5 180L 232 180L 232 186.5zM 934 199.5L 934 206L 940.5 206L 947 206L 947 212.5L 947 219L 940.5 219L 934 219L 934 212.5L 934 206L 921 206L 908 206L 908 219L 908 232L 901.5 232L 895 232L 895 212.5L 895 193L 914.5 193L 934 193L 934 199.5zM 687 212.5L 687 219L 674 219L 661 219L 661 212.5L 661 206L 674 206L 687 206L 687 212.5zM 869 225.5L 869 232L 862.5 232L 856 232L 856 225.5L 856 219L 862.5 219L 869 219L 869 225.5zM 154 238.5L 154 245L 147.5 245L 141 245L 141 238.5L 141 232L 147.5 232L 154 232L 154 238.5zM 453 238.5L 453 245L 446.5 245L 440 245L 440 238.5L 440 232L 446.5 232L 453 232L 453 238.5zM 869 251.5L 869 258L 856 258L 843 258L 843 251.5L 843 245L 856 245L 869 245L 869 251.5zM 908 251.5L 908 258L 901.5 258L 895 258L 895 251.5L 895 245L 901.5 245L 908 245L 908 251.5zM 934 251.5L 934 258L 940.5 258L 947 258L 947 264.5L 947 271L 940.5 271L 934 271L 934 264.5L 934 258L 927.5 258L 921 258L 921 251.5L 921 245L 927.5 245L 934 245L 934 251.5zM 908 277.5L 908 284L 895 284L 882 284L 882 277.5L 882 271L 895 271L 908 271L 908 277.5zM 89 342.5L 89 349L 82.5 349L 76 349L 76 342.5L 76 336L 82.5 336L 89 336L 89 342.5zM 180 433.5L 180 440L 186.5 440L 193 440L 193 446.5L 193 453L 186.5 453L 180 453L 180 459.5L 180 466L 186.5 466L 193 466L 193 479L 193 492L 186.5 492L 180 492L 180 479L 180 466L 173.5 466L 167 466L 167 459.5L 167 453L 154 453L 141 453L 141 459.5L 141 466L 147.5 466L 154 466L 154 472.5L 154 479L 147.5 479L 141 479L 141 472.5L 141 466L 128 466L 115 466L 115 459.5L 115 453L 108.5 453L 102 453L 102 459.5L 102 466L 95.5 466L 89 466L 89 459.5L 89 453L 95.5 453L 102 453L 102 446.5L 102 440L 108.5 440L 115 440L 115 446.5L 115 453L 128 453L 141 453L 141 446.5L 141 440L 154 440L 167 440L 167 433.5L 167 427L 173.5 427L 180 427L 180 433.5zM 167 511.5L 167 531L 147.5 531L 128 531L 128 511.5L 128 492L 147.5 492L 167 492L 167 511.5zM 895 511.5L 895 531L 875.5 531L 856 531L 856 511.5L 856 492L 875.5 492L 895 492L 895 511.5zM 934 511.5L 934 518L 940.5 518L 947 518L 947 524.5L 947 531L 927.5 531L 908 531L 908 518L 908 505L 921 505L 934 505L 934 511.5zM 817 550.5L 817 557L 810.5 557L 804 557L 804 550.5L 804 544L 810.5 544L 817 544L 817 550.5zM 102 589.5L 102 596L 95.5 596L 89 596L 89 589.5L 89 583L 95.5 583L 102 583L 102 589.5zM 778 589.5L 778 596L 771.5 596L 765 596L 765 589.5L 765 583L 771.5 583L 778 583L 778 589.5zM 167 628.5L 167 635L 147.5 635L 128 635L 128 648L 128 661L 134.5 661L 141 661L 141 654.5L 141 648L 154 648L 167 648L 167 661L 167 674L 160.5 674L 154 674L 154 680.5L 154 687L 167 687L 180 687L 180 693.5L 180 700L 173.5 700L 167 700L 167 706.5L 167 713L 154 713L 141 713L 141 719.5L 141 726L 160.5 726L 180 726L 180 719.5L 180 713L 186.5 713L 193 713L 193 765L 193 817L 186.5 817L 180 817L 180 804L 180 791L 173.5 791L 167 791L 167 784.5L 167 778L 160.5 778L 154 778L 154 784.5L 154 791L 147.5 791L 141 791L 141 784.5L 141 778L 147.5 778L 154 778L 154 771.5L 154 765L 147.5 765L 141 765L 141 758.5L 141 752L 147.5 752L 154 752L 154 758.5L 154 765L 160.5 765L 167 765L 167 758.5L 167 752L 173.5 752L 180 752L 180 745.5L 180 739L 160.5 739L 141 739L 141 732.5L 141 726L 128 726L 115 726L 115 745.5L 115 765L 108.5 765L 102 765L 102 758.5L 102 752L 89 752L 76 752L 76 745.5L 76 739L 82.5 739L 89 739L 89 732.5L 89 726L 102 726L 115 726L 115 719.5L 115 713L 102 713L 89 713L 89 706.5L 89 700L 95.5 700L 102 700L 102 693.5L 102 687L 108.5 687L 115 687L 115 661L 115 635L 121.5 635L 128 635L 128 628.5L 128 622L 147.5 622L 167 622L 167 628.5zM 206 654.5L 206 661L 199.5 661L 193 661L 193 667.5L 193 674L 186.5 674L 180 674L 180 667.5L 180 661L 186.5 661L 193 661L 193 654.5L 193 648L 199.5 648L 206 648L 206 654.5zM 284 680.5L 284 687L 277.5 687L 271 687L 271 680.5L 271 674L 277.5 674L 284 674L 284 680.5zM 908 706.5L 908 713L 901.5 713L 895 713L 895 706.5L 895 700L 901.5 700L 908 700L 908 706.5zM 518 771.5L 518 778L 511.5 778L 505 778L 505 771.5L 505 765L 511.5 765L 518 765L 518 771.5zM 102 810.5L 102 817L 95.5 817L 89 817L 89 810.5L 89 804L 95.5 804L 102 804L 102 810.5zM 323 810.5L 323 817L 316.5 817L 310 817L 310 810.5L 310 804L 316.5 804L 323 804L 323 810.5zM 947 836.5L 947 843L 940.5 843L 934 843L 934 849.5L 934 856L 927.5 856L 921 856L 921 849.5L 921 843L 927.5 843L 934 843L 934 836.5L 934 830L 940.5 830L 947 830L 947 836.5zM 193 862.5L 193 869L 199.5 869L 206 869L 206 875.5L 206 882L 199.5 882L 193 882L 193 875.5L 193 869L 186.5 869L 180 869L 180 862.5L 180 856L 186.5 856L 193 856L 193 862.5zM 245 862.5L 245 869L 238.5 869L 232 869L 232 875.5L 232 882L 238.5 882L 245 882L 245 888.5L 245 895L 251.5 895L 258 895L 258 901.5L 258 908L 251.5 908L 245 908L 245 901.5L 245 895L 238.5 895L 232 895L 232 888.5L 232 882L 225.5 882L 219 882L 219 875.5L 219 869L 225.5 869L 232 869L 232 862.5L 232 856L 238.5 856L 245 856L 245 862.5zM 531 875.5L 531 895L 511.5 895L 492 895L 492 875.5L 492 856L 511.5 856L 531 856L 531 875.5zM 895 875.5L 895 895L 875.5 895L 856 895L 856 875.5L 856 856L 875.5 856L 895 856L 895 875.5zM 739 901.5L 739 908L 732.5 908L 726 908L 726 901.5L 726 895L 732.5 895L 739 895L 739 901.5zM 778 908L 778 921L 771.5 921L 765 921L 765 914.5L 765 908L 758.5 908L 752 908L 752 901.5L 752 895L 765 895L 778 895L 778 908zM 427 914.5L 427 921L 420.5 921L 414 921L 414 914.5L 414 908L 420.5 908L 427 908L 427 914.5z"/>
<path style="stroke:none; fill:#000000" d="M 635 95.5L 635 102L 641.5 102L 648 102L 648 108.5L 648 115L 635 115L 622 115L 622 121.5L 622 128L 615.5 128L 609 128L 609 121.5L 609 115L 596 115L 583 115L 583 121.5L 583 128L 589.5 128L 596 128L 596 134.5L 596 141L 589.5 141L 583 141L 583 147.5L 583 154L 576.5 154L 570 154L 570 147.5L 570 141L 563.5 141L 557 141L 557 147.5L 557 154L 563.5 154L 570 154L 570 160.5L 570 167L 563.5 167L 557 167L 557 173.5L 557 180L 563.5 180L 570 180L 570 173.5L 570 167L 576.5 167L 583 167L 583 160.5L 583 154L 589.5 154L 596 154L 596 160.5L 596 167L 602.5 167L 609 167L 609 160.5L 609 154L 615.5 154L 622 154L 622 160.5L 622 167L 628.5 167L 635 167L 635 160.5L 635 154L 641.5 154L 648 154L 648 147.5L 648 141L 641.5 141L 635 141L 635 134.5L 635 128L 654.5 128L 674 128L 674 134.5L 674 141L 667.5 141L 661 141L 661 147.5L 661 154L 667.5 154L 674 154L 674 160.5L 674 167L 661 167L 648 167L 648 173.5L 648 180L 641.5 180L 635 180L 635 186.5L 635 193L 641.5 193L 648 193L 648 186.5L 648 180L 661 180L 674 180L 674 173.5L 674 167L 693.5 167L 713 167L 713 160.5L 713 154L 719.5 154L 726 154L 726 160.5L 726 167L 732.5 167L 739 167L 739 160.5L 739 154L 745.5 154L 752 154L 752 147.5L 752 141L 745.5 141L 739 141L 739 147.5L 739 154L 732.5 154L 726 154L 726 141L 726 128L 719.5 128L 713 128L 713 141L 713 154L 706.5 154L 700 154L 700 141L 700 128L 687 128L 674 128L 674 115L 674 102L 661 102L 648 102L 648 95.5L 648 89L 641.5 89L 635 89L 635 95.5zM 609 147.5L 609 154L 602.5 154L 596 154L 596 147.5L 596 141L 602.5 141L 609 141L 609 147.5zM 635 147.5L 635 154L 628.5 154L 622 154L 622 147.5L 622 141L 628.5 141L 635 141L 635 147.5zM 687 147.5L 687 154L 680.5 154L 674 154L 674 147.5L 674 141L 680.5 141L 687 141L 687 147.5z"/>
<path style="stroke:none; fill:#000000" d="M 349 108.5L 349 115L 342.5 115L 336 115L 336 121.5L 336 128L 342.5 128L 349 128L 349 147.5L 349 167L 362 167L 375 167L 375 173.5L 375 180L 381.5 180L 388 180L 388 186.5L 388 193L 394.5 193L 401 193L 401 186.5L 401 180L 394.5 180L 388 180L 388 173.5L 388 167L 394.5 167L 401 167L 401 160.5L 401 154L 407.5 154L 414 154L 414 147.5L 414 141L 407.5 141L 401 141L 401 147.5L 401 154L 394.5 154L 388 154L 388 134.5L 388 115L 381.5 115L 375 115L 375 134.5L 375 154L 368.5 154L 362 154L 362 128L 362 102L 355.5 102L 349 102L 349 108.5zM 388 160.5L 388 167L 381.5 167L 375 167L 375 160.5L 375 154L 381.5 154L 388 154L 388 160.5z"/>
<path style="stroke:none; fill:#000000" d="M 791 147.5L 791 154L 797.5 154L 804 154L 804 147.5L 804 141L 797.5 141L 791 141L 791 147.5z"/>
<path style="stroke:none; fill:#000000" d="M 440 160.5L 440 167L 446.5 167L 453 167L 453 160.5L 453 154L 446.5 154L 440 154L 440 160.5z"/>
<path style="stroke:none; fill:#000000" d="M 414 180L 414 193L 420.5 193L 427 193L 427 180L 427 167L 420.5 167L 414 167L 414 180z"/>
<path style="stroke:none; fill:#000000" d="M 583 186.5L 583 193L 596 193L 609 193L 609 186.5L 609 180L 596 180L 583 180L 583 186.5z"/>
<path style="stroke:none; fill:#000000" d="M 362 199.5L 362 206L 368.5 206L 375 206L 375 212.5L 375 219L 381.5 219L 388 219L 388 225.5L 388 232L 394.5 232L 401 232L 401 219L 401 206L 388 206L 375 206L 375 199.5L 375 193L 368.5 193L 362 193L 362 199.5z"/>
<path style="stroke:none; fill:#000000" d="M 570 212.5L 570 219L 563.5 219L 557 219L 557 232L 557 245L 563.5 245L 570 245L 570 232L 570 219L 576.5 219L 583 219L 583 212.5L 583 206L 576.5 206L 570 206L 570 212.5z"/>
<path style="stroke:none; fill:#000000" d="M 518 225.5L 518 232L 531 232L 544 232L 544 225.5L 544 219L 531 219L 518 219L 518 225.5z"/>
<path style="stroke:none; fill:#000000" d="M 713 225.5L 713 232L 719.5 232L 726 232L 726 238.5L 726 245L 739 245L 752 245L 752 238.5L 752 232L 739 232L 726 232L 726 225.5L 726 219L 719.5 219L 713 219L 713 225.5z"/>
<path style="stroke:none; fill:#000000" d="M 245 245L 245 258L 238.5 258L 232 258L 232 251.5L 232 245L 225.5 245L 219 245L 219 251.5L 219 258L 212.5 258L 206 258L 206 271L 206 284L 212.5 284L 219 284L 219 290.5L 219 297L 212.5 297L 206 297L 206 316.5L 206 336L 219 336L 232 336L 232 342.5L 232 349L 238.5 349L 245 349L 245 355.5L 245 362L 251.5 362L 258 362L 258 368.5L 258 375L 264.5 375L 271 375L 271 368.5L 271 362L 264.5 362L 258 362L 258 349L 258 336L 271 336L 284 336L 284 349L 284 362L 290.5 362L 297 362L 297 375L 297 388L 290.5 388L 284 388L 284 420.5L 284 453L 290.5 453L 297 453L 297 459.5L 297 466L 284 466L 271 466L 271 459.5L 271 453L 264.5 453L 258 453L 258 440L 258 427L 264.5 427L 271 427L 271 420.5L 271 414L 258 414L 245 414L 245 420.5L 245 427L 238.5 427L 232 427L 232 414L 232 401L 251.5 401L 271 401L 271 394.5L 271 388L 258 388L 245 388L 245 381.5L 245 375L 238.5 375L 232 375L 232 388L 232 401L 225.5 401L 219 401L 219 420.5L 219 440L 232 440L 245 440L 245 453L 245 466L 251.5 466L 258 466L 258 479L 258 492L 251.5 492L 245 492L 245 485.5L 245 479L 238.5 479L 232 479L 232 472.5L 232 466L 225.5 466L 219 466L 219 472.5L 219 479L 225.5 479L 232 479L 232 485.5L 232 492L 238.5 492L 245 492L 245 498.5L 245 505L 238.5 505L 232 505L 232 511.5L 232 518L 238.5 518L 245 518L 245 511.5L 245 505L 258 505L 271 505L 271 492L 271 479L 277.5 479L 284 479L 284 485.5L 284 492L 290.5 492L 297 492L 297 498.5L 297 505L 303.5 505L 310 505L 310 498.5L 310 492L 303.5 492L 297 492L 297 485.5L 297 479L 316.5 479L 336 479L 336 485.5L 336 492L 329.5 492L 323 492L 323 505L 323 518L 329.5 518L 336 518L 336 544L 336 570L 342.5 570L 349 570L 349 576.5L 349 583L 355.5 583L 362 583L 362 576.5L 362 570L 368.5 570L 375 570L 375 576.5L 375 583L 381.5 583L 388 583L 388 602.5L 388 622L 381.5 622L 375 622L 375 628.5L 375 635L 368.5 635L 362 635L 362 628.5L 362 622L 355.5 622L 349 622L 349 609L 349 596L 342.5 596L 336 596L 336 589.5L 336 583L 329.5 583L 323 583L 323 589.5L 323 596L 290.5 596L 258 596L 258 589.5L 258 583L 277.5 583L 297 583L 297 576.5L 297 570L 303.5 570L 310 570L 310 563.5L 310 557L 316.5 557L 323 557L 323 550.5L 323 544L 316.5 544L 310 544L 310 531L 310 518L 303.5 518L 297 518L 297 531L 297 544L 290.5 544L 284 544L 284 537.5L 284 531L 277.5 531L 271 531L 271 537.5L 271 544L 264.5 544L 258 544L 258 550.5L 258 557L 245 557L 232 557L 232 570L 232 583L 238.5 583L 245 583L 245 602.5L 245 622L 238.5 622L 232 622L 232 635L 232 648L 238.5 648L 245 648L 245 641.5L 245 635L 251.5 635L 258 635L 258 622L 258 609L 264.5 609L 271 609L 271 615.5L 271 622L 284 622L 297 622L 297 635L 297 648L 303.5 648L 310 648L 310 628.5L 310 609L 316.5 609L 323 609L 323 602.5L 323 596L 329.5 596L 336 596L 336 609L 336 622L 329.5 622L 323 622L 323 628.5L 323 635L 329.5 635L 336 635L 336 628.5L 336 622L 342.5 622L 349 622L 349 628.5L 349 635L 355.5 635L 362 635L 362 661L 362 687L 368.5 687L 375 687L 375 700L 375 713L 381.5 713L 388 713L 388 706.5L 388 700L 394.5 700L 401 700L 401 693.5L 401 687L 407.5 687L 414 687L 414 680.5L 414 674L 440 674L 466 674L 466 661L 466 648L 453 648L 440 648L 440 654.5L 440 661L 433.5 661L 427 661L 427 654.5L 427 648L 420.5 648L 414 648L 414 641.5L 414 635L 407.5 635L 401 635L 401 628.5L 401 622L 433.5 622L 466 622L 466 628.5L 466 635L 472.5 635L 479 635L 479 641.5L 479 648L 498.5 648L 518 648L 518 654.5L 518 661L 511.5 661L 505 661L 505 667.5L 505 674L 498.5 674L 492 674L 492 667.5L 492 661L 485.5 661L 479 661L 479 667.5L 479 674L 485.5 674L 492 674L 492 680.5L 492 687L 498.5 687L 505 687L 505 693.5L 505 700L 511.5 700L 518 700L 518 693.5L 518 687L 524.5 687L 531 687L 531 680.5L 531 674L 524.5 674L 518 674L 518 667.5L 518 661L 524.5 661L 531 661L 531 654.5L 531 648L 524.5 648L 518 648L 518 641.5L 518 635L 524.5 635L 531 635L 531 628.5L 531 622L 537.5 622L 544 622L 544 635L 544 648L 557 648L 570 648L 570 654.5L 570 661L 563.5 661L 557 661L 557 667.5L 557 674L 550.5 674L 544 674L 544 680.5L 544 687L 550.5 687L 557 687L 557 693.5L 557 700L 563.5 700L 570 700L 570 706.5L 570 713L 583 713L 596 713L 596 726L 596 739L 609 739L 622 739L 622 745.5L 622 752L 628.5 752L 635 752L 635 758.5L 635 765L 641.5 765L 648 765L 648 758.5L 648 752L 641.5 752L 635 752L 635 745.5L 635 739L 641.5 739L 648 739L 648 732.5L 648 726L 641.5 726L 635 726L 635 719.5L 635 713L 641.5 713L 648 713L 648 706.5L 648 700L 654.5 700L 661 700L 661 713L 661 726L 674 726L 687 726L 687 739L 687 752L 693.5 752L 700 752L 700 745.5L 700 739L 706.5 739L 713 739L 713 745.5L 713 752L 719.5 752L 726 752L 726 771.5L 726 791L 719.5 791L 713 791L 713 797.5L 713 804L 719.5 804L 726 804L 726 797.5L 726 791L 732.5 791L 739 791L 739 778L 739 765L 745.5 765L 752 765L 752 778L 752 791L 758.5 791L 765 791L 765 771.5L 765 752L 752 752L 739 752L 739 739L 739 726L 732.5 726L 726 726L 726 732.5L 726 739L 719.5 739L 713 739L 713 719.5L 713 700L 726 700L 739 700L 739 706.5L 739 713L 752 713L 765 713L 765 719.5L 765 726L 758.5 726L 752 726L 752 732.5L 752 739L 771.5 739L 791 739L 791 732.5L 791 726L 784.5 726L 778 726L 778 713L 778 700L 771.5 700L 765 700L 765 693.5L 765 687L 771.5 687L 778 687L 778 680.5L 778 674L 784.5 674L 791 674L 791 667.5L 791 661L 797.5 661L 804 661L 804 654.5L 804 648L 797.5 648L 791 648L 791 654.5L 791 661L 784.5 661L 778 661L 778 654.5L 778 648L 771.5 648L 765 648L 765 661L 765 674L 752 674L 739 674L 739 667.5L 739 661L 732.5 661L 726 661L 726 674L 726 687L 719.5 687L 713 687L 713 680.5L 713 674L 706.5 674L 700 674L 700 667.5L 700 661L 693.5 661L 687 661L 687 654.5L 687 648L 693.5 648L 700 648L 700 641.5L 700 635L 693.5 635L 687 635L 687 641.5L 687 648L 680.5 648L 674 648L 674 641.5L 674 635L 667.5 635L 661 635L 661 628.5L 661 622L 687 622L 713 622L 713 609L 713 596L 726 596L 739 596L 739 583L 739 570L 732.5 570L 726 570L 726 576.5L 726 583L 719.5 583L 713 583L 713 570L 713 557L 732.5 557L 752 557L 752 544L 752 531L 765 531L 778 531L 778 524.5L 778 518L 784.5 518L 791 518L 791 511.5L 791 505L 804 505L 817 505L 817 498.5L 817 492L 823.5 492L 830 492L 830 485.5L 830 479L 823.5 479L 817 479L 817 485.5L 817 492L 804 492L 791 492L 791 472.5L 791 453L 810.5 453L 830 453L 830 440L 830 427L 817 427L 804 427L 804 420.5L 804 414L 817 414L 830 414L 830 407.5L 830 401L 836.5 401L 843 401L 843 394.5L 843 388L 836.5 388L 830 388L 830 381.5L 830 375L 817 375L 804 375L 804 381.5L 804 388L 797.5 388L 791 388L 791 375L 791 362L 784.5 362L 778 362L 778 336L 778 310L 771.5 310L 765 310L 765 316.5L 765 323L 758.5 323L 752 323L 752 316.5L 752 310L 745.5 310L 739 310L 739 323L 739 336L 732.5 336L 726 336L 726 329.5L 726 323L 719.5 323L 713 323L 713 316.5L 713 310L 706.5 310L 700 310L 700 316.5L 700 323L 693.5 323L 687 323L 687 329.5L 687 336L 680.5 336L 674 336L 674 329.5L 674 323L 661 323L 648 323L 648 329.5L 648 336L 641.5 336L 635 336L 635 323L 635 310L 615.5 310L 596 310L 596 316.5L 596 323L 609 323L 622 323L 622 329.5L 622 336L 609 336L 596 336L 596 342.5L 596 349L 602.5 349L 609 349L 609 355.5L 609 362L 602.5 362L 596 362L 596 375L 596 388L 583 388L 570 388L 570 381.5L 570 375L 563.5 375L 557 375L 557 368.5L 557 362L 550.5 362L 544 362L 544 368.5L 544 375L 531 375L 518 375L 518 362L 518 349L 531 349L 544 349L 544 336L 544 323L 524.5 323L 505 323L 505 316.5L 505 310L 511.5 310L 518 310L 518 303.5L 518 297L 511.5 297L 505 297L 505 303.5L 505 310L 498.5 310L 492 310L 492 316.5L 492 323L 485.5 323L 479 323L 479 316.5L 479 310L 472.5 310L 466 310L 466 329.5L 466 349L 459.5 349L 453 349L 453 336L 453 323L 440 323L 427 323L 427 329.5L 427 336L 433.5 336L 440 336L 440 342.5L 440 349L 427 349L 414 349L 414 336L 414 323L 401 323L 388 323L 388 316.5L 388 310L 381.5 310L 375 310L 375 303.5L 375 297L 368.5 297L 362 297L 362 290.5L 362 284L 355.5 284L 349 284L 349 277.5L 349 271L 355.5 271L 362 271L 362 264.5L 362 258L 355.5 258L 349 258L 349 264.5L 349 271L 342.5 271L 336 271L 336 264.5L 336 258L 323 258L 310 258L 310 264.5L 310 271L 316.5 271L 323 271L 323 277.5L 323 284L 303.5 284L 284 284L 284 290.5L 284 297L 297 297L 310 297L 310 303.5L 310 310L 290.5 310L 271 310L 271 303.5L 271 297L 264.5 297L 258 297L 258 290.5L 258 284L 264.5 284L 271 284L 271 277.5L 271 271L 264.5 271L 258 271L 258 251.5L 258 232L 251.5 232L 245 232L 245 245zM 232 277.5L 232 284L 238.5 284L 245 284L 245 277.5L 245 271L 251.5 271L 258 271L 258 277.5L 258 284L 251.5 284L 245 284L 245 290.5L 245 297L 251.5 297L 258 297L 258 310L 258 323L 251.5 323L 245 323L 245 329.5L 245 336L 238.5 336L 232 336L 232 329.5L 232 323L 225.5 323L 219 323L 219 316.5L 219 310L 225.5 310L 232 310L 232 297L 232 284L 225.5 284L 219 284L 219 277.5L 219 271L 225.5 271L 232 271L 232 277.5zM 349 303.5L 349 323L 355.5 323L 362 323L 362 316.5L 362 310L 368.5 310L 375 310L 375 316.5L 375 323L 381.5 323L 388 323L 388 329.5L 388 336L 394.5 336L 401 336L 401 342.5L 401 349L 407.5 349L 414 349L 414 355.5L 414 362L 427 362L 440 362L 440 368.5L 440 375L 433.5 375L 427 375L 427 381.5L 427 388L 440 388L 453 388L 453 401L 453 414L 459.5 414L 466 414L 466 394.5L 466 375L 459.5 375L 453 375L 453 368.5L 453 362L 459.5 362L 466 362L 466 355.5L 466 349L 472.5 349L 479 349L 479 342.5L 479 336L 498.5 336L 518 336L 518 342.5L 518 349L 505 349L 492 349L 492 355.5L 492 362L 498.5 362L 505 362L 505 368.5L 505 375L 492 375L 479 375L 479 381.5L 479 388L 505 388L 531 388L 531 394.5L 531 401L 511.5 401L 492 401L 492 407.5L 492 414L 498.5 414L 505 414L 505 420.5L 505 427L 492 427L 479 427L 479 433.5L 479 440L 505 440L 531 440L 531 446.5L 531 453L 537.5 453L 544 453L 544 440L 544 427L 537.5 427L 531 427L 531 420.5L 531 414L 537.5 414L 544 414L 544 407.5L 544 401L 550.5 401L 557 401L 557 394.5L 557 388L 563.5 388L 570 388L 570 394.5L 570 401L 583 401L 596 401L 596 394.5L 596 388L 602.5 388L 609 388L 609 381.5L 609 375L 615.5 375L 622 375L 622 368.5L 622 362L 628.5 362L 635 362L 635 355.5L 635 349L 641.5 349L 648 349L 648 342.5L 648 336L 654.5 336L 661 336L 661 349L 661 362L 674 362L 687 362L 687 368.5L 687 375L 674 375L 661 375L 661 368.5L 661 362L 654.5 362L 648 362L 648 375L 648 388L 641.5 388L 635 388L 635 394.5L 635 401L 641.5 401L 648 401L 648 407.5L 648 414L 654.5 414L 661 414L 661 401L 661 388L 680.5 388L 700 388L 700 381.5L 700 375L 706.5 375L 713 375L 713 368.5L 713 362L 706.5 362L 700 362L 700 355.5L 700 349L 693.5 349L 687 349L 687 342.5L 687 336L 693.5 336L 700 336L 700 329.5L 700 323L 706.5 323L 713 323L 713 329.5L 713 336L 706.5 336L 700 336L 700 342.5L 700 349L 706.5 349L 713 349L 713 355.5L 713 362L 719.5 362L 726 362L 726 355.5L 726 349L 739 349L 752 349L 752 342.5L 752 336L 758.5 336L 765 336L 765 342.5L 765 349L 758.5 349L 752 349L 752 355.5L 752 362L 739 362L 726 362L 726 368.5L 726 375L 732.5 375L 739 375L 739 381.5L 739 388L 732.5 388L 726 388L 726 381.5L 726 375L 719.5 375L 713 375L 713 381.5L 713 388L 706.5 388L 700 388L 700 394.5L 700 401L 706.5 401L 713 401L 713 407.5L 713 414L 719.5 414L 726 414L 726 407.5L 726 401L 739 401L 752 401L 752 388L 752 375L 765 375L 778 375L 778 388L 778 401L 765 401L 752 401L 752 414L 752 427L 765 427L 778 427L 778 420.5L 778 414L 784.5 414L 791 414L 791 407.5L 791 401L 797.5 401L 804 401L 804 394.5L 804 388L 817 388L 830 388L 830 394.5L 830 401L 817 401L 804 401L 804 407.5L 804 414L 797.5 414L 791 414L 791 420.5L 791 427L 797.5 427L 804 427L 804 433.5L 804 440L 784.5 440L 765 440L 765 446.5L 765 453L 758.5 453L 752 453L 752 459.5L 752 466L 758.5 466L 765 466L 765 472.5L 765 479L 771.5 479L 778 479L 778 485.5L 778 492L 784.5 492L 791 492L 791 498.5L 791 505L 784.5 505L 778 505L 778 498.5L 778 492L 771.5 492L 765 492L 765 505L 765 518L 758.5 518L 752 518L 752 524.5L 752 531L 732.5 531L 713 531L 713 524.5L 713 518L 706.5 518L 700 518L 700 511.5L 700 505L 687 505L 674 505L 674 518L 674 531L 680.5 531L 687 531L 687 537.5L 687 544L 680.5 544L 674 544L 674 550.5L 674 557L 680.5 557L 687 557L 687 563.5L 687 570L 680.5 570L 674 570L 674 576.5L 674 583L 693.5 583L 713 583L 713 589.5L 713 596L 706.5 596L 700 596L 700 602.5L 700 609L 687 609L 674 609L 674 596L 674 583L 661 583L 648 583L 648 576.5L 648 570L 622 570L 596 570L 596 583L 596 596L 602.5 596L 609 596L 609 589.5L 609 583L 615.5 583L 622 583L 622 589.5L 622 596L 628.5 596L 635 596L 635 602.5L 635 609L 641.5 609L 648 609L 648 602.5L 648 596L 654.5 596L 661 596L 661 602.5L 661 609L 654.5 609L 648 609L 648 615.5L 648 622L 641.5 622L 635 622L 635 628.5L 635 635L 641.5 635L 648 635L 648 641.5L 648 648L 641.5 648L 635 648L 635 654.5L 635 661L 641.5 661L 648 661L 648 667.5L 648 674L 654.5 674L 661 674L 661 661L 661 648L 667.5 648L 674 648L 674 667.5L 674 687L 680.5 687L 687 687L 687 680.5L 687 674L 693.5 674L 700 674L 700 680.5L 700 687L 706.5 687L 713 687L 713 693.5L 713 700L 706.5 700L 700 700L 700 706.5L 700 713L 687 713L 674 713L 674 700L 674 687L 661 687L 648 687L 648 693.5L 648 700L 641.5 700L 635 700L 635 706.5L 635 713L 628.5 713L 622 713L 622 706.5L 622 700L 615.5 700L 609 700L 609 693.5L 609 687L 622 687L 635 687L 635 674L 635 661L 628.5 661L 622 661L 622 654.5L 622 648L 628.5 648L 635 648L 635 641.5L 635 635L 628.5 635L 622 635L 622 628.5L 622 622L 628.5 622L 635 622L 635 615.5L 635 609L 628.5 609L 622 609L 622 602.5L 622 596L 615.5 596L 609 596L 609 615.5L 609 635L 602.5 635L 596 635L 596 641.5L 596 648L 602.5 648L 609 648L 609 654.5L 609 661L 602.5 661L 596 661L 596 674L 596 687L 576.5 687L 557 687L 557 680.5L 557 674L 563.5 674L 570 674L 570 667.5L 570 661L 583 661L 596 661L 596 654.5L 596 648L 589.5 648L 583 648L 583 641.5L 583 635L 570 635L 557 635L 557 628.5L 557 622L 550.5 622L 544 622L 544 615.5L 544 609L 557 609L 570 609L 570 615.5L 570 622L 576.5 622L 583 622L 583 615.5L 583 609L 589.5 609L 596 609L 596 602.5L 596 596L 589.5 596L 583 596L 583 583L 583 570L 576.5 570L 570 570L 570 576.5L 570 583L 563.5 583L 557 583L 557 589.5L 557 596L 537.5 596L 518 596L 518 589.5L 518 583L 537.5 583L 557 583L 557 563.5L 557 544L 550.5 544L 544 544L 544 537.5L 544 531L 550.5 531L 557 531L 557 511.5L 557 492L 550.5 492L 544 492L 544 485.5L 544 479L 505 479L 466 479L 466 453L 466 427L 459.5 427L 453 427L 453 446.5L 453 466L 446.5 466L 440 466L 440 472.5L 440 479L 446.5 479L 453 479L 453 485.5L 453 492L 446.5 492L 440 492L 440 505L 440 518L 459.5 518L 479 518L 479 524.5L 479 531L 472.5 531L 466 531L 466 537.5L 466 544L 472.5 544L 479 544L 479 550.5L 479 557L 485.5 557L 492 557L 492 550.5L 492 544L 505 544L 518 544L 518 550.5L 518 557L 531 557L 544 557L 544 563.5L 544 570L 511.5 570L 479 570L 479 563.5L 479 557L 466 557L 453 557L 453 544L 453 531L 440 531L 427 531L 427 544L 427 557L 420.5 557L 414 557L 414 563.5L 414 570L 440 570L 466 570L 466 576.5L 466 583L 472.5 583L 479 583L 479 596L 479 609L 505 609L 531 609L 531 615.5L 531 622L 498.5 622L 466 622L 466 615.5L 466 609L 453 609L 440 609L 440 602.5L 440 596L 427 596L 414 596L 414 602.5L 414 609L 407.5 609L 401 609L 401 602.5L 401 596L 407.5 596L 414 596L 414 583L 414 570L 407.5 570L 401 570L 401 576.5L 401 583L 394.5 583L 388 583L 388 576.5L 388 570L 381.5 570L 375 570L 375 557L 375 544L 368.5 544L 362 544L 362 550.5L 362 557L 355.5 557L 349 557L 349 537.5L 349 518L 342.5 518L 336 518L 336 505L 336 492L 342.5 492L 349 492L 349 485.5L 349 479L 355.5 479L 362 479L 362 492L 362 505L 368.5 505L 375 505L 375 511.5L 375 518L 381.5 518L 388 518L 388 531L 388 544L 394.5 544L 401 544L 401 537.5L 401 531L 414 531L 427 531L 427 524.5L 427 518L 420.5 518L 414 518L 414 511.5L 414 505L 407.5 505L 401 505L 401 492L 401 479L 394.5 479L 388 479L 388 485.5L 388 492L 381.5 492L 375 492L 375 479L 375 466L 368.5 466L 362 466L 362 459.5L 362 453L 342.5 453L 323 453L 323 446.5L 323 440L 329.5 440L 336 440L 336 433.5L 336 427L 329.5 427L 323 427L 323 414L 323 401L 316.5 401L 310 401L 310 420.5L 310 440L 303.5 440L 297 440L 297 414L 297 388L 303.5 388L 310 388L 310 381.5L 310 375L 323 375L 336 375L 336 368.5L 336 362L 323 362L 310 362L 310 355.5L 310 349L 303.5 349L 297 349L 297 336L 297 323L 303.5 323L 310 323L 310 316.5L 310 310L 323 310L 336 310L 336 303.5L 336 297L 329.5 297L 323 297L 323 290.5L 323 284L 336 284L 349 284L 349 303.5zM 531 511.5L 531 531L 511.5 531L 492 531L 492 511.5L 492 492L 511.5 492L 531 492L 531 511.5zM 310 550.5L 310 557L 303.5 557L 297 557L 297 550.5L 297 544L 303.5 544L 310 544L 310 550.5zM 713 550.5L 713 557L 706.5 557L 700 557L 700 550.5L 700 544L 706.5 544L 713 544L 713 550.5zM 284 563.5L 284 570L 271 570L 258 570L 258 576.5L 258 583L 251.5 583L 245 583L 245 576.5L 245 570L 251.5 570L 258 570L 258 563.5L 258 557L 271 557L 284 557L 284 563.5zM 505 589.5L 505 596L 498.5 596L 492 596L 492 589.5L 492 583L 498.5 583L 505 583L 505 589.5zM 401 641.5L 401 648L 407.5 648L 414 648L 414 654.5L 414 661L 407.5 661L 401 661L 401 667.5L 401 674L 394.5 674L 388 674L 388 680.5L 388 687L 381.5 687L 375 687L 375 680.5L 375 674L 381.5 674L 388 674L 388 667.5L 388 661L 381.5 661L 375 661L 375 648L 375 635L 388 635L 401 635L 401 641.5zM 752 693.5L 752 700L 745.5 700L 739 700L 739 693.5L 739 687L 745.5 687L 752 687L 752 693.5zM 635 732.5L 635 739L 628.5 739L 622 739L 622 732.5L 622 726L 628.5 726L 635 726L 635 732.5z"/>
<path style="stroke:none; fill:#000000" d="M 232 316.5L 232 323L 238.5 323L 245 323L 245 316.5L 245 310L 238.5 310L 232 310L 232 316.5z"/>
<path style="stroke:none; fill:#000000" d="M 310 329.5L 310 336L 316.5 336L 323 336L 323 342.5L 323 349L 329.5 349L 336 349L 336 355.5L 336 362L 342.5 362L 349 362L 349 355.5L 349 349L 362 349L 375 349L 375 355.5L 375 362L 368.5 362L 362 362L 362 375L 362 388L 375 388L 388 388L 388 394.5L 388 401L 394.5 401L 401 401L 401 414L 401 427L 394.5 427L 388 427L 388 433.5L 388 440L 401 440L 414 440L 414 446.5L 414 453L 401 453L 388 453L 388 459.5L 388 466L 394.5 466L 401 466L 401 472.5L 401 479L 407.5 479L 414 479L 414 466L 414 453L 420.5 453L 427 453L 427 459.5L 427 466L 433.5 466L 440 466L 440 453L 440 440L 427 440L 414 440L 414 427L 414 414L 427 414L 440 414L 440 407.5L 440 401L 433.5 401L 427 401L 427 394.5L 427 388L 420.5 388L 414 388L 414 394.5L 414 401L 407.5 401L 401 401L 401 394.5L 401 388L 394.5 388L 388 388L 388 368.5L 388 349L 381.5 349L 375 349L 375 342.5L 375 336L 362 336L 349 336L 349 329.5L 349 323L 342.5 323L 336 323L 336 329.5L 336 336L 329.5 336L 323 336L 323 329.5L 323 323L 316.5 323L 310 323L 310 329.5z"/>
<path style="stroke:none; fill:#000000" d="M 401 368.5L 401 375L 407.5 375L 414 375L 414 368.5L 414 362L 407.5 362L 401 362L 401 368.5z"/>
<path style="stroke:none; fill:#000000" d="M 323 394.5L 323 401L 329.5 401L 336 401L 336 407.5L 336 414L 349 414L 362 414L 362 407.5L 362 401L 349 401L 336 401L 336 394.5L 336 388L 329.5 388L 323 388L 323 394.5z"/>
<path style="stroke:none; fill:#000000" d="M 596 414L 596 427L 615.5 427L 635 427L 635 420.5L 635 414L 628.5 414L 622 414L 622 407.5L 622 401L 609 401L 596 401L 596 414z"/>
<path style="stroke:none; fill:#000000" d="M 674 414L 674 427L 667.5 427L 661 427L 661 433.5L 661 440L 654.5 440L 648 440L 648 446.5L 648 453L 654.5 453L 661 453L 661 459.5L 661 466L 641.5 466L 622 466L 622 459.5L 622 453L 628.5 453L 635 453L 635 446.5L 635 440L 628.5 440L 622 440L 622 446.5L 622 453L 609 453L 596 453L 596 446.5L 596 440L 589.5 440L 583 440L 583 427L 583 414L 576.5 414L 570 414L 570 420.5L 570 427L 563.5 427L 557 427L 557 420.5L 557 414L 550.5 414L 544 414L 544 420.5L 544 427L 550.5 427L 557 427L 557 440L 557 453L 563.5 453L 570 453L 570 446.5L 570 440L 576.5 440L 583 440L 583 446.5L 583 453L 589.5 453L 596 453L 596 459.5L 596 466L 602.5 466L 609 466L 609 472.5L 609 479L 615.5 479L 622 479L 622 485.5L 622 492L 615.5 492L 609 492L 609 505L 609 518L 602.5 518L 596 518L 596 524.5L 596 531L 609 531L 622 531L 622 524.5L 622 518L 628.5 518L 635 518L 635 511.5L 635 505L 641.5 505L 648 505L 648 518L 648 531L 654.5 531L 661 531L 661 511.5L 661 492L 667.5 492L 674 492L 674 485.5L 674 479L 667.5 479L 661 479L 661 472.5L 661 466L 674 466L 687 466L 687 472.5L 687 479L 693.5 479L 700 479L 700 492L 700 505L 706.5 505L 713 505L 713 498.5L 713 492L 719.5 492L 726 492L 726 498.5L 726 505L 739 505L 752 505L 752 492L 752 479L 745.5 479L 739 479L 739 472.5L 739 466L 732.5 466L 726 466L 726 472.5L 726 479L 719.5 479L 713 479L 713 466L 713 453L 687 453L 661 453L 661 446.5L 661 440L 674 440L 687 440L 687 427L 687 414L 693.5 414L 700 414L 700 407.5L 700 401L 687 401L 674 401L 674 414zM 635 498.5L 635 505L 628.5 505L 622 505L 622 498.5L 622 492L 628.5 492L 635 492L 635 498.5z"/>
<path style="stroke:none; fill:#000000" d="M 726 420.5L 726 427L 732.5 427L 739 427L 739 420.5L 739 414L 732.5 414L 726 414L 726 420.5z"/>
<path style="stroke:none; fill:#000000" d="M 349 433.5L 349 440L 355.5 440L 362 440L 362 446.5L 362 453L 368.5 453L 375 453L 375 440L 375 427L 362 427L 349 427L 349 433.5z"/>
<path style="stroke:none; fill:#000000" d="M 700 433.5L 700 440L 706.5 440L 713 440L 713 433.5L 713 427L 706.5 427L 700 427L 700 433.5z"/>
<path style="stroke:none; fill:#000000" d="M 739 446.5L 739 453L 745.5 453L 752 453L 752 446.5L 752 440L 745.5 440L 739 440L 739 446.5z"/>
<path style="stroke:none; fill:#000000" d="M 492 459.5L 492 466L 511.5 466L 531 466L 531 459.5L 531 453L 511.5 453L 492 453L 492 459.5z"/>
<path style="stroke:none; fill:#000000" d="M 544 472.5L 544 479L 550.5 479L 557 479L 557 485.5L 557 492L 563.5 492L 570 492L 570 498.5L 570 505L 583 505L 596 505L 596 498.5L 596 492L 589.5 492L 583 492L 583 485.5L 583 479L 570 479L 557 479L 557 472.5L 557 466L 550.5 466L 544 466L 544 472.5z"/>
<path style="stroke:none; fill:#000000" d="M 414 498.5L 414 505L 420.5 505L 427 505L 427 498.5L 427 492L 420.5 492L 414 492L 414 498.5z"/>
<path style="stroke:none; fill:#000000" d="M 362 524.5L 362 531L 368.5 531L 375 531L 375 524.5L 375 518L 368.5 518L 362 518L 362 524.5z"/>
<path style="stroke:none; fill:#000000" d="M 557 537.5L 557 544L 563.5 544L 570 544L 570 537.5L 570 531L 563.5 531L 557 531L 557 537.5z"/>
<path style="stroke:none; fill:#000000" d="M 583 550.5L 583 557L 602.5 557L 622 557L 622 550.5L 622 544L 602.5 544L 583 544L 583 550.5z"/>
<path style="stroke:none; fill:#000000" d="M 635 550.5L 635 557L 648 557L 661 557L 661 550.5L 661 544L 648 544L 635 544L 635 550.5z"/>
<path style="stroke:none; fill:#000000" d="M 440 589.5L 440 596L 446.5 596L 453 596L 453 589.5L 453 583L 446.5 583L 440 583L 440 589.5z"/>
<path style="stroke:none; fill:#000000" d="M 687 693.5L 687 700L 693.5 700L 700 700L 700 693.5L 700 687L 693.5 687L 687 687L 687 693.5z"/>
<path style="stroke:none; fill:#000000" d="M 505 511.5L 505 518L 511.5 518L 518 518L 518 511.5L 518 505L 511.5 505L 505 505L 505 511.5z"/>
<path style="stroke:none; fill:#000000" d="M 583 238.5L 583 245L 589.5 245L 596 245L 596 238.5L 596 232L 589.5 232L 583 232L 583 238.5z"/>
<path style="stroke:none; fill:#000000" d="M 765 238.5L 765 245L 771.5 245L 778 245L 778 238.5L 778 232L 771.5 232L 765 232L 765 238.5z"/>
<path style="stroke:none; fill:#000000" d="M 531 251.5L 531 258L 537.5 258L 544 258L 544 251.5L 544 245L 537.5 245L 531 245L 531 251.5z"/>
<path style="stroke:none; fill:#000000" d="M 622 251.5L 622 258L 609 258L 596 258L 596 264.5L 596 271L 609 271L 622 271L 622 264.5L 622 258L 628.5 258L 635 258L 635 251.5L 635 245L 628.5 245L 622 245L 622 251.5z"/>
<path style="stroke:none; fill:#000000" d="M 284 264.5L 284 271L 290.5 271L 297 271L 297 264.5L 297 258L 290.5 258L 284 258L 284 264.5z"/>
<path style="stroke:none; fill:#000000" d="M 141 277.5L 141 284L 147.5 284L 154 284L 154 277.5L 154 271L 147.5 271L 141 271L 141 277.5z"/>
<path style="stroke:none; fill:#000000" d="M 375 277.5L 375 284L 381.5 284L 388 284L 388 277.5L 388 271L 381.5 271L 375 271L 375 277.5z"/>
<path style="stroke:none; fill:#000000" d="M 713 277.5L 713 284L 719.5 284L 726 284L 726 290.5L 726 297L 752 297L 778 297L 778 290.5L 778 284L 765 284L 752 284L 752 277.5L 752 271L 732.5 271L 713 271L 713 277.5z"/>
<path style="stroke:none; fill:#000000" d="M 466 290.5L 466 297L 472.5 297L 479 297L 479 290.5L 479 284L 472.5 284L 466 284L 466 290.5z"/>
<path style="stroke:none; fill:#000000" d="M 609 290.5L 609 297L 615.5 297L 622 297L 622 290.5L 622 284L 615.5 284L 609 284L 609 290.5z"/>
<path style="stroke:none; fill:#000000" d="M 89 303.5L 89 310L 95.5 310L 102 310L 102 303.5L 102 297L 95.5 297L 89 297L 89 303.5z"/>
<path style="stroke:none; fill:#000000" d="M 557 329.5L 557 336L 570 336L 583 336L 583 329.5L 583 323L 570 323L 557 323L 557 329.5z"/>
<path style="stroke:none; fill:#000000" d="M 141 355.5L 141 362L 147.5 362L 154 362L 154 355.5L 154 349L 147.5 349L 141 349L 141 355.5z"/>
<path style="stroke:none; fill:#000000" d="M 570 355.5L 570 362L 576.5 362L 583 362L 583 355.5L 583 349L 576.5 349L 570 349L 570 355.5z"/>
<path style="stroke:none; fill:#000000" d="M 856 401L 856 414L 849.5 414L 843 414L 843 433.5L 843 453L 849.5 453L 856 453L 856 433.5L 856 414L 862.5 414L 869 414L 869 401L 869 388L 862.5 388L 856 388L 856 401z"/>
<path style="stroke:none; fill:#000000" d="M 362 602.5L 362 609L 368.5 609L 375 609L 375 602.5L 375 596L 368.5 596L 362 596L 362 602.5z"/>
<path style="stroke:none; fill:#000000" d="M 817 615.5L 817 622L 823.5 622L 830 622L 830 615.5L 830 609L 823.5 609L 817 609L 817 615.5z"/>
<path style="stroke:none; fill:#000000" d="M 713 641.5L 713 648L 726 648L 739 648L 739 641.5L 739 635L 726 635L 713 635L 713 641.5z"/>
<path style="stroke:none; fill:#000000" d="M 323 674L 323 700L 316.5 700L 310 700L 310 706.5L 310 713L 303.5 713L 297 713L 297 719.5L 297 726L 303.5 726L 310 726L 310 732.5L 310 739L 303.5 739L 297 739L 297 745.5L 297 752L 303.5 752L 310 752L 310 745.5L 310 739L 316.5 739L 323 739L 323 732.5L 323 726L 336 726L 349 726L 349 719.5L 349 713L 355.5 713L 362 713L 362 706.5L 362 700L 349 700L 336 700L 336 680.5L 336 661L 342.5 661L 349 661L 349 654.5L 349 648L 336 648L 323 648L 323 674zM 323 719.5L 323 726L 316.5 726L 310 726L 310 719.5L 310 713L 316.5 713L 323 713L 323 719.5z"/>
<path style="stroke:none; fill:#000000" d="M 856 667.5L 856 674L 849.5 674L 843 674L 843 687L 843 700L 856 700L 869 700L 869 693.5L 869 687L 875.5 687L 882 687L 882 680.5L 882 674L 875.5 674L 869 674L 869 667.5L 869 661L 862.5 661L 856 661L 856 667.5zM 869 680.5L 869 687L 862.5 687L 856 687L 856 680.5L 856 674L 862.5 674L 869 674L 869 680.5z"/>
<path style="stroke:none; fill:#000000" d="M 791 706.5L 791 713L 797.5 713L 804 713L 804 719.5L 804 726L 810.5 726L 817 726L 817 719.5L 817 713L 810.5 713L 804 713L 804 706.5L 804 700L 797.5 700L 791 700L 791 706.5z"/>
<path style="stroke:none; fill:#000000" d="M 258 719.5L 258 726L 251.5 726L 245 726L 245 732.5L 245 739L 251.5 739L 258 739L 258 732.5L 258 726L 264.5 726L 271 726L 271 719.5L 271 713L 264.5 713L 258 713L 258 719.5z"/>
<path style="stroke:none; fill:#000000" d="M 570 732.5L 570 739L 576.5 739L 583 739L 583 732.5L 583 726L 576.5 726L 570 726L 570 732.5z"/>
<path style="stroke:none; fill:#000000" d="M 219 745.5L 219 752L 225.5 752L 232 752L 232 758.5L 232 765L 225.5 765L 219 765L 219 771.5L 219 778L 225.5 778L 232 778L 232 771.5L 232 765L 238.5 765L 245 765L 245 758.5L 245 752L 238.5 752L 232 752L 232 745.5L 232 739L 225.5 739L 219 739L 219 745.5z"/>
<path style="stroke:none; fill:#000000" d="M 336 745.5L 336 752L 349 752L 362 752L 362 745.5L 362 739L 349 739L 336 739L 336 745.5z"/>
<path style="stroke:none; fill:#000000" d="M 453 745.5L 453 752L 459.5 752L 466 752L 466 745.5L 466 739L 459.5 739L 453 739L 453 745.5z"/>
<path style="stroke:none; fill:#000000" d="M 544 745.5L 544 752L 550.5 752L 557 752L 557 745.5L 557 739L 550.5 739L 544 739L 544 745.5z"/>
<path style="stroke:none; fill:#000000" d="M 661 745.5L 661 752L 667.5 752L 674 752L 674 745.5L 674 739L 667.5 739L 661 739L 661 745.5z"/>
<path style="stroke:none; fill:#000000" d="M 817 745.5L 817 752L 810.5 752L 804 752L 804 758.5L 804 765L 810.5 765L 817 765L 817 771.5L 817 778L 823.5 778L 830 778L 830 771.5L 830 765L 836.5 765L 843 765L 843 758.5L 843 752L 836.5 752L 830 752L 830 745.5L 830 739L 823.5 739L 817 739L 817 745.5zM 830 758.5L 830 765L 823.5 765L 817 765L 817 758.5L 817 752L 823.5 752L 830 752L 830 758.5z"/>
<path style="stroke:none; fill:#000000" d="M 778 758.5L 778 765L 784.5 765L 791 765L 791 758.5L 791 752L 784.5 752L 778 752L 778 758.5z"/>
<path style="stroke:none; fill:#000000" d="M 427 771.5L 427 778L 433.5 778L 440 778L 440 771.5L 440 765L 433.5 765L 427 765L 427 771.5z"/>
<path style="stroke:none; fill:#000000" d="M 453 771.5L 453 778L 459.5 778L 466 778L 466 771.5L 466 765L 459.5 765L 453 765L 453 771.5z"/>
<path style="stroke:none; fill:#000000" d="M 687 784.5L 687 804L 680.5 804L 674 804L 674 823.5L 674 843L 661 843L 648 843L 648 849.5L 648 856L 641.5 856L 635 856L 635 862.5L 635 869L 622 869L 609 869L 609 862.5L 609 856L 596 856L 583 856L 583 862.5L 583 869L 596 869L 609 869L 609 875.5L 609 882L 602.5 882L 596 882L 596 888.5L 596 895L 609 895L 622 895L 622 888.5L 622 882L 628.5 882L 635 882L 635 875.5L 635 869L 641.5 869L 648 869L 648 862.5L 648 856L 661 856L 674 856L 674 849.5L 674 843L 680.5 843L 687 843L 687 849.5L 687 856L 706.5 856L 726 856L 726 862.5L 726 869L 739 869L 752 869L 752 862.5L 752 856L 758.5 856L 765 856L 765 862.5L 765 869L 771.5 869L 778 869L 778 862.5L 778 856L 784.5 856L 791 856L 791 862.5L 791 869L 797.5 869L 804 869L 804 862.5L 804 856L 817 856L 830 856L 830 849.5L 830 843L 817 843L 804 843L 804 836.5L 804 830L 817 830L 830 830L 830 823.5L 830 817L 836.5 817L 843 817L 843 810.5L 843 804L 836.5 804L 830 804L 830 797.5L 830 791L 817 791L 804 791L 804 784.5L 804 778L 797.5 778L 791 778L 791 784.5L 791 791L 784.5 791L 778 791L 778 797.5L 778 804L 784.5 804L 791 804L 791 810.5L 791 817L 778 817L 765 817L 765 810.5L 765 804L 752 804L 739 804L 739 810.5L 739 817L 752 817L 765 817L 765 823.5L 765 830L 758.5 830L 752 830L 752 843L 752 856L 745.5 856L 739 856L 739 849.5L 739 843L 726 843L 713 843L 713 836.5L 713 830L 706.5 830L 700 830L 700 823.5L 700 817L 693.5 817L 687 817L 687 810.5L 687 804L 693.5 804L 700 804L 700 791L 700 778L 706.5 778L 713 778L 713 771.5L 713 765L 700 765L 687 765L 687 784.5zM 804 797.5L 804 804L 817 804L 830 804L 830 810.5L 830 817L 817 817L 804 817L 804 823.5L 804 830L 797.5 830L 791 830L 791 823.5L 791 817L 797.5 817L 804 817L 804 810.5L 804 804L 797.5 804L 791 804L 791 797.5L 791 791L 797.5 791L 804 791L 804 797.5zM 778 849.5L 778 856L 771.5 856L 765 856L 765 849.5L 765 843L 771.5 843L 778 843L 778 849.5z"/>
<path style="stroke:none; fill:#000000" d="M 570 784.5L 570 791L 576.5 791L 583 791L 583 784.5L 583 778L 576.5 778L 570 778L 570 784.5z"/>
<path style="stroke:none; fill:#000000" d="M 856 784.5L 856 791L 869 791L 882 791L 882 784.5L 882 778L 869 778L 856 778L 856 784.5z"/>
<path style="stroke:none; fill:#000000" d="M 453 810.5L 453 830L 459.5 830L 466 830L 466 836.5L 466 843L 459.5 843L 453 843L 453 856L 453 869L 440 869L 427 869L 427 862.5L 427 856L 420.5 856L 414 856L 414 849.5L 414 843L 401 843L 388 843L 388 836.5L 388 830L 381.5 830L 375 830L 375 823.5L 375 817L 368.5 817L 362 817L 362 823.5L 362 830L 368.5 830L 375 830L 375 836.5L 375 843L 381.5 843L 388 843L 388 849.5L 388 856L 381.5 856L 375 856L 375 862.5L 375 869L 388 869L 401 869L 401 875.5L 401 882L 433.5 882L 466 882L 466 862.5L 466 843L 472.5 843L 479 843L 479 836.5L 479 830L 472.5 830L 466 830L 466 810.5L 466 791L 459.5 791L 453 791L 453 810.5z"/>
<path style="stroke:none; fill:#000000" d="M 856 810.5L 856 817L 862.5 817L 869 817L 869 810.5L 869 804L 862.5 804L 856 804L 856 810.5z"/>
<path style="stroke:none; fill:#000000" d="M 531 927.5L 531 934L 537.5 934L 544 934L 544 927.5L 544 921L 537.5 921L 531 921L 531 927.5z"/>
<path style="stroke:none; fill:#000000" d="M 505 147.5L 505 154L 511.5 154L 518 154L 518 147.5L 518 141L 511.5 141L 505 141L 505 147.5z"/>
<path style="stroke:none; fill:#000000" d="M 141 511.5L 141 518L 147.5 518L 154 518L 154 511.5L 154 505L 147.5 505L 141 505L 141 511.5z"/>
<path style="stroke:none; fill:#000000" d="M 869 511.5L 869 518L 875.5 518L 882 518L 882 511.5L 882 505L 875.5 505L 869 505L 869 511.5z"/>
<path style="stroke:none; fill:#000000" d="M 141 667.5L 141 674L 134.5 674L 128 674L 128 693.5L 128 713L 134.5 713L 141 713L 141 706.5L 141 700L 147.5 700L 154 700L 154 693.5L 154 687L 147.5 687L 141 687L 141 680.5L 141 674L 147.5 674L 154 674L 154 667.5L 154 661L 147.5 661L 141 661L 141 667.5z"/>
<path style="stroke:none; fill:#000000" d="M 505 875.5L 505 882L 511.5 882L 518 882L 518 875.5L 518 869L 511.5 869L 505 869L 505 875.5z"/>
<path style="stroke:none; fill:#000000" d="M 869 875.5L 869 882L 875.5 882L 882 882L 882 875.5L 882 869L 875.5 869L 869 869L 869 875.5z"/>
<path style="stroke:none; fill:#000000" d="M 700 69.5L 700 76L 706.5 76L 713 76L 713 69.5L 713 63L 706.5 63L 700 63L 700 69.5z"/>
<path style="stroke:none; fill:#000000" d="M 739 69.5L 739 76L 745.5 76L 752 76L 752 69.5L 752 63L 745.5 63L 739 63L 739 69.5z"/>
<path style="stroke:none; fill:#000000" d="M 869 108.5L 869 154L 914.5 154L 960 154L 960 108.5L 960 63L 914.5 63L 869 63L 869 108.5zM 947 108.5L 947 141L 914.5 141L 882 141L 882 108.5L 882 76L 914.5 76L 947 76L 947 108.5z"/>
<path style="stroke:none; fill:#000000" d="M 895 108L 895 127L 914 127L 933 127L 933 108L 933 89L 914 89L 895 89L 895 108z"/>
<path style="stroke:none; fill:#000000" d="M 843 115L 843 128L 849.5 128L 856 128L 856 115L 856 102L 849.5 102L 843 102L 843 115z"/>
<path style="stroke:none; fill:#000000" d="M 63 186.5L 63 206L 69.5 206L 76 206L 76 212.5L 76 219L 69.5 219L 63 219L 63 225.5L 63 232L 76 232L 89 232L 89 225.5L 89 219L 95.5 219L 102 219L 102 212.5L 102 206L 89 206L 76 206L 76 199.5L 76 193L 95.5 193L 115 193L 115 186.5L 115 180L 134.5 180L 154 180L 154 173.5L 154 167L 121.5 167L 89 167L 89 173.5L 89 180L 82.5 180L 76 180L 76 173.5L 76 167L 69.5 167L 63 167L 63 186.5z"/>
<path style="stroke:none; fill:#000000" d="M 63 251.5L 63 258L 69.5 258L 76 258L 76 251.5L 76 245L 69.5 245L 63 245L 63 251.5z"/>
<path style="stroke:none; fill:#000000" d="M 882 316.5L 882 323L 888.5 323L 895 323L 895 316.5L 895 310L 888.5 310L 882 310L 882 316.5z"/>
<path style="stroke:none; fill:#000000" d="M 947 316.5L 947 323L 953.5 323L 960 323L 960 316.5L 960 310L 953.5 310L 947 310L 947 316.5z"/>
<path style="stroke:none; fill:#000000" d="M 895 342.5L 895 349L 901.5 349L 908 349L 908 342.5L 908 336L 901.5 336L 895 336L 895 342.5z"/>
<path style="stroke:none; fill:#000000" d="M 947 368.5L 947 375L 953.5 375L 960 375L 960 368.5L 960 362L 953.5 362L 947 362L 947 368.5z"/>
<path style="stroke:none; fill:#000000" d="M 89 537.5L 89 544L 95.5 544L 102 544L 102 537.5L 102 531L 95.5 531L 89 531L 89 537.5z"/>
<path style="stroke:none; fill:#000000" d="M 102 849.5L 102 856L 115 856L 128 856L 128 849.5L 128 843L 115 843L 102 843L 102 849.5z"/>
<path style="stroke:none; fill:#000000" d="M 141 849.5L 141 856L 147.5 856L 154 856L 154 849.5L 154 843L 147.5 843L 141 843L 141 849.5z"/>
<path style="stroke:none; fill:#000000" d="M 271 862.5L 271 869L 277.5 869L 284 869L 284 875.5L 284 882L 297 882L 310 882L 310 869L 310 856L 290.5 856L 271 856L 271 862.5z"/>
<path style="stroke:none; fill:#000000" d="M 63 914.5L 63 960L 108.5 960L 154 960L 154 914.5L 154 869L 108.5 869L 63 869L 63 914.5zM 141 914.5L 141 947L 108.5 947L 76 947L 76 914.5L 76 882L 108.5 882L 141 882L 141 914.5z"/>
<path style="stroke:none; fill:#000000" d="M 89 914L 89 933L 108 933L 127 933L 127 914L 127 895L 108 895L 89 895L 89 914z"/>
<path style="stroke:none; fill:#000000" d="M 947 888.5L 947 895L 953.5 895L 960 895L 960 888.5L 960 882L 953.5 882L 947 882L 947 888.5z"/>
<path style="stroke:none; fill:#000000" d="M 297 914.5L 297 921L 303.5 921L 310 921L 310 914.5L 310 908L 303.5 908L 297 908L 297 914.5z"/>
<path style="stroke:none; fill:#000000" d="M 336 927.5L 336 934L 316.5 934L 297 934L 297 947L 297 960L 316.5 960L 336 960L 336 947L 336 934L 342.5 934L 349 934L 349 940.5L 349 947L 355.5 947L 362 947L 362 934L 362 921L 349 921L 336 921L 336 927.5z"/>
<path style="stroke:none; fill:#000000" d="M 232 940.5L 232 947L 245 947L 258 947L 258 953.5L 258 960L 264.5 960L 271 960L 271 953.5L 271 947L 277.5 947L 284 947L 284 940.5L 284 934L 258 934L 232 934L 232 940.5z"/>
<path style="stroke:none; fill:#000000" d="M 934 947L 934 960L 940.5 960L 947 960L 947 953.5L 947 947L 953.5 947L 960 947L 960 940.5L 960 934L 947 934L 934 934L 934 947z"/>
<path style="stroke:none; fill:#000000" d="M 167 953.5L 167 960L 173.5 960L 180 960L 180 953.5L 180 947L 173.5 947L 167 947L 167 953.5z"/>
<path style="stroke:none; fill:#000000" d="M 440 953.5L 440 960L 446.5 960L 453 960L 453 953.5L 453 947L 446.5 947L 440 947L 440 953.5z"/>
</g>
</g>
</svg>