<?xml version="1.0" encoding="UTF-8" standalone="yes"?>
<!-- Created with sK1/UniConvertor (http://sk1project.org/) -->
<svg xmlns="http://www.w3.org/2000/svg" xmlns:xlink="http://www.w3.org/1999/xlink"
  width="1024pt" height="1024pt" viewBox="0 0 1024 1024"
  fill-rule="evenodd">
<g>
<g>
<path style="stroke:none; fill:#000000" d="M 63 108.5L 63 154L 108.5 154L 154 154L 154 108.5L 154 63L 108.5 63L 63 63L 63 108.5zM 141 108.5L 141 141L 108.5 141L 76 141L 76 108.5L 76 76L 108.5 76L 141 76L 141 108.5z"/>
<path style="stroke:none; fill:#000000" d="M 89 108L 89 127L 108 127L 127 127L 127 108L 127 89L 108 89L 89 89L 89 108z"/>
<path style="stroke:none; fill:#000000" d="M 167 69.5L 167 76L 173.5 76L 180 76L 180 82.5L 180 89L 173.5 89L 167 89L 167 95.5L 167 102L 173.5 102L 180 102L 180 115L 180 128L 173.5 128L 167 128L 167 141L 167 154L 173.5 154L 180 154L 180 141L 180 128L 186.5 128L 193 128L 193 121.5L 193 115L 212.5 115L 232 115L 232 121.5L 232 128L 219 128L 206 128L 206 134.5L 206 141L 199.5 141L 193 141L 193 154L 193 167L 186.5 167L 180 167L 180 173.5L 180 180L 186.5 180L 193 180L 193 173.5L 193 167L 199.5 167L 206 167L 206 173.5L 206 180L 212.5 180L 219 180L 219 193L 219 206L 212.5 206L 206 206L 206 212.5L 206 219L 212.5 219L 219 219L 219 225.5L 219 232L 212.5 232L 206 232L 206 245L 206 258L 193 258L 180 258L 180 251.5L 180 245L 186.5 245L 193 245L 193 238.5L 193 232L 186.5 232L 180 232L 180 225.5L 180 219L 186.5 219L 193 219L 193 206L 193 193L 180 193L 167 193L 167 199.5L 167 206L 173.5 206L 180 206L 180 212.5L 180 219L 147.5 219L 115 219L 115 212.5L 115 206L 121.5 206L 128 206L 128 199.5L 128 193L 134.5 193L 141 193L 141 199.5L 141 206L 147.5 206L 154 206L 154 199.5L 154 193L 147.5 193L 141 193L 141 186.5L 141 180L 154 180L 167 180L 167 173.5L 167 167L 154 167L 141 167L 141 173.5L 141 180L 134.5 180L 128 180L 128 186.5L 128 193L 121.5 193L 115 193L 115 186.5L 115 180L 108.5 180L 102 180L 102 173.5L 102 167L 95.5 167L 89 167L 89 173.5L 89 180L 82.5 180L 76 180L 76 173.5L 76 167L 69.5 167L 63 167L 63 180L 63 193L 76 193L 89 193L 89 186.5L 89 180L 95.5 180L 102 180L 102 193L 102 206L 95.5 206L 89 206L 89 212.5L 89 219L 82.5 219L 76 219L 76 212.5L 76 206L 69.5 206L 63 206L 63 232L 63 258L 69.5 258L 76 258L 76 271L 76 284L 69.5 284L 63 284L 63 290.5L 63 297L 69.5 297L 76 297L 76 310L 76 323L 82.5 323L 89 323L 89 329.5L 89 336L 82.5 336L 76 336L 76 342.5L 76 349L 89 349L 102 349L 102 342.5L 102 336L 108.5 336L 115 336L 115 342.5L 115 349L 121.5 349L 128 349L 128 355.5L 128 362L 121.5 362L 115 362L 115 368.5L 115 375L 128 375L 141 375L 141 381.5L 141 388L 154 388L 167 388L 167 381.5L 167 375L 180 375L 193 375L 193 368.5L 193 362L 206 362L 219 362L 219 368.5L 219 375L 232 375L 245 375L 245 381.5L 245 388L 238.5 388L 232 388L 232 394.5L 232 401L 225.5 401L 219 401L 219 394.5L 219 388L 206 388L 193 388L 193 407.5L 193 427L 206 427L 219 427L 219 440L 219 453L 212.5 453L 206 453L 206 466L 206 479L 212.5 479L 219 479L 219 498.5L 219 518L 212.5 518L 206 518L 206 524.5L 206 531L 199.5 531L 193 531L 193 537.5L 193 544L 186.5 544L 180 544L 180 524.5L 180 505L 193 505L 206 505L 206 498.5L 206 492L 193 492L 180 492L 180 485.5L 180 479L 173.5 479L 167 479L 167 472.5L 167 466L 180 466L 193 466L 193 453L 193 440L 180 440L 167 440L 167 446.5L 167 453L 154 453L 141 453L 141 459.5L 141 466L 134.5 466L 128 466L 128 453L 128 440L 141 440L 154 440L 154 433.5L 154 427L 147.5 427L 141 427L 141 420.5L 141 414L 154 414L 167 414L 167 407.5L 167 401L 147.5 401L 128 401L 128 407.5L 128 414L 121.5 414L 115 414L 115 401L 115 388L 95.5 388L 76 388L 76 375L 76 362L 69.5 362L 63 362L 63 375L 63 388L 69.5 388L 76 388L 76 394.5L 76 401L 69.5 401L 63 401L 63 407.5L 63 414L 69.5 414L 76 414L 76 427L 76 440L 69.5 440L 63 440L 63 466L 63 492L 69.5 492L 76 492L 76 498.5L 76 505L 69.5 505L 63 505L 63 518L 63 531L 69.5 531L 76 531L 76 544L 76 557L 82.5 557L 89 557L 89 563.5L 89 570L 76 570L 63 570L 63 576.5L 63 583L 76 583L 89 583L 89 589.5L 89 596L 76 596L 63 596L 63 602.5L 63 609L 82.5 609L 102 609L 102 602.5L 102 596L 108.5 596L 115 596L 115 602.5L 115 609L 121.5 609L 128 609L 128 615.5L 128 622L 121.5 622L 115 622L 115 635L 115 648L 108.5 648L 102 648L 102 661L 102 674L 95.5 674L 89 674L 89 654.5L 89 635L 95.5 635L 102 635L 102 628.5L 102 622L 89 622L 76 622L 76 641.5L 76 661L 69.5 661L 63 661L 63 667.5L 63 674L 69.5 674L 76 674L 76 680.5L 76 687L 69.5 687L 63 687L 63 693.5L 63 700L 69.5 700L 76 700L 76 706.5L 76 713L 82.5 713L 89 713L 89 706.5L 89 700L 134.5 700L 180 700L 180 706.5L 180 713L 186.5 713L 193 713L 193 719.5L 193 726L 199.5 726L 206 726L 206 732.5L 206 739L 193 739L 180 739L 180 732.5L 180 726L 173.5 726L 167 726L 167 719.5L 167 713L 154 713L 141 713L 141 719.5L 141 726L 147.5 726L 154 726L 154 732.5L 154 739L 147.5 739L 141 739L 141 745.5L 141 752L 134.5 752L 128 752L 128 732.5L 128 713L 121.5 713L 115 713L 115 732.5L 115 752L 108.5 752L 102 752L 102 739L 102 726L 95.5 726L 89 726L 89 739L 89 752L 82.5 752L 76 752L 76 745.5L 76 739L 69.5 739L 63 739L 63 745.5L 63 752L 69.5 752L 76 752L 76 758.5L 76 765L 69.5 765L 63 765L 63 784.5L 63 804L 69.5 804L 76 804L 76 810.5L 76 817L 69.5 817L 63 817L 63 836.5L 63 856L 69.5 856L 76 856L 76 836.5L 76 817L 82.5 817L 89 817L 89 823.5L 89 830L 95.5 830L 102 830L 102 823.5L 102 817L 108.5 817L 115 817L 115 823.5L 115 830L 141 830L 167 830L 167 823.5L 167 817L 154 817L 141 817L 141 810.5L 141 804L 154 804L 167 804L 167 797.5L 167 791L 154 791L 141 791L 141 797.5L 141 804L 134.5 804L 128 804L 128 810.5L 128 817L 121.5 817L 115 817L 115 810.5L 115 804L 108.5 804L 102 804L 102 797.5L 102 791L 95.5 791L 89 791L 89 784.5L 89 778L 95.5 778L 102 778L 102 771.5L 102 765L 108.5 765L 115 765L 115 758.5L 115 752L 121.5 752L 128 752L 128 758.5L 128 765L 134.5 765L 141 765L 141 771.5L 141 778L 154 778L 167 778L 167 765L 167 752L 173.5 752L 180 752L 180 758.5L 180 765L 186.5 765L 193 765L 193 758.5L 193 752L 206 752L 219 752L 219 758.5L 219 765L 238.5 765L 258 765L 258 758.5L 258 752L 271 752L 284 752L 284 745.5L 284 739L 264.5 739L 245 739L 245 732.5L 245 726L 238.5 726L 232 726L 232 719.5L 232 713L 225.5 713L 219 713L 219 706.5L 219 700L 232 700L 245 700L 245 693.5L 245 687L 251.5 687L 258 687L 258 693.5L 258 700L 264.5 700L 271 700L 271 706.5L 271 713L 264.5 713L 258 713L 258 719.5L 258 726L 277.5 726L 297 726L 297 745.5L 297 765L 290.5 765L 284 765L 284 778L 284 791L 277.5 791L 271 791L 271 784.5L 271 778L 251.5 778L 232 778L 232 784.5L 232 791L 225.5 791L 219 791L 219 784.5L 219 778L 199.5 778L 180 778L 180 784.5L 180 791L 199.5 791L 219 791L 219 797.5L 219 804L 225.5 804L 232 804L 232 797.5L 232 791L 238.5 791L 245 791L 245 797.5L 245 804L 264.5 804L 284 804L 284 810.5L 284 817L 297 817L 310 817L 310 830L 310 843L 297 843L 284 843L 284 836.5L 284 830L 277.5 830L 271 830L 271 823.5L 271 817L 238.5 817L 206 817L 206 823.5L 206 830L 219 830L 232 830L 232 843L 232 856L 238.5 856L 245 856L 245 849.5L 245 843L 264.5 843L 284 843L 284 849.5L 284 856L 277.5 856L 271 856L 271 862.5L 271 869L 258 869L 245 869L 245 875.5L 245 882L 238.5 882L 232 882L 232 875.5L 232 869L 225.5 869L 219 869L 219 856L 219 843L 206 843L 193 843L 193 823.5L 193 804L 186.5 804L 180 804L 180 823.5L 180 843L 186.5 843L 193 843L 193 869L 193 895L 186.5 895L 180 895L 180 901.5L 180 908L 186.5 908L 193 908L 193 921L 193 934L 186.5 934L 180 934L 180 927.5L 180 921L 173.5 921L 167 921L 167 927.5L 167 934L 173.5 934L 180 934L 180 940.5L 180 947L 173.5 947L 167 947L 167 953.5L 167 960L 173.5 960L 180 960L 180 953.5L 180 947L 186.5 947L 193 947L 193 940.5L 193 934L 199.5 934L 206 934L 206 927.5L 206 921L 212.5 921L 219 921L 219 940.5L 219 960L 232 960L 245 960L 245 953.5L 245 947L 258 947L 271 947L 271 934L 271 921L 264.5 921L 258 921L 258 914.5L 258 908L 251.5 908L 245 908L 245 901.5L 245 895L 251.5 895L 258 895L 258 888.5L 258 882L 264.5 882L 271 882L 271 888.5L 271 895L 277.5 895L 284 895L 284 888.5L 284 882L 290.5 882L 297 882L 297 888.5L 297 895L 303.5 895L 310 895L 310 908L 310 921L 303.5 921L 297 921L 297 914.5L 297 908L 290.5 908L 284 908L 284 914.5L 284 921L 290.5 921L 297 921L 297 927.5L 297 934L 290.5 934L 284 934L 284 947L 284 960L 297 960L 310 960L 310 953.5L 310 947L 323 947L 336 947L 336 953.5L 336 960L 362 960L 388 960L 388 921L 388 882L 368.5 882L 349 882L 349 875.5L 349 869L 355.5 869L 362 869L 362 849.5L 362 830L 355.5 830L 349 830L 349 823.5L 349 817L 342.5 817L 336 817L 336 810.5L 336 804L 310 804L 284 804L 284 797.5L 284 791L 297 791L 310 791L 310 784.5L 310 778L 303.5 778L 297 778L 297 771.5L 297 765L 303.5 765L 310 765L 310 758.5L 310 752L 336 752L 362 752L 362 745.5L 362 739L 375 739L 388 739L 388 752L 388 765L 381.5 765L 375 765L 375 771.5L 375 778L 381.5 778L 388 778L 388 784.5L 388 791L 394.5 791L 401 791L 401 778L 401 765L 407.5 765L 414 765L 414 778L 414 791L 420.5 791L 427 791L 427 797.5L 427 804L 420.5 804L 414 804L 414 810.5L 414 817L 420.5 817L 427 817L 427 810.5L 427 804L 433.5 804L 440 804L 440 810.5L 440 817L 446.5 817L 453 817L 453 830L 453 843L 459.5 843L 466 843L 466 849.5L 466 856L 459.5 856L 453 856L 453 882L 453 908L 446.5 908L 440 908L 440 901.5L 440 895L 433.5 895L 427 895L 427 888.5L 427 882L 420.5 882L 414 882L 414 888.5L 414 895L 407.5 895L 401 895L 401 901.5L 401 908L 407.5 908L 414 908L 414 901.5L 414 895L 420.5 895L 427 895L 427 908L 427 921L 420.5 921L 414 921L 414 927.5L 414 934L 407.5 934L 401 934L 401 947L 401 960L 407.5 960L 414 960L 414 953.5L 414 947L 420.5 947L 427 947L 427 953.5L 427 960L 446.5 960L 466 960L 466 953.5L 466 947L 459.5 947L 453 947L 453 940.5L 453 934L 459.5 934L 466 934L 466 927.5L 466 921L 472.5 921L 479 921L 479 927.5L 479 934L 485.5 934L 492 934L 492 940.5L 492 947L 485.5 947L 479 947L 479 953.5L 479 960L 485.5 960L 492 960L 492 953.5L 492 947L 498.5 947L 505 947L 505 927.5L 505 908L 518 908L 531 908L 531 921L 531 934L 524.5 934L 518 934L 518 947L 518 960L 537.5 960L 557 960L 557 921L 557 882L 563.5 882L 570 882L 570 869L 570 856L 563.5 856L 557 856L 557 843L 557 830L 563.5 830L 570 830L 570 836.5L 570 843L 583 843L 596 843L 596 849.5L 596 856L 589.5 856L 583 856L 583 869L 583 882L 589.5 882L 596 882L 596 888.5L 596 895L 583 895L 570 895L 570 908L 570 921L 576.5 921L 583 921L 583 927.5L 583 934L 589.5 934L 596 934L 596 927.5L 596 921L 609 921L 622 921L 622 940.5L 622 960L 628.5 960L 635 960L 635 947L 635 934L 641.5 934L 648 934L 648 947L 648 960L 654.5 960L 661 960L 661 947L 661 934L 667.5 934L 674 934L 674 947L 674 960L 680.5 960L 687 960L 687 947L 687 934L 693.5 934L 700 934L 700 947L 700 960L 706.5 960L 713 960L 713 947L 713 934L 719.5 934L 726 934L 726 940.5L 726 947L 732.5 947L 739 947L 739 953.5L 739 960L 752 960L 765 960L 765 947L 765 934L 771.5 934L 778 934L 778 921L 778 908L 784.5 908L 791 908L 791 921L 791 934L 797.5 934L 804 934L 804 940.5L 804 947L 797.5 947L 791 947L 791 953.5L 791 960L 797.5 960L 804 960L 804 953.5L 804 947L 810.5 947L 817 947L 817 940.5L 817 934L 810.5 934L 804 934L 804 921L 804 908L 810.5 908L 817 908L 817 895L 817 882L 823.5 882L 830 882L 830 901.5L 830 921L 843 921L 856 921L 856 927.5L 856 934L 849.5 934L 843 934L 843 947L 843 960L 849.5 960L 856 960L 856 947L 856 934L 869 934L 882 934L 882 927.5L 882 921L 875.5 921L 869 921L 869 914.5L 869 908L 882 908L 895 908L 895 914.5L 895 921L 901.5 921L 908 921L 908 927.5L 908 934L 901.5 934L 895 934L 895 947L 895 960L 901.5 960L 908 960L 908 953.5L 908 947L 927.5 947L 947 947L 947 953.5L 947 960L 953.5 960L 960 960L 960 940.5L 960 921L 953.5 921L 947 921L 947 914.5L 947 908L 953.5 908L 960 908L 960 895L 960 882L 953.5 882L 947 882L 947 869L 947 856L 953.5 856L 960 856L 960 843L 960 830L 953.5 830L 947 830L 947 817L 947 804L 953.5 804L 960 804L 960 784.5L 960 765L 953.5 765L 947 765L 947 758.5L 947 752L 953.5 752L 960 752L 960 739L 960 726L 953.5 726L 947 726L 947 713L 947 700L 953.5 700L 960 700L 960 687L 960 674L 953.5 674L 947 674L 947 687L 947 700L 940.5 700L 934 700L 934 693.5L 934 687L 927.5 687L 921 687L 921 667.5L 921 648L 927.5 648L 934 648L 934 654.5L 934 661L 947 661L 960 661L 960 583L 960 505L 953.5 505L 947 505L 947 492L 947 479L 953.5 479L 960 479L 960 466L 960 453L 953.5 453L 947 453L 947 466L 947 479L 940.5 479L 934 479L 934 472.5L 934 466L 927.5 466L 921 466L 921 453L 921 440L 927.5 440L 934 440L 934 433.5L 934 427L 914.5 427L 895 427L 895 420.5L 895 414L 908 414L 921 414L 921 407.5L 921 401L 914.5 401L 908 401L 908 394.5L 908 388L 901.5 388L 895 388L 895 401L 895 414L 888.5 414L 882 414L 882 401L 882 388L 875.5 388L 869 388L 869 375L 869 362L 875.5 362L 882 362L 882 342.5L 882 323L 875.5 323L 869 323L 869 316.5L 869 310L 875.5 310L 882 310L 882 303.5L 882 297L 888.5 297L 895 297L 895 336L 895 375L 901.5 375L 908 375L 908 368.5L 908 362L 921 362L 934 362L 934 368.5L 934 375L 927.5 375L 921 375L 921 381.5L 921 388L 927.5 388L 934 388L 934 381.5L 934 375L 940.5 375L 947 375L 947 388L 947 401L 953.5 401L 960 401L 960 375L 960 349L 953.5 349L 947 349L 947 355.5L 947 362L 940.5 362L 934 362L 934 355.5L 934 349L 921 349L 908 349L 908 342.5L 908 336L 914.5 336L 921 336L 921 329.5L 921 323L 914.5 323L 908 323L 908 310L 908 297L 914.5 297L 921 297L 921 290.5L 921 284L 940.5 284L 960 284L 960 264.5L 960 245L 947 245L 934 245L 934 251.5L 934 258L 940.5 258L 947 258L 947 264.5L 947 271L 921 271L 895 271L 895 277.5L 895 284L 888.5 284L 882 284L 882 277.5L 882 271L 862.5 271L 843 271L 843 264.5L 843 258L 836.5 258L 830 258L 830 245L 830 232L 836.5 232L 843 232L 843 212.5L 843 193L 849.5 193L 856 193L 856 219L 856 245L 862.5 245L 869 245L 869 251.5L 869 258L 875.5 258L 882 258L 882 251.5L 882 245L 875.5 245L 869 245L 869 225.5L 869 206L 882 206L 895 206L 895 232L 895 258L 908 258L 921 258L 921 251.5L 921 245L 914.5 245L 908 245L 908 238.5L 908 232L 921 232L 934 232L 934 225.5L 934 219L 927.5 219L 921 219L 921 212.5L 921 206L 914.5 206L 908 206L 908 199.5L 908 193L 914.5 193L 921 193L 921 186.5L 921 180L 927.5 180L 934 180L 934 173.5L 934 167L 927.5 167L 921 167L 921 173.5L 921 180L 908 180L 895 180L 895 173.5L 895 167L 888.5 167L 882 167L 882 173.5L 882 180L 888.5 180L 895 180L 895 186.5L 895 193L 875.5 193L 856 193L 856 180L 856 167L 849.5 167L 843 167L 843 160.5L 843 154L 849.5 154L 856 154L 856 147.5L 856 141L 849.5 141L 843 141L 843 147.5L 843 154L 836.5 154L 830 154L 830 134.5L 830 115L 823.5 115L 817 115L 817 121.5L 817 128L 810.5 128L 804 128L 804 134.5L 804 141L 797.5 141L 791 141L 791 128L 791 115L 797.5 115L 804 115L 804 108.5L 804 102L 817 102L 830 102L 830 95.5L 830 89L 817 89L 804 89L 804 76L 804 63L 778 63L 752 63L 752 69.5L 752 76L 758.5 76L 765 76L 765 82.5L 765 89L 758.5 89L 752 89L 752 95.5L 752 102L 739 102L 726 102L 726 95.5L 726 89L 732.5 89L 739 89L 739 76L 739 63L 732.5 63L 726 63L 726 76L 726 89L 719.5 89L 713 89L 713 82.5L 713 76L 706.5 76L 700 76L 700 69.5L 700 63L 693.5 63L 687 63L 687 69.5L 687 76L 693.5 76L 700 76L 700 82.5L 700 89L 680.5 89L 661 89L 661 82.5L 661 76L 667.5 76L 674 76L 674 69.5L 674 63L 661 63L 648 63L 648 76L 648 89L 654.5 89L 661 89L 661 108.5L 661 128L 654.5 128L 648 128L 648 134.5L 648 141L 641.5 141L 635 141L 635 128L 635 115L 641.5 115L 648 115L 648 108.5L 648 102L 635 102L 622 102L 622 95.5L 622 89L 628.5 89L 635 89L 635 76L 635 63L 628.5 63L 622 63L 622 69.5L 622 76L 615.5 76L 609 76L 609 82.5L 609 89L 596 89L 583 89L 583 82.5L 583 76L 576.5 76L 570 76L 570 69.5L 570 63L 544 63L 518 63L 518 69.5L 518 76L 511.5 76L 505 76L 505 82.5L 505 89L 511.5 89L 518 89L 518 95.5L 518 102L 524.5 102L 531 102L 531 95.5L 531 89L 524.5 89L 518 89L 518 82.5L 518 76L 531 76L 544 76L 544 82.5L 544 89L 550.5 89L 557 89L 557 121.5L 557 154L 550.5 154L 544 154L 544 134.5L 544 115L 511.5 115L 479 115L 479 108.5L 479 102L 485.5 102L 492 102L 492 82.5L 492 63L 472.5 63L 453 63L 453 69.5L 453 76L 446.5 76L 440 76L 440 69.5L 440 63L 427 63L 414 63L 414 76L 414 89L 407.5 89L 401 89L 401 95.5L 401 102L 407.5 102L 414 102L 414 108.5L 414 115L 407.5 115L 401 115L 401 121.5L 401 128L 375 128L 349 128L 349 121.5L 349 115L 355.5 115L 362 115L 362 108.5L 362 102L 368.5 102L 375 102L 375 108.5L 375 115L 381.5 115L 388 115L 388 102L 388 89L 381.5 89L 375 89L 375 82.5L 375 76L 381.5 76L 388 76L 388 69.5L 388 63L 355.5 63L 323 63L 323 82.5L 323 102L 316.5 102L 310 102L 310 108.5L 310 115L 303.5 115L 297 115L 297 95.5L 297 76L 303.5 76L 310 76L 310 69.5L 310 63L 303.5 63L 297 63L 297 69.5L 297 76L 277.5 76L 258 76L 258 69.5L 258 63L 251.5 63L 245 63L 245 69.5L 245 76L 251.5 76L 258 76L 258 82.5L 258 89L 251.5 89L 245 89L 245 95.5L 245 102L 238.5 102L 232 102L 232 95.5L 232 89L 219 89L 206 89L 206 95.5L 206 102L 193 102L 180 102L 180 95.5L 180 89L 186.5 89L 193 89L 193 82.5L 193 76L 199.5 76L 206 76L 206 69.5L 206 63L 186.5 63L 167 63L 167 69.5zM 362 89L 362 102L 349 102L 336 102L 336 89L 336 76L 349 76L 362 76L 362 89zM 479 89L 479 102L 472.5 102L 466 102L 466 108.5L 466 115L 459.5 115L 453 115L 453 121.5L 453 128L 466 128L 479 128L 479 141L 479 154L 472.5 154L 466 154L 466 147.5L 466 141L 459.5 141L 453 141L 453 147.5L 453 154L 446.5 154L 440 154L 440 160.5L 440 167L 433.5 167L 427 167L 427 173.5L 427 180L 440 180L 453 180L 453 199.5L 453 219L 459.5 219L 466 219L 466 212.5L 466 206L 485.5 206L 505 206L 505 193L 505 180L 511.5 180L 518 180L 518 193L 518 206L 524.5 206L 531 206L 531 245L 531 284L 524.5 284L 518 284L 518 290.5L 518 297L 531 297L 544 297L 544 264.5L 544 232L 550.5 232L 557 232L 557 219L 557 206L 550.5 206L 544 206L 544 199.5L 544 193L 557 193L 570 193L 570 186.5L 570 180L 563.5 180L 557 180L 557 167L 557 154L 563.5 154L 570 154L 570 147.5L 570 141L 576.5 141L 583 141L 583 128L 583 115L 576.5 115L 570 115L 570 102L 570 89L 576.5 89L 583 89L 583 102L 583 115L 589.5 115L 596 115L 596 108.5L 596 102L 602.5 102L 609 102L 609 108.5L 609 115L 602.5 115L 596 115L 596 121.5L 596 128L 609 128L 622 128L 622 134.5L 622 141L 628.5 141L 635 141L 635 147.5L 635 154L 628.5 154L 622 154L 622 160.5L 622 167L 615.5 167L 609 167L 609 173.5L 609 180L 622 180L 635 180L 635 199.5L 635 219L 641.5 219L 648 219L 648 225.5L 648 232L 654.5 232L 661 232L 661 219L 661 206L 667.5 206L 674 206L 674 199.5L 674 193L 661 193L 648 193L 648 186.5L 648 180L 654.5 180L 661 180L 661 173.5L 661 167L 654.5 167L 648 167L 648 154L 648 141L 654.5 141L 661 141L 661 147.5L 661 154L 667.5 154L 674 154L 674 147.5L 674 141L 680.5 141L 687 141L 687 121.5L 687 102L 693.5 102L 700 102L 700 95.5L 700 89L 706.5 89L 713 89L 713 108.5L 713 128L 719.5 128L 726 128L 726 134.5L 726 141L 732.5 141L 739 141L 739 128L 739 115L 745.5 115L 752 115L 752 108.5L 752 102L 758.5 102L 765 102L 765 108.5L 765 115L 758.5 115L 752 115L 752 121.5L 752 128L 765 128L 778 128L 778 134.5L 778 141L 784.5 141L 791 141L 791 147.5L 791 154L 797.5 154L 804 154L 804 147.5L 804 141L 810.5 141L 817 141L 817 147.5L 817 154L 823.5 154L 830 154L 830 160.5L 830 167L 836.5 167L 843 167L 843 180L 843 193L 830 193L 817 193L 817 186.5L 817 180L 810.5 180L 804 180L 804 173.5L 804 167L 797.5 167L 791 167L 791 160.5L 791 154L 784.5 154L 778 154L 778 167L 778 180L 784.5 180L 791 180L 791 193L 791 206L 797.5 206L 804 206L 804 212.5L 804 219L 797.5 219L 791 219L 791 238.5L 791 258L 797.5 258L 804 258L 804 264.5L 804 271L 797.5 271L 791 271L 791 264.5L 791 258L 784.5 258L 778 258L 778 277.5L 778 297L 765 297L 752 297L 752 290.5L 752 284L 758.5 284L 765 284L 765 277.5L 765 271L 758.5 271L 752 271L 752 245L 752 219L 739 219L 726 219L 726 232L 726 245L 732.5 245L 739 245L 739 258L 739 271L 732.5 271L 726 271L 726 284L 726 297L 732.5 297L 739 297L 739 303.5L 739 310L 745.5 310L 752 310L 752 316.5L 752 323L 745.5 323L 739 323L 739 342.5L 739 362L 745.5 362L 752 362L 752 368.5L 752 375L 745.5 375L 739 375L 739 401L 739 427L 752 427L 765 427L 765 420.5L 765 414L 758.5 414L 752 414L 752 401L 752 388L 758.5 388L 765 388L 765 375L 765 362L 771.5 362L 778 362L 778 349L 778 336L 771.5 336L 765 336L 765 329.5L 765 323L 771.5 323L 778 323L 778 316.5L 778 310L 784.5 310L 791 310L 791 316.5L 791 323L 804 323L 817 323L 817 316.5L 817 310L 810.5 310L 804 310L 804 303.5L 804 297L 797.5 297L 791 297L 791 290.5L 791 284L 804 284L 817 284L 817 271L 817 258L 823.5 258L 830 258L 830 264.5L 830 271L 836.5 271L 843 271L 843 277.5L 843 284L 862.5 284L 882 284L 882 290.5L 882 297L 869 297L 856 297L 856 316.5L 856 336L 862.5 336L 869 336L 869 349L 869 362L 862.5 362L 856 362L 856 375L 856 388L 849.5 388L 843 388L 843 368.5L 843 349L 849.5 349L 856 349L 856 342.5L 856 336L 849.5 336L 843 336L 843 310L 843 284L 830 284L 817 284L 817 297L 817 310L 823.5 310L 830 310L 830 323L 830 336L 823.5 336L 817 336L 817 349L 817 362L 823.5 362L 830 362L 830 381.5L 830 401L 823.5 401L 817 401L 817 381.5L 817 362L 810.5 362L 804 362L 804 349L 804 336L 797.5 336L 791 336L 791 355.5L 791 375L 784.5 375L 778 375L 778 381.5L 778 388L 784.5 388L 791 388L 791 407.5L 791 427L 797.5 427L 804 427L 804 433.5L 804 440L 797.5 440L 791 440L 791 453L 791 466L 797.5 466L 804 466L 804 479L 804 492L 810.5 492L 817 492L 817 472.5L 817 453L 823.5 453L 830 453L 830 446.5L 830 440L 823.5 440L 817 440L 817 427L 817 414L 823.5 414L 830 414L 830 427L 830 440L 849.5 440L 869 440L 869 433.5L 869 427L 856 427L 843 427L 843 414L 843 401L 849.5 401L 856 401L 856 407.5L 856 414L 869 414L 882 414L 882 420.5L 882 427L 888.5 427L 895 427L 895 446.5L 895 466L 888.5 466L 882 466L 882 472.5L 882 479L 875.5 479L 869 479L 869 472.5L 869 466L 875.5 466L 882 466L 882 459.5L 882 453L 869 453L 856 453L 856 466L 856 479L 849.5 479L 843 479L 843 492L 843 505L 836.5 505L 830 505L 830 498.5L 830 492L 823.5 492L 817 492L 817 505L 817 518L 830 518L 843 518L 843 531L 843 544L 856 544L 869 544L 869 550.5L 869 557L 875.5 557L 882 557L 882 550.5L 882 544L 895 544L 908 544L 908 531L 908 518L 914.5 518L 921 518L 921 505L 921 492L 914.5 492L 908 492L 908 479L 908 466L 914.5 466L 921 466L 921 479L 921 492L 927.5 492L 934 492L 934 498.5L 934 505L 940.5 505L 947 505L 947 511.5L 947 518L 934 518L 921 518L 921 531L 921 544L 927.5 544L 934 544L 934 537.5L 934 531L 940.5 531L 947 531L 947 544L 947 557L 940.5 557L 934 557L 934 570L 934 583L 940.5 583L 947 583L 947 615.5L 947 648L 940.5 648L 934 648L 934 641.5L 934 635L 882 635L 830 635L 830 641.5L 830 648L 823.5 648L 817 648L 817 661L 817 674L 830 674L 843 674L 843 667.5L 843 661L 849.5 661L 856 661L 856 654.5L 856 648L 862.5 648L 869 648L 869 654.5L 869 661L 862.5 661L 856 661L 856 667.5L 856 674L 869 674L 882 674L 882 661L 882 648L 888.5 648L 895 648L 895 654.5L 895 661L 901.5 661L 908 661L 908 674L 908 687L 914.5 687L 921 687L 921 693.5L 921 700L 927.5 700L 934 700L 934 719.5L 934 739L 940.5 739L 947 739L 947 745.5L 947 752L 940.5 752L 934 752L 934 758.5L 934 765L 940.5 765L 947 765L 947 784.5L 947 804L 940.5 804L 934 804L 934 817L 934 830L 940.5 830L 947 830L 947 843L 947 856L 940.5 856L 934 856L 934 869L 934 882L 940.5 882L 947 882L 947 895L 947 908L 940.5 908L 934 908L 934 921L 934 934L 927.5 934L 921 934L 921 895L 921 856L 927.5 856L 934 856L 934 843L 934 830L 927.5 830L 921 830L 921 836.5L 921 843L 908 843L 895 843L 895 836.5L 895 830L 888.5 830L 882 830L 882 836.5L 882 843L 856 843L 830 843L 830 849.5L 830 856L 836.5 856L 843 856L 843 869L 843 882L 836.5 882L 830 882L 830 875.5L 830 869L 817 869L 804 869L 804 862.5L 804 856L 810.5 856L 817 856L 817 849.5L 817 843L 797.5 843L 778 843L 778 849.5L 778 856L 784.5 856L 791 856L 791 862.5L 791 869L 784.5 869L 778 869L 778 888.5L 778 908L 771.5 908L 765 908L 765 914.5L 765 921L 758.5 921L 752 921L 752 914.5L 752 908L 745.5 908L 739 908L 739 921L 739 934L 745.5 934L 752 934L 752 940.5L 752 947L 745.5 947L 739 947L 739 940.5L 739 934L 732.5 934L 726 934L 726 927.5L 726 921L 719.5 921L 713 921L 713 927.5L 713 934L 706.5 934L 700 934L 700 921L 700 908L 693.5 908L 687 908L 687 921L 687 934L 680.5 934L 674 934L 674 921L 674 908L 667.5 908L 661 908L 661 921L 661 934L 654.5 934L 648 934L 648 927.5L 648 921L 641.5 921L 635 921L 635 914.5L 635 908L 648 908L 661 908L 661 895L 661 882L 654.5 882L 648 882L 648 888.5L 648 895L 641.5 895L 635 895L 635 888.5L 635 882L 628.5 882L 622 882L 622 895L 622 908L 615.5 908L 609 908L 609 895L 609 882L 615.5 882L 622 882L 622 875.5L 622 869L 609 869L 596 869L 596 862.5L 596 856L 602.5 856L 609 856L 609 849.5L 609 843L 602.5 843L 596 843L 596 836.5L 596 830L 609 830L 622 830L 622 817L 622 804L 615.5 804L 609 804L 609 791L 609 778L 602.5 778L 596 778L 596 784.5L 596 791L 589.5 791L 583 791L 583 784.5L 583 778L 576.5 778L 570 778L 570 797.5L 570 817L 557 817L 544 817L 544 830L 544 843L 531 843L 518 843L 518 830L 518 817L 511.5 817L 505 817L 505 823.5L 505 830L 498.5 830L 492 830L 492 817L 492 804L 485.5 804L 479 804L 479 810.5L 479 817L 466 817L 453 817L 453 810.5L 453 804L 446.5 804L 440 804L 440 797.5L 440 791L 433.5 791L 427 791L 427 778L 427 765L 420.5 765L 414 765L 414 752L 414 739L 420.5 739L 427 739L 427 732.5L 427 726L 414 726L 401 726L 401 732.5L 401 739L 394.5 739L 388 739L 388 732.5L 388 726L 381.5 726L 375 726L 375 719.5L 375 713L 368.5 713L 362 713L 362 719.5L 362 726L 355.5 726L 349 726L 349 732.5L 349 739L 336 739L 323 739L 323 726L 323 713L 316.5 713L 310 713L 310 719.5L 310 726L 303.5 726L 297 726L 297 713L 297 700L 303.5 700L 310 700L 310 693.5L 310 687L 303.5 687L 297 687L 297 680.5L 297 674L 290.5 674L 284 674L 284 667.5L 284 661L 277.5 661L 271 661L 271 648L 271 635L 264.5 635L 258 635L 258 628.5L 258 622L 264.5 622L 271 622L 271 615.5L 271 609L 264.5 609L 258 609L 258 596L 258 583L 251.5 583L 245 583L 245 589.5L 245 596L 238.5 596L 232 596L 232 583L 232 570L 225.5 570L 219 570L 219 596L 219 622L 225.5 622L 232 622L 232 635L 232 648L 245 648L 258 648L 258 661L 258 674L 264.5 674L 271 674L 271 680.5L 271 687L 264.5 687L 258 687L 258 680.5L 258 674L 245 674L 232 674L 232 680.5L 232 687L 225.5 687L 219 687L 219 680.5L 219 674L 225.5 674L 232 674L 232 661L 232 648L 225.5 648L 219 648L 219 654.5L 219 661L 206 661L 193 661L 193 667.5L 193 674L 186.5 674L 180 674L 180 680.5L 180 687L 186.5 687L 193 687L 193 693.5L 193 700L 186.5 700L 180 700L 180 693.5L 180 687L 154 687L 128 687L 128 674L 128 661L 121.5 661L 115 661L 115 654.5L 115 648L 134.5 648L 154 648L 154 641.5L 154 635L 147.5 635L 141 635L 141 628.5L 141 622L 147.5 622L 154 622L 154 628.5L 154 635L 160.5 635L 167 635L 167 648L 167 661L 173.5 661L 180 661L 180 648L 180 635L 186.5 635L 193 635L 193 641.5L 193 648L 199.5 648L 206 648L 206 641.5L 206 635L 212.5 635L 219 635L 219 628.5L 219 622L 212.5 622L 206 622L 206 615.5L 206 609L 199.5 609L 193 609L 193 615.5L 193 622L 180 622L 167 622L 167 615.5L 167 609L 154 609L 141 609L 141 602.5L 141 596L 128 596L 115 596L 115 583L 115 570L 108.5 570L 102 570L 102 576.5L 102 583L 95.5 583L 89 583L 89 576.5L 89 570L 95.5 570L 102 570L 102 557L 102 544L 95.5 544L 89 544L 89 537.5L 89 531L 82.5 531L 76 531L 76 518L 76 505L 82.5 505L 89 505L 89 492L 89 479L 102 479L 115 479L 115 472.5L 115 466L 95.5 466L 76 466L 76 459.5L 76 453L 82.5 453L 89 453L 89 446.5L 89 440L 95.5 440L 102 440L 102 433.5L 102 427L 95.5 427L 89 427L 89 420.5L 89 414L 82.5 414L 76 414L 76 407.5L 76 401L 89 401L 102 401L 102 407.5L 102 414L 108.5 414L 115 414L 115 440L 115 466L 121.5 466L 128 466L 128 472.5L 128 479L 121.5 479L 115 479L 115 498.5L 115 518L 108.5 518L 102 518L 102 511.5L 102 505L 95.5 505L 89 505L 89 518L 89 531L 102 531L 115 531L 115 550.5L 115 570L 121.5 570L 128 570L 128 576.5L 128 583L 134.5 583L 141 583L 141 576.5L 141 570L 147.5 570L 154 570L 154 563.5L 154 557L 147.5 557L 141 557L 141 550.5L 141 544L 147.5 544L 154 544L 154 550.5L 154 557L 160.5 557L 167 557L 167 550.5L 167 544L 173.5 544L 180 544L 180 557L 180 570L 173.5 570L 167 570L 167 583L 167 596L 173.5 596L 180 596L 180 589.5L 180 583L 186.5 583L 193 583L 193 589.5L 193 596L 199.5 596L 206 596L 206 583L 206 570L 212.5 570L 219 570L 219 557L 219 544L 212.5 544L 206 544L 206 550.5L 206 557L 199.5 557L 193 557L 193 550.5L 193 544L 199.5 544L 206 544L 206 537.5L 206 531L 212.5 531L 219 531L 219 524.5L 219 518L 225.5 518L 232 518L 232 524.5L 232 531L 225.5 531L 219 531L 219 537.5L 219 544L 225.5 544L 232 544L 232 557L 232 570L 245 570L 258 570L 258 557L 258 544L 251.5 544L 245 544L 245 531L 245 518L 251.5 518L 258 518L 258 524.5L 258 531L 264.5 531L 271 531L 271 511.5L 271 492L 277.5 492L 284 492L 284 479L 284 466L 271 466L 258 466L 258 472.5L 258 479L 251.5 479L 245 479L 245 485.5L 245 492L 251.5 492L 258 492L 258 498.5L 258 505L 245 505L 232 505L 232 485.5L 232 466L 225.5 466L 219 466L 219 459.5L 219 453L 225.5 453L 232 453L 232 440L 232 427L 225.5 427L 219 427L 219 420.5L 219 414L 225.5 414L 232 414L 232 407.5L 232 401L 238.5 401L 245 401L 245 407.5L 245 414L 258 414L 271 414L 271 407.5L 271 401L 264.5 401L 258 401L 258 388L 258 375L 251.5 375L 245 375L 245 368.5L 245 362L 232 362L 219 362L 219 355.5L 219 349L 225.5 349L 232 349L 232 342.5L 232 336L 225.5 336L 219 336L 219 329.5L 219 323L 238.5 323L 258 323L 258 316.5L 258 310L 245 310L 232 310L 232 297L 232 284L 258 284L 284 284L 284 271L 284 258L 290.5 258L 297 258L 297 251.5L 297 245L 284 245L 271 245L 271 251.5L 271 258L 264.5 258L 258 258L 258 264.5L 258 271L 251.5 271L 245 271L 245 258L 245 245L 238.5 245L 232 245L 232 258L 232 271L 225.5 271L 219 271L 219 258L 219 245L 225.5 245L 232 245L 232 219L 232 193L 245 193L 258 193L 258 186.5L 258 180L 245 180L 232 180L 232 154L 232 128L 238.5 128L 245 128L 245 115L 245 102L 251.5 102L 258 102L 258 95.5L 258 89L 271 89L 284 89L 284 108.5L 284 128L 290.5 128L 297 128L 297 141L 297 154L 290.5 154L 284 154L 284 160.5L 284 167L 277.5 167L 271 167L 271 160.5L 271 154L 264.5 154L 258 154L 258 141L 258 128L 251.5 128L 245 128L 245 147.5L 245 167L 251.5 167L 258 167L 258 173.5L 258 180L 264.5 180L 271 180L 271 193L 271 206L 264.5 206L 258 206L 258 212.5L 258 219L 264.5 219L 271 219L 271 225.5L 271 232L 284 232L 297 232L 297 238.5L 297 245L 303.5 245L 310 245L 310 225.5L 310 206L 303.5 206L 297 206L 297 212.5L 297 219L 290.5 219L 284 219L 284 199.5L 284 180L 297 180L 310 180L 310 193L 310 206L 323 206L 336 206L 336 199.5L 336 193L 329.5 193L 323 193L 323 186.5L 323 180L 329.5 180L 336 180L 336 173.5L 336 167L 342.5 167L 349 167L 349 160.5L 349 154L 342.5 154L 336 154L 336 147.5L 336 141L 329.5 141L 323 141L 323 147.5L 323 154L 316.5 154L 310 154L 310 134.5L 310 115L 323 115L 336 115L 336 121.5L 336 128L 342.5 128L 349 128L 349 141L 349 154L 355.5 154L 362 154L 362 147.5L 362 141L 368.5 141L 375 141L 375 147.5L 375 154L 381.5 154L 388 154L 388 147.5L 388 141L 394.5 141L 401 141L 401 154L 401 167L 414 167L 427 167L 427 160.5L 427 154L 420.5 154L 414 154L 414 134.5L 414 115L 427 115L 440 115L 440 108.5L 440 102L 446.5 102L 453 102L 453 89L 453 76L 466 76L 479 76L 479 89zM 427 95.5L 427 102L 420.5 102L 414 102L 414 95.5L 414 89L 420.5 89L 427 89L 427 95.5zM 804 95.5L 804 102L 797.5 102L 791 102L 791 95.5L 791 89L 797.5 89L 804 89L 804 95.5zM 531 147.5L 531 167L 511.5 167L 492 167L 492 147.5L 492 128L 511.5 128L 531 128L 531 147.5zM 219 147.5L 219 154L 212.5 154L 206 154L 206 147.5L 206 141L 212.5 141L 219 141L 219 147.5zM 492 186.5L 492 193L 479 193L 466 193L 466 186.5L 466 180L 479 180L 492 180L 492 186.5zM 115 225.5L 115 232L 102 232L 89 232L 89 238.5L 89 245L 95.5 245L 102 245L 102 251.5L 102 258L 108.5 258L 115 258L 115 251.5L 115 245L 121.5 245L 128 245L 128 251.5L 128 258L 141 258L 154 258L 154 251.5L 154 245L 147.5 245L 141 245L 141 238.5L 141 232L 147.5 232L 154 232L 154 238.5L 154 245L 160.5 245L 167 245L 167 238.5L 167 232L 173.5 232L 180 232L 180 238.5L 180 245L 173.5 245L 167 245L 167 258L 167 271L 147.5 271L 128 271L 128 264.5L 128 258L 121.5 258L 115 258L 115 271L 115 284L 134.5 284L 154 284L 154 290.5L 154 297L 167 297L 180 297L 180 284L 180 271L 186.5 271L 193 271L 193 284L 193 297L 186.5 297L 180 297L 180 303.5L 180 310L 193 310L 206 310L 206 297L 206 284L 212.5 284L 219 284L 219 297L 219 310L 212.5 310L 206 310L 206 329.5L 206 349L 199.5 349L 193 349L 193 355.5L 193 362L 180 362L 167 362L 167 368.5L 167 375L 154 375L 141 375L 141 368.5L 141 362L 147.5 362L 154 362L 154 355.5L 154 349L 141 349L 128 349L 128 336L 128 323L 121.5 323L 115 323L 115 316.5L 115 310L 108.5 310L 102 310L 102 316.5L 102 323L 95.5 323L 89 323L 89 303.5L 89 284L 95.5 284L 102 284L 102 277.5L 102 271L 95.5 271L 89 271L 89 258L 89 245L 82.5 245L 76 245L 76 238.5L 76 232L 82.5 232L 89 232L 89 225.5L 89 219L 102 219L 115 219L 115 225.5zM 830 225.5L 830 232L 823.5 232L 817 232L 817 225.5L 817 219L 823.5 219L 830 219L 830 225.5zM 154 472.5L 154 479L 147.5 479L 141 479L 141 472.5L 141 466L 147.5 466L 154 466L 154 472.5zM 167 511.5L 167 531L 147.5 531L 128 531L 128 511.5L 128 492L 147.5 492L 167 492L 167 511.5zM 895 511.5L 895 531L 875.5 531L 856 531L 856 511.5L 856 492L 875.5 492L 895 492L 895 511.5zM 115 680.5L 115 687L 108.5 687L 102 687L 102 680.5L 102 674L 108.5 674L 115 674L 115 680.5zM 167 745.5L 167 752L 160.5 752L 154 752L 154 758.5L 154 765L 147.5 765L 141 765L 141 758.5L 141 752L 147.5 752L 154 752L 154 745.5L 154 739L 160.5 739L 167 739L 167 745.5zM 245 745.5L 245 752L 238.5 752L 232 752L 232 745.5L 232 739L 238.5 739L 245 739L 245 745.5zM 102 758.5L 102 765L 95.5 765L 89 765L 89 758.5L 89 752L 95.5 752L 102 752L 102 758.5zM 89 797.5L 89 804L 95.5 804L 102 804L 102 810.5L 102 817L 95.5 817L 89 817L 89 810.5L 89 804L 82.5 804L 76 804L 76 797.5L 76 791L 82.5 791L 89 791L 89 797.5zM 596 810.5L 596 817L 589.5 817L 583 817L 583 810.5L 583 804L 589.5 804L 596 804L 596 810.5zM 336 823.5L 336 830L 342.5 830L 349 830L 349 843L 349 856L 342.5 856L 336 856L 336 862.5L 336 869L 329.5 869L 323 869L 323 875.5L 323 882L 336 882L 349 882L 349 888.5L 349 895L 362 895L 375 895L 375 914.5L 375 934L 362 934L 349 934L 349 940.5L 349 947L 342.5 947L 336 947L 336 940.5L 336 934L 342.5 934L 349 934L 349 927.5L 349 921L 355.5 921L 362 921L 362 914.5L 362 908L 342.5 908L 323 908L 323 895L 323 882L 310 882L 297 882L 297 875.5L 297 869L 290.5 869L 284 869L 284 862.5L 284 856L 297 856L 310 856L 310 862.5L 310 869L 316.5 869L 323 869L 323 843L 323 817L 329.5 817L 336 817L 336 823.5zM 531 875.5L 531 895L 511.5 895L 492 895L 492 875.5L 492 856L 511.5 856L 531 856L 531 875.5zM 557 869L 557 882L 550.5 882L 544 882L 544 869L 544 856L 550.5 856L 557 856L 557 869zM 895 875.5L 895 895L 875.5 895L 856 895L 856 875.5L 856 856L 875.5 856L 895 856L 895 875.5zM 479 882L 479 895L 472.5 895L 466 895L 466 882L 466 869L 472.5 869L 479 869L 479 882zM 232 895L 232 908L 225.5 908L 219 908L 219 901.5L 219 895L 212.5 895L 206 895L 206 888.5L 206 882L 219 882L 232 882L 232 895zM 804 895L 804 908L 797.5 908L 791 908L 791 895L 791 882L 797.5 882L 804 882L 804 895zM 466 914.5L 466 921L 459.5 921L 453 921L 453 914.5L 453 908L 459.5 908L 466 908L 466 914.5zM 323 927.5L 323 934L 316.5 934L 310 934L 310 927.5L 310 921L 316.5 921L 323 921L 323 927.5zM 440 934L 440 947L 433.5 947L 427 947L 427 934L 427 921L 433.5 921L 440 921L 440 934z"/>
<path style="stroke:none; fill:#000000" d="M 258 108.5L 258 115L 264.5 115L 271 115L 271 108.5L 271 102L 264.5 102L 258 102L 258 108.5z"/>
<path style="stroke:none; fill:#000000" d="M 271 141L 271 154L 277.5 154L 284 154L 284 141L 284 128L 277.5 128L 271 128L 271 141z"/>
<path style="stroke:none; fill:#000000" d="M 427 141L 427 154L 433.5 154L 440 154L 440 147.5L 440 141L 446.5 141L 453 141L 453 134.5L 453 128L 440 128L 427 128L 427 141z"/>
<path style="stroke:none; fill:#000000" d="M 700 134.5L 700 141L 693.5 141L 687 141L 687 154L 687 167L 693.5 167L 700 167L 700 173.5L 700 180L 693.5 180L 687 180L 687 193L 687 206L 719.5 206L 752 206L 752 212.5L 752 219L 758.5 219L 765 219L 765 212.5L 765 206L 758.5 206L 752 206L 752 199.5L 752 193L 758.5 193L 765 193L 765 173.5L 765 154L 771.5 154L 778 154L 778 147.5L 778 141L 771.5 141L 765 141L 765 147.5L 765 154L 758.5 154L 752 154L 752 147.5L 752 141L 745.5 141L 739 141L 739 147.5L 739 154L 732.5 154L 726 154L 726 147.5L 726 141L 719.5 141L 713 141L 713 134.5L 713 128L 706.5 128L 700 128L 700 134.5zM 713 147.5L 713 154L 719.5 154L 726 154L 726 173.5L 726 193L 713 193L 700 193L 700 186.5L 700 180L 706.5 180L 713 180L 713 173.5L 713 167L 706.5 167L 700 167L 700 154L 700 141L 706.5 141L 713 141L 713 147.5zM 752 160.5L 752 167L 745.5 167L 739 167L 739 160.5L 739 154L 745.5 154L 752 154L 752 160.5zM 752 186.5L 752 193L 745.5 193L 739 193L 739 186.5L 739 180L 745.5 180L 752 180L 752 186.5z"/>
<path style="stroke:none; fill:#000000" d="M 583 147.5L 583 154L 589.5 154L 596 154L 596 147.5L 596 141L 589.5 141L 583 141L 583 147.5z"/>
<path style="stroke:none; fill:#000000" d="M 609 147.5L 609 154L 615.5 154L 622 154L 622 147.5L 622 141L 615.5 141L 609 141L 609 147.5z"/>
<path style="stroke:none; fill:#000000" d="M 804 160.5L 804 167L 810.5 167L 817 167L 817 160.5L 817 154L 810.5 154L 804 154L 804 160.5z"/>
<path style="stroke:none; fill:#000000" d="M 362 180L 362 193L 355.5 193L 349 193L 349 186.5L 349 180L 342.5 180L 336 180L 336 186.5L 336 193L 342.5 193L 349 193L 349 199.5L 349 206L 342.5 206L 336 206L 336 212.5L 336 219L 342.5 219L 349 219L 349 225.5L 349 232L 336 232L 323 232L 323 238.5L 323 245L 329.5 245L 336 245L 336 251.5L 336 258L 329.5 258L 323 258L 323 264.5L 323 271L 316.5 271L 310 271L 310 264.5L 310 258L 303.5 258L 297 258L 297 264.5L 297 271L 303.5 271L 310 271L 310 284L 310 297L 303.5 297L 297 297L 297 290.5L 297 284L 290.5 284L 284 284L 284 290.5L 284 297L 277.5 297L 271 297L 271 323L 271 349L 264.5 349L 258 349L 258 342.5L 258 336L 251.5 336L 245 336L 245 342.5L 245 349L 251.5 349L 258 349L 258 362L 258 375L 264.5 375L 271 375L 271 388L 271 401L 277.5 401L 284 401L 284 407.5L 284 414L 277.5 414L 271 414L 271 427L 271 440L 264.5 440L 258 440L 258 433.5L 258 427L 251.5 427L 245 427L 245 433.5L 245 440L 251.5 440L 258 440L 258 446.5L 258 453L 264.5 453L 271 453L 271 446.5L 271 440L 277.5 440L 284 440L 284 433.5L 284 427L 290.5 427L 297 427L 297 433.5L 297 440L 303.5 440L 310 440L 310 446.5L 310 453L 303.5 453L 297 453L 297 459.5L 297 466L 303.5 466L 310 466L 310 479L 310 492L 329.5 492L 349 492L 349 479L 349 466L 355.5 466L 362 466L 362 472.5L 362 479L 375 479L 388 479L 388 466L 388 453L 375 453L 362 453L 362 446.5L 362 440L 368.5 440L 375 440L 375 433.5L 375 427L 394.5 427L 414 427L 414 433.5L 414 440L 407.5 440L 401 440L 401 446.5L 401 453L 407.5 453L 414 453L 414 459.5L 414 466L 420.5 466L 427 466L 427 459.5L 427 453L 420.5 453L 414 453L 414 446.5L 414 440L 427 440L 440 440L 440 446.5L 440 453L 459.5 453L 479 453L 479 459.5L 479 466L 466 466L 453 466L 453 472.5L 453 479L 459.5 479L 466 479L 466 492L 466 505L 459.5 505L 453 505L 453 518L 453 531L 459.5 531L 466 531L 466 537.5L 466 544L 459.5 544L 453 544L 453 557L 453 570L 446.5 570L 440 570L 440 576.5L 440 583L 433.5 583L 427 583L 427 570L 427 557L 433.5 557L 440 557L 440 550.5L 440 544L 433.5 544L 427 544L 427 537.5L 427 531L 433.5 531L 440 531L 440 524.5L 440 518L 433.5 518L 427 518L 427 511.5L 427 505L 433.5 505L 440 505L 440 492L 440 479L 427 479L 414 479L 414 485.5L 414 492L 401 492L 388 492L 388 498.5L 388 505L 381.5 505L 375 505L 375 498.5L 375 492L 368.5 492L 362 492L 362 498.5L 362 505L 355.5 505L 349 505L 349 511.5L 349 518L 355.5 518L 362 518L 362 531L 362 544L 375 544L 388 544L 388 550.5L 388 557L 375 557L 362 557L 362 563.5L 362 570L 349 570L 336 570L 336 563.5L 336 557L 342.5 557L 349 557L 349 544L 349 531L 342.5 531L 336 531L 336 524.5L 336 518L 329.5 518L 323 518L 323 524.5L 323 531L 329.5 531L 336 531L 336 544L 336 557L 329.5 557L 323 557L 323 550.5L 323 544L 316.5 544L 310 544L 310 550.5L 310 557L 303.5 557L 297 557L 297 544L 297 531L 290.5 531L 284 531L 284 537.5L 284 544L 277.5 544L 271 544L 271 557L 271 570L 277.5 570L 284 570L 284 563.5L 284 557L 290.5 557L 297 557L 297 570L 297 583L 284 583L 271 583L 271 589.5L 271 596L 277.5 596L 284 596L 284 609L 284 622L 277.5 622L 271 622L 271 628.5L 271 635L 277.5 635L 284 635L 284 641.5L 284 648L 290.5 648L 297 648L 297 641.5L 297 635L 290.5 635L 284 635L 284 628.5L 284 622L 297 622L 310 622L 310 635L 310 648L 316.5 648L 323 648L 323 661L 323 674L 329.5 674L 336 674L 336 680.5L 336 687L 329.5 687L 323 687L 323 693.5L 323 700L 329.5 700L 336 700L 336 706.5L 336 713L 342.5 713L 349 713L 349 706.5L 349 700L 342.5 700L 336 700L 336 693.5L 336 687L 368.5 687L 401 687L 401 693.5L 401 700L 394.5 700L 388 700L 388 713L 388 726L 394.5 726L 401 726L 401 719.5L 401 713L 414 713L 427 713L 427 706.5L 427 700L 433.5 700L 440 700L 440 693.5L 440 687L 427 687L 414 687L 414 680.5L 414 674L 420.5 674L 427 674L 427 667.5L 427 661L 414 661L 401 661L 401 667.5L 401 674L 388 674L 375 674L 375 667.5L 375 661L 368.5 661L 362 661L 362 654.5L 362 648L 368.5 648L 375 648L 375 641.5L 375 635L 381.5 635L 388 635L 388 641.5L 388 648L 420.5 648L 453 648L 453 667.5L 453 687L 466 687L 479 687L 479 693.5L 479 700L 466 700L 453 700L 453 713L 453 726L 446.5 726L 440 726L 440 732.5L 440 739L 433.5 739L 427 739L 427 745.5L 427 752L 453 752L 479 752L 479 758.5L 479 765L 466 765L 453 765L 453 784.5L 453 804L 466 804L 479 804L 479 797.5L 479 791L 485.5 791L 492 791L 492 784.5L 492 778L 498.5 778L 505 778L 505 784.5L 505 791L 511.5 791L 518 791L 518 804L 518 817L 524.5 817L 531 817L 531 804L 531 791L 537.5 791L 544 791L 544 797.5L 544 804L 550.5 804L 557 804L 557 797.5L 557 791L 550.5 791L 544 791L 544 784.5L 544 778L 557 778L 570 778L 570 765L 570 752L 576.5 752L 583 752L 583 765L 583 778L 589.5 778L 596 778L 596 765L 596 752L 602.5 752L 609 752L 609 765L 609 778L 615.5 778L 622 778L 622 791L 622 804L 628.5 804L 635 804L 635 817L 635 830L 641.5 830L 648 830L 648 843L 648 856L 654.5 856L 661 856L 661 843L 661 830L 667.5 830L 674 830L 674 823.5L 674 817L 680.5 817L 687 817L 687 823.5L 687 830L 693.5 830L 700 830L 700 836.5L 700 843L 693.5 843L 687 843L 687 849.5L 687 856L 680.5 856L 674 856L 674 862.5L 674 869L 667.5 869L 661 869L 661 875.5L 661 882L 667.5 882L 674 882L 674 888.5L 674 895L 687 895L 700 895L 700 869L 700 843L 706.5 843L 713 843L 713 823.5L 713 804L 706.5 804L 700 804L 700 797.5L 700 791L 706.5 791L 713 791L 713 784.5L 713 778L 719.5 778L 726 778L 726 771.5L 726 765L 732.5 765L 739 765L 739 771.5L 739 778L 745.5 778L 752 778L 752 765L 752 752L 758.5 752L 765 752L 765 765L 765 778L 771.5 778L 778 778L 778 784.5L 778 791L 771.5 791L 765 791L 765 797.5L 765 804L 771.5 804L 778 804L 778 797.5L 778 791L 791 791L 804 791L 804 797.5L 804 804L 797.5 804L 791 804L 791 817L 791 830L 817 830L 843 830L 843 823.5L 843 817L 849.5 817L 856 817L 856 810.5L 856 804L 849.5 804L 843 804L 843 797.5L 843 791L 869 791L 895 791L 895 797.5L 895 804L 882 804L 869 804L 869 810.5L 869 817L 882 817L 895 817L 895 810.5L 895 804L 901.5 804L 908 804L 908 797.5L 908 791L 914.5 791L 921 791L 921 797.5L 921 804L 927.5 804L 934 804L 934 797.5L 934 791L 927.5 791L 921 791L 921 771.5L 921 752L 927.5 752L 934 752L 934 745.5L 934 739L 927.5 739L 921 739L 921 719.5L 921 700L 914.5 700L 908 700L 908 719.5L 908 739L 914.5 739L 921 739L 921 745.5L 921 752L 901.5 752L 882 752L 882 745.5L 882 739L 888.5 739L 895 739L 895 732.5L 895 726L 888.5 726L 882 726L 882 713L 882 700L 888.5 700L 895 700L 895 687L 895 674L 888.5 674L 882 674L 882 680.5L 882 687L 875.5 687L 869 687L 869 726L 869 765L 862.5 765L 856 765L 856 745.5L 856 726L 849.5 726L 843 726L 843 719.5L 843 713L 849.5 713L 856 713L 856 700L 856 687L 836.5 687L 817 687L 817 693.5L 817 700L 823.5 700L 830 700L 830 706.5L 830 713L 823.5 713L 817 713L 817 719.5L 817 726L 810.5 726L 804 726L 804 706.5L 804 687L 791 687L 778 687L 778 693.5L 778 700L 784.5 700L 791 700L 791 706.5L 791 713L 771.5 713L 752 713L 752 706.5L 752 700L 758.5 700L 765 700L 765 693.5L 765 687L 758.5 687L 752 687L 752 693.5L 752 700L 745.5 700L 739 700L 739 713L 739 726L 745.5 726L 752 726L 752 732.5L 752 739L 739 739L 726 739L 726 752L 726 765L 713 765L 700 765L 700 758.5L 700 752L 693.5 752L 687 752L 687 765L 687 778L 693.5 778L 700 778L 700 784.5L 700 791L 687 791L 674 791L 674 804L 674 817L 661 817L 648 817L 648 804L 648 791L 654.5 791L 661 791L 661 778L 661 765L 654.5 765L 648 765L 648 752L 648 739L 654.5 739L 661 739L 661 732.5L 661 726L 654.5 726L 648 726L 648 706.5L 648 687L 654.5 687L 661 687L 661 680.5L 661 674L 654.5 674L 648 674L 648 667.5L 648 661L 654.5 661L 661 661L 661 641.5L 661 622L 667.5 622L 674 622L 674 628.5L 674 635L 680.5 635L 687 635L 687 654.5L 687 674L 680.5 674L 674 674L 674 680.5L 674 687L 680.5 687L 687 687L 687 706.5L 687 726L 680.5 726L 674 726L 674 732.5L 674 739L 693.5 739L 713 739L 713 732.5L 713 726L 706.5 726L 700 726L 700 713L 700 700L 706.5 700L 713 700L 713 687L 713 674L 719.5 674L 726 674L 726 680.5L 726 687L 732.5 687L 739 687L 739 680.5L 739 674L 732.5 674L 726 674L 726 667.5L 726 661L 719.5 661L 713 661L 713 667.5L 713 674L 706.5 674L 700 674L 700 661L 700 648L 706.5 648L 713 648L 713 628.5L 713 609L 726 609L 739 609L 739 615.5L 739 622L 745.5 622L 752 622L 752 609L 752 596L 758.5 596L 765 596L 765 583L 765 570L 771.5 570L 778 570L 778 583L 778 596L 784.5 596L 791 596L 791 609L 791 622L 784.5 622L 778 622L 778 615.5L 778 609L 771.5 609L 765 609L 765 615.5L 765 622L 771.5 622L 778 622L 778 628.5L 778 635L 784.5 635L 791 635L 791 628.5L 791 622L 797.5 622L 804 622L 804 635L 804 648L 797.5 648L 791 648L 791 661L 791 674L 797.5 674L 804 674L 804 661L 804 648L 810.5 648L 817 648L 817 635L 817 622L 830 622L 843 622L 843 615.5L 843 609L 849.5 609L 856 609L 856 615.5L 856 622L 862.5 622L 869 622L 869 615.5L 869 609L 875.5 609L 882 609L 882 615.5L 882 622L 888.5 622L 895 622L 895 615.5L 895 609L 901.5 609L 908 609L 908 615.5L 908 622L 914.5 622L 921 622L 921 615.5L 921 609L 914.5 609L 908 609L 908 602.5L 908 596L 901.5 596L 895 596L 895 583L 895 570L 908 570L 921 570L 921 557L 921 544L 914.5 544L 908 544L 908 550.5L 908 557L 895 557L 882 557L 882 570L 882 583L 875.5 583L 869 583L 869 596L 869 609L 862.5 609L 856 609L 856 602.5L 856 596L 849.5 596L 843 596L 843 589.5L 843 583L 849.5 583L 856 583L 856 576.5L 856 570L 849.5 570L 843 570L 843 563.5L 843 557L 830 557L 817 557L 817 537.5L 817 518L 810.5 518L 804 518L 804 505L 804 492L 797.5 492L 791 492L 791 479L 791 466L 784.5 466L 778 466L 778 453L 778 440L 771.5 440L 765 440L 765 453L 765 466L 758.5 466L 752 466L 752 453L 752 440L 745.5 440L 739 440L 739 453L 739 466L 732.5 466L 726 466L 726 453L 726 440L 719.5 440L 713 440L 713 433.5L 713 427L 719.5 427L 726 427L 726 420.5L 726 414L 713 414L 700 414L 700 407.5L 700 401L 713 401L 726 401L 726 394.5L 726 388L 719.5 388L 713 388L 713 375L 713 362L 719.5 362L 726 362L 726 355.5L 726 349L 719.5 349L 713 349L 713 323L 713 297L 706.5 297L 700 297L 700 290.5L 700 284L 693.5 284L 687 284L 687 297L 687 310L 693.5 310L 700 310L 700 316.5L 700 323L 687 323L 674 323L 674 336L 674 349L 680.5 349L 687 349L 687 355.5L 687 362L 693.5 362L 700 362L 700 368.5L 700 375L 687 375L 674 375L 674 381.5L 674 388L 680.5 388L 687 388L 687 394.5L 687 401L 680.5 401L 674 401L 674 407.5L 674 414L 680.5 414L 687 414L 687 446.5L 687 479L 700 479L 713 479L 713 472.5L 713 466L 719.5 466L 726 466L 726 479L 726 492L 732.5 492L 739 492L 739 505L 739 518L 732.5 518L 726 518L 726 524.5L 726 531L 732.5 531L 739 531L 739 550.5L 739 570L 745.5 570L 752 570L 752 576.5L 752 583L 739 583L 726 583L 726 589.5L 726 596L 719.5 596L 713 596L 713 583L 713 570L 719.5 570L 726 570L 726 563.5L 726 557L 713 557L 700 557L 700 550.5L 700 544L 706.5 544L 713 544L 713 537.5L 713 531L 706.5 531L 700 531L 700 537.5L 700 544L 693.5 544L 687 544L 687 550.5L 687 557L 693.5 557L 700 557L 700 570L 700 583L 693.5 583L 687 583L 687 576.5L 687 570L 680.5 570L 674 570L 674 557L 674 544L 667.5 544L 661 544L 661 537.5L 661 531L 667.5 531L 674 531L 674 518L 674 505L 661 505L 648 505L 648 498.5L 648 492L 654.5 492L 661 492L 661 485.5L 661 479L 654.5 479L 648 479L 648 472.5L 648 466L 661 466L 674 466L 674 459.5L 674 453L 667.5 453L 661 453L 661 446.5L 661 440L 648 440L 635 440L 635 446.5L 635 453L 641.5 453L 648 453L 648 459.5L 648 466L 641.5 466L 635 466L 635 472.5L 635 479L 641.5 479L 648 479L 648 485.5L 648 492L 641.5 492L 635 492L 635 505L 635 518L 628.5 518L 622 518L 622 524.5L 622 531L 635 531L 648 531L 648 537.5L 648 544L 641.5 544L 635 544L 635 557L 635 570L 654.5 570L 674 570L 674 576.5L 674 583L 680.5 583L 687 583L 687 602.5L 687 622L 680.5 622L 674 622L 674 615.5L 674 609L 661 609L 648 609L 648 602.5L 648 596L 654.5 596L 661 596L 661 589.5L 661 583L 648 583L 635 583L 635 589.5L 635 596L 622 596L 609 596L 609 583L 609 570L 615.5 570L 622 570L 622 563.5L 622 557L 609 557L 596 557L 596 550.5L 596 544L 602.5 544L 609 544L 609 537.5L 609 531L 596 531L 583 531L 583 524.5L 583 518L 596 518L 609 518L 609 511.5L 609 505L 602.5 505L 596 505L 596 498.5L 596 492L 589.5 492L 583 492L 583 505L 583 518L 576.5 518L 570 518L 570 524.5L 570 531L 576.5 531L 583 531L 583 537.5L 583 544L 576.5 544L 570 544L 570 550.5L 570 557L 557 557L 544 557L 544 563.5L 544 570L 557 570L 570 570L 570 563.5L 570 557L 576.5 557L 583 557L 583 563.5L 583 570L 589.5 570L 596 570L 596 576.5L 596 583L 589.5 583L 583 583L 583 602.5L 583 622L 589.5 622L 596 622L 596 628.5L 596 635L 589.5 635L 583 635L 583 641.5L 583 648L 576.5 648L 570 648L 570 654.5L 570 661L 576.5 661L 583 661L 583 667.5L 583 674L 576.5 674L 570 674L 570 680.5L 570 687L 576.5 687L 583 687L 583 706.5L 583 726L 563.5 726L 544 726L 544 719.5L 544 713L 557 713L 570 713L 570 706.5L 570 700L 563.5 700L 557 700L 557 687L 557 674L 544 674L 531 674L 531 667.5L 531 661L 524.5 661L 518 661L 518 654.5L 518 648L 505 648L 492 648L 492 628.5L 492 609L 498.5 609L 505 609L 505 622L 505 635L 511.5 635L 518 635L 518 622L 518 609L 524.5 609L 531 609L 531 615.5L 531 622L 537.5 622L 544 622L 544 628.5L 544 635L 537.5 635L 531 635L 531 641.5L 531 648L 537.5 648L 544 648L 544 641.5L 544 635L 550.5 635L 557 635L 557 628.5L 557 622L 563.5 622L 570 622L 570 615.5L 570 609L 550.5 609L 531 609L 531 602.5L 531 596L 544 596L 557 596L 557 589.5L 557 583L 537.5 583L 518 583L 518 570L 518 557L 524.5 557L 531 557L 531 550.5L 531 544L 544 544L 557 544L 557 537.5L 557 531L 550.5 531L 544 531L 544 505L 544 479L 550.5 479L 557 479L 557 472.5L 557 466L 544 466L 531 466L 531 472.5L 531 479L 518 479L 505 479L 505 453L 505 427L 511.5 427L 518 427L 518 433.5L 518 440L 524.5 440L 531 440L 531 446.5L 531 453L 557 453L 583 453L 583 459.5L 583 466L 576.5 466L 570 466L 570 472.5L 570 479L 589.5 479L 609 479L 609 472.5L 609 466L 615.5 466L 622 466L 622 459.5L 622 453L 615.5 453L 609 453L 609 446.5L 609 440L 602.5 440L 596 440L 596 433.5L 596 427L 602.5 427L 609 427L 609 420.5L 609 414L 615.5 414L 622 414L 622 407.5L 622 401L 628.5 401L 635 401L 635 407.5L 635 414L 641.5 414L 648 414L 648 420.5L 648 427L 654.5 427L 661 427L 661 414L 661 401L 654.5 401L 648 401L 648 388L 648 375L 654.5 375L 661 375L 661 368.5L 661 362L 654.5 362L 648 362L 648 342.5L 648 323L 654.5 323L 661 323L 661 316.5L 661 310L 667.5 310L 674 310L 674 303.5L 674 297L 667.5 297L 661 297L 661 303.5L 661 310L 654.5 310L 648 310L 648 297L 648 284L 654.5 284L 661 284L 661 271L 661 258L 667.5 258L 674 258L 674 251.5L 674 245L 680.5 245L 687 245L 687 258L 687 271L 700 271L 713 271L 713 264.5L 713 258L 719.5 258L 726 258L 726 251.5L 726 245L 713 245L 700 245L 700 238.5L 700 232L 706.5 232L 713 232L 713 225.5L 713 219L 700 219L 687 219L 687 225.5L 687 232L 680.5 232L 674 232L 674 238.5L 674 245L 667.5 245L 661 245L 661 251.5L 661 258L 654.5 258L 648 258L 648 245L 648 232L 641.5 232L 635 232L 635 245L 635 258L 628.5 258L 622 258L 622 271L 622 284L 615.5 284L 609 284L 609 271L 609 258L 602.5 258L 596 258L 596 245L 596 232L 589.5 232L 583 232L 583 225.5L 583 219L 576.5 219L 570 219L 570 225.5L 570 232L 563.5 232L 557 232L 557 245L 557 258L 563.5 258L 570 258L 570 264.5L 570 271L 563.5 271L 557 271L 557 277.5L 557 284L 570 284L 583 284L 583 297L 583 310L 589.5 310L 596 310L 596 316.5L 596 323L 602.5 323L 609 323L 609 316.5L 609 310L 615.5 310L 622 310L 622 329.5L 622 349L 615.5 349L 609 349L 609 342.5L 609 336L 596 336L 583 336L 583 342.5L 583 349L 596 349L 609 349L 609 355.5L 609 362L 602.5 362L 596 362L 596 368.5L 596 375L 589.5 375L 583 375L 583 381.5L 583 388L 576.5 388L 570 388L 570 394.5L 570 401L 563.5 401L 557 401L 557 394.5L 557 388L 550.5 388L 544 388L 544 381.5L 544 375L 550.5 375L 557 375L 557 362L 557 349L 563.5 349L 570 349L 570 342.5L 570 336L 563.5 336L 557 336L 557 323L 557 310L 563.5 310L 570 310L 570 303.5L 570 297L 563.5 297L 557 297L 557 303.5L 557 310L 544 310L 531 310L 531 329.5L 531 349L 524.5 349L 518 349L 518 362L 518 375L 511.5 375L 505 375L 505 355.5L 505 336L 498.5 336L 492 336L 492 342.5L 492 349L 485.5 349L 479 349L 479 336L 479 323L 498.5 323L 518 323L 518 316.5L 518 310L 511.5 310L 505 310L 505 297L 505 284L 498.5 284L 492 284L 492 297L 492 310L 485.5 310L 479 310L 479 290.5L 479 271L 492 271L 505 271L 505 251.5L 505 232L 511.5 232L 518 232L 518 219L 518 206L 511.5 206L 505 206L 505 212.5L 505 219L 498.5 219L 492 219L 492 232L 492 245L 485.5 245L 479 245L 479 258L 479 271L 472.5 271L 466 271L 466 251.5L 466 232L 472.5 232L 479 232L 479 225.5L 479 219L 472.5 219L 466 219L 466 225.5L 466 232L 453 232L 440 232L 440 225.5L 440 219L 433.5 219L 427 219L 427 206L 427 193L 420.5 193L 414 193L 414 206L 414 219L 420.5 219L 427 219L 427 232L 427 245L 420.5 245L 414 245L 414 251.5L 414 258L 407.5 258L 401 258L 401 245L 401 232L 394.5 232L 388 232L 388 238.5L 388 245L 381.5 245L 375 245L 375 258L 375 271L 381.5 271L 388 271L 388 264.5L 388 258L 394.5 258L 401 258L 401 271L 401 284L 388 284L 375 284L 375 290.5L 375 297L 362 297L 349 297L 349 290.5L 349 284L 355.5 284L 362 284L 362 277.5L 362 271L 355.5 271L 349 271L 349 277.5L 349 284L 342.5 284L 336 284L 336 271L 336 258L 342.5 258L 349 258L 349 251.5L 349 245L 355.5 245L 362 245L 362 225.5L 362 206L 375 206L 388 206L 388 193L 388 180L 381.5 180L 375 180L 375 173.5L 375 167L 368.5 167L 362 167L 362 180zM 583 245L 583 258L 589.5 258L 596 258L 596 271L 596 284L 589.5 284L 583 284L 583 271L 583 258L 576.5 258L 570 258L 570 245L 570 232L 576.5 232L 583 232L 583 245zM 453 258L 453 271L 459.5 271L 466 271L 466 284L 466 297L 459.5 297L 453 297L 453 303.5L 453 310L 446.5 310L 440 310L 440 316.5L 440 323L 433.5 323L 427 323L 427 316.5L 427 310L 414 310L 401 310L 401 316.5L 401 323L 407.5 323L 414 323L 414 336L 414 349L 394.5 349L 375 349L 375 355.5L 375 362L 394.5 362L 414 362L 414 368.5L 414 375L 407.5 375L 401 375L 401 381.5L 401 388L 414 388L 427 388L 427 368.5L 427 349L 440 349L 453 349L 453 362L 453 375L 466 375L 479 375L 479 368.5L 479 362L 472.5 362L 466 362L 466 355.5L 466 349L 472.5 349L 479 349L 479 355.5L 479 362L 485.5 362L 492 362L 492 368.5L 492 375L 498.5 375L 505 375L 505 381.5L 505 388L 511.5 388L 518 388L 518 381.5L 518 375L 524.5 375L 531 375L 531 381.5L 531 388L 537.5 388L 544 388L 544 394.5L 544 401L 531 401L 518 401L 518 407.5L 518 414L 524.5 414L 531 414L 531 420.5L 531 427L 524.5 427L 518 427L 518 420.5L 518 414L 511.5 414L 505 414L 505 401L 505 388L 498.5 388L 492 388L 492 394.5L 492 401L 485.5 401L 479 401L 479 414L 479 427L 485.5 427L 492 427L 492 440L 492 453L 485.5 453L 479 453L 479 440L 479 427L 472.5 427L 466 427L 466 414L 466 401L 472.5 401L 479 401L 479 394.5L 479 388L 459.5 388L 440 388L 440 394.5L 440 401L 446.5 401L 453 401L 453 414L 453 427L 440 427L 427 427L 427 420.5L 427 414L 414 414L 401 414L 401 401L 401 388L 375 388L 349 388L 349 407.5L 349 427L 342.5 427L 336 427L 336 433.5L 336 440L 342.5 440L 349 440L 349 453L 349 466L 329.5 466L 310 466L 310 459.5L 310 453L 316.5 453L 323 453L 323 446.5L 323 440L 316.5 440L 310 440L 310 433.5L 310 427L 303.5 427L 297 427L 297 407.5L 297 388L 290.5 388L 284 388L 284 381.5L 284 375L 290.5 375L 297 375L 297 362L 297 349L 290.5 349L 284 349L 284 336L 284 323L 290.5 323L 297 323L 297 336L 297 349L 303.5 349L 310 349L 310 329.5L 310 310L 316.5 310L 323 310L 323 316.5L 323 323L 329.5 323L 336 323L 336 316.5L 336 310L 355.5 310L 375 310L 375 323L 375 336L 381.5 336L 388 336L 388 323L 388 310L 394.5 310L 401 310L 401 297L 401 284L 414 284L 427 284L 427 264.5L 427 245L 440 245L 453 245L 453 258zM 648 264.5L 648 271L 641.5 271L 635 271L 635 264.5L 635 258L 641.5 258L 648 258L 648 264.5zM 336 290.5L 336 297L 329.5 297L 323 297L 323 290.5L 323 284L 329.5 284L 336 284L 336 290.5zM 635 297L 635 310L 628.5 310L 622 310L 622 297L 622 284L 628.5 284L 635 284L 635 297zM 635 355.5L 635 362L 641.5 362L 648 362L 648 368.5L 648 375L 641.5 375L 635 375L 635 381.5L 635 388L 628.5 388L 622 388L 622 394.5L 622 401L 615.5 401L 609 401L 609 394.5L 609 388L 602.5 388L 596 388L 596 381.5L 596 375L 602.5 375L 609 375L 609 368.5L 609 362L 615.5 362L 622 362L 622 355.5L 622 349L 628.5 349L 635 349L 635 355.5zM 713 355.5L 713 362L 706.5 362L 700 362L 700 355.5L 700 349L 706.5 349L 713 349L 713 355.5zM 388 407.5L 388 414L 381.5 414L 375 414L 375 420.5L 375 427L 368.5 427L 362 427L 362 414L 362 401L 375 401L 388 401L 388 407.5zM 583 414L 583 427L 576.5 427L 570 427L 570 433.5L 570 440L 563.5 440L 557 440L 557 427L 557 414L 563.5 414L 570 414L 570 407.5L 570 401L 576.5 401L 583 401L 583 414zM 609 459.5L 609 466L 602.5 466L 596 466L 596 459.5L 596 453L 602.5 453L 609 453L 609 459.5zM 492 472.5L 492 479L 485.5 479L 479 479L 479 472.5L 479 466L 485.5 466L 492 466L 492 472.5zM 778 485.5L 778 505L 784.5 505L 791 505L 791 511.5L 791 518L 797.5 518L 804 518L 804 524.5L 804 531L 797.5 531L 791 531L 791 550.5L 791 570L 797.5 570L 804 570L 804 576.5L 804 583L 810.5 583L 817 583L 817 576.5L 817 570L 830 570L 843 570L 843 576.5L 843 583L 836.5 583L 830 583L 830 596L 830 609L 823.5 609L 817 609L 817 602.5L 817 596L 804 596L 791 596L 791 583L 791 570L 784.5 570L 778 570L 778 563.5L 778 557L 765 557L 752 557L 752 550.5L 752 544L 758.5 544L 765 544L 765 537.5L 765 531L 752 531L 739 531L 739 524.5L 739 518L 752 518L 765 518L 765 524.5L 765 531L 778 531L 791 531L 791 524.5L 791 518L 784.5 518L 778 518L 778 511.5L 778 505L 771.5 505L 765 505L 765 485.5L 765 466L 771.5 466L 778 466L 778 485.5zM 531 511.5L 531 531L 511.5 531L 492 531L 492 511.5L 492 492L 511.5 492L 531 492L 531 511.5zM 479 518L 479 531L 472.5 531L 466 531L 466 518L 466 505L 472.5 505L 479 505L 479 518zM 414 524.5L 414 531L 407.5 531L 401 531L 401 537.5L 401 544L 394.5 544L 388 544L 388 537.5L 388 531L 381.5 531L 375 531L 375 524.5L 375 518L 394.5 518L 414 518L 414 524.5zM 505 557L 505 570L 498.5 570L 492 570L 492 576.5L 492 583L 498.5 583L 505 583L 505 589.5L 505 596L 511.5 596L 518 596L 518 602.5L 518 609L 511.5 609L 505 609L 505 602.5L 505 596L 492 596L 479 596L 479 609L 479 622L 472.5 622L 466 622L 466 615.5L 466 609L 459.5 609L 453 609L 453 615.5L 453 622L 446.5 622L 440 622L 440 628.5L 440 635L 427 635L 414 635L 414 628.5L 414 622L 420.5 622L 427 622L 427 615.5L 427 609L 420.5 609L 414 609L 414 602.5L 414 596L 427 596L 440 596L 440 589.5L 440 583L 446.5 583L 453 583L 453 589.5L 453 596L 466 596L 479 596L 479 583L 479 570L 485.5 570L 492 570L 492 563.5L 492 557L 479 557L 466 557L 466 550.5L 466 544L 485.5 544L 505 544L 505 557zM 414 563.5L 414 570L 407.5 570L 401 570L 401 563.5L 401 557L 407.5 557L 414 557L 414 563.5zM 323 596L 323 622L 329.5 622L 336 622L 336 609L 336 596L 349 596L 362 596L 362 583L 362 570L 368.5 570L 375 570L 375 589.5L 375 609L 388 609L 401 609L 401 622L 401 635L 394.5 635L 388 635L 388 628.5L 388 622L 381.5 622L 375 622L 375 628.5L 375 635L 355.5 635L 336 635L 336 641.5L 336 648L 342.5 648L 349 648L 349 654.5L 349 661L 342.5 661L 336 661L 336 654.5L 336 648L 329.5 648L 323 648L 323 635L 323 622L 316.5 622L 310 622L 310 615.5L 310 609L 303.5 609L 297 609L 297 596L 297 583L 303.5 583L 310 583L 310 576.5L 310 570L 316.5 570L 323 570L 323 596zM 609 615.5L 609 622L 602.5 622L 596 622L 596 615.5L 596 609L 602.5 609L 609 609L 609 615.5zM 635 615.5L 635 622L 641.5 622L 648 622L 648 635L 648 648L 641.5 648L 635 648L 635 661L 635 674L 641.5 674L 648 674L 648 680.5L 648 687L 641.5 687L 635 687L 635 706.5L 635 726L 628.5 726L 622 726L 622 739L 622 752L 615.5 752L 609 752L 609 739L 609 726L 602.5 726L 596 726L 596 732.5L 596 739L 589.5 739L 583 739L 583 732.5L 583 726L 589.5 726L 596 726L 596 706.5L 596 687L 602.5 687L 609 687L 609 680.5L 609 674L 615.5 674L 622 674L 622 661L 622 648L 615.5 648L 609 648L 609 641.5L 609 635L 615.5 635L 622 635L 622 641.5L 622 648L 628.5 648L 635 648L 635 635L 635 622L 628.5 622L 622 622L 622 615.5L 622 609L 628.5 609L 635 609L 635 615.5zM 700 628.5L 700 635L 693.5 635L 687 635L 687 628.5L 687 622L 693.5 622L 700 622L 700 628.5zM 479 661L 479 674L 472.5 674L 466 674L 466 661L 466 648L 472.5 648L 479 648L 479 661zM 518 680.5L 518 687L 511.5 687L 505 687L 505 680.5L 505 674L 511.5 674L 518 674L 518 680.5zM 700 680.5L 700 687L 693.5 687L 687 687L 687 680.5L 687 674L 693.5 674L 700 674L 700 680.5zM 544 700L 544 713L 537.5 713L 531 713L 531 719.5L 531 726L 537.5 726L 544 726L 544 752L 544 778L 531 778L 518 778L 518 771.5L 518 765L 511.5 765L 505 765L 505 758.5L 505 752L 511.5 752L 518 752L 518 758.5L 518 765L 524.5 765L 531 765L 531 745.5L 531 726L 524.5 726L 518 726L 518 719.5L 518 713L 511.5 713L 505 713L 505 726L 505 739L 498.5 739L 492 739L 492 726L 492 713L 498.5 713L 505 713L 505 706.5L 505 700L 511.5 700L 518 700L 518 706.5L 518 713L 524.5 713L 531 713L 531 700L 531 687L 537.5 687L 544 687L 544 700zM 804 732.5L 804 739L 810.5 739L 817 739L 817 732.5L 817 726L 823.5 726L 830 726L 830 732.5L 830 739L 836.5 739L 843 739L 843 745.5L 843 752L 836.5 752L 830 752L 830 765L 830 778L 836.5 778L 843 778L 843 771.5L 843 765L 849.5 765L 856 765L 856 771.5L 856 778L 849.5 778L 843 778L 843 784.5L 843 791L 836.5 791L 830 791L 830 804L 830 817L 817 817L 804 817L 804 810.5L 804 804L 810.5 804L 817 804L 817 797.5L 817 791L 810.5 791L 804 791L 804 784.5L 804 778L 791 778L 778 778L 778 765L 778 752L 771.5 752L 765 752L 765 739L 765 726L 784.5 726L 804 726L 804 732.5zM 570 745.5L 570 752L 563.5 752L 557 752L 557 745.5L 557 739L 563.5 739L 570 739L 570 745.5zM 492 771.5L 492 778L 485.5 778L 479 778L 479 771.5L 479 765L 485.5 765L 492 765L 492 771.5zM 635 771.5L 635 778L 641.5 778L 648 778L 648 784.5L 648 791L 641.5 791L 635 791L 635 784.5L 635 778L 628.5 778L 622 778L 622 771.5L 622 765L 628.5 765L 635 765L 635 771.5zM 908 778L 908 791L 901.5 791L 895 791L 895 778L 895 765L 901.5 765L 908 765L 908 778zM 687 875.5L 687 882L 680.5 882L 674 882L 674 875.5L 674 869L 680.5 869L 687 869L 687 875.5z"/>
<path style="stroke:none; fill:#000000" d="M 440 290.5L 440 297L 446.5 297L 453 297L 453 290.5L 453 284L 446.5 284L 440 284L 440 290.5z"/>
<path style="stroke:none; fill:#000000" d="M 336 336L 336 349L 342.5 349L 349 349L 349 342.5L 349 336L 355.5 336L 362 336L 362 329.5L 362 323L 349 323L 336 323L 336 336z"/>
<path style="stroke:none; fill:#000000" d="M 310 355.5L 310 362L 316.5 362L 323 362L 323 355.5L 323 349L 316.5 349L 310 349L 310 355.5z"/>
<path style="stroke:none; fill:#000000" d="M 349 368.5L 349 375L 355.5 375L 362 375L 362 368.5L 362 362L 355.5 362L 349 362L 349 368.5z"/>
<path style="stroke:none; fill:#000000" d="M 297 381.5L 297 388L 303.5 388L 310 388L 310 381.5L 310 375L 303.5 375L 297 375L 297 381.5z"/>
<path style="stroke:none; fill:#000000" d="M 323 388L 323 401L 329.5 401L 336 401L 336 388L 336 375L 329.5 375L 323 375L 323 388z"/>
<path style="stroke:none; fill:#000000" d="M 310 420.5L 310 427L 316.5 427L 323 427L 323 420.5L 323 414L 316.5 414L 310 414L 310 420.5z"/>
<path style="stroke:none; fill:#000000" d="M 622 368.5L 622 375L 628.5 375L 635 375L 635 368.5L 635 362L 628.5 362L 622 362L 622 368.5z"/>
<path style="stroke:none; fill:#000000" d="M 505 511.5L 505 518L 511.5 518L 518 518L 518 511.5L 518 505L 511.5 505L 505 505L 505 511.5z"/>
<path style="stroke:none; fill:#000000" d="M 349 615.5L 349 622L 355.5 622L 362 622L 362 615.5L 362 609L 355.5 609L 349 609L 349 615.5z"/>
<path style="stroke:none; fill:#000000" d="M 622 680.5L 622 687L 628.5 687L 635 687L 635 680.5L 635 674L 628.5 674L 622 674L 622 680.5z"/>
<path style="stroke:none; fill:#000000" d="M 791 758.5L 791 765L 797.5 765L 804 765L 804 758.5L 804 752L 797.5 752L 791 752L 791 758.5z"/>
<path style="stroke:none; fill:#000000" d="M 570 173.5L 570 180L 576.5 180L 583 180L 583 186.5L 583 193L 576.5 193L 570 193L 570 199.5L 570 206L 583 206L 596 206L 596 212.5L 596 219L 602.5 219L 609 219L 609 212.5L 609 206L 615.5 206L 622 206L 622 199.5L 622 193L 615.5 193L 609 193L 609 199.5L 609 206L 602.5 206L 596 206L 596 186.5L 596 167L 583 167L 570 167L 570 173.5z"/>
<path style="stroke:none; fill:#000000" d="M 245 225.5L 245 232L 251.5 232L 258 232L 258 238.5L 258 245L 264.5 245L 271 245L 271 238.5L 271 232L 264.5 232L 258 232L 258 225.5L 258 219L 251.5 219L 245 219L 245 225.5z"/>
<path style="stroke:none; fill:#000000" d="M 765 245L 765 258L 771.5 258L 778 258L 778 245L 778 232L 771.5 232L 765 232L 765 245z"/>
<path style="stroke:none; fill:#000000" d="M 726 316.5L 726 323L 732.5 323L 739 323L 739 316.5L 739 310L 732.5 310L 726 310L 726 316.5z"/>
<path style="stroke:none; fill:#000000" d="M 765 401L 765 414L 771.5 414L 778 414L 778 401L 778 388L 771.5 388L 765 388L 765 401z"/>
<path style="stroke:none; fill:#000000" d="M 232 459.5L 232 466L 238.5 466L 245 466L 245 459.5L 245 453L 238.5 453L 232 453L 232 459.5z"/>
<path style="stroke:none; fill:#000000" d="M 830 459.5L 830 466L 836.5 466L 843 466L 843 459.5L 843 453L 836.5 453L 830 453L 830 459.5z"/>
<path style="stroke:none; fill:#000000" d="M 284 505L 284 518L 297 518L 310 518L 310 511.5L 310 505L 303.5 505L 297 505L 297 498.5L 297 492L 290.5 492L 284 492L 284 505z"/>
<path style="stroke:none; fill:#000000" d="M 687 505L 687 518L 693.5 518L 700 518L 700 505L 700 492L 693.5 492L 687 492L 687 505z"/>
<path style="stroke:none; fill:#000000" d="M 141 589.5L 141 596L 147.5 596L 154 596L 154 589.5L 154 583L 147.5 583L 141 583L 141 589.5z"/>
<path style="stroke:none; fill:#000000" d="M 921 589.5L 921 596L 927.5 596L 934 596L 934 589.5L 934 583L 927.5 583L 921 583L 921 589.5z"/>
<path style="stroke:none; fill:#000000" d="M 752 641.5L 752 648L 745.5 648L 739 648L 739 654.5L 739 661L 745.5 661L 752 661L 752 667.5L 752 674L 765 674L 778 674L 778 667.5L 778 661L 765 661L 752 661L 752 654.5L 752 648L 758.5 648L 765 648L 765 641.5L 765 635L 758.5 635L 752 635L 752 641.5z"/>
<path style="stroke:none; fill:#000000" d="M 141 667.5L 141 674L 154 674L 167 674L 167 667.5L 167 661L 154 661L 141 661L 141 667.5z"/>
<path style="stroke:none; fill:#000000" d="M 297 667.5L 297 674L 303.5 674L 310 674L 310 667.5L 310 661L 303.5 661L 297 661L 297 667.5z"/>
<path style="stroke:none; fill:#000000" d="M 726 804L 726 817L 732.5 817L 739 817L 739 830L 739 843L 752 843L 765 843L 765 836.5L 765 830L 771.5 830L 778 830L 778 823.5L 778 817L 771.5 817L 765 817L 765 823.5L 765 830L 758.5 830L 752 830L 752 810.5L 752 791L 739 791L 726 791L 726 804z"/>
<path style="stroke:none; fill:#000000" d="M 908 823.5L 908 830L 914.5 830L 921 830L 921 823.5L 921 817L 914.5 817L 908 817L 908 823.5z"/>
<path style="stroke:none; fill:#000000" d="M 622 849.5L 622 856L 628.5 856L 635 856L 635 849.5L 635 843L 628.5 843L 622 843L 622 849.5z"/>
<path style="stroke:none; fill:#000000" d="M 739 869L 739 882L 732.5 882L 726 882L 726 888.5L 726 895L 719.5 895L 713 895L 713 901.5L 713 908L 726 908L 739 908L 739 895L 739 882L 745.5 882L 752 882L 752 895L 752 908L 758.5 908L 765 908L 765 895L 765 882L 758.5 882L 752 882L 752 869L 752 856L 745.5 856L 739 856L 739 869z"/>
<path style="stroke:none; fill:#000000" d="M 635 875.5L 635 882L 641.5 882L 648 882L 648 875.5L 648 869L 641.5 869L 635 869L 635 875.5z"/>
<path style="stroke:none; fill:#000000" d="M 505 147.5L 505 154L 511.5 154L 518 154L 518 147.5L 518 141L 511.5 141L 505 141L 505 147.5z"/>
<path style="stroke:none; fill:#000000" d="M 115 303.5L 115 310L 121.5 310L 128 310L 128 316.5L 128 323L 134.5 323L 141 323L 141 329.5L 141 336L 160.5 336L 180 336L 180 342.5L 180 349L 186.5 349L 193 349L 193 336L 193 323L 186.5 323L 180 323L 180 316.5L 180 310L 167 310L 154 310L 154 303.5L 154 297L 147.5 297L 141 297L 141 303.5L 141 310L 134.5 310L 128 310L 128 303.5L 128 297L 121.5 297L 115 297L 115 303.5zM 154 316.5L 154 323L 147.5 323L 141 323L 141 316.5L 141 310L 147.5 310L 154 310L 154 316.5z"/>
<path style="stroke:none; fill:#000000" d="M 141 511.5L 141 518L 147.5 518L 154 518L 154 511.5L 154 505L 147.5 505L 141 505L 141 511.5z"/>
<path style="stroke:none; fill:#000000" d="M 869 511.5L 869 518L 875.5 518L 882 518L 882 511.5L 882 505L 875.5 505L 869 505L 869 511.5z"/>
<path style="stroke:none; fill:#000000" d="M 505 875.5L 505 882L 511.5 882L 518 882L 518 875.5L 518 869L 511.5 869L 505 869L 505 875.5z"/>
<path style="stroke:none; fill:#000000" d="M 869 875.5L 869 882L 875.5 882L 882 882L 882 875.5L 882 869L 875.5 869L 869 869L 869 875.5z"/>
<path style="stroke:none; fill:#000000" d="M 219 69.5L 219 76L 225.5 76L 232 76L 232 69.5L 232 63L 225.5 63L 219 63L 219 69.5z"/>
<path style="stroke:none; fill:#000000" d="M 817 69.5L 817 76L 836.5 76L 856 76L 856 69.5L 856 63L 836.5 63L 817 63L 817 69.5z"/>
<path style="stroke:none; fill:#000000" d="M 869 108.5L 869 154L 914.5 154L 960 154L 960 108.5L 960 63L 914.5 63L 869 63L 869 108.5zM 947 108.5L 947 141L 914.5 141L 882 141L 882 108.5L 882 76L 914.5 76L 947 76L 947 108.5z"/>
<path style="stroke:none; fill:#000000" d="M 895 108L 895 127L 914 127L 933 127L 933 108L 933 89L 914 89L 895 89L 895 108z"/>
<path style="stroke:none; fill:#000000" d="M 843 115L 843 128L 849.5 128L 856 128L 856 115L 856 102L 849.5 102L 843 102L 843 115z"/>
<path style="stroke:none; fill:#000000" d="M 947 180L 947 193L 953.5 193L 960 193L 960 180L 960 167L 953.5 167L 947 167L 947 180z"/>
<path style="stroke:none; fill:#000000" d="M 947 219L 947 232L 953.5 232L 960 232L 960 219L 960 206L 953.5 206L 947 206L 947 219z"/>
<path style="stroke:none; fill:#000000" d="M 934 303.5L 934 310L 940.5 310L 947 310L 947 316.5L 947 323L 940.5 323L 934 323L 934 329.5L 934 336L 947 336L 960 336L 960 316.5L 960 297L 947 297L 934 297L 934 303.5z"/>
<path style="stroke:none; fill:#000000" d="M 947 427L 947 440L 953.5 440L 960 440L 960 427L 960 414L 953.5 414L 947 414L 947 427z"/>
<path style="stroke:none; fill:#000000" d="M 336 771.5L 336 778L 329.5 778L 323 778L 323 784.5L 323 791L 342.5 791L 362 791L 362 797.5L 362 804L 368.5 804L 375 804L 375 797.5L 375 791L 368.5 791L 362 791L 362 784.5L 362 778L 355.5 778L 349 778L 349 771.5L 349 765L 342.5 765L 336 765L 336 771.5z"/>
<path style="stroke:none; fill:#000000" d="M 115 784.5L 115 791L 121.5 791L 128 791L 128 784.5L 128 778L 121.5 778L 115 778L 115 784.5z"/>
<path style="stroke:none; fill:#000000" d="M 388 810.5L 388 817L 381.5 817L 375 817L 375 836.5L 375 856L 381.5 856L 388 856L 388 862.5L 388 869L 394.5 869L 401 869L 401 862.5L 401 856L 394.5 856L 388 856L 388 836.5L 388 817L 394.5 817L 401 817L 401 810.5L 401 804L 394.5 804L 388 804L 388 810.5z"/>
<path style="stroke:none; fill:#000000" d="M 414 849.5L 414 869L 420.5 869L 427 869L 427 862.5L 427 856L 433.5 856L 440 856L 440 849.5L 440 843L 433.5 843L 427 843L 427 836.5L 427 830L 420.5 830L 414 830L 414 849.5z"/>
<path style="stroke:none; fill:#000000" d="M 102 849.5L 102 856L 115 856L 128 856L 128 849.5L 128 843L 115 843L 102 843L 102 849.5z"/>
<path style="stroke:none; fill:#000000" d="M 141 849.5L 141 856L 147.5 856L 154 856L 154 849.5L 154 843L 147.5 843L 141 843L 141 849.5z"/>
<path style="stroke:none; fill:#000000" d="M 167 869L 167 882L 173.5 882L 180 882L 180 869L 180 856L 173.5 856L 167 856L 167 869z"/>
<path style="stroke:none; fill:#000000" d="M 63 914.5L 63 960L 108.5 960L 154 960L 154 914.5L 154 869L 108.5 869L 63 869L 63 914.5zM 141 914.5L 141 947L 108.5 947L 76 947L 76 914.5L 76 882L 108.5 882L 141 882L 141 914.5z"/>
<path style="stroke:none; fill:#000000" d="M 89 914L 89 933L 108 933L 127 933L 127 914L 127 895L 108 895L 89 895L 89 914z"/>
<path style="stroke:none; fill:#000000" d="M 570 953.5L 570 960L 589.5 960L 609 960L 609 953.5L 609 947L 589.5 947L 570 947L 570 953.5z"/>
<path style="stroke:none; fill:#000000" d="M 869 953.5L 869 960L 875.5 960L 882 960L 882 953.5L 882 947L 875.5 947L 869 947L 869 953.5z"/>
</g>
</g>
</svg>