<?xml version="1.0" encoding="UTF-8" standalone="yes"?>
<!-- Created with sK1/UniConvertor (http://sk1project.org/) -->
<svg xmlns="http://www.w3.org/2000/svg" xmlns:xlink="http://www.w3.org/1999/xlink"
  width="1024pt" height="1024pt" viewBox="0 0 1024 1024"
  fill-rule="evenodd">
<g>
<g>
<path style="stroke:none; fill:#000000" d="M 56 112L 56 168L 112 168L 168 168L 168 112L 168 56L 112 56L 56 56L 56 112zM 152 112L 152 152L 112 152L 72 152L 72 112L 72 72L 112 72L 152 72L 152 112z"/>
<path style="stroke:none; fill:#000000" d="M 87.5 88.3C 87.2 89 87.1 99.7 87.2 112L 87.5 134.5L 111 134.5L 134.5 134.5L 134.5 111L 134.5 87.5L 111.2 87.2C 92.9 87 87.8 87.2 87.5 88.3z"/>
<path style="stroke:none; fill:#000000" d="M 200 72L 200 88L 192 88L 184 88L 184 136L 184 184L 200 184L 216 184L 216 200L 216 216L 208 216L 200 216L 200 208L 200 200L 184 200L 168 200L 168 192L 168 184L 128 184L 88 184L 88 208L 88 232L 72 232L 56 232L 56 248L 56 264L 64 264L 72 264L 72 256L 72 248L 80 248L 88 248L 88 272L 88 296L 104 296L 120 296L 120 320L 120 344L 128 344L 136 344L 136 352L 136 360L 128 360L 120 360L 120 368L 120 376L 104 376L 88 376L 88 384L 88 392L 72 392L 56 392L 56 416L 56 440L 64 440L 72 440L 72 424L 72 408L 104 408L 136 408L 136 400L 136 392L 152 392L 168 392L 168 400L 168 408L 160 408L 152 408L 152 416L 152 424L 128 424L 104 424L 104 432L 104 440L 96 440L 88 440L 88 448L 88 456L 96 456L 104 456L 104 464L 104 472L 88 472L 72 472L 72 464L 72 456L 64 456L 56 456L 56 472L 56 488L 80 488L 104 488L 104 480L 104 472L 112 472L 120 472L 120 488L 120 504L 104 504L 88 504L 88 512L 88 520L 104 520L 120 520L 120 528L 120 536L 96 536L 72 536L 72 528L 72 520L 64 520L 56 520L 56 536L 56 552L 72 552L 88 552L 88 560L 88 568L 96 568L 104 568L 104 592L 104 616L 112 616L 120 616L 120 624L 120 632L 104 632L 88 632L 88 640L 88 648L 80 648L 72 648L 72 640L 72 632L 64 632L 56 632L 56 664L 56 696L 72 696L 88 696L 88 688L 88 680L 80 680L 72 680L 72 672L 72 664L 96 664L 120 664L 120 648L 120 632L 128 632L 136 632L 136 624L 136 616L 152 616L 168 616L 168 624L 168 632L 160 632L 152 632L 152 640L 152 648L 160 648L 168 648L 168 656L 168 664L 160 664L 152 664L 152 672L 152 680L 168 680L 184 680L 184 672L 184 664L 200 664L 216 664L 216 672L 216 680L 208 680L 200 680L 200 688L 200 696L 192 696L 184 696L 184 704L 184 712L 176 712L 168 712L 168 704L 168 696L 136 696L 104 696L 104 704L 104 712L 88 712L 72 712L 72 728L 72 744L 80 744L 88 744L 88 752L 88 760L 80 760L 72 760L 72 768L 72 776L 64 776L 56 776L 56 800L 56 824L 96 824L 136 824L 136 816L 136 808L 152 808L 168 808L 168 816L 168 824L 160 824L 152 824L 152 832L 152 840L 168 840L 184 840L 184 848L 184 856L 192 856L 200 856L 200 848L 200 840L 192 840L 184 840L 184 808L 184 776L 176 776L 168 776L 168 768L 168 760L 176 760L 184 760L 184 752L 184 744L 176 744L 168 744L 168 736L 168 728L 176 728L 184 728L 184 720L 184 712L 192 712L 200 712L 200 728L 200 744L 208 744L 216 744L 216 752L 216 760L 208 760L 200 760L 200 768L 200 776L 208 776L 216 776L 216 792L 216 808L 208 808L 200 808L 200 816L 200 824L 216 824L 232 824L 232 816L 232 808L 240 808L 248 808L 248 792L 248 776L 256 776L 264 776L 264 792L 264 808L 288 808L 312 808L 312 816L 312 824L 304 824L 296 824L 296 832L 296 840L 312 840L 328 840L 328 848L 328 856L 336 856L 344 856L 344 848L 344 840L 352 840L 360 840L 360 856L 360 872L 368 872L 376 872L 376 880L 376 888L 368 888L 360 888L 360 904L 360 920L 368 920L 376 920L 376 928L 376 936L 384 936L 392 936L 392 944L 392 952L 408 952L 424 952L 424 944L 424 936L 432 936L 440 936L 440 952L 440 968L 456 968L 472 968L 472 960L 472 952L 496 952L 520 952L 520 960L 520 968L 536 968L 552 968L 552 952L 552 936L 560 936L 568 936L 568 952L 568 968L 576 968L 584 968L 584 952L 584 936L 592 936L 600 936L 600 920L 600 904L 616 904L 632 904L 632 896L 632 888L 648 888L 664 888L 664 896L 664 904L 656 904L 648 904L 648 928L 648 952L 656 952L 664 952L 664 960L 664 968L 688 968L 712 968L 712 960L 712 952L 728 952L 744 952L 744 960L 744 968L 752 968L 760 968L 760 944L 760 920L 768 920L 776 920L 776 928L 776 936L 784 936L 792 936L 792 928L 792 920L 784 920L 776 920L 776 912L 776 904L 792 904L 808 904L 808 896L 808 888L 816 888L 824 888L 824 912L 824 936L 832 936L 840 936L 840 944L 840 952L 832 952L 824 952L 824 960L 824 968L 832 968L 840 968L 840 960L 840 952L 848 952L 856 952L 856 944L 856 936L 864 936L 872 936L 872 944L 872 952L 896 952L 920 952L 920 960L 920 968L 936 968L 952 968L 952 960L 952 952L 960 952L 968 952L 968 944L 968 936L 944 936L 920 936L 920 928L 920 920L 936 920L 952 920L 952 904L 952 888L 960 888L 968 888L 968 872L 968 856L 960 856L 952 856L 952 840L 952 824L 960 824L 968 824L 968 816L 968 808L 960 808L 952 808L 952 816L 952 824L 944 824L 936 824L 936 816L 936 808L 928 808L 920 808L 920 832L 920 856L 936 856L 952 856L 952 864L 952 872L 936 872L 920 872L 920 888L 920 904L 912 904L 904 904L 904 864L 904 824L 864 824L 824 824L 824 840L 824 856L 808 856L 792 856L 792 848L 792 840L 800 840L 808 840L 808 832L 808 824L 800 824L 792 824L 792 832L 792 840L 784 840L 776 840L 776 832L 776 824L 768 824L 760 824L 760 808L 760 792L 768 792L 776 792L 776 800L 776 808L 792 808L 808 808L 808 800L 808 792L 816 792L 824 792L 824 800L 824 808L 832 808L 840 808L 840 800L 840 792L 832 792L 824 792L 824 784L 824 776L 816 776L 808 776L 808 768L 808 760L 832 760L 856 760L 856 752L 856 744L 880 744L 904 744L 904 736L 904 728L 912 728L 920 728L 920 744L 920 760L 912 760L 904 760L 904 768L 904 776L 880 776L 856 776L 856 784L 856 792L 864 792L 872 792L 872 800L 872 808L 880 808L 888 808L 888 800L 888 792L 896 792L 904 792L 904 784L 904 776L 912 776L 920 776L 920 784L 920 792L 936 792L 952 792L 952 776L 952 760L 960 760L 968 760L 968 752L 968 744L 960 744L 952 744L 952 720L 952 696L 960 696L 968 696L 968 688L 968 680L 960 680L 952 680L 952 672L 952 664L 944 664L 936 664L 936 656L 936 648L 896 648L 856 648L 856 640L 856 632L 872 632L 888 632L 888 624L 888 616L 896 616L 904 616L 904 624L 904 632L 912 632L 920 632L 920 624L 920 616L 912 616L 904 616L 904 608L 904 600L 920 600L 936 600L 936 608L 936 616L 944 616L 952 616L 952 632L 952 648L 960 648L 968 648L 968 632L 968 616L 960 616L 952 616L 952 608L 952 600L 944 600L 936 600L 936 592L 936 584L 944 584L 952 584L 952 576L 952 568L 960 568L 968 568L 968 552L 968 536L 960 536L 952 536L 952 552L 952 568L 944 568L 936 568L 936 560L 936 552L 928 552L 920 552L 920 544L 920 536L 928 536L 936 536L 936 528L 936 520L 944 520L 952 520L 952 512L 952 504L 960 504L 968 504L 968 496L 968 488L 960 488L 952 488L 952 464L 952 440L 960 440L 968 440L 968 424L 968 408L 960 408L 952 408L 952 392L 952 376L 960 376L 968 376L 968 368L 968 360L 960 360L 952 360L 952 344L 952 328L 944 328L 936 328L 936 312L 936 296L 904 296L 872 296L 872 304L 872 312L 864 312L 856 312L 856 320L 856 328L 864 328L 872 328L 872 336L 872 344L 888 344L 904 344L 904 336L 904 328L 912 328L 920 328L 920 336L 920 344L 928 344L 936 344L 936 352L 936 360L 928 360L 920 360L 920 376L 920 392L 928 392L 936 392L 936 408L 936 424L 944 424L 952 424L 952 432L 952 440L 944 440L 936 440L 936 448L 936 456L 928 456L 920 456L 920 448L 920 440L 912 440L 904 440L 904 448L 904 456L 896 456L 888 456L 888 440L 888 424L 880 424L 872 424L 872 432L 872 440L 864 440L 856 440L 856 448L 856 456L 864 456L 872 456L 872 464L 872 472L 856 472L 840 472L 840 448L 840 424L 832 424L 824 424L 824 432L 824 440L 808 440L 792 440L 792 448L 792 456L 800 456L 808 456L 808 464L 808 472L 800 472L 792 472L 792 480L 792 488L 800 488L 808 488L 808 496L 808 504L 792 504L 776 504L 776 512L 776 520L 768 520L 760 520L 760 512L 760 504L 752 504L 744 504L 744 496L 744 488L 752 488L 760 488L 760 480L 760 472L 768 472L 776 472L 776 464L 776 456L 768 456L 760 456L 760 464L 760 472L 752 472L 744 472L 744 464L 744 456L 736 456L 728 456L 728 464L 728 472L 736 472L 744 472L 744 480L 744 488L 728 488L 712 488L 712 496L 712 504L 728 504L 744 504L 744 512L 744 520L 720 520L 696 520L 696 528L 696 536L 704 536L 712 536L 712 552L 712 568L 736 568L 760 568L 760 584L 760 600L 752 600L 744 600L 744 592L 744 584L 720 584L 696 584L 696 592L 696 600L 704 600L 712 600L 712 608L 712 616L 696 616L 680 616L 680 608L 680 600L 672 600L 664 600L 664 608L 664 616L 656 616L 648 616L 648 592L 648 568L 656 568L 664 568L 664 576L 664 584L 672 584L 680 584L 680 576L 680 568L 688 568L 696 568L 696 560L 696 552L 688 552L 680 552L 680 560L 680 568L 672 568L 664 568L 664 544L 664 520L 672 520L 680 520L 680 512L 680 504L 672 504L 664 504L 664 480L 664 456L 656 456L 648 456L 648 448L 648 440L 656 440L 664 440L 664 432L 664 424L 656 424L 648 424L 648 416L 648 408L 672 408L 696 408L 696 424L 696 440L 688 440L 680 440L 680 456L 680 472L 696 472L 712 472L 712 464L 712 456L 704 456L 696 456L 696 448L 696 440L 728 440L 760 440L 760 432L 760 424L 744 424L 728 424L 728 416L 728 408L 736 408L 744 408L 744 400L 744 392L 736 392L 728 392L 728 384L 728 376L 736 376L 744 376L 744 368L 744 360L 752 360L 760 360L 760 352L 760 344L 768 344L 776 344L 776 336L 776 328L 792 328L 808 328L 808 320L 808 312L 824 312L 840 312L 840 304L 840 296L 848 296L 856 296L 856 280L 856 264L 864 264L 872 264L 872 272L 872 280L 904 280L 936 280L 936 272L 936 264L 944 264L 952 264L 952 256L 952 248L 960 248L 968 248L 968 240L 968 232L 960 232L 952 232L 952 216L 952 200L 944 200L 936 200L 936 192L 936 184L 896 184L 856 184L 856 200L 856 216L 848 216L 840 216L 840 184L 840 152L 832 152L 824 152L 824 160L 824 168L 816 168L 808 168L 808 152L 808 136L 816 136L 824 136L 824 96L 824 56L 808 56L 792 56L 792 64L 792 72L 800 72L 808 72L 808 80L 808 88L 792 88L 776 88L 776 104L 776 120L 768 120L 760 120L 760 112L 760 104L 752 104L 744 104L 744 96L 744 88L 752 88L 760 88L 760 80L 760 72L 768 72L 776 72L 776 64L 776 56L 768 56L 760 56L 760 64L 760 72L 752 72L 744 72L 744 64L 744 56L 736 56L 728 56L 728 64L 728 72L 720 72L 712 72L 712 88L 712 104L 728 104L 744 104L 744 120L 744 136L 728 136L 712 136L 712 128L 712 120L 696 120L 680 120L 680 112L 680 104L 672 104L 664 104L 664 112L 664 120L 672 120L 680 120L 680 128L 680 136L 696 136L 712 136L 712 144L 712 152L 704 152L 696 152L 696 160L 696 168L 704 168L 712 168L 712 176L 712 184L 704 184L 696 184L 696 192L 696 200L 688 200L 680 200L 680 192L 680 184L 672 184L 664 184L 664 176L 664 168L 672 168L 680 168L 680 160L 680 152L 672 152L 664 152L 664 160L 664 168L 656 168L 648 168L 648 152L 648 136L 632 136L 616 136L 616 144L 616 152L 608 152L 600 152L 600 160L 600 168L 592 168L 584 168L 584 136L 584 104L 568 104L 552 104L 552 80L 552 56L 544 56L 536 56L 536 72L 536 88L 520 88L 504 88L 504 104L 504 120L 496 120L 488 120L 488 112L 488 104L 480 104L 472 104L 472 96L 472 88L 432 88L 392 88L 392 104L 392 120L 384 120L 376 120L 376 112L 376 104L 368 104L 360 104L 360 96L 360 88L 368 88L 376 88L 376 72L 376 56L 360 56L 344 56L 344 64L 344 72L 336 72L 328 72L 328 64L 328 56L 320 56L 312 56L 312 64L 312 72L 304 72L 296 72L 296 80L 296 88L 288 88L 280 88L 280 72L 280 56L 264 56L 248 56L 248 64L 248 72L 240 72L 232 72L 232 64L 232 56L 216 56L 200 56L 200 72zM 264 80L 264 88L 272 88L 280 88L 280 96L 280 104L 288 104L 296 104L 296 96L 296 88L 304 88L 312 88L 312 80L 312 72L 320 72L 328 72L 328 80L 328 88L 336 88L 344 88L 344 80L 344 72L 352 72L 360 72L 360 80L 360 88L 352 88L 344 88L 344 112L 344 136L 352 136L 360 136L 360 144L 360 152L 368 152L 376 152L 376 160L 376 168L 368 168L 360 168L 360 176L 360 184L 368 184L 376 184L 376 192L 376 200L 384 200L 392 200L 392 192L 392 184L 400 184L 408 184L 408 192L 408 200L 424 200L 440 200L 440 208L 440 216L 448 216L 456 216L 456 224L 456 232L 464 232L 472 232L 472 240L 472 248L 488 248L 504 248L 504 240L 504 232L 496 232L 488 232L 488 224L 488 216L 480 216L 472 216L 472 208L 472 200L 464 200L 456 200L 456 192L 456 184L 464 184L 472 184L 472 192L 472 200L 480 200L 488 200L 488 208L 488 216L 504 216L 520 216L 520 208L 520 200L 536 200L 552 200L 552 208L 552 216L 536 216L 520 216L 520 232L 520 248L 544 248L 568 248L 568 232L 568 216L 584 216L 600 216L 600 208L 600 200L 584 200L 568 200L 568 192L 568 184L 560 184L 552 184L 552 168L 552 152L 560 152L 568 152L 568 160L 568 168L 576 168L 584 168L 584 176L 584 184L 592 184L 600 184L 600 176L 600 168L 608 168L 616 168L 616 160L 616 152L 624 152L 632 152L 632 160L 632 168L 624 168L 616 168L 616 176L 616 184L 624 184L 632 184L 632 192L 632 200L 656 200L 680 200L 680 208L 680 216L 696 216L 712 216L 712 200L 712 184L 736 184L 760 184L 760 176L 760 168L 752 168L 744 168L 744 160L 744 152L 752 152L 760 152L 760 144L 760 136L 768 136L 776 136L 776 128L 776 120L 784 120L 792 120L 792 112L 792 104L 800 104L 808 104L 808 120L 808 136L 792 136L 776 136L 776 144L 776 152L 784 152L 792 152L 792 160L 792 168L 800 168L 808 168L 808 176L 808 184L 784 184L 760 184L 760 200L 760 216L 768 216L 776 216L 776 208L 776 200L 792 200L 808 200L 808 224L 808 248L 776 248L 744 248L 744 256L 744 264L 752 264L 760 264L 760 272L 760 280L 776 280L 792 280L 792 272L 792 264L 808 264L 824 264L 824 256L 824 248L 832 248L 840 248L 840 256L 840 264L 832 264L 824 264L 824 272L 824 280L 832 280L 840 280L 840 288L 840 296L 832 296L 824 296L 824 288L 824 280L 816 280L 808 280L 808 296L 808 312L 776 312L 744 312L 744 320L 744 328L 752 328L 760 328L 760 336L 760 344L 752 344L 744 344L 744 352L 744 360L 736 360L 728 360L 728 352L 728 344L 720 344L 712 344L 712 360L 712 376L 704 376L 696 376L 696 384L 696 392L 688 392L 680 392L 680 384L 680 376L 688 376L 696 376L 696 368L 696 360L 672 360L 648 360L 648 352L 648 344L 632 344L 616 344L 616 360L 616 376L 624 376L 632 376L 632 384L 632 392L 640 392L 648 392L 648 384L 648 376L 656 376L 664 376L 664 384L 664 392L 656 392L 648 392L 648 400L 648 408L 632 408L 616 408L 616 416L 616 424L 632 424L 648 424L 648 432L 648 440L 640 440L 632 440L 632 448L 632 456L 640 456L 648 456L 648 464L 648 472L 640 472L 632 472L 632 464L 632 456L 624 456L 616 456L 616 472L 616 488L 624 488L 632 488L 632 496L 632 504L 648 504L 664 504L 664 512L 664 520L 656 520L 648 520L 648 528L 648 536L 632 536L 616 536L 616 552L 616 568L 624 568L 632 568L 632 576L 632 584L 624 584L 616 584L 616 592L 616 600L 624 600L 632 600L 632 624L 632 648L 640 648L 648 648L 648 640L 648 632L 656 632L 664 632L 664 624L 664 616L 672 616L 680 616L 680 624L 680 632L 688 632L 696 632L 696 640L 696 648L 688 648L 680 648L 680 640L 680 632L 672 632L 664 632L 664 648L 664 664L 688 664L 712 664L 712 648L 712 632L 736 632L 760 632L 760 616L 760 600L 768 600L 776 600L 776 584L 776 568L 768 568L 760 568L 760 552L 760 536L 784 536L 808 536L 808 528L 808 520L 816 520L 824 520L 824 536L 824 552L 848 552L 872 552L 872 568L 872 584L 864 584L 856 584L 856 592L 856 600L 848 600L 840 600L 840 608L 840 616L 848 616L 856 616L 856 624L 856 632L 848 632L 840 632L 840 624L 840 616L 832 616L 824 616L 824 624L 824 632L 808 632L 792 632L 792 640L 792 648L 800 648L 808 648L 808 656L 808 664L 816 664L 824 664L 824 656L 824 648L 840 648L 856 648L 856 656L 856 664L 840 664L 824 664L 824 672L 824 680L 840 680L 856 680L 856 688L 856 696L 864 696L 872 696L 872 688L 872 680L 888 680L 904 680L 904 672L 904 664L 920 664L 936 664L 936 688L 936 712L 928 712L 920 712L 920 696L 920 680L 912 680L 904 680L 904 704L 904 728L 896 728L 888 728L 888 720L 888 712L 872 712L 856 712L 856 728L 856 744L 832 744L 808 744L 808 752L 808 760L 800 760L 792 760L 792 768L 792 776L 800 776L 808 776L 808 784L 808 792L 800 792L 792 792L 792 784L 792 776L 760 776L 728 776L 728 784L 728 792L 736 792L 744 792L 744 800L 744 808L 728 808L 712 808L 712 816L 712 824L 736 824L 760 824L 760 840L 760 856L 776 856L 792 856L 792 864L 792 872L 800 872L 808 872L 808 880L 808 888L 792 888L 776 888L 776 896L 776 904L 768 904L 760 904L 760 912L 760 920L 752 920L 744 920L 744 928L 744 936L 728 936L 712 936L 712 944L 712 952L 688 952L 664 952L 664 928L 664 904L 672 904L 680 904L 680 896L 680 888L 672 888L 664 888L 664 880L 664 872L 672 872L 680 872L 680 864L 680 856L 648 856L 616 856L 616 864L 616 872L 624 872L 632 872L 632 880L 632 888L 616 888L 600 888L 600 880L 600 872L 584 872L 568 872L 568 880L 568 888L 576 888L 584 888L 584 896L 584 904L 568 904L 552 904L 552 888L 552 872L 560 872L 568 872L 568 864L 568 856L 560 856L 552 856L 552 840L 552 824L 560 824L 568 824L 568 816L 568 808L 576 808L 584 808L 584 816L 584 824L 592 824L 600 824L 600 816L 600 808L 608 808L 616 808L 616 816L 616 824L 624 824L 632 824L 632 816L 632 808L 640 808L 648 808L 648 816L 648 824L 656 824L 664 824L 664 816L 664 808L 672 808L 680 808L 680 800L 680 792L 656 792L 632 792L 632 784L 632 776L 640 776L 648 776L 648 768L 648 760L 656 760L 664 760L 664 744L 664 728L 640 728L 616 728L 616 712L 616 696L 600 696L 584 696L 584 688L 584 680L 576 680L 568 680L 568 672L 568 664L 544 664L 520 664L 520 672L 520 680L 528 680L 536 680L 536 688L 536 696L 528 696L 520 696L 520 704L 520 712L 544 712L 568 712L 568 720L 568 728L 576 728L 584 728L 584 720L 584 712L 592 712L 600 712L 600 728L 600 744L 608 744L 616 744L 616 752L 616 760L 608 760L 600 760L 600 768L 600 776L 608 776L 616 776L 616 784L 616 792L 608 792L 600 792L 600 784L 600 776L 592 776L 584 776L 584 768L 584 760L 568 760L 552 760L 552 768L 552 776L 560 776L 568 776L 568 784L 568 792L 560 792L 552 792L 552 800L 552 808L 544 808L 536 808L 536 816L 536 824L 520 824L 504 824L 504 816L 504 808L 520 808L 536 808L 536 800L 536 792L 520 792L 504 792L 504 768L 504 744L 512 744L 520 744L 520 760L 520 776L 528 776L 536 776L 536 768L 536 760L 544 760L 552 760L 552 752L 552 744L 560 744L 568 744L 568 736L 568 728L 536 728L 504 728L 504 704L 504 680L 496 680L 488 680L 488 688L 488 696L 472 696L 456 696L 456 688L 456 680L 440 680L 424 680L 424 696L 424 712L 440 712L 456 712L 456 720L 456 728L 472 728L 488 728L 488 736L 488 744L 480 744L 472 744L 472 752L 472 760L 480 760L 488 760L 488 792L 488 824L 472 824L 456 824L 456 816L 456 808L 440 808L 424 808L 424 800L 424 792L 416 792L 408 792L 408 784L 408 776L 416 776L 424 776L 424 768L 424 760L 408 760L 392 760L 392 784L 392 808L 400 808L 408 808L 408 816L 408 824L 424 824L 440 824L 440 840L 440 856L 448 856L 456 856L 456 864L 456 872L 464 872L 472 872L 472 896L 472 920L 488 920L 504 920L 504 928L 504 936L 488 936L 472 936L 472 944L 472 952L 464 952L 456 952L 456 944L 456 936L 464 936L 472 936L 472 928L 472 920L 464 920L 456 920L 456 896L 456 872L 448 872L 440 872L 440 880L 440 888L 432 888L 424 888L 424 872L 424 856L 416 856L 408 856L 408 848L 408 840L 400 840L 392 840L 392 848L 392 856L 384 856L 376 856L 376 848L 376 840L 368 840L 360 840L 360 832L 360 824L 352 824L 344 824L 344 832L 344 840L 336 840L 328 840L 328 832L 328 824L 336 824L 344 824L 344 816L 344 808L 328 808L 312 808L 312 800L 312 792L 296 792L 280 792L 280 784L 280 776L 272 776L 264 776L 264 768L 264 760L 256 760L 248 760L 248 752L 248 744L 240 744L 232 744L 232 736L 232 728L 224 728L 216 728L 216 720L 216 712L 224 712L 232 712L 232 704L 232 696L 240 696L 248 696L 248 704L 248 712L 240 712L 232 712L 232 720L 232 728L 240 728L 248 728L 248 736L 248 744L 256 744L 264 744L 264 752L 264 760L 272 760L 280 760L 280 744L 280 728L 272 728L 264 728L 264 704L 264 680L 248 680L 232 680L 232 672L 232 664L 224 664L 216 664L 216 656L 216 648L 224 648L 232 648L 232 640L 232 632L 240 632L 248 632L 248 648L 248 664L 256 664L 264 664L 264 672L 264 680L 272 680L 280 680L 280 664L 280 648L 272 648L 264 648L 264 632L 264 616L 256 616L 248 616L 248 608L 248 600L 240 600L 232 600L 232 592L 232 584L 224 584L 216 584L 216 576L 216 568L 208 568L 200 568L 200 576L 200 584L 192 584L 184 584L 184 592L 184 600L 200 600L 216 600L 216 616L 216 632L 208 632L 200 632L 200 624L 200 616L 184 616L 168 616L 168 608L 168 600L 160 600L 152 600L 152 592L 152 584L 144 584L 136 584L 136 600L 136 616L 128 616L 120 616L 120 600L 120 584L 128 584L 136 584L 136 576L 136 568L 120 568L 104 568L 104 560L 104 552L 136 552L 168 552L 168 560L 168 568L 160 568L 152 568L 152 576L 152 584L 168 584L 184 584L 184 576L 184 568L 192 568L 200 568L 200 552L 200 536L 208 536L 216 536L 216 544L 216 552L 232 552L 248 552L 248 560L 248 568L 272 568L 296 568L 296 576L 296 584L 304 584L 312 584L 312 600L 312 616L 304 616L 296 616L 296 608L 296 600L 288 600L 280 600L 280 616L 280 632L 288 632L 296 632L 296 640L 296 648L 312 648L 328 648L 328 680L 328 712L 320 712L 312 712L 312 704L 312 696L 304 696L 296 696L 296 704L 296 712L 288 712L 280 712L 280 720L 280 728L 296 728L 312 728L 312 744L 312 760L 320 760L 328 760L 328 752L 328 744L 336 744L 344 744L 344 752L 344 760L 352 760L 360 760L 360 752L 360 744L 368 744L 376 744L 376 752L 376 760L 384 760L 392 760L 392 752L 392 744L 408 744L 424 744L 424 736L 424 728L 392 728L 360 728L 360 712L 360 696L 368 696L 376 696L 376 704L 376 712L 384 712L 392 712L 392 696L 392 680L 376 680L 360 680L 360 672L 360 664L 352 664L 344 664L 344 656L 344 648L 352 648L 360 648L 360 640L 360 632L 344 632L 328 632L 328 624L 328 616L 336 616L 344 616L 344 608L 344 600L 336 600L 328 600L 328 592L 328 584L 336 584L 344 584L 344 576L 344 568L 328 568L 312 568L 312 560L 312 552L 336 552L 360 552L 360 544L 360 536L 368 536L 376 536L 376 528L 376 520L 384 520L 392 520L 392 512L 392 504L 408 504L 424 504L 424 512L 424 520L 416 520L 408 520L 408 528L 408 536L 424 536L 440 536L 440 528L 440 520L 448 520L 456 520L 456 504L 456 488L 424 488L 392 488L 392 480L 392 472L 384 472L 376 472L 376 448L 376 424L 384 424L 392 424L 392 440L 392 456L 400 456L 408 456L 408 440L 408 424L 416 424L 424 424L 424 416L 424 408L 432 408L 440 408L 440 400L 440 392L 432 392L 424 392L 424 384L 424 376L 448 376L 472 376L 472 384L 472 392L 480 392L 488 392L 488 400L 488 408L 504 408L 520 408L 520 400L 520 392L 528 392L 536 392L 536 400L 536 408L 528 408L 520 408L 520 424L 520 440L 544 440L 568 440L 568 424L 568 408L 560 408L 552 408L 552 400L 552 392L 560 392L 568 392L 568 384L 568 376L 560 376L 552 376L 552 368L 552 360L 560 360L 568 360L 568 352L 568 344L 576 344L 584 344L 584 336L 584 328L 576 328L 568 328L 568 320L 568 312L 560 312L 552 312L 552 320L 552 328L 528 328L 504 328L 504 336L 504 344L 512 344L 520 344L 520 352L 520 360L 528 360L 536 360L 536 368L 536 376L 512 376L 488 376L 488 360L 488 344L 480 344L 472 344L 472 352L 472 360L 448 360L 424 360L 424 344L 424 328L 408 328L 392 328L 392 320L 392 312L 384 312L 376 312L 376 296L 376 280L 360 280L 344 280L 344 288L 344 296L 336 296L 328 296L 328 304L 328 312L 312 312L 296 312L 296 320L 296 328L 272 328L 248 328L 248 336L 248 344L 264 344L 280 344L 280 352L 280 360L 288 360L 296 360L 296 368L 296 376L 304 376L 312 376L 312 384L 312 392L 328 392L 344 392L 344 376L 344 360L 352 360L 360 360L 360 352L 360 344L 344 344L 328 344L 328 336L 328 328L 336 328L 344 328L 344 320L 344 312L 352 312L 360 312L 360 320L 360 328L 368 328L 376 328L 376 344L 376 360L 392 360L 408 360L 408 384L 408 408L 384 408L 360 408L 360 424L 360 440L 352 440L 344 440L 344 424L 344 408L 320 408L 296 408L 296 424L 296 440L 304 440L 312 440L 312 448L 312 456L 336 456L 360 456L 360 464L 360 472L 344 472L 328 472L 328 480L 328 488L 320 488L 312 488L 312 472L 312 456L 304 456L 296 456L 296 448L 296 440L 288 440L 280 440L 280 432L 280 424L 272 424L 264 424L 264 440L 264 456L 272 456L 280 456L 280 464L 280 472L 288 472L 296 472L 296 480L 296 488L 272 488L 248 488L 248 496L 248 504L 256 504L 264 504L 264 512L 264 520L 272 520L 280 520L 280 528L 280 536L 272 536L 264 536L 264 528L 264 520L 232 520L 200 520L 200 512L 200 504L 208 504L 216 504L 216 496L 216 488L 232 488L 248 488L 248 480L 248 472L 256 472L 264 472L 264 464L 264 456L 240 456L 216 456L 216 464L 216 472L 208 472L 200 472L 200 456L 200 440L 176 440L 152 440L 152 432L 152 424L 160 424L 168 424L 168 416L 168 408L 176 408L 184 408L 184 400L 184 392L 176 392L 168 392L 168 384L 168 376L 152 376L 136 376L 136 368L 136 360L 152 360L 168 360L 168 352L 168 344L 160 344L 152 344L 152 336L 152 328L 144 328L 136 328L 136 320L 136 312L 144 312L 152 312L 152 304L 152 296L 160 296L 168 296L 168 288L 168 280L 160 280L 152 280L 152 272L 152 264L 128 264L 104 264L 104 256L 104 248L 96 248L 88 248L 88 240L 88 232L 96 232L 104 232L 104 240L 104 248L 112 248L 120 248L 120 232L 120 216L 128 216L 136 216L 136 232L 136 248L 144 248L 152 248L 152 240L 152 232L 160 232L 168 232L 168 224L 168 216L 160 216L 152 216L 152 208L 152 200L 160 200L 168 200L 168 208L 168 216L 176 216L 184 216L 184 240L 184 264L 176 264L 168 264L 168 272L 168 280L 176 280L 184 280L 184 288L 184 296L 176 296L 168 296L 168 304L 168 312L 184 312L 200 312L 200 328L 200 344L 208 344L 216 344L 216 336L 216 328L 224 328L 232 328L 232 320L 232 312L 224 312L 216 312L 216 304L 216 296L 208 296L 200 296L 200 288L 200 280L 208 280L 216 280L 216 272L 216 264L 208 264L 200 264L 200 256L 200 248L 208 248L 216 248L 216 256L 216 264L 232 264L 248 264L 248 280L 248 296L 264 296L 280 296L 280 304L 280 312L 288 312L 296 312L 296 280L 296 248L 288 248L 280 248L 280 256L 280 264L 272 264L 264 264L 264 256L 264 248L 256 248L 248 248L 248 232L 248 216L 240 216L 232 216L 232 224L 232 232L 224 232L 216 232L 216 224L 216 216L 224 216L 232 216L 232 200L 232 184L 224 184L 216 184L 216 176L 216 168L 208 168L 200 168L 200 160L 200 152L 208 152L 216 152L 216 160L 216 168L 224 168L 232 168L 232 160L 232 152L 240 152L 248 152L 248 144L 248 136L 240 136L 232 136L 232 128L 232 120L 240 120L 248 120L 248 112L 248 104L 240 104L 232 104L 232 96L 232 88L 240 88L 248 88L 248 80L 248 72L 256 72L 264 72L 264 80zM 216 112L 216 136L 208 136L 200 136L 200 112L 200 88L 208 88L 216 88L 216 112zM 472 112L 472 120L 448 120L 424 120L 424 128L 424 136L 440 136L 456 136L 456 144L 456 152L 464 152L 472 152L 472 160L 472 168L 464 168L 456 168L 456 160L 456 152L 448 152L 440 152L 440 160L 440 168L 432 168L 424 168L 424 152L 424 136L 416 136L 408 136L 408 152L 408 168L 400 168L 392 168L 392 144L 392 120L 400 120L 408 120L 408 112L 408 104L 440 104L 472 104L 472 112zM 552 112L 552 120L 560 120L 568 120L 568 128L 568 136L 560 136L 552 136L 552 128L 552 120L 536 120L 520 120L 520 112L 520 104L 536 104L 552 104L 552 112zM 536 160L 536 184L 512 184L 488 184L 488 160L 488 136L 512 136L 536 136L 536 160zM 728 160L 728 168L 720 168L 712 168L 712 160L 712 152L 720 152L 728 152L 728 160zM 840 224L 840 232L 832 232L 824 232L 824 224L 824 216L 832 216L 840 216L 840 224zM 936 224L 936 232L 944 232L 952 232L 952 240L 952 248L 936 248L 920 248L 920 256L 920 264L 912 264L 904 264L 904 256L 904 248L 912 248L 920 248L 920 240L 920 232L 896 232L 872 232L 872 240L 872 248L 880 248L 888 248L 888 256L 888 264L 880 264L 872 264L 872 256L 872 248L 864 248L 856 248L 856 232L 856 216L 896 216L 936 216L 936 224zM 888 320L 888 328L 880 328L 872 328L 872 320L 872 312L 880 312L 888 312L 888 320zM 952 368L 952 376L 944 376L 936 376L 936 368L 936 360L 944 360L 952 360L 952 368zM 728 400L 728 408L 720 408L 712 408L 712 400L 712 392L 720 392L 728 392L 728 400zM 136 464L 136 472L 128 472L 120 472L 120 464L 120 456L 128 456L 136 456L 136 464zM 168 464L 168 472L 160 472L 152 472L 152 464L 152 456L 160 456L 168 456L 168 464zM 824 480L 824 488L 816 488L 808 488L 808 480L 808 472L 816 472L 824 472L 824 480zM 936 488L 936 504L 928 504L 920 504L 920 496L 920 488L 912 488L 904 488L 904 480L 904 472L 920 472L 936 472L 936 488zM 184 512L 184 536L 160 536L 136 536L 136 512L 136 488L 160 488L 184 488L 184 512zM 376 496L 376 504L 368 504L 360 504L 360 512L 360 520L 352 520L 344 520L 344 504L 344 488L 360 488L 376 488L 376 496zM 888 512L 888 536L 864 536L 840 536L 840 512L 840 488L 864 488L 888 488L 888 512zM 328 512L 328 520L 320 520L 312 520L 312 528L 312 536L 304 536L 296 536L 296 520L 296 504L 312 504L 328 504L 328 512zM 744 544L 744 552L 736 552L 728 552L 728 544L 728 536L 736 536L 744 536L 744 544zM 904 560L 904 568L 912 568L 920 568L 920 576L 920 584L 912 584L 904 584L 904 592L 904 600L 896 600L 888 600L 888 576L 888 552L 896 552L 904 552L 904 560zM 744 608L 744 616L 736 616L 728 616L 728 608L 728 600L 736 600L 744 600L 744 608zM 168 720L 168 728L 160 728L 152 728L 152 736L 152 744L 160 744L 168 744L 168 752L 168 760L 160 760L 152 760L 152 768L 152 776L 160 776L 168 776L 168 784L 168 792L 160 792L 152 792L 152 784L 152 776L 144 776L 136 776L 136 792L 136 808L 120 808L 104 808L 104 800L 104 792L 112 792L 120 792L 120 784L 120 776L 128 776L 136 776L 136 768L 136 760L 144 760L 152 760L 152 752L 152 744L 136 744L 120 744L 120 752L 120 760L 112 760L 104 760L 104 752L 104 744L 96 744L 88 744L 88 736L 88 728L 96 728L 104 728L 104 736L 104 744L 112 744L 120 744L 120 736L 120 728L 136 728L 152 728L 152 720L 152 712L 160 712L 168 712L 168 720zM 952 752L 952 760L 944 760L 936 760L 936 768L 936 776L 928 776L 920 776L 920 768L 920 760L 928 760L 936 760L 936 752L 936 744L 944 744L 952 744L 952 752zM 88 800L 88 808L 80 808L 72 808L 72 800L 72 792L 80 792L 88 792L 88 800zM 536 864L 536 888L 512 888L 488 888L 488 864L 488 840L 512 840L 536 840L 536 864zM 888 864L 888 888L 864 888L 840 888L 840 864L 840 840L 864 840L 888 840L 888 864zM 408 896L 408 904L 400 904L 392 904L 392 912L 392 920L 384 920L 376 920L 376 904L 376 888L 392 888L 408 888L 408 896zM 440 912L 440 920L 432 920L 424 920L 424 912L 424 904L 432 904L 440 904L 440 912zM 872 912L 872 920L 888 920L 904 920L 904 928L 904 936L 888 936L 872 936L 872 928L 872 920L 864 920L 856 920L 856 928L 856 936L 848 936L 840 936L 840 928L 840 920L 848 920L 856 920L 856 912L 856 904L 864 904L 872 904L 872 912zM 552 928L 552 936L 536 936L 520 936L 520 928L 520 920L 536 920L 552 920L 552 928zM 584 928L 584 936L 576 936L 568 936L 568 928L 568 920L 576 920L 584 920L 584 928z"/>
<path style="stroke:none; fill:#000000" d="M 312 112L 312 120L 280 120L 248 120L 248 128L 248 136L 280 136L 312 136L 312 152L 312 168L 304 168L 296 168L 296 160L 296 152L 288 152L 280 152L 280 160L 280 168L 288 168L 296 168L 296 176L 296 184L 288 184L 280 184L 280 208L 280 232L 288 232L 296 232L 296 240L 296 248L 304 248L 312 248L 312 224L 312 200L 320 200L 328 200L 328 216L 328 232L 336 232L 344 232L 344 216L 344 200L 336 200L 328 200L 328 192L 328 184L 320 184L 312 184L 312 176L 312 168L 320 168L 328 168L 328 160L 328 152L 336 152L 344 152L 344 160L 344 168L 352 168L 360 168L 360 160L 360 152L 352 152L 344 152L 344 144L 344 136L 328 136L 312 136L 312 128L 312 120L 320 120L 328 120L 328 112L 328 104L 320 104L 312 104L 312 112z"/>
<path style="stroke:none; fill:#000000" d="M 248 160L 248 168L 240 168L 232 168L 232 176L 232 184L 240 184L 248 184L 248 200L 248 216L 256 216L 264 216L 264 184L 264 152L 256 152L 248 152L 248 160z"/>
<path style="stroke:none; fill:#000000" d="M 760 160L 760 168L 768 168L 776 168L 776 160L 776 152L 768 152L 760 152L 760 160z"/>
<path style="stroke:none; fill:#000000" d="M 392 208L 392 216L 376 216L 360 216L 360 232L 360 248L 376 248L 392 248L 392 256L 392 264L 400 264L 408 264L 408 256L 408 248L 400 248L 392 248L 392 240L 392 232L 400 232L 408 232L 408 216L 408 200L 400 200L 392 200L 392 208z"/>
<path style="stroke:none; fill:#000000" d="M 616 224L 616 232L 624 232L 632 232L 632 240L 632 248L 616 248L 600 248L 600 256L 600 264L 584 264L 568 264L 568 272L 568 280L 560 280L 552 280L 552 288L 552 296L 536 296L 520 296L 520 288L 520 280L 528 280L 536 280L 536 272L 536 264L 528 264L 520 264L 520 256L 520 248L 512 248L 504 248L 504 256L 504 264L 496 264L 488 264L 488 272L 488 280L 496 280L 504 280L 504 296L 504 312L 496 312L 488 312L 488 320L 488 328L 496 328L 504 328L 504 320L 504 312L 528 312L 552 312L 552 304L 552 296L 560 296L 568 296L 568 288L 568 280L 576 280L 584 280L 584 288L 584 296L 600 296L 616 296L 616 304L 616 312L 608 312L 600 312L 600 320L 600 328L 624 328L 648 328L 648 320L 648 312L 640 312L 632 312L 632 296L 632 280L 616 280L 600 280L 600 272L 600 264L 616 264L 632 264L 632 256L 632 248L 640 248L 648 248L 648 240L 648 232L 664 232L 680 232L 680 240L 680 248L 672 248L 664 248L 664 256L 664 264L 672 264L 680 264L 680 280L 680 296L 688 296L 696 296L 696 304L 696 312L 720 312L 744 312L 744 304L 744 296L 752 296L 760 296L 760 288L 760 280L 752 280L 744 280L 744 288L 744 296L 720 296L 696 296L 696 288L 696 280L 712 280L 728 280L 728 272L 728 264L 712 264L 696 264L 696 248L 696 232L 688 232L 680 232L 680 224L 680 216L 648 216L 616 216L 616 224z"/>
<path style="stroke:none; fill:#000000" d="M 712 232L 712 248L 728 248L 744 248L 744 240L 744 232L 752 232L 760 232L 760 224L 760 216L 736 216L 712 216L 712 232z"/>
<path style="stroke:none; fill:#000000" d="M 776 224L 776 232L 784 232L 792 232L 792 224L 792 216L 784 216L 776 216L 776 224z"/>
<path style="stroke:none; fill:#000000" d="M 424 248L 424 264L 432 264L 440 264L 440 272L 440 280L 432 280L 424 280L 424 288L 424 296L 416 296L 408 296L 408 288L 408 280L 400 280L 392 280L 392 296L 392 312L 408 312L 424 312L 424 320L 424 328L 432 328L 440 328L 440 336L 440 344L 456 344L 472 344L 472 328L 472 312L 464 312L 456 312L 456 304L 456 296L 464 296L 472 296L 472 288L 472 280L 464 280L 456 280L 456 272L 456 264L 464 264L 472 264L 472 256L 472 248L 464 248L 456 248L 456 240L 456 232L 440 232L 424 232L 424 248zM 440 304L 440 312L 448 312L 456 312L 456 320L 456 328L 448 328L 440 328L 440 320L 440 312L 432 312L 424 312L 424 304L 424 296L 432 296L 440 296L 440 304z"/>
<path style="stroke:none; fill:#000000" d="M 152 256L 152 264L 160 264L 168 264L 168 256L 168 248L 160 248L 152 248L 152 256z"/>
<path style="stroke:none; fill:#000000" d="M 328 272L 328 280L 320 280L 312 280L 312 288L 312 296L 320 296L 328 296L 328 288L 328 280L 336 280L 344 280L 344 272L 344 264L 336 264L 328 264L 328 272z"/>
<path style="stroke:none; fill:#000000" d="M 152 320L 152 328L 160 328L 168 328L 168 336L 168 344L 176 344L 184 344L 184 336L 184 328L 176 328L 168 328L 168 320L 168 312L 160 312L 152 312L 152 320z"/>
<path style="stroke:none; fill:#000000" d="M 664 320L 664 328L 672 328L 680 328L 680 336L 680 344L 696 344L 712 344L 712 336L 712 328L 696 328L 680 328L 680 320L 680 312L 672 312L 664 312L 664 320z"/>
<path style="stroke:none; fill:#000000" d="M 728 336L 728 344L 736 344L 744 344L 744 336L 744 328L 736 328L 728 328L 728 336z"/>
<path style="stroke:none; fill:#000000" d="M 584 352L 584 360L 576 360L 568 360L 568 368L 568 376L 576 376L 584 376L 584 384L 584 392L 576 392L 568 392L 568 400L 568 408L 592 408L 616 408L 616 392L 616 376L 600 376L 584 376L 584 368L 584 360L 592 360L 600 360L 600 352L 600 344L 592 344L 584 344L 584 352z"/>
<path style="stroke:none; fill:#000000" d="M 184 376L 184 392L 200 392L 216 392L 216 400L 216 408L 200 408L 184 408L 184 416L 184 424L 192 424L 200 424L 200 432L 200 440L 216 440L 232 440L 232 432L 232 424L 240 424L 248 424L 248 416L 248 408L 256 408L 264 408L 264 384L 264 360L 224 360L 184 360L 184 376zM 232 416L 232 424L 224 424L 216 424L 216 416L 216 408L 224 408L 232 408L 232 416z"/>
<path style="stroke:none; fill:#000000" d="M 280 392L 280 408L 288 408L 296 408L 296 392L 296 376L 288 376L 280 376L 280 392z"/>
<path style="stroke:none; fill:#000000" d="M 360 384L 360 392L 368 392L 376 392L 376 384L 376 376L 368 376L 360 376L 360 384z"/>
<path style="stroke:none; fill:#000000" d="M 456 400L 456 408L 464 408L 472 408L 472 416L 472 424L 448 424L 424 424L 424 448L 424 472L 440 472L 456 472L 456 480L 456 488L 464 488L 472 488L 472 504L 472 520L 464 520L 456 520L 456 536L 456 552L 440 552L 424 552L 424 560L 424 568L 408 568L 392 568L 392 552L 392 536L 384 536L 376 536L 376 544L 376 552L 368 552L 360 552L 360 568L 360 584L 352 584L 344 584L 344 592L 344 600L 360 600L 376 600L 376 608L 376 616L 368 616L 360 616L 360 624L 360 632L 368 632L 376 632L 376 640L 376 648L 392 648L 408 648L 408 664L 408 680L 416 680L 424 680L 424 664L 424 648L 440 648L 456 648L 456 656L 456 664L 464 664L 472 664L 472 672L 472 680L 480 680L 488 680L 488 672L 488 664L 496 664L 504 664L 504 656L 504 648L 496 648L 488 648L 488 640L 488 632L 480 632L 472 632L 472 624L 472 616L 496 616L 520 616L 520 632L 520 648L 536 648L 552 648L 552 640L 552 632L 560 632L 568 632L 568 624L 568 616L 560 616L 552 616L 552 624L 552 632L 544 632L 536 632L 536 616L 536 600L 528 600L 520 600L 520 592L 520 584L 536 584L 552 584L 552 576L 552 568L 536 568L 520 568L 520 576L 520 584L 512 584L 504 584L 504 568L 504 552L 536 552L 568 552L 568 544L 568 536L 576 536L 584 536L 584 544L 584 552L 592 552L 600 552L 600 544L 600 536L 608 536L 616 536L 616 512L 616 488L 608 488L 600 488L 600 496L 600 504L 592 504L 584 504L 584 496L 584 488L 576 488L 568 488L 568 496L 568 504L 560 504L 552 504L 552 488L 552 472L 560 472L 568 472L 568 464L 568 456L 536 456L 504 456L 504 440L 504 424L 496 424L 488 424L 488 416L 488 408L 480 408L 472 408L 472 400L 472 392L 464 392L 456 392L 456 400zM 488 464L 488 472L 480 472L 472 472L 472 464L 472 456L 480 456L 488 456L 488 464zM 536 512L 536 536L 512 536L 488 536L 488 512L 488 488L 512 488L 536 488L 536 512zM 568 528L 568 536L 560 536L 552 536L 552 528L 552 520L 560 520L 568 520L 568 528zM 600 528L 600 536L 592 536L 584 536L 584 528L 584 520L 592 520L 600 520L 600 528zM 488 560L 488 568L 472 568L 456 568L 456 560L 456 552L 472 552L 488 552L 488 560zM 392 576L 392 584L 384 584L 376 584L 376 576L 376 568L 384 568L 392 568L 392 576zM 440 576L 440 584L 448 584L 456 584L 456 608L 456 632L 448 632L 440 632L 440 624L 440 616L 416 616L 392 616L 392 624L 392 632L 384 632L 376 632L 376 624L 376 616L 384 616L 392 616L 392 608L 392 600L 416 600L 440 600L 440 592L 440 584L 432 584L 424 584L 424 576L 424 568L 432 568L 440 568L 440 576zM 504 592L 504 600L 488 600L 472 600L 472 592L 472 584L 488 584L 504 584L 504 592zM 424 640L 424 648L 416 648L 408 648L 408 640L 408 632L 416 632L 424 632L 424 640zM 488 656L 488 664L 480 664L 472 664L 472 656L 472 648L 480 648L 488 648L 488 656z"/>
<path style="stroke:none; fill:#000000" d="M 504 512L 504 520L 512 520L 520 520L 520 512L 520 504L 512 504L 504 504L 504 512z"/>
<path style="stroke:none; fill:#000000" d="M 584 456L 584 472L 592 472L 600 472L 600 464L 600 456L 608 456L 616 456L 616 448L 616 440L 600 440L 584 440L 584 456z"/>
<path style="stroke:none; fill:#000000" d="M 600 576L 600 584L 608 584L 616 584L 616 576L 616 568L 608 568L 600 568L 600 576z"/>
<path style="stroke:none; fill:#000000" d="M 792 576L 792 584L 800 584L 808 584L 808 592L 808 600L 816 600L 824 600L 824 592L 824 584L 840 584L 856 584L 856 576L 856 568L 840 568L 824 568L 824 576L 824 584L 816 584L 808 584L 808 576L 808 568L 800 568L 792 568L 792 576z"/>
<path style="stroke:none; fill:#000000" d="M 248 592L 248 600L 256 600L 264 600L 264 592L 264 584L 256 584L 248 584L 248 592z"/>
<path style="stroke:none; fill:#000000" d="M 568 592L 568 600L 576 600L 584 600L 584 608L 584 616L 592 616L 600 616L 600 608L 600 600L 592 600L 584 600L 584 592L 584 584L 576 584L 568 584L 568 592z"/>
<path style="stroke:none; fill:#000000" d="M 584 640L 584 648L 576 648L 568 648L 568 656L 568 664L 592 664L 616 664L 616 648L 616 632L 600 632L 584 632L 584 640z"/>
<path style="stroke:none; fill:#000000" d="M 760 648L 760 664L 744 664L 728 664L 728 672L 728 680L 720 680L 712 680L 712 696L 712 712L 720 712L 728 712L 728 720L 728 728L 720 728L 712 728L 712 736L 712 744L 704 744L 696 744L 696 712L 696 680L 688 680L 680 680L 680 720L 680 760L 672 760L 664 760L 664 768L 664 776L 672 776L 680 776L 680 784L 680 792L 696 792L 712 792L 712 784L 712 776L 720 776L 728 776L 728 768L 728 760L 736 760L 744 760L 744 752L 744 744L 736 744L 728 744L 728 736L 728 728L 736 728L 744 728L 744 720L 744 712L 752 712L 760 712L 760 720L 760 728L 768 728L 776 728L 776 736L 776 744L 784 744L 792 744L 792 728L 792 712L 800 712L 808 712L 808 720L 808 728L 816 728L 824 728L 824 720L 824 712L 840 712L 856 712L 856 704L 856 696L 840 696L 824 696L 824 688L 824 680L 816 680L 808 680L 808 688L 808 696L 800 696L 792 696L 792 688L 792 680L 784 680L 776 680L 776 688L 776 696L 760 696L 744 696L 744 688L 744 680L 752 680L 760 680L 760 672L 760 664L 776 664L 792 664L 792 656L 792 648L 784 648L 776 648L 776 640L 776 632L 768 632L 760 632L 760 648zM 744 704L 744 712L 736 712L 728 712L 728 704L 728 696L 736 696L 744 696L 744 704zM 824 704L 824 712L 816 712L 808 712L 808 704L 808 696L 816 696L 824 696L 824 704zM 696 768L 696 776L 688 776L 680 776L 680 768L 680 760L 688 760L 696 760L 696 768z"/>
<path style="stroke:none; fill:#000000" d="M 296 672L 296 680L 288 680L 280 680L 280 688L 280 696L 288 696L 296 696L 296 688L 296 680L 304 680L 312 680L 312 672L 312 664L 304 664L 296 664L 296 672z"/>
<path style="stroke:none; fill:#000000" d="M 632 680L 632 696L 640 696L 648 696L 648 704L 648 712L 656 712L 664 712L 664 704L 664 696L 656 696L 648 696L 648 688L 648 680L 656 680L 664 680L 664 672L 664 664L 648 664L 632 664L 632 680z"/>
<path style="stroke:none; fill:#000000" d="M 424 752L 424 760L 432 760L 440 760L 440 768L 440 776L 432 776L 424 776L 424 784L 424 792L 440 792L 456 792L 456 784L 456 776L 464 776L 472 776L 472 768L 472 760L 464 760L 456 760L 456 752L 456 744L 440 744L 424 744L 424 752z"/>
<path style="stroke:none; fill:#000000" d="M 280 768L 280 776L 296 776L 312 776L 312 768L 312 760L 296 760L 280 760L 280 768z"/>
<path style="stroke:none; fill:#000000" d="M 376 832L 376 840L 384 840L 392 840L 392 832L 392 824L 384 824L 376 824L 376 832z"/>
<path style="stroke:none; fill:#000000" d="M 664 832L 664 840L 672 840L 680 840L 680 848L 680 856L 696 856L 712 856L 712 864L 712 872L 720 872L 728 872L 728 880L 728 888L 736 888L 744 888L 744 896L 744 904L 752 904L 760 904L 760 896L 760 888L 752 888L 744 888L 744 880L 744 872L 752 872L 760 872L 760 864L 760 856L 752 856L 744 856L 744 848L 744 840L 728 840L 712 840L 712 832L 712 824L 688 824L 664 824L 664 832z"/>
<path style="stroke:none; fill:#000000" d="M 568 848L 568 856L 584 856L 600 856L 600 848L 600 840L 584 840L 568 840L 568 848z"/>
<path style="stroke:none; fill:#000000" d="M 680 912L 680 920L 704 920L 728 920L 728 912L 728 904L 704 904L 680 904L 680 912z"/>
<path style="stroke:none; fill:#000000" d="M 504 160L 504 168L 512 168L 520 168L 520 160L 520 152L 512 152L 504 152L 504 160z"/>
<path style="stroke:none; fill:#000000" d="M 152 512L 152 520L 160 520L 168 520L 168 512L 168 504L 160 504L 152 504L 152 512z"/>
<path style="stroke:none; fill:#000000" d="M 856 512L 856 520L 864 520L 872 520L 872 512L 872 504L 864 504L 856 504L 856 512z"/>
<path style="stroke:none; fill:#000000" d="M 504 864L 504 872L 512 872L 520 872L 520 864L 520 856L 512 856L 504 856L 504 864z"/>
<path style="stroke:none; fill:#000000" d="M 856 864L 856 872L 864 872L 872 872L 872 864L 872 856L 864 856L 856 856L 856 864z"/>
<path style="stroke:none; fill:#000000" d="M 408 64L 408 72L 440 72L 472 72L 472 64L 472 56L 440 56L 408 56L 408 64z"/>
<path style="stroke:none; fill:#000000" d="M 504 64L 504 72L 512 72L 520 72L 520 64L 520 56L 512 56L 504 56L 504 64z"/>
<path style="stroke:none; fill:#000000" d="M 568 64L 568 72L 576 72L 584 72L 584 80L 584 88L 600 88L 616 88L 616 96L 616 104L 608 104L 600 104L 600 112L 600 120L 608 120L 616 120L 616 112L 616 104L 632 104L 648 104L 648 96L 648 88L 656 88L 664 88L 664 80L 664 72L 648 72L 632 72L 632 64L 632 56L 624 56L 616 56L 616 64L 616 72L 600 72L 584 72L 584 64L 584 56L 576 56L 568 56L 568 64z"/>
<path style="stroke:none; fill:#000000" d="M 856 112L 856 168L 912 168L 968 168L 968 112L 968 56L 912 56L 856 56L 856 112zM 952 112L 952 152L 912 152L 872 152L 872 112L 872 72L 912 72L 952 72L 952 112z"/>
<path style="stroke:none; fill:#000000" d="M 887.5 88.3C 887.2 89 887.1 99.7 887.2 112L 887.5 134.5L 911 134.5L 934.5 134.5L 934.5 111L 934.5 87.5L 911.2 87.2C 892.9 87 887.8 87.2 887.5 88.3z"/>
<path style="stroke:none; fill:#000000" d="M 680 80L 680 88L 688 88L 696 88L 696 80L 696 72L 688 72L 680 72L 680 80z"/>
<path style="stroke:none; fill:#000000" d="M 56 192L 56 200L 64 200L 72 200L 72 192L 72 184L 64 184L 56 184L 56 192z"/>
<path style="stroke:none; fill:#000000" d="M 56 320L 56 328L 64 328L 72 328L 72 336L 72 344L 64 344L 56 344L 56 352L 56 360L 80 360L 104 360L 104 336L 104 312L 80 312L 56 312L 56 320z"/>
<path style="stroke:none; fill:#000000" d="M 824 336L 824 344L 816 344L 808 344L 808 360L 808 376L 792 376L 776 376L 776 384L 776 392L 768 392L 760 392L 760 400L 760 408L 768 408L 776 408L 776 400L 776 392L 792 392L 808 392L 808 384L 808 376L 816 376L 824 376L 824 392L 824 408L 840 408L 856 408L 856 400L 856 392L 864 392L 872 392L 872 400L 872 408L 880 408L 888 408L 888 392L 888 376L 872 376L 856 376L 856 368L 856 360L 840 360L 824 360L 824 352L 824 344L 832 344L 840 344L 840 336L 840 328L 832 328L 824 328L 824 336zM 856 384L 856 392L 848 392L 840 392L 840 384L 840 376L 848 376L 856 376L 856 384z"/>
<path style="stroke:none; fill:#000000" d="M 904 416L 904 424L 912 424L 920 424L 920 416L 920 408L 912 408L 904 408L 904 416z"/>
<path style="stroke:none; fill:#000000" d="M 56 576L 56 584L 64 584L 72 584L 72 592L 72 600L 64 600L 56 600L 56 608L 56 616L 64 616L 72 616L 72 608L 72 600L 80 600L 88 600L 88 592L 88 584L 80 584L 72 584L 72 576L 72 568L 64 568L 56 568L 56 576z"/>
<path style="stroke:none; fill:#000000" d="M 216 856L 216 872L 224 872L 232 872L 232 856L 232 840L 224 840L 216 840L 216 856z"/>
<path style="stroke:none; fill:#000000" d="M 56 912L 56 968L 112 968L 168 968L 168 912L 168 856L 112 856L 56 856L 56 912zM 152 912L 152 952L 112 952L 72 952L 72 912L 72 872L 112 872L 152 872L 152 912z"/>
<path style="stroke:none; fill:#000000" d="M 87.5 888.3C 87.2 889 87.1 899.7 87.2 912L 87.5 934.5L 111 934.5L 134.5 934.5L 134.5 911L 134.5 887.5L 111.2 887.2C 92.9 887 87.8 887.2 87.5 888.3z"/>
<path style="stroke:none; fill:#000000" d="M 184 904L 184 936L 192 936L 200 936L 200 944L 200 952L 192 952L 184 952L 184 960L 184 968L 192 968L 200 968L 200 960L 200 952L 208 952L 216 952L 216 960L 216 968L 224 968L 232 968L 232 944L 232 920L 216 920L 200 920L 200 912L 200 904L 232 904L 264 904L 264 928L 264 952L 256 952L 248 952L 248 960L 248 968L 256 968L 264 968L 264 960L 264 952L 280 952L 296 952L 296 960L 296 968L 304 968L 312 968L 312 960L 312 952L 304 952L 296 952L 296 944L 296 936L 304 936L 312 936L 312 928L 312 920L 328 920L 344 920L 344 912L 344 904L 336 904L 328 904L 328 888L 328 872L 320 872L 312 872L 312 880L 312 888L 304 888L 296 888L 296 896L 296 904L 280 904L 264 904L 264 896L 264 888L 272 888L 280 888L 280 880L 280 872L 264 872L 248 872L 248 880L 248 888L 224 888L 200 888L 200 880L 200 872L 192 872L 184 872L 184 904zM 296 928L 296 936L 288 936L 280 936L 280 928L 280 920L 288 920L 296 920L 296 928z"/>
<path style="stroke:none; fill:#000000" d="M 616 928L 616 936L 624 936L 632 936L 632 928L 632 920L 624 920L 616 920L 616 928z"/>
<path style="stroke:none; fill:#000000" d="M 344 944L 344 952L 336 952L 328 952L 328 960L 328 968L 352 968L 376 968L 376 960L 376 952L 368 952L 360 952L 360 944L 360 936L 352 936L 344 936L 344 944z"/>
<path style="stroke:none; fill:#000000" d="M 600 960L 600 968L 616 968L 632 968L 632 960L 632 952L 616 952L 600 952L 600 960z"/>
<path style="stroke:none; fill:#000000" d="M 792 960L 792 968L 800 968L 808 968L 808 960L 808 952L 800 952L 792 952L 792 960z"/>
</g>
</g>
</svg>