<?xml version="1.0" encoding="UTF-8" standalone="yes"?>
<!-- Created with sK1/UniConvertor (http://sk1project.org/) -->
<svg xmlns="http://www.w3.org/2000/svg" xmlns:xlink="http://www.w3.org/1999/xlink"
  width="800pt" height="800pt" viewBox="0 0 800 800"
  fill-rule="evenodd">
<g>
<g>
<path style="stroke:none; fill:#000000" d="M 75 110L 75 145L 110 145L 145 145L 145 110L 145 75L 110 75L 75 75L 75 110zM 135 110L 135 135L 110 135L 85 135L 85 110L 85 85L 110 85L 135 85L 135 110z"/>
<path style="stroke:none; fill:#000000" d="M 95 110L 95 125L 110 125L 125 125L 125 110L 125 95L 110 95L 95 95L 95 110z"/>
<path style="stroke:none; fill:#000000" d="M 215 80L 215 85L 205 85L 195 85L 195 90L 195 95L 200 95L 205 95L 205 100L 205 105L 200 105L 195 105L 195 110L 195 115L 190 115L 185 115L 185 120L 185 125L 180 125L 175 125L 175 115L 175 105L 180 105L 185 105L 185 95L 185 85L 175 85L 165 85L 165 90L 165 95L 160 95L 155 95L 155 125L 155 155L 165 155L 175 155L 175 160L 175 165L 160 165L 145 165L 145 160L 145 155L 120 155L 95 155L 95 160L 95 165L 90 165L 85 165L 85 160L 85 155L 80 155L 75 155L 75 160L 75 165L 80 165L 85 165L 85 175L 85 185L 80 185L 75 185L 75 205L 75 225L 85 225L 95 225L 95 240L 95 255L 85 255L 75 255L 75 270L 75 285L 80 285L 85 285L 85 300L 85 315L 90 315L 95 315L 95 320L 95 325L 85 325L 75 325L 75 330L 75 335L 80 335L 85 335L 85 345L 85 355L 90 355L 95 355L 95 360L 95 365L 85 365L 75 365L 75 375L 75 385L 80 385L 85 385L 85 380L 85 375L 95 375L 105 375L 105 370L 105 365L 110 365L 115 365L 115 375L 115 385L 105 385L 95 385L 95 400L 95 415L 90 415L 85 415L 85 405L 85 395L 80 395L 75 395L 75 415L 75 435L 80 435L 85 435L 85 445L 85 455L 80 455L 75 455L 75 465L 75 475L 80 475L 85 475L 85 480L 85 485L 80 485L 75 485L 75 490L 75 495L 80 495L 85 495L 85 490L 85 485L 90 485L 95 485L 95 495L 95 505L 90 505L 85 505L 85 510L 85 515L 80 515L 75 515L 75 535L 75 555L 80 555L 85 555L 85 560L 85 565L 80 565L 75 565L 75 575L 75 585L 80 585L 85 585L 85 595L 85 605L 95 605L 105 605L 105 610L 105 615L 100 615L 95 615L 95 620L 95 625L 100 625L 105 625L 105 630L 105 635L 95 635L 85 635L 85 630L 85 625L 80 625L 75 625L 75 630L 75 635L 80 635L 85 635L 85 640L 85 645L 95 645L 105 645L 105 640L 105 635L 110 635L 115 635L 115 640L 115 645L 120 645L 125 645L 125 640L 125 635L 120 635L 115 635L 115 620L 115 605L 120 605L 125 605L 125 615L 125 625L 135 625L 145 625L 145 630L 145 635L 140 635L 135 635L 135 640L 135 645L 145 645L 155 645L 155 650L 155 655L 160 655L 165 655L 165 660L 165 665L 160 665L 155 665L 155 685L 155 705L 160 705L 165 705L 165 695L 165 685L 175 685L 185 685L 185 695L 185 705L 190 705L 195 705L 195 695L 195 685L 190 685L 185 685L 185 680L 185 675L 190 675L 195 675L 195 670L 195 665L 205 665L 215 665L 215 660L 215 655L 220 655L 225 655L 225 660L 225 665L 230 665L 235 665L 235 660L 235 655L 230 655L 225 655L 225 650L 225 645L 220 645L 215 645L 215 640L 215 635L 210 635L 205 635L 205 630L 205 625L 215 625L 225 625L 225 630L 225 635L 235 635L 245 635L 245 640L 245 645L 255 645L 265 645L 265 650L 265 655L 255 655L 245 655L 245 660L 245 665L 255 665L 265 665L 265 660L 265 655L 270 655L 275 655L 275 645L 275 635L 280 635L 285 635L 285 630L 285 625L 290 625L 295 625L 295 620L 295 615L 290 615L 285 615L 285 610L 285 605L 295 605L 305 605L 305 600L 305 595L 310 595L 315 595L 315 590L 315 585L 320 585L 325 585L 325 595L 325 605L 330 605L 335 605L 335 610L 335 615L 330 615L 325 615L 325 620L 325 625L 320 625L 315 625L 315 635L 315 645L 310 645L 305 645L 305 650L 305 655L 300 655L 295 655L 295 650L 295 645L 290 645L 285 645L 285 655L 285 665L 280 665L 275 665L 275 675L 275 685L 270 685L 265 685L 265 680L 265 675L 255 675L 245 675L 245 685L 245 695L 240 695L 235 695L 235 685L 235 675L 220 675L 205 675L 205 680L 205 685L 215 685L 225 685L 225 690L 225 695L 215 695L 205 695L 205 705L 205 715L 195 715L 185 715L 185 720L 185 725L 205 725L 225 725L 225 720L 225 715L 235 715L 245 715L 245 720L 245 725L 260 725L 275 725L 275 720L 275 715L 280 715L 285 715L 285 710L 285 705L 290 705L 295 705L 295 695L 295 685L 290 685L 285 685L 285 680L 285 675L 300 675L 315 675L 315 680L 315 685L 310 685L 305 685L 305 695L 305 705L 310 705L 315 705L 315 710L 315 715L 310 715L 305 715L 305 720L 305 725L 310 725L 315 725L 315 720L 315 715L 325 715L 335 715L 335 720L 335 725L 340 725L 345 725L 345 720L 345 715L 350 715L 355 715L 355 720L 355 725L 375 725L 395 725L 395 710L 395 695L 405 695L 415 695L 415 690L 415 685L 425 685L 435 685L 435 700L 435 715L 425 715L 415 715L 415 720L 415 725L 425 725L 435 725L 435 720L 435 715L 445 715L 455 715L 455 720L 455 725L 460 725L 465 725L 465 720L 465 715L 470 715L 475 715L 475 720L 475 725L 480 725L 485 725L 485 720L 485 715L 490 715L 495 715L 495 710L 495 705L 490 705L 485 705L 485 710L 485 715L 480 715L 475 715L 475 705L 475 695L 465 695L 455 695L 455 690L 455 685L 450 685L 445 685L 445 670L 445 655L 450 655L 455 655L 455 660L 455 665L 460 665L 465 665L 465 670L 465 675L 480 675L 495 675L 495 680L 495 685L 490 685L 485 685L 485 690L 485 695L 500 695L 515 695L 515 705L 515 715L 520 715L 525 715L 525 720L 525 725L 550 725L 575 725L 575 720L 575 715L 565 715L 555 715L 555 710L 555 705L 560 705L 565 705L 565 690L 565 675L 570 675L 575 675L 575 680L 575 685L 580 685L 585 685L 585 690L 585 695L 580 695L 575 695L 575 700L 575 705L 580 705L 585 705L 585 710L 585 715L 595 715L 605 715L 605 720L 605 725L 655 725L 705 725L 705 720L 705 715L 710 715L 715 715L 715 700L 715 685L 720 685L 725 685L 725 675L 725 665L 720 665L 715 665L 715 660L 715 655L 720 655L 725 655L 725 640L 725 625L 720 625L 715 625L 715 620L 715 615L 720 615L 725 615L 725 610L 725 605L 720 605L 715 605L 715 595L 715 585L 710 585L 705 585L 705 580L 705 575L 715 575L 725 575L 725 570L 725 565L 715 565L 705 565L 705 560L 705 555L 715 555L 725 555L 725 550L 725 545L 720 545L 715 545L 715 540L 715 535L 720 535L 725 535L 725 525L 725 515L 720 515L 715 515L 715 520L 715 525L 710 525L 705 525L 705 520L 705 515L 700 515L 695 515L 695 510L 695 505L 685 505L 675 505L 675 500L 675 495L 680 495L 685 495L 685 490L 685 485L 695 485L 705 485L 705 480L 705 475L 710 475L 715 475L 715 485L 715 495L 720 495L 725 495L 725 480L 725 465L 715 465L 705 465L 705 470L 705 475L 700 475L 695 475L 695 460L 695 445L 705 445L 715 445L 715 450L 715 455L 720 455L 725 455L 725 450L 725 445L 720 445L 715 445L 715 435L 715 425L 710 425L 705 425L 705 420L 705 415L 715 415L 725 415L 725 410L 725 405L 720 405L 715 405L 715 400L 715 395L 705 395L 695 395L 695 410L 695 425L 690 425L 685 425L 685 400L 685 375L 690 375L 695 375L 695 380L 695 385L 705 385L 715 385L 715 365L 715 345L 710 345L 705 345L 705 350L 705 355L 700 355L 695 355L 695 345L 695 335L 710 335L 725 335L 725 330L 725 325L 720 325L 715 325L 715 315L 715 305L 710 305L 705 305L 705 300L 705 295L 715 295L 725 295L 725 285L 725 275L 715 275L 705 275L 705 285L 705 295L 700 295L 695 295L 695 290L 695 285L 690 285L 685 285L 685 280L 685 275L 690 275L 695 275L 695 265L 695 255L 710 255L 725 255L 725 250L 725 245L 720 245L 715 245L 715 235L 715 225L 710 225L 705 225L 705 230L 705 235L 700 235L 695 235L 695 225L 695 215L 690 215L 685 215L 685 225L 685 235L 680 235L 675 235L 675 220L 675 205L 680 205L 685 205L 685 200L 685 195L 680 195L 675 195L 675 190L 675 185L 680 185L 685 185L 685 180L 685 175L 690 175L 695 175L 695 170L 695 165L 700 165L 705 165L 705 170L 705 175L 715 175L 725 175L 725 170L 725 165L 715 165L 705 165L 705 160L 705 155L 680 155L 655 155L 655 160L 655 165L 665 165L 675 165L 675 175L 675 185L 670 185L 665 185L 665 180L 665 175L 650 175L 635 175L 635 170L 635 165L 640 165L 645 165L 645 160L 645 155L 640 155L 635 155L 635 160L 635 165L 630 165L 625 165L 625 145L 625 125L 620 125L 615 125L 615 120L 615 115L 625 115L 635 115L 635 120L 635 125L 640 125L 645 125L 645 120L 645 115L 640 115L 635 115L 635 110L 635 105L 640 105L 645 105L 645 95L 645 85L 640 85L 635 85L 635 80L 635 75L 630 75L 625 75L 625 80L 625 85L 630 85L 635 85L 635 95L 635 105L 630 105L 625 105L 625 100L 625 95L 620 95L 615 95L 615 85L 615 75L 610 75L 605 75L 605 80L 605 85L 590 85L 575 85L 575 80L 575 75L 560 75L 545 75L 545 80L 545 85L 535 85L 525 85L 525 80L 525 75L 520 75L 515 75L 515 80L 515 85L 505 85L 495 85L 495 80L 495 75L 470 75L 445 75L 445 80L 445 85L 460 85L 475 85L 475 95L 475 105L 480 105L 485 105L 485 110L 485 115L 490 115L 495 115L 495 120L 495 125L 500 125L 505 125L 505 130L 505 135L 500 135L 495 135L 495 140L 495 145L 490 145L 485 145L 485 140L 485 135L 480 135L 475 135L 475 140L 475 145L 470 145L 465 145L 465 135L 465 125L 460 125L 455 125L 455 120L 455 115L 460 115L 465 115L 465 105L 465 95L 455 95L 445 95L 445 100L 445 105L 440 105L 435 105L 435 95L 435 85L 430 85L 425 85L 425 80L 425 75L 420 75L 415 75L 415 80L 415 85L 410 85L 405 85L 405 80L 405 75L 385 75L 365 75L 365 80L 365 85L 385 85L 405 85L 405 90L 405 95L 410 95L 415 95L 415 90L 415 85L 420 85L 425 85L 425 100L 425 115L 420 115L 415 115L 415 110L 415 105L 410 105L 405 105L 405 110L 405 115L 395 115L 385 115L 385 110L 385 105L 390 105L 395 105L 395 100L 395 95L 370 95L 345 95L 345 105L 345 115L 355 115L 365 115L 365 110L 365 105L 370 105L 375 105L 375 115L 375 125L 370 125L 365 125L 365 130L 365 135L 360 135L 355 135L 355 145L 355 155L 350 155L 345 155L 345 160L 345 165L 340 165L 335 165L 335 155L 335 145L 340 145L 345 145L 345 135L 345 125L 340 125L 335 125L 335 120L 335 115L 330 115L 325 115L 325 120L 325 125L 320 125L 315 125L 315 140L 315 155L 320 155L 325 155L 325 160L 325 165L 310 165L 295 165L 295 160L 295 155L 300 155L 305 155L 305 145L 305 135L 300 135L 295 135L 295 125L 295 115L 300 115L 305 115L 305 110L 305 105L 300 105L 295 105L 295 100L 295 95L 290 95L 285 95L 285 105L 285 115L 275 115L 265 115L 265 105L 265 95L 270 95L 275 95L 275 85L 275 75L 270 75L 265 75L 265 85L 265 95L 255 95L 245 95L 245 100L 245 105L 250 105L 255 105L 255 110L 255 115L 245 115L 235 115L 235 110L 235 105L 230 105L 225 105L 225 100L 225 95L 230 95L 235 95L 235 90L 235 85L 230 85L 225 85L 225 80L 225 75L 220 75L 215 75L 215 80zM 495 90L 495 95L 490 95L 485 95L 485 90L 485 85L 490 85L 495 85L 495 90zM 565 90L 565 95L 575 95L 585 95L 585 100L 585 105L 595 105L 605 105L 605 100L 605 95L 610 95L 615 95L 615 105L 615 115L 610 115L 605 115L 605 120L 605 125L 610 125L 615 125L 615 145L 615 165L 610 165L 605 165L 605 170L 605 175L 620 175L 635 175L 635 180L 635 185L 640 185L 645 185L 645 190L 645 195L 640 195L 635 195L 635 200L 635 205L 640 205L 645 205L 645 215L 645 225L 650 225L 655 225L 655 235L 655 245L 660 245L 665 245L 665 250L 665 255L 675 255L 685 255L 685 265L 685 275L 680 275L 675 275L 675 270L 675 265L 670 265L 665 265L 665 280L 665 295L 670 295L 675 295L 675 290L 675 285L 680 285L 685 285L 685 290L 685 295L 690 295L 695 295L 695 300L 695 305L 700 305L 705 305L 705 310L 705 315L 700 315L 695 315L 695 325L 695 335L 685 335L 675 335L 675 340L 675 345L 680 345L 685 345L 685 350L 685 355L 690 355L 695 355L 695 360L 695 365L 690 365L 685 365L 685 360L 685 355L 680 355L 675 355L 675 350L 675 345L 670 345L 665 345L 665 355L 665 365L 670 365L 675 365L 675 370L 675 375L 655 375L 635 375L 635 385L 635 395L 630 395L 625 395L 625 390L 625 385L 615 385L 605 385L 605 380L 605 375L 590 375L 575 375L 575 390L 575 405L 580 405L 585 405L 585 400L 585 395L 595 395L 605 395L 605 405L 605 415L 615 415L 625 415L 625 410L 625 405L 630 405L 635 405L 635 415L 635 425L 640 425L 645 425L 645 430L 645 435L 655 435L 665 435L 665 430L 665 425L 670 425L 675 425L 675 430L 675 435L 680 435L 685 435L 685 440L 685 445L 675 445L 665 445L 665 450L 665 455L 670 455L 675 455L 675 460L 675 465L 680 465L 685 465L 685 470L 685 475L 680 475L 675 475L 675 480L 675 485L 665 485L 655 485L 655 480L 655 475L 665 475L 675 475L 675 470L 675 465L 660 465L 645 465L 645 460L 645 455L 635 455L 625 455L 625 465L 625 475L 630 475L 635 475L 635 480L 635 485L 640 485L 645 485L 645 490L 645 495L 655 495L 665 495L 665 500L 665 505L 670 505L 675 505L 675 510L 675 515L 685 515L 695 515L 695 520L 695 525L 685 525L 675 525L 675 535L 675 545L 665 545L 655 545L 655 550L 655 555L 675 555L 695 555L 695 550L 695 545L 690 545L 685 545L 685 540L 685 535L 690 535L 695 535L 695 540L 695 545L 700 545L 705 545L 705 550L 705 555L 700 555L 695 555L 695 560L 695 565L 700 565L 705 565L 705 570L 705 575L 700 575L 695 575L 695 580L 695 585L 700 585L 705 585L 705 610L 705 635L 710 635L 715 635L 715 640L 715 645L 710 645L 705 645L 705 640L 705 635L 700 635L 695 635L 695 640L 695 645L 690 645L 685 645L 685 640L 685 635L 690 635L 695 635L 695 610L 695 585L 670 585L 645 585L 645 580L 645 575L 650 575L 655 575L 655 565L 655 555L 650 555L 645 555L 645 550L 645 545L 635 545L 625 545L 625 550L 625 555L 630 555L 635 555L 635 570L 635 585L 625 585L 615 585L 615 595L 615 605L 605 605L 595 605L 595 610L 595 615L 610 615L 625 615L 625 605L 625 595L 630 595L 635 595L 635 600L 635 605L 640 605L 645 605L 645 600L 645 595L 650 595L 655 595L 655 600L 655 605L 650 605L 645 605L 645 610L 645 615L 660 615L 675 615L 675 620L 675 625L 665 625L 655 625L 655 630L 655 635L 650 635L 645 635L 645 630L 645 625L 640 625L 635 625L 635 620L 635 615L 630 615L 625 615L 625 620L 625 625L 620 625L 615 625L 615 635L 615 645L 610 645L 605 645L 605 650L 605 655L 620 655L 635 655L 635 665L 635 675L 630 675L 625 675L 625 680L 625 685L 630 685L 635 685L 635 690L 635 695L 640 695L 645 695L 645 690L 645 685L 650 685L 655 685L 655 690L 655 695L 650 695L 645 695L 645 700L 645 705L 655 705L 665 705L 665 710L 665 715L 645 715L 625 715L 625 710L 625 705L 620 705L 615 705L 615 710L 615 715L 610 715L 605 715L 605 710L 605 705L 595 705L 585 705L 585 700L 585 695L 590 695L 595 695L 595 690L 595 685L 590 685L 585 685L 585 680L 585 675L 580 675L 575 675L 575 670L 575 665L 570 665L 565 665L 565 670L 565 675L 560 675L 555 675L 555 665L 555 655L 565 655L 575 655L 575 645L 575 635L 565 635L 555 635L 555 640L 555 645L 550 645L 545 645L 545 650L 545 655L 535 655L 525 655L 525 660L 525 665L 520 665L 515 665L 515 670L 515 675L 530 675L 545 675L 545 685L 545 695L 550 695L 555 695L 555 700L 555 705L 550 705L 545 705L 545 700L 545 695L 540 695L 535 695L 535 705L 535 715L 530 715L 525 715L 525 705L 525 695L 520 695L 515 695L 515 685L 515 675L 510 675L 505 675L 505 670L 505 665L 490 665L 475 665L 475 660L 475 655L 465 655L 455 655L 455 650L 455 645L 450 645L 445 645L 445 650L 445 655L 440 655L 435 655L 435 660L 435 665L 430 665L 425 665L 425 660L 425 655L 430 655L 435 655L 435 650L 435 645L 440 645L 445 645L 445 640L 445 635L 435 635L 425 635L 425 630L 425 625L 420 625L 415 625L 415 630L 415 635L 400 635L 385 635L 385 630L 385 625L 395 625L 405 625L 405 620L 405 615L 400 615L 395 615L 395 610L 395 605L 405 605L 415 605L 415 600L 415 595L 420 595L 425 595L 425 590L 425 585L 415 585L 405 585L 405 590L 405 595L 395 595L 385 595L 385 600L 385 605L 380 605L 375 605L 375 610L 375 615L 370 615L 365 615L 365 620L 365 625L 370 625L 375 625L 375 635L 375 645L 370 645L 365 645L 365 650L 365 655L 360 655L 355 655L 355 650L 355 645L 360 645L 365 645L 365 640L 365 635L 355 635L 345 635L 345 630L 345 625L 350 625L 355 625L 355 620L 355 615L 350 615L 345 615L 345 610L 345 605L 355 605L 365 605L 365 600L 365 595L 375 595L 385 595L 385 590L 385 585L 380 585L 375 585L 375 580L 375 575L 360 575L 345 575L 345 580L 345 585L 350 585L 355 585L 355 590L 355 595L 345 595L 335 595L 335 590L 335 585L 330 585L 325 585L 325 570L 325 555L 320 555L 315 555L 315 560L 315 565L 305 565L 295 565L 295 570L 295 575L 300 575L 305 575L 305 585L 305 595L 300 595L 295 595L 295 590L 295 585L 290 585L 285 585L 285 590L 285 595L 280 595L 275 595L 275 605L 275 615L 280 615L 285 615L 285 620L 285 625L 280 625L 275 625L 275 620L 275 615L 270 615L 265 615L 265 625L 265 635L 255 635L 245 635L 245 630L 245 625L 235 625L 225 625L 225 620L 225 615L 235 615L 245 615L 245 610L 245 605L 225 605L 205 605L 205 610L 205 615L 195 615L 185 615L 185 620L 185 625L 190 625L 195 625L 195 630L 195 635L 190 635L 185 635L 185 645L 185 655L 190 655L 195 655L 195 660L 195 665L 190 665L 185 665L 185 670L 185 675L 175 675L 165 675L 165 670L 165 665L 170 665L 175 665L 175 655L 175 645L 170 645L 165 645L 165 635L 165 625L 160 625L 155 625L 155 620L 155 615L 170 615L 185 615L 185 610L 185 605L 180 605L 175 605L 175 600L 175 595L 180 595L 185 595L 185 590L 185 585L 175 585L 165 585L 165 595L 165 605L 160 605L 155 605L 155 595L 155 585L 150 585L 145 585L 145 590L 145 595L 140 595L 135 595L 135 600L 135 605L 140 605L 145 605L 145 610L 145 615L 140 615L 135 615L 135 610L 135 605L 130 605L 125 605L 125 595L 125 585L 135 585L 145 585L 145 580L 145 575L 140 575L 135 575L 135 570L 135 565L 125 565L 115 565L 115 575L 115 585L 110 585L 105 585L 105 590L 105 595L 110 595L 115 595L 115 600L 115 605L 110 605L 105 605L 105 600L 105 595L 100 595L 95 595L 95 590L 95 585L 90 585L 85 585L 85 575L 85 565L 95 565L 105 565L 105 560L 105 555L 115 555L 125 555L 125 530L 125 505L 120 505L 115 505L 115 520L 115 535L 110 535L 105 535L 105 510L 105 485L 100 485L 95 485L 95 480L 95 475L 90 475L 85 475L 85 470L 85 465L 90 465L 95 465L 95 470L 95 475L 100 475L 105 475L 105 480L 105 485L 110 485L 115 485L 115 475L 115 465L 110 465L 105 465L 105 460L 105 455L 100 455L 95 455L 95 435L 95 415L 100 415L 105 415L 105 410L 105 405L 110 405L 115 405L 115 415L 115 425L 110 425L 105 425L 105 435L 105 445L 110 445L 115 445L 115 440L 115 435L 125 435L 135 435L 135 430L 135 425L 145 425L 155 425L 155 430L 155 435L 145 435L 135 435L 135 440L 135 445L 155 445L 175 445L 175 435L 175 425L 170 425L 165 425L 165 420L 165 415L 175 415L 185 415L 185 425L 185 435L 195 435L 205 435L 205 430L 205 425L 200 425L 195 425L 195 410L 195 395L 205 395L 215 395L 215 400L 215 405L 210 405L 205 405L 205 410L 205 415L 210 415L 215 415L 215 420L 215 425L 220 425L 225 425L 225 415L 225 405L 235 405L 245 405L 245 395L 245 385L 240 385L 235 385L 235 375L 235 365L 245 365L 255 365L 255 375L 255 385L 260 385L 265 385L 265 380L 265 375L 270 375L 275 375L 275 380L 275 385L 270 385L 265 385L 265 390L 265 395L 270 395L 275 395L 275 400L 275 405L 280 405L 285 405L 285 400L 285 395L 290 395L 295 395L 295 405L 295 415L 300 415L 305 415L 305 405L 305 395L 315 395L 325 395L 325 400L 325 405L 330 405L 335 405L 335 400L 335 395L 340 395L 345 395L 345 390L 345 385L 350 385L 355 385L 355 390L 355 395L 350 395L 345 395L 345 400L 345 405L 355 405L 365 405L 365 410L 365 415L 370 415L 375 415L 375 425L 375 435L 380 435L 385 435L 385 450L 385 465L 380 465L 375 465L 375 460L 375 455L 370 455L 365 455L 365 465L 365 475L 370 475L 375 475L 375 480L 375 485L 380 485L 385 485L 385 495L 385 505L 400 505L 415 505L 415 500L 415 495L 405 495L 395 495L 395 490L 395 485L 405 485L 415 485L 415 480L 415 475L 405 475L 395 475L 395 460L 395 445L 400 445L 405 445L 405 440L 405 435L 400 435L 395 435L 395 430L 395 425L 405 425L 415 425L 415 430L 415 435L 420 435L 425 435L 425 425L 425 415L 430 415L 435 415L 435 420L 435 425L 440 425L 445 425L 445 430L 445 435L 435 435L 425 435L 425 440L 425 445L 440 445L 455 445L 455 430L 455 415L 450 415L 445 415L 445 410L 445 405L 450 405L 455 405L 455 400L 455 395L 450 395L 445 395L 445 385L 445 375L 440 375L 435 375L 435 380L 435 385L 430 385L 425 385L 425 380L 425 375L 410 375L 395 375L 395 365L 395 355L 405 355L 415 355L 415 350L 415 345L 405 345L 395 345L 395 340L 395 335L 390 335L 385 335L 385 340L 385 345L 375 345L 365 345L 365 355L 365 365L 360 365L 355 365L 355 370L 355 375L 350 375L 345 375L 345 370L 345 365L 340 365L 335 365L 335 370L 335 375L 330 375L 325 375L 325 380L 325 385L 320 385L 315 385L 315 380L 315 375L 310 375L 305 375L 305 380L 305 385L 295 385L 285 385L 285 380L 285 375L 295 375L 305 375L 305 370L 305 365L 295 365L 285 365L 285 360L 285 355L 280 355L 275 355L 275 360L 275 365L 270 365L 265 365L 265 360L 265 355L 270 355L 275 355L 275 350L 275 345L 265 345L 255 345L 255 340L 255 335L 265 335L 275 335L 275 330L 275 325L 270 325L 265 325L 265 315L 265 305L 275 305L 285 305L 285 300L 285 295L 295 295L 305 295L 305 290L 305 285L 310 285L 315 285L 315 280L 315 275L 310 275L 305 275L 305 270L 305 265L 295 265L 285 265L 285 270L 285 275L 280 275L 275 275L 275 270L 275 265L 270 265L 265 265L 265 270L 265 275L 260 275L 255 275L 255 280L 255 285L 260 285L 265 285L 265 290L 265 295L 255 295L 245 295L 245 285L 245 275L 240 275L 235 275L 235 280L 235 285L 230 285L 225 285L 225 290L 225 295L 230 295L 235 295L 235 305L 235 315L 230 315L 225 315L 225 320L 225 325L 230 325L 235 325L 235 330L 235 335L 240 335L 245 335L 245 340L 245 345L 240 345L 235 345L 235 350L 235 355L 230 355L 225 355L 225 370L 225 385L 220 385L 215 385L 215 380L 215 375L 190 375L 165 375L 165 370L 165 365L 155 365L 145 365L 145 370L 145 375L 140 375L 135 375L 135 370L 135 365L 125 365L 115 365L 115 350L 115 335L 110 335L 105 335L 105 345L 105 355L 100 355L 95 355L 95 340L 95 325L 100 325L 105 325L 105 315L 105 305L 100 305L 95 305L 95 300L 95 295L 105 295L 115 295L 115 310L 115 325L 120 325L 125 325L 125 330L 125 335L 130 335L 135 335L 135 330L 135 325L 140 325L 145 325L 145 330L 145 335L 150 335L 155 335L 155 345L 155 355L 160 355L 165 355L 165 360L 165 365L 190 365L 215 365L 215 360L 215 355L 195 355L 175 355L 175 340L 175 325L 165 325L 155 325L 155 320L 155 315L 140 315L 125 315L 125 300L 125 285L 110 285L 95 285L 95 280L 95 275L 90 275L 85 275L 85 270L 85 265L 95 265L 105 265L 105 255L 105 245L 115 245L 125 245L 125 255L 125 265L 135 265L 145 265L 145 270L 145 275L 150 275L 155 275L 155 270L 155 265L 160 265L 165 265L 165 260L 165 255L 170 255L 175 255L 175 250L 175 245L 165 245L 155 245L 155 250L 155 255L 145 255L 135 255L 135 250L 135 245L 145 245L 155 245L 155 240L 155 235L 145 235L 135 235L 135 230L 135 225L 140 225L 145 225L 145 220L 145 215L 135 215L 125 215L 125 225L 125 235L 120 235L 115 235L 115 230L 115 225L 105 225L 95 225L 95 220L 95 215L 90 215L 85 215L 85 210L 85 205L 90 205L 95 205L 95 200L 95 195L 90 195L 85 195L 85 190L 85 185L 90 185L 95 185L 95 180L 95 175L 110 175L 125 175L 125 170L 125 165L 135 165L 145 165L 145 170L 145 175L 150 175L 155 175L 155 180L 155 185L 165 185L 175 185L 175 180L 175 175L 180 175L 185 175L 185 170L 185 165L 190 165L 195 165L 195 170L 195 175L 190 175L 185 175L 185 180L 185 185L 195 185L 205 185L 205 180L 205 175L 210 175L 215 175L 215 170L 215 165L 210 165L 205 165L 205 160L 205 155L 200 155L 195 155L 195 150L 195 145L 190 145L 185 145L 185 150L 185 155L 180 155L 175 155L 175 150L 175 145L 170 145L 165 145L 165 135L 165 125L 170 125L 175 125L 175 135L 175 145L 180 145L 185 145L 185 135L 185 125L 190 125L 195 125L 195 135L 195 145L 200 145L 205 145L 205 135L 205 125L 210 125L 215 125L 215 115L 215 105L 220 105L 225 105L 225 115L 225 125L 230 125L 235 125L 235 140L 235 155L 240 155L 245 155L 245 160L 245 165L 250 165L 255 165L 255 160L 255 155L 260 155L 265 155L 265 145L 265 135L 270 135L 275 135L 275 130L 275 125L 280 125L 285 125L 285 130L 285 135L 290 135L 295 135L 295 145L 295 155L 280 155L 265 155L 265 160L 265 165L 280 165L 295 165L 295 175L 295 185L 290 185L 285 185L 285 190L 285 195L 290 195L 295 195L 295 205L 295 215L 300 215L 305 215L 305 210L 305 205L 310 205L 315 205L 315 200L 315 195L 310 195L 305 195L 305 185L 305 175L 315 175L 325 175L 325 170L 325 165L 330 165L 335 165L 335 170L 335 175L 330 175L 325 175L 325 180L 325 185L 320 185L 315 185L 315 190L 315 195L 320 195L 325 195L 325 200L 325 205L 330 205L 335 205L 335 200L 335 195L 340 195L 345 195L 345 200L 345 205L 355 205L 365 205L 365 200L 365 195L 360 195L 355 195L 355 190L 355 185L 350 185L 345 185L 345 175L 345 165L 355 165L 365 165L 365 160L 365 155L 370 155L 375 155L 375 165L 375 175L 385 175L 395 175L 395 170L 395 165L 415 165L 435 165L 435 170L 435 175L 440 175L 445 175L 445 165L 445 155L 435 155L 425 155L 425 145L 425 135L 430 135L 435 135L 435 140L 435 145L 440 145L 445 145L 445 135L 445 125L 450 125L 455 125L 455 135L 455 145L 460 145L 465 145L 465 150L 465 155L 480 155L 495 155L 495 150L 495 145L 500 145L 505 145L 505 140L 505 135L 510 135L 515 135L 515 120L 515 105L 510 105L 505 105L 505 110L 505 115L 500 115L 495 115L 495 110L 495 105L 500 105L 505 105L 505 100L 505 95L 510 95L 515 95L 515 100L 515 105L 525 105L 535 105L 535 100L 535 95L 540 95L 545 95L 545 90L 545 85L 555 85L 565 85L 565 90zM 455 110L 455 115L 450 115L 445 115L 445 110L 445 105L 450 105L 455 105L 455 110zM 265 120L 265 125L 260 125L 255 125L 255 135L 255 145L 250 145L 245 145L 245 135L 245 125L 250 125L 255 125L 255 120L 255 115L 260 115L 265 115L 265 120zM 335 135L 335 145L 330 145L 325 145L 325 135L 325 125L 330 125L 335 125L 335 135zM 415 140L 415 155L 400 155L 385 155L 385 140L 385 125L 400 125L 415 125L 415 140zM 375 140L 375 145L 370 145L 365 145L 365 140L 365 135L 370 135L 375 135L 375 140zM 665 190L 665 195L 660 195L 655 195L 655 190L 655 185L 660 185L 665 185L 665 190zM 665 210L 665 215L 660 215L 655 215L 655 210L 655 205L 660 205L 665 205L 665 210zM 695 240L 695 245L 690 245L 685 245L 685 240L 685 235L 690 235L 695 235L 695 240zM 385 365L 385 375L 380 375L 375 375L 375 365L 375 355L 380 355L 385 355L 385 365zM 155 400L 155 415L 140 415L 125 415L 125 400L 125 385L 140 385L 155 385L 155 400zM 375 390L 375 395L 370 395L 365 395L 365 390L 365 385L 370 385L 375 385L 375 390zM 415 400L 415 415L 400 415L 385 415L 385 400L 385 385L 400 385L 415 385L 415 400zM 675 400L 675 415L 660 415L 645 415L 645 400L 645 385L 660 385L 675 385L 675 400zM 175 400L 175 405L 170 405L 165 405L 165 400L 165 395L 170 395L 175 395L 175 400zM 435 400L 435 405L 430 405L 425 405L 425 400L 425 395L 430 395L 435 395L 435 400zM 705 430L 705 435L 700 435L 695 435L 695 430L 695 425L 700 425L 705 425L 705 430zM 95 520L 95 525L 90 525L 85 525L 85 520L 85 515L 90 515L 95 515L 95 520zM 95 545L 95 555L 90 555L 85 555L 85 545L 85 535L 90 535L 95 535L 95 545zM 685 600L 685 605L 675 605L 665 605L 665 600L 665 595L 675 595L 685 595L 685 600zM 335 630L 335 635L 330 635L 325 635L 325 630L 325 625L 330 625L 335 625L 335 630zM 635 640L 635 645L 630 645L 625 645L 625 640L 625 635L 630 635L 635 635L 635 640zM 215 650L 215 655L 210 655L 205 655L 205 650L 205 645L 210 645L 215 645L 215 650zM 345 655L 345 665L 350 665L 355 665L 355 670L 355 675L 360 675L 365 675L 365 670L 365 665L 370 665L 375 665L 375 670L 375 675L 370 675L 365 675L 365 680L 365 685L 375 685L 385 685L 385 690L 385 695L 375 695L 365 695L 365 705L 365 715L 360 715L 355 715L 355 710L 355 705L 350 705L 345 705L 345 710L 345 715L 340 715L 335 715L 335 710L 335 705L 330 705L 325 705L 325 700L 325 695L 330 695L 335 695L 335 700L 335 705L 340 705L 345 705L 345 700L 345 695L 350 695L 355 695L 355 690L 355 685L 350 685L 345 685L 345 675L 345 665L 340 665L 335 665L 335 670L 335 675L 330 675L 325 675L 325 670L 325 665L 320 665L 315 665L 315 660L 315 655L 320 655L 325 655L 325 650L 325 645L 335 645L 345 645L 345 655zM 415 660L 415 675L 400 675L 385 675L 385 660L 385 645L 400 645L 415 645L 415 660zM 675 660L 675 675L 660 675L 645 675L 645 660L 645 645L 660 645L 675 645L 675 660zM 695 660L 695 665L 700 665L 705 665L 705 670L 705 675L 710 675L 715 675L 715 680L 715 685L 710 685L 705 685L 705 700L 705 715L 700 715L 695 715L 695 710L 695 705L 690 705L 685 705L 685 700L 685 695L 680 695L 675 695L 675 690L 675 685L 680 685L 685 685L 685 670L 685 655L 690 655L 695 655L 695 660zM 265 690L 265 695L 270 695L 275 695L 275 690L 275 685L 280 685L 285 685L 285 690L 285 695L 280 695L 275 695L 275 700L 275 705L 270 705L 265 705L 265 710L 265 715L 255 715L 245 715L 245 710L 245 705L 255 705L 265 705L 265 700L 265 695L 260 695L 255 695L 255 690L 255 685L 260 685L 265 685L 265 690z"/>
<path style="stroke:none; fill:#000000" d="M 535 110L 535 115L 540 115L 545 115L 545 120L 545 125L 535 125L 525 125L 525 130L 525 135L 520 135L 515 135L 515 145L 515 155L 510 155L 505 155L 505 160L 505 165L 485 165L 465 165L 465 160L 465 155L 460 155L 455 155L 455 160L 455 165L 460 165L 465 165L 465 170L 465 175L 460 175L 455 175L 455 180L 455 185L 450 185L 445 185L 445 190L 445 195L 440 195L 435 195L 435 190L 435 185L 430 185L 425 185L 425 180L 425 175L 415 175L 405 175L 405 180L 405 185L 400 185L 395 185L 395 190L 395 195L 390 195L 385 195L 385 190L 385 185L 375 185L 365 185L 365 180L 365 175L 360 175L 355 175L 355 180L 355 185L 360 185L 365 185L 365 190L 365 195L 375 195L 385 195L 385 205L 385 215L 375 215L 365 215L 365 225L 365 235L 360 235L 355 235L 355 225L 355 215L 350 215L 345 215L 345 210L 345 205L 340 205L 335 205L 335 210L 335 215L 330 215L 325 215L 325 225L 325 235L 320 235L 315 235L 315 245L 315 255L 320 255L 325 255L 325 270L 325 285L 330 285L 335 285L 335 290L 335 295L 330 295L 325 295L 325 310L 325 325L 320 325L 315 325L 315 330L 315 335L 320 335L 325 335L 325 340L 325 345L 315 345L 305 345L 305 340L 305 335L 290 335L 275 335L 275 340L 275 345L 280 345L 285 345L 285 350L 285 355L 290 355L 295 355L 295 350L 295 345L 300 345L 305 345L 305 355L 305 365L 310 365L 315 365L 315 370L 315 375L 320 375L 325 375L 325 370L 325 365L 330 365L 335 365L 335 350L 335 335L 340 335L 345 335L 345 350L 345 365L 350 365L 355 365L 355 350L 355 335L 350 335L 345 335L 345 330L 345 325L 360 325L 375 325L 375 330L 375 335L 380 335L 385 335L 385 330L 385 325L 390 325L 395 325L 395 320L 395 315L 405 315L 415 315L 415 320L 415 325L 420 325L 425 325L 425 330L 425 335L 420 335L 415 335L 415 340L 415 345L 420 345L 425 345L 425 360L 425 375L 430 375L 435 375L 435 370L 435 365L 450 365L 465 365L 465 370L 465 375L 460 375L 455 375L 455 380L 455 385L 460 385L 465 385L 465 380L 465 375L 470 375L 475 375L 475 380L 475 385L 485 385L 495 385L 495 390L 495 395L 490 395L 485 395L 485 400L 485 405L 490 405L 495 405L 495 410L 495 415L 490 415L 485 415L 485 420L 485 425L 480 425L 475 425L 475 420L 475 415L 470 415L 465 415L 465 420L 465 425L 470 425L 475 425L 475 430L 475 435L 480 435L 485 435L 485 430L 485 425L 490 425L 495 425L 495 435L 495 445L 485 445L 475 445L 475 455L 475 465L 470 465L 465 465L 465 460L 465 455L 460 455L 455 455L 455 460L 455 465L 460 465L 465 465L 465 470L 465 475L 485 475L 505 475L 505 480L 505 485L 495 485L 485 485L 485 490L 485 495L 500 495L 515 495L 515 505L 515 515L 510 515L 505 515L 505 510L 505 505L 490 505L 475 505L 475 500L 475 495L 465 495L 455 495L 455 490L 455 485L 450 485L 445 485L 445 480L 445 475L 435 475L 425 475L 425 470L 425 465L 420 465L 415 465L 415 470L 415 475L 420 475L 425 475L 425 485L 425 495L 430 495L 435 495L 435 500L 435 505L 440 505L 445 505L 445 510L 445 515L 435 515L 425 515L 425 530L 425 545L 420 545L 415 545L 415 550L 415 555L 410 555L 405 555L 405 540L 405 525L 410 525L 415 525L 415 520L 415 515L 410 515L 405 515L 405 520L 405 525L 395 525L 385 525L 385 520L 385 515L 380 515L 375 515L 375 520L 375 525L 380 525L 385 525L 385 530L 385 535L 390 535L 395 535L 395 540L 395 545L 385 545L 375 545L 375 540L 375 535L 365 535L 355 535L 355 530L 355 525L 360 525L 365 525L 365 520L 365 515L 360 515L 355 515L 355 505L 355 495L 350 495L 345 495L 345 490L 345 485L 355 485L 365 485L 365 480L 365 475L 355 475L 345 475L 345 465L 345 455L 335 455L 325 455L 325 450L 325 445L 345 445L 365 445L 365 440L 365 435L 355 435L 345 435L 345 430L 345 425L 350 425L 355 425L 355 420L 355 415L 350 415L 345 415L 345 410L 345 405L 340 405L 335 405L 335 410L 335 415L 320 415L 305 415L 305 420L 305 425L 295 425L 285 425L 285 430L 285 435L 280 435L 275 435L 275 445L 275 455L 270 455L 265 455L 265 465L 265 475L 260 475L 255 475L 255 480L 255 485L 265 485L 275 485L 275 490L 275 495L 280 495L 285 495L 285 490L 285 485L 280 485L 275 485L 275 480L 275 475L 280 475L 285 475L 285 465L 285 455L 290 455L 295 455L 295 490L 295 525L 290 525L 285 525L 285 530L 285 535L 280 535L 275 535L 275 525L 275 515L 270 515L 265 515L 265 505L 265 495L 260 495L 255 495L 255 500L 255 505L 250 505L 245 505L 245 490L 245 475L 240 475L 235 475L 235 490L 235 505L 240 505L 245 505L 245 515L 245 525L 240 525L 235 525L 235 520L 235 515L 225 515L 215 515L 215 520L 215 525L 220 525L 225 525L 225 530L 225 535L 220 535L 215 535L 215 540L 215 545L 210 545L 205 545L 205 540L 205 535L 200 535L 195 535L 195 530L 195 525L 200 525L 205 525L 205 520L 205 515L 200 515L 195 515L 195 510L 195 505L 185 505L 175 505L 175 510L 175 515L 165 515L 155 515L 155 520L 155 525L 150 525L 145 525L 145 520L 145 515L 140 515L 135 515L 135 520L 135 525L 140 525L 145 525L 145 530L 145 535L 140 535L 135 535L 135 540L 135 545L 140 545L 145 545L 145 550L 145 555L 140 555L 135 555L 135 560L 135 565L 140 565L 145 565L 145 570L 145 575L 150 575L 155 575L 155 580L 155 585L 160 585L 165 585L 165 580L 165 575L 170 575L 175 575L 175 570L 175 565L 170 565L 165 565L 165 560L 165 555L 160 555L 155 555L 155 550L 155 545L 160 545L 165 545L 165 540L 165 535L 170 535L 175 535L 175 525L 175 515L 185 515L 195 515L 195 520L 195 525L 190 525L 185 525L 185 535L 185 545L 195 545L 205 545L 205 555L 205 565L 195 565L 185 565L 185 575L 185 585L 190 585L 195 585L 195 590L 195 595L 190 595L 185 595L 185 600L 185 605L 195 605L 205 605L 205 595L 205 585L 210 585L 215 585L 215 590L 215 595L 225 595L 235 595L 235 580L 235 565L 225 565L 215 565L 215 555L 215 545L 220 545L 225 545L 225 540L 225 535L 230 535L 235 535L 235 545L 235 555L 240 555L 245 555L 245 560L 245 565L 250 565L 255 565L 255 575L 255 585L 260 585L 265 585L 265 590L 265 595L 270 595L 275 595L 275 590L 275 585L 280 585L 285 585L 285 575L 285 565L 280 565L 275 565L 275 560L 275 555L 270 555L 265 555L 265 545L 265 535L 270 535L 275 535L 275 540L 275 545L 280 545L 285 545L 285 550L 285 555L 290 555L 295 555L 295 545L 295 535L 300 535L 305 535L 305 530L 305 525L 310 525L 315 525L 315 535L 315 545L 310 545L 305 545L 305 550L 305 555L 310 555L 315 555L 315 550L 315 545L 320 545L 325 545L 325 540L 325 535L 330 535L 335 535L 335 540L 335 545L 345 545L 355 545L 355 550L 355 555L 350 555L 345 555L 345 560L 345 565L 360 565L 375 565L 375 560L 375 555L 385 555L 395 555L 395 560L 395 565L 390 565L 385 565L 385 570L 385 575L 390 575L 395 575L 395 580L 395 585L 400 585L 405 585L 405 580L 405 575L 410 575L 415 575L 415 565L 415 555L 420 555L 425 555L 425 570L 425 585L 435 585L 445 585L 445 590L 445 595L 435 595L 425 595L 425 600L 425 605L 420 605L 415 605L 415 610L 415 615L 420 615L 425 615L 425 610L 425 605L 430 605L 435 605L 435 615L 435 625L 440 625L 445 625L 445 620L 445 615L 450 615L 455 615L 455 620L 455 625L 460 625L 465 625L 465 630L 465 635L 475 635L 485 635L 485 625L 485 615L 495 615L 505 615L 505 620L 505 625L 500 625L 495 625L 495 635L 495 645L 490 645L 485 645L 485 650L 485 655L 495 655L 505 655L 505 650L 505 645L 510 645L 515 645L 515 640L 515 635L 520 635L 525 635L 525 640L 525 645L 530 645L 535 645L 535 640L 535 635L 530 635L 525 635L 525 630L 525 625L 535 625L 545 625L 545 620L 545 615L 560 615L 575 615L 575 620L 575 625L 580 625L 585 625L 585 620L 585 615L 580 615L 575 615L 575 600L 575 585L 585 585L 595 585L 595 590L 595 595L 600 595L 605 595L 605 590L 605 585L 600 585L 595 585L 595 575L 595 565L 590 565L 585 565L 585 560L 585 555L 600 555L 615 555L 615 545L 615 535L 625 535L 635 535L 635 530L 635 525L 615 525L 595 525L 595 535L 595 545L 590 545L 585 545L 585 540L 585 535L 580 535L 575 535L 575 530L 575 525L 570 525L 565 525L 565 520L 565 515L 570 515L 575 515L 575 510L 575 505L 580 505L 585 505L 585 510L 585 515L 595 515L 605 515L 605 510L 605 505L 595 505L 585 505L 585 500L 585 495L 590 495L 595 495L 595 490L 595 485L 590 485L 585 485L 585 490L 585 495L 580 495L 575 495L 575 480L 575 465L 580 465L 585 465L 585 470L 585 475L 595 475L 605 475L 605 485L 605 495L 615 495L 625 495L 625 500L 625 505L 620 505L 615 505L 615 510L 615 515L 630 515L 645 515L 645 520L 645 525L 655 525L 665 525L 665 515L 665 505L 655 505L 645 505L 645 500L 645 495L 635 495L 625 495L 625 485L 625 475L 620 475L 615 475L 615 470L 615 465L 610 465L 605 465L 605 460L 605 455L 615 455L 625 455L 625 445L 625 435L 630 435L 635 435L 635 440L 635 445L 640 445L 645 445L 645 450L 645 455L 650 455L 655 455L 655 450L 655 445L 650 445L 645 445L 645 440L 645 435L 640 435L 635 435L 635 430L 635 425L 625 425L 615 425L 615 435L 615 445L 605 445L 595 445L 595 440L 595 435L 600 435L 605 435L 605 425L 605 415L 600 415L 595 415L 595 410L 595 405L 590 405L 585 405L 585 410L 585 415L 580 415L 575 415L 575 410L 575 405L 570 405L 565 405L 565 400L 565 395L 555 395L 545 395L 545 390L 545 385L 555 385L 565 385L 565 380L 565 375L 570 375L 575 375L 575 370L 575 365L 580 365L 585 365L 585 355L 585 345L 590 345L 595 345L 595 350L 595 355L 600 355L 605 355L 605 365L 605 375L 620 375L 635 375L 635 370L 635 365L 645 365L 655 365L 655 360L 655 355L 645 355L 635 355L 635 340L 635 325L 640 325L 645 325L 645 320L 645 315L 640 315L 635 315L 635 320L 635 325L 630 325L 625 325L 625 315L 625 305L 640 305L 655 305L 655 315L 655 325L 660 325L 665 325L 665 330L 665 335L 655 335L 645 335L 645 340L 645 345L 655 345L 665 345L 665 340L 665 335L 670 335L 675 335L 675 330L 675 325L 680 325L 685 325L 685 320L 685 315L 690 315L 695 315L 695 310L 695 305L 690 305L 685 305L 685 300L 685 295L 680 295L 675 295L 675 300L 675 305L 680 305L 685 305L 685 310L 685 315L 675 315L 665 315L 665 305L 665 295L 650 295L 635 295L 635 290L 635 285L 640 285L 645 285L 645 280L 645 275L 640 275L 635 275L 635 270L 635 265L 650 265L 665 265L 665 260L 665 255L 650 255L 635 255L 635 250L 635 245L 640 245L 645 245L 645 235L 645 225L 635 225L 625 225L 625 230L 625 235L 620 235L 615 235L 615 225L 615 215L 625 215L 635 215L 635 210L 635 205L 630 205L 625 205L 625 195L 625 185L 605 185L 585 185L 585 180L 585 175L 580 175L 575 175L 575 170L 575 165L 570 165L 565 165L 565 160L 565 155L 555 155L 545 155L 545 140L 545 125L 555 125L 565 125L 565 130L 565 135L 560 135L 555 135L 555 140L 555 145L 560 145L 565 145L 565 140L 565 135L 570 135L 575 135L 575 145L 575 155L 580 155L 585 155L 585 145L 585 135L 590 135L 595 135L 595 145L 595 155L 600 155L 605 155L 605 145L 605 135L 600 135L 595 135L 595 125L 595 115L 590 115L 585 115L 585 110L 585 105L 560 105L 535 105L 535 110zM 585 120L 585 125L 580 125L 575 125L 575 120L 575 115L 580 115L 585 115L 585 120zM 535 150L 535 165L 540 165L 545 165L 545 170L 545 175L 535 175L 525 175L 525 170L 525 165L 520 165L 515 165L 515 160L 515 155L 520 155L 525 155L 525 145L 525 135L 530 135L 535 135L 535 150zM 475 180L 475 185L 470 185L 465 185L 465 180L 465 175L 470 175L 475 175L 475 180zM 505 180L 505 185L 510 185L 515 185L 515 190L 515 195L 520 195L 525 195L 525 190L 525 185L 545 185L 565 185L 565 180L 565 175L 570 175L 575 175L 575 185L 575 195L 580 195L 585 195L 585 205L 585 215L 595 215L 605 215L 605 220L 605 225L 600 225L 595 225L 595 230L 595 235L 600 235L 605 235L 605 245L 605 255L 620 255L 635 255L 635 260L 635 265L 615 265L 595 265L 595 260L 595 255L 585 255L 575 255L 575 250L 575 245L 580 245L 585 245L 585 240L 585 235L 570 235L 555 235L 555 230L 555 225L 570 225L 585 225L 585 220L 585 215L 580 215L 575 215L 575 205L 575 195L 555 195L 535 195L 535 200L 535 205L 550 205L 565 205L 565 210L 565 215L 550 215L 535 215L 535 210L 535 205L 530 205L 525 205L 525 215L 525 225L 535 225L 545 225L 545 235L 545 245L 555 245L 565 245L 565 250L 565 255L 560 255L 555 255L 555 260L 555 265L 570 265L 585 265L 585 270L 585 275L 595 275L 605 275L 605 280L 605 285L 610 285L 615 285L 615 290L 615 295L 620 295L 625 295L 625 300L 625 305L 610 305L 595 305L 595 300L 595 295L 600 295L 605 295L 605 290L 605 285L 595 285L 585 285L 585 290L 585 295L 580 295L 575 295L 575 300L 575 305L 580 305L 585 305L 585 310L 585 315L 595 315L 605 315L 605 320L 605 325L 610 325L 615 325L 615 330L 615 335L 620 335L 625 335L 625 345L 625 355L 630 355L 635 355L 635 360L 635 365L 625 365L 615 365L 615 355L 615 345L 610 345L 605 345L 605 340L 605 335L 590 335L 575 335L 575 340L 575 345L 570 345L 565 345L 565 350L 565 355L 555 355L 545 355L 545 345L 545 335L 540 335L 535 335L 535 345L 535 355L 530 355L 525 355L 525 360L 525 365L 540 365L 555 365L 555 370L 555 375L 540 375L 525 375L 525 370L 525 365L 520 365L 515 365L 515 370L 515 375L 510 375L 505 375L 505 380L 505 385L 520 385L 535 385L 535 395L 535 405L 545 405L 555 405L 555 410L 555 415L 540 415L 525 415L 525 410L 525 405L 520 405L 515 405L 515 410L 515 415L 510 415L 505 415L 505 400L 505 385L 500 385L 495 385L 495 380L 495 375L 500 375L 505 375L 505 370L 505 365L 510 365L 515 365L 515 360L 515 355L 500 355L 485 355L 485 360L 485 365L 475 365L 465 365L 465 360L 465 355L 450 355L 435 355L 435 340L 435 325L 440 325L 445 325L 445 320L 445 315L 430 315L 415 315L 415 310L 415 305L 420 305L 425 305L 425 300L 425 295L 415 295L 405 295L 405 300L 405 305L 400 305L 395 305L 395 310L 395 315L 390 315L 385 315L 385 320L 385 325L 380 325L 375 325L 375 320L 375 315L 380 315L 385 315L 385 305L 385 295L 375 295L 365 295L 365 300L 365 305L 355 305L 345 305L 345 295L 345 285L 340 285L 335 285L 335 280L 335 275L 340 275L 345 275L 345 280L 345 285L 355 285L 365 285L 365 280L 365 275L 360 275L 355 275L 355 270L 355 265L 350 265L 345 265L 345 255L 345 245L 340 245L 335 245L 335 250L 335 255L 330 255L 325 255L 325 245L 325 235L 330 235L 335 235L 335 225L 335 215L 340 215L 345 215L 345 230L 345 245L 355 245L 365 245L 365 240L 365 235L 375 235L 385 235L 385 225L 385 215L 390 215L 395 215L 395 205L 395 195L 400 195L 405 195L 405 190L 405 185L 410 185L 415 185L 415 190L 415 195L 420 195L 425 195L 425 205L 425 215L 430 215L 435 215L 435 220L 435 225L 440 225L 445 225L 445 220L 445 215L 450 215L 455 215L 455 210L 455 205L 450 205L 445 205L 445 200L 445 195L 455 195L 465 195L 465 205L 465 215L 470 215L 475 215L 475 205L 475 195L 480 195L 485 195L 485 185L 485 175L 495 175L 505 175L 505 180zM 605 200L 605 205L 600 205L 595 205L 595 200L 595 195L 600 195L 605 195L 605 200zM 635 240L 635 245L 630 245L 625 245L 625 240L 625 235L 630 235L 635 235L 635 240zM 635 280L 635 285L 630 285L 625 285L 625 280L 625 275L 630 275L 635 275L 635 280zM 345 320L 345 325L 340 325L 335 325L 335 330L 335 335L 330 335L 325 335L 325 330L 325 325L 330 325L 335 325L 335 320L 335 315L 340 315L 345 315L 345 320zM 325 360L 325 365L 320 365L 315 365L 315 360L 315 355L 320 355L 325 355L 325 360zM 575 420L 575 425L 580 425L 585 425L 585 420L 585 415L 590 415L 595 415L 595 420L 595 425L 590 425L 585 425L 585 435L 585 445L 590 445L 595 445L 595 450L 595 455L 585 455L 575 455L 575 460L 575 465L 570 465L 565 465L 565 470L 565 475L 560 475L 555 475L 555 470L 555 465L 550 465L 545 465L 545 470L 545 475L 535 475L 525 475L 525 485L 525 495L 520 495L 515 495L 515 485L 515 475L 510 475L 505 475L 505 465L 505 455L 510 455L 515 455L 515 445L 515 435L 520 435L 525 435L 525 440L 525 445L 530 445L 535 445L 535 440L 535 435L 540 435L 545 435L 545 430L 545 425L 555 425L 565 425L 565 420L 565 415L 570 415L 575 415L 575 420zM 315 430L 315 435L 320 435L 325 435L 325 430L 325 425L 330 425L 335 425L 335 430L 335 435L 330 435L 325 435L 325 440L 325 445L 320 445L 315 445L 315 440L 315 435L 310 435L 305 435L 305 430L 305 425L 310 425L 315 425L 315 430zM 295 440L 295 445L 290 445L 285 445L 285 440L 285 435L 290 435L 295 435L 295 440zM 315 460L 315 465L 310 465L 305 465L 305 460L 305 455L 310 455L 315 455L 315 460zM 495 460L 495 465L 490 465L 485 465L 485 460L 485 455L 490 455L 495 455L 495 460zM 335 470L 335 475L 340 475L 345 475L 345 480L 345 485L 340 485L 335 485L 335 490L 335 495L 340 495L 345 495L 345 515L 345 535L 340 535L 335 535L 335 530L 335 525L 325 525L 315 525L 315 520L 315 515L 310 515L 305 515L 305 510L 305 505L 310 505L 315 505L 315 500L 315 495L 310 495L 305 495L 305 485L 305 475L 315 475L 325 475L 325 470L 325 465L 330 465L 335 465L 335 470zM 445 490L 445 495L 450 495L 455 495L 455 500L 455 505L 465 505L 475 505L 475 510L 475 515L 485 515L 495 515L 495 520L 495 525L 480 525L 465 525L 465 530L 465 535L 470 535L 475 535L 475 540L 475 545L 470 545L 465 545L 465 550L 465 555L 475 555L 485 555L 485 545L 485 535L 505 535L 525 535L 525 530L 525 525L 520 525L 515 525L 515 520L 515 515L 520 515L 525 515L 525 520L 525 525L 530 525L 535 525L 535 515L 535 505L 545 505L 555 505L 555 500L 555 495L 545 495L 535 495L 535 490L 535 485L 545 485L 555 485L 555 490L 555 495L 565 495L 575 495L 575 500L 575 505L 570 505L 565 505L 565 510L 565 515L 555 515L 545 515L 545 520L 545 525L 555 525L 565 525L 565 530L 565 535L 570 535L 575 535L 575 540L 575 545L 580 545L 585 545L 585 550L 585 555L 570 555L 555 555L 555 545L 555 535L 540 535L 525 535L 525 540L 525 545L 520 545L 515 545L 515 550L 515 555L 530 555L 545 555L 545 565L 545 575L 535 575L 525 575L 525 570L 525 565L 520 565L 515 565L 515 560L 515 555L 510 555L 505 555L 505 550L 505 545L 500 545L 495 545L 495 555L 495 565L 490 565L 485 565L 485 570L 485 575L 495 575L 505 575L 505 580L 505 585L 510 585L 515 585L 515 590L 515 595L 520 595L 525 595L 525 600L 525 605L 535 605L 545 605L 545 610L 545 615L 535 615L 525 615L 525 610L 525 605L 520 605L 515 605L 515 600L 515 595L 510 595L 505 595L 505 590L 505 585L 490 585L 475 585L 475 590L 475 595L 480 595L 485 595L 485 605L 485 615L 470 615L 455 615L 455 605L 455 595L 460 595L 465 595L 465 585L 465 575L 460 575L 455 575L 455 580L 455 585L 450 585L 445 585L 445 580L 445 575L 450 575L 455 575L 455 570L 455 565L 450 565L 445 565L 445 560L 445 555L 435 555L 425 555L 425 550L 425 545L 435 545L 445 545L 445 535L 445 525L 450 525L 455 525L 455 515L 455 505L 450 505L 445 505L 445 500L 445 495L 440 495L 435 495L 435 490L 435 485L 440 485L 445 485L 445 490zM 165 530L 165 535L 160 535L 155 535L 155 530L 155 525L 160 525L 165 525L 165 530zM 255 550L 255 555L 260 555L 265 555L 265 560L 265 565L 270 565L 275 565L 275 570L 275 575L 270 575L 265 575L 265 570L 265 565L 260 565L 255 565L 255 560L 255 555L 250 555L 245 555L 245 550L 245 545L 250 545L 255 545L 255 550zM 155 560L 155 565L 160 565L 165 565L 165 570L 165 575L 160 575L 155 575L 155 570L 155 565L 150 565L 145 565L 145 560L 145 555L 150 555L 155 555L 155 560zM 405 570L 405 575L 400 575L 395 575L 395 570L 395 565L 400 565L 405 565L 405 570zM 585 570L 585 575L 580 575L 575 575L 575 580L 575 585L 570 585L 565 585L 565 590L 565 595L 550 595L 535 595L 535 590L 535 585L 550 585L 565 585L 565 580L 565 575L 570 575L 575 575L 575 570L 575 565L 580 565L 585 565L 585 570zM 205 580L 205 585L 200 585L 195 585L 195 580L 195 575L 200 575L 205 575L 205 580zM 225 580L 225 585L 220 585L 215 585L 215 580L 215 575L 220 575L 225 575L 225 580z"/>
<path style="stroke:none; fill:#000000" d="M 495 195L 495 205L 490 205L 485 205L 485 215L 485 225L 480 225L 475 225L 475 230L 475 235L 485 235L 495 235L 495 245L 495 255L 500 255L 505 255L 505 260L 505 265L 510 265L 515 265L 515 270L 515 275L 520 275L 525 275L 525 270L 525 265L 530 265L 535 265L 535 275L 535 285L 550 285L 565 285L 565 290L 565 295L 570 295L 575 295L 575 290L 575 285L 570 285L 565 285L 565 280L 565 275L 555 275L 545 275L 545 265L 545 255L 535 255L 525 255L 525 250L 525 245L 530 245L 535 245L 535 240L 535 235L 530 235L 525 235L 525 230L 525 225L 520 225L 515 225L 515 210L 515 195L 510 195L 505 195L 505 190L 505 185L 500 185L 495 185L 495 195zM 505 220L 505 225L 510 225L 515 225L 515 230L 515 235L 520 235L 525 235L 525 240L 525 245L 520 245L 515 245L 515 250L 515 255L 510 255L 505 255L 505 245L 505 235L 500 235L 495 235L 495 225L 495 215L 500 215L 505 215L 505 220z"/>
<path style="stroke:none; fill:#000000" d="M 395 225L 395 235L 390 235L 385 235L 385 240L 385 245L 375 245L 365 245L 365 250L 365 255L 360 255L 355 255L 355 260L 355 265L 365 265L 375 265L 375 270L 375 275L 380 275L 385 275L 385 280L 385 285L 390 285L 395 285L 395 290L 395 295L 400 295L 405 295L 405 290L 405 285L 400 285L 395 285L 395 280L 395 275L 405 275L 415 275L 415 280L 415 285L 420 285L 425 285L 425 290L 425 295L 440 295L 455 295L 455 300L 455 305L 450 305L 445 305L 445 310L 445 315L 450 315L 455 315L 455 310L 455 305L 460 305L 465 305L 465 300L 465 295L 470 295L 475 295L 475 290L 475 285L 470 285L 465 285L 465 290L 465 295L 460 295L 455 295L 455 290L 455 285L 450 285L 445 285L 445 280L 445 275L 430 275L 415 275L 415 270L 415 265L 425 265L 435 265L 435 260L 435 255L 425 255L 415 255L 415 260L 415 265L 405 265L 395 265L 395 260L 395 255L 390 255L 385 255L 385 250L 385 245L 390 245L 395 245L 395 240L 395 235L 400 235L 405 235L 405 240L 405 245L 425 245L 445 245L 445 255L 445 265L 455 265L 465 265L 465 270L 465 275L 475 275L 485 275L 485 285L 485 295L 495 295L 505 295L 505 300L 505 305L 510 305L 515 305L 515 310L 515 315L 510 315L 505 315L 505 320L 505 325L 500 325L 495 325L 495 330L 495 335L 500 335L 505 335L 505 340L 505 345L 510 345L 515 345L 515 350L 515 355L 520 355L 525 355L 525 350L 525 345L 520 345L 515 345L 515 330L 515 315L 525 315L 535 315L 535 310L 535 305L 545 305L 555 305L 555 300L 555 295L 545 295L 535 295L 535 300L 535 305L 525 305L 515 305L 515 300L 515 295L 520 295L 525 295L 525 290L 525 285L 520 285L 515 285L 515 290L 515 295L 510 295L 505 295L 505 285L 505 275L 500 275L 495 275L 495 270L 495 265L 490 265L 485 265L 485 260L 485 255L 470 255L 455 255L 455 250L 455 245L 460 245L 465 245L 465 240L 465 235L 450 235L 435 235L 435 230L 435 225L 430 225L 425 225L 425 220L 425 215L 420 215L 415 215L 415 225L 415 235L 410 235L 405 235L 405 225L 405 215L 400 215L 395 215L 395 225zM 395 270L 395 275L 390 275L 385 275L 385 270L 385 265L 390 265L 395 265L 395 270z"/>
<path style="stroke:none; fill:#000000" d="M 455 220L 455 225L 460 225L 465 225L 465 220L 465 215L 460 215L 455 215L 455 220z"/>
<path style="stroke:none; fill:#000000" d="M 475 310L 475 315L 485 315L 495 315L 495 310L 495 305L 485 305L 475 305L 475 310z"/>
<path style="stroke:none; fill:#000000" d="M 565 310L 565 315L 555 315L 545 315L 545 320L 545 325L 550 325L 555 325L 555 335L 555 345L 560 345L 565 345L 565 340L 565 335L 570 335L 575 335L 575 330L 575 325L 580 325L 585 325L 585 320L 585 315L 580 315L 575 315L 575 310L 575 305L 570 305L 565 305L 565 310zM 575 320L 575 325L 570 325L 565 325L 565 320L 565 315L 570 315L 575 315L 575 320z"/>
<path style="stroke:none; fill:#000000" d="M 455 340L 455 345L 460 345L 465 345L 465 350L 465 355L 475 355L 485 355L 485 345L 485 335L 470 335L 455 335L 455 340z"/>
<path style="stroke:none; fill:#000000" d="M 545 440L 545 445L 550 445L 555 445L 555 455L 555 465L 560 465L 565 465L 565 460L 565 455L 570 455L 575 455L 575 450L 575 445L 570 445L 565 445L 565 440L 565 435L 555 435L 545 435L 545 440z"/>
<path style="stroke:none; fill:#000000" d="M 525 460L 525 465L 520 465L 515 465L 515 470L 515 475L 520 475L 525 475L 525 470L 525 465L 535 465L 545 465L 545 460L 545 455L 535 455L 525 455L 525 460z"/>
<path style="stroke:none; fill:#000000" d="M 315 490L 315 495L 320 495L 325 495L 325 490L 325 485L 320 485L 315 485L 315 490z"/>
<path style="stroke:none; fill:#000000" d="M 315 510L 315 515L 325 515L 335 515L 335 510L 335 505L 325 505L 315 505L 315 510z"/>
<path style="stroke:none; fill:#000000" d="M 455 540L 455 545L 460 545L 465 545L 465 540L 465 535L 460 535L 455 535L 455 540z"/>
<path style="stroke:none; fill:#000000" d="M 465 570L 465 575L 470 575L 475 575L 475 570L 475 565L 470 565L 465 565L 465 570z"/>
<path style="stroke:none; fill:#000000" d="M 215 140L 215 145L 210 145L 205 145L 205 150L 205 155L 210 155L 215 155L 215 160L 215 165L 220 165L 225 165L 225 170L 225 175L 230 175L 235 175L 235 180L 235 185L 240 185L 245 185L 245 195L 245 205L 250 205L 255 205L 255 200L 255 195L 260 195L 265 195L 265 205L 265 215L 270 215L 275 215L 275 205L 275 195L 270 195L 265 195L 265 190L 265 185L 275 185L 285 185L 285 180L 285 175L 275 175L 265 175L 265 170L 265 165L 260 165L 255 165L 255 170L 255 175L 245 175L 235 175L 235 170L 235 165L 230 165L 225 165L 225 160L 225 155L 220 155L 215 155L 215 150L 215 145L 220 145L 225 145L 225 140L 225 135L 220 135L 215 135L 215 140z"/>
<path style="stroke:none; fill:#000000" d="M 275 140L 275 145L 280 145L 285 145L 285 140L 285 135L 280 135L 275 135L 275 140z"/>
<path style="stroke:none; fill:#000000" d="M 125 180L 125 185L 120 185L 115 185L 115 190L 115 195L 110 195L 105 195L 105 190L 105 185L 100 185L 95 185L 95 190L 95 195L 100 195L 105 195L 105 205L 105 215L 110 215L 115 215L 115 210L 115 205L 120 205L 125 205L 125 200L 125 195L 130 195L 135 195L 135 200L 135 205L 145 205L 155 205L 155 200L 155 195L 145 195L 135 195L 135 190L 135 185L 140 185L 145 185L 145 180L 145 175L 135 175L 125 175L 125 180z"/>
<path style="stroke:none; fill:#000000" d="M 205 190L 205 195L 185 195L 165 195L 165 205L 165 215L 160 215L 155 215L 155 220L 155 225L 160 225L 165 225L 165 230L 165 235L 175 235L 185 235L 185 245L 185 255L 190 255L 195 255L 195 265L 195 275L 190 275L 185 275L 185 295L 185 315L 190 315L 195 315L 195 305L 195 295L 205 295L 215 295L 215 290L 215 285L 210 285L 205 285L 205 280L 205 275L 220 275L 235 275L 235 270L 235 265L 225 265L 215 265L 215 260L 215 255L 205 255L 195 255L 195 250L 195 245L 200 245L 205 245L 205 240L 205 235L 210 235L 215 235L 215 230L 215 225L 220 225L 225 225L 225 230L 225 235L 230 235L 235 235L 235 215L 235 195L 230 195L 225 195L 225 200L 225 205L 215 205L 205 205L 205 200L 205 195L 210 195L 215 195L 215 190L 215 185L 210 185L 205 185L 205 190zM 185 215L 185 225L 190 225L 195 225L 195 220L 195 215L 200 215L 205 215L 205 220L 205 225L 200 225L 195 225L 195 230L 195 235L 190 235L 185 235L 185 230L 185 225L 180 225L 175 225L 175 215L 175 205L 180 205L 185 205L 185 215z"/>
<path style="stroke:none; fill:#000000" d="M 265 235L 265 245L 270 245L 275 245L 275 255L 275 265L 280 265L 285 265L 285 260L 285 255L 290 255L 295 255L 295 245L 295 235L 300 235L 305 235L 305 230L 305 225L 300 225L 295 225L 295 230L 295 235L 290 235L 285 235L 285 240L 285 245L 280 245L 275 245L 275 235L 275 225L 270 225L 265 225L 265 235z"/>
<path style="stroke:none; fill:#000000" d="M 245 240L 245 245L 235 245L 225 245L 225 250L 225 255L 240 255L 255 255L 255 260L 255 265L 250 265L 245 265L 245 270L 245 275L 250 275L 255 275L 255 270L 255 265L 260 265L 265 265L 265 260L 265 255L 260 255L 255 255L 255 245L 255 235L 250 235L 245 235L 245 240z"/>
<path style="stroke:none; fill:#000000" d="M 165 275L 165 285L 170 285L 175 285L 175 275L 175 265L 170 265L 165 265L 165 275z"/>
<path style="stroke:none; fill:#000000" d="M 135 280L 135 285L 140 285L 145 285L 145 280L 145 275L 140 275L 135 275L 135 280z"/>
<path style="stroke:none; fill:#000000" d="M 135 300L 135 305L 145 305L 155 305L 155 310L 155 315L 165 315L 175 315L 175 310L 175 305L 170 305L 165 305L 165 300L 165 295L 150 295L 135 295L 135 300z"/>
<path style="stroke:none; fill:#000000" d="M 305 300L 305 305L 310 305L 315 305L 315 300L 315 295L 310 295L 305 295L 305 300z"/>
<path style="stroke:none; fill:#000000" d="M 285 310L 285 315L 290 315L 295 315L 295 310L 295 305L 290 305L 285 305L 285 310z"/>
<path style="stroke:none; fill:#000000" d="M 185 330L 185 335L 190 335L 195 335L 195 340L 195 345L 205 345L 215 345L 215 340L 215 335L 205 335L 195 335L 195 330L 195 325L 190 325L 185 325L 185 330z"/>
<path style="stroke:none; fill:#000000" d="M 135 340L 135 345L 140 345L 145 345L 145 340L 145 335L 140 335L 135 335L 135 340z"/>
<path style="stroke:none; fill:#000000" d="M 225 340L 225 345L 230 345L 235 345L 235 340L 235 335L 230 335L 225 335L 225 340z"/>
<path style="stroke:none; fill:#000000" d="M 135 360L 135 365L 140 365L 145 365L 145 360L 145 355L 140 355L 135 355L 135 360z"/>
<path style="stroke:none; fill:#000000" d="M 465 400L 465 405L 470 405L 475 405L 475 400L 475 395L 470 395L 465 395L 465 400z"/>
<path style="stroke:none; fill:#000000" d="M 245 410L 245 415L 240 415L 235 415L 235 420L 235 425L 240 425L 245 425L 245 430L 245 435L 250 435L 255 435L 255 420L 255 405L 250 405L 245 405L 245 410z"/>
<path style="stroke:none; fill:#000000" d="M 215 440L 215 445L 225 445L 235 445L 235 450L 235 455L 240 455L 245 455L 245 460L 245 465L 250 465L 255 465L 255 460L 255 455L 250 455L 245 455L 245 450L 245 445L 240 445L 235 445L 235 440L 235 435L 225 435L 215 435L 215 440z"/>
<path style="stroke:none; fill:#000000" d="M 185 450L 185 455L 190 455L 195 455L 195 460L 195 465L 185 465L 175 465L 175 460L 175 455L 170 455L 165 455L 165 475L 165 495L 160 495L 155 495L 155 500L 155 505L 160 505L 165 505L 165 500L 165 495L 170 495L 175 495L 175 485L 175 475L 185 475L 195 475L 195 480L 195 485L 200 485L 205 485L 205 495L 205 505L 215 505L 225 505L 225 495L 225 485L 215 485L 205 485L 205 465L 205 445L 195 445L 185 445L 185 450z"/>
<path style="stroke:none; fill:#000000" d="M 405 450L 405 455L 410 455L 415 455L 415 450L 415 445L 410 445L 405 445L 405 450z"/>
<path style="stroke:none; fill:#000000" d="M 115 460L 115 465L 120 465L 125 465L 125 475L 125 485L 120 485L 115 485L 115 490L 115 495L 120 495L 125 495L 125 490L 125 485L 140 485L 155 485L 155 480L 155 475L 145 475L 135 475L 135 470L 135 465L 145 465L 155 465L 155 460L 155 455L 145 455L 135 455L 135 460L 135 465L 130 465L 125 465L 125 460L 125 455L 120 455L 115 455L 115 460z"/>
<path style="stroke:none; fill:#000000" d="M 215 460L 215 465L 220 465L 225 465L 225 460L 225 455L 220 455L 215 455L 215 460z"/>
<path style="stroke:none; fill:#000000" d="M 435 460L 435 465L 440 465L 445 465L 445 460L 445 455L 440 455L 435 455L 435 460z"/>
<path style="stroke:none; fill:#000000" d="M 135 500L 135 505L 140 505L 145 505L 145 500L 145 495L 140 495L 135 495L 135 500z"/>
<path style="stroke:none; fill:#000000" d="M 365 500L 365 505L 370 505L 375 505L 375 500L 375 495L 370 495L 365 495L 365 500z"/>
<path style="stroke:none; fill:#000000" d="M 615 570L 615 575L 620 575L 625 575L 625 570L 625 565L 620 565L 615 565L 615 570z"/>
<path style="stroke:none; fill:#000000" d="M 665 570L 665 575L 680 575L 695 575L 695 570L 695 565L 680 565L 665 565L 665 570z"/>
<path style="stroke:none; fill:#000000" d="M 95 580L 95 585L 100 585L 105 585L 105 580L 105 575L 100 575L 95 575L 95 580z"/>
<path style="stroke:none; fill:#000000" d="M 255 610L 255 615L 250 615L 245 615L 245 620L 245 625L 250 625L 255 625L 255 620L 255 615L 260 615L 265 615L 265 610L 265 605L 260 605L 255 605L 255 610z"/>
<path style="stroke:none; fill:#000000" d="M 595 630L 595 635L 600 635L 605 635L 605 630L 605 625L 600 625L 595 625L 595 630z"/>
<path style="stroke:none; fill:#000000" d="M 575 660L 575 665L 580 665L 585 665L 585 670L 585 675L 595 675L 605 675L 605 685L 605 695L 615 695L 625 695L 625 700L 625 705L 630 705L 635 705L 635 700L 635 695L 630 695L 625 695L 625 690L 625 685L 620 685L 615 685L 615 680L 615 675L 620 675L 625 675L 625 670L 625 665L 620 665L 615 665L 615 670L 615 675L 610 675L 605 675L 605 670L 605 665L 600 665L 595 665L 595 660L 595 655L 585 655L 575 655L 575 660z"/>
<path style="stroke:none; fill:#000000" d="M 395 140L 395 145L 400 145L 405 145L 405 140L 405 135L 400 135L 395 135L 395 140z"/>
<path style="stroke:none; fill:#000000" d="M 135 400L 135 405L 140 405L 145 405L 145 400L 145 395L 140 395L 135 395L 135 400z"/>
<path style="stroke:none; fill:#000000" d="M 395 400L 395 405L 400 405L 405 405L 405 400L 405 395L 400 395L 395 395L 395 400z"/>
<path style="stroke:none; fill:#000000" d="M 655 400L 655 405L 660 405L 665 405L 665 400L 665 395L 660 395L 655 395L 655 400z"/>
<path style="stroke:none; fill:#000000" d="M 325 660L 325 665L 330 665L 335 665L 335 660L 335 655L 330 655L 325 655L 325 660z"/>
<path style="stroke:none; fill:#000000" d="M 395 660L 395 665L 400 665L 405 665L 405 660L 405 655L 400 655L 395 655L 395 660z"/>
<path style="stroke:none; fill:#000000" d="M 655 660L 655 665L 660 665L 665 665L 665 660L 665 655L 660 655L 655 655L 655 660z"/>
<path style="stroke:none; fill:#000000" d="M 695 680L 695 685L 700 685L 705 685L 705 680L 705 675L 700 675L 695 675L 695 680z"/>
<path style="stroke:none; fill:#000000" d="M 305 80L 305 85L 310 85L 315 85L 315 95L 315 105L 325 105L 335 105L 335 100L 335 95L 330 95L 325 95L 325 85L 325 75L 315 75L 305 75L 305 80z"/>
<path style="stroke:none; fill:#000000" d="M 335 80L 335 85L 340 85L 345 85L 345 80L 345 75L 340 75L 335 75L 335 80z"/>
<path style="stroke:none; fill:#000000" d="M 655 110L 655 145L 690 145L 725 145L 725 110L 725 75L 690 75L 655 75L 655 110zM 715 110L 715 135L 690 135L 665 135L 665 110L 665 85L 690 85L 715 85L 715 110z"/>
<path style="stroke:none; fill:#000000" d="M 675 110L 675 125L 690 125L 705 125L 705 110L 705 95L 690 95L 675 95L 675 110z"/>
<path style="stroke:none; fill:#000000" d="M 635 140L 635 145L 640 145L 645 145L 645 140L 645 135L 640 135L 635 135L 635 140z"/>
<path style="stroke:none; fill:#000000" d="M 705 190L 705 195L 700 195L 695 195L 695 200L 695 205L 700 205L 705 205L 705 210L 705 215L 715 215L 725 215L 725 210L 725 205L 720 205L 715 205L 715 195L 715 185L 710 185L 705 185L 705 190z"/>
<path style="stroke:none; fill:#000000" d="M 75 240L 75 245L 80 245L 85 245L 85 240L 85 235L 80 235L 75 235L 75 240z"/>
<path style="stroke:none; fill:#000000" d="M 75 690L 75 725L 110 725L 145 725L 145 690L 145 655L 110 655L 75 655L 75 690zM 135 690L 135 715L 110 715L 85 715L 85 690L 85 665L 110 665L 135 665L 135 690z"/>
<path style="stroke:none; fill:#000000" d="M 95 690L 95 705L 110 705L 125 705L 125 690L 125 675L 110 675L 95 675L 95 690z"/>
<path style="stroke:none; fill:#000000" d="M 155 720L 155 725L 165 725L 175 725L 175 720L 175 715L 165 715L 155 715L 155 720z"/>
</g>
</g>
</svg>