<?xml version="1.0" encoding="UTF-8" standalone="yes"?>
<!-- Created with sK1/UniConvertor (http://sk1project.org/) -->
<svg xmlns="http://www.w3.org/2000/svg" xmlns:xlink="http://www.w3.org/1999/xlink"
  width="800pt" height="800pt" viewBox="0 0 800 800"
  fill-rule="evenodd">
<g>
<g>
<path style="stroke:none; fill:#000000" d="M 71 102.5L 71 134L 102.5 134L 134 134L 134 102.5L 134 71L 102.5 71L 71 71L 71 102.5zM 125 102.5L 125 125L 102.5 125L 80 125L 80 102.5L 80 80L 102.5 80L 125 80L 125 102.5z"/>
<path style="stroke:none; fill:#000000" d="M 89 102.5L 89 116L 102.5 116L 116 116L 116 102.5L 116 89L 102.5 89L 89 89L 89 102.5z"/>
<path style="stroke:none; fill:#000000" d="M 161 75.5L 161 80L 156.5 80L 152 80L 152 84.5L 152 89L 147.5 89L 143 89L 143 116L 143 143L 147.5 143L 152 143L 152 152L 152 161L 147.5 161L 143 161L 143 156.5L 143 152L 138.5 152L 134 152L 134 147.5L 134 143L 111.5 143L 89 143L 89 147.5L 89 152L 84.5 152L 80 152L 80 147.5L 80 143L 75.5 143L 71 143L 71 152L 71 161L 80 161L 89 161L 89 165.5L 89 170L 93.5 170L 98 170L 98 179L 98 188L 102.5 188L 107 188L 107 192.5L 107 197L 102.5 197L 98 197L 98 206L 98 215L 84.5 215L 71 215L 71 224L 71 233L 75.5 233L 80 233L 80 237.5L 80 242L 75.5 242L 71 242L 71 251L 71 260L 80 260L 89 260L 89 264.5L 89 269L 80 269L 71 269L 71 273.5L 71 278L 75.5 278L 80 278L 80 282.5L 80 287L 75.5 287L 71 287L 71 291.5L 71 296L 75.5 296L 80 296L 80 309.5L 80 323L 75.5 323L 71 323L 71 327.5L 71 332L 75.5 332L 80 332L 80 336.5L 80 341L 75.5 341L 71 341L 71 354.5L 71 368L 75.5 368L 80 368L 80 372.5L 80 377L 75.5 377L 71 377L 71 386L 71 395L 75.5 395L 80 395L 80 404L 80 413L 75.5 413L 71 413L 71 417.5L 71 422L 75.5 422L 80 422L 80 426.5L 80 431L 75.5 431L 71 431L 71 444.5L 71 458L 75.5 458L 80 458L 80 471.5L 80 485L 84.5 485L 89 485L 89 489.5L 89 494L 80 494L 71 494L 71 507.5L 71 521L 75.5 521L 80 521L 80 525.5L 80 530L 75.5 530L 71 530L 71 543.5L 71 557L 75.5 557L 80 557L 80 561.5L 80 566L 84.5 566L 89 566L 89 570.5L 89 575L 93.5 575L 98 575L 98 579.5L 98 584L 93.5 584L 89 584L 89 588.5L 89 593L 84.5 593L 80 593L 80 584L 80 575L 75.5 575L 71 575L 71 588.5L 71 602L 75.5 602L 80 602L 80 606.5L 80 611L 75.5 611L 71 611L 71 624.5L 71 638L 80 638L 89 638L 89 633.5L 89 629L 84.5 629L 80 629L 80 624.5L 80 620L 89 620L 98 620L 98 633.5L 98 647L 102.5 647L 107 647L 107 651.5L 107 656L 111.5 656L 116 656L 116 647L 116 638L 129.5 638L 143 638L 143 642.5L 143 647L 134 647L 125 647L 125 651.5L 125 656L 134 656L 143 656L 143 660.5L 143 665L 147.5 665L 152 665L 152 660.5L 152 656L 147.5 656L 143 656L 143 651.5L 143 647L 152 647L 161 647L 161 651.5L 161 656L 165.5 656L 170 656L 170 660.5L 170 665L 174.5 665L 179 665L 179 674L 179 683L 174.5 683L 170 683L 170 678.5L 170 674L 156.5 674L 143 674L 143 692L 143 710L 147.5 710L 152 710L 152 714.5L 152 719L 147.5 719L 143 719L 143 723.5L 143 728L 152 728L 161 728L 161 723.5L 161 719L 170 719L 179 719L 179 710L 179 701L 188 701L 197 701L 197 705.5L 197 710L 192.5 710L 188 710L 188 714.5L 188 719L 197 719L 206 719L 206 723.5L 206 728L 219.5 728L 233 728L 233 723.5L 233 719L 237.5 719L 242 719L 242 714.5L 242 710L 246.5 710L 251 710L 251 701L 251 692L 255.5 692L 260 692L 260 696.5L 260 701L 264.5 701L 269 701L 269 714.5L 269 728L 273.5 728L 278 728L 278 719L 278 710L 291.5 710L 305 710L 305 714.5L 305 719L 296 719L 287 719L 287 723.5L 287 728L 296 728L 305 728L 305 723.5L 305 719L 314 719L 323 719L 323 723.5L 323 728L 327.5 728L 332 728L 332 723.5L 332 719L 336.5 719L 341 719L 341 714.5L 341 710L 336.5 710L 332 710L 332 705.5L 332 701L 341 701L 350 701L 350 714.5L 350 728L 354.5 728L 359 728L 359 723.5L 359 719L 368 719L 377 719L 377 714.5L 377 710L 381.5 710L 386 710L 386 705.5L 386 701L 395 701L 404 701L 404 696.5L 404 692L 408.5 692L 413 692L 413 687.5L 413 683L 426.5 683L 440 683L 440 687.5L 440 692L 431 692L 422 692L 422 696.5L 422 701L 417.5 701L 413 701L 413 705.5L 413 710L 408.5 710L 404 710L 404 714.5L 404 719L 395 719L 386 719L 386 723.5L 386 728L 404 728L 422 728L 422 719L 422 710L 426.5 710L 431 710L 431 714.5L 431 719L 435.5 719L 440 719L 440 723.5L 440 728L 453.5 728L 467 728L 467 723.5L 467 719L 476 719L 485 719L 485 714.5L 485 710L 489.5 710L 494 710L 494 714.5L 494 719L 498.5 719L 503 719L 503 723.5L 503 728L 507.5 728L 512 728L 512 723.5L 512 719L 507.5 719L 503 719L 503 714.5L 503 710L 512 710L 521 710L 521 705.5L 521 701L 516.5 701L 512 701L 512 687.5L 512 674L 521 674L 530 674L 530 692L 530 710L 534.5 710L 539 710L 539 714.5L 539 719L 534.5 719L 530 719L 530 723.5L 530 728L 539 728L 548 728L 548 719L 548 710L 552.5 710L 557 710L 557 705.5L 557 701L 575 701L 593 701L 593 705.5L 593 710L 579.5 710L 566 710L 566 714.5L 566 719L 561.5 719L 557 719L 557 723.5L 557 728L 561.5 728L 566 728L 566 723.5L 566 719L 575 719L 584 719L 584 723.5L 584 728L 593 728L 602 728L 602 723.5L 602 719L 606.5 719L 611 719L 611 723.5L 611 728L 615.5 728L 620 728L 620 723.5L 620 719L 624.5 719L 629 719L 629 723.5L 629 728L 633.5 728L 638 728L 638 723.5L 638 719L 651.5 719L 665 719L 665 723.5L 665 728L 669.5 728L 674 728L 674 723.5L 674 719L 678.5 719L 683 719L 683 710L 683 701L 687.5 701L 692 701L 692 696.5L 692 692L 705.5 692L 719 692L 719 705.5L 719 719L 710 719L 701 719L 701 714.5L 701 710L 696.5 710L 692 710L 692 719L 692 728L 710 728L 728 728L 728 710L 728 692L 723.5 692L 719 692L 719 687.5L 719 683L 705.5 683L 692 683L 692 669.5L 692 656L 696.5 656L 701 656L 701 665L 701 674L 714.5 674L 728 674L 728 669.5L 728 665L 719 665L 710 665L 710 660.5L 710 656L 714.5 656L 719 656L 719 651.5L 719 647L 687.5 647L 656 647L 656 642.5L 656 638L 660.5 638L 665 638L 665 633.5L 665 629L 660.5 629L 656 629L 656 633.5L 656 638L 651.5 638L 647 638L 647 633.5L 647 629L 642.5 629L 638 629L 638 624.5L 638 620L 642.5 620L 647 620L 647 606.5L 647 593L 656 593L 665 593L 665 602L 665 611L 660.5 611L 656 611L 656 615.5L 656 620L 665 620L 674 620L 674 624.5L 674 629L 678.5 629L 683 629L 683 624.5L 683 620L 687.5 620L 692 620L 692 611L 692 602L 705.5 602L 719 602L 719 611L 719 620L 714.5 620L 710 620L 710 615.5L 710 611L 705.5 611L 701 611L 701 624.5L 701 638L 714.5 638L 728 638L 728 633.5L 728 629L 723.5 629L 719 629L 719 624.5L 719 620L 723.5 620L 728 620L 728 606.5L 728 593L 723.5 593L 719 593L 719 588.5L 719 584L 723.5 584L 728 584L 728 570.5L 728 557L 710 557L 692 557L 692 561.5L 692 566L 687.5 566L 683 566L 683 557L 683 548L 696.5 548L 710 548L 710 543.5L 710 539L 696.5 539L 683 539L 683 543.5L 683 548L 678.5 548L 674 548L 674 539L 674 530L 696.5 530L 719 530L 719 539L 719 548L 723.5 548L 728 548L 728 534.5L 728 521L 723.5 521L 719 521L 719 516.5L 719 512L 714.5 512L 710 512L 710 507.5L 710 503L 719 503L 728 503L 728 494L 728 485L 719 485L 710 485L 710 494L 710 503L 701 503L 692 503L 692 489.5L 692 476L 705.5 476L 719 476L 719 471.5L 719 467L 710 467L 701 467L 701 462.5L 701 458L 714.5 458L 728 458L 728 453.5L 728 449L 723.5 449L 719 449L 719 444.5L 719 440L 723.5 440L 728 440L 728 435.5L 728 431L 723.5 431L 719 431L 719 426.5L 719 422L 723.5 422L 728 422L 728 417.5L 728 413L 723.5 413L 719 413L 719 417.5L 719 422L 714.5 422L 710 422L 710 426.5L 710 431L 701 431L 692 431L 692 426.5L 692 422L 696.5 422L 701 422L 701 417.5L 701 413L 705.5 413L 710 413L 710 404L 710 395L 714.5 395L 719 395L 719 399.5L 719 404L 723.5 404L 728 404L 728 381.5L 728 359L 723.5 359L 719 359L 719 354.5L 719 350L 723.5 350L 728 350L 728 345.5L 728 341L 723.5 341L 719 341L 719 336.5L 719 332L 723.5 332L 728 332L 728 318.5L 728 305L 723.5 305L 719 305L 719 314L 719 323L 705.5 323L 692 323L 692 318.5L 692 314L 696.5 314L 701 314L 701 305L 701 296L 705.5 296L 710 296L 710 291.5L 710 287L 705.5 287L 701 287L 701 291.5L 701 296L 696.5 296L 692 296L 692 291.5L 692 287L 687.5 287L 683 287L 683 282.5L 683 278L 687.5 278L 692 278L 692 273.5L 692 269L 687.5 269L 683 269L 683 273.5L 683 278L 678.5 278L 674 278L 674 264.5L 674 251L 678.5 251L 683 251L 683 255.5L 683 260L 692 260L 701 260L 701 255.5L 701 251L 692 251L 683 251L 683 246.5L 683 242L 687.5 242L 692 242L 692 237.5L 692 233L 696.5 233L 701 233L 701 228.5L 701 224L 705.5 224L 710 224L 710 219.5L 710 215L 714.5 215L 719 215L 719 219.5L 719 224L 723.5 224L 728 224L 728 219.5L 728 215L 723.5 215L 719 215L 719 210.5L 719 206L 723.5 206L 728 206L 728 201.5L 728 197L 719 197L 710 197L 710 206L 710 215L 705.5 215L 701 215L 701 219.5L 701 224L 696.5 224L 692 224L 692 219.5L 692 215L 687.5 215L 683 215L 683 210.5L 683 206L 692 206L 701 206L 701 197L 701 188L 710 188L 719 188L 719 179L 719 170L 723.5 170L 728 170L 728 165.5L 728 161L 719 161L 710 161L 710 170L 710 179L 701 179L 692 179L 692 188L 692 197L 687.5 197L 683 197L 683 192.5L 683 188L 678.5 188L 674 188L 674 183.5L 674 179L 678.5 179L 683 179L 683 174.5L 683 170L 692 170L 701 170L 701 165.5L 701 161L 692 161L 683 161L 683 156.5L 683 152L 696.5 152L 710 152L 710 147.5L 710 143L 687.5 143L 665 143L 665 147.5L 665 152L 660.5 152L 656 152L 656 147.5L 656 143L 651.5 143L 647 143L 647 138.5L 647 134L 651.5 134L 656 134L 656 129.5L 656 125L 651.5 125L 647 125L 647 129.5L 647 134L 642.5 134L 638 134L 638 125L 638 116L 647 116L 656 116L 656 111.5L 656 107L 651.5 107L 647 107L 647 102.5L 647 98L 638 98L 629 98L 629 102.5L 629 107L 624.5 107L 620 107L 620 111.5L 620 116L 615.5 116L 611 116L 611 125L 611 134L 606.5 134L 602 134L 602 125L 602 116L 597.5 116L 593 116L 593 111.5L 593 107L 597.5 107L 602 107L 602 102.5L 602 98L 606.5 98L 611 98L 611 93.5L 611 89L 606.5 89L 602 89L 602 80L 602 71L 593 71L 584 71L 584 75.5L 584 80L 588.5 80L 593 80L 593 89L 593 98L 588.5 98L 584 98L 584 93.5L 584 89L 570.5 89L 557 89L 557 84.5L 557 80L 552.5 80L 548 80L 548 84.5L 548 89L 543.5 89L 539 89L 539 93.5L 539 98L 534.5 98L 530 98L 530 102.5L 530 107L 525.5 107L 521 107L 521 111.5L 521 116L 530 116L 539 116L 539 107L 539 98L 543.5 98L 548 98L 548 102.5L 548 107L 552.5 107L 557 107L 557 125L 557 143L 552.5 143L 548 143L 548 134L 548 125L 543.5 125L 539 125L 539 134L 539 143L 534.5 143L 530 143L 530 134L 530 125L 525.5 125L 521 125L 521 134L 521 143L 516.5 143L 512 143L 512 125L 512 107L 507.5 107L 503 107L 503 102.5L 503 98L 507.5 98L 512 98L 512 93.5L 512 89L 521 89L 530 89L 530 84.5L 530 80L 534.5 80L 539 80L 539 75.5L 539 71L 530 71L 521 71L 521 75.5L 521 80L 516.5 80L 512 80L 512 84.5L 512 89L 507.5 89L 503 89L 503 93.5L 503 98L 498.5 98L 494 98L 494 93.5L 494 89L 489.5 89L 485 89L 485 84.5L 485 80L 489.5 80L 494 80L 494 75.5L 494 71L 489.5 71L 485 71L 485 75.5L 485 80L 480.5 80L 476 80L 476 84.5L 476 89L 471.5 89L 467 89L 467 93.5L 467 98L 462.5 98L 458 98L 458 102.5L 458 107L 449 107L 440 107L 440 116L 440 125L 435.5 125L 431 125L 431 120.5L 431 116L 422 116L 413 116L 413 125L 413 134L 408.5 134L 404 134L 404 125L 404 116L 399.5 116L 395 116L 395 111.5L 395 107L 399.5 107L 404 107L 404 102.5L 404 98L 413 98L 422 98L 422 89L 422 80L 417.5 80L 413 80L 413 84.5L 413 89L 408.5 89L 404 89L 404 80L 404 71L 399.5 71L 395 71L 395 80L 395 89L 399.5 89L 404 89L 404 93.5L 404 98L 395 98L 386 98L 386 107L 386 116L 372.5 116L 359 116L 359 107L 359 98L 363.5 98L 368 98L 368 102.5L 368 107L 372.5 107L 377 107L 377 98L 377 89L 381.5 89L 386 89L 386 84.5L 386 80L 377 80L 368 80L 368 84.5L 368 89L 363.5 89L 359 89L 359 93.5L 359 98L 350 98L 341 98L 341 93.5L 341 89L 332 89L 323 89L 323 84.5L 323 80L 336.5 80L 350 80L 350 75.5L 350 71L 327.5 71L 305 71L 305 75.5L 305 80L 300.5 80L 296 80L 296 93.5L 296 107L 291.5 107L 287 107L 287 98L 287 89L 278 89L 269 89L 269 84.5L 269 80L 273.5 80L 278 80L 278 75.5L 278 71L 273.5 71L 269 71L 269 75.5L 269 80L 264.5 80L 260 80L 260 84.5L 260 89L 255.5 89L 251 89L 251 84.5L 251 80L 246.5 80L 242 80L 242 75.5L 242 71L 237.5 71L 233 71L 233 75.5L 233 80L 228.5 80L 224 80L 224 75.5L 224 71L 219.5 71L 215 71L 215 75.5L 215 80L 219.5 80L 224 80L 224 84.5L 224 89L 219.5 89L 215 89L 215 93.5L 215 98L 206 98L 197 98L 197 93.5L 197 89L 201.5 89L 206 89L 206 80L 206 71L 201.5 71L 197 71L 197 75.5L 197 80L 183.5 80L 170 80L 170 75.5L 170 71L 165.5 71L 161 71L 161 75.5zM 170 84.5L 170 89L 165.5 89L 161 89L 161 84.5L 161 80L 165.5 80L 170 80L 170 84.5zM 242 84.5L 242 89L 237.5 89L 233 89L 233 84.5L 233 80L 237.5 80L 242 80L 242 84.5zM 314 84.5L 314 89L 318.5 89L 323 89L 323 98L 323 107L 314 107L 305 107L 305 93.5L 305 80L 309.5 80L 314 80L 314 84.5zM 188 93.5L 188 98L 183.5 98L 179 98L 179 107L 179 116L 183.5 116L 188 116L 188 111.5L 188 107L 201.5 107L 215 107L 215 102.5L 215 98L 219.5 98L 224 98L 224 102.5L 224 107L 233 107L 242 107L 242 102.5L 242 98L 251 98L 260 98L 260 107L 260 116L 269 116L 278 116L 278 111.5L 278 107L 273.5 107L 269 107L 269 102.5L 269 98L 273.5 98L 278 98L 278 102.5L 278 107L 282.5 107L 287 107L 287 120.5L 287 134L 282.5 134L 278 134L 278 129.5L 278 125L 273.5 125L 269 125L 269 134L 269 143L 273.5 143L 278 143L 278 147.5L 278 152L 287 152L 296 152L 296 161L 296 170L 300.5 170L 305 170L 305 165.5L 305 161L 309.5 161L 314 161L 314 156.5L 314 152L 318.5 152L 323 152L 323 161L 323 170L 327.5 170L 332 170L 332 156.5L 332 143L 336.5 143L 341 143L 341 138.5L 341 134L 336.5 134L 332 134L 332 129.5L 332 125L 336.5 125L 341 125L 341 120.5L 341 116L 350 116L 359 116L 359 129.5L 359 143L 363.5 143L 368 143L 368 134L 368 125L 372.5 125L 377 125L 377 129.5L 377 134L 381.5 134L 386 134L 386 125L 386 116L 390.5 116L 395 116L 395 125L 395 134L 399.5 134L 404 134L 404 138.5L 404 143L 422 143L 440 143L 440 134L 440 125L 444.5 125L 449 125L 449 120.5L 449 116L 453.5 116L 458 116L 458 120.5L 458 125L 462.5 125L 467 125L 467 129.5L 467 134L 462.5 134L 458 134L 458 129.5L 458 125L 453.5 125L 449 125L 449 134L 449 143L 453.5 143L 458 143L 458 147.5L 458 152L 462.5 152L 467 152L 467 156.5L 467 161L 471.5 161L 476 161L 476 156.5L 476 152L 489.5 152L 503 152L 503 165.5L 503 179L 507.5 179L 512 179L 512 183.5L 512 188L 521 188L 530 188L 530 192.5L 530 197L 516.5 197L 503 197L 503 206L 503 215L 507.5 215L 512 215L 512 210.5L 512 206L 525.5 206L 539 206L 539 201.5L 539 197L 543.5 197L 548 197L 548 183.5L 548 170L 552.5 170L 557 170L 557 165.5L 557 161L 548 161L 539 161L 539 170L 539 179L 530 179L 521 179L 521 170L 521 161L 516.5 161L 512 161L 512 156.5L 512 152L 516.5 152L 521 152L 521 156.5L 521 161L 530 161L 539 161L 539 156.5L 539 152L 552.5 152L 566 152L 566 147.5L 566 143L 579.5 143L 593 143L 593 138.5L 593 134L 588.5 134L 584 134L 584 129.5L 584 125L 579.5 125L 575 125L 575 129.5L 575 134L 570.5 134L 566 134L 566 120.5L 566 107L 561.5 107L 557 107L 557 102.5L 557 98L 570.5 98L 584 98L 584 102.5L 584 107L 579.5 107L 575 107L 575 111.5L 575 116L 584 116L 593 116L 593 125L 593 134L 597.5 134L 602 134L 602 138.5L 602 143L 606.5 143L 611 143L 611 138.5L 611 134L 615.5 134L 620 134L 620 129.5L 620 125L 624.5 125L 629 125L 629 134L 629 143L 638 143L 647 143L 647 147.5L 647 152L 651.5 152L 656 152L 656 156.5L 656 161L 651.5 161L 647 161L 647 165.5L 647 170L 660.5 170L 674 170L 674 165.5L 674 161L 669.5 161L 665 161L 665 156.5L 665 152L 669.5 152L 674 152L 674 156.5L 674 161L 678.5 161L 683 161L 683 165.5L 683 170L 678.5 170L 674 170L 674 174.5L 674 179L 669.5 179L 665 179L 665 183.5L 665 188L 669.5 188L 674 188L 674 192.5L 674 197L 678.5 197L 683 197L 683 201.5L 683 206L 678.5 206L 674 206L 674 210.5L 674 215L 660.5 215L 647 215L 647 219.5L 647 224L 642.5 224L 638 224L 638 228.5L 638 233L 642.5 233L 647 233L 647 237.5L 647 242L 660.5 242L 674 242L 674 237.5L 674 233L 678.5 233L 683 233L 683 237.5L 683 242L 678.5 242L 674 242L 674 246.5L 674 251L 669.5 251L 665 251L 665 260L 665 269L 660.5 269L 656 269L 656 273.5L 656 278L 665 278L 674 278L 674 282.5L 674 287L 660.5 287L 647 287L 647 291.5L 647 296L 642.5 296L 638 296L 638 291.5L 638 287L 633.5 287L 629 287L 629 296L 629 305L 624.5 305L 620 305L 620 309.5L 620 314L 633.5 314L 647 314L 647 318.5L 647 323L 633.5 323L 620 323L 620 327.5L 620 332L 656 332L 692 332L 692 341L 692 350L 701 350L 710 350L 710 354.5L 710 359L 714.5 359L 719 359L 719 363.5L 719 368L 714.5 368L 710 368L 710 372.5L 710 377L 705.5 377L 701 377L 701 381.5L 701 386L 705.5 386L 710 386L 710 390.5L 710 395L 701 395L 692 395L 692 399.5L 692 404L 687.5 404L 683 404L 683 408.5L 683 413L 687.5 413L 692 413L 692 417.5L 692 422L 687.5 422L 683 422L 683 426.5L 683 431L 687.5 431L 692 431L 692 435.5L 692 440L 696.5 440L 701 440L 701 444.5L 701 449L 696.5 449L 692 449L 692 458L 692 467L 683 467L 674 467L 674 462.5L 674 458L 669.5 458L 665 458L 665 462.5L 665 467L 656 467L 647 467L 647 462.5L 647 458L 651.5 458L 656 458L 656 453.5L 656 449L 665 449L 674 449L 674 444.5L 674 440L 656 440L 638 440L 638 444.5L 638 449L 629 449L 620 449L 620 444.5L 620 440L 611 440L 602 440L 602 435.5L 602 431L 606.5 431L 611 431L 611 426.5L 611 422L 606.5 422L 602 422L 602 408.5L 602 395L 606.5 395L 611 395L 611 390.5L 611 386L 606.5 386L 602 386L 602 381.5L 602 377L 597.5 377L 593 377L 593 381.5L 593 386L 584 386L 575 386L 575 381.5L 575 377L 570.5 377L 566 377L 566 386L 566 395L 575 395L 584 395L 584 404L 584 413L 588.5 413L 593 413L 593 417.5L 593 422L 588.5 422L 584 422L 584 417.5L 584 413L 575 413L 566 413L 566 417.5L 566 422L 561.5 422L 557 422L 557 417.5L 557 413L 552.5 413L 548 413L 548 417.5L 548 422L 543.5 422L 539 422L 539 426.5L 539 431L 530 431L 521 431L 521 422L 521 413L 512 413L 503 413L 503 426.5L 503 440L 507.5 440L 512 440L 512 444.5L 512 449L 516.5 449L 521 449L 521 444.5L 521 440L 534.5 440L 548 440L 548 444.5L 548 449L 557 449L 566 449L 566 444.5L 566 440L 561.5 440L 557 440L 557 435.5L 557 431L 566 431L 575 431L 575 435.5L 575 440L 579.5 440L 584 440L 584 444.5L 584 449L 588.5 449L 593 449L 593 453.5L 593 458L 588.5 458L 584 458L 584 467L 584 476L 579.5 476L 575 476L 575 480.5L 575 485L 570.5 485L 566 485L 566 489.5L 566 494L 561.5 494L 557 494L 557 498.5L 557 503L 552.5 503L 548 503L 548 507.5L 548 512L 552.5 512L 557 512L 557 516.5L 557 521L 561.5 521L 566 521L 566 512L 566 503L 575 503L 584 503L 584 512L 584 521L 588.5 521L 593 521L 593 525.5L 593 530L 597.5 530L 602 530L 602 534.5L 602 539L 606.5 539L 611 539L 611 534.5L 611 530L 629 530L 647 530L 647 534.5L 647 539L 651.5 539L 656 539L 656 543.5L 656 548L 665 548L 674 548L 674 557L 674 566L 678.5 566L 683 566L 683 570.5L 683 575L 678.5 575L 674 575L 674 570.5L 674 566L 669.5 566L 665 566L 665 570.5L 665 575L 660.5 575L 656 575L 656 579.5L 656 584L 651.5 584L 647 584L 647 588.5L 647 593L 642.5 593L 638 593L 638 588.5L 638 584L 642.5 584L 647 584L 647 570.5L 647 557L 642.5 557L 638 557L 638 548L 638 539L 633.5 539L 629 539L 629 548L 629 557L 624.5 557L 620 557L 620 561.5L 620 566L 629 566L 638 566L 638 570.5L 638 575L 633.5 575L 629 575L 629 584L 629 593L 620 593L 611 593L 611 588.5L 611 584L 606.5 584L 602 584L 602 588.5L 602 593L 597.5 593L 593 593L 593 597.5L 593 602L 597.5 602L 602 602L 602 606.5L 602 611L 606.5 611L 611 611L 611 615.5L 611 620L 615.5 620L 620 620L 620 611L 620 602L 629 602L 638 602L 638 606.5L 638 611L 633.5 611L 629 611L 629 620L 629 629L 620 629L 611 629L 611 633.5L 611 638L 629 638L 647 638L 647 642.5L 647 647L 642.5 647L 638 647L 638 656L 638 665L 642.5 665L 647 665L 647 674L 647 683L 638 683L 629 683L 629 678.5L 629 674L 633.5 674L 638 674L 638 669.5L 638 665L 624.5 665L 611 665L 611 669.5L 611 674L 606.5 674L 602 674L 602 678.5L 602 683L 611 683L 620 683L 620 687.5L 620 692L 633.5 692L 647 692L 647 696.5L 647 701L 651.5 701L 656 701L 656 705.5L 656 710L 651.5 710L 647 710L 647 705.5L 647 701L 629 701L 611 701L 611 696.5L 611 692L 606.5 692L 602 692L 602 696.5L 602 701L 597.5 701L 593 701L 593 696.5L 593 692L 579.5 692L 566 692L 566 687.5L 566 683L 579.5 683L 593 683L 593 678.5L 593 674L 588.5 674L 584 674L 584 669.5L 584 665L 579.5 665L 575 665L 575 669.5L 575 674L 566 674L 557 674L 557 678.5L 557 683L 548 683L 539 683L 539 678.5L 539 674L 534.5 674L 530 674L 530 669.5L 530 665L 521 665L 512 665L 512 660.5L 512 656L 521 656L 530 656L 530 660.5L 530 665L 534.5 665L 539 665L 539 660.5L 539 656L 543.5 656L 548 656L 548 647L 548 638L 543.5 638L 539 638L 539 642.5L 539 647L 530 647L 521 647L 521 638L 521 629L 512 629L 503 629L 503 633.5L 503 638L 507.5 638L 512 638L 512 642.5L 512 647L 503 647L 494 647L 494 638L 494 629L 485 629L 476 629L 476 633.5L 476 638L 480.5 638L 485 638L 485 642.5L 485 647L 480.5 647L 476 647L 476 642.5L 476 638L 453.5 638L 431 638L 431 642.5L 431 647L 449 647L 467 647L 467 651.5L 467 656L 458 656L 449 656L 449 660.5L 449 665L 453.5 665L 458 665L 458 669.5L 458 674L 449 674L 440 674L 440 669.5L 440 665L 435.5 665L 431 665L 431 669.5L 431 674L 426.5 674L 422 674L 422 669.5L 422 665L 417.5 665L 413 665L 413 674L 413 683L 399.5 683L 386 683L 386 674L 386 665L 381.5 665L 377 665L 377 674L 377 683L 372.5 683L 368 683L 368 687.5L 368 692L 377 692L 386 692L 386 696.5L 386 701L 377 701L 368 701L 368 696.5L 368 692L 363.5 692L 359 692L 359 687.5L 359 683L 354.5 683L 350 683L 350 687.5L 350 692L 341 692L 332 692L 332 696.5L 332 701L 327.5 701L 323 701L 323 705.5L 323 710L 327.5 710L 332 710L 332 714.5L 332 719L 327.5 719L 323 719L 323 714.5L 323 710L 318.5 710L 314 710L 314 701L 314 692L 323 692L 332 692L 332 687.5L 332 683L 336.5 683L 341 683L 341 678.5L 341 674L 336.5 674L 332 674L 332 669.5L 332 665L 341 665L 350 665L 350 660.5L 350 656L 354.5 656L 359 656L 359 651.5L 359 647L 345.5 647L 332 647L 332 638L 332 629L 341 629L 350 629L 350 633.5L 350 638L 354.5 638L 359 638L 359 624.5L 359 611L 363.5 611L 368 611L 368 606.5L 368 602L 381.5 602L 395 602L 395 597.5L 395 593L 386 593L 377 593L 377 584L 377 575L 363.5 575L 350 575L 350 579.5L 350 584L 354.5 584L 359 584L 359 588.5L 359 593L 354.5 593L 350 593L 350 597.5L 350 602L 345.5 602L 341 602L 341 606.5L 341 611L 345.5 611L 350 611L 350 615.5L 350 620L 345.5 620L 341 620L 341 615.5L 341 611L 332 611L 323 611L 323 615.5L 323 620L 318.5 620L 314 620L 314 624.5L 314 629L 309.5 629L 305 629L 305 633.5L 305 638L 300.5 638L 296 638L 296 642.5L 296 647L 287 647L 278 647L 278 656L 278 665L 282.5 665L 287 665L 287 669.5L 287 674L 278 674L 269 674L 269 678.5L 269 683L 273.5 683L 278 683L 278 687.5L 278 692L 282.5 692L 287 692L 287 696.5L 287 701L 278 701L 269 701L 269 696.5L 269 692L 264.5 692L 260 692L 260 687.5L 260 683L 251 683L 242 683L 242 692L 242 701L 237.5 701L 233 701L 233 705.5L 233 710L 228.5 710L 224 710L 224 701L 224 692L 228.5 692L 233 692L 233 687.5L 233 683L 224 683L 215 683L 215 692L 215 701L 206 701L 197 701L 197 692L 197 683L 192.5 683L 188 683L 188 687.5L 188 692L 183.5 692L 179 692L 179 696.5L 179 701L 174.5 701L 170 701L 170 705.5L 170 710L 161 710L 152 710L 152 705.5L 152 701L 161 701L 170 701L 170 696.5L 170 692L 174.5 692L 179 692L 179 687.5L 179 683L 183.5 683L 188 683L 188 674L 188 665L 183.5 665L 179 665L 179 660.5L 179 656L 183.5 656L 188 656L 188 638L 188 620L 183.5 620L 179 620L 179 615.5L 179 611L 170 611L 161 611L 161 606.5L 161 602L 156.5 602L 152 602L 152 597.5L 152 593L 125 593L 98 593L 98 602L 98 611L 111.5 611L 125 611L 125 606.5L 125 602L 134 602L 143 602L 143 606.5L 143 611L 147.5 611L 152 611L 152 615.5L 152 620L 161 620L 170 620L 170 624.5L 170 629L 165.5 629L 161 629L 161 633.5L 161 638L 165.5 638L 170 638L 170 642.5L 170 647L 165.5 647L 161 647L 161 642.5L 161 638L 156.5 638L 152 638L 152 633.5L 152 629L 134 629L 116 629L 116 633.5L 116 638L 111.5 638L 107 638L 107 629L 107 620L 102.5 620L 98 620L 98 615.5L 98 611L 93.5 611L 89 611L 89 602L 89 593L 93.5 593L 98 593L 98 588.5L 98 584L 107 584L 116 584L 116 579.5L 116 575L 107 575L 98 575L 98 570.5L 98 566L 107 566L 116 566L 116 561.5L 116 557L 98 557L 80 557L 80 552.5L 80 548L 84.5 548L 89 548L 89 543.5L 89 539L 84.5 539L 80 539L 80 534.5L 80 530L 84.5 530L 89 530L 89 516.5L 89 503L 93.5 503L 98 503L 98 498.5L 98 494L 102.5 494L 107 494L 107 503L 107 512L 102.5 512L 98 512L 98 525.5L 98 539L 107 539L 116 539L 116 534.5L 116 530L 111.5 530L 107 530L 107 525.5L 107 521L 111.5 521L 116 521L 116 525.5L 116 530L 125 530L 134 530L 134 525.5L 134 521L 129.5 521L 125 521L 125 516.5L 125 512L 138.5 512L 152 512L 152 498.5L 152 485L 156.5 485L 161 485L 161 489.5L 161 494L 165.5 494L 170 494L 170 498.5L 170 503L 183.5 503L 197 503L 197 498.5L 197 494L 201.5 494L 206 494L 206 485L 206 476L 201.5 476L 197 476L 197 480.5L 197 485L 192.5 485L 188 485L 188 489.5L 188 494L 183.5 494L 179 494L 179 485L 179 476L 188 476L 197 476L 197 471.5L 197 467L 201.5 467L 206 467L 206 453.5L 206 440L 215 440L 224 440L 224 435.5L 224 431L 228.5 431L 233 431L 233 422L 233 413L 224 413L 215 413L 215 422L 215 431L 206 431L 197 431L 197 435.5L 197 440L 188 440L 179 440L 179 444.5L 179 449L 188 449L 197 449L 197 453.5L 197 458L 183.5 458L 170 458L 170 449L 170 440L 161 440L 152 440L 152 453.5L 152 467L 161 467L 170 467L 170 471.5L 170 476L 161 476L 152 476L 152 471.5L 152 467L 147.5 467L 143 467L 143 458L 143 449L 125 449L 107 449L 107 440L 107 431L 98 431L 89 431L 89 426.5L 89 422L 98 422L 107 422L 107 417.5L 107 413L 102.5 413L 98 413L 98 408.5L 98 404L 93.5 404L 89 404L 89 399.5L 89 395L 84.5 395L 80 395L 80 390.5L 80 386L 89 386L 98 386L 98 377L 98 368L 89 368L 80 368L 80 354.5L 80 341L 84.5 341L 89 341L 89 336.5L 89 332L 84.5 332L 80 332L 80 327.5L 80 323L 84.5 323L 89 323L 89 318.5L 89 314L 98 314L 107 314L 107 327.5L 107 341L 111.5 341L 116 341L 116 336.5L 116 332L 125 332L 134 332L 134 336.5L 134 341L 138.5 341L 143 341L 143 336.5L 143 332L 147.5 332L 152 332L 152 336.5L 152 341L 156.5 341L 161 341L 161 332L 161 323L 156.5 323L 152 323L 152 314L 152 305L 156.5 305L 161 305L 161 300.5L 161 296L 165.5 296L 170 296L 170 300.5L 170 305L 174.5 305L 179 305L 179 300.5L 179 296L 183.5 296L 188 296L 188 300.5L 188 305L 192.5 305L 197 305L 197 296L 197 287L 192.5 287L 188 287L 188 282.5L 188 278L 183.5 278L 179 278L 179 282.5L 179 287L 174.5 287L 170 287L 170 273.5L 170 260L 174.5 260L 179 260L 179 255.5L 179 251L 183.5 251L 188 251L 188 246.5L 188 242L 197 242L 206 242L 206 246.5L 206 251L 210.5 251L 215 251L 215 255.5L 215 260L 210.5 260L 206 260L 206 255.5L 206 251L 197 251L 188 251L 188 255.5L 188 260L 183.5 260L 179 260L 179 264.5L 179 269L 183.5 269L 188 269L 188 273.5L 188 278L 192.5 278L 197 278L 197 273.5L 197 269L 201.5 269L 206 269L 206 273.5L 206 278L 201.5 278L 197 278L 197 282.5L 197 287L 215 287L 233 287L 233 282.5L 233 278L 228.5 278L 224 278L 224 260L 224 242L 228.5 242L 233 242L 233 237.5L 233 233L 224 233L 215 233L 215 228.5L 215 224L 210.5 224L 206 224L 206 228.5L 206 233L 201.5 233L 197 233L 197 228.5L 197 224L 201.5 224L 206 224L 206 219.5L 206 215L 197 215L 188 215L 188 210.5L 188 206L 192.5 206L 197 206L 197 201.5L 197 197L 192.5 197L 188 197L 188 188L 188 179L 192.5 179L 197 179L 197 183.5L 197 188L 201.5 188L 206 188L 206 170L 206 152L 210.5 152L 215 152L 215 156.5L 215 161L 224 161L 233 161L 233 156.5L 233 152L 228.5 152L 224 152L 224 147.5L 224 143L 233 143L 242 143L 242 152L 242 161L 237.5 161L 233 161L 233 165.5L 233 170L 224 170L 215 170L 215 183.5L 215 197L 224 197L 233 197L 233 201.5L 233 206L 237.5 206L 242 206L 242 201.5L 242 197L 251 197L 260 197L 260 192.5L 260 188L 251 188L 242 188L 242 183.5L 242 179L 251 179L 260 179L 260 183.5L 260 188L 264.5 188L 269 188L 269 174.5L 269 161L 273.5 161L 278 161L 278 156.5L 278 152L 269 152L 260 152L 260 156.5L 260 161L 255.5 161L 251 161L 251 156.5L 251 152L 255.5 152L 260 152L 260 147.5L 260 143L 255.5 143L 251 143L 251 138.5L 251 134L 246.5 134L 242 134L 242 129.5L 242 125L 246.5 125L 251 125L 251 129.5L 251 134L 255.5 134L 260 134L 260 125L 260 116L 255.5 116L 251 116L 251 111.5L 251 107L 246.5 107L 242 107L 242 111.5L 242 116L 233 116L 224 116L 224 120.5L 224 125L 228.5 125L 233 125L 233 129.5L 233 134L 228.5 134L 224 134L 224 129.5L 224 125L 219.5 125L 215 125L 215 134L 215 143L 210.5 143L 206 143L 206 134L 206 125L 201.5 125L 197 125L 197 129.5L 197 134L 192.5 134L 188 134L 188 138.5L 188 143L 192.5 143L 197 143L 197 147.5L 197 152L 192.5 152L 188 152L 188 147.5L 188 143L 183.5 143L 179 143L 179 147.5L 179 152L 174.5 152L 170 152L 170 165.5L 170 179L 174.5 179L 179 179L 179 201.5L 179 224L 174.5 224L 170 224L 170 228.5L 170 233L 174.5 233L 179 233L 179 237.5L 179 242L 174.5 242L 170 242L 170 237.5L 170 233L 165.5 233L 161 233L 161 224L 161 215L 156.5 215L 152 215L 152 210.5L 152 206L 147.5 206L 143 206L 143 201.5L 143 197L 134 197L 125 197L 125 201.5L 125 206L 129.5 206L 134 206L 134 210.5L 134 215L 129.5 215L 125 215L 125 219.5L 125 224L 129.5 224L 134 224L 134 228.5L 134 233L 129.5 233L 125 233L 125 237.5L 125 242L 129.5 242L 134 242L 134 246.5L 134 251L 129.5 251L 125 251L 125 255.5L 125 260L 129.5 260L 134 260L 134 264.5L 134 269L 129.5 269L 125 269L 125 273.5L 125 278L 134 278L 143 278L 143 273.5L 143 269L 147.5 269L 152 269L 152 255.5L 152 242L 147.5 242L 143 242L 143 233L 143 224L 147.5 224L 152 224L 152 233L 152 242L 156.5 242L 161 242L 161 260L 161 278L 152 278L 143 278L 143 282.5L 143 287L 125 287L 107 287L 107 296L 107 305L 102.5 305L 98 305L 98 296L 98 287L 93.5 287L 89 287L 89 278L 89 269L 93.5 269L 98 269L 98 273.5L 98 278L 107 278L 116 278L 116 269L 116 260L 111.5 260L 107 260L 107 251L 107 242L 98 242L 89 242L 89 233L 89 224L 102.5 224L 116 224L 116 219.5L 116 215L 120.5 215L 125 215L 125 210.5L 125 206L 116 206L 107 206L 107 201.5L 107 197L 111.5 197L 116 197L 116 192.5L 116 188L 125 188L 134 188L 134 183.5L 134 179L 129.5 179L 125 179L 125 174.5L 125 170L 111.5 170L 98 170L 98 165.5L 98 161L 93.5 161L 89 161L 89 156.5L 89 152L 102.5 152L 116 152L 116 156.5L 116 161L 120.5 161L 125 161L 125 156.5L 125 152L 129.5 152L 134 152L 134 156.5L 134 161L 129.5 161L 125 161L 125 165.5L 125 170L 129.5 170L 134 170L 134 174.5L 134 179L 138.5 179L 143 179L 143 174.5L 143 170L 152 170L 161 170L 161 161L 161 152L 165.5 152L 170 152L 170 147.5L 170 143L 161 143L 152 143L 152 129.5L 152 116L 156.5 116L 161 116L 161 111.5L 161 107L 156.5 107L 152 107L 152 102.5L 152 98L 156.5 98L 161 98L 161 102.5L 161 107L 165.5 107L 170 107L 170 102.5L 170 98L 174.5 98L 179 98L 179 93.5L 179 89L 183.5 89L 188 89L 188 93.5zM 341 102.5L 341 107L 336.5 107L 332 107L 332 102.5L 332 98L 336.5 98L 341 98L 341 102.5zM 476 102.5L 476 107L 471.5 107L 467 107L 467 102.5L 467 98L 471.5 98L 476 98L 476 102.5zM 494 102.5L 494 107L 489.5 107L 485 107L 485 102.5L 485 98L 489.5 98L 494 98L 494 102.5zM 638 111.5L 638 116L 633.5 116L 629 116L 629 111.5L 629 107L 633.5 107L 638 107L 638 111.5zM 323 129.5L 323 143L 309.5 143L 296 143L 296 129.5L 296 116L 309.5 116L 323 116L 323 129.5zM 503 129.5L 503 143L 489.5 143L 476 143L 476 129.5L 476 116L 489.5 116L 503 116L 503 129.5zM 431 129.5L 431 134L 426.5 134L 422 134L 422 129.5L 422 125L 426.5 125L 431 125L 431 129.5zM 188 165.5L 188 170L 183.5 170L 179 170L 179 165.5L 179 161L 183.5 161L 188 161L 188 165.5zM 233 183.5L 233 188L 228.5 188L 224 188L 224 183.5L 224 179L 228.5 179L 233 179L 233 183.5zM 98 255.5L 98 260L 93.5 260L 89 260L 89 255.5L 89 251L 93.5 251L 98 251L 98 255.5zM 143 309.5L 143 323L 129.5 323L 116 323L 116 309.5L 116 296L 129.5 296L 143 296L 143 309.5zM 683 309.5L 683 323L 669.5 323L 656 323L 656 309.5L 656 296L 669.5 296L 683 296L 683 309.5zM 710 336.5L 710 341L 705.5 341L 701 341L 701 336.5L 701 332L 705.5 332L 710 332L 710 336.5zM 98 444.5L 98 449L 93.5 449L 89 449L 89 453.5L 89 458L 84.5 458L 80 458L 80 453.5L 80 449L 84.5 449L 89 449L 89 444.5L 89 440L 93.5 440L 98 440L 98 444.5zM 611 453.5L 611 458L 624.5 458L 638 458L 638 471.5L 638 485L 642.5 485L 647 485L 647 489.5L 647 494L 642.5 494L 638 494L 638 498.5L 638 503L 633.5 503L 629 503L 629 498.5L 629 494L 633.5 494L 638 494L 638 489.5L 638 485L 629 485L 620 485L 620 494L 620 503L 615.5 503L 611 503L 611 507.5L 611 512L 620 512L 629 512L 629 516.5L 629 521L 620 521L 611 521L 611 516.5L 611 512L 606.5 512L 602 512L 602 507.5L 602 503L 597.5 503L 593 503L 593 498.5L 593 494L 588.5 494L 584 494L 584 489.5L 584 485L 588.5 485L 593 485L 593 476L 593 467L 602 467L 611 467L 611 462.5L 611 458L 606.5 458L 602 458L 602 453.5L 602 449L 606.5 449L 611 449L 611 453.5zM 107 467L 107 476L 102.5 476L 98 476L 98 480.5L 98 485L 93.5 485L 89 485L 89 480.5L 89 476L 93.5 476L 98 476L 98 467L 98 458L 102.5 458L 107 458L 107 467zM 134 462.5L 134 467L 129.5 467L 125 467L 125 462.5L 125 458L 129.5 458L 134 458L 134 462.5zM 143 489.5L 143 503L 129.5 503L 116 503L 116 489.5L 116 476L 129.5 476L 143 476L 143 489.5zM 683 489.5L 683 503L 669.5 503L 656 503L 656 489.5L 656 476L 669.5 476L 683 476L 683 489.5zM 647 516.5L 647 521L 642.5 521L 638 521L 638 516.5L 638 512L 642.5 512L 647 512L 647 516.5zM 674 521L 674 530L 665 530L 656 530L 656 521L 656 512L 665 512L 674 512L 674 521zM 692 516.5L 692 521L 687.5 521L 683 521L 683 516.5L 683 512L 687.5 512L 692 512L 692 516.5zM 710 516.5L 710 521L 705.5 521L 701 521L 701 516.5L 701 512L 705.5 512L 710 512L 710 516.5zM 710 579.5L 710 593L 705.5 593L 701 593L 701 588.5L 701 584L 696.5 584L 692 584L 692 588.5L 692 593L 687.5 593L 683 593L 683 597.5L 683 602L 678.5 602L 674 602L 674 597.5L 674 593L 669.5 593L 665 593L 665 588.5L 665 584L 669.5 584L 674 584L 674 588.5L 674 593L 678.5 593L 683 593L 683 588.5L 683 584L 687.5 584L 692 584L 692 575L 692 566L 701 566L 710 566L 710 579.5zM 683 615.5L 683 620L 678.5 620L 674 620L 674 615.5L 674 611L 678.5 611L 683 611L 683 615.5zM 323 669.5L 323 683L 309.5 683L 296 683L 296 669.5L 296 656L 309.5 656L 323 656L 323 669.5zM 503 669.5L 503 683L 489.5 683L 476 683L 476 669.5L 476 656L 489.5 656L 503 656L 503 669.5zM 683 669.5L 683 683L 669.5 683L 656 683L 656 669.5L 656 656L 669.5 656L 683 656L 683 669.5zM 161 687.5L 161 692L 156.5 692L 152 692L 152 687.5L 152 683L 156.5 683L 161 683L 161 687.5zM 467 687.5L 467 692L 462.5 692L 458 692L 458 687.5L 458 683L 462.5 683L 467 683L 467 687.5zM 503 701L 503 710L 498.5 710L 494 710L 494 705.5L 494 701L 489.5 701L 485 701L 485 705.5L 485 710L 480.5 710L 476 710L 476 705.5L 476 701L 480.5 701L 485 701L 485 696.5L 485 692L 494 692L 503 692L 503 701zM 557 696.5L 557 701L 548 701L 539 701L 539 696.5L 539 692L 548 692L 557 692L 557 696.5zM 440 705.5L 440 710L 435.5 710L 431 710L 431 705.5L 431 701L 435.5 701L 440 701L 440 705.5zM 467 710L 467 719L 462.5 719L 458 719L 458 714.5L 458 710L 453.5 710L 449 710L 449 705.5L 449 701L 458 701L 467 701L 467 710zM 674 705.5L 674 710L 669.5 710L 665 710L 665 705.5L 665 701L 669.5 701L 674 701L 674 705.5zM 215 714.5L 215 719L 210.5 719L 206 719L 206 714.5L 206 710L 210.5 710L 215 710L 215 714.5zM 602 714.5L 602 719L 597.5 719L 593 719L 593 714.5L 593 710L 597.5 710L 602 710L 602 714.5z"/>
<path style="stroke:none; fill:#000000" d="M 215 111.5L 215 116L 219.5 116L 224 116L 224 111.5L 224 107L 219.5 107L 215 107L 215 111.5z"/>
<path style="stroke:none; fill:#000000" d="M 188 120.5L 188 125L 183.5 125L 179 125L 179 129.5L 179 134L 183.5 134L 188 134L 188 129.5L 188 125L 192.5 125L 197 125L 197 120.5L 197 116L 192.5 116L 188 116L 188 120.5z"/>
<path style="stroke:none; fill:#000000" d="M 161 129.5L 161 134L 165.5 134L 170 134L 170 129.5L 170 125L 165.5 125L 161 125L 161 129.5z"/>
<path style="stroke:none; fill:#000000" d="M 341 129.5L 341 134L 345.5 134L 350 134L 350 129.5L 350 125L 345.5 125L 341 125L 341 129.5z"/>
<path style="stroke:none; fill:#000000" d="M 386 147.5L 386 161L 381.5 161L 377 161L 377 170L 377 179L 372.5 179L 368 179L 368 174.5L 368 170L 363.5 170L 359 170L 359 174.5L 359 179L 354.5 179L 350 179L 350 174.5L 350 170L 345.5 170L 341 170L 341 174.5L 341 179L 345.5 179L 350 179L 350 183.5L 350 188L 341 188L 332 188L 332 183.5L 332 179L 327.5 179L 323 179L 323 174.5L 323 170L 318.5 170L 314 170L 314 174.5L 314 179L 300.5 179L 287 179L 287 170L 287 161L 282.5 161L 278 161L 278 174.5L 278 188L 273.5 188L 269 188L 269 192.5L 269 197L 264.5 197L 260 197L 260 201.5L 260 206L 251 206L 242 206L 242 210.5L 242 215L 237.5 215L 233 215L 233 210.5L 233 206L 219.5 206L 206 206L 206 210.5L 206 215L 219.5 215L 233 215L 233 224L 233 233L 242 233L 251 233L 251 224L 251 215L 255.5 215L 260 215L 260 228.5L 260 242L 246.5 242L 233 242L 233 260L 233 278L 237.5 278L 242 278L 242 273.5L 242 269L 255.5 269L 269 269L 269 264.5L 269 260L 255.5 260L 242 260L 242 255.5L 242 251L 255.5 251L 269 251L 269 246.5L 269 242L 278 242L 287 242L 287 246.5L 287 251L 282.5 251L 278 251L 278 269L 278 287L 282.5 287L 287 287L 287 291.5L 287 296L 282.5 296L 278 296L 278 305L 278 314L 282.5 314L 287 314L 287 323L 287 332L 300.5 332L 314 332L 314 336.5L 314 341L 318.5 341L 323 341L 323 345.5L 323 350L 327.5 350L 332 350L 332 354.5L 332 359L 323 359L 314 359L 314 354.5L 314 350L 305 350L 296 350L 296 345.5L 296 341L 278 341L 260 341L 260 336.5L 260 332L 264.5 332L 269 332L 269 323L 269 314L 264.5 314L 260 314L 260 318.5L 260 323L 255.5 323L 251 323L 251 318.5L 251 314L 246.5 314L 242 314L 242 309.5L 242 305L 246.5 305L 251 305L 251 300.5L 251 296L 246.5 296L 242 296L 242 300.5L 242 305L 237.5 305L 233 305L 233 300.5L 233 296L 228.5 296L 224 296L 224 300.5L 224 305L 219.5 305L 215 305L 215 300.5L 215 296L 210.5 296L 206 296L 206 300.5L 206 305L 201.5 305L 197 305L 197 309.5L 197 314L 192.5 314L 188 314L 188 323L 188 332L 192.5 332L 197 332L 197 336.5L 197 341L 192.5 341L 188 341L 188 345.5L 188 350L 183.5 350L 179 350L 179 354.5L 179 359L 183.5 359L 188 359L 188 363.5L 188 368L 179 368L 170 368L 170 354.5L 170 341L 165.5 341L 161 341L 161 345.5L 161 350L 156.5 350L 152 350L 152 345.5L 152 341L 147.5 341L 143 341L 143 350L 143 359L 147.5 359L 152 359L 152 363.5L 152 368L 147.5 368L 143 368L 143 372.5L 143 377L 134 377L 125 377L 125 381.5L 125 386L 138.5 386L 152 386L 152 381.5L 152 377L 170 377L 188 377L 188 372.5L 188 368L 192.5 368L 197 368L 197 377L 197 386L 188 386L 179 386L 179 390.5L 179 395L 174.5 395L 170 395L 170 390.5L 170 386L 165.5 386L 161 386L 161 395L 161 404L 165.5 404L 170 404L 170 408.5L 170 413L 156.5 413L 143 413L 143 408.5L 143 404L 147.5 404L 152 404L 152 399.5L 152 395L 147.5 395L 143 395L 143 399.5L 143 404L 138.5 404L 134 404L 134 399.5L 134 395L 129.5 395L 125 395L 125 399.5L 125 404L 120.5 404L 116 404L 116 408.5L 116 413L 120.5 413L 125 413L 125 417.5L 125 422L 120.5 422L 116 422L 116 431L 116 440L 125 440L 134 440L 134 435.5L 134 431L 129.5 431L 125 431L 125 426.5L 125 422L 147.5 422L 170 422L 170 431L 170 440L 174.5 440L 179 440L 179 435.5L 179 431L 183.5 431L 188 431L 188 426.5L 188 422L 192.5 422L 197 422L 197 417.5L 197 413L 188 413L 179 413L 179 404L 179 395L 183.5 395L 188 395L 188 399.5L 188 404L 192.5 404L 197 404L 197 395L 197 386L 206 386L 215 386L 215 372.5L 215 359L 219.5 359L 224 359L 224 354.5L 224 350L 228.5 350L 233 350L 233 354.5L 233 359L 237.5 359L 242 359L 242 363.5L 242 368L 233 368L 224 368L 224 372.5L 224 377L 237.5 377L 251 377L 251 381.5L 251 386L 246.5 386L 242 386L 242 399.5L 242 413L 246.5 413L 251 413L 251 417.5L 251 422L 246.5 422L 242 422L 242 426.5L 242 431L 246.5 431L 251 431L 251 426.5L 251 422L 255.5 422L 260 422L 260 426.5L 260 431L 264.5 431L 269 431L 269 435.5L 269 440L 260 440L 251 440L 251 444.5L 251 449L 246.5 449L 242 449L 242 453.5L 242 458L 246.5 458L 251 458L 251 453.5L 251 449L 260 449L 269 449L 269 453.5L 269 458L 273.5 458L 278 458L 278 462.5L 278 467L 273.5 467L 269 467L 269 471.5L 269 476L 273.5 476L 278 476L 278 480.5L 278 485L 269 485L 260 485L 260 489.5L 260 494L 246.5 494L 233 494L 233 498.5L 233 503L 228.5 503L 224 503L 224 494L 224 485L 219.5 485L 215 485L 215 494L 215 503L 206 503L 197 503L 197 512L 197 521L 201.5 521L 206 521L 206 525.5L 206 530L 201.5 530L 197 530L 197 543.5L 197 557L 210.5 557L 224 557L 224 552.5L 224 548L 219.5 548L 215 548L 215 539L 215 530L 219.5 530L 224 530L 224 534.5L 224 539L 228.5 539L 233 539L 233 543.5L 233 548L 242 548L 251 548L 251 561.5L 251 575L 246.5 575L 242 575L 242 570.5L 242 566L 237.5 566L 233 566L 233 570.5L 233 575L 228.5 575L 224 575L 224 570.5L 224 566L 201.5 566L 179 566L 179 570.5L 179 575L 174.5 575L 170 575L 170 579.5L 170 584L 165.5 584L 161 584L 161 575L 161 566L 165.5 566L 170 566L 170 561.5L 170 557L 165.5 557L 161 557L 161 552.5L 161 548L 165.5 548L 170 548L 170 539L 170 530L 161 530L 152 530L 152 525.5L 152 521L 147.5 521L 143 521L 143 525.5L 143 530L 138.5 530L 134 530L 134 534.5L 134 539L 125 539L 116 539L 116 543.5L 116 548L 125 548L 134 548L 134 552.5L 134 557L 129.5 557L 125 557L 125 561.5L 125 566L 120.5 566L 116 566L 116 570.5L 116 575L 120.5 575L 125 575L 125 579.5L 125 584L 138.5 584L 152 584L 152 588.5L 152 593L 156.5 593L 161 593L 161 597.5L 161 602L 165.5 602L 170 602L 170 597.5L 170 593L 174.5 593L 179 593L 179 588.5L 179 584L 183.5 584L 188 584L 188 602L 188 620L 192.5 620L 197 620L 197 615.5L 197 611L 201.5 611L 206 611L 206 620L 206 629L 201.5 629L 197 629L 197 642.5L 197 656L 192.5 656L 188 656L 188 660.5L 188 665L 192.5 665L 197 665L 197 669.5L 197 674L 201.5 674L 206 674L 206 660.5L 206 647L 210.5 647L 215 647L 215 651.5L 215 656L 219.5 656L 224 656L 224 660.5L 224 665L 219.5 665L 215 665L 215 669.5L 215 674L 219.5 674L 224 674L 224 669.5L 224 665L 228.5 665L 233 665L 233 674L 233 683L 237.5 683L 242 683L 242 678.5L 242 674L 251 674L 260 674L 260 669.5L 260 665L 264.5 665L 269 665L 269 642.5L 269 620L 264.5 620L 260 620L 260 615.5L 260 611L 255.5 611L 251 611L 251 606.5L 251 602L 255.5 602L 260 602L 260 597.5L 260 593L 255.5 593L 251 593L 251 597.5L 251 602L 246.5 602L 242 602L 242 597.5L 242 593L 237.5 593L 233 593L 233 602L 233 611L 228.5 611L 224 611L 224 602L 224 593L 219.5 593L 215 593L 215 602L 215 611L 210.5 611L 206 611L 206 606.5L 206 602L 201.5 602L 197 602L 197 593L 197 584L 192.5 584L 188 584L 188 579.5L 188 575L 197 575L 206 575L 206 579.5L 206 584L 228.5 584L 251 584L 251 579.5L 251 575L 255.5 575L 260 575L 260 579.5L 260 584L 264.5 584L 269 584L 269 597.5L 269 611L 278 611L 287 611L 287 606.5L 287 602L 291.5 602L 296 602L 296 611L 296 620L 287 620L 278 620L 278 624.5L 278 629L 291.5 629L 305 629L 305 620L 305 611L 314 611L 323 611L 323 606.5L 323 602L 327.5 602L 332 602L 332 593L 332 584L 327.5 584L 323 584L 323 593L 323 602L 318.5 602L 314 602L 314 597.5L 314 593L 309.5 593L 305 593L 305 588.5L 305 584L 309.5 584L 314 584L 314 575L 314 566L 318.5 566L 323 566L 323 570.5L 323 575L 336.5 575L 350 575L 350 561.5L 350 548L 354.5 548L 359 548L 359 543.5L 359 539L 368 539L 377 539L 377 534.5L 377 530L 381.5 530L 386 530L 386 548L 386 566L 381.5 566L 377 566L 377 570.5L 377 575L 381.5 575L 386 575L 386 579.5L 386 584L 390.5 584L 395 584L 395 579.5L 395 575L 399.5 575L 404 575L 404 584L 404 593L 408.5 593L 413 593L 413 597.5L 413 602L 408.5 602L 404 602L 404 606.5L 404 611L 395 611L 386 611L 386 620L 386 629L 377 629L 368 629L 368 633.5L 368 638L 363.5 638L 359 638L 359 642.5L 359 647L 363.5 647L 368 647L 368 642.5L 368 638L 377 638L 386 638L 386 633.5L 386 629L 390.5 629L 395 629L 395 633.5L 395 638L 399.5 638L 404 638L 404 642.5L 404 647L 395 647L 386 647L 386 656L 386 665L 390.5 665L 395 665L 395 669.5L 395 674L 399.5 674L 404 674L 404 669.5L 404 665L 408.5 665L 413 665L 413 660.5L 413 656L 408.5 656L 404 656L 404 651.5L 404 647L 413 647L 422 647L 422 638L 422 629L 426.5 629L 431 629L 431 624.5L 431 620L 426.5 620L 422 620L 422 624.5L 422 629L 417.5 629L 413 629L 413 633.5L 413 638L 408.5 638L 404 638L 404 633.5L 404 629L 399.5 629L 395 629L 395 624.5L 395 620L 399.5 620L 404 620L 404 615.5L 404 611L 422 611L 440 611L 440 602L 440 593L 453.5 593L 467 593L 467 597.5L 467 602L 458 602L 449 602L 449 606.5L 449 611L 458 611L 467 611L 467 606.5L 467 602L 476 602L 485 602L 485 597.5L 485 593L 489.5 593L 494 593L 494 597.5L 494 602L 498.5 602L 503 602L 503 597.5L 503 593L 507.5 593L 512 593L 512 597.5L 512 602L 525.5 602L 539 602L 539 606.5L 539 611L 530 611L 521 611L 521 620L 521 629L 525.5 629L 530 629L 530 633.5L 530 638L 534.5 638L 539 638L 539 633.5L 539 629L 543.5 629L 548 629L 548 633.5L 548 638L 552.5 638L 557 638L 557 633.5L 557 629L 566 629L 575 629L 575 633.5L 575 638L 570.5 638L 566 638L 566 642.5L 566 647L 570.5 647L 575 647L 575 651.5L 575 656L 579.5 656L 584 656L 584 660.5L 584 665L 588.5 665L 593 665L 593 660.5L 593 656L 597.5 656L 602 656L 602 651.5L 602 647L 606.5 647L 611 647L 611 651.5L 611 656L 615.5 656L 620 656L 620 651.5L 620 647L 615.5 647L 611 647L 611 642.5L 611 638L 606.5 638L 602 638L 602 642.5L 602 647L 597.5 647L 593 647L 593 642.5L 593 638L 588.5 638L 584 638L 584 633.5L 584 629L 588.5 629L 593 629L 593 624.5L 593 620L 597.5 620L 602 620L 602 624.5L 602 629L 606.5 629L 611 629L 611 624.5L 611 620L 606.5 620L 602 620L 602 615.5L 602 611L 593 611L 584 611L 584 606.5L 584 602L 579.5 602L 575 602L 575 597.5L 575 593L 570.5 593L 566 593L 566 597.5L 566 602L 561.5 602L 557 602L 557 597.5L 557 593L 552.5 593L 548 593L 548 588.5L 548 584L 543.5 584L 539 584L 539 579.5L 539 575L 543.5 575L 548 575L 548 570.5L 548 566L 552.5 566L 557 566L 557 561.5L 557 557L 552.5 557L 548 557L 548 552.5L 548 548L 557 548L 566 548L 566 552.5L 566 557L 570.5 557L 575 557L 575 552.5L 575 548L 579.5 548L 584 548L 584 552.5L 584 557L 588.5 557L 593 557L 593 561.5L 593 566L 579.5 566L 566 566L 566 570.5L 566 575L 570.5 575L 575 575L 575 579.5L 575 584L 579.5 584L 584 584L 584 588.5L 584 593L 588.5 593L 593 593L 593 588.5L 593 584L 588.5 584L 584 584L 584 579.5L 584 575L 588.5 575L 593 575L 593 570.5L 593 566L 597.5 566L 602 566L 602 570.5L 602 575L 606.5 575L 611 575L 611 579.5L 611 584L 615.5 584L 620 584L 620 579.5L 620 575L 615.5 575L 611 575L 611 561.5L 611 548L 615.5 548L 620 548L 620 543.5L 620 539L 615.5 539L 611 539L 611 543.5L 611 548L 606.5 548L 602 548L 602 552.5L 602 557L 597.5 557L 593 557L 593 543.5L 593 530L 575 530L 557 530L 557 525.5L 557 521L 552.5 521L 548 521L 548 516.5L 548 512L 543.5 512L 539 512L 539 507.5L 539 503L 543.5 503L 548 503L 548 498.5L 548 494L 552.5 494L 557 494L 557 489.5L 557 485L 561.5 485L 566 485L 566 476L 566 467L 570.5 467L 575 467L 575 462.5L 575 458L 561.5 458L 548 458L 548 453.5L 548 449L 534.5 449L 521 449L 521 453.5L 521 458L 530 458L 539 458L 539 462.5L 539 467L 534.5 467L 530 467L 530 471.5L 530 476L 534.5 476L 539 476L 539 480.5L 539 485L 530 485L 521 485L 521 489.5L 521 494L 530 494L 539 494L 539 498.5L 539 503L 534.5 503L 530 503L 530 507.5L 530 512L 525.5 512L 521 512L 521 507.5L 521 503L 516.5 503L 512 503L 512 485L 512 467L 507.5 467L 503 467L 503 462.5L 503 458L 507.5 458L 512 458L 512 453.5L 512 449L 507.5 449L 503 449L 503 444.5L 503 440L 494 440L 485 440L 485 435.5L 485 431L 476 431L 467 431L 467 426.5L 467 422L 471.5 422L 476 422L 476 417.5L 476 413L 489.5 413L 503 413L 503 408.5L 503 404L 507.5 404L 512 404L 512 399.5L 512 395L 507.5 395L 503 395L 503 390.5L 503 386L 494 386L 485 386L 485 381.5L 485 377L 498.5 377L 512 377L 512 381.5L 512 386L 516.5 386L 521 386L 521 390.5L 521 395L 525.5 395L 530 395L 530 399.5L 530 404L 525.5 404L 521 404L 521 408.5L 521 413L 525.5 413L 530 413L 530 417.5L 530 422L 534.5 422L 539 422L 539 417.5L 539 413L 534.5 413L 530 413L 530 408.5L 530 404L 543.5 404L 557 404L 557 408.5L 557 413L 561.5 413L 566 413L 566 408.5L 566 404L 561.5 404L 557 404L 557 390.5L 557 377L 552.5 377L 548 377L 548 372.5L 548 368L 552.5 368L 557 368L 557 363.5L 557 359L 566 359L 575 359L 575 363.5L 575 368L 579.5 368L 584 368L 584 372.5L 584 377L 588.5 377L 593 377L 593 372.5L 593 368L 588.5 368L 584 368L 584 363.5L 584 359L 588.5 359L 593 359L 593 354.5L 593 350L 597.5 350L 602 350L 602 354.5L 602 359L 606.5 359L 611 359L 611 372.5L 611 386L 624.5 386L 638 386L 638 395L 638 404L 633.5 404L 629 404L 629 408.5L 629 413L 624.5 413L 620 413L 620 404L 620 395L 615.5 395L 611 395L 611 408.5L 611 422L 624.5 422L 638 422L 638 413L 638 404L 642.5 404L 647 404L 647 395L 647 386L 651.5 386L 656 386L 656 390.5L 656 395L 665 395L 674 395L 674 390.5L 674 386L 678.5 386L 683 386L 683 390.5L 683 395L 687.5 395L 692 395L 692 386L 692 377L 696.5 377L 701 377L 701 372.5L 701 368L 705.5 368L 710 368L 710 363.5L 710 359L 701 359L 692 359L 692 354.5L 692 350L 687.5 350L 683 350L 683 354.5L 683 359L 678.5 359L 674 359L 674 350L 674 341L 656 341L 638 341L 638 345.5L 638 350L 647 350L 656 350L 656 363.5L 656 377L 647 377L 638 377L 638 368L 638 359L 633.5 359L 629 359L 629 350L 629 341L 624.5 341L 620 341L 620 336.5L 620 332L 615.5 332L 611 332L 611 336.5L 611 341L 602 341L 593 341L 593 336.5L 593 332L 597.5 332L 602 332L 602 327.5L 602 323L 606.5 323L 611 323L 611 318.5L 611 314L 606.5 314L 602 314L 602 305L 602 296L 597.5 296L 593 296L 593 291.5L 593 287L 602 287L 611 287L 611 296L 611 305L 615.5 305L 620 305L 620 296L 620 287L 624.5 287L 629 287L 629 282.5L 629 278L 633.5 278L 638 278L 638 282.5L 638 287L 642.5 287L 647 287L 647 273.5L 647 260L 651.5 260L 656 260L 656 255.5L 656 251L 651.5 251L 647 251L 647 255.5L 647 260L 642.5 260L 638 260L 638 264.5L 638 269L 629 269L 620 269L 620 264.5L 620 260L 611 260L 602 260L 602 255.5L 602 251L 606.5 251L 611 251L 611 246.5L 611 242L 624.5 242L 638 242L 638 237.5L 638 233L 624.5 233L 611 233L 611 228.5L 611 224L 624.5 224L 638 224L 638 219.5L 638 215L 642.5 215L 647 215L 647 210.5L 647 206L 642.5 206L 638 206L 638 201.5L 638 197L 647 197L 656 197L 656 188L 656 179L 651.5 179L 647 179L 647 183.5L 647 188L 642.5 188L 638 188L 638 192.5L 638 197L 624.5 197L 611 197L 611 201.5L 611 206L 606.5 206L 602 206L 602 197L 602 188L 588.5 188L 575 188L 575 192.5L 575 197L 584 197L 593 197L 593 201.5L 593 206L 579.5 206L 566 206L 566 210.5L 566 215L 561.5 215L 557 215L 557 224L 557 233L 552.5 233L 548 233L 548 228.5L 548 224L 543.5 224L 539 224L 539 219.5L 539 215L 530 215L 521 215L 521 219.5L 521 224L 525.5 224L 530 224L 530 228.5L 530 233L 521 233L 512 233L 512 228.5L 512 224L 498.5 224L 485 224L 485 210.5L 485 197L 489.5 197L 494 197L 494 192.5L 494 188L 498.5 188L 503 188L 503 183.5L 503 179L 494 179L 485 179L 485 174.5L 485 170L 480.5 170L 476 170L 476 179L 476 188L 471.5 188L 467 188L 467 192.5L 467 197L 462.5 197L 458 197L 458 192.5L 458 188L 453.5 188L 449 188L 449 183.5L 449 179L 453.5 179L 458 179L 458 174.5L 458 170L 462.5 170L 467 170L 467 165.5L 467 161L 462.5 161L 458 161L 458 156.5L 458 152L 453.5 152L 449 152L 449 147.5L 449 143L 444.5 143L 440 143L 440 147.5L 440 152L 435.5 152L 431 152L 431 156.5L 431 161L 422 161L 413 161L 413 156.5L 413 152L 408.5 152L 404 152L 404 147.5L 404 143L 399.5 143L 395 143L 395 138.5L 395 134L 390.5 134L 386 134L 386 147.5zM 395 165.5L 395 170L 399.5 170L 404 170L 404 165.5L 404 161L 408.5 161L 413 161L 413 165.5L 413 170L 408.5 170L 404 170L 404 174.5L 404 179L 422 179L 440 179L 440 174.5L 440 170L 435.5 170L 431 170L 431 165.5L 431 161L 444.5 161L 458 161L 458 165.5L 458 170L 453.5 170L 449 170L 449 174.5L 449 179L 444.5 179L 440 179L 440 188L 440 197L 449 197L 458 197L 458 201.5L 458 206L 462.5 206L 467 206L 467 201.5L 467 197L 471.5 197L 476 197L 476 192.5L 476 188L 480.5 188L 485 188L 485 192.5L 485 197L 480.5 197L 476 197L 476 210.5L 476 224L 480.5 224L 485 224L 485 228.5L 485 233L 489.5 233L 494 233L 494 237.5L 494 242L 489.5 242L 485 242L 485 246.5L 485 251L 480.5 251L 476 251L 476 246.5L 476 242L 471.5 242L 467 242L 467 237.5L 467 233L 458 233L 449 233L 449 237.5L 449 242L 444.5 242L 440 242L 440 246.5L 440 251L 449 251L 458 251L 458 255.5L 458 260L 453.5 260L 449 260L 449 264.5L 449 269L 458 269L 467 269L 467 264.5L 467 260L 476 260L 485 260L 485 264.5L 485 269L 489.5 269L 494 269L 494 264.5L 494 260L 498.5 260L 503 260L 503 255.5L 503 251L 507.5 251L 512 251L 512 246.5L 512 242L 507.5 242L 503 242L 503 237.5L 503 233L 507.5 233L 512 233L 512 237.5L 512 242L 525.5 242L 539 242L 539 246.5L 539 251L 534.5 251L 530 251L 530 260L 530 269L 521 269L 512 269L 512 264.5L 512 260L 507.5 260L 503 260L 503 269L 503 278L 494 278L 485 278L 485 282.5L 485 287L 476 287L 467 287L 467 300.5L 467 314L 462.5 314L 458 314L 458 323L 458 332L 462.5 332L 467 332L 467 336.5L 467 341L 476 341L 485 341L 485 345.5L 485 350L 489.5 350L 494 350L 494 345.5L 494 341L 498.5 341L 503 341L 503 336.5L 503 332L 507.5 332L 512 332L 512 327.5L 512 323L 516.5 323L 521 323L 521 318.5L 521 314L 530 314L 539 314L 539 309.5L 539 305L 543.5 305L 548 305L 548 300.5L 548 296L 552.5 296L 557 296L 557 291.5L 557 287L 566 287L 575 287L 575 296L 575 305L 584 305L 593 305L 593 309.5L 593 314L 597.5 314L 602 314L 602 318.5L 602 323L 597.5 323L 593 323L 593 327.5L 593 332L 584 332L 575 332L 575 336.5L 575 341L 584 341L 593 341L 593 345.5L 593 350L 588.5 350L 584 350L 584 354.5L 584 359L 579.5 359L 575 359L 575 354.5L 575 350L 566 350L 557 350L 557 345.5L 557 341L 552.5 341L 548 341L 548 345.5L 548 350L 539 350L 530 350L 530 354.5L 530 359L 539 359L 548 359L 548 363.5L 548 368L 543.5 368L 539 368L 539 372.5L 539 377L 543.5 377L 548 377L 548 381.5L 548 386L 543.5 386L 539 386L 539 390.5L 539 395L 534.5 395L 530 395L 530 381.5L 530 368L 525.5 368L 521 368L 521 372.5L 521 377L 516.5 377L 512 377L 512 368L 512 359L 516.5 359L 521 359L 521 354.5L 521 350L 525.5 350L 530 350L 530 341L 530 332L 525.5 332L 521 332L 521 336.5L 521 341L 512 341L 503 341L 503 354.5L 503 368L 494 368L 485 368L 485 359L 485 350L 480.5 350L 476 350L 476 354.5L 476 359L 471.5 359L 467 359L 467 354.5L 467 350L 462.5 350L 458 350L 458 359L 458 368L 467 368L 476 368L 476 377L 476 386L 480.5 386L 485 386L 485 390.5L 485 395L 494 395L 503 395L 503 399.5L 503 404L 494 404L 485 404L 485 399.5L 485 395L 471.5 395L 458 395L 458 399.5L 458 404L 462.5 404L 467 404L 467 408.5L 467 413L 462.5 413L 458 413L 458 417.5L 458 422L 453.5 422L 449 422L 449 417.5L 449 413L 453.5 413L 458 413L 458 408.5L 458 404L 444.5 404L 431 404L 431 408.5L 431 413L 435.5 413L 440 413L 440 417.5L 440 422L 435.5 422L 431 422L 431 417.5L 431 413L 422 413L 413 413L 413 417.5L 413 422L 417.5 422L 422 422L 422 426.5L 422 431L 435.5 431L 449 431L 449 435.5L 449 440L 444.5 440L 440 440L 440 449L 440 458L 431 458L 422 458L 422 453.5L 422 449L 417.5 449L 413 449L 413 458L 413 467L 426.5 467L 440 467L 440 476L 440 485L 453.5 485L 467 485L 467 489.5L 467 494L 462.5 494L 458 494L 458 498.5L 458 503L 462.5 503L 467 503L 467 507.5L 467 512L 462.5 512L 458 512L 458 507.5L 458 503L 449 503L 440 503L 440 512L 440 521L 453.5 521L 467 521L 467 525.5L 467 530L 476 530L 485 530L 485 525.5L 485 521L 480.5 521L 476 521L 476 516.5L 476 512L 480.5 512L 485 512L 485 516.5L 485 521L 489.5 521L 494 521L 494 525.5L 494 530L 498.5 530L 503 530L 503 525.5L 503 521L 507.5 521L 512 521L 512 516.5L 512 512L 516.5 512L 521 512L 521 516.5L 521 521L 516.5 521L 512 521L 512 525.5L 512 530L 525.5 530L 539 530L 539 534.5L 539 539L 543.5 539L 548 539L 548 534.5L 548 530L 552.5 530L 557 530L 557 534.5L 557 539L 552.5 539L 548 539L 548 543.5L 548 548L 543.5 548L 539 548L 539 552.5L 539 557L 543.5 557L 548 557L 548 561.5L 548 566L 543.5 566L 539 566L 539 570.5L 539 575L 534.5 575L 530 575L 530 579.5L 530 584L 525.5 584L 521 584L 521 588.5L 521 593L 516.5 593L 512 593L 512 588.5L 512 584L 507.5 584L 503 584L 503 588.5L 503 593L 498.5 593L 494 593L 494 588.5L 494 584L 489.5 584L 485 584L 485 588.5L 485 593L 480.5 593L 476 593L 476 584L 476 575L 471.5 575L 467 575L 467 579.5L 467 584L 462.5 584L 458 584L 458 570.5L 458 557L 462.5 557L 467 557L 467 552.5L 467 548L 462.5 548L 458 548L 458 539L 458 530L 453.5 530L 449 530L 449 534.5L 449 539L 444.5 539L 440 539L 440 543.5L 440 548L 444.5 548L 449 548L 449 552.5L 449 557L 444.5 557L 440 557L 440 561.5L 440 566L 444.5 566L 449 566L 449 575L 449 584L 444.5 584L 440 584L 440 579.5L 440 575L 435.5 575L 431 575L 431 579.5L 431 584L 426.5 584L 422 584L 422 588.5L 422 593L 426.5 593L 431 593L 431 597.5L 431 602L 426.5 602L 422 602L 422 597.5L 422 593L 417.5 593L 413 593L 413 588.5L 413 584L 417.5 584L 422 584L 422 579.5L 422 575L 417.5 575L 413 575L 413 566L 413 557L 408.5 557L 404 557L 404 552.5L 404 548L 408.5 548L 413 548L 413 543.5L 413 539L 404 539L 395 539L 395 534.5L 395 530L 390.5 530L 386 530L 386 525.5L 386 521L 377 521L 368 521L 368 525.5L 368 530L 363.5 530L 359 530L 359 534.5L 359 539L 354.5 539L 350 539L 350 534.5L 350 530L 345.5 530L 341 530L 341 534.5L 341 539L 336.5 539L 332 539L 332 543.5L 332 548L 336.5 548L 341 548L 341 552.5L 341 557L 318.5 557L 296 557L 296 552.5L 296 548L 291.5 548L 287 548L 287 552.5L 287 557L 282.5 557L 278 557L 278 552.5L 278 548L 273.5 548L 269 548L 269 552.5L 269 557L 264.5 557L 260 557L 260 552.5L 260 548L 264.5 548L 269 548L 269 543.5L 269 539L 273.5 539L 278 539L 278 534.5L 278 530L 273.5 530L 269 530L 269 516.5L 269 503L 273.5 503L 278 503L 278 494L 278 485L 282.5 485L 287 485L 287 494L 287 503L 282.5 503L 278 503L 278 507.5L 278 512L 287 512L 296 512L 296 516.5L 296 521L 300.5 521L 305 521L 305 525.5L 305 530L 309.5 530L 314 530L 314 534.5L 314 539L 309.5 539L 305 539L 305 534.5L 305 530L 300.5 530L 296 530L 296 539L 296 548L 309.5 548L 323 548L 323 530L 323 512L 327.5 512L 332 512L 332 516.5L 332 521L 341 521L 350 521L 350 525.5L 350 530L 354.5 530L 359 530L 359 525.5L 359 521L 363.5 521L 368 521L 368 516.5L 368 512L 363.5 512L 359 512L 359 507.5L 359 503L 345.5 503L 332 503L 332 494L 332 485L 341 485L 350 485L 350 480.5L 350 476L 354.5 476L 359 476L 359 471.5L 359 467L 354.5 467L 350 467L 350 462.5L 350 458L 345.5 458L 341 458L 341 467L 341 476L 336.5 476L 332 476L 332 467L 332 458L 336.5 458L 341 458L 341 453.5L 341 449L 345.5 449L 350 449L 350 444.5L 350 440L 354.5 440L 359 440L 359 435.5L 359 431L 354.5 431L 350 431L 350 426.5L 350 422L 341 422L 332 422L 332 426.5L 332 431L 327.5 431L 323 431L 323 426.5L 323 422L 318.5 422L 314 422L 314 435.5L 314 449L 318.5 449L 323 449L 323 444.5L 323 440L 327.5 440L 332 440L 332 444.5L 332 449L 327.5 449L 323 449L 323 458L 323 467L 314 467L 305 467L 305 458L 305 449L 300.5 449L 296 449L 296 444.5L 296 440L 291.5 440L 287 440L 287 444.5L 287 449L 282.5 449L 278 449L 278 440L 278 431L 287 431L 296 431L 296 426.5L 296 422L 278 422L 260 422L 260 413L 260 404L 255.5 404L 251 404L 251 399.5L 251 395L 255.5 395L 260 395L 260 390.5L 260 386L 278 386L 296 386L 296 377L 296 368L 300.5 368L 305 368L 305 363.5L 305 359L 309.5 359L 314 359L 314 363.5L 314 368L 318.5 368L 323 368L 323 372.5L 323 377L 336.5 377L 350 377L 350 372.5L 350 368L 354.5 368L 359 368L 359 363.5L 359 359L 354.5 359L 350 359L 350 354.5L 350 350L 341 350L 332 350L 332 345.5L 332 341L 327.5 341L 323 341L 323 336.5L 323 332L 327.5 332L 332 332L 332 327.5L 332 323L 336.5 323L 341 323L 341 318.5L 341 314L 336.5 314L 332 314L 332 309.5L 332 305L 341 305L 350 305L 350 300.5L 350 296L 354.5 296L 359 296L 359 291.5L 359 287L 363.5 287L 368 287L 368 282.5L 368 278L 350 278L 332 278L 332 282.5L 332 287L 327.5 287L 323 287L 323 282.5L 323 278L 318.5 278L 314 278L 314 282.5L 314 287L 309.5 287L 305 287L 305 278L 305 269L 314 269L 323 269L 323 260L 323 251L 318.5 251L 314 251L 314 242L 314 233L 305 233L 296 233L 296 228.5L 296 224L 287 224L 278 224L 278 228.5L 278 233L 273.5 233L 269 233L 269 228.5L 269 224L 273.5 224L 278 224L 278 215L 278 206L 282.5 206L 287 206L 287 201.5L 287 197L 282.5 197L 278 197L 278 192.5L 278 188L 296 188L 314 188L 314 183.5L 314 179L 318.5 179L 323 179L 323 183.5L 323 188L 327.5 188L 332 188L 332 192.5L 332 197L 341 197L 350 197L 350 201.5L 350 206L 354.5 206L 359 206L 359 210.5L 359 215L 363.5 215L 368 215L 368 210.5L 368 206L 372.5 206L 377 206L 377 210.5L 377 215L 372.5 215L 368 215L 368 219.5L 368 224L 372.5 224L 377 224L 377 228.5L 377 233L 381.5 233L 386 233L 386 228.5L 386 224L 395 224L 404 224L 404 219.5L 404 215L 399.5 215L 395 215L 395 210.5L 395 206L 390.5 206L 386 206L 386 201.5L 386 197L 372.5 197L 359 197L 359 188L 359 179L 363.5 179L 368 179L 368 183.5L 368 188L 386 188L 404 188L 404 183.5L 404 179L 399.5 179L 395 179L 395 174.5L 395 170L 390.5 170L 386 170L 386 165.5L 386 161L 390.5 161L 395 161L 395 165.5zM 269 210.5L 269 215L 264.5 215L 260 215L 260 210.5L 260 206L 264.5 206L 269 206L 269 210.5zM 638 210.5L 638 215L 624.5 215L 611 215L 611 219.5L 611 224L 606.5 224L 602 224L 602 219.5L 602 215L 606.5 215L 611 215L 611 210.5L 611 206L 624.5 206L 638 206L 638 210.5zM 575 224L 575 233L 593 233L 611 233L 611 237.5L 611 242L 606.5 242L 602 242L 602 246.5L 602 251L 597.5 251L 593 251L 593 255.5L 593 260L 579.5 260L 566 260L 566 269L 566 278L 561.5 278L 557 278L 557 273.5L 557 269L 552.5 269L 548 269L 548 273.5L 548 278L 543.5 278L 539 278L 539 282.5L 539 287L 534.5 287L 530 287L 530 296L 530 305L 521 305L 512 305L 512 300.5L 512 296L 516.5 296L 521 296L 521 291.5L 521 287L 516.5 287L 512 287L 512 282.5L 512 278L 525.5 278L 539 278L 539 269L 539 260L 543.5 260L 548 260L 548 255.5L 548 251L 552.5 251L 557 251L 557 242L 557 233L 561.5 233L 566 233L 566 224L 566 215L 570.5 215L 575 215L 575 224zM 305 255.5L 305 260L 300.5 260L 296 260L 296 264.5L 296 269L 291.5 269L 287 269L 287 260L 287 251L 296 251L 305 251L 305 255.5zM 593 273.5L 593 278L 584 278L 575 278L 575 273.5L 575 269L 584 269L 593 269L 593 273.5zM 620 278L 620 287L 615.5 287L 611 287L 611 282.5L 611 278L 606.5 278L 602 278L 602 273.5L 602 269L 611 269L 620 269L 620 278zM 323 309.5L 323 323L 309.5 323L 296 323L 296 309.5L 296 296L 309.5 296L 323 296L 323 309.5zM 503 309.5L 503 323L 489.5 323L 476 323L 476 309.5L 476 296L 489.5 296L 503 296L 503 309.5zM 215 314L 215 323L 224 323L 233 323L 233 318.5L 233 314L 237.5 314L 242 314L 242 318.5L 242 323L 246.5 323L 251 323L 251 332L 251 341L 255.5 341L 260 341L 260 345.5L 260 350L 278 350L 296 350L 296 354.5L 296 359L 287 359L 278 359L 278 368L 278 377L 273.5 377L 269 377L 269 372.5L 269 368L 264.5 368L 260 368L 260 372.5L 260 377L 255.5 377L 251 377L 251 372.5L 251 368L 255.5 368L 260 368L 260 363.5L 260 359L 251 359L 242 359L 242 345.5L 242 332L 237.5 332L 233 332L 233 336.5L 233 341L 219.5 341L 206 341L 206 354.5L 206 368L 201.5 368L 197 368L 197 354.5L 197 341L 201.5 341L 206 341L 206 336.5L 206 332L 210.5 332L 215 332L 215 327.5L 215 323L 210.5 323L 206 323L 206 314L 206 305L 210.5 305L 215 305L 215 314zM 620 354.5L 620 359L 615.5 359L 611 359L 611 354.5L 611 350L 615.5 350L 620 350L 620 354.5zM 341 363.5L 341 368L 336.5 368L 332 368L 332 363.5L 332 359L 336.5 359L 341 359L 341 363.5zM 674 372.5L 674 386L 669.5 386L 665 386L 665 372.5L 665 359L 669.5 359L 674 359L 674 372.5zM 692 368L 692 377L 687.5 377L 683 377L 683 368L 683 359L 687.5 359L 692 359L 692 368zM 629 372.5L 629 377L 624.5 377L 620 377L 620 372.5L 620 368L 624.5 368L 629 368L 629 372.5zM 134 408.5L 134 413L 129.5 413L 125 413L 125 408.5L 125 404L 129.5 404L 134 404L 134 408.5zM 476 444.5L 476 449L 480.5 449L 485 449L 485 453.5L 485 458L 489.5 458L 494 458L 494 453.5L 494 449L 498.5 449L 503 449L 503 453.5L 503 458L 498.5 458L 494 458L 494 462.5L 494 467L 476 467L 458 467L 458 471.5L 458 476L 453.5 476L 449 476L 449 462.5L 449 449L 453.5 449L 458 449L 458 444.5L 458 440L 467 440L 476 440L 476 444.5zM 287 471.5L 287 476L 282.5 476L 278 476L 278 471.5L 278 467L 282.5 467L 287 467L 287 471.5zM 557 476L 557 485L 552.5 485L 548 485L 548 480.5L 548 476L 543.5 476L 539 476L 539 471.5L 539 467L 548 467L 557 467L 557 476zM 323 489.5L 323 503L 309.5 503L 296 503L 296 489.5L 296 476L 309.5 476L 323 476L 323 489.5zM 503 489.5L 503 503L 489.5 503L 476 503L 476 489.5L 476 476L 489.5 476L 503 476L 503 489.5zM 224 507.5L 224 512L 228.5 512L 233 512L 233 507.5L 233 503L 237.5 503L 242 503L 242 507.5L 242 512L 237.5 512L 233 512L 233 521L 233 530L 228.5 530L 224 530L 224 521L 224 512L 219.5 512L 215 512L 215 516.5L 215 521L 210.5 521L 206 521L 206 516.5L 206 512L 210.5 512L 215 512L 215 507.5L 215 503L 219.5 503L 224 503L 224 507.5zM 251 525.5L 251 530L 255.5 530L 260 530L 260 534.5L 260 539L 255.5 539L 251 539L 251 534.5L 251 530L 246.5 530L 242 530L 242 525.5L 242 521L 246.5 521L 251 521L 251 525.5zM 161 543.5L 161 548L 156.5 548L 152 548L 152 552.5L 152 557L 147.5 557L 143 557L 143 566L 143 575L 134 575L 125 575L 125 570.5L 125 566L 129.5 566L 134 566L 134 561.5L 134 557L 138.5 557L 143 557L 143 548L 143 539L 152 539L 161 539L 161 543.5zM 575 543.5L 575 548L 570.5 548L 566 548L 566 543.5L 566 539L 570.5 539L 575 539L 575 543.5zM 269 570.5L 269 575L 264.5 575L 260 575L 260 570.5L 260 566L 264.5 566L 269 566L 269 570.5zM 305 575L 305 584L 300.5 584L 296 584L 296 579.5L 296 575L 291.5 575L 287 575L 287 579.5L 287 584L 282.5 584L 278 584L 278 579.5L 278 575L 282.5 575L 287 575L 287 570.5L 287 566L 296 566L 305 566L 305 575zM 395 570.5L 395 575L 390.5 575L 386 575L 386 570.5L 386 566L 390.5 566L 395 566L 395 570.5zM 305 597.5L 305 602L 300.5 602L 296 602L 296 597.5L 296 593L 300.5 593L 305 593L 305 597.5zM 548 597.5L 548 602L 552.5 602L 557 602L 557 606.5L 557 611L 552.5 611L 548 611L 548 606.5L 548 602L 543.5 602L 539 602L 539 597.5L 539 593L 543.5 593L 548 593L 548 597.5zM 584 620L 584 629L 579.5 629L 575 629L 575 624.5L 575 620L 570.5 620L 566 620L 566 615.5L 566 611L 575 611L 584 611L 584 620zM 233 629L 233 638L 237.5 638L 242 638L 242 642.5L 242 647L 237.5 647L 233 647L 233 651.5L 233 656L 228.5 656L 224 656L 224 651.5L 224 647L 228.5 647L 233 647L 233 642.5L 233 638L 228.5 638L 224 638L 224 629L 224 620L 228.5 620L 233 620L 233 629zM 251 624.5L 251 629L 246.5 629L 242 629L 242 624.5L 242 620L 246.5 620L 251 620L 251 624.5zM 539 624.5L 539 629L 534.5 629L 530 629L 530 624.5L 530 620L 534.5 620L 539 620L 539 624.5zM 557 624.5L 557 629L 552.5 629L 548 629L 548 624.5L 548 620L 552.5 620L 557 620L 557 624.5zM 215 633.5L 215 638L 210.5 638L 206 638L 206 633.5L 206 629L 210.5 629L 215 629L 215 633.5zM 260 660.5L 260 665L 255.5 665L 251 665L 251 660.5L 251 656L 255.5 656L 260 656L 260 660.5zM 404 660.5L 404 665L 399.5 665L 395 665L 395 660.5L 395 656L 399.5 656L 404 656L 404 660.5z"/>
<path style="stroke:none; fill:#000000" d="M 296 201.5L 296 206L 291.5 206L 287 206L 287 210.5L 287 215L 291.5 215L 296 215L 296 219.5L 296 224L 305 224L 314 224L 314 219.5L 314 215L 318.5 215L 323 215L 323 219.5L 323 224L 327.5 224L 332 224L 332 228.5L 332 233L 336.5 233L 341 233L 341 237.5L 341 242L 332 242L 323 242L 323 246.5L 323 251L 327.5 251L 332 251L 332 260L 332 269L 345.5 269L 359 269L 359 264.5L 359 260L 350 260L 341 260L 341 251L 341 242L 345.5 242L 350 242L 350 246.5L 350 251L 354.5 251L 359 251L 359 246.5L 359 242L 354.5 242L 350 242L 350 237.5L 350 233L 359 233L 368 233L 368 242L 368 251L 381.5 251L 395 251L 395 255.5L 395 260L 390.5 260L 386 260L 386 264.5L 386 269L 381.5 269L 377 269L 377 264.5L 377 260L 372.5 260L 368 260L 368 269L 368 278L 377 278L 386 278L 386 273.5L 386 269L 390.5 269L 395 269L 395 273.5L 395 278L 399.5 278L 404 278L 404 282.5L 404 287L 395 287L 386 287L 386 296L 386 305L 377 305L 368 305L 368 300.5L 368 296L 363.5 296L 359 296L 359 300.5L 359 305L 363.5 305L 368 305L 368 309.5L 368 314L 363.5 314L 359 314L 359 318.5L 359 323L 350 323L 341 323L 341 332L 341 341L 350 341L 359 341L 359 350L 359 359L 363.5 359L 368 359L 368 354.5L 368 350L 372.5 350L 377 350L 377 359L 377 368L 381.5 368L 386 368L 386 354.5L 386 341L 399.5 341L 413 341L 413 345.5L 413 350L 417.5 350L 422 350L 422 354.5L 422 359L 417.5 359L 413 359L 413 363.5L 413 368L 408.5 368L 404 368L 404 363.5L 404 359L 399.5 359L 395 359L 395 363.5L 395 368L 399.5 368L 404 368L 404 377L 404 386L 413 386L 422 386L 422 390.5L 422 395L 431 395L 440 395L 440 386L 440 377L 449 377L 458 377L 458 372.5L 458 368L 444.5 368L 431 368L 431 377L 431 386L 426.5 386L 422 386L 422 381.5L 422 377L 417.5 377L 413 377L 413 372.5L 413 368L 417.5 368L 422 368L 422 363.5L 422 359L 435.5 359L 449 359L 449 354.5L 449 350L 440 350L 431 350L 431 341L 431 332L 426.5 332L 422 332L 422 327.5L 422 323L 431 323L 440 323L 440 332L 440 341L 449 341L 458 341L 458 336.5L 458 332L 453.5 332L 449 332L 449 318.5L 449 305L 453.5 305L 458 305L 458 300.5L 458 296L 449 296L 440 296L 440 305L 440 314L 431 314L 422 314L 422 309.5L 422 305L 417.5 305L 413 305L 413 309.5L 413 314L 408.5 314L 404 314L 404 318.5L 404 323L 399.5 323L 395 323L 395 309.5L 395 296L 399.5 296L 404 296L 404 291.5L 404 287L 408.5 287L 413 287L 413 282.5L 413 278L 417.5 278L 422 278L 422 287L 422 296L 426.5 296L 431 296L 431 291.5L 431 287L 449 287L 467 287L 467 282.5L 467 278L 449 278L 431 278L 431 273.5L 431 269L 422 269L 413 269L 413 264.5L 413 260L 422 260L 431 260L 431 255.5L 431 251L 422 251L 413 251L 413 255.5L 413 260L 408.5 260L 404 260L 404 246.5L 404 233L 413 233L 422 233L 422 215L 422 197L 417.5 197L 413 197L 413 201.5L 413 206L 408.5 206L 404 206L 404 210.5L 404 215L 408.5 215L 413 215L 413 219.5L 413 224L 408.5 224L 404 224L 404 228.5L 404 233L 399.5 233L 395 233L 395 237.5L 395 242L 386 242L 377 242L 377 237.5L 377 233L 372.5 233L 368 233L 368 228.5L 368 224L 363.5 224L 359 224L 359 219.5L 359 215L 354.5 215L 350 215L 350 224L 350 233L 345.5 233L 341 233L 341 228.5L 341 224L 336.5 224L 332 224L 332 219.5L 332 215L 336.5 215L 341 215L 341 210.5L 341 206L 336.5 206L 332 206L 332 201.5L 332 197L 327.5 197L 323 197L 323 201.5L 323 206L 318.5 206L 314 206L 314 201.5L 314 197L 305 197L 296 197L 296 201.5zM 314 210.5L 314 215L 305 215L 296 215L 296 210.5L 296 206L 305 206L 314 206L 314 210.5zM 332 210.5L 332 215L 327.5 215L 323 215L 323 210.5L 323 206L 327.5 206L 332 206L 332 210.5zM 413 273.5L 413 278L 408.5 278L 404 278L 404 273.5L 404 269L 408.5 269L 413 269L 413 273.5zM 386 327.5L 386 341L 372.5 341L 359 341L 359 332L 359 323L 363.5 323L 368 323L 368 318.5L 368 314L 377 314L 386 314L 386 327.5zM 422 336.5L 422 341L 417.5 341L 413 341L 413 336.5L 413 332L 417.5 332L 422 332L 422 336.5z"/>
<path style="stroke:none; fill:#000000" d="M 368 327.5L 368 332L 372.5 332L 377 332L 377 327.5L 377 323L 372.5 323L 368 323L 368 327.5z"/>
<path style="stroke:none; fill:#000000" d="M 431 210.5L 431 215L 440 215L 449 215L 449 210.5L 449 206L 440 206L 431 206L 431 210.5z"/>
<path style="stroke:none; fill:#000000" d="M 431 233L 431 242L 435.5 242L 440 242L 440 237.5L 440 233L 444.5 233L 449 233L 449 228.5L 449 224L 440 224L 431 224L 431 233z"/>
<path style="stroke:none; fill:#000000" d="M 467 228.5L 467 233L 471.5 233L 476 233L 476 228.5L 476 224L 471.5 224L 467 224L 467 228.5z"/>
<path style="stroke:none; fill:#000000" d="M 548 309.5L 548 314L 543.5 314L 539 314L 539 318.5L 539 323L 534.5 323L 530 323L 530 327.5L 530 332L 534.5 332L 539 332L 539 336.5L 539 341L 543.5 341L 548 341L 548 336.5L 548 332L 543.5 332L 539 332L 539 327.5L 539 323L 543.5 323L 548 323L 548 318.5L 548 314L 552.5 314L 557 314L 557 309.5L 557 305L 552.5 305L 548 305L 548 309.5z"/>
<path style="stroke:none; fill:#000000" d="M 566 314L 566 323L 575 323L 584 323L 584 318.5L 584 314L 579.5 314L 575 314L 575 309.5L 575 305L 570.5 305L 566 305L 566 314z"/>
<path style="stroke:none; fill:#000000" d="M 557 336.5L 557 341L 561.5 341L 566 341L 566 336.5L 566 332L 561.5 332L 557 332L 557 336.5z"/>
<path style="stroke:none; fill:#000000" d="M 305 377L 305 386L 300.5 386L 296 386L 296 390.5L 296 395L 300.5 395L 305 395L 305 404L 305 413L 300.5 413L 296 413L 296 408.5L 296 404L 291.5 404L 287 404L 287 399.5L 287 395L 282.5 395L 278 395L 278 399.5L 278 404L 273.5 404L 269 404L 269 399.5L 269 395L 264.5 395L 260 395L 260 399.5L 260 404L 264.5 404L 269 404L 269 408.5L 269 413L 282.5 413L 296 413L 296 417.5L 296 422L 305 422L 314 422L 314 408.5L 314 395L 318.5 395L 323 395L 323 399.5L 323 404L 327.5 404L 332 404L 332 408.5L 332 413L 327.5 413L 323 413L 323 417.5L 323 422L 327.5 422L 332 422L 332 417.5L 332 413L 341 413L 350 413L 350 417.5L 350 422L 354.5 422L 359 422L 359 426.5L 359 431L 368 431L 377 431L 377 435.5L 377 440L 386 440L 395 440L 395 449L 395 458L 399.5 458L 404 458L 404 453.5L 404 449L 408.5 449L 413 449L 413 444.5L 413 440L 408.5 440L 404 440L 404 435.5L 404 431L 390.5 431L 377 431L 377 426.5L 377 422L 390.5 422L 404 422L 404 417.5L 404 413L 408.5 413L 413 413L 413 408.5L 413 404L 408.5 404L 404 404L 404 399.5L 404 395L 399.5 395L 395 395L 395 399.5L 395 404L 399.5 404L 404 404L 404 408.5L 404 413L 386 413L 368 413L 368 408.5L 368 404L 372.5 404L 377 404L 377 399.5L 377 395L 381.5 395L 386 395L 386 390.5L 386 386L 390.5 386L 395 386L 395 381.5L 395 377L 372.5 377L 350 377L 350 381.5L 350 386L 354.5 386L 359 386L 359 390.5L 359 395L 363.5 395L 368 395L 368 399.5L 368 404L 354.5 404L 341 404L 341 395L 341 386L 336.5 386L 332 386L 332 390.5L 332 395L 327.5 395L 323 395L 323 390.5L 323 386L 318.5 386L 314 386L 314 377L 314 368L 309.5 368L 305 368L 305 377zM 377 390.5L 377 395L 372.5 395L 368 395L 368 390.5L 368 386L 372.5 386L 377 386L 377 390.5zM 368 417.5L 368 422L 363.5 422L 359 422L 359 417.5L 359 413L 363.5 413L 368 413L 368 417.5z"/>
<path style="stroke:none; fill:#000000" d="M 449 390.5L 449 395L 453.5 395L 458 395L 458 390.5L 458 386L 453.5 386L 449 386L 449 390.5z"/>
<path style="stroke:none; fill:#000000" d="M 296 435.5L 296 440L 300.5 440L 305 440L 305 435.5L 305 431L 300.5 431L 296 431L 296 435.5z"/>
<path style="stroke:none; fill:#000000" d="M 359 444.5L 359 449L 354.5 449L 350 449L 350 453.5L 350 458L 354.5 458L 359 458L 359 462.5L 359 467L 372.5 467L 386 467L 386 471.5L 386 476L 390.5 476L 395 476L 395 480.5L 395 485L 386 485L 377 485L 377 480.5L 377 476L 368 476L 359 476L 359 480.5L 359 485L 363.5 485L 368 485L 368 489.5L 368 494L 363.5 494L 359 494L 359 498.5L 359 503L 363.5 503L 368 503L 368 507.5L 368 512L 381.5 512L 395 512L 395 521L 395 530L 399.5 530L 404 530L 404 525.5L 404 521L 408.5 521L 413 521L 413 525.5L 413 530L 417.5 530L 422 530L 422 534.5L 422 539L 431 539L 440 539L 440 534.5L 440 530L 435.5 530L 431 530L 431 525.5L 431 521L 422 521L 413 521L 413 516.5L 413 512L 408.5 512L 404 512L 404 507.5L 404 503L 386 503L 368 503L 368 498.5L 368 494L 381.5 494L 395 494L 395 489.5L 395 485L 404 485L 413 485L 413 489.5L 413 494L 422 494L 431 494L 431 498.5L 431 503L 435.5 503L 440 503L 440 498.5L 440 494L 435.5 494L 431 494L 431 485L 431 476L 426.5 476L 422 476L 422 480.5L 422 485L 417.5 485L 413 485L 413 476L 413 467L 399.5 467L 386 467L 386 458L 386 449L 377 449L 368 449L 368 444.5L 368 440L 363.5 440L 359 440L 359 444.5zM 368 453.5L 368 458L 363.5 458L 359 458L 359 453.5L 359 449L 363.5 449L 368 449L 368 453.5z"/>
<path style="stroke:none; fill:#000000" d="M 422 444.5L 422 449L 426.5 449L 431 449L 431 444.5L 431 440L 426.5 440L 422 440L 422 444.5z"/>
<path style="stroke:none; fill:#000000" d="M 278 525.5L 278 530L 282.5 530L 287 530L 287 525.5L 287 521L 282.5 521L 278 521L 278 525.5z"/>
<path style="stroke:none; fill:#000000" d="M 485 534.5L 485 539L 480.5 539L 476 539L 476 548L 476 557L 471.5 557L 467 557L 467 561.5L 467 566L 476 566L 485 566L 485 570.5L 485 575L 489.5 575L 494 575L 494 570.5L 494 566L 512 566L 530 566L 530 557L 530 548L 534.5 548L 539 548L 539 543.5L 539 539L 530 539L 521 539L 521 548L 521 557L 516.5 557L 512 557L 512 552.5L 512 548L 503 548L 494 548L 494 539L 494 530L 489.5 530L 485 530L 485 534.5zM 494 557L 494 566L 489.5 566L 485 566L 485 557L 485 548L 489.5 548L 494 548L 494 557z"/>
<path style="stroke:none; fill:#000000" d="M 278 543.5L 278 548L 282.5 548L 287 548L 287 543.5L 287 539L 282.5 539L 278 539L 278 543.5z"/>
<path style="stroke:none; fill:#000000" d="M 422 552.5L 422 557L 431 557L 440 557L 440 552.5L 440 548L 431 548L 422 548L 422 552.5z"/>
<path style="stroke:none; fill:#000000" d="M 422 570.5L 422 575L 426.5 575L 431 575L 431 570.5L 431 566L 426.5 566L 422 566L 422 570.5z"/>
<path style="stroke:none; fill:#000000" d="M 566 246.5L 566 251L 570.5 251L 575 251L 575 246.5L 575 242L 570.5 242L 566 242L 566 246.5z"/>
<path style="stroke:none; fill:#000000" d="M 305 309.5L 305 314L 309.5 314L 314 314L 314 309.5L 314 305L 309.5 305L 305 305L 305 309.5z"/>
<path style="stroke:none; fill:#000000" d="M 485 309.5L 485 314L 489.5 314L 494 314L 494 309.5L 494 305L 489.5 305L 485 305L 485 309.5z"/>
<path style="stroke:none; fill:#000000" d="M 305 489.5L 305 494L 309.5 494L 314 494L 314 489.5L 314 485L 309.5 485L 305 485L 305 489.5z"/>
<path style="stroke:none; fill:#000000" d="M 485 489.5L 485 494L 489.5 494L 494 494L 494 489.5L 494 485L 489.5 485L 485 485L 485 489.5z"/>
<path style="stroke:none; fill:#000000" d="M 350 147.5L 350 152L 345.5 152L 341 152L 341 156.5L 341 161L 350 161L 359 161L 359 152L 359 143L 354.5 143L 350 143L 350 147.5z"/>
<path style="stroke:none; fill:#000000" d="M 368 147.5L 368 152L 372.5 152L 377 152L 377 147.5L 377 143L 372.5 143L 368 143L 368 147.5z"/>
<path style="stroke:none; fill:#000000" d="M 620 147.5L 620 152L 615.5 152L 611 152L 611 156.5L 611 161L 606.5 161L 602 161L 602 156.5L 602 152L 593 152L 584 152L 584 156.5L 584 161L 588.5 161L 593 161L 593 165.5L 593 170L 575 170L 557 170L 557 174.5L 557 179L 584 179L 611 179L 611 183.5L 611 188L 615.5 188L 620 188L 620 183.5L 620 179L 615.5 179L 611 179L 611 174.5L 611 170L 620 170L 629 170L 629 165.5L 629 161L 638 161L 647 161L 647 156.5L 647 152L 638 152L 629 152L 629 147.5L 629 143L 624.5 143L 620 143L 620 147.5zM 629 156.5L 629 161L 624.5 161L 620 161L 620 156.5L 620 152L 624.5 152L 629 152L 629 156.5z"/>
<path style="stroke:none; fill:#000000" d="M 152 183.5L 152 188L 147.5 188L 143 188L 143 192.5L 143 197L 147.5 197L 152 197L 152 201.5L 152 206L 156.5 206L 161 206L 161 210.5L 161 215L 165.5 215L 170 215L 170 210.5L 170 206L 165.5 206L 161 206L 161 201.5L 161 197L 156.5 197L 152 197L 152 192.5L 152 188L 161 188L 170 188L 170 183.5L 170 179L 161 179L 152 179L 152 183.5z"/>
<path style="stroke:none; fill:#000000" d="M 548 201.5L 548 206L 552.5 206L 557 206L 557 201.5L 557 197L 552.5 197L 548 197L 548 201.5z"/>
<path style="stroke:none; fill:#000000" d="M 665 201.5L 665 206L 669.5 206L 674 206L 674 201.5L 674 197L 669.5 197L 665 197L 665 201.5z"/>
<path style="stroke:none; fill:#000000" d="M 116 228.5L 116 233L 111.5 233L 107 233L 107 237.5L 107 242L 111.5 242L 116 242L 116 246.5L 116 251L 120.5 251L 125 251L 125 246.5L 125 242L 120.5 242L 116 242L 116 237.5L 116 233L 120.5 233L 125 233L 125 228.5L 125 224L 120.5 224L 116 224L 116 228.5z"/>
<path style="stroke:none; fill:#000000" d="M 251 282.5L 251 287L 255.5 287L 260 287L 260 296L 260 305L 264.5 305L 269 305L 269 296L 269 287L 264.5 287L 260 287L 260 282.5L 260 278L 255.5 278L 251 278L 251 282.5z"/>
<path style="stroke:none; fill:#000000" d="M 89 350L 89 359L 93.5 359L 98 359L 98 363.5L 98 368L 107 368L 116 368L 116 363.5L 116 359L 111.5 359L 107 359L 107 354.5L 107 350L 102.5 350L 98 350L 98 345.5L 98 341L 93.5 341L 89 341L 89 350z"/>
<path style="stroke:none; fill:#000000" d="M 116 345.5L 116 350L 125 350L 134 350L 134 345.5L 134 341L 125 341L 116 341L 116 345.5z"/>
<path style="stroke:none; fill:#000000" d="M 125 363.5L 125 368L 129.5 368L 134 368L 134 363.5L 134 359L 129.5 359L 125 359L 125 363.5z"/>
<path style="stroke:none; fill:#000000" d="M 98 390.5L 98 395L 102.5 395L 107 395L 107 390.5L 107 386L 102.5 386L 98 386L 98 390.5z"/>
<path style="stroke:none; fill:#000000" d="M 224 390.5L 224 395L 219.5 395L 215 395L 215 399.5L 215 404L 224 404L 233 404L 233 395L 233 386L 228.5 386L 224 386L 224 390.5z"/>
<path style="stroke:none; fill:#000000" d="M 656 408.5L 656 413L 651.5 413L 647 413L 647 417.5L 647 422L 656 422L 665 422L 665 426.5L 665 431L 669.5 431L 674 431L 674 435.5L 674 440L 678.5 440L 683 440L 683 444.5L 683 449L 687.5 449L 692 449L 692 444.5L 692 440L 687.5 440L 683 440L 683 435.5L 683 431L 678.5 431L 674 431L 674 426.5L 674 422L 678.5 422L 683 422L 683 417.5L 683 413L 678.5 413L 674 413L 674 408.5L 674 404L 665 404L 656 404L 656 408.5z"/>
<path style="stroke:none; fill:#000000" d="M 143 435.5L 143 440L 147.5 440L 152 440L 152 435.5L 152 431L 147.5 431L 143 431L 143 435.5z"/>
<path style="stroke:none; fill:#000000" d="M 629 435.5L 629 440L 633.5 440L 638 440L 638 435.5L 638 431L 633.5 431L 629 431L 629 435.5z"/>
<path style="stroke:none; fill:#000000" d="M 215 462.5L 215 467L 210.5 467L 206 467L 206 471.5L 206 476L 215 476L 224 476L 224 471.5L 224 467L 228.5 467L 233 467L 233 462.5L 233 458L 224 458L 215 458L 215 462.5z"/>
<path style="stroke:none; fill:#000000" d="M 251 471.5L 251 476L 242 476L 233 476L 233 480.5L 233 485L 242 485L 251 485L 251 480.5L 251 476L 255.5 476L 260 476L 260 471.5L 260 467L 255.5 467L 251 467L 251 471.5z"/>
<path style="stroke:none; fill:#000000" d="M 170 516.5L 170 521L 174.5 521L 179 521L 179 530L 179 539L 183.5 539L 188 539L 188 525.5L 188 512L 179 512L 170 512L 170 516.5z"/>
<path style="stroke:none; fill:#000000" d="M 368 552.5L 368 557L 372.5 557L 377 557L 377 552.5L 377 548L 372.5 548L 368 548L 368 552.5z"/>
<path style="stroke:none; fill:#000000" d="M 647 552.5L 647 557L 651.5 557L 656 557L 656 552.5L 656 548L 651.5 548L 647 548L 647 552.5z"/>
<path style="stroke:none; fill:#000000" d="M 341 588.5L 341 593L 345.5 593L 350 593L 350 588.5L 350 584L 345.5 584L 341 584L 341 588.5z"/>
<path style="stroke:none; fill:#000000" d="M 125 615.5L 125 620L 134 620L 143 620L 143 615.5L 143 611L 134 611L 125 611L 125 615.5z"/>
<path style="stroke:none; fill:#000000" d="M 368 615.5L 368 620L 372.5 620L 377 620L 377 615.5L 377 611L 372.5 611L 368 611L 368 615.5z"/>
<path style="stroke:none; fill:#000000" d="M 476 615.5L 476 620L 480.5 620L 485 620L 485 615.5L 485 611L 480.5 611L 476 611L 476 615.5z"/>
<path style="stroke:none; fill:#000000" d="M 494 620L 494 629L 498.5 629L 503 629L 503 624.5L 503 620L 507.5 620L 512 620L 512 615.5L 512 611L 503 611L 494 611L 494 620z"/>
<path style="stroke:none; fill:#000000" d="M 440 624.5L 440 629L 449 629L 458 629L 458 624.5L 458 620L 449 620L 440 620L 440 624.5z"/>
<path style="stroke:none; fill:#000000" d="M 539 669.5L 539 674L 548 674L 557 674L 557 669.5L 557 665L 548 665L 539 665L 539 669.5z"/>
<path style="stroke:none; fill:#000000" d="M 359 678.5L 359 683L 363.5 683L 368 683L 368 678.5L 368 674L 363.5 674L 359 674L 359 678.5z"/>
<path style="stroke:none; fill:#000000" d="M 593 687.5L 593 692L 597.5 692L 602 692L 602 687.5L 602 683L 597.5 683L 593 683L 593 687.5z"/>
<path style="stroke:none; fill:#000000" d="M 305 129.5L 305 134L 309.5 134L 314 134L 314 129.5L 314 125L 309.5 125L 305 125L 305 129.5z"/>
<path style="stroke:none; fill:#000000" d="M 485 129.5L 485 134L 489.5 134L 494 134L 494 129.5L 494 125L 489.5 125L 485 125L 485 129.5z"/>
<path style="stroke:none; fill:#000000" d="M 125 309.5L 125 314L 129.5 314L 134 314L 134 309.5L 134 305L 129.5 305L 125 305L 125 309.5z"/>
<path style="stroke:none; fill:#000000" d="M 665 309.5L 665 314L 669.5 314L 674 314L 674 309.5L 674 305L 669.5 305L 665 305L 665 309.5z"/>
<path style="stroke:none; fill:#000000" d="M 593 489.5L 593 494L 597.5 494L 602 494L 602 498.5L 602 503L 606.5 503L 611 503L 611 494L 611 485L 602 485L 593 485L 593 489.5z"/>
<path style="stroke:none; fill:#000000" d="M 125 489.5L 125 494L 129.5 494L 134 494L 134 489.5L 134 485L 129.5 485L 125 485L 125 489.5z"/>
<path style="stroke:none; fill:#000000" d="M 665 489.5L 665 494L 669.5 494L 674 494L 674 489.5L 674 485L 669.5 485L 665 485L 665 489.5z"/>
<path style="stroke:none; fill:#000000" d="M 305 669.5L 305 674L 309.5 674L 314 674L 314 669.5L 314 665L 309.5 665L 305 665L 305 669.5z"/>
<path style="stroke:none; fill:#000000" d="M 485 669.5L 485 674L 489.5 674L 494 674L 494 669.5L 494 665L 489.5 665L 485 665L 485 669.5z"/>
<path style="stroke:none; fill:#000000" d="M 665 669.5L 665 674L 669.5 674L 674 674L 674 669.5L 674 665L 669.5 665L 665 665L 665 669.5z"/>
<path style="stroke:none; fill:#000000" d="M 440 75.5L 440 80L 453.5 80L 467 80L 467 75.5L 467 71L 453.5 71L 440 71L 440 75.5z"/>
<path style="stroke:none; fill:#000000" d="M 629 80L 629 89L 633.5 89L 638 89L 638 80L 638 71L 633.5 71L 629 71L 629 80z"/>
<path style="stroke:none; fill:#000000" d="M 647 75.5L 647 80L 651.5 80L 656 80L 656 75.5L 656 71L 651.5 71L 647 71L 647 75.5z"/>
<path style="stroke:none; fill:#000000" d="M 665 102.5L 665 134L 696.5 134L 728 134L 728 102.5L 728 71L 696.5 71L 665 71L 665 102.5zM 719 102.5L 719 125L 696.5 125L 674 125L 674 102.5L 674 80L 696.5 80L 719 80L 719 102.5z"/>
<path style="stroke:none; fill:#000000" d="M 683 102.5L 683 116L 696.5 116L 710 116L 710 102.5L 710 89L 696.5 89L 683 89L 683 102.5z"/>
<path style="stroke:none; fill:#000000" d="M 431 93.5L 431 98L 440 98L 449 98L 449 93.5L 449 89L 440 89L 431 89L 431 93.5z"/>
<path style="stroke:none; fill:#000000" d="M 71 197L 71 206L 75.5 206L 80 206L 80 201.5L 80 197L 84.5 197L 89 197L 89 192.5L 89 188L 80 188L 71 188L 71 197z"/>
<path style="stroke:none; fill:#000000" d="M 710 237.5L 710 242L 719 242L 728 242L 728 237.5L 728 233L 719 233L 710 233L 710 237.5z"/>
<path style="stroke:none; fill:#000000" d="M 710 264.5L 710 278L 714.5 278L 719 278L 719 287L 719 296L 723.5 296L 728 296L 728 282.5L 728 269L 723.5 269L 719 269L 719 260L 719 251L 714.5 251L 710 251L 710 264.5z"/>
<path style="stroke:none; fill:#000000" d="M 71 651.5L 71 656L 75.5 656L 80 656L 80 651.5L 80 647L 75.5 647L 71 647L 71 651.5z"/>
<path style="stroke:none; fill:#000000" d="M 71 696.5L 71 728L 102.5 728L 134 728L 134 696.5L 134 665L 102.5 665L 71 665L 71 696.5zM 125 696.5L 125 719L 102.5 719L 80 719L 80 696.5L 80 674L 102.5 674L 125 674L 125 696.5z"/>
<path style="stroke:none; fill:#000000" d="M 89 696.5L 89 710L 102.5 710L 116 710L 116 696.5L 116 683L 102.5 683L 89 683L 89 696.5z"/>
<path style="stroke:none; fill:#000000" d="M 251 723.5L 251 728L 255.5 728L 260 728L 260 723.5L 260 719L 255.5 719L 251 719L 251 723.5z"/>
</g>
</g>
</svg>