<?xml version="1.0" encoding="UTF-8" standalone="yes"?>
<!-- Created with sK1/UniConvertor (http://sk1project.org/) -->
<svg xmlns="http://www.w3.org/2000/svg" xmlns:xlink="http://www.w3.org/1999/xlink"
  width="800pt" height="800pt" viewBox="0 0 800 800"
  fill-rule="evenodd">
<g>
<g>
<path style="stroke:none; fill:#000000" d="M 82 124L 82 166L 124 166L 166 166L 166 124L 166 82L 124 82L 82 82L 82 124zM 154 124L 154 154L 124 154L 94 154L 94 124L 94 94L 124 94L 154 94L 154 124z"/>
<path style="stroke:none; fill:#000000" d="M 106 124L 106 142L 124 142L 142 142L 142 124L 142 106L 124 106L 106 106L 106 124z"/>
<path style="stroke:none; fill:#000000" d="M 190 94L 190 106L 184 106L 178 106L 178 142L 178 178L 196 178L 214 178L 214 166L 214 154L 208 154L 202 154L 202 160L 202 166L 196 166L 190 166L 190 154L 190 142L 196 142L 202 142L 202 130L 202 118L 196 118L 190 118L 190 112L 190 106L 196 106L 202 106L 202 100L 202 94L 208 94L 214 94L 214 100L 214 106L 220 106L 226 106L 226 112L 226 118L 220 118L 214 118L 214 130L 214 142L 226 142L 238 142L 238 148L 238 154L 232 154L 226 154L 226 160L 226 166L 232 166L 238 166L 238 172L 238 178L 244 178L 250 178L 250 184L 250 190L 244 190L 238 190L 238 196L 238 202L 250 202L 262 202L 262 196L 262 190L 268 190L 274 190L 274 196L 274 202L 280 202L 286 202L 286 214L 286 226L 274 226L 262 226L 262 220L 262 214L 250 214L 238 214L 238 220L 238 226L 232 226L 226 226L 226 220L 226 214L 220 214L 214 214L 214 220L 214 226L 208 226L 202 226L 202 220L 202 214L 190 214L 178 214L 178 208L 178 202L 184 202L 190 202L 190 196L 190 190L 184 190L 178 190L 178 196L 178 202L 166 202L 154 202L 154 208L 154 214L 148 214L 142 214L 142 202L 142 190L 154 190L 166 190L 166 184L 166 178L 136 178L 106 178L 106 184L 106 190L 100 190L 94 190L 94 184L 94 178L 88 178L 82 178L 82 190L 82 202L 106 202L 130 202L 130 232L 130 262L 124 262L 118 262L 118 256L 118 250L 106 250L 94 250L 94 244L 94 238L 100 238L 106 238L 106 232L 106 226L 112 226L 118 226L 118 220L 118 214L 112 214L 106 214L 106 220L 106 226L 94 226L 82 226L 82 256L 82 286L 88 286L 94 286L 94 292L 94 298L 106 298L 118 298L 118 304L 118 310L 112 310L 106 310L 106 316L 106 322L 100 322L 94 322L 94 316L 94 310L 88 310L 82 310L 82 322L 82 334L 112 334L 142 334L 142 322L 142 310L 154 310L 166 310L 166 316L 166 322L 160 322L 154 322L 154 328L 154 334L 172 334L 190 334L 190 328L 190 322L 184 322L 178 322L 178 316L 178 310L 184 310L 190 310L 190 304L 190 298L 184 298L 178 298L 178 304L 178 310L 172 310L 166 310L 166 304L 166 298L 142 298L 118 298L 118 286L 118 274L 130 274L 142 274L 142 280L 142 286L 190 286L 238 286L 238 274L 238 262L 244 262L 250 262L 250 268L 250 274L 256 274L 262 274L 262 268L 262 262L 256 262L 250 262L 250 256L 250 250L 256 250L 262 250L 262 244L 262 238L 268 238L 274 238L 274 244L 274 250L 286 250L 298 250L 298 256L 298 262L 310 262L 322 262L 322 268L 322 274L 334 274L 346 274L 346 262L 346 250L 352 250L 358 250L 358 244L 358 238L 340 238L 322 238L 322 226L 322 214L 316 214L 310 214L 310 208L 310 202L 304 202L 298 202L 298 196L 298 190L 310 190L 322 190L 322 184L 322 178L 328 178L 334 178L 334 160L 334 142L 340 142L 346 142L 346 160L 346 178L 352 178L 358 178L 358 184L 358 190L 346 190L 334 190L 334 202L 334 214L 340 214L 346 214L 346 208L 346 202L 352 202L 358 202L 358 196L 358 190L 364 190L 370 190L 370 196L 370 202L 400 202L 430 202L 430 190L 430 178L 436 178L 442 178L 442 190L 442 202L 448 202L 454 202L 454 190L 454 178L 448 178L 442 178L 442 172L 442 166L 448 166L 454 166L 454 160L 454 154L 448 154L 442 154L 442 148L 442 142L 448 142L 454 142L 454 136L 454 130L 460 130L 466 130L 466 124L 466 118L 448 118L 430 118L 430 124L 430 130L 400 130L 370 130L 370 154L 370 178L 364 178L 358 178L 358 154L 358 130L 340 130L 322 130L 322 124L 322 118L 334 118L 346 118L 346 100L 346 82L 340 82L 334 82L 334 88L 334 94L 328 94L 322 94L 322 88L 322 82L 316 82L 310 82L 310 88L 310 94L 304 94L 298 94L 298 88L 298 82L 292 82L 286 82L 286 88L 286 94L 292 94L 298 94L 298 106L 298 118L 304 118L 310 118L 310 124L 310 130L 316 130L 322 130L 322 148L 322 166L 316 166L 310 166L 310 160L 310 154L 304 154L 298 154L 298 142L 298 130L 286 130L 274 130L 274 106L 274 82L 262 82L 250 82L 250 88L 250 94L 256 94L 262 94L 262 100L 262 106L 256 106L 250 106L 250 112L 250 118L 244 118L 238 118L 238 100L 238 82L 214 82L 190 82L 190 94zM 322 100L 322 106L 316 106L 310 106L 310 100L 310 94L 316 94L 322 94L 322 100zM 238 124L 238 130L 244 130L 250 130L 250 124L 250 118L 256 118L 262 118L 262 124L 262 130L 268 130L 274 130L 274 136L 274 142L 268 142L 262 142L 262 148L 262 154L 268 154L 274 154L 274 160L 274 166L 280 166L 286 166L 286 160L 286 154L 292 154L 298 154L 298 160L 298 166L 292 166L 286 166L 286 172L 286 178L 274 178L 262 178L 262 166L 262 154L 256 154L 250 154L 250 160L 250 166L 244 166L 238 166L 238 160L 238 154L 244 154L 250 154L 250 148L 250 142L 244 142L 238 142L 238 136L 238 130L 232 130L 226 130L 226 124L 226 118L 232 118L 238 118L 238 124zM 418 160L 418 178L 400 178L 382 178L 382 160L 382 142L 400 142L 418 142L 418 160zM 442 160L 442 166L 436 166L 430 166L 430 160L 430 154L 436 154L 442 154L 442 160zM 166 220L 166 226L 160 226L 154 226L 154 232L 154 238L 160 238L 166 238L 166 244L 166 250L 160 250L 154 250L 154 256L 154 262L 160 262L 166 262L 166 268L 166 274L 154 274L 142 274L 142 250L 142 226L 148 226L 154 226L 154 220L 154 214L 160 214L 166 214L 166 220zM 310 220L 310 226L 304 226L 298 226L 298 232L 298 238L 292 238L 286 238L 286 232L 286 226L 292 226L 298 226L 298 220L 298 214L 304 214L 310 214L 310 220zM 190 232L 190 238L 196 238L 202 238L 202 250L 202 262L 214 262L 226 262L 226 268L 226 274L 214 274L 202 274L 202 268L 202 262L 190 262L 178 262L 178 244L 178 226L 184 226L 190 226L 190 232zM 250 232L 250 238L 244 238L 238 238L 238 244L 238 250L 232 250L 226 250L 226 244L 226 238L 232 238L 238 238L 238 232L 238 226L 244 226L 250 226L 250 232zM 322 244L 322 250L 328 250L 334 250L 334 256L 334 262L 328 262L 322 262L 322 256L 322 250L 316 250L 310 250L 310 244L 310 238L 316 238L 322 238L 322 244zM 106 280L 106 286L 100 286L 94 286L 94 280L 94 274L 100 274L 106 274L 106 280zM 130 316L 130 322L 124 322L 118 322L 118 316L 118 310L 124 310L 130 310L 130 316z"/>
<path style="stroke:none; fill:#000000" d="M 394 160L 394 166L 400 166L 406 166L 406 160L 406 154L 400 154L 394 154L 394 160z"/>
<path style="stroke:none; fill:#000000" d="M 358 88L 358 94L 364 94L 370 94L 370 88L 370 82L 364 82L 358 82L 358 88z"/>
<path style="stroke:none; fill:#000000" d="M 382 88L 382 94L 388 94L 394 94L 394 100L 394 106L 388 106L 382 106L 382 112L 382 118L 400 118L 418 118L 418 112L 418 106L 412 106L 406 106L 406 100L 406 94L 430 94L 454 94L 454 100L 454 106L 466 106L 478 106L 478 112L 478 118L 484 118L 490 118L 490 106L 490 94L 484 94L 478 94L 478 88L 478 82L 472 82L 466 82L 466 88L 466 94L 460 94L 454 94L 454 88L 454 82L 418 82L 382 82L 382 88z"/>
<path style="stroke:none; fill:#000000" d="M 514 94L 514 106L 520 106L 526 106L 526 100L 526 94L 532 94L 538 94L 538 100L 538 106L 544 106L 550 106L 550 112L 550 118L 526 118L 502 118L 502 124L 502 130L 508 130L 514 130L 514 136L 514 142L 502 142L 490 142L 490 154L 490 166L 484 166L 478 166L 478 160L 478 154L 472 154L 466 154L 466 160L 466 166L 472 166L 478 166L 478 178L 478 190L 472 190L 466 190L 466 208L 466 226L 478 226L 490 226L 490 232L 490 238L 496 238L 502 238L 502 244L 502 250L 490 250L 478 250L 478 256L 478 262L 472 262L 466 262L 466 256L 466 250L 454 250L 442 250L 442 244L 442 238L 430 238L 418 238L 418 226L 418 214L 412 214L 406 214L 406 220L 406 226L 400 226L 394 226L 394 238L 394 250L 388 250L 382 250L 382 256L 382 262L 370 262L 358 262L 358 268L 358 274L 364 274L 370 274L 370 286L 370 298L 376 298L 382 298L 382 304L 382 310L 376 310L 370 310L 370 316L 370 322L 382 322L 394 322L 394 328L 394 334L 400 334L 406 334L 406 328L 406 322L 400 322L 394 322L 394 304L 394 286L 400 286L 406 286L 406 292L 406 298L 418 298L 430 298L 430 310L 430 322L 442 322L 454 322L 454 328L 454 334L 442 334L 430 334L 430 340L 430 346L 448 346L 466 346L 466 358L 466 370L 472 370L 478 370L 478 376L 478 382L 472 382L 466 382L 466 388L 466 394L 460 394L 454 394L 454 388L 454 382L 442 382L 430 382L 430 376L 430 370L 412 370L 394 370L 394 358L 394 346L 388 346L 382 346L 382 340L 382 334L 370 334L 358 334L 358 346L 358 358L 334 358L 310 358L 310 352L 310 346L 322 346L 334 346L 334 340L 334 334L 340 334L 346 334L 346 328L 346 322L 340 322L 334 322L 334 316L 334 310L 340 310L 346 310L 346 304L 346 298L 352 298L 358 298L 358 292L 358 286L 346 286L 334 286L 334 298L 334 310L 328 310L 322 310L 322 304L 322 298L 310 298L 298 298L 298 304L 298 310L 256 310L 214 310L 214 316L 214 322L 208 322L 202 322L 202 334L 202 346L 190 346L 178 346L 178 352L 178 358L 172 358L 166 358L 166 352L 166 346L 160 346L 154 346L 154 352L 154 358L 160 358L 166 358L 166 364L 166 370L 142 370L 118 370L 118 358L 118 346L 112 346L 106 346L 106 352L 106 358L 100 358L 94 358L 94 364L 94 370L 88 370L 82 370L 82 376L 82 382L 88 382L 94 382L 94 376L 94 370L 100 370L 106 370L 106 376L 106 382L 112 382L 118 382L 118 388L 118 394L 100 394L 82 394L 82 400L 82 406L 88 406L 94 406L 94 412L 94 418L 88 418L 82 418L 82 436L 82 454L 94 454L 106 454L 106 448L 106 442L 112 442L 118 442L 118 430L 118 418L 124 418L 130 418L 130 436L 130 454L 136 454L 142 454L 142 442L 142 430L 154 430L 166 430L 166 436L 166 442L 160 442L 154 442L 154 448L 154 454L 160 454L 166 454L 166 460L 166 466L 148 466L 130 466L 130 490L 130 514L 124 514L 118 514L 118 502L 118 490L 112 490L 106 490L 106 484L 106 478L 94 478L 82 478L 82 496L 82 514L 88 514L 94 514L 94 502L 94 490L 100 490L 106 490L 106 502L 106 514L 112 514L 118 514L 118 526L 118 538L 124 538L 130 538L 130 532L 130 526L 148 526L 166 526L 166 532L 166 538L 160 538L 154 538L 154 544L 154 550L 136 550L 118 550L 118 556L 118 562L 112 562L 106 562L 106 550L 106 538L 94 538L 82 538L 82 550L 82 562L 88 562L 94 562L 94 568L 94 574L 88 574L 82 574L 82 586L 82 598L 88 598L 94 598L 94 604L 94 610L 106 610L 118 610L 118 616L 118 622L 124 622L 130 622L 130 616L 130 610L 124 610L 118 610L 118 604L 118 598L 142 598L 166 598L 166 604L 166 610L 160 610L 154 610L 154 616L 154 622L 166 622L 178 622L 178 628L 178 634L 184 634L 190 634L 190 640L 190 646L 184 646L 178 646L 178 670L 178 694L 184 694L 190 694L 190 700L 190 706L 184 706L 178 706L 178 712L 178 718L 196 718L 214 718L 214 712L 214 706L 208 706L 202 706L 202 700L 202 694L 214 694L 226 694L 226 688L 226 682L 250 682L 274 682L 274 670L 274 658L 280 658L 286 658L 286 652L 286 646L 280 646L 274 646L 274 652L 274 658L 268 658L 262 658L 262 646L 262 634L 274 634L 286 634L 286 622L 286 610L 274 610L 262 610L 262 604L 262 598L 268 598L 274 598L 274 586L 274 574L 280 574L 286 574L 286 586L 286 598L 292 598L 298 598L 298 580L 298 562L 304 562L 310 562L 310 556L 310 550L 316 550L 322 550L 322 538L 322 526L 328 526L 334 526L 334 532L 334 538L 340 538L 346 538L 346 544L 346 550L 340 550L 334 550L 334 556L 334 562L 328 562L 322 562L 322 568L 322 574L 316 574L 310 574L 310 592L 310 610L 304 610L 298 610L 298 640L 298 670L 322 670L 346 670L 346 664L 346 658L 340 658L 334 658L 334 652L 334 646L 340 646L 346 646L 346 640L 346 634L 352 634L 358 634L 358 628L 358 622L 364 622L 370 622L 370 634L 370 646L 364 646L 358 646L 358 658L 358 670L 370 670L 382 670L 382 676L 382 682L 388 682L 394 682L 394 688L 394 694L 388 694L 382 694L 382 700L 382 706L 370 706L 358 706L 358 700L 358 694L 364 694L 370 694L 370 688L 370 682L 364 682L 358 682L 358 688L 358 694L 346 694L 334 694L 334 688L 334 682L 310 682L 286 682L 286 700L 286 718L 298 718L 310 718L 310 712L 310 706L 316 706L 322 706L 322 712L 322 718L 328 718L 334 718L 334 712L 334 706L 340 706L 346 706L 346 712L 346 718L 364 718L 382 718L 382 712L 382 706L 388 706L 394 706L 394 712L 394 718L 400 718L 406 718L 406 712L 406 706L 412 706L 418 706L 418 712L 418 718L 424 718L 430 718L 430 712L 430 706L 436 706L 442 706L 442 700L 442 694L 436 694L 430 694L 430 700L 430 706L 424 706L 418 706L 418 688L 418 670L 424 670L 430 670L 430 676L 430 682L 442 682L 454 682L 454 688L 454 694L 460 694L 466 694L 466 700L 466 706L 460 706L 454 706L 454 712L 454 718L 460 718L 466 718L 466 712L 466 706L 472 706L 478 706L 478 700L 478 694L 472 694L 466 694L 466 688L 466 682L 472 682L 478 682L 478 676L 478 670L 484 670L 490 670L 490 658L 490 646L 508 646L 526 646L 526 640L 526 634L 532 634L 538 634L 538 640L 538 646L 544 646L 550 646L 550 652L 550 658L 562 658L 574 658L 574 652L 574 646L 562 646L 550 646L 550 640L 550 634L 544 634L 538 634L 538 622L 538 610L 544 610L 550 610L 550 616L 550 622L 556 622L 562 622L 562 628L 562 634L 580 634L 598 634L 598 622L 598 610L 604 610L 610 610L 610 646L 610 682L 604 682L 598 682L 598 664L 598 646L 592 646L 586 646L 586 658L 586 670L 568 670L 550 670L 550 676L 550 682L 544 682L 538 682L 538 670L 538 658L 520 658L 502 658L 502 664L 502 670L 514 670L 526 670L 526 676L 526 682L 520 682L 514 682L 514 688L 514 694L 520 694L 526 694L 526 688L 526 682L 532 682L 538 682L 538 688L 538 694L 544 694L 550 694L 550 700L 550 706L 562 706L 574 706L 574 694L 574 682L 586 682L 598 682L 598 688L 598 694L 592 694L 586 694L 586 706L 586 718L 592 718L 598 718L 598 706L 598 694L 604 694L 610 694L 610 688L 610 682L 622 682L 634 682L 634 676L 634 670L 640 670L 646 670L 646 688L 646 706L 634 706L 622 706L 622 712L 622 718L 634 718L 646 718L 646 712L 646 706L 652 706L 658 706L 658 712L 658 718L 664 718L 670 718L 670 712L 670 706L 664 706L 658 706L 658 700L 658 694L 670 694L 682 694L 682 688L 682 682L 688 682L 694 682L 694 694L 694 706L 688 706L 682 706L 682 712L 682 718L 688 718L 694 718L 694 712L 694 706L 700 706L 706 706L 706 700L 706 694L 712 694L 718 694L 718 682L 718 670L 706 670L 694 670L 694 664L 694 658L 688 658L 682 658L 682 670L 682 682L 670 682L 658 682L 658 676L 658 670L 664 670L 670 670L 670 658L 670 646L 676 646L 682 646L 682 640L 682 634L 676 634L 670 634L 670 622L 670 610L 676 610L 682 610L 682 616L 682 622L 688 622L 694 622L 694 628L 694 634L 706 634L 718 634L 718 628L 718 622L 712 622L 706 622L 706 610L 706 598L 700 598L 694 598L 694 604L 694 610L 688 610L 682 610L 682 592L 682 574L 688 574L 694 574L 694 580L 694 586L 706 586L 718 586L 718 568L 718 550L 706 550L 694 550L 694 544L 694 538L 706 538L 718 538L 718 532L 718 526L 706 526L 694 526L 694 520L 694 514L 688 514L 682 514L 682 496L 682 478L 688 478L 694 478L 694 484L 694 490L 706 490L 718 490L 718 478L 718 466L 712 466L 706 466L 706 460L 706 454L 700 454L 694 454L 694 448L 694 442L 700 442L 706 442L 706 436L 706 430L 712 430L 718 430L 718 424L 718 418L 712 418L 706 418L 706 412L 706 406L 700 406L 694 406L 694 412L 694 418L 700 418L 706 418L 706 424L 706 430L 688 430L 670 430L 670 424L 670 418L 676 418L 682 418L 682 406L 682 394L 700 394L 718 394L 718 388L 718 382L 706 382L 694 382L 694 376L 694 370L 688 370L 682 370L 682 358L 682 346L 700 346L 718 346L 718 334L 718 322L 700 322L 682 322L 682 316L 682 310L 688 310L 694 310L 694 304L 694 298L 706 298L 718 298L 718 292L 718 286L 706 286L 694 286L 694 280L 694 274L 700 274L 706 274L 706 268L 706 262L 700 262L 694 262L 694 268L 694 274L 688 274L 682 274L 682 268L 682 262L 676 262L 670 262L 670 256L 670 250L 694 250L 718 250L 718 244L 718 238L 712 238L 706 238L 706 232L 706 226L 712 226L 718 226L 718 220L 718 214L 712 214L 706 214L 706 220L 706 226L 694 226L 682 226L 682 220L 682 214L 688 214L 694 214L 694 208L 694 202L 700 202L 706 202L 706 196L 706 190L 700 190L 694 190L 694 184L 694 178L 664 178L 634 178L 634 184L 634 190L 640 190L 646 190L 646 196L 646 202L 640 202L 634 202L 634 214L 634 226L 640 226L 646 226L 646 238L 646 250L 634 250L 622 250L 622 256L 622 262L 616 262L 610 262L 610 250L 610 238L 616 238L 622 238L 622 232L 622 226L 616 226L 610 226L 610 220L 610 214L 616 214L 622 214L 622 208L 622 202L 616 202L 610 202L 610 196L 610 190L 616 190L 622 190L 622 172L 622 154L 616 154L 610 154L 610 160L 610 166L 604 166L 598 166L 598 142L 598 118L 604 118L 610 118L 610 124L 610 130L 616 130L 622 130L 622 124L 622 118L 616 118L 610 118L 610 106L 610 94L 604 94L 598 94L 598 88L 598 82L 580 82L 562 82L 562 88L 562 94L 550 94L 538 94L 538 88L 538 82L 526 82L 514 82L 514 94zM 586 100L 586 106L 592 106L 598 106L 598 112L 598 118L 586 118L 574 118L 574 130L 574 142L 580 142L 586 142L 586 154L 586 166L 592 166L 598 166L 598 172L 598 178L 604 178L 610 178L 610 184L 610 190L 604 190L 598 190L 598 184L 598 178L 586 178L 574 178L 574 196L 574 214L 562 214L 550 214L 550 208L 550 202L 544 202L 538 202L 538 196L 538 190L 532 190L 526 190L 526 196L 526 202L 520 202L 514 202L 514 208L 514 214L 526 214L 538 214L 538 220L 538 226L 544 226L 550 226L 550 238L 550 250L 574 250L 598 250L 598 256L 598 262L 592 262L 586 262L 586 268L 586 274L 580 274L 574 274L 574 286L 574 298L 592 298L 610 298L 610 292L 610 286L 604 286L 598 286L 598 280L 598 274L 604 274L 610 274L 610 280L 610 286L 634 286L 658 286L 658 298L 658 310L 664 310L 670 310L 670 304L 670 298L 676 298L 682 298L 682 304L 682 310L 676 310L 670 310L 670 316L 670 322L 676 322L 682 322L 682 334L 682 346L 676 346L 670 346L 670 334L 670 322L 664 322L 658 322L 658 316L 658 310L 652 310L 646 310L 646 316L 646 322L 634 322L 622 322L 622 316L 622 310L 616 310L 610 310L 610 322L 610 334L 634 334L 658 334L 658 340L 658 346L 640 346L 622 346L 622 352L 622 358L 646 358L 670 358L 670 364L 670 370L 676 370L 682 370L 682 382L 682 394L 676 394L 670 394L 670 382L 670 370L 640 370L 610 370L 610 376L 610 382L 604 382L 598 382L 598 376L 598 370L 604 370L 610 370L 610 364L 610 358L 586 358L 562 358L 562 352L 562 346L 550 346L 538 346L 538 358L 538 370L 544 370L 550 370L 550 382L 550 394L 556 394L 562 394L 562 382L 562 370L 574 370L 586 370L 586 382L 586 394L 592 394L 598 394L 598 400L 598 406L 604 406L 610 406L 610 412L 610 418L 604 418L 598 418L 598 424L 598 430L 622 430L 646 430L 646 436L 646 442L 652 442L 658 442L 658 454L 658 466L 664 466L 670 466L 670 472L 670 478L 652 478L 634 478L 634 484L 634 490L 646 490L 658 490L 658 502L 658 514L 670 514L 682 514L 682 520L 682 526L 688 526L 694 526L 694 532L 694 538L 688 538L 682 538L 682 532L 682 526L 664 526L 646 526L 646 532L 646 538L 658 538L 670 538L 670 544L 670 550L 682 550L 694 550L 694 556L 694 562L 700 562L 706 562L 706 568L 706 574L 700 574L 694 574L 694 568L 694 562L 688 562L 682 562L 682 568L 682 574L 670 574L 658 574L 658 586L 658 598L 664 598L 670 598L 670 604L 670 610L 664 610L 658 610L 658 604L 658 598L 646 598L 634 598L 634 592L 634 586L 628 586L 622 586L 622 592L 622 598L 616 598L 610 598L 610 592L 610 586L 604 586L 598 586L 598 592L 598 598L 592 598L 586 598L 586 610L 586 622L 574 622L 562 622L 562 616L 562 610L 568 610L 574 610L 574 604L 574 598L 562 598L 550 598L 550 592L 550 586L 544 586L 538 586L 538 598L 538 610L 520 610L 502 610L 502 622L 502 634L 496 634L 490 634L 490 622L 490 610L 484 610L 478 610L 478 622L 478 634L 472 634L 466 634L 466 646L 466 658L 472 658L 478 658L 478 664L 478 670L 460 670L 442 670L 442 664L 442 658L 436 658L 430 658L 430 652L 430 646L 436 646L 442 646L 442 640L 442 634L 454 634L 466 634L 466 622L 466 610L 472 610L 478 610L 478 604L 478 598L 466 598L 454 598L 454 604L 454 610L 430 610L 406 610L 406 604L 406 598L 418 598L 430 598L 430 592L 430 586L 424 586L 418 586L 418 580L 418 574L 406 574L 394 574L 394 580L 394 586L 388 586L 382 586L 382 592L 382 598L 388 598L 394 598L 394 604L 394 610L 382 610L 370 610L 370 604L 370 598L 358 598L 346 598L 346 586L 346 574L 340 574L 334 574L 334 580L 334 586L 328 586L 322 586L 322 580L 322 574L 328 574L 334 574L 334 568L 334 562L 340 562L 346 562L 346 568L 346 574L 352 574L 358 574L 358 580L 358 586L 364 586L 370 586L 370 580L 370 574L 382 574L 394 574L 394 568L 394 562L 400 562L 406 562L 406 544L 406 526L 400 526L 394 526L 394 532L 394 538L 388 538L 382 538L 382 532L 382 526L 388 526L 394 526L 394 520L 394 514L 388 514L 382 514L 382 508L 382 502L 370 502L 358 502L 358 496L 358 490L 364 490L 370 490L 370 484L 370 478L 352 478L 334 478L 334 466L 334 454L 346 454L 358 454L 358 448L 358 442L 364 442L 370 442L 370 436L 370 430L 376 430L 382 430L 382 436L 382 442L 394 442L 406 442L 406 448L 406 454L 418 454L 430 454L 430 448L 430 442L 424 442L 418 442L 418 436L 418 430L 424 430L 430 430L 430 412L 430 394L 442 394L 454 394L 454 400L 454 406L 460 406L 466 406L 466 400L 466 394L 472 394L 478 394L 478 388L 478 382L 496 382L 514 382L 514 388L 514 394L 526 394L 538 394L 538 388L 538 382L 532 382L 526 382L 526 376L 526 370L 520 370L 514 370L 514 364L 514 358L 520 358L 526 358L 526 352L 526 346L 520 346L 514 346L 514 340L 514 334L 508 334L 502 334L 502 340L 502 346L 484 346L 466 346L 466 334L 466 322L 460 322L 454 322L 454 316L 454 310L 448 310L 442 310L 442 304L 442 298L 448 298L 454 298L 454 292L 454 286L 448 286L 442 286L 442 274L 442 262L 436 262L 430 262L 430 274L 430 286L 418 286L 406 286L 406 280L 406 274L 400 274L 394 274L 394 280L 394 286L 388 286L 382 286L 382 280L 382 274L 388 274L 394 274L 394 262L 394 250L 418 250L 442 250L 442 256L 442 262L 454 262L 466 262L 466 268L 466 274L 484 274L 502 274L 502 262L 502 250L 508 250L 514 250L 514 256L 514 262L 520 262L 526 262L 526 256L 526 250L 532 250L 538 250L 538 238L 538 226L 526 226L 514 226L 514 220L 514 214L 508 214L 502 214L 502 220L 502 226L 496 226L 490 226L 490 220L 490 214L 496 214L 502 214L 502 208L 502 202L 490 202L 478 202L 478 196L 478 190L 490 190L 502 190L 502 196L 502 202L 508 202L 514 202L 514 196L 514 190L 520 190L 526 190L 526 184L 526 178L 520 178L 514 178L 514 172L 514 166L 508 166L 502 166L 502 172L 502 178L 496 178L 490 178L 490 172L 490 166L 496 166L 502 166L 502 160L 502 154L 508 154L 514 154L 514 160L 514 166L 520 166L 526 166L 526 154L 526 142L 532 142L 538 142L 538 136L 538 130L 544 130L 550 130L 550 124L 550 118L 562 118L 574 118L 574 112L 574 106L 568 106L 562 106L 562 100L 562 94L 574 94L 586 94L 586 100zM 598 208L 598 214L 592 214L 586 214L 586 208L 586 202L 592 202L 598 202L 598 208zM 670 214L 670 226L 676 226L 682 226L 682 232L 682 238L 676 238L 670 238L 670 244L 670 250L 664 250L 658 250L 658 256L 658 262L 664 262L 670 262L 670 268L 670 274L 676 274L 682 274L 682 280L 682 286L 676 286L 670 286L 670 280L 670 274L 652 274L 634 274L 634 268L 634 262L 640 262L 646 262L 646 256L 646 250L 652 250L 658 250L 658 244L 658 238L 664 238L 670 238L 670 232L 670 226L 658 226L 646 226L 646 214L 646 202L 658 202L 670 202L 670 214zM 574 232L 574 238L 568 238L 562 238L 562 232L 562 226L 568 226L 574 226L 574 232zM 610 232L 610 238L 604 238L 598 238L 598 232L 598 226L 604 226L 610 226L 610 232zM 322 316L 322 322L 316 322L 310 322L 310 316L 310 310L 316 310L 322 310L 322 316zM 226 328L 226 334L 220 334L 214 334L 214 328L 214 322L 220 322L 226 322L 226 328zM 262 328L 262 334L 268 334L 274 334L 274 340L 274 346L 268 346L 262 346L 262 340L 262 334L 256 334L 250 334L 250 340L 250 346L 244 346L 238 346L 238 352L 238 358L 244 358L 250 358L 250 370L 250 382L 262 382L 274 382L 274 376L 274 370L 268 370L 262 370L 262 364L 262 358L 286 358L 310 358L 310 364L 310 370L 316 370L 322 370L 322 376L 322 382L 328 382L 334 382L 334 376L 334 370L 346 370L 358 370L 358 364L 358 358L 364 358L 370 358L 370 364L 370 370L 364 370L 358 370L 358 376L 358 382L 364 382L 370 382L 370 400L 370 418L 364 418L 358 418L 358 424L 358 430L 352 430L 346 430L 346 424L 346 418L 352 418L 358 418L 358 412L 358 406L 346 406L 334 406L 334 400L 334 394L 328 394L 322 394L 322 400L 322 406L 316 406L 310 406L 310 412L 310 418L 322 418L 334 418L 334 424L 334 430L 322 430L 310 430L 310 424L 310 418L 304 418L 298 418L 298 412L 298 406L 292 406L 286 406L 286 394L 286 382L 280 382L 274 382L 274 394L 274 406L 268 406L 262 406L 262 418L 262 430L 268 430L 274 430L 274 424L 274 418L 280 418L 286 418L 286 424L 286 430L 280 430L 274 430L 274 436L 274 442L 280 442L 286 442L 286 448L 286 454L 280 454L 274 454L 274 460L 274 466L 268 466L 262 466L 262 472L 262 478L 268 478L 274 478L 274 484L 274 490L 280 490L 286 490L 286 478L 286 466L 292 466L 298 466L 298 454L 298 442L 310 442L 322 442L 322 448L 322 454L 316 454L 310 454L 310 466L 310 478L 304 478L 298 478L 298 484L 298 490L 292 490L 286 490L 286 502L 286 514L 292 514L 298 514L 298 508L 298 502L 310 502L 322 502L 322 496L 322 490L 334 490L 346 490L 346 502L 346 514L 358 514L 370 514L 370 520L 370 526L 352 526L 334 526L 334 514L 334 502L 328 502L 322 502L 322 514L 322 526L 316 526L 310 526L 310 538L 310 550L 298 550L 286 550L 286 556L 286 562L 274 562L 262 562L 262 568L 262 574L 256 574L 250 574L 250 580L 250 586L 256 586L 262 586L 262 592L 262 598L 256 598L 250 598L 250 592L 250 586L 244 586L 238 586L 238 604L 238 622L 220 622L 202 622L 202 628L 202 634L 208 634L 214 634L 214 646L 214 658L 208 658L 202 658L 202 646L 202 634L 196 634L 190 634L 190 628L 190 622L 184 622L 178 622L 178 610L 178 598L 172 598L 166 598L 166 592L 166 586L 160 586L 154 586L 154 580L 154 574L 142 574L 130 574L 130 580L 130 586L 124 586L 118 586L 118 592L 118 598L 112 598L 106 598L 106 592L 106 586L 100 586L 94 586L 94 580L 94 574L 100 574L 106 574L 106 580L 106 586L 112 586L 118 586L 118 580L 118 574L 124 574L 130 574L 130 568L 130 562L 142 562L 154 562L 154 556L 154 550L 160 550L 166 550L 166 544L 166 538L 172 538L 178 538L 178 544L 178 550L 172 550L 166 550L 166 556L 166 562L 172 562L 178 562L 178 568L 178 574L 190 574L 202 574L 202 568L 202 562L 196 562L 190 562L 190 556L 190 550L 196 550L 202 550L 202 556L 202 562L 208 562L 214 562L 214 556L 214 550L 220 550L 226 550L 226 538L 226 526L 220 526L 214 526L 214 520L 214 514L 220 514L 226 514L 226 508L 226 502L 220 502L 214 502L 214 496L 214 490L 220 490L 226 490L 226 484L 226 478L 214 478L 202 478L 202 490L 202 502L 196 502L 190 502L 190 496L 190 490L 184 490L 178 490L 178 484L 178 478L 172 478L 166 478L 166 484L 166 490L 154 490L 142 490L 142 484L 142 478L 154 478L 166 478L 166 472L 166 466L 172 466L 178 466L 178 454L 178 442L 184 442L 190 442L 190 436L 190 430L 196 430L 202 430L 202 418L 202 406L 214 406L 226 406L 226 400L 226 394L 220 394L 214 394L 214 388L 214 382L 208 382L 202 382L 202 388L 202 394L 196 394L 190 394L 190 388L 190 382L 196 382L 202 382L 202 370L 202 358L 208 358L 214 358L 214 352L 214 346L 226 346L 238 346L 238 334L 238 322L 250 322L 262 322L 262 328zM 298 328L 298 334L 304 334L 310 334L 310 340L 310 346L 298 346L 286 346L 286 334L 286 322L 292 322L 298 322L 298 328zM 190 364L 190 370L 184 370L 178 370L 178 364L 178 358L 184 358L 190 358L 190 364zM 502 364L 502 370L 496 370L 490 370L 490 364L 490 358L 496 358L 502 358L 502 364zM 178 400L 178 418L 160 418L 142 418L 142 400L 142 382L 160 382L 178 382L 178 400zM 418 400L 418 418L 400 418L 382 418L 382 400L 382 382L 400 382L 418 382L 418 400zM 658 400L 658 418L 640 418L 622 418L 622 400L 622 382L 640 382L 658 382L 658 400zM 118 412L 118 418L 112 418L 106 418L 106 430L 106 442L 100 442L 94 442L 94 430L 94 418L 100 418L 106 418L 106 412L 106 406L 112 406L 118 406L 118 412zM 682 448L 682 454L 688 454L 694 454L 694 460L 694 466L 688 466L 682 466L 682 460L 682 454L 676 454L 670 454L 670 448L 670 442L 676 442L 682 442L 682 448zM 178 508L 178 514L 190 514L 202 514L 202 526L 202 538L 196 538L 190 538L 190 532L 190 526L 184 526L 178 526L 178 520L 178 514L 160 514L 142 514L 142 508L 142 502L 160 502L 178 502L 178 508zM 370 544L 370 550L 376 550L 382 550L 382 556L 382 562L 376 562L 370 562L 370 556L 370 550L 364 550L 358 550L 358 544L 358 538L 364 538L 370 538L 370 544zM 334 604L 334 610L 346 610L 358 610L 358 616L 358 622L 346 622L 334 622L 334 628L 334 634L 328 634L 322 634L 322 616L 322 598L 328 598L 334 598L 334 604zM 418 640L 418 658L 400 658L 382 658L 382 640L 382 622L 400 622L 418 622L 418 640zM 526 628L 526 634L 520 634L 514 634L 514 628L 514 622L 520 622L 526 622L 526 628zM 658 640L 658 658L 640 658L 622 658L 622 640L 622 622L 640 622L 658 622L 658 640zM 250 640L 250 646L 238 646L 226 646L 226 640L 226 634L 238 634L 250 634L 250 640zM 322 652L 322 658L 316 658L 310 658L 310 652L 310 646L 316 646L 322 646L 322 652zM 406 676L 406 682L 400 682L 394 682L 394 676L 394 670L 400 670L 406 670L 406 676zM 562 688L 562 694L 556 694L 550 694L 550 688L 550 682L 556 682L 562 682L 562 688zM 310 700L 310 706L 304 706L 298 706L 298 700L 298 694L 304 694L 310 694L 310 700zM 334 700L 334 706L 328 706L 322 706L 322 700L 322 694L 328 694L 334 694L 334 700zM 406 700L 406 706L 400 706L 394 706L 394 700L 394 694L 400 694L 406 694L 406 700z"/>
<path style="stroke:none; fill:#000000" d="M 550 136L 550 142L 544 142L 538 142L 538 154L 538 166L 544 166L 550 166L 550 172L 550 178L 562 178L 574 178L 574 166L 574 154L 568 154L 562 154L 562 142L 562 130L 556 130L 550 130L 550 136zM 562 160L 562 166L 556 166L 550 166L 550 160L 550 154L 556 154L 562 154L 562 160z"/>
<path style="stroke:none; fill:#000000" d="M 550 196L 550 202L 556 202L 562 202L 562 196L 562 190L 556 190L 550 190L 550 196z"/>
<path style="stroke:none; fill:#000000" d="M 538 262L 538 274L 556 274L 574 274L 574 268L 574 262L 562 262L 550 262L 550 256L 550 250L 544 250L 538 250L 538 262z"/>
<path style="stroke:none; fill:#000000" d="M 406 268L 406 274L 412 274L 418 274L 418 268L 418 262L 412 262L 406 262L 406 268z"/>
<path style="stroke:none; fill:#000000" d="M 454 280L 454 286L 460 286L 466 286L 466 280L 466 274L 460 274L 454 274L 454 280z"/>
<path style="stroke:none; fill:#000000" d="M 502 280L 502 286L 508 286L 514 286L 514 298L 514 310L 520 310L 526 310L 526 316L 526 322L 520 322L 514 322L 514 328L 514 334L 520 334L 526 334L 526 340L 526 346L 532 346L 538 346L 538 340L 538 334L 532 334L 526 334L 526 328L 526 322L 538 322L 550 322L 550 310L 550 298L 556 298L 562 298L 562 292L 562 286L 556 286L 550 286L 550 292L 550 298L 544 298L 538 298L 538 292L 538 286L 532 286L 526 286L 526 280L 526 274L 514 274L 502 274L 502 280zM 538 304L 538 310L 532 310L 526 310L 526 304L 526 298L 532 298L 538 298L 538 304z"/>
<path style="stroke:none; fill:#000000" d="M 478 304L 478 310L 472 310L 466 310L 466 316L 466 322L 472 322L 478 322L 478 328L 478 334L 484 334L 490 334L 490 328L 490 322L 496 322L 502 322L 502 310L 502 298L 490 298L 478 298L 478 304zM 490 316L 490 322L 484 322L 478 322L 478 316L 478 310L 484 310L 490 310L 490 316z"/>
<path style="stroke:none; fill:#000000" d="M 622 304L 622 310L 634 310L 646 310L 646 304L 646 298L 634 298L 622 298L 622 304z"/>
<path style="stroke:none; fill:#000000" d="M 562 316L 562 322L 568 322L 574 322L 574 334L 574 346L 592 346L 610 346L 610 340L 610 334L 604 334L 598 334L 598 328L 598 322L 586 322L 574 322L 574 316L 574 310L 568 310L 562 310L 562 316z"/>
<path style="stroke:none; fill:#000000" d="M 490 400L 490 406L 484 406L 478 406L 478 412L 478 418L 484 418L 490 418L 490 424L 490 430L 478 430L 466 430L 466 436L 466 442L 460 442L 454 442L 454 424L 454 406L 448 406L 442 406L 442 418L 442 430L 436 430L 430 430L 430 436L 430 442L 442 442L 454 442L 454 448L 454 454L 448 454L 442 454L 442 460L 442 466L 436 466L 430 466L 430 472L 430 478L 436 478L 442 478L 442 484L 442 490L 430 490L 418 490L 418 484L 418 478L 412 478L 406 478L 406 502L 406 526L 412 526L 418 526L 418 514L 418 502L 430 502L 442 502L 442 514L 442 526L 436 526L 430 526L 430 532L 430 538L 424 538L 418 538L 418 544L 418 550L 424 550L 430 550L 430 556L 430 562L 436 562L 442 562L 442 568L 442 574L 436 574L 430 574L 430 580L 430 586L 442 586L 454 586L 454 580L 454 574L 460 574L 466 574L 466 568L 466 562L 472 562L 478 562L 478 556L 478 550L 496 550L 514 550L 514 544L 514 538L 520 538L 526 538L 526 544L 526 550L 532 550L 538 550L 538 556L 538 562L 520 562L 502 562L 502 568L 502 574L 514 574L 526 574L 526 580L 526 586L 532 586L 538 586L 538 574L 538 562L 562 562L 586 562L 586 556L 586 550L 574 550L 562 550L 562 544L 562 538L 550 538L 538 538L 538 526L 538 514L 526 514L 514 514L 514 508L 514 502L 520 502L 526 502L 526 490L 526 478L 538 478L 550 478L 550 472L 550 466L 562 466L 574 466L 574 472L 574 478L 568 478L 562 478L 562 496L 562 514L 568 514L 574 514L 574 526L 574 538L 586 538L 598 538L 598 532L 598 526L 592 526L 586 526L 586 520L 586 514L 604 514L 622 514L 622 520L 622 526L 628 526L 634 526L 634 520L 634 514L 640 514L 646 514L 646 508L 646 502L 640 502L 634 502L 634 496L 634 490L 628 490L 622 490L 622 484L 622 478L 628 478L 634 478L 634 472L 634 466L 640 466L 646 466L 646 460L 646 454L 640 454L 634 454L 634 448L 634 442L 628 442L 622 442L 622 448L 622 454L 610 454L 598 454L 598 460L 598 466L 592 466L 586 466L 586 454L 586 442L 592 442L 598 442L 598 436L 598 430L 592 430L 586 430L 586 424L 586 418L 592 418L 598 418L 598 412L 598 406L 592 406L 586 406L 586 412L 586 418L 580 418L 574 418L 574 406L 574 394L 568 394L 562 394L 562 406L 562 418L 568 418L 574 418L 574 436L 574 454L 562 454L 550 454L 550 448L 550 442L 544 442L 538 442L 538 436L 538 430L 544 430L 550 430L 550 424L 550 418L 544 418L 538 418L 538 424L 538 430L 532 430L 526 430L 526 424L 526 418L 520 418L 514 418L 514 412L 514 406L 508 406L 502 406L 502 400L 502 394L 496 394L 490 394L 490 400zM 502 436L 502 442L 508 442L 514 442L 514 448L 514 454L 520 454L 526 454L 526 448L 526 442L 532 442L 538 442L 538 448L 538 454L 544 454L 550 454L 550 460L 550 466L 526 466L 502 466L 502 472L 502 478L 508 478L 514 478L 514 484L 514 490L 496 490L 478 490L 478 484L 478 478L 472 478L 466 478L 466 484L 466 490L 460 490L 454 490L 454 484L 454 478L 460 478L 466 478L 466 472L 466 466L 472 466L 478 466L 478 460L 478 454L 484 454L 490 454L 490 460L 490 466L 496 466L 502 466L 502 454L 502 442L 496 442L 490 442L 490 436L 490 430L 496 430L 502 430L 502 436zM 610 472L 610 478L 604 478L 598 478L 598 472L 598 466L 604 466L 610 466L 610 472zM 586 484L 586 490L 604 490L 622 490L 622 496L 622 502L 598 502L 574 502L 574 490L 574 478L 580 478L 586 478L 586 484zM 490 508L 490 514L 484 514L 478 514L 478 520L 478 526L 490 526L 502 526L 502 532L 502 538L 490 538L 478 538L 478 544L 478 550L 472 550L 466 550L 466 556L 466 562L 454 562L 442 562L 442 550L 442 538L 460 538L 478 538L 478 532L 478 526L 472 526L 466 526L 466 520L 466 514L 472 514L 478 514L 478 508L 478 502L 484 502L 490 502L 490 508z"/>
<path style="stroke:none; fill:#000000" d="M 538 400L 538 406L 544 406L 550 406L 550 400L 550 394L 544 394L 538 394L 538 400z"/>
<path style="stroke:none; fill:#000000" d="M 382 460L 382 466L 376 466L 370 466L 370 472L 370 478L 376 478L 382 478L 382 484L 382 490L 388 490L 394 490L 394 484L 394 478L 388 478L 382 478L 382 472L 382 466L 388 466L 394 466L 394 460L 394 454L 388 454L 382 454L 382 460z"/>
<path style="stroke:none; fill:#000000" d="M 538 496L 538 502L 544 502L 550 502L 550 496L 550 490L 544 490L 538 490L 538 496z"/>
<path style="stroke:none; fill:#000000" d="M 598 556L 598 562L 604 562L 610 562L 610 568L 610 574L 616 574L 622 574L 622 562L 622 550L 610 550L 598 550L 598 556z"/>
<path style="stroke:none; fill:#000000" d="M 634 568L 634 586L 640 586L 646 586L 646 574L 646 562L 652 562L 658 562L 658 556L 658 550L 646 550L 634 550L 634 568z"/>
<path style="stroke:none; fill:#000000" d="M 562 580L 562 586L 580 586L 598 586L 598 580L 598 574L 580 574L 562 574L 562 580z"/>
<path style="stroke:none; fill:#000000" d="M 478 592L 478 598L 496 598L 514 598L 514 592L 514 586L 496 586L 478 586L 478 592z"/>
<path style="stroke:none; fill:#000000" d="M 442 652L 442 658L 448 658L 454 658L 454 652L 454 646L 448 646L 442 646L 442 652z"/>
<path style="stroke:none; fill:#000000" d="M 214 370L 214 382L 220 382L 226 382L 226 370L 226 358L 220 358L 214 358L 214 370z"/>
<path style="stroke:none; fill:#000000" d="M 238 388L 238 394L 244 394L 250 394L 250 400L 250 406L 256 406L 262 406L 262 400L 262 394L 256 394L 250 394L 250 388L 250 382L 244 382L 238 382L 238 388z"/>
<path style="stroke:none; fill:#000000" d="M 310 388L 310 394L 304 394L 298 394L 298 400L 298 406L 304 406L 310 406L 310 400L 310 394L 316 394L 322 394L 322 388L 322 382L 316 382L 310 382L 310 388z"/>
<path style="stroke:none; fill:#000000" d="M 334 388L 334 394L 346 394L 358 394L 358 388L 358 382L 346 382L 334 382L 334 388z"/>
<path style="stroke:none; fill:#000000" d="M 226 412L 226 418L 220 418L 214 418L 214 424L 214 430L 220 430L 226 430L 226 436L 226 442L 214 442L 202 442L 202 448L 202 454L 196 454L 190 454L 190 460L 190 466L 196 466L 202 466L 202 460L 202 454L 214 454L 226 454L 226 466L 226 478L 232 478L 238 478L 238 484L 238 490L 244 490L 250 490L 250 478L 250 466L 256 466L 262 466L 262 460L 262 454L 268 454L 274 454L 274 448L 274 442L 268 442L 262 442L 262 448L 262 454L 256 454L 250 454L 250 448L 250 442L 244 442L 238 442L 238 436L 238 430L 232 430L 226 430L 226 424L 226 418L 232 418L 238 418L 238 412L 238 406L 232 406L 226 406L 226 412zM 238 448L 238 454L 244 454L 250 454L 250 460L 250 466L 244 466L 238 466L 238 460L 238 454L 232 454L 226 454L 226 448L 226 442L 232 442L 238 442L 238 448z"/>
<path style="stroke:none; fill:#000000" d="M 238 508L 238 514L 244 514L 250 514L 250 526L 250 538L 244 538L 238 538L 238 550L 238 562L 250 562L 262 562L 262 556L 262 550L 274 550L 286 550L 286 544L 286 538L 292 538L 298 538L 298 532L 298 526L 304 526L 310 526L 310 520L 310 514L 304 514L 298 514L 298 520L 298 526L 292 526L 286 526L 286 520L 286 514L 280 514L 274 514L 274 520L 274 526L 268 526L 262 526L 262 514L 262 502L 250 502L 238 502L 238 508zM 286 532L 286 538L 280 538L 274 538L 274 532L 274 526L 280 526L 286 526L 286 532zM 262 544L 262 550L 256 550L 250 550L 250 544L 250 538L 256 538L 262 538L 262 544z"/>
<path style="stroke:none; fill:#000000" d="M 154 568L 154 574L 160 574L 166 574L 166 568L 166 562L 160 562L 154 562L 154 568z"/>
<path style="stroke:none; fill:#000000" d="M 202 580L 202 586L 190 586L 178 586L 178 592L 178 598L 184 598L 190 598L 190 604L 190 610L 196 610L 202 610L 202 598L 202 586L 214 586L 226 586L 226 580L 226 574L 214 574L 202 574L 202 580z"/>
<path style="stroke:none; fill:#000000" d="M 154 400L 154 406L 160 406L 166 406L 166 400L 166 394L 160 394L 154 394L 154 400z"/>
<path style="stroke:none; fill:#000000" d="M 394 400L 394 406L 400 406L 406 406L 406 400L 406 394L 400 394L 394 394L 394 400z"/>
<path style="stroke:none; fill:#000000" d="M 634 400L 634 406L 640 406L 646 406L 646 400L 646 394L 640 394L 634 394L 634 400z"/>
<path style="stroke:none; fill:#000000" d="M 394 640L 394 646L 400 646L 406 646L 406 640L 406 634L 400 634L 394 634L 394 640z"/>
<path style="stroke:none; fill:#000000" d="M 634 640L 634 646L 640 646L 646 646L 646 640L 646 634L 640 634L 634 634L 634 640z"/>
<path style="stroke:none; fill:#000000" d="M 634 124L 634 166L 676 166L 718 166L 718 124L 718 82L 676 82L 634 82L 634 124zM 706 124L 706 154L 676 154L 646 154L 646 124L 646 94L 676 94L 706 94L 706 124z"/>
<path style="stroke:none; fill:#000000" d="M 658 124L 658 142L 676 142L 694 142L 694 124L 694 106L 676 106L 658 106L 658 124z"/>
<path style="stroke:none; fill:#000000" d="M 358 112L 358 118L 364 118L 370 118L 370 112L 370 106L 364 106L 358 106L 358 112z"/>
<path style="stroke:none; fill:#000000" d="M 202 196L 202 202L 214 202L 226 202L 226 196L 226 190L 214 190L 202 190L 202 196z"/>
<path style="stroke:none; fill:#000000" d="M 358 220L 358 226L 364 226L 370 226L 370 232L 370 238L 376 238L 382 238L 382 226L 382 214L 370 214L 358 214L 358 220z"/>
<path style="stroke:none; fill:#000000" d="M 430 220L 430 226L 436 226L 442 226L 442 220L 442 214L 436 214L 430 214L 430 220z"/>
<path style="stroke:none; fill:#000000" d="M 286 280L 286 286L 274 286L 262 286L 262 292L 262 298L 274 298L 286 298L 286 292L 286 286L 298 286L 310 286L 310 280L 310 274L 298 274L 286 274L 286 280z"/>
<path style="stroke:none; fill:#000000" d="M 406 352L 406 358L 412 358L 418 358L 418 352L 418 346L 412 346L 406 346L 406 352z"/>
<path style="stroke:none; fill:#000000" d="M 442 364L 442 370L 448 370L 454 370L 454 364L 454 358L 448 358L 442 358L 442 364z"/>
<path style="stroke:none; fill:#000000" d="M 82 676L 82 718L 124 718L 166 718L 166 676L 166 634L 124 634L 82 634L 82 676zM 154 676L 154 706L 124 706L 94 706L 94 676L 94 646L 124 646L 154 646L 154 676z"/>
<path style="stroke:none; fill:#000000" d="M 106 676L 106 694L 124 694L 142 694L 142 676L 142 658L 124 658L 106 658L 106 676z"/>
<path style="stroke:none; fill:#000000" d="M 490 688L 490 694L 496 694L 502 694L 502 688L 502 682L 496 682L 490 682L 490 688z"/>
<path style="stroke:none; fill:#000000" d="M 250 706L 250 718L 262 718L 274 718L 274 706L 274 694L 262 694L 250 694L 250 706z"/>
<path style="stroke:none; fill:#000000" d="M 502 712L 502 718L 514 718L 526 718L 526 712L 526 706L 514 706L 502 706L 502 712z"/>
</g>
</g>
</svg>