<?xml version="1.0" encoding="UTF-8" standalone="yes"?>
<!-- Created with sK1/UniConvertor (http://sk1project.org/) -->
<svg xmlns="http://www.w3.org/2000/svg" xmlns:xlink="http://www.w3.org/1999/xlink"
  width="800pt" height="800pt" viewBox="0 0 800 800"
  fill-rule="evenodd">
<g>
<g>
<path style="stroke:none; fill:#000000" d="M 64 102.5L 64 141L 102.5 141L 141 141L 141 102.5L 141 64L 102.5 64L 64 64L 64 102.5zM 130 102.5L 130 130L 102.5 130L 75 130L 75 102.5L 75 75L 102.5 75L 130 75L 130 102.5z"/>
<path style="stroke:none; fill:#000000" d="M 86 102.5L 86 119L 102.5 119L 119 119L 119 102.5L 119 86L 102.5 86L 86 86L 86 102.5z"/>
<path style="stroke:none; fill:#000000" d="M 163 75L 163 86L 157.5 86L 152 86L 152 119L 152 152L 157.5 152L 163 152L 163 163L 163 174L 157.5 174L 152 174L 152 168.5L 152 163L 146.5 163L 141 163L 141 157.5L 141 152L 113.5 152L 86 152L 86 157.5L 86 163L 80.5 163L 75 163L 75 157.5L 75 152L 69.5 152L 64 152L 64 168.5L 64 185L 69.5 185L 75 185L 75 190.5L 75 196L 80.5 196L 86 196L 86 190.5L 86 185L 80.5 185L 75 185L 75 179.5L 75 174L 80.5 174L 86 174L 86 168.5L 86 163L 113.5 163L 141 163L 141 168.5L 141 174L 135.5 174L 130 174L 130 179.5L 130 185L 113.5 185L 97 185L 97 196L 97 207L 80.5 207L 64 207L 64 223.5L 64 240L 75 240L 86 240L 86 229L 86 218L 91.5 218L 97 218L 97 223.5L 97 229L 108 229L 119 229L 119 240L 119 251L 130 251L 141 251L 141 256.5L 141 262L 124.5 262L 108 262L 108 251L 108 240L 102.5 240L 97 240L 97 267.5L 97 295L 91.5 295L 86 295L 86 289.5L 86 284L 80.5 284L 75 284L 75 289.5L 75 295L 69.5 295L 64 295L 64 311.5L 64 328L 69.5 328L 75 328L 75 333.5L 75 339L 80.5 339L 86 339L 86 333.5L 86 328L 80.5 328L 75 328L 75 322.5L 75 317L 80.5 317L 86 317L 86 311.5L 86 306L 91.5 306L 97 306L 97 317L 97 328L 102.5 328L 108 328L 108 333.5L 108 339L 102.5 339L 97 339L 97 344.5L 97 350L 91.5 350L 86 350L 86 355.5L 86 361L 80.5 361L 75 361L 75 372L 75 383L 86 383L 97 383L 97 388.5L 97 394L 80.5 394L 64 394L 64 399.5L 64 405L 80.5 405L 97 405L 97 399.5L 97 394L 102.5 394L 108 394L 108 405L 108 416L 102.5 416L 97 416L 97 427L 97 438L 102.5 438L 108 438L 108 443.5L 108 449L 102.5 449L 97 449L 97 454.5L 97 460L 91.5 460L 86 460L 86 471L 86 482L 80.5 482L 75 482L 75 471L 75 460L 69.5 460L 64 460L 64 471L 64 482L 69.5 482L 75 482L 75 493L 75 504L 69.5 504L 64 504L 64 509.5L 64 515L 69.5 515L 75 515L 75 509.5L 75 504L 86 504L 97 504L 97 509.5L 97 515L 91.5 515L 86 515L 86 520.5L 86 526L 75 526L 64 526L 64 531.5L 64 537L 69.5 537L 75 537L 75 548L 75 559L 80.5 559L 86 559L 86 564.5L 86 570L 75 570L 64 570L 64 581L 64 592L 69.5 592L 75 592L 75 586.5L 75 581L 86 581L 97 581L 97 570L 97 559L 102.5 559L 108 559L 108 564.5L 108 570L 113.5 570L 119 570L 119 575.5L 119 581L 113.5 581L 108 581L 108 592L 108 603L 102.5 603L 97 603L 97 608.5L 97 614L 91.5 614L 86 614L 86 619.5L 86 625L 75 625L 64 625L 64 636L 64 647L 86 647L 108 647L 108 641.5L 108 636L 113.5 636L 119 636L 119 630.5L 119 625L 130 625L 141 625L 141 630.5L 141 636L 135.5 636L 130 636L 130 641.5L 130 647L 135.5 647L 141 647L 141 641.5L 141 636L 146.5 636L 152 636L 152 647L 152 658L 157.5 658L 163 658L 163 663.5L 163 669L 157.5 669L 152 669L 152 691L 152 713L 163 713L 174 713L 174 718.5L 174 724L 163 724L 152 724L 152 729.5L 152 735L 163 735L 174 735L 174 729.5L 174 724L 179.5 724L 185 724L 185 718.5L 185 713L 196 713L 207 713L 207 718.5L 207 724L 212.5 724L 218 724L 218 718.5L 218 713L 223.5 713L 229 713L 229 718.5L 229 724L 234.5 724L 240 724L 240 718.5L 240 713L 245.5 713L 251 713L 251 702L 251 691L 234.5 691L 218 691L 218 685.5L 218 680L 212.5 680L 207 680L 207 674.5L 207 669L 223.5 669L 240 669L 240 663.5L 240 658L 245.5 658L 251 658L 251 663.5L 251 669L 256.5 669L 262 669L 262 663.5L 262 658L 273 658L 284 658L 284 652.5L 284 647L 289.5 647L 295 647L 295 641.5L 295 636L 289.5 636L 284 636L 284 630.5L 284 625L 278.5 625L 273 625L 273 619.5L 273 614L 284 614L 295 614L 295 619.5L 295 625L 300.5 625L 306 625L 306 641.5L 306 658L 300.5 658L 295 658L 295 663.5L 295 669L 289.5 669L 284 669L 284 674.5L 284 680L 289.5 680L 295 680L 295 691L 295 702L 289.5 702L 284 702L 284 696.5L 284 691L 278.5 691L 273 691L 273 685.5L 273 680L 267.5 680L 262 680L 262 685.5L 262 691L 267.5 691L 273 691L 273 696.5L 273 702L 278.5 702L 284 702L 284 707.5L 284 713L 295 713L 306 713L 306 696.5L 306 680L 311.5 680L 317 680L 317 696.5L 317 713L 333.5 713L 350 713L 350 718.5L 350 724L 366.5 724L 383 724L 383 729.5L 383 735L 388.5 735L 394 735L 394 729.5L 394 724L 399.5 724L 405 724L 405 729.5L 405 735L 410.5 735L 416 735L 416 729.5L 416 724L 427 724L 438 724L 438 729.5L 438 735L 454.5 735L 471 735L 471 729.5L 471 724L 476.5 724L 482 724L 482 729.5L 482 735L 487.5 735L 493 735L 493 729.5L 493 724L 509.5 724L 526 724L 526 729.5L 526 735L 537 735L 548 735L 548 729.5L 548 724L 553.5 724L 559 724L 559 718.5L 559 713L 570 713L 581 713L 581 707.5L 581 702L 597.5 702L 614 702L 614 707.5L 614 713L 608.5 713L 603 713L 603 718.5L 603 724L 592 724L 581 724L 581 729.5L 581 735L 592 735L 603 735L 603 729.5L 603 724L 608.5 724L 614 724L 614 718.5L 614 713L 619.5 713L 625 713L 625 724L 625 735L 630.5 735L 636 735L 636 724L 636 713L 630.5 713L 625 713L 625 707.5L 625 702L 641.5 702L 658 702L 658 696.5L 658 691L 669 691L 680 691L 680 696.5L 680 702L 674.5 702L 669 702L 669 707.5L 669 713L 658 713L 647 713L 647 718.5L 647 724L 663.5 724L 680 724L 680 729.5L 680 735L 707.5 735L 735 735L 735 696.5L 735 658L 724 658L 713 658L 713 647L 713 636L 718.5 636L 724 636L 724 641.5L 724 647L 729.5 647L 735 647L 735 641.5L 735 636L 729.5 636L 724 636L 724 630.5L 724 625L 729.5 625L 735 625L 735 619.5L 735 614L 729.5 614L 724 614L 724 608.5L 724 603L 729.5 603L 735 603L 735 586.5L 735 570L 729.5 570L 724 570L 724 564.5L 724 559L 729.5 559L 735 559L 735 542.5L 735 526L 724 526L 713 526L 713 537L 713 548L 696.5 548L 680 548L 680 553.5L 680 559L 696.5 559L 713 559L 713 575.5L 713 592L 702 592L 691 592L 691 586.5L 691 581L 696.5 581L 702 581L 702 575.5L 702 570L 696.5 570L 691 570L 691 575.5L 691 581L 680 581L 669 581L 669 564.5L 669 548L 663.5 548L 658 548L 658 559L 658 570L 652.5 570L 647 570L 647 575.5L 647 581L 641.5 581L 636 581L 636 570L 636 559L 641.5 559L 647 559L 647 548L 647 537L 658 537L 669 537L 669 531.5L 669 526L 674.5 526L 680 526L 680 520.5L 680 515L 685.5 515L 691 515L 691 526L 691 537L 696.5 537L 702 537L 702 526L 702 515L 707.5 515L 713 515L 713 509.5L 713 504L 696.5 504L 680 504L 680 493L 680 482L 674.5 482L 669 482L 669 476.5L 669 471L 663.5 471L 658 471L 658 465.5L 658 460L 652.5 460L 647 460L 647 454.5L 647 449L 658 449L 669 449L 669 454.5L 669 460L 674.5 460L 680 460L 680 465.5L 680 471L 691 471L 702 471L 702 476.5L 702 482L 696.5 482L 691 482L 691 487.5L 691 493L 707.5 493L 724 493L 724 504L 724 515L 729.5 515L 735 515L 735 504L 735 493L 729.5 493L 724 493L 724 482L 724 471L 718.5 471L 713 471L 713 465.5L 713 460L 724 460L 735 460L 735 449L 735 438L 718.5 438L 702 438L 702 432.5L 702 427L 707.5 427L 713 427L 713 421.5L 713 416L 718.5 416L 724 416L 724 421.5L 724 427L 729.5 427L 735 427L 735 421.5L 735 416L 729.5 416L 724 416L 724 410.5L 724 405L 729.5 405L 735 405L 735 399.5L 735 394L 718.5 394L 702 394L 702 388.5L 702 383L 707.5 383L 713 383L 713 377.5L 713 372L 718.5 372L 724 372L 724 377.5L 724 383L 729.5 383L 735 383L 735 377.5L 735 372L 729.5 372L 724 372L 724 366.5L 724 361L 729.5 361L 735 361L 735 355.5L 735 350L 729.5 350L 724 350L 724 339L 724 328L 729.5 328L 735 328L 735 317L 735 306L 724 306L 713 306L 713 295L 713 284L 702 284L 691 284L 691 273L 691 262L 696.5 262L 702 262L 702 256.5L 702 251L 713 251L 724 251L 724 256.5L 724 262L 718.5 262L 713 262L 713 267.5L 713 273L 724 273L 735 273L 735 262L 735 251L 729.5 251L 724 251L 724 240L 724 229L 729.5 229L 735 229L 735 223.5L 735 218L 724 218L 713 218L 713 212.5L 713 207L 724 207L 735 207L 735 190.5L 735 174L 729.5 174L 724 174L 724 168.5L 724 163L 718.5 163L 713 163L 713 157.5L 713 152L 685.5 152L 658 152L 658 157.5L 658 163L 652.5 163L 647 163L 647 146.5L 647 130L 641.5 130L 636 130L 636 135.5L 636 141L 630.5 141L 625 141L 625 130L 625 119L 630.5 119L 636 119L 636 113.5L 636 108L 641.5 108L 647 108L 647 86L 647 64L 636 64L 625 64L 625 75L 625 86L 619.5 86L 614 86L 614 80.5L 614 75L 608.5 75L 603 75L 603 69.5L 603 64L 592 64L 581 64L 581 69.5L 581 75L 575.5 75L 570 75L 570 69.5L 570 64L 564.5 64L 559 64L 559 69.5L 559 75L 548 75L 537 75L 537 69.5L 537 64L 515 64L 493 64L 493 69.5L 493 75L 487.5 75L 482 75L 482 80.5L 482 86L 476.5 86L 471 86L 471 80.5L 471 75L 465.5 75L 460 75L 460 69.5L 460 64L 454.5 64L 449 64L 449 69.5L 449 75L 438 75L 427 75L 427 69.5L 427 64L 421.5 64L 416 64L 416 69.5L 416 75L 410.5 75L 405 75L 405 69.5L 405 64L 399.5 64L 394 64L 394 69.5L 394 75L 399.5 75L 405 75L 405 80.5L 405 86L 399.5 86L 394 86L 394 91.5L 394 97L 405 97L 416 97L 416 86L 416 75L 421.5 75L 427 75L 427 91.5L 427 108L 405 108L 383 108L 383 102.5L 383 97L 377.5 97L 372 97L 372 108L 372 119L 366.5 119L 361 119L 361 113.5L 361 108L 355.5 108L 350 108L 350 102.5L 350 97L 328 97L 306 97L 306 91.5L 306 86L 317 86L 328 86L 328 75L 328 64L 317 64L 306 64L 306 75L 306 86L 300.5 86L 295 86L 295 80.5L 295 75L 289.5 75L 284 75L 284 69.5L 284 64L 278.5 64L 273 64L 273 69.5L 273 75L 262 75L 251 75L 251 69.5L 251 64L 234.5 64L 218 64L 218 69.5L 218 75L 229 75L 240 75L 240 80.5L 240 86L 251 86L 262 86L 262 102.5L 262 119L 267.5 119L 273 119L 273 124.5L 273 130L 267.5 130L 262 130L 262 146.5L 262 163L 256.5 163L 251 163L 251 141L 251 119L 245.5 119L 240 119L 240 130L 240 141L 234.5 141L 229 141L 229 124.5L 229 108L 234.5 108L 240 108L 240 102.5L 240 97L 234.5 97L 229 97L 229 102.5L 229 108L 218 108L 207 108L 207 102.5L 207 97L 212.5 97L 218 97L 218 91.5L 218 86L 212.5 86L 207 86L 207 80.5L 207 75L 201.5 75L 196 75L 196 69.5L 196 64L 179.5 64L 163 64L 163 75zM 460 80.5L 460 86L 465.5 86L 471 86L 471 91.5L 471 97L 465.5 97L 460 97L 460 102.5L 460 108L 465.5 108L 471 108L 471 113.5L 471 119L 476.5 119L 482 119L 482 113.5L 482 108L 487.5 108L 493 108L 493 102.5L 493 97L 504 97L 515 97L 515 91.5L 515 86L 520.5 86L 526 86L 526 80.5L 526 75L 531.5 75L 537 75L 537 80.5L 537 86L 542.5 86L 548 86L 548 91.5L 548 97L 553.5 97L 559 97L 559 91.5L 559 86L 570 86L 581 86L 581 102.5L 581 119L 586.5 119L 592 119L 592 130L 592 141L 597.5 141L 603 141L 603 135.5L 603 130L 608.5 130L 614 130L 614 135.5L 614 141L 619.5 141L 625 141L 625 146.5L 625 152L 630.5 152L 636 152L 636 157.5L 636 163L 641.5 163L 647 163L 647 179.5L 647 196L 652.5 196L 658 196L 658 185L 658 174L 663.5 174L 669 174L 669 168.5L 669 163L 691 163L 713 163L 713 179.5L 713 196L 707.5 196L 702 196L 702 212.5L 702 229L 707.5 229L 713 229L 713 234.5L 713 240L 702 240L 691 240L 691 245.5L 691 251L 685.5 251L 680 251L 680 245.5L 680 240L 674.5 240L 669 240L 669 245.5L 669 251L 663.5 251L 658 251L 658 245.5L 658 240L 652.5 240L 647 240L 647 234.5L 647 229L 636 229L 625 229L 625 234.5L 625 240L 630.5 240L 636 240L 636 245.5L 636 251L 641.5 251L 647 251L 647 256.5L 647 262L 658 262L 669 262L 669 267.5L 669 273L 674.5 273L 680 273L 680 278.5L 680 284L 685.5 284L 691 284L 691 289.5L 691 295L 696.5 295L 702 295L 702 300.5L 702 306L 696.5 306L 691 306L 691 311.5L 691 317L 685.5 317L 680 317L 680 322.5L 680 328L 685.5 328L 691 328L 691 333.5L 691 339L 685.5 339L 680 339L 680 333.5L 680 328L 674.5 328L 669 328L 669 333.5L 669 339L 663.5 339L 658 339L 658 333.5L 658 328L 647 328L 636 328L 636 322.5L 636 317L 630.5 317L 625 317L 625 328L 625 339L 636 339L 647 339L 647 344.5L 647 350L 630.5 350L 614 350L 614 339L 614 328L 592 328L 570 328L 570 333.5L 570 339L 575.5 339L 581 339L 581 344.5L 581 350L 586.5 350L 592 350L 592 344.5L 592 339L 597.5 339L 603 339L 603 344.5L 603 350L 597.5 350L 592 350L 592 355.5L 592 361L 597.5 361L 603 361L 603 366.5L 603 372L 581 372L 559 372L 559 377.5L 559 383L 575.5 383L 592 383L 592 388.5L 592 394L 575.5 394L 559 394L 559 399.5L 559 405L 581 405L 603 405L 603 399.5L 603 394L 608.5 394L 614 394L 614 377.5L 614 361L 625 361L 636 361L 636 366.5L 636 372L 630.5 372L 625 372L 625 377.5L 625 383L 630.5 383L 636 383L 636 394L 636 405L 630.5 405L 625 405L 625 410.5L 625 416L 619.5 416L 614 416L 614 410.5L 614 405L 608.5 405L 603 405L 603 410.5L 603 416L 586.5 416L 570 416L 570 421.5L 570 427L 575.5 427L 581 427L 581 432.5L 581 438L 592 438L 603 438L 603 443.5L 603 449L 619.5 449L 636 449L 636 438L 636 427L 641.5 427L 647 427L 647 438L 647 449L 641.5 449L 636 449L 636 454.5L 636 460L 641.5 460L 647 460L 647 465.5L 647 471L 652.5 471L 658 471L 658 482L 658 493L 663.5 493L 669 493L 669 498.5L 669 504L 674.5 504L 680 504L 680 509.5L 680 515L 674.5 515L 669 515L 669 520.5L 669 526L 663.5 526L 658 526L 658 515L 658 504L 652.5 504L 647 504L 647 509.5L 647 515L 641.5 515L 636 515L 636 509.5L 636 504L 630.5 504L 625 504L 625 515L 625 526L 619.5 526L 614 526L 614 515L 614 504L 603 504L 592 504L 592 498.5L 592 493L 597.5 493L 603 493L 603 487.5L 603 482L 608.5 482L 614 482L 614 476.5L 614 471L 608.5 471L 603 471L 603 465.5L 603 460L 592 460L 581 460L 581 465.5L 581 471L 586.5 471L 592 471L 592 476.5L 592 482L 575.5 482L 559 482L 559 487.5L 559 493L 570 493L 581 493L 581 509.5L 581 526L 592 526L 603 526L 603 537L 603 548L 597.5 548L 592 548L 592 542.5L 592 537L 586.5 537L 581 537L 581 548L 581 559L 592 559L 603 559L 603 564.5L 603 570L 608.5 570L 614 570L 614 553.5L 614 537L 625 537L 636 537L 636 542.5L 636 548L 630.5 548L 625 548L 625 559L 625 570L 619.5 570L 614 570L 614 575.5L 614 581L 608.5 581L 603 581L 603 586.5L 603 592L 608.5 592L 614 592L 614 597.5L 614 603L 619.5 603L 625 603L 625 608.5L 625 614L 630.5 614L 636 614L 636 608.5L 636 603L 647 603L 658 603L 658 608.5L 658 614L 647 614L 636 614L 636 625L 636 636L 625 636L 614 636L 614 641.5L 614 647L 625 647L 636 647L 636 652.5L 636 658L 625 658L 614 658L 614 663.5L 614 669L 625 669L 636 669L 636 680L 636 691L 630.5 691L 625 691L 625 696.5L 625 702L 619.5 702L 614 702L 614 685.5L 614 669L 608.5 669L 603 669L 603 674.5L 603 680L 597.5 680L 592 680L 592 674.5L 592 669L 586.5 669L 581 669L 581 663.5L 581 658L 559 658L 537 658L 537 663.5L 537 669L 542.5 669L 548 669L 548 674.5L 548 680L 553.5 680L 559 680L 559 674.5L 559 669L 564.5 669L 570 669L 570 680L 570 691L 575.5 691L 581 691L 581 696.5L 581 702L 570 702L 559 702L 559 707.5L 559 713L 542.5 713L 526 713L 526 707.5L 526 702L 531.5 702L 537 702L 537 696.5L 537 691L 526 691L 515 691L 515 702L 515 713L 504 713L 493 713L 493 707.5L 493 702L 487.5 702L 482 702L 482 707.5L 482 713L 476.5 713L 471 713L 471 718.5L 471 724L 454.5 724L 438 724L 438 718.5L 438 713L 443.5 713L 449 713L 449 707.5L 449 702L 438 702L 427 702L 427 707.5L 427 713L 410.5 713L 394 713L 394 718.5L 394 724L 388.5 724L 383 724L 383 718.5L 383 713L 372 713L 361 713L 361 702L 361 691L 355.5 691L 350 691L 350 696.5L 350 702L 344.5 702L 339 702L 339 696.5L 339 691L 333.5 691L 328 691L 328 685.5L 328 680L 322.5 680L 317 680L 317 669L 317 658L 322.5 658L 328 658L 328 669L 328 680L 333.5 680L 339 680L 339 674.5L 339 669L 344.5 669L 350 669L 350 663.5L 350 658L 344.5 658L 339 658L 339 652.5L 339 647L 328 647L 317 647L 317 641.5L 317 636L 322.5 636L 328 636L 328 630.5L 328 625L 333.5 625L 339 625L 339 614L 339 603L 328 603L 317 603L 317 597.5L 317 592L 311.5 592L 306 592L 306 603L 306 614L 300.5 614L 295 614L 295 608.5L 295 603L 284 603L 273 603L 273 597.5L 273 592L 278.5 592L 284 592L 284 586.5L 284 581L 300.5 581L 317 581L 317 586.5L 317 592L 322.5 592L 328 592L 328 581L 328 570L 333.5 570L 339 570L 339 564.5L 339 559L 333.5 559L 328 559L 328 548L 328 537L 322.5 537L 317 537L 317 526L 317 515L 306 515L 295 515L 295 520.5L 295 526L 289.5 526L 284 526L 284 542.5L 284 559L 289.5 559L 295 559L 295 564.5L 295 570L 289.5 570L 284 570L 284 564.5L 284 559L 278.5 559L 273 559L 273 553.5L 273 548L 267.5 548L 262 548L 262 553.5L 262 559L 256.5 559L 251 559L 251 542.5L 251 526L 245.5 526L 240 526L 240 531.5L 240 537L 229 537L 218 537L 218 531.5L 218 526L 212.5 526L 207 526L 207 520.5L 207 515L 196 515L 185 515L 185 526L 185 537L 190.5 537L 196 537L 196 553.5L 196 570L 207 570L 218 570L 218 564.5L 218 559L 212.5 559L 207 559L 207 553.5L 207 548L 218 548L 229 548L 229 553.5L 229 559L 234.5 559L 240 559L 240 564.5L 240 570L 245.5 570L 251 570L 251 575.5L 251 581L 256.5 581L 262 581L 262 603L 262 625L 251 625L 240 625L 240 630.5L 240 636L 234.5 636L 229 636L 229 641.5L 229 647L 234.5 647L 240 647L 240 652.5L 240 658L 223.5 658L 207 658L 207 652.5L 207 647L 201.5 647L 196 647L 196 663.5L 196 680L 201.5 680L 207 680L 207 685.5L 207 691L 212.5 691L 218 691L 218 696.5L 218 702L 212.5 702L 207 702L 207 696.5L 207 691L 201.5 691L 196 691L 196 685.5L 196 680L 179.5 680L 163 680L 163 674.5L 163 669L 168.5 669L 174 669L 174 658L 174 647L 168.5 647L 163 647L 163 641.5L 163 636L 157.5 636L 152 636L 152 625L 152 614L 135.5 614L 119 614L 119 608.5L 119 603L 130 603L 141 603L 141 597.5L 141 592L 130 592L 119 592L 119 586.5L 119 581L 141 581L 163 581L 163 586.5L 163 592L 157.5 592L 152 592L 152 603L 152 614L 157.5 614L 163 614L 163 608.5L 163 603L 168.5 603L 174 603L 174 586.5L 174 570L 168.5 570L 163 570L 163 564.5L 163 559L 157.5 559L 152 559L 152 564.5L 152 570L 141 570L 130 570L 130 564.5L 130 559L 124.5 559L 119 559L 119 548L 119 537L 113.5 537L 108 537L 108 531.5L 108 526L 102.5 526L 97 526L 97 542.5L 97 559L 91.5 559L 86 559L 86 542.5L 86 526L 91.5 526L 97 526L 97 520.5L 97 515L 102.5 515L 108 515L 108 509.5L 108 504L 102.5 504L 97 504L 97 498.5L 97 493L 91.5 493L 86 493L 86 487.5L 86 482L 91.5 482L 97 482L 97 487.5L 97 493L 102.5 493L 108 493L 108 487.5L 108 482L 113.5 482L 119 482L 119 476.5L 119 471L 130 471L 141 471L 141 465.5L 141 460L 130 460L 119 460L 119 449L 119 438L 124.5 438L 130 438L 130 432.5L 130 427L 141 427L 152 427L 152 432.5L 152 438L 163 438L 174 438L 174 432.5L 174 427L 168.5 427L 163 427L 163 416L 163 405L 168.5 405L 174 405L 174 399.5L 174 394L 168.5 394L 163 394L 163 388.5L 163 383L 168.5 383L 174 383L 174 388.5L 174 394L 179.5 394L 185 394L 185 399.5L 185 405L 190.5 405L 196 405L 196 410.5L 196 416L 207 416L 218 416L 218 410.5L 218 405L 212.5 405L 207 405L 207 394L 207 383L 196 383L 185 383L 185 377.5L 185 372L 174 372L 163 372L 163 366.5L 163 361L 168.5 361L 174 361L 174 355.5L 174 350L 168.5 350L 163 350L 163 339L 163 328L 168.5 328L 174 328L 174 339L 174 350L 179.5 350L 185 350L 185 333.5L 185 317L 190.5 317L 196 317L 196 311.5L 196 306L 190.5 306L 185 306L 185 300.5L 185 295L 196 295L 207 295L 207 289.5L 207 284L 190.5 284L 174 284L 174 289.5L 174 295L 163 295L 152 295L 152 300.5L 152 306L 163 306L 174 306L 174 311.5L 174 317L 157.5 317L 141 317L 141 322.5L 141 328L 124.5 328L 108 328L 108 317L 108 306L 113.5 306L 119 306L 119 311.5L 119 317L 130 317L 141 317L 141 311.5L 141 306L 135.5 306L 130 306L 130 300.5L 130 295L 124.5 295L 119 295L 119 289.5L 119 284L 113.5 284L 108 284L 108 278.5L 108 273L 135.5 273L 163 273L 163 262L 163 251L 168.5 251L 174 251L 174 245.5L 174 240L 185 240L 196 240L 196 234.5L 196 229L 190.5 229L 185 229L 185 223.5L 185 218L 179.5 218L 174 218L 174 223.5L 174 229L 168.5 229L 163 229L 163 218L 163 207L 174 207L 185 207L 185 212.5L 185 218L 190.5 218L 196 218L 196 223.5L 196 229L 201.5 229L 207 229L 207 218L 207 207L 201.5 207L 196 207L 196 179.5L 196 152L 190.5 152L 185 152L 185 157.5L 185 163L 179.5 163L 174 163L 174 157.5L 174 152L 168.5 152L 163 152L 163 141L 163 130L 168.5 130L 174 130L 174 135.5L 174 141L 179.5 141L 185 141L 185 135.5L 185 130L 190.5 130L 196 130L 196 141L 196 152L 201.5 152L 207 152L 207 141L 207 130L 212.5 130L 218 130L 218 141L 218 152L 212.5 152L 207 152L 207 157.5L 207 163L 218 163L 229 163L 229 157.5L 229 152L 234.5 152L 240 152L 240 163L 240 174L 251 174L 262 174L 262 168.5L 262 163L 273 163L 284 163L 284 168.5L 284 174L 295 174L 306 174L 306 168.5L 306 163L 311.5 163L 317 163L 317 146.5L 317 130L 311.5 130L 306 130L 306 135.5L 306 141L 300.5 141L 295 141L 295 135.5L 295 130L 289.5 130L 284 130L 284 135.5L 284 141L 278.5 141L 273 141L 273 135.5L 273 130L 278.5 130L 284 130L 284 124.5L 284 119L 278.5 119L 273 119L 273 108L 273 97L 278.5 97L 284 97L 284 91.5L 284 86L 289.5 86L 295 86L 295 91.5L 295 97L 300.5 97L 306 97L 306 102.5L 306 108L 328 108L 350 108L 350 113.5L 350 119L 355.5 119L 361 119L 361 124.5L 361 130L 366.5 130L 372 130L 372 135.5L 372 141L 366.5 141L 361 141L 361 146.5L 361 152L 366.5 152L 372 152L 372 163L 372 174L 366.5 174L 361 174L 361 168.5L 361 163L 355.5 163L 350 163L 350 168.5L 350 174L 344.5 174L 339 174L 339 179.5L 339 185L 344.5 185L 350 185L 350 190.5L 350 196L 355.5 196L 361 196L 361 190.5L 361 185L 372 185L 383 185L 383 179.5L 383 174L 388.5 174L 394 174L 394 168.5L 394 163L 399.5 163L 405 163L 405 174L 405 185L 399.5 185L 394 185L 394 190.5L 394 196L 405 196L 416 196L 416 185L 416 174L 421.5 174L 427 174L 427 152L 427 130L 432.5 130L 438 130L 438 135.5L 438 141L 443.5 141L 449 141L 449 135.5L 449 130L 454.5 130L 460 130L 460 135.5L 460 141L 465.5 141L 471 141L 471 130L 471 119L 449 119L 427 119L 427 113.5L 427 108L 432.5 108L 438 108L 438 97L 438 86L 443.5 86L 449 86L 449 80.5L 449 75L 454.5 75L 460 75L 460 80.5zM 504 80.5L 504 86L 498.5 86L 493 86L 493 80.5L 493 75L 498.5 75L 504 75L 504 80.5zM 174 91.5L 174 97L 168.5 97L 163 97L 163 91.5L 163 86L 168.5 86L 174 86L 174 91.5zM 196 97L 196 108L 190.5 108L 185 108L 185 97L 185 86L 190.5 86L 196 86L 196 97zM 614 91.5L 614 97L 603 97L 592 97L 592 91.5L 592 86L 603 86L 614 86L 614 91.5zM 636 102.5L 636 108L 630.5 108L 625 108L 625 102.5L 625 97L 630.5 97L 636 97L 636 102.5zM 416 135.5L 416 152L 399.5 152L 383 152L 383 135.5L 383 119L 399.5 119L 416 119L 416 135.5zM 152 179.5L 152 185L 157.5 185L 163 185L 163 179.5L 163 174L 174 174L 185 174L 185 179.5L 185 185L 174 185L 163 185L 163 190.5L 163 196L 146.5 196L 130 196L 130 190.5L 130 185L 135.5 185L 141 185L 141 179.5L 141 174L 146.5 174L 152 174L 152 179.5zM 108 212.5L 108 218L 102.5 218L 97 218L 97 212.5L 97 207L 102.5 207L 108 207L 108 212.5zM 141 212.5L 141 218L 135.5 218L 130 218L 130 212.5L 130 207L 135.5 207L 141 207L 141 212.5zM 141 234.5L 141 240L 146.5 240L 152 240L 152 245.5L 152 251L 146.5 251L 141 251L 141 245.5L 141 240L 135.5 240L 130 240L 130 234.5L 130 229L 135.5 229L 141 229L 141 234.5zM 86 300.5L 86 306L 80.5 306L 75 306L 75 300.5L 75 295L 80.5 295L 86 295L 86 300.5zM 724 322.5L 724 328L 713 328L 702 328L 702 322.5L 702 317L 713 317L 724 317L 724 322.5zM 152 344.5L 152 350L 135.5 350L 119 350L 119 361L 119 372L 113.5 372L 108 372L 108 377.5L 108 383L 102.5 383L 97 383L 97 377.5L 97 372L 102.5 372L 108 372L 108 366.5L 108 361L 102.5 361L 97 361L 97 355.5L 97 350L 102.5 350L 108 350L 108 344.5L 108 339L 130 339L 152 339L 152 344.5zM 713 344.5L 713 350L 707.5 350L 702 350L 702 344.5L 702 339L 707.5 339L 713 339L 713 344.5zM 669 355.5L 669 361L 674.5 361L 680 361L 680 366.5L 680 372L 674.5 372L 669 372L 669 366.5L 669 361L 663.5 361L 658 361L 658 355.5L 658 350L 663.5 350L 669 350L 669 355.5zM 152 366.5L 152 372L 141 372L 130 372L 130 366.5L 130 361L 141 361L 152 361L 152 366.5zM 713 366.5L 713 372L 707.5 372L 702 372L 702 377.5L 702 383L 696.5 383L 691 383L 691 372L 691 361L 702 361L 713 361L 713 366.5zM 152 399.5L 152 416L 135.5 416L 119 416L 119 399.5L 119 383L 135.5 383L 152 383L 152 399.5zM 680 399.5L 680 416L 663.5 416L 647 416L 647 399.5L 647 383L 663.5 383L 680 383L 680 399.5zM 713 410.5L 713 416L 702 416L 691 416L 691 410.5L 691 405L 702 405L 713 405L 713 410.5zM 625 432.5L 625 438L 619.5 438L 614 438L 614 432.5L 614 427L 619.5 427L 625 427L 625 432.5zM 691 432.5L 691 438L 696.5 438L 702 438L 702 443.5L 702 449L 707.5 449L 713 449L 713 454.5L 713 460L 702 460L 691 460L 691 449L 691 438L 685.5 438L 680 438L 680 443.5L 680 449L 674.5 449L 669 449L 669 438L 669 427L 680 427L 691 427L 691 432.5zM 108 465.5L 108 471L 102.5 471L 97 471L 97 465.5L 97 460L 102.5 460L 108 460L 108 465.5zM 306 542.5L 306 548L 311.5 548L 317 548L 317 553.5L 317 559L 311.5 559L 306 559L 306 553.5L 306 548L 300.5 548L 295 548L 295 542.5L 295 537L 300.5 537L 306 537L 306 542.5zM 636 586.5L 636 592L 630.5 592L 625 592L 625 586.5L 625 581L 630.5 581L 636 581L 636 586.5zM 669 586.5L 669 592L 674.5 592L 680 592L 680 597.5L 680 603L 696.5 603L 713 603L 713 597.5L 713 592L 718.5 592L 724 592L 724 597.5L 724 603L 718.5 603L 713 603L 713 619.5L 713 636L 707.5 636L 702 636L 702 630.5L 702 625L 691 625L 680 625L 680 630.5L 680 636L 663.5 636L 647 636L 647 630.5L 647 625L 663.5 625L 680 625L 680 614L 680 603L 674.5 603L 669 603L 669 597.5L 669 592L 658 592L 647 592L 647 586.5L 647 581L 658 581L 669 581L 669 586.5zM 108 630.5L 108 636L 102.5 636L 97 636L 97 630.5L 97 625L 102.5 625L 108 625L 108 630.5zM 284 641.5L 284 647L 278.5 647L 273 647L 273 641.5L 273 636L 278.5 636L 284 636L 284 641.5zM 680 663.5L 680 680L 663.5 680L 647 680L 647 663.5L 647 647L 663.5 647L 680 647L 680 663.5zM 702 663.5L 702 669L 713 669L 724 669L 724 674.5L 724 680L 713 680L 702 680L 702 674.5L 702 669L 696.5 669L 691 669L 691 663.5L 691 658L 696.5 658L 702 658L 702 663.5zM 306 674.5L 306 680L 300.5 680L 295 680L 295 674.5L 295 669L 300.5 669L 306 669L 306 674.5zM 185 696.5L 185 702L 179.5 702L 174 702L 174 696.5L 174 691L 179.5 691L 185 691L 185 696.5zM 702 696.5L 702 702L 696.5 702L 691 702L 691 707.5L 691 713L 702 713L 713 713L 713 702L 713 691L 718.5 691L 724 691L 724 707.5L 724 724L 702 724L 680 724L 680 713L 680 702L 685.5 702L 691 702L 691 696.5L 691 691L 696.5 691L 702 691L 702 696.5z"/>
<path style="stroke:none; fill:#000000" d="M 526 91.5L 526 97L 531.5 97L 537 97L 537 102.5L 537 108L 526 108L 515 108L 515 113.5L 515 119L 526 119L 537 119L 537 124.5L 537 130L 531.5 130L 526 130L 526 135.5L 526 141L 531.5 141L 537 141L 537 146.5L 537 152L 526 152L 515 152L 515 141L 515 130L 509.5 130L 504 130L 504 135.5L 504 141L 498.5 141L 493 141L 493 130L 493 119L 498.5 119L 504 119L 504 113.5L 504 108L 498.5 108L 493 108L 493 113.5L 493 119L 487.5 119L 482 119L 482 130L 482 141L 476.5 141L 471 141L 471 146.5L 471 152L 460 152L 449 152L 449 163L 449 174L 438 174L 427 174L 427 179.5L 427 185L 432.5 185L 438 185L 438 190.5L 438 196L 427 196L 416 196L 416 201.5L 416 207L 405 207L 394 207L 394 212.5L 394 218L 399.5 218L 405 218L 405 223.5L 405 229L 394 229L 383 229L 383 223.5L 383 218L 372 218L 361 218L 361 212.5L 361 207L 355.5 207L 350 207L 350 201.5L 350 196L 333.5 196L 317 196L 317 190.5L 317 185L 322.5 185L 328 185L 328 179.5L 328 174L 333.5 174L 339 174L 339 168.5L 339 163L 344.5 163L 350 163L 350 152L 350 141L 355.5 141L 361 141L 361 135.5L 361 130L 355.5 130L 350 130L 350 124.5L 350 119L 333.5 119L 317 119L 317 124.5L 317 130L 322.5 130L 328 130L 328 135.5L 328 141L 333.5 141L 339 141L 339 146.5L 339 152L 333.5 152L 328 152L 328 157.5L 328 163L 322.5 163L 317 163L 317 174L 317 185L 300.5 185L 284 185L 284 179.5L 284 174L 273 174L 262 174L 262 179.5L 262 185L 273 185L 284 185L 284 190.5L 284 196L 289.5 196L 295 196L 295 201.5L 295 207L 289.5 207L 284 207L 284 218L 284 229L 273 229L 262 229L 262 234.5L 262 240L 267.5 240L 273 240L 273 245.5L 273 251L 267.5 251L 262 251L 262 262L 262 273L 256.5 273L 251 273L 251 278.5L 251 284L 245.5 284L 240 284L 240 278.5L 240 273L 234.5 273L 229 273L 229 262L 229 251L 240 251L 251 251L 251 245.5L 251 240L 245.5 240L 240 240L 240 229L 240 218L 229 218L 218 218L 218 229L 218 240L 207 240L 196 240L 196 245.5L 196 251L 190.5 251L 185 251L 185 262L 185 273L 196 273L 207 273L 207 278.5L 207 284L 218 284L 229 284L 229 295L 229 306L 240 306L 251 306L 251 311.5L 251 317L 234.5 317L 218 317L 218 322.5L 218 328L 229 328L 240 328L 240 333.5L 240 339L 234.5 339L 229 339L 229 344.5L 229 350L 223.5 350L 218 350L 218 344.5L 218 339L 212.5 339L 207 339L 207 333.5L 207 328L 201.5 328L 196 328L 196 333.5L 196 339L 201.5 339L 207 339L 207 344.5L 207 350L 196 350L 185 350L 185 361L 185 372L 190.5 372L 196 372L 196 366.5L 196 361L 212.5 361L 229 361L 229 355.5L 229 350L 234.5 350L 240 350L 240 355.5L 240 361L 245.5 361L 251 361L 251 355.5L 251 350L 256.5 350L 262 350L 262 344.5L 262 339L 267.5 339L 273 339L 273 344.5L 273 350L 278.5 350L 284 350L 284 355.5L 284 361L 278.5 361L 273 361L 273 372L 273 383L 267.5 383L 262 383L 262 377.5L 262 372L 245.5 372L 229 372L 229 383L 229 394L 234.5 394L 240 394L 240 399.5L 240 405L 251 405L 262 405L 262 410.5L 262 416L 251 416L 240 416L 240 421.5L 240 427L 229 427L 218 427L 218 432.5L 218 438L 212.5 438L 207 438L 207 432.5L 207 427L 196 427L 185 427L 185 416L 185 405L 179.5 405L 174 405L 174 416L 174 427L 179.5 427L 185 427L 185 438L 185 449L 190.5 449L 196 449L 196 443.5L 196 438L 201.5 438L 207 438L 207 449L 207 460L 190.5 460L 174 460L 174 454.5L 174 449L 163 449L 152 449L 152 443.5L 152 438L 141 438L 130 438L 130 443.5L 130 449L 135.5 449L 141 449L 141 454.5L 141 460L 146.5 460L 152 460L 152 471L 152 482L 141 482L 130 482L 130 487.5L 130 493L 141 493L 152 493L 152 498.5L 152 504L 157.5 504L 163 504L 163 509.5L 163 515L 174 515L 185 515L 185 504L 185 493L 201.5 493L 218 493L 218 498.5L 218 504L 212.5 504L 207 504L 207 509.5L 207 515L 212.5 515L 218 515L 218 520.5L 218 526L 223.5 526L 229 526L 229 520.5L 229 515L 234.5 515L 240 515L 240 504L 240 493L 256.5 493L 273 493L 273 487.5L 273 482L 278.5 482L 284 482L 284 487.5L 284 493L 289.5 493L 295 493L 295 498.5L 295 504L 300.5 504L 306 504L 306 487.5L 306 471L 311.5 471L 317 471L 317 482L 317 493L 322.5 493L 328 493L 328 509.5L 328 526L 333.5 526L 339 526L 339 531.5L 339 537L 344.5 537L 350 537L 350 531.5L 350 526L 355.5 526L 361 526L 361 531.5L 361 537L 366.5 537L 372 537L 372 542.5L 372 548L 377.5 548L 383 548L 383 553.5L 383 559L 377.5 559L 372 559L 372 564.5L 372 570L 366.5 570L 361 570L 361 564.5L 361 559L 355.5 559L 350 559L 350 553.5L 350 548L 344.5 548L 339 548L 339 553.5L 339 559L 344.5 559L 350 559L 350 564.5L 350 570L 344.5 570L 339 570L 339 575.5L 339 581L 344.5 581L 350 581L 350 586.5L 350 592L 355.5 592L 361 592L 361 586.5L 361 581L 366.5 581L 372 581L 372 575.5L 372 570L 377.5 570L 383 570L 383 564.5L 383 559L 394 559L 405 559L 405 553.5L 405 548L 410.5 548L 416 548L 416 542.5L 416 537L 421.5 537L 427 537L 427 548L 427 559L 443.5 559L 460 559L 460 570L 460 581L 454.5 581L 449 581L 449 575.5L 449 570L 443.5 570L 438 570L 438 575.5L 438 581L 443.5 581L 449 581L 449 586.5L 449 592L 438 592L 427 592L 427 597.5L 427 603L 438 603L 449 603L 449 608.5L 449 614L 432.5 614L 416 614L 416 619.5L 416 625L 410.5 625L 405 625L 405 619.5L 405 614L 399.5 614L 394 614L 394 608.5L 394 603L 405 603L 416 603L 416 592L 416 581L 421.5 581L 427 581L 427 575.5L 427 570L 421.5 570L 416 570L 416 575.5L 416 581L 399.5 581L 383 581L 383 592L 383 603L 377.5 603L 372 603L 372 608.5L 372 614L 366.5 614L 361 614L 361 608.5L 361 603L 355.5 603L 350 603L 350 608.5L 350 614L 355.5 614L 361 614L 361 625L 361 636L 366.5 636L 372 636L 372 641.5L 372 647L 361 647L 350 647L 350 641.5L 350 636L 344.5 636L 339 636L 339 641.5L 339 647L 344.5 647L 350 647L 350 652.5L 350 658L 361 658L 372 658L 372 669L 372 680L 366.5 680L 361 680L 361 674.5L 361 669L 355.5 669L 350 669L 350 674.5L 350 680L 344.5 680L 339 680L 339 685.5L 339 691L 344.5 691L 350 691L 350 685.5L 350 680L 355.5 680L 361 680L 361 685.5L 361 691L 372 691L 383 691L 383 696.5L 383 702L 394 702L 405 702L 405 696.5L 405 691L 410.5 691L 416 691L 416 696.5L 416 702L 421.5 702L 427 702L 427 696.5L 427 691L 438 691L 449 691L 449 696.5L 449 702L 454.5 702L 460 702L 460 707.5L 460 713L 465.5 713L 471 713L 471 702L 471 691L 476.5 691L 482 691L 482 680L 482 669L 493 669L 504 669L 504 674.5L 504 680L 509.5 680L 515 680L 515 674.5L 515 669L 509.5 669L 504 669L 504 663.5L 504 658L 493 658L 482 658L 482 652.5L 482 647L 487.5 647L 493 647L 493 641.5L 493 636L 471 636L 449 636L 449 647L 449 658L 443.5 658L 438 658L 438 652.5L 438 647L 432.5 647L 427 647L 427 641.5L 427 636L 421.5 636L 416 636L 416 630.5L 416 625L 443.5 625L 471 625L 471 619.5L 471 614L 476.5 614L 482 614L 482 619.5L 482 625L 487.5 625L 493 625L 493 619.5L 493 614L 498.5 614L 504 614L 504 625L 504 636L 515 636L 526 636L 526 641.5L 526 647L 520.5 647L 515 647L 515 652.5L 515 658L 526 658L 537 658L 537 652.5L 537 647L 542.5 647L 548 647L 548 641.5L 548 636L 553.5 636L 559 636L 559 641.5L 559 647L 564.5 647L 570 647L 570 636L 570 625L 575.5 625L 581 625L 581 619.5L 581 614L 592 614L 603 614L 603 603L 603 592L 597.5 592L 592 592L 592 581L 592 570L 581 570L 570 570L 570 575.5L 570 581L 575.5 581L 581 581L 581 597.5L 581 614L 570 614L 559 614L 559 608.5L 559 603L 553.5 603L 548 603L 548 597.5L 548 592L 553.5 592L 559 592L 559 575.5L 559 559L 564.5 559L 570 559L 570 548L 570 537L 575.5 537L 581 537L 581 531.5L 581 526L 570 526L 559 526L 559 520.5L 559 515L 564.5 515L 570 515L 570 509.5L 570 504L 564.5 504L 559 504L 559 498.5L 559 493L 553.5 493L 548 493L 548 476.5L 548 460L 564.5 460L 581 460L 581 449L 581 438L 575.5 438L 570 438L 570 432.5L 570 427L 559 427L 548 427L 548 421.5L 548 416L 553.5 416L 559 416L 559 410.5L 559 405L 553.5 405L 548 405L 548 399.5L 548 394L 553.5 394L 559 394L 559 388.5L 559 383L 553.5 383L 548 383L 548 388.5L 548 394L 542.5 394L 537 394L 537 377.5L 537 361L 531.5 361L 526 361L 526 372L 526 383L 520.5 383L 515 383L 515 388.5L 515 394L 526 394L 537 394L 537 399.5L 537 405L 542.5 405L 548 405L 548 410.5L 548 416L 531.5 416L 515 416L 515 410.5L 515 405L 504 405L 493 405L 493 399.5L 493 394L 487.5 394L 482 394L 482 399.5L 482 405L 476.5 405L 471 405L 471 399.5L 471 394L 465.5 394L 460 394L 460 399.5L 460 405L 465.5 405L 471 405L 471 410.5L 471 416L 465.5 416L 460 416L 460 421.5L 460 427L 465.5 427L 471 427L 471 432.5L 471 438L 443.5 438L 416 438L 416 432.5L 416 427L 421.5 427L 427 427L 427 421.5L 427 416L 432.5 416L 438 416L 438 421.5L 438 427L 443.5 427L 449 427L 449 421.5L 449 416L 443.5 416L 438 416L 438 410.5L 438 405L 443.5 405L 449 405L 449 399.5L 449 394L 438 394L 427 394L 427 388.5L 427 383L 454.5 383L 482 383L 482 377.5L 482 372L 487.5 372L 493 372L 493 377.5L 493 383L 498.5 383L 504 383L 504 377.5L 504 372L 509.5 372L 515 372L 515 366.5L 515 361L 509.5 361L 504 361L 504 355.5L 504 350L 520.5 350L 537 350L 537 344.5L 537 339L 542.5 339L 548 339L 548 333.5L 548 328L 559 328L 570 328L 570 322.5L 570 317L 586.5 317L 603 317L 603 311.5L 603 306L 608.5 306L 614 306L 614 311.5L 614 317L 619.5 317L 625 317L 625 311.5L 625 306L 619.5 306L 614 306L 614 300.5L 614 295L 608.5 295L 603 295L 603 289.5L 603 284L 608.5 284L 614 284L 614 278.5L 614 273L 619.5 273L 625 273L 625 267.5L 625 262L 619.5 262L 614 262L 614 256.5L 614 251L 619.5 251L 625 251L 625 245.5L 625 240L 608.5 240L 592 240L 592 229L 592 218L 575.5 218L 559 218L 559 212.5L 559 207L 570 207L 581 207L 581 190.5L 581 174L 597.5 174L 614 174L 614 179.5L 614 185L 619.5 185L 625 185L 625 179.5L 625 174L 619.5 174L 614 174L 614 168.5L 614 163L 619.5 163L 625 163L 625 157.5L 625 152L 603 152L 581 152L 581 163L 581 174L 570 174L 559 174L 559 179.5L 559 185L 531.5 185L 504 185L 504 174L 504 163L 498.5 163L 493 163L 493 168.5L 493 174L 487.5 174L 482 174L 482 157.5L 482 141L 487.5 141L 493 141L 493 146.5L 493 152L 504 152L 515 152L 515 157.5L 515 163L 520.5 163L 526 163L 526 168.5L 526 174L 531.5 174L 537 174L 537 168.5L 537 163L 542.5 163L 548 163L 548 157.5L 548 152L 553.5 152L 559 152L 559 157.5L 559 163L 564.5 163L 570 163L 570 152L 570 141L 575.5 141L 581 141L 581 130L 581 119L 575.5 119L 570 119L 570 130L 570 141L 564.5 141L 559 141L 559 124.5L 559 108L 553.5 108L 548 108L 548 102.5L 548 97L 542.5 97L 537 97L 537 91.5L 537 86L 531.5 86L 526 86L 526 91.5zM 350 135.5L 350 141L 344.5 141L 339 141L 339 135.5L 339 130L 344.5 130L 350 130L 350 135.5zM 548 135.5L 548 141L 542.5 141L 537 141L 537 135.5L 537 130L 542.5 130L 548 130L 548 135.5zM 460 179.5L 460 185L 465.5 185L 471 185L 471 179.5L 471 174L 476.5 174L 482 174L 482 185L 482 196L 504 196L 526 196L 526 201.5L 526 207L 520.5 207L 515 207L 515 212.5L 515 218L 526 218L 537 218L 537 212.5L 537 207L 542.5 207L 548 207L 548 201.5L 548 196L 553.5 196L 559 196L 559 190.5L 559 185L 564.5 185L 570 185L 570 190.5L 570 196L 564.5 196L 559 196L 559 201.5L 559 207L 553.5 207L 548 207L 548 212.5L 548 218L 542.5 218L 537 218L 537 223.5L 537 229L 526 229L 515 229L 515 223.5L 515 218L 509.5 218L 504 218L 504 212.5L 504 207L 498.5 207L 493 207L 493 212.5L 493 218L 487.5 218L 482 218L 482 229L 482 240L 509.5 240L 537 240L 537 245.5L 537 251L 542.5 251L 548 251L 548 245.5L 548 240L 553.5 240L 559 240L 559 234.5L 559 229L 570 229L 581 229L 581 245.5L 581 262L 570 262L 559 262L 559 267.5L 559 273L 553.5 273L 548 273L 548 278.5L 548 284L 553.5 284L 559 284L 559 289.5L 559 295L 564.5 295L 570 295L 570 284L 570 273L 581 273L 592 273L 592 262L 592 251L 597.5 251L 603 251L 603 267.5L 603 284L 592 284L 581 284L 581 289.5L 581 295L 592 295L 603 295L 603 300.5L 603 306L 581 306L 559 306L 559 311.5L 559 317L 553.5 317L 548 317L 548 322.5L 548 328L 531.5 328L 515 328L 515 333.5L 515 339L 509.5 339L 504 339L 504 344.5L 504 350L 493 350L 482 350L 482 355.5L 482 361L 476.5 361L 471 361L 471 366.5L 471 372L 460 372L 449 372L 449 366.5L 449 361L 454.5 361L 460 361L 460 350L 460 339L 465.5 339L 471 339L 471 333.5L 471 328L 460 328L 449 328L 449 339L 449 350L 443.5 350L 438 350L 438 361L 438 372L 427 372L 416 372L 416 361L 416 350L 410.5 350L 405 350L 405 344.5L 405 339L 399.5 339L 394 339L 394 350L 394 361L 388.5 361L 383 361L 383 366.5L 383 372L 377.5 372L 372 372L 372 377.5L 372 383L 361 383L 350 383L 350 388.5L 350 394L 361 394L 372 394L 372 399.5L 372 405L 366.5 405L 361 405L 361 416L 361 427L 366.5 427L 372 427L 372 432.5L 372 438L 366.5 438L 361 438L 361 449L 361 460L 372 460L 383 460L 383 443.5L 383 427L 394 427L 405 427L 405 432.5L 405 438L 410.5 438L 416 438L 416 443.5L 416 449L 454.5 449L 493 449L 493 454.5L 493 460L 504 460L 515 460L 515 454.5L 515 449L 520.5 449L 526 449L 526 443.5L 526 438L 531.5 438L 537 438L 537 443.5L 537 449L 531.5 449L 526 449L 526 460L 526 471L 520.5 471L 515 471L 515 476.5L 515 482L 526 482L 537 482L 537 487.5L 537 493L 542.5 493L 548 493L 548 498.5L 548 504L 553.5 504L 559 504L 559 509.5L 559 515L 553.5 515L 548 515L 548 520.5L 548 526L 553.5 526L 559 526L 559 531.5L 559 537L 553.5 537L 548 537L 548 542.5L 548 548L 553.5 548L 559 548L 559 553.5L 559 559L 553.5 559L 548 559L 548 564.5L 548 570L 542.5 570L 537 570L 537 575.5L 537 581L 542.5 581L 548 581L 548 586.5L 548 592L 537 592L 526 592L 526 581L 526 570L 531.5 570L 537 570L 537 564.5L 537 559L 526 559L 515 559L 515 570L 515 581L 504 581L 493 581L 493 586.5L 493 592L 504 592L 515 592L 515 603L 515 614L 526 614L 537 614L 537 619.5L 537 625L 542.5 625L 548 625L 548 630.5L 548 636L 542.5 636L 537 636L 537 630.5L 537 625L 526 625L 515 625L 515 619.5L 515 614L 509.5 614L 504 614L 504 608.5L 504 603L 498.5 603L 493 603L 493 608.5L 493 614L 487.5 614L 482 614L 482 608.5L 482 603L 476.5 603L 471 603L 471 597.5L 471 592L 465.5 592L 460 592L 460 586.5L 460 581L 465.5 581L 471 581L 471 575.5L 471 570L 476.5 570L 482 570L 482 564.5L 482 559L 476.5 559L 471 559L 471 553.5L 471 548L 454.5 548L 438 548L 438 542.5L 438 537L 432.5 537L 427 537L 427 531.5L 427 526L 421.5 526L 416 526L 416 531.5L 416 537L 410.5 537L 405 537L 405 531.5L 405 526L 394 526L 383 526L 383 520.5L 383 515L 377.5 515L 372 515L 372 520.5L 372 526L 366.5 526L 361 526L 361 520.5L 361 515L 355.5 515L 350 515L 350 520.5L 350 526L 344.5 526L 339 526L 339 520.5L 339 515L 344.5 515L 350 515L 350 509.5L 350 504L 355.5 504L 361 504L 361 498.5L 361 493L 366.5 493L 372 493L 372 498.5L 372 504L 377.5 504L 383 504L 383 509.5L 383 515L 394 515L 405 515L 405 509.5L 405 504L 399.5 504L 394 504L 394 498.5L 394 493L 388.5 493L 383 493L 383 487.5L 383 482L 388.5 482L 394 482L 394 476.5L 394 471L 399.5 471L 405 471L 405 465.5L 405 460L 410.5 460L 416 460L 416 454.5L 416 449L 410.5 449L 405 449L 405 443.5L 405 438L 399.5 438L 394 438L 394 449L 394 460L 388.5 460L 383 460L 383 465.5L 383 471L 377.5 471L 372 471L 372 476.5L 372 482L 366.5 482L 361 482L 361 476.5L 361 471L 355.5 471L 350 471L 350 476.5L 350 482L 344.5 482L 339 482L 339 476.5L 339 471L 333.5 471L 328 471L 328 465.5L 328 460L 333.5 460L 339 460L 339 443.5L 339 427L 328 427L 317 427L 317 438L 317 449L 311.5 449L 306 449L 306 460L 306 471L 300.5 471L 295 471L 295 460L 295 449L 300.5 449L 306 449L 306 443.5L 306 438L 300.5 438L 295 438L 295 432.5L 295 427L 289.5 427L 284 427L 284 432.5L 284 438L 278.5 438L 273 438L 273 443.5L 273 449L 278.5 449L 284 449L 284 460L 284 471L 273 471L 262 471L 262 465.5L 262 460L 267.5 460L 273 460L 273 454.5L 273 449L 262 449L 251 449L 251 460L 251 471L 245.5 471L 240 471L 240 476.5L 240 482L 234.5 482L 229 482L 229 487.5L 229 493L 223.5 493L 218 493L 218 487.5L 218 482L 212.5 482L 207 482L 207 476.5L 207 471L 212.5 471L 218 471L 218 465.5L 218 460L 223.5 460L 229 460L 229 465.5L 229 471L 234.5 471L 240 471L 240 460L 240 449L 229 449L 218 449L 218 443.5L 218 438L 229 438L 240 438L 240 432.5L 240 427L 251 427L 262 427L 262 432.5L 262 438L 267.5 438L 273 438L 273 432.5L 273 427L 278.5 427L 284 427L 284 421.5L 284 416L 300.5 416L 317 416L 317 405L 317 394L 311.5 394L 306 394L 306 388.5L 306 383L 300.5 383L 295 383L 295 377.5L 295 372L 289.5 372L 284 372L 284 366.5L 284 361L 300.5 361L 317 361L 317 355.5L 317 350L 306 350L 295 350L 295 344.5L 295 339L 300.5 339L 306 339L 306 333.5L 306 328L 289.5 328L 273 328L 273 322.5L 273 317L 267.5 317L 262 317L 262 311.5L 262 306L 256.5 306L 251 306L 251 300.5L 251 295L 267.5 295L 284 295L 284 300.5L 284 306L 289.5 306L 295 306L 295 311.5L 295 317L 306 317L 317 317L 317 322.5L 317 328L 322.5 328L 328 328L 328 322.5L 328 317L 333.5 317L 339 317L 339 322.5L 339 328L 333.5 328L 328 328L 328 333.5L 328 339L 333.5 339L 339 339L 339 361L 339 383L 344.5 383L 350 383L 350 372L 350 361L 366.5 361L 383 361L 383 355.5L 383 350L 377.5 350L 372 350L 372 344.5L 372 339L 361 339L 350 339L 350 322.5L 350 306L 344.5 306L 339 306L 339 300.5L 339 295L 333.5 295L 328 295L 328 300.5L 328 306L 317 306L 306 306L 306 300.5L 306 295L 300.5 295L 295 295L 295 289.5L 295 284L 289.5 284L 284 284L 284 278.5L 284 273L 289.5 273L 295 273L 295 278.5L 295 284L 300.5 284L 306 284L 306 273L 306 262L 311.5 262L 317 262L 317 256.5L 317 251L 322.5 251L 328 251L 328 256.5L 328 262L 333.5 262L 339 262L 339 245.5L 339 229L 333.5 229L 328 229L 328 234.5L 328 240L 317 240L 306 240L 306 234.5L 306 229L 317 229L 328 229L 328 223.5L 328 218L 322.5 218L 317 218L 317 212.5L 317 207L 328 207L 339 207L 339 218L 339 229L 344.5 229L 350 229L 350 223.5L 350 218L 355.5 218L 361 218L 361 223.5L 361 229L 372 229L 383 229L 383 234.5L 383 240L 394 240L 405 240L 405 245.5L 405 251L 410.5 251L 416 251L 416 256.5L 416 262L 421.5 262L 427 262L 427 256.5L 427 251L 432.5 251L 438 251L 438 240L 438 229L 443.5 229L 449 229L 449 223.5L 449 218L 438 218L 427 218L 427 223.5L 427 229L 421.5 229L 416 229L 416 223.5L 416 218L 421.5 218L 427 218L 427 212.5L 427 207L 443.5 207L 460 207L 460 218L 460 229L 465.5 229L 471 229L 471 223.5L 471 218L 476.5 218L 482 218L 482 207L 482 196L 471 196L 460 196L 460 190.5L 460 185L 454.5 185L 449 185L 449 179.5L 449 174L 454.5 174L 460 174L 460 179.5zM 295 234.5L 295 240L 289.5 240L 284 240L 284 234.5L 284 229L 289.5 229L 295 229L 295 234.5zM 229 245.5L 229 251L 223.5 251L 218 251L 218 256.5L 218 262L 212.5 262L 207 262L 207 256.5L 207 251L 212.5 251L 218 251L 218 245.5L 218 240L 223.5 240L 229 240L 229 245.5zM 273 278.5L 273 284L 267.5 284L 262 284L 262 278.5L 262 273L 267.5 273L 273 273L 273 278.5zM 251 344.5L 251 350L 245.5 350L 240 350L 240 344.5L 240 339L 245.5 339L 251 339L 251 344.5zM 251 388.5L 251 394L 245.5 394L 240 394L 240 388.5L 240 383L 245.5 383L 251 383L 251 388.5zM 284 394L 284 405L 273 405L 262 405L 262 399.5L 262 394L 267.5 394L 273 394L 273 388.5L 273 383L 278.5 383L 284 383L 284 394zM 416 399.5L 416 416L 399.5 416L 383 416L 383 399.5L 383 383L 399.5 383L 416 383L 416 399.5zM 482 421.5L 482 427L 487.5 427L 493 427L 493 421.5L 493 416L 504 416L 515 416L 515 427L 515 438L 498.5 438L 482 438L 482 432.5L 482 427L 476.5 427L 471 427L 471 421.5L 471 416L 476.5 416L 482 416L 482 421.5zM 174 465.5L 174 471L 185 471L 196 471L 196 476.5L 196 482L 185 482L 174 482L 174 487.5L 174 493L 168.5 493L 163 493L 163 487.5L 163 482L 168.5 482L 174 482L 174 476.5L 174 471L 168.5 471L 163 471L 163 465.5L 163 460L 168.5 460L 174 460L 174 465.5zM 394 619.5L 394 625L 399.5 625L 405 625L 405 630.5L 405 636L 399.5 636L 394 636L 394 630.5L 394 625L 388.5 625L 383 625L 383 619.5L 383 614L 388.5 614L 394 614L 394 619.5zM 416 663.5L 416 680L 399.5 680L 383 680L 383 663.5L 383 647L 399.5 647L 416 647L 416 663.5zM 471 663.5L 471 680L 460 680L 449 680L 449 674.5L 449 669L 454.5 669L 460 669L 460 658L 460 647L 465.5 647L 471 647L 471 663.5zM 438 674.5L 438 680L 432.5 680L 427 680L 427 674.5L 427 669L 432.5 669L 438 669L 438 674.5z"/>
<path style="stroke:none; fill:#000000" d="M 361 245.5L 361 251L 355.5 251L 350 251L 350 262L 350 273L 333.5 273L 317 273L 317 278.5L 317 284L 311.5 284L 306 284L 306 289.5L 306 295L 317 295L 328 295L 328 289.5L 328 284L 333.5 284L 339 284L 339 289.5L 339 295L 344.5 295L 350 295L 350 300.5L 350 306L 355.5 306L 361 306L 361 300.5L 361 295L 355.5 295L 350 295L 350 284L 350 273L 355.5 273L 361 273L 361 262L 361 251L 366.5 251L 372 251L 372 262L 372 273L 377.5 273L 383 273L 383 278.5L 383 284L 399.5 284L 416 284L 416 289.5L 416 295L 410.5 295L 405 295L 405 300.5L 405 306L 399.5 306L 394 306L 394 300.5L 394 295L 383 295L 372 295L 372 306L 372 317L 377.5 317L 383 317L 383 322.5L 383 328L 399.5 328L 416 328L 416 339L 416 350L 421.5 350L 427 350L 427 339L 427 328L 438 328L 449 328L 449 317L 449 306L 438 306L 427 306L 427 300.5L 427 295L 432.5 295L 438 295L 438 289.5L 438 284L 443.5 284L 449 284L 449 289.5L 449 295L 454.5 295L 460 295L 460 306L 460 317L 465.5 317L 471 317L 471 322.5L 471 328L 476.5 328L 482 328L 482 333.5L 482 339L 487.5 339L 493 339L 493 322.5L 493 306L 487.5 306L 482 306L 482 300.5L 482 295L 476.5 295L 471 295L 471 289.5L 471 284L 460 284L 449 284L 449 278.5L 449 273L 460 273L 471 273L 471 267.5L 471 262L 476.5 262L 482 262L 482 267.5L 482 273L 487.5 273L 493 273L 493 278.5L 493 284L 504 284L 515 284L 515 289.5L 515 295L 509.5 295L 504 295L 504 311.5L 504 328L 509.5 328L 515 328L 515 317L 515 306L 531.5 306L 548 306L 548 295L 548 284L 542.5 284L 537 284L 537 278.5L 537 273L 542.5 273L 548 273L 548 267.5L 548 262L 542.5 262L 537 262L 537 256.5L 537 251L 531.5 251L 526 251L 526 256.5L 526 262L 531.5 262L 537 262L 537 267.5L 537 273L 526 273L 515 273L 515 267.5L 515 262L 498.5 262L 482 262L 482 251L 482 240L 471 240L 460 240L 460 251L 460 262L 443.5 262L 427 262L 427 273L 427 284L 421.5 284L 416 284L 416 273L 416 262L 410.5 262L 405 262L 405 256.5L 405 251L 399.5 251L 394 251L 394 256.5L 394 262L 388.5 262L 383 262L 383 256.5L 383 251L 377.5 251L 372 251L 372 245.5L 372 240L 366.5 240L 361 240L 361 245.5zM 405 267.5L 405 273L 399.5 273L 394 273L 394 267.5L 394 262L 399.5 262L 405 262L 405 267.5zM 394 311.5L 394 317L 388.5 317L 383 317L 383 311.5L 383 306L 388.5 306L 394 306L 394 311.5zM 427 317L 427 328L 421.5 328L 416 328L 416 317L 416 306L 421.5 306L 427 306L 427 317zM 482 311.5L 482 317L 476.5 317L 471 317L 471 311.5L 471 306L 476.5 306L 482 306L 482 311.5z"/>
<path style="stroke:none; fill:#000000" d="M 559 245.5L 559 251L 564.5 251L 570 251L 570 245.5L 570 240L 564.5 240L 559 240L 559 245.5z"/>
<path style="stroke:none; fill:#000000" d="M 273 311.5L 273 317L 278.5 317L 284 317L 284 311.5L 284 306L 278.5 306L 273 306L 273 311.5z"/>
<path style="stroke:none; fill:#000000" d="M 317 344.5L 317 350L 322.5 350L 328 350L 328 344.5L 328 339L 322.5 339L 317 339L 317 344.5z"/>
<path style="stroke:none; fill:#000000" d="M 317 366.5L 317 372L 311.5 372L 306 372L 306 377.5L 306 383L 311.5 383L 317 383L 317 388.5L 317 394L 328 394L 339 394L 339 399.5L 339 405L 333.5 405L 328 405L 328 410.5L 328 416L 333.5 416L 339 416L 339 410.5L 339 405L 344.5 405L 350 405L 350 399.5L 350 394L 344.5 394L 339 394L 339 388.5L 339 383L 328 383L 317 383L 317 377.5L 317 372L 322.5 372L 328 372L 328 366.5L 328 361L 322.5 361L 317 361L 317 366.5z"/>
<path style="stroke:none; fill:#000000" d="M 350 432.5L 350 438L 355.5 438L 361 438L 361 432.5L 361 427L 355.5 427L 350 427L 350 432.5z"/>
<path style="stroke:none; fill:#000000" d="M 339 465.5L 339 471L 344.5 471L 350 471L 350 465.5L 350 460L 344.5 460L 339 460L 339 465.5z"/>
<path style="stroke:none; fill:#000000" d="M 449 465.5L 449 471L 460 471L 471 471L 471 476.5L 471 482L 476.5 482L 482 482L 482 487.5L 482 493L 487.5 493L 493 493L 493 498.5L 493 504L 504 504L 515 504L 515 515L 515 526L 498.5 526L 482 526L 482 515L 482 504L 471 504L 460 504L 460 515L 460 526L 449 526L 438 526L 438 531.5L 438 537L 454.5 537L 471 537L 471 531.5L 471 526L 476.5 526L 482 526L 482 531.5L 482 537L 493 537L 504 537L 504 542.5L 504 548L 509.5 548L 515 548L 515 542.5L 515 537L 520.5 537L 526 537L 526 542.5L 526 548L 531.5 548L 537 548L 537 542.5L 537 537L 542.5 537L 548 537L 548 531.5L 548 526L 542.5 526L 537 526L 537 520.5L 537 515L 542.5 515L 548 515L 548 509.5L 548 504L 542.5 504L 537 504L 537 498.5L 537 493L 531.5 493L 526 493L 526 498.5L 526 504L 520.5 504L 515 504L 515 498.5L 515 493L 504 493L 493 493L 493 487.5L 493 482L 498.5 482L 504 482L 504 476.5L 504 471L 498.5 471L 493 471L 493 465.5L 493 460L 471 460L 449 460L 449 465.5zM 493 476.5L 493 482L 487.5 482L 482 482L 482 476.5L 482 471L 487.5 471L 493 471L 493 476.5zM 537 531.5L 537 537L 531.5 537L 526 537L 526 531.5L 526 526L 531.5 526L 537 526L 537 531.5z"/>
<path style="stroke:none; fill:#000000" d="M 405 476.5L 405 482L 399.5 482L 394 482L 394 487.5L 394 493L 399.5 493L 405 493L 405 498.5L 405 504L 410.5 504L 416 504L 416 509.5L 416 515L 410.5 515L 405 515L 405 520.5L 405 526L 410.5 526L 416 526L 416 520.5L 416 515L 421.5 515L 427 515L 427 509.5L 427 504L 432.5 504L 438 504L 438 498.5L 438 493L 449 493L 460 493L 460 487.5L 460 482L 438 482L 416 482L 416 476.5L 416 471L 410.5 471L 405 471L 405 476.5zM 416 487.5L 416 493L 421.5 493L 427 493L 427 498.5L 427 504L 421.5 504L 416 504L 416 498.5L 416 493L 410.5 493L 405 493L 405 487.5L 405 482L 410.5 482L 416 482L 416 487.5z"/>
<path style="stroke:none; fill:#000000" d="M 482 575.5L 482 581L 487.5 581L 493 581L 493 575.5L 493 570L 487.5 570L 482 570L 482 575.5z"/>
<path style="stroke:none; fill:#000000" d="M 394 399.5L 394 405L 399.5 405L 405 405L 405 399.5L 405 394L 399.5 394L 394 394L 394 399.5z"/>
<path style="stroke:none; fill:#000000" d="M 394 663.5L 394 669L 399.5 669L 405 669L 405 663.5L 405 658L 399.5 658L 394 658L 394 663.5z"/>
<path style="stroke:none; fill:#000000" d="M 284 113.5L 284 119L 289.5 119L 295 119L 295 113.5L 295 108L 289.5 108L 284 108L 284 113.5z"/>
<path style="stroke:none; fill:#000000" d="M 207 190.5L 207 207L 212.5 207L 218 207L 218 201.5L 218 196L 229 196L 240 196L 240 201.5L 240 207L 256.5 207L 273 207L 273 201.5L 273 196L 262 196L 251 196L 251 190.5L 251 185L 240 185L 229 185L 229 179.5L 229 174L 218 174L 207 174L 207 190.5z"/>
<path style="stroke:none; fill:#000000" d="M 669 196L 669 207L 663.5 207L 658 207L 658 212.5L 658 218L 663.5 218L 669 218L 669 212.5L 669 207L 674.5 207L 680 207L 680 196L 680 185L 674.5 185L 669 185L 669 196z"/>
<path style="stroke:none; fill:#000000" d="M 592 201.5L 592 207L 597.5 207L 603 207L 603 218L 603 229L 614 229L 625 229L 625 223.5L 625 218L 619.5 218L 614 218L 614 212.5L 614 207L 619.5 207L 625 207L 625 201.5L 625 196L 619.5 196L 614 196L 614 201.5L 614 207L 608.5 207L 603 207L 603 201.5L 603 196L 597.5 196L 592 196L 592 201.5z"/>
<path style="stroke:none; fill:#000000" d="M 636 201.5L 636 207L 641.5 207L 647 207L 647 201.5L 647 196L 641.5 196L 636 196L 636 201.5z"/>
<path style="stroke:none; fill:#000000" d="M 658 234.5L 658 240L 663.5 240L 669 240L 669 234.5L 669 229L 663.5 229L 658 229L 658 234.5z"/>
<path style="stroke:none; fill:#000000" d="M 680 234.5L 680 240L 685.5 240L 691 240L 691 234.5L 691 229L 685.5 229L 680 229L 680 234.5z"/>
<path style="stroke:none; fill:#000000" d="M 647 278.5L 647 284L 641.5 284L 636 284L 636 289.5L 636 295L 641.5 295L 647 295L 647 289.5L 647 284L 658 284L 669 284L 669 289.5L 669 295L 663.5 295L 658 295L 658 300.5L 658 306L 663.5 306L 669 306L 669 300.5L 669 295L 674.5 295L 680 295L 680 289.5L 680 284L 674.5 284L 669 284L 669 278.5L 669 273L 658 273L 647 273L 647 278.5z"/>
<path style="stroke:none; fill:#000000" d="M 130 289.5L 130 295L 141 295L 152 295L 152 289.5L 152 284L 141 284L 130 284L 130 289.5z"/>
<path style="stroke:none; fill:#000000" d="M 636 311.5L 636 317L 641.5 317L 647 317L 647 311.5L 647 306L 641.5 306L 636 306L 636 311.5z"/>
<path style="stroke:none; fill:#000000" d="M 658 322.5L 658 328L 663.5 328L 669 328L 669 322.5L 669 317L 663.5 317L 658 317L 658 322.5z"/>
<path style="stroke:none; fill:#000000" d="M 559 350L 559 361L 553.5 361L 548 361L 548 366.5L 548 372L 553.5 372L 559 372L 559 366.5L 559 361L 570 361L 581 361L 581 355.5L 581 350L 575.5 350L 570 350L 570 344.5L 570 339L 564.5 339L 559 339L 559 350z"/>
<path style="stroke:none; fill:#000000" d="M 207 377.5L 207 383L 212.5 383L 218 383L 218 377.5L 218 372L 212.5 372L 207 372L 207 377.5z"/>
<path style="stroke:none; fill:#000000" d="M 614 399.5L 614 405L 619.5 405L 625 405L 625 399.5L 625 394L 619.5 394L 614 394L 614 399.5z"/>
<path style="stroke:none; fill:#000000" d="M 625 471L 625 482L 619.5 482L 614 482L 614 493L 614 504L 619.5 504L 625 504L 625 498.5L 625 493L 630.5 493L 636 493L 636 498.5L 636 504L 641.5 504L 647 504L 647 498.5L 647 493L 641.5 493L 636 493L 636 487.5L 636 482L 641.5 482L 647 482L 647 476.5L 647 471L 641.5 471L 636 471L 636 465.5L 636 460L 630.5 460L 625 460L 625 471z"/>
<path style="stroke:none; fill:#000000" d="M 130 509.5L 130 515L 119 515L 108 515L 108 520.5L 108 526L 113.5 526L 119 526L 119 531.5L 119 537L 130 537L 141 537L 141 542.5L 141 548L 135.5 548L 130 548L 130 553.5L 130 559L 141 559L 152 559L 152 548L 152 537L 163 537L 174 537L 174 542.5L 174 548L 168.5 548L 163 548L 163 553.5L 163 559L 174 559L 185 559L 185 548L 185 537L 179.5 537L 174 537L 174 531.5L 174 526L 152 526L 130 526L 130 520.5L 130 515L 135.5 515L 141 515L 141 509.5L 141 504L 135.5 504L 130 504L 130 509.5z"/>
<path style="stroke:none; fill:#000000" d="M 262 520.5L 262 526L 267.5 526L 273 526L 273 520.5L 273 515L 267.5 515L 262 515L 262 520.5z"/>
<path style="stroke:none; fill:#000000" d="M 185 575.5L 185 581L 190.5 581L 196 581L 196 575.5L 196 570L 190.5 570L 185 570L 185 575.5z"/>
<path style="stroke:none; fill:#000000" d="M 218 575.5L 218 581L 212.5 581L 207 581L 207 592L 207 603L 196 603L 185 603L 185 608.5L 185 614L 179.5 614L 174 614L 174 619.5L 174 625L 168.5 625L 163 625L 163 630.5L 163 636L 174 636L 185 636L 185 641.5L 185 647L 190.5 647L 196 647L 196 641.5L 196 636L 207 636L 218 636L 218 630.5L 218 625L 207 625L 196 625L 196 619.5L 196 614L 201.5 614L 207 614L 207 608.5L 207 603L 218 603L 229 603L 229 597.5L 229 592L 240 592L 251 592L 251 586.5L 251 581L 240 581L 229 581L 229 575.5L 229 570L 223.5 570L 218 570L 218 575.5z"/>
<path style="stroke:none; fill:#000000" d="M 240 608.5L 240 614L 245.5 614L 251 614L 251 608.5L 251 603L 245.5 603L 240 603L 240 608.5z"/>
<path style="stroke:none; fill:#000000" d="M 614 619.5L 614 625L 619.5 625L 625 625L 625 619.5L 625 614L 619.5 614L 614 614L 614 619.5z"/>
<path style="stroke:none; fill:#000000" d="M 581 641.5L 581 647L 586.5 647L 592 647L 592 658L 592 669L 597.5 669L 603 669L 603 663.5L 603 658L 608.5 658L 614 658L 614 652.5L 614 647L 608.5 647L 603 647L 603 641.5L 603 636L 592 636L 581 636L 581 641.5z"/>
<path style="stroke:none; fill:#000000" d="M 537 685.5L 537 691L 542.5 691L 548 691L 548 696.5L 548 702L 553.5 702L 559 702L 559 696.5L 559 691L 553.5 691L 548 691L 548 685.5L 548 680L 542.5 680L 537 680L 537 685.5z"/>
<path style="stroke:none; fill:#000000" d="M 394 135.5L 394 141L 399.5 141L 405 141L 405 135.5L 405 130L 399.5 130L 394 130L 394 135.5z"/>
<path style="stroke:none; fill:#000000" d="M 130 399.5L 130 405L 135.5 405L 141 405L 141 399.5L 141 394L 135.5 394L 130 394L 130 399.5z"/>
<path style="stroke:none; fill:#000000" d="M 658 399.5L 658 405L 663.5 405L 669 405L 669 399.5L 669 394L 663.5 394L 658 394L 658 399.5z"/>
<path style="stroke:none; fill:#000000" d="M 658 663.5L 658 669L 663.5 669L 669 669L 669 663.5L 669 658L 663.5 658L 658 658L 658 663.5z"/>
<path style="stroke:none; fill:#000000" d="M 350 69.5L 350 75L 355.5 75L 361 75L 361 80.5L 361 86L 366.5 86L 372 86L 372 80.5L 372 75L 366.5 75L 361 75L 361 69.5L 361 64L 355.5 64L 350 64L 350 69.5z"/>
<path style="stroke:none; fill:#000000" d="M 658 102.5L 658 141L 696.5 141L 735 141L 735 102.5L 735 64L 696.5 64L 658 64L 658 102.5zM 724 102.5L 724 130L 696.5 130L 669 130L 669 102.5L 669 75L 696.5 75L 724 75L 724 102.5z"/>
<path style="stroke:none; fill:#000000" d="M 680 102.5L 680 119L 696.5 119L 713 119L 713 102.5L 713 86L 696.5 86L 680 86L 680 102.5z"/>
<path style="stroke:none; fill:#000000" d="M 64 262L 64 273L 75 273L 86 273L 86 262L 86 251L 75 251L 64 251L 64 262z"/>
<path style="stroke:none; fill:#000000" d="M 64 421.5L 64 427L 69.5 427L 75 427L 75 438L 75 449L 80.5 449L 86 449L 86 438L 86 427L 80.5 427L 75 427L 75 421.5L 75 416L 69.5 416L 64 416L 64 421.5z"/>
<path style="stroke:none; fill:#000000" d="M 64 696.5L 64 735L 102.5 735L 141 735L 141 696.5L 141 658L 102.5 658L 64 658L 64 696.5zM 130 696.5L 130 724L 102.5 724L 75 724L 75 696.5L 75 669L 102.5 669L 130 669L 130 696.5z"/>
<path style="stroke:none; fill:#000000" d="M 86 696.5L 86 713L 102.5 713L 119 713L 119 696.5L 119 680L 102.5 680L 86 680L 86 696.5z"/>
<path style="stroke:none; fill:#000000" d="M 262 718.5L 262 724L 267.5 724L 273 724L 273 718.5L 273 713L 267.5 713L 262 713L 262 718.5z"/>
<path style="stroke:none; fill:#000000" d="M 284 729.5L 284 735L 289.5 735L 295 735L 295 729.5L 295 724L 289.5 724L 284 724L 284 729.5z"/>
<path style="stroke:none; fill:#000000" d="M 306 729.5L 306 735L 311.5 735L 317 735L 317 729.5L 317 724L 311.5 724L 306 724L 306 729.5z"/>
</g>
</g>
</svg>