<?xml version="1.0" encoding="UTF-8" standalone="yes"?>
<!-- Created with sK1/UniConvertor (http://sk1project.org/) -->
<svg xmlns="http://www.w3.org/2000/svg" xmlns:xlink="http://www.w3.org/1999/xlink"
  width="800pt" height="800pt" viewBox="0 0 800 800"
  fill-rule="evenodd">
<g>
<g>
<path style="stroke:none; fill:#000000" d="M 82 124L 82 166L 124 166L 166 166L 166 124L 166 82L 124 82L 82 82L 82 124zM 154 124L 154 154L 124 154L 94 154L 94 124L 94 94L 124 94L 154 94L 154 124z"/>
<path style="stroke:none; fill:#000000" d="M 106 124L 106 142L 124 142L 142 142L 142 124L 142 106L 124 106L 106 106L 106 124z"/>
<path style="stroke:none; fill:#000000" d="M 178 100L 178 118L 184 118L 190 118L 190 124L 190 130L 184 130L 178 130L 178 136L 178 142L 190 142L 202 142L 202 154L 202 166L 196 166L 190 166L 190 160L 190 154L 184 154L 178 154L 178 160L 178 166L 184 166L 190 166L 190 172L 190 178L 154 178L 118 178L 118 190L 118 202L 106 202L 94 202L 94 190L 94 178L 88 178L 82 178L 82 196L 82 214L 88 214L 94 214L 94 220L 94 226L 88 226L 82 226L 82 232L 82 238L 88 238L 94 238L 94 232L 94 226L 100 226L 106 226L 106 250L 106 274L 112 274L 118 274L 118 286L 118 298L 112 298L 106 298L 106 292L 106 286L 100 286L 94 286L 94 280L 94 274L 88 274L 82 274L 82 298L 82 322L 88 322L 94 322L 94 316L 94 310L 106 310L 118 310L 118 316L 118 322L 130 322L 142 322L 142 310L 142 298L 148 298L 154 298L 154 304L 154 310L 160 310L 166 310L 166 316L 166 322L 160 322L 154 322L 154 328L 154 334L 148 334L 142 334L 142 340L 142 346L 136 346L 130 346L 130 340L 130 334L 106 334L 82 334L 82 346L 82 358L 88 358L 94 358L 94 352L 94 346L 106 346L 118 346L 118 352L 118 358L 112 358L 106 358L 106 364L 106 370L 112 370L 118 370L 118 376L 118 382L 124 382L 130 382L 130 388L 130 394L 124 394L 118 394L 118 400L 118 406L 106 406L 94 406L 94 388L 94 370L 88 370L 82 370L 82 388L 82 406L 88 406L 94 406L 94 412L 94 418L 100 418L 106 418L 106 424L 106 430L 118 430L 130 430L 130 442L 130 454L 124 454L 118 454L 118 448L 118 442L 112 442L 106 442L 106 448L 106 454L 94 454L 82 454L 82 466L 82 478L 88 478L 94 478L 94 484L 94 490L 100 490L 106 490L 106 496L 106 502L 94 502L 82 502L 82 508L 82 514L 88 514L 94 514L 94 520L 94 526L 88 526L 82 526L 82 532L 82 538L 88 538L 94 538L 94 532L 94 526L 100 526L 106 526L 106 514L 106 502L 112 502L 118 502L 118 520L 118 538L 112 538L 106 538L 106 544L 106 550L 100 550L 94 550L 94 556L 94 562L 88 562L 82 562L 82 580L 82 598L 88 598L 94 598L 94 604L 94 610L 106 610L 118 610L 118 616L 118 622L 124 622L 130 622L 130 616L 130 610L 124 610L 118 610L 118 604L 118 598L 148 598L 178 598L 178 592L 178 586L 184 586L 190 586L 190 580L 190 574L 196 574L 202 574L 202 562L 202 550L 208 550L 214 550L 214 544L 214 538L 220 538L 226 538L 226 550L 226 562L 220 562L 214 562L 214 580L 214 598L 220 598L 226 598L 226 580L 226 562L 232 562L 238 562L 238 556L 238 550L 244 550L 250 550L 250 556L 250 562L 262 562L 274 562L 274 550L 274 538L 280 538L 286 538L 286 532L 286 526L 292 526L 298 526L 298 538L 298 550L 292 550L 286 550L 286 562L 286 574L 274 574L 262 574L 262 580L 262 586L 256 586L 250 586L 250 580L 250 574L 244 574L 238 574L 238 580L 238 586L 244 586L 250 586L 250 592L 250 598L 244 598L 238 598L 238 604L 238 610L 244 610L 250 610L 250 616L 250 622L 256 622L 262 622L 262 628L 262 634L 268 634L 274 634L 274 640L 274 646L 262 646L 250 646L 250 640L 250 634L 244 634L 238 634L 238 652L 238 670L 244 670L 250 670L 250 664L 250 658L 256 658L 262 658L 262 664L 262 670L 274 670L 286 670L 286 676L 286 682L 280 682L 274 682L 274 694L 274 706L 268 706L 262 706L 262 712L 262 718L 280 718L 298 718L 298 712L 298 706L 304 706L 310 706L 310 712L 310 718L 322 718L 334 718L 334 712L 334 706L 328 706L 322 706L 322 700L 322 694L 316 694L 310 694L 310 688L 310 682L 316 682L 322 682L 322 670L 322 658L 328 658L 334 658L 334 652L 334 646L 328 646L 322 646L 322 652L 322 658L 316 658L 310 658L 310 652L 310 646L 304 646L 298 646L 298 652L 298 658L 304 658L 310 658L 310 670L 310 682L 304 682L 298 682L 298 676L 298 670L 292 670L 286 670L 286 646L 286 622L 292 622L 298 622L 298 616L 298 610L 316 610L 334 610L 334 604L 334 598L 346 598L 358 598L 358 604L 358 610L 352 610L 346 610L 346 616L 346 622L 340 622L 334 622L 334 628L 334 634L 340 634L 346 634L 346 640L 346 646L 352 646L 358 646L 358 664L 358 682L 346 682L 334 682L 334 688L 334 694L 346 694L 358 694L 358 688L 358 682L 364 682L 370 682L 370 688L 370 694L 382 694L 394 694L 394 700L 394 706L 382 706L 370 706L 370 712L 370 718L 394 718L 418 718L 418 712L 418 706L 424 706L 430 706L 430 700L 430 694L 436 694L 442 694L 442 706L 442 718L 448 718L 454 718L 454 706L 454 694L 466 694L 478 694L 478 700L 478 706L 472 706L 466 706L 466 712L 466 718L 472 718L 478 718L 478 712L 478 706L 490 706L 502 706L 502 700L 502 694L 496 694L 490 694L 490 682L 490 670L 496 670L 502 670L 502 676L 502 682L 514 682L 526 682L 526 688L 526 694L 532 694L 538 694L 538 700L 538 706L 550 706L 562 706L 562 700L 562 694L 568 694L 574 694L 574 700L 574 706L 580 706L 586 706L 586 712L 586 718L 634 718L 682 718L 682 712L 682 706L 688 706L 694 706L 694 700L 694 694L 700 694L 706 694L 706 700L 706 706L 712 706L 718 706L 718 700L 718 694L 712 694L 706 694L 706 688L 706 682L 712 682L 718 682L 718 664L 718 646L 712 646L 706 646L 706 640L 706 634L 700 634L 694 634L 694 616L 694 598L 700 598L 706 598L 706 604L 706 610L 712 610L 718 610L 718 598L 718 586L 700 586L 682 586L 682 580L 682 574L 670 574L 658 574L 658 580L 658 586L 652 586L 646 586L 646 580L 646 574L 634 574L 622 574L 622 568L 622 562L 616 562L 610 562L 610 556L 610 550L 640 550L 670 550L 670 556L 670 562L 688 562L 706 562L 706 556L 706 550L 712 550L 718 550L 718 532L 718 514L 712 514L 706 514L 706 508L 706 502L 700 502L 694 502L 694 496L 694 490L 700 490L 706 490L 706 472L 706 454L 712 454L 718 454L 718 424L 718 394L 706 394L 694 394L 694 400L 694 406L 682 406L 670 406L 670 400L 670 394L 676 394L 682 394L 682 376L 682 358L 676 358L 670 358L 670 352L 670 346L 676 346L 682 346L 682 340L 682 334L 688 334L 694 334L 694 328L 694 322L 700 322L 706 322L 706 328L 706 334L 712 334L 718 334L 718 328L 718 322L 712 322L 706 322L 706 316L 706 310L 712 310L 718 310L 718 304L 718 298L 712 298L 706 298L 706 304L 706 310L 700 310L 694 310L 694 298L 694 286L 706 286L 718 286L 718 256L 718 226L 712 226L 706 226L 706 220L 706 214L 700 214L 694 214L 694 226L 694 238L 688 238L 682 238L 682 226L 682 214L 676 214L 670 214L 670 220L 670 226L 664 226L 658 226L 658 214L 658 202L 664 202L 670 202L 670 190L 670 178L 664 178L 658 178L 658 184L 658 190L 646 190L 634 190L 634 184L 634 178L 628 178L 622 178L 622 166L 622 154L 616 154L 610 154L 610 160L 610 166L 604 166L 598 166L 598 142L 598 118L 604 118L 610 118L 610 124L 610 130L 616 130L 622 130L 622 124L 622 118L 616 118L 610 118L 610 106L 610 94L 604 94L 598 94L 598 88L 598 82L 586 82L 574 82L 574 88L 574 94L 568 94L 562 94L 562 88L 562 82L 550 82L 538 82L 538 88L 538 94L 532 94L 526 94L 526 88L 526 82L 508 82L 490 82L 490 88L 490 94L 502 94L 514 94L 514 100L 514 106L 520 106L 526 106L 526 112L 526 118L 508 118L 490 118L 490 112L 490 106L 478 106L 466 106L 466 112L 466 118L 460 118L 454 118L 454 112L 454 106L 448 106L 442 106L 442 124L 442 142L 436 142L 430 142L 430 124L 430 106L 424 106L 418 106L 418 100L 418 94L 412 94L 406 94L 406 88L 406 82L 376 82L 346 82L 346 88L 346 94L 352 94L 358 94L 358 100L 358 106L 352 106L 346 106L 346 112L 346 118L 334 118L 322 118L 322 106L 322 94L 328 94L 334 94L 334 88L 334 82L 328 82L 322 82L 322 88L 322 94L 316 94L 310 94L 310 88L 310 82L 304 82L 298 82L 298 88L 298 94L 292 94L 286 94L 286 88L 286 82L 244 82L 202 82L 202 88L 202 94L 196 94L 190 94L 190 88L 190 82L 184 82L 178 82L 178 100zM 226 100L 226 106L 220 106L 214 106L 214 100L 214 94L 220 94L 226 94L 226 100zM 286 100L 286 106L 292 106L 298 106L 298 100L 298 94L 304 94L 310 94L 310 100L 310 106L 304 106L 298 106L 298 118L 298 130L 304 130L 310 130L 310 124L 310 118L 316 118L 322 118L 322 124L 322 130L 334 130L 346 130L 346 148L 346 166L 352 166L 358 166L 358 160L 358 154L 364 154L 370 154L 370 172L 370 190L 364 190L 358 190L 358 196L 358 202L 346 202L 334 202L 334 172L 334 142L 328 142L 322 142L 322 166L 322 190L 310 190L 298 190L 298 196L 298 202L 304 202L 310 202L 310 208L 310 214L 322 214L 334 214L 334 220L 334 226L 340 226L 346 226L 346 244L 346 262L 340 262L 334 262L 334 268L 334 274L 346 274L 358 274L 358 256L 358 238L 364 238L 370 238L 370 232L 370 226L 364 226L 358 226L 358 220L 358 214L 364 214L 370 214L 370 208L 370 202L 388 202L 406 202L 406 196L 406 190L 418 190L 430 190L 430 184L 430 178L 436 178L 442 178L 442 172L 442 166L 436 166L 430 166L 430 160L 430 154L 436 154L 442 154L 442 148L 442 142L 460 142L 478 142L 478 136L 478 130L 490 130L 502 130L 502 142L 502 154L 508 154L 514 154L 514 160L 514 166L 520 166L 526 166L 526 154L 526 142L 520 142L 514 142L 514 136L 514 130L 520 130L 526 130L 526 136L 526 142L 532 142L 538 142L 538 160L 538 178L 544 178L 550 178L 550 166L 550 154L 556 154L 562 154L 562 172L 562 190L 550 190L 538 190L 538 184L 538 178L 514 178L 490 178L 490 184L 490 190L 484 190L 478 190L 478 196L 478 202L 484 202L 490 202L 490 208L 490 214L 496 214L 502 214L 502 208L 502 202L 508 202L 514 202L 514 208L 514 214L 520 214L 526 214L 526 208L 526 202L 568 202L 610 202L 610 208L 610 214L 616 214L 622 214L 622 208L 622 202L 628 202L 634 202L 634 208L 634 214L 628 214L 622 214L 622 220L 622 226L 628 226L 634 226L 634 232L 634 238L 640 238L 646 238L 646 232L 646 226L 652 226L 658 226L 658 232L 658 238L 670 238L 682 238L 682 244L 682 250L 688 250L 694 250L 694 244L 694 238L 700 238L 706 238L 706 250L 706 262L 694 262L 682 262L 682 256L 682 250L 670 250L 658 250L 658 256L 658 262L 664 262L 670 262L 670 268L 670 274L 682 274L 694 274L 694 280L 694 286L 682 286L 670 286L 670 280L 670 274L 658 274L 646 274L 646 280L 646 286L 634 286L 622 286L 622 292L 622 298L 640 298L 658 298L 658 304L 658 310L 664 310L 670 310L 670 304L 670 298L 676 298L 682 298L 682 310L 682 322L 670 322L 658 322L 658 316L 658 310L 652 310L 646 310L 646 316L 646 322L 634 322L 622 322L 622 316L 622 310L 604 310L 586 310L 586 304L 586 298L 580 298L 574 298L 574 292L 574 286L 568 286L 562 286L 562 310L 562 334L 550 334L 538 334L 538 328L 538 322L 526 322L 514 322L 514 328L 514 334L 520 334L 526 334L 526 340L 526 346L 568 346L 610 346L 610 352L 610 358L 622 358L 634 358L 634 364L 634 370L 622 370L 610 370L 610 364L 610 358L 604 358L 598 358L 598 370L 598 382L 604 382L 610 382L 610 388L 610 394L 604 394L 598 394L 598 400L 598 406L 604 406L 610 406L 610 412L 610 418L 604 418L 598 418L 598 424L 598 430L 604 430L 610 430L 610 436L 610 442L 604 442L 598 442L 598 448L 598 454L 604 454L 610 454L 610 460L 610 466L 616 466L 622 466L 622 478L 622 490L 616 490L 610 490L 610 478L 610 466L 604 466L 598 466L 598 472L 598 478L 592 478L 586 478L 586 472L 586 466L 580 466L 574 466L 574 460L 574 454L 568 454L 562 454L 562 466L 562 478L 568 478L 574 478L 574 484L 574 490L 586 490L 598 490L 598 496L 598 502L 586 502L 574 502L 574 508L 574 514L 568 514L 562 514L 562 520L 562 526L 568 526L 574 526L 574 532L 574 538L 568 538L 562 538L 562 532L 562 526L 556 526L 550 526L 550 520L 550 514L 556 514L 562 514L 562 502L 562 490L 556 490L 550 490L 550 496L 550 502L 538 502L 526 502L 526 508L 526 514L 520 514L 514 514L 514 520L 514 526L 508 526L 502 526L 502 532L 502 538L 508 538L 514 538L 514 544L 514 550L 520 550L 526 550L 526 556L 526 562L 520 562L 514 562L 514 568L 514 574L 520 574L 526 574L 526 580L 526 586L 532 586L 538 586L 538 580L 538 574L 544 574L 550 574L 550 568L 550 562L 556 562L 562 562L 562 556L 562 550L 568 550L 574 550L 574 556L 574 562L 580 562L 586 562L 586 574L 586 586L 592 586L 598 586L 598 574L 598 562L 604 562L 610 562L 610 568L 610 574L 616 574L 622 574L 622 580L 622 586L 628 586L 634 586L 634 598L 634 610L 616 610L 598 610L 598 616L 598 622L 604 622L 610 622L 610 640L 610 658L 604 658L 598 658L 598 652L 598 646L 592 646L 586 646L 586 640L 586 634L 580 634L 574 634L 574 646L 574 658L 568 658L 562 658L 562 670L 562 682L 556 682L 550 682L 550 676L 550 670L 544 670L 538 670L 538 676L 538 682L 532 682L 526 682L 526 676L 526 670L 532 670L 538 670L 538 664L 538 658L 526 658L 514 658L 514 664L 514 670L 508 670L 502 670L 502 664L 502 658L 496 658L 490 658L 490 664L 490 670L 484 670L 478 670L 478 658L 478 646L 472 646L 466 646L 466 664L 466 682L 460 682L 454 682L 454 688L 454 694L 448 694L 442 694L 442 688L 442 682L 448 682L 454 682L 454 676L 454 670L 442 670L 430 670L 430 676L 430 682L 418 682L 406 682L 406 676L 406 670L 418 670L 430 670L 430 658L 430 646L 436 646L 442 646L 442 640L 442 634L 454 634L 466 634L 466 628L 466 622L 448 622L 430 622L 430 616L 430 610L 424 610L 418 610L 418 598L 418 586L 424 586L 430 586L 430 580L 430 574L 418 574L 406 574L 406 568L 406 562L 418 562L 430 562L 430 568L 430 574L 436 574L 442 574L 442 580L 442 586L 448 586L 454 586L 454 580L 454 574L 466 574L 478 574L 478 568L 478 562L 472 562L 466 562L 466 556L 466 550L 442 550L 418 550L 418 538L 418 526L 430 526L 442 526L 442 532L 442 538L 448 538L 454 538L 454 526L 454 514L 460 514L 466 514L 466 520L 466 526L 472 526L 478 526L 478 532L 478 538L 472 538L 466 538L 466 544L 466 550L 478 550L 490 550L 490 538L 490 526L 496 526L 502 526L 502 508L 502 490L 508 490L 514 490L 514 496L 514 502L 520 502L 526 502L 526 496L 526 490L 538 490L 550 490L 550 484L 550 478L 544 478L 538 478L 538 472L 538 466L 544 466L 550 466L 550 460L 550 454L 538 454L 526 454L 526 460L 526 466L 514 466L 502 466L 502 472L 502 478L 484 478L 466 478L 466 490L 466 502L 460 502L 454 502L 454 496L 454 490L 448 490L 442 490L 442 484L 442 478L 436 478L 430 478L 430 472L 430 466L 424 466L 418 466L 418 472L 418 478L 412 478L 406 478L 406 472L 406 466L 400 466L 394 466L 394 484L 394 502L 406 502L 418 502L 418 508L 418 514L 406 514L 394 514L 394 520L 394 526L 400 526L 406 526L 406 538L 406 550L 394 550L 382 550L 382 562L 382 574L 388 574L 394 574L 394 580L 394 586L 400 586L 406 586L 406 598L 406 610L 400 610L 394 610L 394 604L 394 598L 388 598L 382 598L 382 604L 382 610L 376 610L 370 610L 370 616L 370 622L 364 622L 358 622L 358 628L 358 634L 352 634L 346 634L 346 628L 346 622L 352 622L 358 622L 358 616L 358 610L 364 610L 370 610L 370 604L 370 598L 376 598L 382 598L 382 592L 382 586L 370 586L 358 586L 358 580L 358 574L 352 574L 346 574L 346 568L 346 562L 352 562L 358 562L 358 550L 358 538L 364 538L 370 538L 370 526L 370 514L 364 514L 358 514L 358 508L 358 502L 346 502L 334 502L 334 514L 334 526L 340 526L 346 526L 346 532L 346 538L 340 538L 334 538L 334 544L 334 550L 322 550L 310 550L 310 556L 310 562L 316 562L 322 562L 322 574L 322 586L 328 586L 334 586L 334 592L 334 598L 316 598L 298 598L 298 604L 298 610L 286 610L 274 610L 274 616L 274 622L 268 622L 262 622L 262 610L 262 598L 274 598L 286 598L 286 586L 286 574L 298 574L 310 574L 310 568L 310 562L 304 562L 298 562L 298 556L 298 550L 304 550L 310 550L 310 538L 310 526L 304 526L 298 526L 298 520L 298 514L 292 514L 286 514L 286 520L 286 526L 280 526L 274 526L 274 502L 274 478L 286 478L 298 478L 298 472L 298 466L 292 466L 286 466L 286 460L 286 454L 280 454L 274 454L 274 436L 274 418L 262 418L 250 418L 250 412L 250 406L 238 406L 226 406L 226 424L 226 442L 232 442L 238 442L 238 448L 238 454L 244 454L 250 454L 250 442L 250 430L 256 430L 262 430L 262 466L 262 502L 256 502L 250 502L 250 496L 250 490L 244 490L 238 490L 238 496L 238 502L 226 502L 214 502L 214 520L 214 538L 208 538L 202 538L 202 544L 202 550L 196 550L 190 550L 190 562L 190 574L 178 574L 166 574L 166 580L 166 586L 154 586L 142 586L 142 562L 142 538L 136 538L 130 538L 130 556L 130 574L 124 574L 118 574L 118 568L 118 562L 112 562L 106 562L 106 568L 106 574L 100 574L 94 574L 94 568L 94 562L 100 562L 106 562L 106 556L 106 550L 112 550L 118 550L 118 544L 118 538L 124 538L 130 538L 130 520L 130 502L 124 502L 118 502L 118 496L 118 490L 112 490L 106 490L 106 484L 106 478L 100 478L 94 478L 94 472L 94 466L 112 466L 130 466L 130 460L 130 454L 136 454L 142 454L 142 448L 142 442L 148 442L 154 442L 154 436L 154 430L 166 430L 178 430L 178 436L 178 442L 184 442L 190 442L 190 436L 190 430L 196 430L 202 430L 202 424L 202 418L 196 418L 190 418L 190 406L 190 394L 214 394L 238 394L 238 388L 238 382L 232 382L 226 382L 226 376L 226 370L 232 370L 238 370L 238 376L 238 382L 244 382L 250 382L 250 370L 250 358L 256 358L 262 358L 262 352L 262 346L 256 346L 250 346L 250 340L 250 334L 238 334L 226 334L 226 322L 226 310L 214 310L 202 310L 202 304L 202 298L 208 298L 214 298L 214 292L 214 286L 220 286L 226 286L 226 298L 226 310L 232 310L 238 310L 238 316L 238 322L 250 322L 262 322L 262 334L 262 346L 268 346L 274 346L 274 352L 274 358L 268 358L 262 358L 262 364L 262 370L 274 370L 286 370L 286 376L 286 382L 280 382L 274 382L 274 400L 274 418L 280 418L 286 418L 286 406L 286 394L 292 394L 298 394L 298 388L 298 382L 304 382L 310 382L 310 376L 310 370L 304 370L 298 370L 298 358L 298 346L 292 346L 286 346L 286 334L 286 322L 292 322L 298 322L 298 316L 298 310L 292 310L 286 310L 286 304L 286 298L 280 298L 274 298L 274 304L 274 310L 262 310L 250 310L 250 298L 250 286L 244 286L 238 286L 238 268L 238 250L 256 250L 274 250L 274 268L 274 286L 280 286L 286 286L 286 280L 286 274L 292 274L 298 274L 298 268L 298 262L 304 262L 310 262L 310 256L 310 250L 298 250L 286 250L 286 232L 286 214L 280 214L 274 214L 274 220L 274 226L 268 226L 262 226L 262 220L 262 214L 256 214L 250 214L 250 220L 250 226L 244 226L 238 226L 238 232L 238 238L 226 238L 214 238L 214 244L 214 250L 220 250L 226 250L 226 256L 226 262L 196 262L 166 262L 166 268L 166 274L 172 274L 178 274L 178 280L 178 286L 172 286L 166 286L 166 292L 166 298L 160 298L 154 298L 154 292L 154 286L 148 286L 142 286L 142 292L 142 298L 136 298L 130 298L 130 304L 130 310L 124 310L 118 310L 118 304L 118 298L 124 298L 130 298L 130 280L 130 262L 124 262L 118 262L 118 256L 118 250L 124 250L 130 250L 130 256L 130 262L 136 262L 142 262L 142 256L 142 250L 148 250L 154 250L 154 244L 154 238L 166 238L 178 238L 178 220L 178 202L 160 202L 142 202L 142 196L 142 190L 166 190L 190 190L 190 184L 190 178L 196 178L 202 178L 202 184L 202 190L 208 190L 214 190L 214 184L 214 178L 220 178L 226 178L 226 184L 226 190L 232 190L 238 190L 238 196L 238 202L 250 202L 262 202L 262 208L 262 214L 268 214L 274 214L 274 202L 274 190L 262 190L 250 190L 250 184L 250 178L 256 178L 262 178L 262 160L 262 142L 268 142L 274 142L 274 136L 274 130L 268 130L 262 130L 262 124L 262 118L 268 118L 274 118L 274 112L 274 106L 268 106L 262 106L 262 100L 262 94L 274 94L 286 94L 286 100zM 394 100L 394 106L 406 106L 418 106L 418 118L 418 130L 412 130L 406 130L 406 124L 406 118L 400 118L 394 118L 394 112L 394 106L 388 106L 382 106L 382 100L 382 94L 388 94L 394 94L 394 100zM 550 112L 550 130L 544 130L 538 130L 538 112L 538 94L 544 94L 550 94L 550 112zM 586 100L 586 106L 592 106L 598 106L 598 112L 598 118L 580 118L 562 118L 562 112L 562 106L 568 106L 574 106L 574 100L 574 94L 580 94L 586 94L 586 100zM 250 112L 250 118L 244 118L 238 118L 238 112L 238 106L 244 106L 250 106L 250 112zM 370 112L 370 118L 376 118L 382 118L 382 124L 382 130L 376 130L 370 130L 370 136L 370 142L 364 142L 358 142L 358 124L 358 106L 364 106L 370 106L 370 112zM 226 130L 226 142L 232 142L 238 142L 238 136L 238 130L 244 130L 250 130L 250 148L 250 166L 244 166L 238 166L 238 160L 238 154L 232 154L 226 154L 226 160L 226 166L 220 166L 214 166L 214 160L 214 154L 220 154L 226 154L 226 148L 226 142L 220 142L 214 142L 214 130L 214 118L 220 118L 226 118L 226 130zM 586 136L 586 142L 574 142L 562 142L 562 136L 562 130L 574 130L 586 130L 586 136zM 418 160L 418 178L 400 178L 382 178L 382 160L 382 142L 400 142L 418 142L 418 160zM 586 160L 586 166L 592 166L 598 166L 598 172L 598 178L 586 178L 574 178L 574 166L 574 154L 580 154L 586 154L 586 160zM 130 208L 130 214L 148 214L 166 214L 166 220L 166 226L 148 226L 130 226L 130 232L 130 238L 124 238L 118 238L 118 232L 118 226L 124 226L 130 226L 130 220L 130 214L 124 214L 118 214L 118 208L 118 202L 124 202L 130 202L 130 208zM 202 280L 202 286L 196 286L 190 286L 190 280L 190 274L 196 274L 202 274L 202 280zM 190 322L 190 334L 184 334L 178 334L 178 340L 178 346L 190 346L 202 346L 202 358L 202 370L 208 370L 214 370L 214 376L 214 382L 208 382L 202 382L 202 376L 202 370L 178 370L 154 370L 154 364L 154 358L 160 358L 166 358L 166 352L 166 346L 160 346L 154 346L 154 340L 154 334L 166 334L 178 334L 178 322L 178 310L 184 310L 190 310L 190 322zM 214 328L 214 334L 208 334L 202 334L 202 328L 202 322L 208 322L 214 322L 214 328zM 586 328L 586 334L 580 334L 574 334L 574 328L 574 322L 580 322L 586 322L 586 328zM 658 352L 658 358L 664 358L 670 358L 670 364L 670 370L 664 370L 658 370L 658 364L 658 358L 652 358L 646 358L 646 352L 646 346L 652 346L 658 346L 658 352zM 178 400L 178 418L 160 418L 142 418L 142 400L 142 382L 160 382L 178 382L 178 400zM 658 400L 658 418L 640 418L 622 418L 622 400L 622 382L 640 382L 658 382L 658 400zM 130 412L 130 418L 124 418L 118 418L 118 412L 118 406L 124 406L 130 406L 130 412zM 706 430L 706 454L 700 454L 694 454L 694 448L 694 442L 688 442L 682 442L 682 460L 682 478L 688 478L 694 478L 694 484L 694 490L 682 490L 670 490L 670 484L 670 478L 658 478L 646 478L 646 496L 646 514L 640 514L 634 514L 634 520L 634 526L 640 526L 646 526L 646 532L 646 538L 634 538L 622 538L 622 532L 622 526L 616 526L 610 526L 610 520L 610 514L 616 514L 622 514L 622 508L 622 502L 628 502L 634 502L 634 490L 634 478L 640 478L 646 478L 646 454L 646 430L 652 430L 658 430L 658 436L 658 442L 664 442L 670 442L 670 430L 670 418L 676 418L 682 418L 682 424L 682 430L 688 430L 694 430L 694 418L 694 406L 700 406L 706 406L 706 430zM 634 448L 634 454L 628 454L 622 454L 622 448L 622 442L 628 442L 634 442L 634 448zM 442 508L 442 514L 436 514L 430 514L 430 508L 430 502L 436 502L 442 502L 442 508zM 694 514L 694 526L 700 526L 706 526L 706 538L 706 550L 688 550L 670 550L 670 538L 670 526L 664 526L 658 526L 658 520L 658 514L 670 514L 682 514L 682 508L 682 502L 688 502L 694 502L 694 514zM 238 520L 238 526L 244 526L 250 526L 250 520L 250 514L 256 514L 262 514L 262 520L 262 526L 256 526L 250 526L 250 532L 250 538L 244 538L 238 538L 238 532L 238 526L 232 526L 226 526L 226 520L 226 514L 232 514L 238 514L 238 520zM 598 520L 598 526L 592 526L 586 526L 586 520L 586 514L 592 514L 598 514L 598 520zM 538 532L 538 538L 532 538L 526 538L 526 532L 526 526L 532 526L 538 526L 538 532zM 610 544L 610 550L 598 550L 586 550L 586 544L 586 538L 598 538L 610 538L 610 544zM 118 592L 118 598L 112 598L 106 598L 106 592L 106 586L 112 586L 118 586L 118 592zM 670 592L 670 598L 676 598L 682 598L 682 604L 682 610L 670 610L 658 610L 658 598L 658 586L 664 586L 670 586L 670 592zM 418 640L 418 658L 400 658L 382 658L 382 640L 382 622L 400 622L 418 622L 418 640zM 658 640L 658 658L 640 658L 622 658L 622 640L 622 622L 640 622L 658 622L 658 640zM 682 628L 682 634L 676 634L 670 634L 670 628L 670 622L 676 622L 682 622L 682 628zM 706 664L 706 682L 700 682L 694 682L 694 676L 694 670L 688 670L 682 670L 682 664L 682 658L 676 658L 670 658L 670 652L 670 646L 688 646L 706 646L 706 664zM 394 676L 394 682L 388 682L 382 682L 382 676L 382 670L 388 670L 394 670L 394 676zM 634 682L 634 694L 622 694L 610 694L 610 700L 610 706L 604 706L 598 706L 598 700L 598 694L 586 694L 574 694L 574 688L 574 682L 592 682L 610 682L 610 676L 610 670L 622 670L 634 670L 634 682zM 670 676L 670 682L 676 682L 682 682L 682 688L 682 694L 676 694L 670 694L 670 700L 670 706L 664 706L 658 706L 658 700L 658 694L 664 694L 670 694L 670 688L 670 682L 658 682L 646 682L 646 676L 646 670L 658 670L 670 670L 670 676zM 298 694L 298 706L 292 706L 286 706L 286 694L 286 682L 292 682L 298 682L 298 694z"/>
<path style="stroke:none; fill:#000000" d="M 286 136L 286 142L 280 142L 274 142L 274 160L 274 178L 286 178L 298 178L 298 172L 298 166L 304 166L 310 166L 310 160L 310 154L 304 154L 298 154L 298 142L 298 130L 292 130L 286 130L 286 136zM 298 160L 298 166L 292 166L 286 166L 286 160L 286 154L 292 154L 298 154L 298 160z"/>
<path style="stroke:none; fill:#000000" d="M 310 136L 310 142L 316 142L 322 142L 322 136L 322 130L 316 130L 310 130L 310 136z"/>
<path style="stroke:none; fill:#000000" d="M 442 160L 442 166L 448 166L 454 166L 454 178L 454 190L 448 190L 442 190L 442 196L 442 202L 436 202L 430 202L 430 208L 430 214L 424 214L 418 214L 418 220L 418 226L 412 226L 406 226L 406 232L 406 238L 400 238L 394 238L 394 232L 394 226L 388 226L 382 226L 382 220L 382 214L 376 214L 370 214L 370 220L 370 226L 376 226L 382 226L 382 232L 382 238L 376 238L 370 238L 370 244L 370 250L 388 250L 406 250L 406 244L 406 238L 412 238L 418 238L 418 250L 418 262L 424 262L 430 262L 430 250L 430 238L 436 238L 442 238L 442 256L 442 274L 436 274L 430 274L 430 280L 430 286L 436 286L 442 286L 442 292L 442 298L 448 298L 454 298L 454 304L 454 310L 448 310L 442 310L 442 322L 442 334L 430 334L 418 334L 418 346L 418 358L 424 358L 430 358L 430 364L 430 370L 412 370L 394 370L 394 364L 394 358L 388 358L 382 358L 382 346L 382 334L 388 334L 394 334L 394 340L 394 346L 400 346L 406 346L 406 334L 406 322L 418 322L 430 322L 430 310L 430 298L 424 298L 418 298L 418 304L 418 310L 412 310L 406 310L 406 298L 406 286L 400 286L 394 286L 394 280L 394 274L 400 274L 406 274L 406 268L 406 262L 388 262L 370 262L 370 268L 370 274L 364 274L 358 274L 358 280L 358 286L 364 286L 370 286L 370 292L 370 298L 364 298L 358 298L 358 304L 358 310L 352 310L 346 310L 346 316L 346 322L 364 322L 382 322L 382 328L 382 334L 376 334L 370 334L 370 340L 370 346L 364 346L 358 346L 358 340L 358 334L 352 334L 346 334L 346 340L 346 346L 352 346L 358 346L 358 352L 358 358L 334 358L 310 358L 310 364L 310 370L 316 370L 322 370L 322 376L 322 382L 328 382L 334 382L 334 376L 334 370L 340 370L 346 370L 346 382L 346 394L 340 394L 334 394L 334 400L 334 406L 328 406L 322 406L 322 412L 322 418L 316 418L 310 418L 310 430L 310 442L 316 442L 322 442L 322 448L 322 454L 316 454L 310 454L 310 460L 310 466L 316 466L 322 466L 322 472L 322 478L 328 478L 334 478L 334 472L 334 466L 328 466L 322 466L 322 460L 322 454L 328 454L 334 454L 334 448L 334 442L 328 442L 322 442L 322 430L 322 418L 346 418L 370 418L 370 424L 370 430L 382 430L 394 430L 394 436L 394 442L 400 442L 406 442L 406 454L 406 466L 412 466L 418 466L 418 448L 418 430L 430 430L 442 430L 442 436L 442 442L 436 442L 430 442L 430 454L 430 466L 436 466L 442 466L 442 454L 442 442L 448 442L 454 442L 454 436L 454 430L 460 430L 466 430L 466 436L 466 442L 472 442L 478 442L 478 448L 478 454L 484 454L 490 454L 490 448L 490 442L 496 442L 502 442L 502 424L 502 406L 526 406L 550 406L 550 412L 550 418L 532 418L 514 418L 514 424L 514 430L 520 430L 526 430L 526 436L 526 442L 520 442L 514 442L 514 448L 514 454L 520 454L 526 454L 526 448L 526 442L 532 442L 538 442L 538 436L 538 430L 544 430L 550 430L 550 442L 550 454L 556 454L 562 454L 562 448L 562 442L 568 442L 574 442L 574 436L 574 430L 562 430L 550 430L 550 424L 550 418L 556 418L 562 418L 562 412L 562 406L 568 406L 574 406L 574 400L 574 394L 586 394L 598 394L 598 388L 598 382L 586 382L 574 382L 574 376L 574 370L 568 370L 562 370L 562 376L 562 382L 568 382L 574 382L 574 388L 574 394L 562 394L 550 394L 550 376L 550 358L 544 358L 538 358L 538 364L 538 370L 526 370L 514 370L 514 376L 514 382L 508 382L 502 382L 502 394L 502 406L 496 406L 490 406L 490 394L 490 382L 484 382L 478 382L 478 376L 478 370L 484 370L 490 370L 490 364L 490 358L 496 358L 502 358L 502 352L 502 346L 508 346L 514 346L 514 352L 514 358L 520 358L 526 358L 526 352L 526 346L 520 346L 514 346L 514 340L 514 334L 508 334L 502 334L 502 328L 502 322L 496 322L 490 322L 490 316L 490 310L 484 310L 478 310L 478 304L 478 298L 496 298L 514 298L 514 304L 514 310L 526 310L 538 310L 538 316L 538 322L 544 322L 550 322L 550 316L 550 310L 544 310L 538 310L 538 298L 538 286L 544 286L 550 286L 550 280L 550 274L 532 274L 514 274L 514 280L 514 286L 496 286L 478 286L 478 280L 478 274L 472 274L 466 274L 466 286L 466 298L 460 298L 454 298L 454 292L 454 286L 448 286L 442 286L 442 280L 442 274L 448 274L 454 274L 454 268L 454 262L 472 262L 490 262L 490 238L 490 214L 484 214L 478 214L 478 208L 478 202L 472 202L 466 202L 466 184L 466 166L 472 166L 478 166L 478 160L 478 154L 472 154L 466 154L 466 160L 466 166L 460 166L 454 166L 454 160L 454 154L 448 154L 442 154L 442 160zM 454 208L 454 214L 460 214L 466 214L 466 232L 466 250L 460 250L 454 250L 454 244L 454 238L 448 238L 442 238L 442 232L 442 226L 436 226L 430 226L 430 220L 430 214L 436 214L 442 214L 442 208L 442 202L 448 202L 454 202L 454 208zM 394 304L 394 322L 388 322L 382 322L 382 316L 382 310L 376 310L 370 310L 370 304L 370 298L 376 298L 382 298L 382 292L 382 286L 388 286L 394 286L 394 304zM 478 316L 478 322L 484 322L 490 322L 490 328L 490 334L 478 334L 466 334L 466 340L 466 346L 460 346L 454 346L 454 352L 454 358L 460 358L 466 358L 466 370L 466 382L 460 382L 454 382L 454 370L 454 358L 448 358L 442 358L 442 352L 442 346L 448 346L 454 346L 454 334L 454 322L 460 322L 466 322L 466 316L 466 310L 472 310L 478 310L 478 316zM 382 364L 382 370L 370 370L 358 370L 358 364L 358 358L 370 358L 382 358L 382 364zM 442 376L 442 382L 436 382L 430 382L 430 376L 430 370L 436 370L 442 370L 442 376zM 418 400L 418 418L 400 418L 382 418L 382 400L 382 382L 400 382L 418 382L 418 400zM 538 388L 538 394L 526 394L 514 394L 514 388L 514 382L 526 382L 538 382L 538 388zM 358 400L 358 406L 352 406L 346 406L 346 400L 346 394L 352 394L 358 394L 358 400zM 454 400L 454 406L 466 406L 478 406L 478 412L 478 418L 466 418L 454 418L 454 412L 454 406L 448 406L 442 406L 442 412L 442 418L 436 418L 430 418L 430 406L 430 394L 442 394L 454 394L 454 400z"/>
<path style="stroke:none; fill:#000000" d="M 394 400L 394 406L 400 406L 406 406L 406 400L 406 394L 400 394L 394 394L 394 400z"/>
<path style="stroke:none; fill:#000000" d="M 490 160L 490 166L 496 166L 502 166L 502 160L 502 154L 496 154L 490 154L 490 160z"/>
<path style="stroke:none; fill:#000000" d="M 346 184L 346 190L 352 190L 358 190L 358 184L 358 178L 352 178L 346 178L 346 184z"/>
<path style="stroke:none; fill:#000000" d="M 190 208L 190 226L 196 226L 202 226L 202 232L 202 238L 196 238L 190 238L 190 244L 190 250L 196 250L 202 250L 202 244L 202 238L 208 238L 214 238L 214 232L 214 226L 226 226L 238 226L 238 214L 238 202L 232 202L 226 202L 226 208L 226 214L 220 214L 214 214L 214 208L 214 202L 208 202L 202 202L 202 196L 202 190L 196 190L 190 190L 190 208z"/>
<path style="stroke:none; fill:#000000" d="M 286 208L 286 214L 292 214L 298 214L 298 220L 298 226L 304 226L 310 226L 310 232L 310 238L 316 238L 322 238L 322 232L 322 226L 316 226L 310 226L 310 220L 310 214L 304 214L 298 214L 298 208L 298 202L 292 202L 286 202L 286 208z"/>
<path style="stroke:none; fill:#000000" d="M 502 220L 502 226L 508 226L 514 226L 514 238L 514 250L 520 250L 526 250L 526 256L 526 262L 544 262L 562 262L 562 250L 562 238L 568 238L 574 238L 574 244L 574 250L 586 250L 598 250L 598 262L 598 274L 592 274L 586 274L 586 286L 586 298L 598 298L 610 298L 610 292L 610 286L 604 286L 598 286L 598 280L 598 274L 604 274L 610 274L 610 262L 610 250L 622 250L 634 250L 634 244L 634 238L 622 238L 610 238L 610 232L 610 226L 604 226L 598 226L 598 220L 598 214L 592 214L 586 214L 586 226L 586 238L 580 238L 574 238L 574 232L 574 226L 568 226L 562 226L 562 220L 562 214L 544 214L 526 214L 526 220L 526 226L 520 226L 514 226L 514 220L 514 214L 508 214L 502 214L 502 220zM 538 232L 538 238L 532 238L 526 238L 526 232L 526 226L 532 226L 538 226L 538 232zM 562 232L 562 238L 556 238L 550 238L 550 232L 550 226L 556 226L 562 226L 562 232zM 610 244L 610 250L 604 250L 598 250L 598 244L 598 238L 604 238L 610 238L 610 244z"/>
<path style="stroke:none; fill:#000000" d="M 646 244L 646 250L 652 250L 658 250L 658 244L 658 238L 652 238L 646 238L 646 244z"/>
<path style="stroke:none; fill:#000000" d="M 154 256L 154 262L 148 262L 142 262L 142 268L 142 274L 148 274L 154 274L 154 280L 154 286L 160 286L 166 286L 166 280L 166 274L 160 274L 154 274L 154 268L 154 262L 160 262L 166 262L 166 256L 166 250L 160 250L 154 250L 154 256z"/>
<path style="stroke:none; fill:#000000" d="M 322 256L 322 262L 316 262L 310 262L 310 268L 310 274L 304 274L 298 274L 298 292L 298 310L 316 310L 334 310L 334 304L 334 298L 322 298L 310 298L 310 286L 310 274L 316 274L 322 274L 322 268L 322 262L 328 262L 334 262L 334 256L 334 250L 328 250L 322 250L 322 256z"/>
<path style="stroke:none; fill:#000000" d="M 634 268L 634 274L 640 274L 646 274L 646 268L 646 262L 640 262L 634 262L 634 268z"/>
<path style="stroke:none; fill:#000000" d="M 250 280L 250 286L 256 286L 262 286L 262 292L 262 298L 268 298L 274 298L 274 292L 274 286L 268 286L 262 286L 262 280L 262 274L 256 274L 250 274L 250 280z"/>
<path style="stroke:none; fill:#000000" d="M 298 334L 298 346L 316 346L 334 346L 334 340L 334 334L 322 334L 310 334L 310 328L 310 322L 304 322L 298 322L 298 334z"/>
<path style="stroke:none; fill:#000000" d="M 298 400L 298 406L 304 406L 310 406L 310 400L 310 394L 304 394L 298 394L 298 400z"/>
<path style="stroke:none; fill:#000000" d="M 202 412L 202 418L 208 418L 214 418L 214 412L 214 406L 208 406L 202 406L 202 412z"/>
<path style="stroke:none; fill:#000000" d="M 586 412L 586 418L 592 418L 598 418L 598 412L 598 406L 592 406L 586 406L 586 412z"/>
<path style="stroke:none; fill:#000000" d="M 286 430L 286 442L 292 442L 298 442L 298 430L 298 418L 292 418L 286 418L 286 430z"/>
<path style="stroke:none; fill:#000000" d="M 202 448L 202 466L 196 466L 190 466L 190 460L 190 454L 184 454L 178 454L 178 448L 178 442L 166 442L 154 442L 154 448L 154 454L 166 454L 178 454L 178 460L 178 466L 184 466L 190 466L 190 472L 190 478L 178 478L 166 478L 166 472L 166 466L 160 466L 154 466L 154 472L 154 478L 160 478L 166 478L 166 484L 166 490L 154 490L 142 490L 142 484L 142 478L 130 478L 118 478L 118 484L 118 490L 130 490L 142 490L 142 502L 142 514L 148 514L 154 514L 154 520L 154 526L 160 526L 166 526L 166 520L 166 514L 160 514L 154 514L 154 508L 154 502L 160 502L 166 502L 166 496L 166 490L 172 490L 178 490L 178 496L 178 502L 184 502L 190 502L 190 508L 190 514L 184 514L 178 514L 178 526L 178 538L 166 538L 154 538L 154 544L 154 550L 172 550L 190 550L 190 544L 190 538L 196 538L 202 538L 202 532L 202 526L 196 526L 190 526L 190 520L 190 514L 196 514L 202 514L 202 508L 202 502L 208 502L 214 502L 214 496L 214 490L 226 490L 238 490L 238 484L 238 478L 244 478L 250 478L 250 472L 250 466L 244 466L 238 466L 238 460L 238 454L 232 454L 226 454L 226 448L 226 442L 220 442L 214 442L 214 436L 214 430L 208 430L 202 430L 202 448zM 226 460L 226 466L 232 466L 238 466L 238 472L 238 478L 232 478L 226 478L 226 472L 226 466L 220 466L 214 466L 214 472L 214 478L 208 478L 202 478L 202 472L 202 466L 208 466L 214 466L 214 460L 214 454L 220 454L 226 454L 226 460zM 202 496L 202 502L 196 502L 190 502L 190 496L 190 490L 196 490L 202 490L 202 496z"/>
<path style="stroke:none; fill:#000000" d="M 586 436L 586 442L 592 442L 598 442L 598 436L 598 430L 592 430L 586 430L 586 436z"/>
<path style="stroke:none; fill:#000000" d="M 358 448L 358 454L 352 454L 346 454L 346 466L 346 478L 352 478L 358 478L 358 490L 358 502L 370 502L 382 502L 382 496L 382 490L 376 490L 370 490L 370 472L 370 454L 376 454L 382 454L 382 460L 382 466L 388 466L 394 466L 394 460L 394 454L 388 454L 382 454L 382 448L 382 442L 370 442L 358 442L 358 448z"/>
<path style="stroke:none; fill:#000000" d="M 454 460L 454 466L 460 466L 466 466L 466 460L 466 454L 460 454L 454 454L 454 460z"/>
<path style="stroke:none; fill:#000000" d="M 586 460L 586 466L 592 466L 598 466L 598 460L 598 454L 592 454L 586 454L 586 460z"/>
<path style="stroke:none; fill:#000000" d="M 322 496L 322 502L 328 502L 334 502L 334 496L 334 490L 328 490L 322 490L 322 496z"/>
<path style="stroke:none; fill:#000000" d="M 298 508L 298 514L 304 514L 310 514L 310 520L 310 526L 316 526L 322 526L 322 532L 322 538L 328 538L 334 538L 334 532L 334 526L 328 526L 322 526L 322 520L 322 514L 316 514L 310 514L 310 508L 310 502L 304 502L 298 502L 298 508z"/>
<path style="stroke:none; fill:#000000" d="M 382 532L 382 538L 376 538L 370 538L 370 544L 370 550L 376 550L 382 550L 382 544L 382 538L 388 538L 394 538L 394 532L 394 526L 388 526L 382 526L 382 532z"/>
<path style="stroke:none; fill:#000000" d="M 490 562L 490 574L 484 574L 478 574L 478 580L 478 586L 466 586L 454 586L 454 598L 454 610L 460 610L 466 610L 466 604L 466 598L 472 598L 478 598L 478 610L 478 622L 484 622L 490 622L 490 628L 490 634L 484 634L 478 634L 478 640L 478 646L 490 646L 502 646L 502 652L 502 658L 508 658L 514 658L 514 652L 514 646L 520 646L 526 646L 526 640L 526 634L 550 634L 574 634L 574 622L 574 610L 586 610L 598 610L 598 604L 598 598L 610 598L 622 598L 622 592L 622 586L 610 586L 598 586L 598 592L 598 598L 592 598L 586 598L 586 592L 586 586L 580 586L 574 586L 574 580L 574 574L 568 574L 562 574L 562 580L 562 586L 556 586L 550 586L 550 592L 550 598L 556 598L 562 598L 562 604L 562 610L 556 610L 550 610L 550 616L 550 622L 538 622L 526 622L 526 616L 526 610L 532 610L 538 610L 538 604L 538 598L 532 598L 526 598L 526 604L 526 610L 520 610L 514 610L 514 604L 514 598L 502 598L 490 598L 490 592L 490 586L 502 586L 514 586L 514 580L 514 574L 508 574L 502 574L 502 562L 502 550L 496 550L 490 550L 490 562zM 502 616L 502 622L 514 622L 526 622L 526 628L 526 634L 514 634L 502 634L 502 628L 502 622L 496 622L 490 622L 490 616L 490 610L 496 610L 502 610L 502 616z"/>
<path style="stroke:none; fill:#000000" d="M 154 568L 154 574L 160 574L 166 574L 166 568L 166 562L 160 562L 154 562L 154 568z"/>
<path style="stroke:none; fill:#000000" d="M 430 598L 430 610L 436 610L 442 610L 442 598L 442 586L 436 586L 430 586L 430 598z"/>
<path style="stroke:none; fill:#000000" d="M 586 628L 586 634L 592 634L 598 634L 598 628L 598 622L 592 622L 586 622L 586 628z"/>
<path style="stroke:none; fill:#000000" d="M 442 652L 442 658L 448 658L 454 658L 454 652L 454 646L 448 646L 442 646L 442 652z"/>
<path style="stroke:none; fill:#000000" d="M 538 652L 538 658L 544 658L 550 658L 550 652L 550 646L 544 646L 538 646L 538 652z"/>
<path style="stroke:none; fill:#000000" d="M 394 160L 394 166L 400 166L 406 166L 406 160L 406 154L 400 154L 394 154L 394 160z"/>
<path style="stroke:none; fill:#000000" d="M 154 400L 154 406L 160 406L 166 406L 166 400L 166 394L 160 394L 154 394L 154 400z"/>
<path style="stroke:none; fill:#000000" d="M 634 400L 634 406L 640 406L 646 406L 646 400L 646 394L 640 394L 634 394L 634 400z"/>
<path style="stroke:none; fill:#000000" d="M 658 460L 658 466L 664 466L 670 466L 670 460L 670 454L 664 454L 658 454L 658 460z"/>
<path style="stroke:none; fill:#000000" d="M 682 532L 682 538L 688 538L 694 538L 694 532L 694 526L 688 526L 682 526L 682 532z"/>
<path style="stroke:none; fill:#000000" d="M 394 640L 394 646L 400 646L 406 646L 406 640L 406 634L 400 634L 394 634L 394 640z"/>
<path style="stroke:none; fill:#000000" d="M 634 640L 634 646L 640 646L 646 646L 646 640L 646 634L 640 634L 634 634L 634 640z"/>
<path style="stroke:none; fill:#000000" d="M 430 88L 430 94L 442 94L 454 94L 454 88L 454 82L 442 82L 430 82L 430 88z"/>
<path style="stroke:none; fill:#000000" d="M 634 124L 634 166L 676 166L 718 166L 718 124L 718 82L 676 82L 634 82L 634 124zM 706 124L 706 154L 676 154L 646 154L 646 124L 646 94L 676 94L 706 94L 706 124z"/>
<path style="stroke:none; fill:#000000" d="M 658 124L 658 142L 676 142L 694 142L 694 124L 694 106L 676 106L 658 106L 658 124z"/>
<path style="stroke:none; fill:#000000" d="M 682 184L 682 190L 694 190L 706 190L 706 196L 706 202L 712 202L 718 202L 718 190L 718 178L 700 178L 682 178L 682 184z"/>
<path style="stroke:none; fill:#000000" d="M 82 256L 82 262L 88 262L 94 262L 94 256L 94 250L 88 250L 82 250L 82 256z"/>
<path style="stroke:none; fill:#000000" d="M 706 364L 706 370L 700 370L 694 370L 694 376L 694 382L 706 382L 718 382L 718 370L 718 358L 712 358L 706 358L 706 364z"/>
<path style="stroke:none; fill:#000000" d="M 190 604L 190 610L 172 610L 154 610L 154 616L 154 622L 166 622L 178 622L 178 652L 178 682L 184 682L 190 682L 190 646L 190 610L 196 610L 202 610L 202 604L 202 598L 196 598L 190 598L 190 604z"/>
<path style="stroke:none; fill:#000000" d="M 214 634L 214 646L 208 646L 202 646L 202 652L 202 658L 208 658L 214 658L 214 664L 214 670L 208 670L 202 670L 202 688L 202 706L 190 706L 178 706L 178 712L 178 718L 190 718L 202 718L 202 712L 202 706L 208 706L 214 706L 214 712L 214 718L 232 718L 250 718L 250 706L 250 694L 256 694L 262 694L 262 688L 262 682L 250 682L 238 682L 238 688L 238 694L 232 694L 226 694L 226 700L 226 706L 220 706L 214 706L 214 694L 214 682L 220 682L 226 682L 226 652L 226 622L 220 622L 214 622L 214 634z"/>
<path style="stroke:none; fill:#000000" d="M 82 676L 82 718L 124 718L 166 718L 166 676L 166 634L 124 634L 82 634L 82 676zM 154 676L 154 706L 124 706L 94 706L 94 676L 94 646L 124 646L 154 646L 154 676z"/>
<path style="stroke:none; fill:#000000" d="M 106 676L 106 694L 124 694L 142 694L 142 676L 142 658L 124 658L 106 658L 106 676z"/>
<path style="stroke:none; fill:#000000" d="M 346 712L 346 718L 352 718L 358 718L 358 712L 358 706L 352 706L 346 706L 346 712z"/>
<path style="stroke:none; fill:#000000" d="M 514 712L 514 718L 520 718L 526 718L 526 712L 526 706L 520 706L 514 706L 514 712z"/>
</g>
</g>
</svg>