<?xml version="1.0" encoding="UTF-8" standalone="yes"?>
<!-- Created with sK1/UniConvertor (http://sk1project.org/) -->
<svg xmlns="http://www.w3.org/2000/svg" xmlns:xlink="http://www.w3.org/1999/xlink"
  width="800pt" height="800pt" viewBox="0 0 800 800"
  fill-rule="evenodd">
<g>
<g>
<path style="stroke:none; fill:#000000" d="M 75 110L 75 145L 110 145L 145 145L 145 110L 145 75L 110 75L 75 75L 75 110zM 135 110L 135 135L 110 135L 85 135L 85 110L 85 85L 110 85L 135 85L 135 110z"/>
<path style="stroke:none; fill:#000000" d="M 95 110L 95 125L 110 125L 125 125L 125 110L 125 95L 110 95L 95 95L 95 110z"/>
<path style="stroke:none; fill:#000000" d="M 155 80L 155 85L 165 85L 175 85L 175 80L 175 75L 165 75L 155 75L 155 80z"/>
<path style="stroke:none; fill:#000000" d="M 215 80L 215 85L 225 85L 235 85L 235 90L 235 95L 220 95L 205 95L 205 90L 205 85L 195 85L 185 85L 185 90L 185 95L 180 95L 175 95L 175 100L 175 105L 165 105L 155 105L 155 130L 155 155L 145 155L 135 155L 135 160L 135 165L 140 165L 145 165L 145 170L 145 175L 140 175L 135 175L 135 180L 135 185L 145 185L 155 185L 155 195L 155 205L 150 205L 145 205L 145 200L 145 195L 140 195L 135 195L 135 200L 135 205L 140 205L 145 205L 145 210L 145 215L 135 215L 125 215L 125 210L 125 205L 115 205L 105 205L 105 200L 105 195L 115 195L 125 195L 125 190L 125 185L 115 185L 105 185L 105 180L 105 175L 115 175L 125 175L 125 165L 125 155L 120 155L 115 155L 115 160L 115 165L 105 165L 95 165L 95 170L 95 175L 90 175L 85 175L 85 165L 85 155L 80 155L 75 155L 75 165L 75 175L 80 175L 85 175L 85 180L 85 185L 80 185L 75 185L 75 190L 75 195L 80 195L 85 195L 85 200L 85 205L 80 205L 75 205L 75 215L 75 225L 80 225L 85 225L 85 215L 85 205L 95 205L 105 205L 105 215L 105 225L 100 225L 95 225L 95 230L 95 235L 90 235L 85 235L 85 240L 85 245L 90 245L 95 245L 95 250L 95 255L 85 255L 75 255L 75 265L 75 275L 80 275L 85 275L 85 280L 85 285L 90 285L 95 285L 95 310L 95 335L 90 335L 85 335L 85 340L 85 345L 80 345L 75 345L 75 355L 75 365L 80 365L 85 365L 85 355L 85 345L 90 345L 95 345L 95 350L 95 355L 100 355L 105 355L 105 350L 105 345L 100 345L 95 345L 95 340L 95 335L 100 335L 105 335L 105 325L 105 315L 110 315L 115 315L 115 340L 115 365L 105 365L 95 365L 95 370L 95 375L 85 375L 75 375L 75 385L 75 395L 80 395L 85 395L 85 405L 85 415L 80 415L 75 415L 75 425L 75 435L 80 435L 85 435L 85 440L 85 445L 80 445L 75 445L 75 450L 75 455L 80 455L 85 455L 85 450L 85 445L 95 445L 105 445L 105 440L 105 435L 115 435L 125 435L 125 440L 125 445L 135 445L 145 445L 145 440L 145 435L 135 435L 125 435L 125 430L 125 425L 140 425L 155 425L 155 440L 155 455L 145 455L 135 455L 135 460L 135 465L 140 465L 145 465L 145 470L 145 475L 135 475L 125 475L 125 465L 125 455L 110 455L 95 455L 95 465L 95 475L 85 475L 75 475L 75 485L 75 495L 85 495L 95 495L 95 485L 95 475L 100 475L 105 475L 105 470L 105 465L 110 465L 115 465L 115 470L 115 475L 120 475L 125 475L 125 480L 125 485L 115 485L 105 485L 105 490L 105 495L 115 495L 125 495L 125 490L 125 485L 135 485L 145 485L 145 490L 145 495L 140 495L 135 495L 135 500L 135 505L 145 505L 155 505L 155 510L 155 515L 145 515L 135 515L 135 520L 135 525L 130 525L 125 525L 125 530L 125 535L 130 535L 135 535L 135 540L 135 545L 140 545L 145 545L 145 540L 145 535L 155 535L 165 535L 165 530L 165 525L 175 525L 185 525L 185 515L 185 505L 190 505L 195 505L 195 500L 195 495L 205 495L 215 495L 215 500L 215 505L 210 505L 205 505L 205 510L 205 515L 200 515L 195 515L 195 520L 195 525L 200 525L 205 525L 205 530L 205 535L 215 535L 225 535L 225 540L 225 545L 220 545L 215 545L 215 550L 215 555L 220 555L 225 555L 225 560L 225 565L 215 565L 205 565L 205 570L 205 575L 200 575L 195 575L 195 565L 195 555L 200 555L 205 555L 205 550L 205 545L 200 545L 195 545L 195 540L 195 535L 190 535L 185 535L 185 540L 185 545L 175 545L 165 545L 165 550L 165 555L 150 555L 135 555L 135 560L 135 565L 145 565L 155 565L 155 580L 155 595L 165 595L 175 595L 175 600L 175 605L 165 605L 155 605L 155 620L 155 635L 145 635L 135 635L 135 640L 135 645L 145 645L 155 645L 155 655L 155 665L 160 665L 165 665L 165 655L 165 645L 175 645L 185 645L 185 650L 185 655L 195 655L 205 655L 205 650L 205 645L 210 645L 215 645L 215 655L 215 665L 210 665L 205 665L 205 670L 205 675L 195 675L 185 675L 185 670L 185 665L 180 665L 175 665L 175 670L 175 675L 180 675L 185 675L 185 680L 185 685L 175 685L 165 685L 165 680L 165 675L 160 675L 155 675L 155 680L 155 685L 160 685L 165 685L 165 700L 165 715L 160 715L 155 715L 155 720L 155 725L 160 725L 165 725L 165 720L 165 715L 175 715L 185 715L 185 720L 185 725L 190 725L 195 725L 195 715L 195 705L 200 705L 205 705L 205 700L 205 695L 210 695L 215 695L 215 700L 215 705L 220 705L 225 705L 225 695L 225 685L 235 685L 245 685L 245 690L 245 695L 250 695L 255 695L 255 700L 255 705L 250 705L 245 705L 245 710L 245 715L 235 715L 225 715L 225 720L 225 725L 240 725L 255 725L 255 720L 255 715L 265 715L 275 715L 275 720L 275 725L 280 725L 285 725L 285 720L 285 715L 295 715L 305 715L 305 705L 305 695L 315 695L 325 695L 325 705L 325 715L 320 715L 315 715L 315 720L 315 725L 330 725L 345 725L 345 720L 345 715L 350 715L 355 715L 355 720L 355 725L 380 725L 405 725L 405 715L 405 705L 400 705L 395 705L 395 695L 395 685L 415 685L 435 685L 435 690L 435 695L 425 695L 415 695L 415 710L 415 725L 425 725L 435 725L 435 710L 435 695L 445 695L 455 695L 455 700L 455 705L 450 705L 445 705L 445 715L 445 725L 450 725L 455 725L 455 720L 455 715L 460 715L 465 715L 465 720L 465 725L 475 725L 485 725L 485 715L 485 705L 490 705L 495 705L 495 710L 495 715L 500 715L 505 715L 505 720L 505 725L 535 725L 565 725L 565 720L 565 715L 570 715L 575 715L 575 720L 575 725L 580 725L 585 725L 585 720L 585 715L 590 715L 595 715L 595 710L 595 705L 615 705L 635 705L 635 695L 635 685L 640 685L 645 685L 645 695L 645 705L 650 705L 655 705L 655 710L 655 715L 645 715L 635 715L 635 720L 635 725L 655 725L 675 725L 675 720L 675 715L 680 715L 685 715L 685 720L 685 725L 690 725L 695 725L 695 715L 695 705L 685 705L 675 705L 675 710L 675 715L 670 715L 665 715L 665 710L 665 705L 660 705L 655 705L 655 700L 655 695L 665 695L 675 695L 675 690L 675 685L 685 685L 695 685L 695 675L 695 665L 690 665L 685 665L 685 660L 685 655L 695 655L 705 655L 705 650L 705 645L 700 645L 695 645L 695 635L 695 625L 700 625L 705 625L 705 620L 705 615L 695 615L 685 615L 685 610L 685 605L 675 605L 665 605L 665 610L 665 615L 660 615L 655 615L 655 620L 655 625L 650 625L 645 625L 645 615L 645 605L 640 605L 635 605L 635 600L 635 595L 645 595L 655 595L 655 590L 655 585L 660 585L 665 585L 665 580L 665 575L 670 575L 675 575L 675 585L 675 595L 685 595L 695 595L 695 600L 695 605L 705 605L 715 605L 715 620L 715 635L 720 635L 725 635L 725 620L 725 605L 720 605L 715 605L 715 600L 715 595L 720 595L 725 595L 725 560L 725 525L 720 525L 715 525L 715 520L 715 515L 720 515L 725 515L 725 500L 725 485L 720 485L 715 485L 715 480L 715 475L 720 475L 725 475L 725 460L 725 445L 720 445L 715 445L 715 435L 715 425L 720 425L 725 425L 725 415L 725 405L 720 405L 715 405L 715 410L 715 415L 710 415L 705 415L 705 410L 705 405L 700 405L 695 405L 695 390L 695 375L 700 375L 705 375L 705 380L 705 385L 710 385L 715 385L 715 390L 715 395L 720 395L 725 395L 725 385L 725 375L 715 375L 705 375L 705 370L 705 365L 710 365L 715 365L 715 360L 715 355L 720 355L 725 355L 725 335L 725 315L 720 315L 715 315L 715 310L 715 305L 720 305L 725 305L 725 295L 725 285L 720 285L 715 285L 715 280L 715 275L 720 275L 725 275L 725 260L 725 245L 720 245L 715 245L 715 255L 715 265L 710 265L 705 265L 705 270L 705 275L 700 275L 695 275L 695 265L 695 255L 685 255L 675 255L 675 260L 675 265L 665 265L 655 265L 655 260L 655 255L 650 255L 645 255L 645 250L 645 245L 650 245L 655 245L 655 230L 655 215L 650 215L 645 215L 645 210L 645 205L 640 205L 635 205L 635 210L 635 215L 630 215L 625 215L 625 205L 625 195L 620 195L 615 195L 615 190L 615 185L 620 185L 625 185L 625 175L 625 165L 630 165L 635 165L 635 170L 635 175L 645 175L 655 175L 655 170L 655 165L 660 165L 665 165L 665 175L 665 185L 655 185L 645 185L 645 190L 645 195L 650 195L 655 195L 655 200L 655 205L 670 205L 685 205L 685 210L 685 215L 680 215L 675 215L 675 220L 675 225L 670 225L 665 225L 665 230L 665 235L 670 235L 675 235L 675 240L 675 245L 685 245L 695 245L 695 235L 695 225L 690 225L 685 225L 685 220L 685 215L 695 215L 705 215L 705 210L 705 205L 700 205L 695 205L 695 195L 695 185L 685 185L 675 185L 675 180L 675 175L 690 175L 705 175L 705 170L 705 165L 700 165L 695 165L 695 160L 695 155L 670 155L 645 155L 645 160L 645 165L 640 165L 635 165L 635 160L 635 155L 625 155L 615 155L 615 150L 615 145L 620 145L 625 145L 625 135L 625 125L 620 125L 615 125L 615 120L 615 115L 625 115L 635 115L 635 120L 635 125L 640 125L 645 125L 645 120L 645 115L 640 115L 635 115L 635 110L 635 105L 640 105L 645 105L 645 95L 645 85L 640 85L 635 85L 635 80L 635 75L 630 75L 625 75L 625 80L 625 85L 630 85L 635 85L 635 95L 635 105L 630 105L 625 105L 625 100L 625 95L 620 95L 615 95L 615 85L 615 75L 610 75L 605 75L 605 90L 605 105L 600 105L 595 105L 595 95L 595 85L 590 85L 585 85L 585 80L 585 75L 580 75L 575 75L 575 80L 575 85L 565 85L 555 85L 555 80L 555 75L 550 75L 545 75L 545 80L 545 85L 540 85L 535 85L 535 80L 535 75L 530 75L 525 75L 525 80L 525 85L 530 85L 535 85L 535 90L 535 95L 525 95L 515 95L 515 100L 515 105L 505 105L 495 105L 495 115L 495 125L 500 125L 505 125L 505 130L 505 135L 500 135L 495 135L 495 145L 495 155L 490 155L 485 155L 485 165L 485 175L 475 175L 465 175L 465 165L 465 155L 470 155L 475 155L 475 150L 475 145L 480 145L 485 145L 485 125L 485 105L 480 105L 475 105L 475 110L 475 115L 465 115L 455 115L 455 110L 455 105L 460 105L 465 105L 465 100L 465 95L 475 95L 485 95L 485 90L 485 85L 490 85L 495 85L 495 90L 495 95L 500 95L 505 95L 505 90L 505 85L 510 85L 515 85L 515 80L 515 75L 510 75L 505 75L 505 80L 505 85L 500 85L 495 85L 495 80L 495 75L 485 75L 475 75L 475 80L 475 85L 460 85L 445 85L 445 90L 445 95L 440 95L 435 95L 435 90L 435 85L 430 85L 425 85L 425 80L 425 75L 400 75L 375 75L 375 80L 375 85L 400 85L 425 85L 425 90L 425 95L 415 95L 405 95L 405 105L 405 115L 390 115L 375 115L 375 110L 375 105L 370 105L 365 105L 365 110L 365 115L 370 115L 375 115L 375 120L 375 125L 370 125L 365 125L 365 130L 365 135L 360 135L 355 135L 355 110L 355 85L 345 85L 335 85L 335 80L 335 75L 330 75L 325 75L 325 80L 325 85L 320 85L 315 85L 315 80L 315 75L 310 75L 305 75L 305 85L 305 95L 295 95L 285 95L 285 90L 285 85L 290 85L 295 85L 295 80L 295 75L 280 75L 265 75L 265 80L 265 85L 270 85L 275 85L 275 90L 275 95L 270 95L 265 95L 265 100L 265 105L 275 105L 285 105L 285 110L 285 115L 280 115L 275 115L 275 120L 275 125L 270 125L 265 125L 265 130L 265 135L 260 135L 255 135L 255 120L 255 105L 250 105L 245 105L 245 100L 245 95L 250 95L 255 95L 255 90L 255 85L 250 85L 245 85L 245 80L 245 75L 230 75L 215 75L 215 80zM 585 95L 585 105L 590 105L 595 105L 595 110L 595 115L 590 115L 585 115L 585 110L 585 105L 575 105L 565 105L 565 110L 565 115L 570 115L 575 115L 575 120L 575 125L 595 125L 615 125L 615 135L 615 145L 610 145L 605 145L 605 155L 605 165L 600 165L 595 165L 595 170L 595 175L 605 175L 615 175L 615 180L 615 185L 610 185L 605 185L 605 195L 605 205L 600 205L 595 205L 595 210L 595 215L 600 215L 605 215L 605 220L 605 225L 610 225L 615 225L 615 230L 615 235L 620 235L 625 235L 625 230L 625 225L 630 225L 635 225L 635 220L 635 215L 640 215L 645 215L 645 230L 645 245L 640 245L 635 245L 635 250L 635 255L 630 255L 625 255L 625 250L 625 245L 620 245L 615 245L 615 240L 615 235L 610 235L 605 235L 605 240L 605 245L 600 245L 595 245L 595 235L 595 225L 590 225L 585 225L 585 235L 585 245L 580 245L 575 245L 575 235L 575 225L 580 225L 585 225L 585 215L 585 205L 580 205L 575 205L 575 210L 575 215L 570 215L 565 215L 565 205L 565 195L 575 195L 585 195L 585 200L 585 205L 590 205L 595 205L 595 195L 595 185L 590 185L 585 185L 585 175L 585 165L 590 165L 595 165L 595 160L 595 155L 590 155L 585 155L 585 145L 585 135L 580 135L 575 135L 575 140L 575 145L 570 145L 565 145L 565 130L 565 115L 555 115L 545 115L 545 120L 545 125L 550 125L 555 125L 555 135L 555 145L 550 145L 545 145L 545 135L 545 125L 540 125L 535 125L 535 145L 535 165L 545 165L 555 165L 555 170L 555 175L 565 175L 575 175L 575 180L 575 185L 555 185L 535 185L 535 180L 535 175L 530 175L 525 175L 525 180L 525 185L 520 185L 515 185L 515 195L 515 205L 520 205L 525 205L 525 200L 525 195L 530 195L 535 195L 535 200L 535 205L 545 205L 555 205L 555 220L 555 235L 550 235L 545 235L 545 240L 545 245L 555 245L 565 245L 565 250L 565 255L 570 255L 575 255L 575 260L 575 265L 580 265L 585 265L 585 260L 585 255L 595 255L 605 255L 605 270L 605 285L 610 285L 615 285L 615 290L 615 295L 605 295L 595 295L 595 300L 595 305L 605 305L 615 305L 615 310L 615 315L 620 315L 625 315L 625 295L 625 275L 635 275L 645 275L 645 270L 645 265L 650 265L 655 265L 655 270L 655 275L 660 275L 665 275L 665 280L 665 285L 690 285L 715 285L 715 295L 715 305L 710 305L 705 305L 705 315L 705 325L 710 325L 715 325L 715 340L 715 355L 710 355L 705 355L 705 360L 705 365L 700 365L 695 365L 695 360L 695 355L 690 355L 685 355L 685 340L 685 325L 690 325L 695 325L 695 315L 695 305L 685 305L 675 305L 675 300L 675 295L 670 295L 665 295L 665 300L 665 305L 660 305L 655 305L 655 290L 655 275L 650 275L 645 275L 645 280L 645 285L 640 285L 635 285L 635 295L 635 305L 640 305L 645 305L 645 315L 645 325L 640 325L 635 325L 635 330L 635 335L 645 335L 655 335L 655 325L 655 315L 660 315L 665 315L 665 330L 665 345L 660 345L 655 345L 655 350L 655 355L 650 355L 645 355L 645 360L 645 365L 640 365L 635 365L 635 385L 635 405L 625 405L 615 405L 615 400L 615 395L 610 395L 605 395L 605 405L 605 415L 595 415L 585 415L 585 410L 585 405L 590 405L 595 405L 595 380L 595 355L 585 355L 575 355L 575 365L 575 375L 570 375L 565 375L 565 380L 565 385L 575 385L 585 385L 585 390L 585 395L 580 395L 575 395L 575 410L 575 425L 580 425L 585 425L 585 430L 585 435L 575 435L 565 435L 565 430L 565 425L 560 425L 555 425L 555 420L 555 415L 560 415L 565 415L 565 400L 565 385L 550 385L 535 385L 535 390L 535 395L 540 395L 545 395L 545 420L 545 445L 550 445L 555 445L 555 450L 555 455L 560 455L 565 455L 565 450L 565 445L 570 445L 575 445L 575 455L 575 465L 565 465L 555 465L 555 470L 555 475L 550 475L 545 475L 545 490L 545 505L 540 505L 535 505L 535 510L 535 515L 540 515L 545 515L 545 530L 545 545L 540 545L 535 545L 535 550L 535 555L 540 555L 545 555L 545 570L 545 585L 550 585L 555 585L 555 590L 555 595L 550 595L 545 595L 545 590L 545 585L 540 585L 535 585L 535 595L 535 605L 545 605L 555 605L 555 610L 555 615L 560 615L 565 615L 565 610L 565 605L 570 605L 575 605L 575 610L 575 615L 570 615L 565 615L 565 620L 565 625L 575 625L 585 625L 585 635L 585 645L 590 645L 595 645L 595 635L 595 625L 600 625L 605 625L 605 645L 605 665L 615 665L 625 665L 625 655L 625 645L 620 645L 615 645L 615 635L 615 625L 620 625L 625 625L 625 615L 625 605L 630 605L 635 605L 635 615L 635 625L 630 625L 625 625L 625 635L 625 645L 630 645L 635 645L 635 655L 635 665L 630 665L 625 665L 625 670L 625 675L 615 675L 605 675L 605 685L 605 695L 600 695L 595 695L 595 700L 595 705L 590 705L 585 705L 585 695L 585 685L 575 685L 565 685L 565 675L 565 665L 560 665L 555 665L 555 670L 555 675L 550 675L 545 675L 545 690L 545 705L 535 705L 525 705L 525 700L 525 695L 530 695L 535 695L 535 670L 535 645L 545 645L 555 645L 555 650L 555 655L 560 655L 565 655L 565 650L 565 645L 570 645L 575 645L 575 640L 575 635L 570 635L 565 635L 565 630L 565 625L 555 625L 545 625L 545 630L 545 635L 535 635L 525 635L 525 630L 525 625L 530 625L 535 625L 535 615L 535 605L 530 605L 525 605L 525 595L 525 585L 520 585L 515 585L 515 590L 515 595L 505 595L 495 595L 495 600L 495 605L 485 605L 475 605L 475 610L 475 615L 470 615L 465 615L 465 610L 465 605L 470 605L 475 605L 475 600L 475 595L 465 595L 455 595L 455 590L 455 585L 450 585L 445 585L 445 580L 445 575L 440 575L 435 575L 435 585L 435 595L 425 595L 415 595L 415 590L 415 585L 410 585L 405 585L 405 595L 405 605L 400 605L 395 605L 395 610L 395 615L 405 615L 415 615L 415 620L 415 625L 420 625L 425 625L 425 630L 425 635L 420 635L 415 635L 415 630L 415 625L 405 625L 395 625L 395 630L 395 635L 385 635L 375 635L 375 650L 375 665L 370 665L 365 665L 365 680L 365 695L 370 695L 375 695L 375 690L 375 685L 380 685L 385 685L 385 690L 385 695L 380 695L 375 695L 375 700L 375 705L 380 705L 385 705L 385 710L 385 715L 380 715L 375 715L 375 710L 375 705L 370 705L 365 705L 365 700L 365 695L 360 695L 355 695L 355 700L 355 705L 350 705L 345 705L 345 700L 345 695L 335 695L 325 695L 325 690L 325 685L 340 685L 355 685L 355 680L 355 675L 350 675L 345 675L 345 665L 345 655L 340 655L 335 655L 335 665L 335 675L 330 675L 325 675L 325 670L 325 665L 320 665L 315 665L 315 670L 315 675L 310 675L 305 675L 305 685L 305 695L 300 695L 295 695L 295 690L 295 685L 290 685L 285 685L 285 680L 285 675L 275 675L 265 675L 265 670L 265 665L 260 665L 255 665L 255 670L 255 675L 240 675L 225 675L 225 680L 225 685L 220 685L 215 685L 215 680L 215 675L 220 675L 225 675L 225 670L 225 665L 235 665L 245 665L 245 660L 245 655L 240 655L 235 655L 235 650L 235 645L 230 645L 225 645L 225 640L 225 635L 220 635L 215 635L 215 630L 215 625L 210 625L 205 625L 205 615L 205 605L 200 605L 195 605L 195 610L 195 615L 190 615L 185 615L 185 620L 185 625L 175 625L 165 625L 165 620L 165 615L 175 615L 185 615L 185 600L 185 585L 180 585L 175 585L 175 575L 175 565L 170 565L 165 565L 165 560L 165 555L 175 555L 185 555L 185 565L 185 575L 190 575L 195 575L 195 585L 195 595L 200 595L 205 595L 205 585L 205 575L 215 575L 225 575L 225 570L 225 565L 230 565L 235 565L 235 575L 235 585L 225 585L 215 585L 215 595L 215 605L 220 605L 225 605L 225 600L 225 595L 235 595L 245 595L 245 585L 245 575L 250 575L 255 575L 255 580L 255 585L 260 585L 265 585L 265 580L 265 575L 270 575L 275 575L 275 570L 275 565L 270 565L 265 565L 265 555L 265 545L 260 545L 255 545L 255 540L 255 535L 250 535L 245 535L 245 545L 245 555L 240 555L 235 555L 235 545L 235 535L 240 535L 245 535L 245 530L 245 525L 240 525L 235 525L 235 520L 235 515L 225 515L 215 515L 215 510L 215 505L 225 505L 235 505L 235 495L 235 485L 230 485L 225 485L 225 490L 225 495L 220 495L 215 495L 215 490L 215 485L 210 485L 205 485L 205 480L 205 475L 200 475L 195 475L 195 485L 195 495L 190 495L 185 495L 185 500L 185 505L 180 505L 175 505L 175 510L 175 515L 170 515L 165 515L 165 510L 165 505L 160 505L 155 505L 155 495L 155 485L 165 485L 175 485L 175 480L 175 475L 170 475L 165 475L 165 470L 165 465L 160 465L 155 465L 155 460L 155 455L 160 455L 165 455L 165 460L 165 465L 170 465L 175 465L 175 455L 175 445L 180 445L 185 445L 185 450L 185 455L 190 455L 195 455L 195 440L 195 425L 185 425L 175 425L 175 430L 175 435L 170 435L 165 435L 165 430L 165 425L 170 425L 175 425L 175 420L 175 415L 180 415L 185 415L 185 410L 185 405L 180 405L 175 405L 175 400L 175 395L 170 395L 165 395L 165 385L 165 375L 160 375L 155 375L 155 370L 155 365L 150 365L 145 365L 145 370L 145 375L 130 375L 115 375L 115 370L 115 365L 130 365L 145 365L 145 360L 145 355L 140 355L 135 355L 135 350L 135 345L 140 345L 145 345L 145 340L 145 335L 135 335L 125 335L 125 325L 125 315L 120 315L 115 315L 115 310L 115 305L 120 305L 125 305L 125 295L 125 285L 120 285L 115 285L 115 290L 115 295L 110 295L 105 295L 105 290L 105 285L 110 285L 115 285L 115 280L 115 275L 125 275L 135 275L 135 270L 135 265L 140 265L 145 265L 145 260L 145 255L 140 255L 135 255L 135 250L 135 245L 130 245L 125 245L 125 240L 125 235L 130 235L 135 235L 135 230L 135 225L 145 225L 155 225L 155 215L 155 205L 170 205L 185 205L 185 200L 185 195L 190 195L 195 195L 195 190L 195 185L 185 185L 175 185L 175 190L 175 195L 170 195L 165 195L 165 190L 165 185L 160 185L 155 185L 155 180L 155 175L 160 175L 165 175L 165 180L 165 185L 170 185L 175 185L 175 175L 175 165L 170 165L 165 165L 165 150L 165 135L 170 135L 175 135L 175 150L 175 165L 180 165L 185 165L 185 150L 185 135L 190 135L 195 135L 195 125L 195 115L 190 115L 185 115L 185 110L 185 105L 195 105L 205 105L 205 120L 205 135L 210 135L 215 135L 215 140L 215 145L 220 145L 225 145L 225 140L 225 135L 230 135L 235 135L 235 140L 235 145L 240 145L 245 145L 245 140L 245 135L 250 135L 255 135L 255 145L 255 155L 250 155L 245 155L 245 160L 245 165L 250 165L 255 165L 255 180L 255 195L 265 195L 275 195L 275 190L 275 185L 280 185L 285 185L 285 180L 285 175L 280 175L 275 175L 275 170L 275 165L 270 165L 265 165L 265 160L 265 155L 270 155L 275 155L 275 160L 275 165L 280 165L 285 165L 285 160L 285 155L 295 155L 305 155L 305 160L 305 165L 315 165L 325 165L 325 160L 325 155L 320 155L 315 155L 315 150L 315 145L 310 145L 305 145L 305 140L 305 135L 310 135L 315 135L 315 130L 315 125L 320 125L 325 125L 325 120L 325 115L 320 115L 315 115L 315 105L 315 95L 320 95L 325 95L 325 100L 325 105L 330 105L 335 105L 335 100L 335 95L 340 95L 345 95L 345 105L 345 115L 340 115L 335 115L 335 120L 335 125L 330 125L 325 125L 325 130L 325 135L 330 135L 335 135L 335 140L 335 145L 340 145L 345 145L 345 140L 345 135L 350 135L 355 135L 355 150L 355 165L 360 165L 365 165L 365 150L 365 135L 370 135L 375 135L 375 155L 375 175L 380 175L 385 175L 385 170L 385 165L 390 165L 395 165L 395 170L 395 175L 405 175L 415 175L 415 170L 415 165L 420 165L 425 165L 425 160L 425 155L 430 155L 435 155L 435 165L 435 175L 445 175L 455 175L 455 180L 455 185L 435 185L 415 185L 415 195L 415 205L 420 205L 425 205L 425 210L 425 215L 435 215L 445 215L 445 205L 445 195L 455 195L 465 195L 465 200L 465 205L 470 205L 475 205L 475 195L 475 185L 480 185L 485 185L 485 180L 485 175L 490 175L 495 175L 495 180L 495 185L 500 185L 505 185L 505 180L 505 175L 515 175L 525 175L 525 155L 525 135L 520 135L 515 135L 515 150L 515 165L 510 165L 505 165L 505 150L 505 135L 510 135L 515 135L 515 130L 515 125L 510 125L 505 125L 505 120L 505 115L 510 115L 515 115L 515 110L 515 105L 530 105L 545 105L 545 100L 545 95L 550 95L 555 95L 555 100L 555 105L 560 105L 565 105L 565 100L 565 95L 570 95L 575 95L 575 90L 575 85L 580 85L 585 85L 585 95zM 455 100L 455 105L 450 105L 445 105L 445 110L 445 115L 450 115L 455 115L 455 120L 455 125L 460 125L 465 125L 465 130L 465 135L 470 135L 475 135L 475 140L 475 145L 470 145L 465 145L 465 150L 465 155L 460 155L 455 155L 455 150L 455 145L 450 145L 445 145L 445 140L 445 135L 440 135L 435 135L 435 140L 435 145L 430 145L 425 145L 425 140L 425 135L 430 135L 435 135L 435 125L 435 115L 430 115L 425 115L 425 110L 425 105L 435 105L 445 105L 445 100L 445 95L 450 95L 455 95L 455 100zM 225 110L 225 115L 230 115L 235 115L 235 110L 235 105L 240 105L 245 105L 245 110L 245 115L 240 115L 235 115L 235 120L 235 125L 230 125L 225 125L 225 120L 225 115L 220 115L 215 115L 215 110L 215 105L 220 105L 225 105L 225 110zM 305 115L 305 125L 300 125L 295 125L 295 135L 295 145L 290 145L 285 145L 285 140L 285 135L 280 135L 275 135L 275 140L 275 145L 270 145L 265 145L 265 140L 265 135L 270 135L 275 135L 275 130L 275 125L 285 125L 295 125L 295 115L 295 105L 300 105L 305 105L 305 115zM 175 120L 175 125L 170 125L 165 125L 165 120L 165 115L 170 115L 175 115L 175 120zM 415 140L 415 155L 400 155L 385 155L 385 140L 385 125L 400 125L 415 125L 415 140zM 575 160L 575 165L 570 165L 565 165L 565 160L 565 155L 570 155L 575 155L 575 160zM 95 190L 95 195L 90 195L 85 195L 85 190L 85 185L 90 185L 95 185L 95 190zM 675 190L 675 195L 670 195L 665 195L 665 190L 665 185L 670 185L 675 185L 675 190zM 125 220L 125 225L 120 225L 115 225L 115 220L 115 215L 120 215L 125 215L 125 220zM 105 240L 105 245L 110 245L 115 245L 115 250L 115 255L 120 255L 125 255L 125 260L 125 265L 110 265L 95 265L 95 260L 95 255L 100 255L 105 255L 105 250L 105 245L 100 245L 95 245L 95 240L 95 235L 100 235L 105 235L 105 240zM 665 370L 665 375L 660 375L 655 375L 655 370L 655 365L 660 365L 665 365L 665 370zM 95 390L 95 395L 90 395L 85 395L 85 390L 85 385L 90 385L 95 385L 95 390zM 155 400L 155 415L 140 415L 125 415L 125 400L 125 385L 140 385L 155 385L 155 400zM 675 400L 675 415L 660 415L 645 415L 645 400L 645 385L 660 385L 675 385L 675 400zM 115 410L 115 415L 110 415L 105 415L 105 410L 105 405L 110 405L 115 405L 115 410zM 695 415L 695 425L 700 425L 705 425L 705 435L 705 445L 710 445L 715 445L 715 450L 715 455L 710 455L 705 455L 705 470L 705 485L 700 485L 695 485L 695 470L 695 455L 690 455L 685 455L 685 450L 685 445L 680 445L 675 445L 675 440L 675 435L 670 435L 665 435L 665 445L 665 455L 660 455L 655 455L 655 460L 655 465L 665 465L 675 465L 675 475L 675 485L 655 485L 635 485L 635 480L 635 475L 645 475L 655 475L 655 470L 655 465L 650 465L 645 465L 645 460L 645 455L 640 455L 635 455L 635 445L 635 435L 645 435L 655 435L 655 430L 655 425L 665 425L 675 425L 675 430L 675 435L 680 435L 685 435L 685 440L 685 445L 690 445L 695 445L 695 435L 695 425L 690 425L 685 425L 685 415L 685 405L 690 405L 695 405L 695 415zM 95 420L 95 425L 90 425L 85 425L 85 420L 85 415L 90 415L 95 415L 95 420zM 635 420L 635 425L 630 425L 625 425L 625 430L 625 435L 620 435L 615 435L 615 440L 615 445L 605 445L 595 445L 595 450L 595 455L 600 455L 605 455L 605 475L 605 495L 600 495L 595 495L 595 500L 595 505L 605 505L 615 505L 615 520L 615 535L 605 535L 595 535L 595 520L 595 505L 590 505L 585 505L 585 515L 585 525L 580 525L 575 525L 575 530L 575 535L 570 535L 565 535L 565 540L 565 545L 575 545L 585 545L 585 550L 585 555L 575 555L 565 555L 565 550L 565 545L 560 545L 555 545L 555 535L 555 525L 565 525L 575 525L 575 520L 575 515L 570 515L 565 515L 565 510L 565 505L 560 505L 555 505L 555 500L 555 495L 565 495L 575 495L 575 500L 575 505L 580 505L 585 505L 585 500L 585 495L 590 495L 595 495L 595 480L 595 465L 590 465L 585 465L 585 455L 585 445L 590 445L 595 445L 595 435L 595 425L 600 425L 605 425L 605 430L 605 435L 610 435L 615 435L 615 430L 615 425L 620 425L 625 425L 625 420L 625 415L 630 415L 635 415L 635 420zM 655 500L 655 505L 660 505L 665 505L 665 500L 665 495L 670 495L 675 495L 675 500L 675 505L 680 505L 685 505L 685 515L 685 525L 670 525L 655 525L 655 535L 655 545L 660 545L 665 545L 665 540L 665 535L 670 535L 675 535L 675 540L 675 545L 680 545L 685 545L 685 550L 685 555L 690 555L 695 555L 695 545L 695 535L 700 535L 705 535L 705 530L 705 525L 700 525L 695 525L 695 515L 695 505L 700 505L 705 505L 705 500L 705 495L 710 495L 715 495L 715 505L 715 515L 710 515L 705 515L 705 520L 705 525L 710 525L 715 525L 715 530L 715 535L 710 535L 705 535L 705 550L 705 565L 700 565L 695 565L 695 575L 695 585L 700 585L 705 585L 705 580L 705 575L 710 575L 715 575L 715 585L 715 595L 705 595L 695 595L 695 590L 695 585L 690 585L 685 585L 685 575L 685 565L 675 565L 665 565L 665 570L 665 575L 660 575L 655 575L 655 580L 655 585L 640 585L 625 585L 625 590L 625 595L 620 595L 615 595L 615 600L 615 605L 610 605L 605 605L 605 610L 605 615L 595 615L 585 615L 585 610L 585 605L 590 605L 595 605L 595 600L 595 595L 580 595L 565 595L 565 580L 565 565L 570 565L 575 565L 575 575L 575 585L 590 585L 605 585L 605 590L 605 595L 610 595L 615 595L 615 590L 615 585L 620 585L 625 585L 625 580L 625 575L 630 575L 635 575L 635 565L 635 555L 645 555L 655 555L 655 550L 655 545L 650 545L 645 545L 645 540L 645 535L 640 535L 635 535L 635 540L 635 545L 630 545L 625 545L 625 540L 625 535L 630 535L 635 535L 635 530L 635 525L 640 525L 645 525L 645 520L 645 515L 640 515L 635 515L 635 505L 635 495L 645 495L 655 495L 655 500zM 145 530L 145 535L 140 535L 135 535L 135 530L 135 525L 140 525L 145 525L 145 530zM 615 550L 615 555L 620 555L 625 555L 625 560L 625 565L 620 565L 615 565L 615 570L 615 575L 600 575L 585 575L 585 570L 585 565L 590 565L 595 565L 595 555L 595 545L 605 545L 615 545L 615 550zM 455 615L 455 625L 470 625L 485 625L 485 640L 485 655L 480 655L 475 655L 475 645L 475 635L 465 635L 455 635L 455 650L 455 665L 480 665L 505 665L 505 660L 505 655L 510 655L 515 655L 515 650L 515 645L 510 645L 505 645L 505 640L 505 635L 500 635L 495 635L 495 630L 495 625L 505 625L 515 625L 515 635L 515 645L 520 645L 525 645L 525 655L 525 665L 520 665L 515 665L 515 690L 515 715L 510 715L 505 715L 505 700L 505 685L 500 685L 495 685L 495 690L 495 695L 485 695L 475 695L 475 700L 475 705L 470 705L 465 705L 465 700L 465 695L 470 695L 475 695L 475 685L 475 675L 465 675L 455 675L 455 670L 455 665L 450 665L 445 665L 445 670L 445 675L 440 675L 435 675L 435 670L 435 665L 440 665L 445 665L 445 645L 445 625L 440 625L 435 625L 435 620L 435 615L 440 615L 445 615L 445 610L 445 605L 450 605L 455 605L 455 615zM 685 625L 685 635L 680 635L 675 635L 675 630L 675 625L 670 625L 665 625L 665 630L 665 635L 660 635L 655 635L 655 630L 655 625L 660 625L 665 625L 665 620L 665 615L 675 615L 685 615L 685 625zM 165 640L 165 645L 160 645L 155 645L 155 640L 155 635L 160 635L 165 635L 165 640zM 205 640L 205 645L 195 645L 185 645L 185 640L 185 635L 195 635L 205 635L 205 640zM 415 660L 415 675L 400 675L 385 675L 385 660L 385 645L 400 645L 415 645L 415 660zM 675 660L 675 675L 660 675L 645 675L 645 660L 645 645L 660 645L 675 645L 675 660zM 205 690L 205 695L 200 695L 195 695L 195 690L 195 685L 200 685L 205 685L 205 690zM 265 690L 265 695L 275 695L 285 695L 285 700L 285 705L 275 705L 265 705L 265 700L 265 695L 260 695L 255 695L 255 690L 255 685L 260 685L 265 685L 265 690zM 575 700L 575 705L 565 705L 555 705L 555 700L 555 695L 565 695L 575 695L 575 700z"/>
<path style="stroke:none; fill:#000000" d="M 515 120L 515 125L 525 125L 535 125L 535 120L 535 115L 525 115L 515 115L 515 120z"/>
<path style="stroke:none; fill:#000000" d="M 195 140L 195 145L 200 145L 205 145L 205 150L 205 155L 200 155L 195 155L 195 165L 195 175L 200 175L 205 175L 205 185L 205 195L 210 195L 215 195L 215 200L 215 205L 210 205L 205 205L 205 215L 205 225L 200 225L 195 225L 195 215L 195 205L 190 205L 185 205L 185 210L 185 215L 180 215L 175 215L 175 220L 175 225L 185 225L 195 225L 195 235L 195 245L 185 245L 175 245L 175 240L 175 235L 155 235L 135 235L 135 240L 135 245L 140 245L 145 245L 145 250L 145 255L 150 255L 155 255L 155 265L 155 275L 160 275L 165 275L 165 280L 165 285L 170 285L 175 285L 175 290L 175 295L 180 295L 185 295L 185 290L 185 285L 195 285L 205 285L 205 290L 205 295L 200 295L 195 295L 195 305L 195 315L 205 315L 215 315L 215 320L 215 325L 220 325L 225 325L 225 330L 225 335L 215 335L 205 335L 205 330L 205 325L 195 325L 185 325L 185 315L 185 305L 175 305L 165 305L 165 300L 165 295L 160 295L 155 295L 155 290L 155 285L 150 285L 145 285L 145 280L 145 275L 140 275L 135 275L 135 280L 135 285L 140 285L 145 285L 145 290L 145 295L 140 295L 135 295L 135 300L 135 305L 140 305L 145 305L 145 310L 145 315L 140 315L 135 315L 135 320L 135 325L 145 325L 155 325L 155 320L 155 315L 160 315L 165 315L 165 320L 165 325L 170 325L 175 325L 175 330L 175 335L 165 335L 155 335L 155 350L 155 365L 160 365L 165 365L 165 370L 165 375L 185 375L 205 375L 205 370L 205 365L 210 365L 215 365L 215 375L 215 385L 220 385L 225 385L 225 390L 225 395L 205 395L 185 395L 185 400L 185 405L 200 405L 215 405L 215 410L 215 415L 205 415L 195 415L 195 420L 195 425L 205 425L 215 425L 215 430L 215 435L 210 435L 205 435L 205 440L 205 445L 210 445L 215 445L 215 440L 215 435L 220 435L 225 435L 225 445L 225 455L 210 455L 195 455L 195 460L 195 465L 205 465L 215 465L 215 470L 215 475L 225 475L 235 475L 235 480L 235 485L 240 485L 245 485L 245 490L 245 495L 250 495L 255 495L 255 490L 255 485L 260 485L 265 485L 265 495L 265 505L 255 505L 245 505L 245 510L 245 515L 255 515L 265 515L 265 530L 265 545L 270 545L 275 545L 275 550L 275 555L 285 555L 295 555L 295 560L 295 565L 300 565L 305 565L 305 570L 305 575L 310 575L 315 575L 315 580L 315 585L 310 585L 305 585L 305 590L 305 595L 290 595L 275 595L 275 590L 275 585L 270 585L 265 585L 265 590L 265 595L 255 595L 245 595L 245 600L 245 605L 240 605L 235 605L 235 620L 235 635L 240 635L 245 635L 245 640L 245 645L 255 645L 265 645L 265 650L 265 655L 275 655L 285 655L 285 650L 285 645L 280 645L 275 645L 275 640L 275 635L 285 635L 295 635L 295 640L 295 645L 300 645L 305 645L 305 655L 305 665L 310 665L 315 665L 315 660L 315 655L 325 655L 335 655L 335 650L 335 645L 330 645L 325 645L 325 640L 325 635L 330 635L 335 635L 335 630L 335 625L 340 625L 345 625L 345 620L 345 615L 350 615L 355 615L 355 610L 355 605L 365 605L 375 605L 375 600L 375 595L 365 595L 355 595L 355 600L 355 605L 350 605L 345 605L 345 600L 345 595L 340 595L 335 595L 335 590L 335 585L 345 585L 355 585L 355 580L 355 575L 345 575L 335 575L 335 565L 335 555L 345 555L 355 555L 355 560L 355 565L 375 565L 395 565L 395 570L 395 575L 400 575L 405 575L 405 570L 405 565L 415 565L 425 565L 425 560L 425 555L 430 555L 435 555L 435 560L 435 565L 440 565L 445 565L 445 560L 445 555L 455 555L 465 555L 465 560L 465 565L 460 565L 455 565L 455 575L 455 585L 470 585L 485 585L 485 590L 485 595L 490 595L 495 595L 495 590L 495 585L 500 585L 505 585L 505 580L 505 575L 510 575L 515 575L 515 570L 515 565L 520 565L 525 565L 525 570L 525 575L 530 575L 535 575L 535 565L 535 555L 530 555L 525 555L 525 550L 525 545L 530 545L 535 545L 535 540L 535 535L 530 535L 525 535L 525 530L 525 525L 530 525L 535 525L 535 520L 535 515L 530 515L 525 515L 525 505L 525 495L 530 495L 535 495L 535 490L 535 485L 530 485L 525 485L 525 480L 525 475L 535 475L 545 475L 545 470L 545 465L 550 465L 555 465L 555 460L 555 455L 550 455L 545 455L 545 460L 545 465L 540 465L 535 465L 535 455L 535 445L 530 445L 525 445L 525 440L 525 435L 530 435L 535 435L 535 430L 535 425L 530 425L 525 425L 525 420L 525 415L 530 415L 535 415L 535 405L 535 395L 515 395L 495 395L 495 390L 495 385L 515 385L 535 385L 535 375L 535 365L 545 365L 555 365L 555 370L 555 375L 560 375L 565 375L 565 365L 565 355L 570 355L 575 355L 575 350L 575 345L 580 345L 585 345L 585 340L 585 335L 590 335L 595 335L 595 340L 595 345L 615 345L 635 345L 635 350L 635 355L 620 355L 605 355L 605 370L 605 385L 610 385L 615 385L 615 390L 615 395L 620 395L 625 395L 625 380L 625 365L 630 365L 635 365L 635 360L 635 355L 640 355L 645 355L 645 350L 645 345L 640 345L 635 345L 635 340L 635 335L 630 335L 625 335L 625 330L 625 325L 630 325L 635 325L 635 320L 635 315L 630 315L 625 315L 625 320L 625 325L 615 325L 605 325L 605 330L 605 335L 600 335L 595 335L 595 320L 595 305L 590 305L 585 305L 585 295L 585 285L 590 285L 595 285L 595 275L 595 265L 590 265L 585 265L 585 270L 585 275L 580 275L 575 275L 575 270L 575 265L 570 265L 565 265L 565 260L 565 255L 560 255L 555 255L 555 265L 555 275L 550 275L 545 275L 545 270L 545 265L 540 265L 535 265L 535 255L 535 245L 530 245L 525 245L 525 235L 525 225L 530 225L 535 225L 535 230L 535 235L 540 235L 545 235L 545 230L 545 225L 540 225L 535 225L 535 215L 535 205L 530 205L 525 205L 525 215L 525 225L 520 225L 515 225L 515 235L 515 245L 505 245L 495 245L 495 240L 495 235L 500 235L 505 235L 505 220L 505 205L 500 205L 495 205L 495 195L 495 185L 490 185L 485 185L 485 195L 485 205L 480 205L 475 205L 475 210L 475 215L 470 215L 465 215L 465 210L 465 205L 460 205L 455 205L 455 235L 455 265L 445 265L 435 265L 435 260L 435 255L 440 255L 445 255L 445 240L 445 225L 435 225L 425 225L 425 235L 425 245L 430 245L 435 245L 435 250L 435 255L 430 255L 425 255L 425 260L 425 265L 420 265L 415 265L 415 235L 415 205L 410 205L 405 205L 405 195L 405 185L 400 185L 395 185L 395 195L 395 205L 390 205L 385 205L 385 210L 385 215L 380 215L 375 215L 375 220L 375 225L 385 225L 395 225L 395 235L 395 245L 385 245L 375 245L 375 240L 375 235L 370 235L 365 235L 365 225L 365 215L 360 215L 355 215L 355 210L 355 205L 360 205L 365 205L 365 195L 365 185L 370 185L 375 185L 375 180L 375 175L 365 175L 355 175L 355 170L 355 165L 350 165L 345 165L 345 160L 345 155L 340 155L 335 155L 335 160L 335 165L 330 165L 325 165L 325 170L 325 175L 320 175L 315 175L 315 180L 315 185L 305 185L 295 185L 295 190L 295 195L 285 195L 275 195L 275 205L 275 215L 265 215L 255 215L 255 205L 255 195L 250 195L 245 195L 245 185L 245 175L 240 175L 235 175L 235 170L 235 165L 230 165L 225 165L 225 160L 225 155L 220 155L 215 155L 215 150L 215 145L 210 145L 205 145L 205 140L 205 135L 200 135L 195 135L 195 140zM 215 160L 215 165L 220 165L 225 165L 225 170L 225 175L 220 175L 215 175L 215 170L 215 165L 210 165L 205 165L 205 160L 205 155L 210 155L 215 155L 215 160zM 345 180L 345 195L 350 195L 355 195L 355 200L 355 205L 350 205L 345 205L 345 215L 345 225L 350 225L 355 225L 355 230L 355 235L 350 235L 345 235L 345 230L 345 225L 340 225L 335 225L 335 235L 335 245L 340 245L 345 245L 345 260L 345 275L 350 275L 355 275L 355 280L 355 285L 360 285L 365 285L 365 275L 365 265L 370 265L 375 265L 375 260L 375 255L 365 255L 355 255L 355 250L 355 245L 365 245L 375 245L 375 250L 375 255L 380 255L 385 255L 385 260L 385 265L 390 265L 395 265L 395 270L 395 275L 390 275L 385 275L 385 280L 385 285L 390 285L 395 285L 395 290L 395 295L 400 295L 405 295L 405 300L 405 305L 410 305L 415 305L 415 295L 415 285L 410 285L 405 285L 405 280L 405 275L 410 275L 415 275L 415 280L 415 285L 425 285L 435 285L 435 290L 435 295L 440 295L 445 295L 445 285L 445 275L 450 275L 455 275L 455 270L 455 265L 460 265L 465 265L 465 255L 465 245L 470 245L 475 245L 475 235L 475 225L 480 225L 485 225L 485 220L 485 215L 490 215L 495 215L 495 225L 495 235L 490 235L 485 235L 485 245L 485 255L 480 255L 475 255L 475 260L 475 265L 480 265L 485 265L 485 270L 485 275L 490 275L 495 275L 495 285L 495 295L 490 295L 485 295L 485 290L 485 285L 480 285L 475 285L 475 290L 475 295L 470 295L 465 295L 465 290L 465 285L 470 285L 475 285L 475 275L 475 265L 470 265L 465 265L 465 270L 465 275L 460 275L 455 275L 455 290L 455 305L 470 305L 485 305L 485 315L 485 325L 480 325L 475 325L 475 330L 475 335L 470 335L 465 335L 465 330L 465 325L 470 325L 475 325L 475 320L 475 315L 460 315L 445 315L 445 310L 445 305L 435 305L 425 305L 425 310L 425 315L 420 315L 415 315L 415 320L 415 325L 435 325L 455 325L 455 335L 455 345L 460 345L 465 345L 465 350L 465 355L 460 355L 455 355L 455 365L 455 375L 445 375L 435 375L 435 380L 435 385L 455 385L 475 385L 475 390L 475 395L 480 395L 485 395L 485 400L 485 405L 490 405L 495 405L 495 410L 495 415L 500 415L 505 415L 505 420L 505 425L 510 425L 515 425L 515 435L 515 445L 520 445L 525 445L 525 455L 525 465L 520 465L 515 465L 515 470L 515 475L 505 475L 495 475L 495 480L 495 485L 490 485L 485 485L 485 495L 485 505L 495 505L 505 505L 505 510L 505 515L 510 515L 515 515L 515 530L 515 545L 510 545L 505 545L 505 550L 505 555L 510 555L 515 555L 515 560L 515 565L 505 565L 495 565L 495 560L 495 555L 490 555L 485 555L 485 565L 485 575L 480 575L 475 575L 475 565L 475 555L 470 555L 465 555L 465 545L 465 535L 475 535L 485 535L 485 540L 485 545L 495 545L 505 545L 505 530L 505 515L 495 515L 485 515L 485 520L 485 525L 480 525L 475 525L 475 515L 475 505L 470 505L 465 505L 465 515L 465 525L 460 525L 455 525L 455 535L 455 545L 450 545L 445 545L 445 530L 445 515L 450 515L 455 515L 455 510L 455 505L 450 505L 445 505L 445 500L 445 495L 440 495L 435 495L 435 500L 435 505L 430 505L 425 505L 425 500L 425 495L 420 495L 415 495L 415 490L 415 485L 405 485L 395 485L 395 490L 395 495L 400 495L 405 495L 405 500L 405 505L 410 505L 415 505L 415 510L 415 515L 420 515L 425 515L 425 525L 425 535L 420 535L 415 535L 415 540L 415 545L 420 545L 425 545L 425 550L 425 555L 420 555L 415 555L 415 550L 415 545L 410 545L 405 545L 405 540L 405 535L 400 535L 395 535L 395 540L 395 545L 390 545L 385 545L 385 550L 385 555L 380 555L 375 555L 375 550L 375 545L 370 545L 365 545L 365 550L 365 555L 360 555L 355 555L 355 550L 355 545L 340 545L 325 545L 325 550L 325 555L 320 555L 315 555L 315 550L 315 545L 310 545L 305 545L 305 550L 305 555L 300 555L 295 555L 295 550L 295 545L 300 545L 305 545L 305 540L 305 535L 315 535L 325 535L 325 530L 325 525L 320 525L 315 525L 315 520L 315 515L 310 515L 305 515L 305 520L 305 525L 300 525L 295 525L 295 530L 295 535L 290 535L 285 535L 285 540L 285 545L 280 545L 275 545L 275 540L 275 535L 280 535L 285 535L 285 515L 285 495L 280 495L 275 495L 275 490L 275 485L 285 485L 295 485L 295 470L 295 455L 290 455L 285 455L 285 450L 285 445L 275 445L 265 445L 265 450L 265 455L 270 455L 275 455L 275 460L 275 465L 280 465L 285 465L 285 470L 285 475L 280 475L 275 475L 275 470L 275 465L 270 465L 265 465L 265 470L 265 475L 260 475L 255 475L 255 470L 255 465L 260 465L 265 465L 265 460L 265 455L 260 455L 255 455L 255 450L 255 445L 245 445L 235 445L 235 440L 235 435L 240 435L 245 435L 245 430L 245 425L 240 425L 235 425L 235 420L 235 415L 230 415L 225 415L 225 410L 225 405L 230 405L 235 405L 235 400L 235 395L 250 395L 265 395L 265 390L 265 385L 270 385L 275 385L 275 375L 275 365L 285 365L 295 365L 295 360L 295 355L 305 355L 315 355L 315 365L 315 375L 310 375L 305 375L 305 380L 305 385L 300 385L 295 385L 295 390L 295 395L 305 395L 315 395L 315 390L 315 385L 320 385L 325 385L 325 370L 325 355L 330 355L 335 355L 335 360L 335 365L 340 365L 345 365L 345 355L 345 345L 330 345L 315 345L 315 340L 315 335L 325 335L 335 335L 335 330L 335 325L 330 325L 325 325L 325 320L 325 315L 315 315L 305 315L 305 330L 305 345L 295 345L 285 345L 285 340L 285 335L 280 335L 275 335L 275 340L 275 345L 265 345L 255 345L 255 350L 255 355L 250 355L 245 355L 245 360L 245 365L 255 365L 265 365L 265 370L 265 375L 260 375L 255 375L 255 380L 255 385L 250 385L 245 385L 245 380L 245 375L 240 375L 235 375L 235 380L 235 385L 230 385L 225 385L 225 375L 225 365L 230 365L 235 365L 235 360L 235 355L 240 355L 245 355L 245 345L 245 335L 240 335L 235 335L 235 330L 235 325L 250 325L 265 325L 265 310L 265 295L 260 295L 255 295L 255 290L 255 285L 250 285L 245 285L 245 300L 245 315L 235 315L 225 315L 225 310L 225 305L 215 305L 205 305L 205 300L 205 295L 220 295L 235 295L 235 290L 235 285L 240 285L 245 285L 245 280L 245 275L 250 275L 255 275L 255 270L 255 265L 250 265L 245 265L 245 260L 245 255L 240 255L 235 255L 235 250L 235 245L 230 245L 225 245L 225 250L 225 255L 215 255L 205 255L 205 260L 205 265L 220 265L 235 265L 235 270L 235 275L 230 275L 225 275L 225 280L 225 285L 220 285L 215 285L 215 280L 215 275L 210 275L 205 275L 205 270L 205 265L 200 265L 195 265L 195 270L 195 275L 190 275L 185 275L 185 280L 185 285L 180 285L 175 285L 175 280L 175 275L 170 275L 165 275L 165 270L 165 265L 170 265L 175 265L 175 270L 175 275L 180 275L 185 275L 185 265L 185 255L 190 255L 195 255L 195 250L 195 245L 200 245L 205 245L 205 235L 205 225L 210 225L 215 225L 215 220L 215 215L 220 215L 225 215L 225 205L 225 195L 220 195L 215 195L 215 190L 215 185L 225 185L 235 185L 235 190L 235 195L 240 195L 245 195L 245 200L 245 205L 240 205L 235 205L 235 210L 235 215L 230 215L 225 215L 225 220L 225 225L 235 225L 245 225L 245 240L 245 255L 250 255L 255 255L 255 245L 255 235L 265 235L 275 235L 275 225L 275 215L 280 215L 285 215L 285 210L 285 205L 290 205L 295 205L 295 210L 295 215L 300 215L 305 215L 305 225L 305 235L 310 235L 315 235L 315 245L 315 255L 310 255L 305 255L 305 280L 305 305L 315 305L 325 305L 325 310L 325 315L 330 315L 335 315L 335 320L 335 325L 340 325L 345 325L 345 315L 345 305L 340 305L 335 305L 335 295L 335 285L 340 285L 345 285L 345 280L 345 275L 340 275L 335 275L 335 260L 335 245L 330 245L 325 245L 325 230L 325 215L 320 215L 315 215L 315 210L 315 205L 320 205L 325 205L 325 200L 325 195L 320 195L 315 195L 315 190L 315 185L 320 185L 325 185L 325 180L 325 175L 330 175L 335 175L 335 170L 335 165L 340 165L 345 165L 345 180zM 405 220L 405 225L 400 225L 395 225L 395 220L 395 215L 400 215L 405 215L 405 220zM 175 250L 175 255L 170 255L 165 255L 165 250L 165 245L 170 245L 175 245L 175 250zM 405 250L 405 255L 400 255L 395 255L 395 250L 395 245L 400 245L 405 245L 405 250zM 525 255L 525 265L 515 265L 505 265L 505 260L 505 255L 510 255L 515 255L 515 250L 515 245L 520 245L 525 245L 525 255zM 325 285L 325 295L 320 295L 315 295L 315 285L 315 275L 320 275L 325 275L 325 285zM 515 280L 515 285L 510 285L 505 285L 505 280L 505 275L 510 275L 515 275L 515 280zM 545 285L 545 295L 560 295L 575 295L 575 300L 575 305L 580 305L 585 305L 585 310L 585 315L 580 315L 575 315L 575 310L 575 305L 560 305L 545 305L 545 320L 545 335L 550 335L 555 335L 555 330L 555 325L 565 325L 575 325L 575 330L 575 335L 565 335L 555 335L 555 340L 555 345L 545 345L 535 345L 535 325L 535 305L 525 305L 515 305L 515 320L 515 335L 520 335L 525 335L 525 340L 525 345L 520 345L 515 345L 515 355L 515 365L 520 365L 525 365L 525 360L 525 355L 530 355L 535 355L 535 360L 535 365L 530 365L 525 365L 525 370L 525 375L 520 375L 515 375L 515 370L 515 365L 495 365L 475 365L 475 370L 475 375L 470 375L 465 375L 465 370L 465 365L 470 365L 475 365L 475 355L 475 345L 485 345L 495 345L 495 350L 495 355L 500 355L 505 355L 505 340L 505 325L 500 325L 495 325L 495 315L 495 305L 500 305L 505 305L 505 300L 505 295L 520 295L 535 295L 535 285L 535 275L 540 275L 545 275L 545 285zM 185 345L 185 355L 190 355L 195 355L 195 350L 195 345L 200 345L 205 345L 205 350L 205 355L 200 355L 195 355L 195 360L 195 365L 180 365L 165 365L 165 360L 165 355L 170 355L 175 355L 175 345L 175 335L 180 335L 185 335L 185 345zM 525 410L 525 415L 520 415L 515 415L 515 410L 515 405L 520 405L 525 405L 525 410zM 245 465L 245 475L 240 475L 235 475L 235 465L 235 455L 240 455L 245 455L 245 465zM 525 490L 525 495L 520 495L 515 495L 515 490L 515 485L 520 485L 525 485L 525 490zM 275 510L 275 515L 270 515L 265 515L 265 510L 265 505L 270 505L 275 505L 275 510zM 405 560L 405 565L 400 565L 395 565L 395 560L 395 555L 400 555L 405 555L 405 560zM 325 570L 325 575L 320 575L 315 575L 315 570L 315 565L 320 565L 325 565L 325 570zM 325 590L 325 595L 330 595L 335 595L 335 600L 335 605L 340 605L 345 605L 345 610L 345 615L 340 615L 335 615L 335 610L 335 605L 330 605L 325 605L 325 610L 325 615L 315 615L 305 615L 305 610L 305 605L 310 605L 315 605L 315 595L 315 585L 320 585L 325 585L 325 590zM 275 600L 275 605L 285 605L 295 605L 295 610L 295 615L 290 615L 285 615L 285 620L 285 625L 280 625L 275 625L 275 615L 275 605L 270 605L 265 605L 265 615L 265 625L 260 625L 255 625L 255 630L 255 635L 250 635L 245 635L 245 630L 245 625L 250 625L 255 625L 255 615L 255 605L 260 605L 265 605L 265 600L 265 595L 270 595L 275 595L 275 600zM 315 635L 315 645L 310 645L 305 645L 305 635L 305 625L 310 625L 315 625L 315 635z"/>
<path style="stroke:none; fill:#000000" d="M 335 200L 335 205L 330 205L 325 205L 325 210L 325 215L 330 215L 335 215L 335 210L 335 205L 340 205L 345 205L 345 200L 345 195L 340 195L 335 195L 335 200z"/>
<path style="stroke:none; fill:#000000" d="M 285 225L 285 235L 280 235L 275 235L 275 240L 275 245L 270 245L 265 245L 265 250L 265 255L 260 255L 255 255L 255 260L 255 265L 265 265L 275 265L 275 260L 275 255L 280 255L 285 255L 285 265L 285 275L 280 275L 275 275L 275 280L 275 285L 285 285L 295 285L 295 270L 295 255L 300 255L 305 255L 305 245L 305 235L 300 235L 295 235L 295 225L 295 215L 290 215L 285 215L 285 225z"/>
<path style="stroke:none; fill:#000000" d="M 255 280L 255 285L 260 285L 265 285L 265 280L 265 275L 260 275L 255 275L 255 280z"/>
<path style="stroke:none; fill:#000000" d="M 365 295L 365 305L 370 305L 375 305L 375 300L 375 295L 380 295L 385 295L 385 300L 385 305L 390 305L 395 305L 395 315L 395 325L 400 325L 405 325L 405 335L 405 345L 400 345L 395 345L 395 350L 395 355L 390 355L 385 355L 385 365L 385 375L 380 375L 375 375L 375 370L 375 365L 360 365L 345 365L 345 375L 345 385L 350 385L 355 385L 355 380L 355 375L 365 375L 375 375L 375 380L 375 385L 370 385L 365 385L 365 390L 365 395L 350 395L 335 395L 335 400L 335 405L 315 405L 295 405L 295 400L 295 395L 290 395L 285 395L 285 390L 285 385L 280 385L 275 385L 275 395L 275 405L 285 405L 295 405L 295 415L 295 425L 300 425L 305 425L 305 420L 305 415L 315 415L 325 415L 325 420L 325 425L 330 425L 335 425L 335 430L 335 435L 345 435L 355 435L 355 440L 355 445L 340 445L 325 445L 325 460L 325 475L 315 475L 305 475L 305 480L 305 485L 310 485L 315 485L 315 490L 315 495L 305 495L 295 495L 295 500L 295 505L 305 505L 315 505L 315 500L 315 495L 325 495L 335 495L 335 490L 335 485L 340 485L 345 485L 345 480L 345 475L 350 475L 355 475L 355 480L 355 485L 360 485L 365 485L 365 475L 365 465L 360 465L 355 465L 355 455L 355 445L 360 445L 365 445L 365 440L 365 435L 370 435L 375 435L 375 450L 375 465L 385 465L 395 465L 395 460L 395 455L 400 455L 405 455L 405 465L 405 475L 410 475L 415 475L 415 470L 415 465L 420 465L 425 465L 425 475L 425 485L 440 485L 455 485L 455 495L 455 505L 460 505L 465 505L 465 500L 465 495L 470 495L 475 495L 475 485L 475 475L 460 475L 445 475L 445 470L 445 465L 440 465L 435 465L 435 460L 435 455L 445 455L 455 455L 455 460L 455 465L 470 465L 485 465L 485 470L 485 475L 490 475L 495 475L 495 465L 495 455L 500 455L 505 455L 505 445L 505 435L 500 435L 495 435L 495 430L 495 425L 490 425L 485 425L 485 420L 485 415L 480 415L 475 415L 475 410L 475 405L 470 405L 465 405L 465 400L 465 395L 460 395L 455 395L 455 400L 455 405L 450 405L 445 405L 445 400L 445 395L 440 395L 435 395L 435 400L 435 405L 430 405L 425 405L 425 390L 425 375L 430 375L 435 375L 435 370L 435 365L 440 365L 445 365L 445 360L 445 355L 450 355L 455 355L 455 350L 455 345L 450 345L 445 345L 445 340L 445 335L 440 335L 435 335L 435 345L 435 355L 430 355L 425 355L 425 350L 425 345L 420 345L 415 345L 415 335L 415 325L 410 325L 405 325L 405 315L 405 305L 400 305L 395 305L 395 300L 395 295L 390 295L 385 295L 385 290L 385 285L 375 285L 365 285L 365 295zM 425 365L 425 375L 420 375L 415 375L 415 370L 415 365L 410 365L 405 365L 405 370L 405 375L 400 375L 395 375L 395 370L 395 365L 400 365L 405 365L 405 360L 405 355L 415 355L 425 355L 425 365zM 415 400L 415 415L 400 415L 385 415L 385 400L 385 385L 400 385L 415 385L 415 400zM 345 410L 345 415L 350 415L 355 415L 355 410L 355 405L 360 405L 365 405L 365 410L 365 415L 360 415L 355 415L 355 420L 355 425L 350 425L 345 425L 345 420L 345 415L 340 415L 335 415L 335 410L 335 405L 340 405L 345 405L 345 410zM 445 420L 445 425L 450 425L 455 425L 455 420L 455 415L 460 415L 465 415L 465 420L 465 425L 460 425L 455 425L 455 430L 455 435L 460 435L 465 435L 465 440L 465 445L 470 445L 475 445L 475 435L 475 425L 480 425L 485 425L 485 430L 485 435L 490 435L 495 435L 495 440L 495 445L 490 445L 485 445L 485 450L 485 455L 475 455L 465 455L 465 450L 465 445L 455 445L 445 445L 445 435L 445 425L 440 425L 435 425L 435 420L 435 415L 440 415L 445 415L 445 420zM 385 430L 385 435L 395 435L 405 435L 405 440L 405 445L 410 445L 415 445L 415 435L 415 425L 420 425L 425 425L 425 435L 425 445L 430 445L 435 445L 435 450L 435 455L 430 455L 425 455L 425 450L 425 445L 420 445L 415 445L 415 450L 415 455L 410 455L 405 455L 405 450L 405 445L 400 445L 395 445L 395 450L 395 455L 390 455L 385 455L 385 445L 385 435L 380 435L 375 435L 375 430L 375 425L 380 425L 385 425L 385 430zM 335 480L 335 485L 330 485L 325 485L 325 480L 325 475L 330 475L 335 475L 335 480z"/>
<path style="stroke:none; fill:#000000" d="M 395 400L 395 405L 400 405L 405 405L 405 400L 405 395L 400 395L 395 395L 395 400z"/>
<path style="stroke:none; fill:#000000" d="M 285 300L 285 305L 280 305L 275 305L 275 310L 275 315L 280 315L 285 315L 285 310L 285 305L 290 305L 295 305L 295 310L 295 315L 300 315L 305 315L 305 310L 305 305L 300 305L 295 305L 295 300L 295 295L 290 295L 285 295L 285 300z"/>
<path style="stroke:none; fill:#000000" d="M 345 300L 345 305L 350 305L 355 305L 355 300L 355 295L 350 295L 345 295L 345 300z"/>
<path style="stroke:none; fill:#000000" d="M 355 320L 355 325L 360 325L 365 325L 365 330L 365 335L 375 335L 385 335L 385 330L 385 325L 375 325L 365 325L 365 320L 365 315L 360 315L 355 315L 355 320z"/>
<path style="stroke:none; fill:#000000" d="M 265 330L 265 335L 270 335L 275 335L 275 330L 275 325L 270 325L 265 325L 265 330z"/>
<path style="stroke:none; fill:#000000" d="M 345 340L 345 345L 350 345L 355 345L 355 350L 355 355L 360 355L 365 355L 365 350L 365 345L 360 345L 355 345L 355 340L 355 335L 350 335L 345 335L 345 340z"/>
<path style="stroke:none; fill:#000000" d="M 235 410L 235 415L 240 415L 245 415L 245 420L 245 425L 250 425L 255 425L 255 435L 255 445L 260 445L 265 445L 265 435L 265 425L 270 425L 275 425L 275 430L 275 435L 280 435L 285 435L 285 425L 285 415L 275 415L 265 415L 265 410L 265 405L 260 405L 255 405L 255 410L 255 415L 250 415L 245 415L 245 410L 245 405L 240 405L 235 405L 235 410z"/>
<path style="stroke:none; fill:#000000" d="M 295 450L 295 455L 300 455L 305 455L 305 460L 305 465L 310 465L 315 465L 315 460L 315 455L 310 455L 305 455L 305 450L 305 445L 300 445L 295 445L 295 450z"/>
<path style="stroke:none; fill:#000000" d="M 375 480L 375 485L 385 485L 395 485L 395 480L 395 475L 385 475L 375 475L 375 480z"/>
<path style="stroke:none; fill:#000000" d="M 345 500L 345 505L 350 505L 355 505L 355 515L 355 525L 350 525L 345 525L 345 520L 345 515L 340 515L 335 515L 335 510L 335 505L 330 505L 325 505L 325 515L 325 525L 330 525L 335 525L 335 530L 335 535L 345 535L 355 535L 355 540L 355 545L 360 545L 365 545L 365 540L 365 535L 360 535L 355 535L 355 530L 355 525L 360 525L 365 525L 365 515L 365 505L 360 505L 355 505L 355 500L 355 495L 350 495L 345 495L 345 500z"/>
<path style="stroke:none; fill:#000000" d="M 375 500L 375 505L 380 505L 385 505L 385 510L 385 515L 380 515L 375 515L 375 520L 375 525L 390 525L 405 525L 405 520L 405 515L 400 515L 395 515L 395 505L 395 495L 385 495L 375 495L 375 500z"/>
<path style="stroke:none; fill:#000000" d="M 375 540L 375 545L 380 545L 385 545L 385 540L 385 535L 380 535L 375 535L 375 540z"/>
<path style="stroke:none; fill:#000000" d="M 315 140L 315 145L 320 145L 325 145L 325 140L 325 135L 320 135L 315 135L 315 140z"/>
<path style="stroke:none; fill:#000000" d="M 595 140L 595 145L 600 145L 605 145L 605 140L 605 135L 600 135L 595 135L 595 140z"/>
<path style="stroke:none; fill:#000000" d="M 625 240L 625 245L 630 245L 635 245L 635 240L 635 235L 630 235L 625 235L 625 240z"/>
<path style="stroke:none; fill:#000000" d="M 695 330L 695 335L 700 335L 705 335L 705 330L 705 325L 700 325L 695 325L 695 330z"/>
<path style="stroke:none; fill:#000000" d="M 175 470L 175 475L 180 475L 185 475L 185 470L 185 465L 180 465L 175 465L 175 470z"/>
<path style="stroke:none; fill:#000000" d="M 175 490L 175 495L 180 495L 185 495L 185 490L 185 485L 180 485L 175 485L 175 490z"/>
<path style="stroke:none; fill:#000000" d="M 285 580L 285 585L 290 585L 295 585L 295 580L 295 575L 290 575L 285 575L 285 580z"/>
<path style="stroke:none; fill:#000000" d="M 375 580L 375 585L 380 585L 385 585L 385 580L 385 575L 380 575L 375 575L 375 580z"/>
<path style="stroke:none; fill:#000000" d="M 415 580L 415 585L 420 585L 425 585L 425 580L 425 575L 420 575L 415 575L 415 580z"/>
<path style="stroke:none; fill:#000000" d="M 385 600L 385 605L 390 605L 395 605L 395 600L 395 595L 390 595L 385 595L 385 600z"/>
<path style="stroke:none; fill:#000000" d="M 375 620L 375 625L 385 625L 395 625L 395 620L 395 615L 385 615L 375 615L 375 620z"/>
<path style="stroke:none; fill:#000000" d="M 355 640L 355 645L 350 645L 345 645L 345 650L 345 655L 350 655L 355 655L 355 650L 355 645L 360 645L 365 645L 365 640L 365 635L 360 635L 355 635L 355 640z"/>
<path style="stroke:none; fill:#000000" d="M 575 655L 575 665L 580 665L 585 665L 585 675L 585 685L 590 685L 595 685L 595 670L 595 655L 590 655L 585 655L 585 650L 585 645L 580 645L 575 645L 575 655z"/>
<path style="stroke:none; fill:#000000" d="M 545 660L 545 665L 550 665L 555 665L 555 660L 555 655L 550 655L 545 655L 545 660z"/>
<path style="stroke:none; fill:#000000" d="M 445 130L 445 135L 450 135L 455 135L 455 140L 455 145L 460 145L 465 145L 465 140L 465 135L 460 135L 455 135L 455 130L 455 125L 450 125L 445 125L 445 130z"/>
<path style="stroke:none; fill:#000000" d="M 395 140L 395 145L 400 145L 405 145L 405 140L 405 135L 400 135L 395 135L 395 140z"/>
<path style="stroke:none; fill:#000000" d="M 135 400L 135 405L 140 405L 145 405L 145 400L 145 395L 140 395L 135 395L 135 400z"/>
<path style="stroke:none; fill:#000000" d="M 655 400L 655 405L 660 405L 665 405L 665 400L 665 395L 660 395L 655 395L 655 400z"/>
<path style="stroke:none; fill:#000000" d="M 645 510L 645 515L 650 515L 655 515L 655 510L 655 505L 650 505L 645 505L 645 510z"/>
<path style="stroke:none; fill:#000000" d="M 665 510L 665 515L 670 515L 675 515L 675 510L 675 505L 670 505L 665 505L 665 510z"/>
<path style="stroke:none; fill:#000000" d="M 485 680L 485 685L 490 685L 495 685L 495 680L 495 675L 490 675L 485 675L 485 680z"/>
<path style="stroke:none; fill:#000000" d="M 395 660L 395 665L 400 665L 405 665L 405 660L 405 655L 400 655L 395 655L 395 660z"/>
<path style="stroke:none; fill:#000000" d="M 655 660L 655 665L 660 665L 665 665L 665 660L 665 655L 660 655L 655 655L 655 660z"/>
<path style="stroke:none; fill:#000000" d="M 655 110L 655 145L 690 145L 725 145L 725 110L 725 75L 690 75L 655 75L 655 110zM 715 110L 715 135L 690 135L 665 135L 665 110L 665 85L 690 85L 715 85L 715 110z"/>
<path style="stroke:none; fill:#000000" d="M 675 110L 675 125L 690 125L 705 125L 705 110L 705 95L 690 95L 675 95L 675 110z"/>
<path style="stroke:none; fill:#000000" d="M 385 100L 385 105L 390 105L 395 105L 395 100L 395 95L 390 95L 385 95L 385 100z"/>
<path style="stroke:none; fill:#000000" d="M 635 140L 635 145L 640 145L 645 145L 645 140L 645 135L 640 135L 635 135L 635 140z"/>
<path style="stroke:none; fill:#000000" d="M 715 170L 715 185L 710 185L 705 185L 705 190L 705 195L 710 195L 715 195L 715 190L 715 185L 720 185L 725 185L 725 170L 725 155L 720 155L 715 155L 715 170z"/>
<path style="stroke:none; fill:#000000" d="M 715 215L 715 225L 710 225L 705 225L 705 230L 705 235L 715 235L 725 235L 725 220L 725 205L 720 205L 715 205L 715 215z"/>
<path style="stroke:none; fill:#000000" d="M 75 320L 75 325L 80 325L 85 325L 85 320L 85 315L 80 315L 75 315L 75 320z"/>
<path style="stroke:none; fill:#000000" d="M 75 515L 75 525L 95 525L 115 525L 115 515L 115 505L 95 505L 75 505L 75 515z"/>
<path style="stroke:none; fill:#000000" d="M 75 545L 75 555L 80 555L 85 555L 85 560L 85 565L 80 565L 75 565L 75 570L 75 575L 80 575L 85 575L 85 585L 85 595L 80 595L 75 595L 75 605L 75 615L 80 615L 85 615L 85 610L 85 605L 100 605L 115 605L 115 610L 115 615L 105 615L 95 615L 95 620L 95 625L 100 625L 105 625L 105 630L 105 635L 95 635L 85 635L 85 630L 85 625L 80 625L 75 625L 75 630L 75 635L 80 635L 85 635L 85 640L 85 645L 95 645L 105 645L 105 640L 105 635L 110 635L 115 635L 115 640L 115 645L 120 645L 125 645L 125 640L 125 635L 120 635L 115 635L 115 625L 115 615L 120 615L 125 615L 125 620L 125 625L 135 625L 145 625L 145 620L 145 615L 135 615L 125 615L 125 610L 125 605L 120 605L 115 605L 115 600L 115 595L 125 595L 135 595L 135 600L 135 605L 140 605L 145 605L 145 600L 145 595L 140 595L 135 595L 135 590L 135 585L 140 585L 145 585L 145 580L 145 575L 140 575L 135 575L 135 580L 135 585L 125 585L 115 585L 115 590L 115 595L 105 595L 95 595L 95 590L 95 585L 100 585L 105 585L 105 580L 105 575L 115 575L 125 575L 125 560L 125 545L 115 545L 105 545L 105 540L 105 535L 100 535L 95 535L 95 545L 95 555L 90 555L 85 555L 85 545L 85 535L 80 535L 75 535L 75 545zM 105 570L 105 575L 100 575L 95 575L 95 570L 95 565L 100 565L 105 565L 105 570z"/>
<path style="stroke:none; fill:#000000" d="M 715 655L 715 665L 710 665L 705 665L 705 675L 705 685L 710 685L 715 685L 715 675L 715 665L 720 665L 725 665L 725 655L 725 645L 720 645L 715 645L 715 655z"/>
<path style="stroke:none; fill:#000000" d="M 75 690L 75 725L 110 725L 145 725L 145 690L 145 655L 110 655L 75 655L 75 690zM 135 690L 135 715L 110 715L 85 715L 85 690L 85 665L 110 665L 135 665L 135 690z"/>
<path style="stroke:none; fill:#000000" d="M 95 690L 95 705L 110 705L 125 705L 125 690L 125 675L 110 675L 95 675L 95 690z"/>
<path style="stroke:none; fill:#000000" d="M 705 710L 705 725L 710 725L 715 725L 715 720L 715 715L 720 715L 725 715L 725 705L 725 695L 715 695L 705 695L 705 710z"/>
</g>
</g>
</svg>