<?xml version="1.0" encoding="UTF-8" standalone="yes"?>
<!-- Created with sK1/UniConvertor (http://sk1project.org/) -->
<svg xmlns="http://www.w3.org/2000/svg" xmlns:xlink="http://www.w3.org/1999/xlink"
  width="800pt" height="800pt" viewBox="0 0 800 800"
  fill-rule="evenodd">
<g>
<g>
<path style="stroke:none; fill:#000000" d="M 71 102.5L 71 134L 102.5 134L 134 134L 134 102.5L 134 71L 102.5 71L 71 71L 71 102.5zM 125 102.5L 125 125L 102.5 125L 80 125L 80 102.5L 80 80L 102.5 80L 125 80L 125 102.5z"/>
<path style="stroke:none; fill:#000000" d="M 89 102.5L 89 116L 102.5 116L 116 116L 116 102.5L 116 89L 102.5 89L 89 89L 89 102.5z"/>
<path style="stroke:none; fill:#000000" d="M 161 75.5L 161 80L 174.5 80L 188 80L 188 84.5L 188 89L 179 89L 170 89L 170 98L 170 107L 165.5 107L 161 107L 161 102.5L 161 98L 156.5 98L 152 98L 152 93.5L 152 89L 147.5 89L 143 89L 143 116L 143 143L 147.5 143L 152 143L 152 147.5L 152 152L 143 152L 134 152L 134 147.5L 134 143L 111.5 143L 89 143L 89 147.5L 89 152L 84.5 152L 80 152L 80 147.5L 80 143L 75.5 143L 71 143L 71 147.5L 71 152L 75.5 152L 80 152L 80 156.5L 80 161L 84.5 161L 89 161L 89 156.5L 89 152L 93.5 152L 98 152L 98 156.5L 98 161L 102.5 161L 107 161L 107 156.5L 107 152L 120.5 152L 134 152L 134 156.5L 134 161L 129.5 161L 125 161L 125 165.5L 125 170L 129.5 170L 134 170L 134 174.5L 134 179L 129.5 179L 125 179L 125 183.5L 125 188L 120.5 188L 116 188L 116 192.5L 116 197L 111.5 197L 107 197L 107 188L 107 179L 102.5 179L 98 179L 98 174.5L 98 170L 89 170L 80 170L 80 174.5L 80 179L 75.5 179L 71 179L 71 197L 71 215L 75.5 215L 80 215L 80 210.5L 80 206L 84.5 206L 89 206L 89 210.5L 89 215L 93.5 215L 98 215L 98 210.5L 98 206L 93.5 206L 89 206L 89 197L 89 188L 93.5 188L 98 188L 98 192.5L 98 197L 102.5 197L 107 197L 107 201.5L 107 206L 111.5 206L 116 206L 116 210.5L 116 215L 111.5 215L 107 215L 107 219.5L 107 224L 98 224L 89 224L 89 228.5L 89 233L 84.5 233L 80 233L 80 242L 80 251L 75.5 251L 71 251L 71 255.5L 71 260L 84.5 260L 98 260L 98 246.5L 98 233L 102.5 233L 107 233L 107 255.5L 107 278L 111.5 278L 116 278L 116 264.5L 116 251L 120.5 251L 125 251L 125 255.5L 125 260L 129.5 260L 134 260L 134 264.5L 134 269L 129.5 269L 125 269L 125 273.5L 125 278L 129.5 278L 134 278L 134 273.5L 134 269L 138.5 269L 143 269L 143 273.5L 143 278L 147.5 278L 152 278L 152 282.5L 152 287L 129.5 287L 107 287L 107 309.5L 107 332L 111.5 332L 116 332L 116 336.5L 116 341L 120.5 341L 125 341L 125 345.5L 125 350L 129.5 350L 134 350L 134 345.5L 134 341L 138.5 341L 143 341L 143 350L 143 359L 129.5 359L 116 359L 116 354.5L 116 350L 111.5 350L 107 350L 107 345.5L 107 341L 102.5 341L 98 341L 98 332L 98 323L 93.5 323L 89 323L 89 318.5L 89 314L 84.5 314L 80 314L 80 300.5L 80 287L 84.5 287L 89 287L 89 291.5L 89 296L 93.5 296L 98 296L 98 291.5L 98 287L 93.5 287L 89 287L 89 282.5L 89 278L 93.5 278L 98 278L 98 273.5L 98 269L 84.5 269L 71 269L 71 296L 71 323L 75.5 323L 80 323L 80 341L 80 359L 75.5 359L 71 359L 71 363.5L 71 368L 75.5 368L 80 368L 80 372.5L 80 377L 89 377L 98 377L 98 372.5L 98 368L 102.5 368L 107 368L 107 381.5L 107 395L 116 395L 125 395L 125 399.5L 125 404L 129.5 404L 134 404L 134 399.5L 134 395L 129.5 395L 125 395L 125 390.5L 125 386L 134 386L 143 386L 143 390.5L 143 395L 152 395L 161 395L 161 386L 161 377L 165.5 377L 170 377L 170 381.5L 170 386L 179 386L 188 386L 188 390.5L 188 395L 183.5 395L 179 395L 179 422L 179 449L 174.5 449L 170 449L 170 444.5L 170 440L 161 440L 152 440L 152 444.5L 152 449L 147.5 449L 143 449L 143 453.5L 143 458L 138.5 458L 134 458L 134 453.5L 134 449L 129.5 449L 125 449L 125 453.5L 125 458L 120.5 458L 116 458L 116 453.5L 116 449L 111.5 449L 107 449L 107 462.5L 107 476L 102.5 476L 98 476L 98 453.5L 98 431L 107 431L 116 431L 116 435.5L 116 440L 125 440L 134 440L 134 435.5L 134 431L 138.5 431L 143 431L 143 426.5L 143 422L 138.5 422L 134 422L 134 417.5L 134 413L 129.5 413L 125 413L 125 417.5L 125 422L 116 422L 107 422L 107 417.5L 107 413L 111.5 413L 116 413L 116 408.5L 116 404L 107 404L 98 404L 98 417.5L 98 431L 84.5 431L 71 431L 71 453.5L 71 476L 75.5 476L 80 476L 80 480.5L 80 485L 75.5 485L 71 485L 71 494L 71 503L 80 503L 89 503L 89 507.5L 89 512L 93.5 512L 98 512L 98 516.5L 98 521L 89 521L 80 521L 80 525.5L 80 530L 75.5 530L 71 530L 71 534.5L 71 539L 75.5 539L 80 539L 80 548L 80 557L 75.5 557L 71 557L 71 561.5L 71 566L 84.5 566L 98 566L 98 561.5L 98 557L 93.5 557L 89 557L 89 552.5L 89 548L 93.5 548L 98 548L 98 543.5L 98 539L 102.5 539L 107 539L 107 534.5L 107 530L 111.5 530L 116 530L 116 534.5L 116 539L 120.5 539L 125 539L 125 543.5L 125 548L 129.5 548L 134 548L 134 543.5L 134 539L 138.5 539L 143 539L 143 548L 143 557L 134 557L 125 557L 125 561.5L 125 566L 134 566L 143 566L 143 570.5L 143 575L 107 575L 71 575L 71 588.5L 71 602L 80 602L 89 602L 89 593L 89 584L 111.5 584L 134 584L 134 588.5L 134 593L 125 593L 116 593L 116 597.5L 116 602L 111.5 602L 107 602L 107 597.5L 107 593L 102.5 593L 98 593L 98 602L 98 611L 84.5 611L 71 611L 71 624.5L 71 638L 80 638L 89 638L 89 633.5L 89 629L 84.5 629L 80 629L 80 624.5L 80 620L 89 620L 98 620L 98 633.5L 98 647L 102.5 647L 107 647L 107 651.5L 107 656L 111.5 656L 116 656L 116 647L 116 638L 125 638L 134 638L 134 642.5L 134 647L 129.5 647L 125 647L 125 651.5L 125 656L 134 656L 143 656L 143 660.5L 143 665L 147.5 665L 152 665L 152 669.5L 152 674L 147.5 674L 143 674L 143 692L 143 710L 147.5 710L 152 710L 152 714.5L 152 719L 147.5 719L 143 719L 143 723.5L 143 728L 161 728L 179 728L 179 723.5L 179 719L 192.5 719L 206 719L 206 723.5L 206 728L 210.5 728L 215 728L 215 723.5L 215 719L 224 719L 233 719L 233 723.5L 233 728L 237.5 728L 242 728L 242 719L 242 710L 246.5 710L 251 710L 251 719L 251 728L 255.5 728L 260 728L 260 723.5L 260 719L 264.5 719L 269 719L 269 723.5L 269 728L 273.5 728L 278 728L 278 723.5L 278 719L 291.5 719L 305 719L 305 723.5L 305 728L 314 728L 323 728L 323 723.5L 323 719L 314 719L 305 719L 305 714.5L 305 710L 309.5 710L 314 710L 314 705.5L 314 701L 309.5 701L 305 701L 305 696.5L 305 692L 314 692L 323 692L 323 696.5L 323 701L 327.5 701L 332 701L 332 705.5L 332 710L 336.5 710L 341 710L 341 714.5L 341 719L 336.5 719L 332 719L 332 723.5L 332 728L 345.5 728L 359 728L 359 723.5L 359 719L 354.5 719L 350 719L 350 714.5L 350 710L 345.5 710L 341 710L 341 705.5L 341 701L 345.5 701L 350 701L 350 696.5L 350 692L 341 692L 332 692L 332 687.5L 332 683L 341 683L 350 683L 350 669.5L 350 656L 345.5 656L 341 656L 341 665L 341 674L 336.5 674L 332 674L 332 656L 332 638L 336.5 638L 341 638L 341 642.5L 341 647L 345.5 647L 350 647L 350 638L 350 629L 345.5 629L 341 629L 341 624.5L 341 620L 336.5 620L 332 620L 332 615.5L 332 611L 323 611L 314 611L 314 606.5L 314 602L 309.5 602L 305 602L 305 597.5L 305 593L 296 593L 287 593L 287 588.5L 287 584L 273.5 584L 260 584L 260 570.5L 260 557L 264.5 557L 269 557L 269 566L 269 575L 278 575L 287 575L 287 570.5L 287 566L 300.5 566L 314 566L 314 570.5L 314 575L 309.5 575L 305 575L 305 579.5L 305 584L 314 584L 323 584L 323 593L 323 602L 332 602L 341 602L 341 606.5L 341 611L 345.5 611L 350 611L 350 606.5L 350 602L 345.5 602L 341 602L 341 597.5L 341 593L 350 593L 359 593L 359 588.5L 359 584L 350 584L 341 584L 341 579.5L 341 575L 350 575L 359 575L 359 570.5L 359 566L 354.5 566L 350 566L 350 561.5L 350 557L 345.5 557L 341 557L 341 552.5L 341 548L 336.5 548L 332 548L 332 543.5L 332 539L 336.5 539L 341 539L 341 534.5L 341 530L 350 530L 359 530L 359 525.5L 359 521L 363.5 521L 368 521L 368 525.5L 368 530L 372.5 530L 377 530L 377 534.5L 377 539L 372.5 539L 368 539L 368 543.5L 368 548L 363.5 548L 359 548L 359 552.5L 359 557L 363.5 557L 368 557L 368 561.5L 368 566L 372.5 566L 377 566L 377 561.5L 377 557L 381.5 557L 386 557L 386 566L 386 575L 381.5 575L 377 575L 377 579.5L 377 584L 372.5 584L 368 584L 368 588.5L 368 593L 381.5 593L 395 593L 395 602L 395 611L 381.5 611L 368 611L 368 615.5L 368 620L 363.5 620L 359 620L 359 624.5L 359 629L 363.5 629L 368 629L 368 624.5L 368 620L 372.5 620L 377 620L 377 629L 377 638L 372.5 638L 368 638L 368 647L 368 656L 363.5 656L 359 656L 359 660.5L 359 665L 363.5 665L 368 665L 368 669.5L 368 674L 372.5 674L 377 674L 377 665L 377 656L 381.5 656L 386 656L 386 651.5L 386 647L 381.5 647L 377 647L 377 642.5L 377 638L 386 638L 395 638L 395 647L 395 656L 399.5 656L 404 656L 404 660.5L 404 665L 399.5 665L 395 665L 395 669.5L 395 674L 390.5 674L 386 674L 386 678.5L 386 683L 377 683L 368 683L 368 687.5L 368 692L 363.5 692L 359 692L 359 696.5L 359 701L 363.5 701L 368 701L 368 696.5L 368 692L 372.5 692L 377 692L 377 701L 377 710L 381.5 710L 386 710L 386 714.5L 386 719L 377 719L 368 719L 368 723.5L 368 728L 377 728L 386 728L 386 723.5L 386 719L 390.5 719L 395 719L 395 723.5L 395 728L 399.5 728L 404 728L 404 723.5L 404 719L 408.5 719L 413 719L 413 723.5L 413 728L 426.5 728L 440 728L 440 723.5L 440 719L 458 719L 476 719L 476 723.5L 476 728L 480.5 728L 485 728L 485 719L 485 710L 476 710L 467 710L 467 705.5L 467 701L 462.5 701L 458 701L 458 696.5L 458 692L 467 692L 476 692L 476 696.5L 476 701L 480.5 701L 485 701L 485 696.5L 485 692L 489.5 692L 494 692L 494 705.5L 494 719L 498.5 719L 503 719L 503 723.5L 503 728L 530 728L 557 728L 557 723.5L 557 719L 530 719L 503 719L 503 714.5L 503 710L 516.5 710L 530 710L 530 705.5L 530 701L 516.5 701L 503 701L 503 696.5L 503 692L 516.5 692L 530 692L 530 687.5L 530 683L 539 683L 548 683L 548 687.5L 548 692L 543.5 692L 539 692L 539 701L 539 710L 543.5 710L 548 710L 548 701L 548 692L 552.5 692L 557 692L 557 701L 557 710L 561.5 710L 566 710L 566 719L 566 728L 570.5 728L 575 728L 575 723.5L 575 719L 584 719L 593 719L 593 723.5L 593 728L 597.5 728L 602 728L 602 723.5L 602 719L 611 719L 620 719L 620 723.5L 620 728L 633.5 728L 647 728L 647 723.5L 647 719L 651.5 719L 656 719L 656 723.5L 656 728L 660.5 728L 665 728L 665 723.5L 665 719L 669.5 719L 674 719L 674 714.5L 674 710L 660.5 710L 647 710L 647 714.5L 647 719L 642.5 719L 638 719L 638 710L 638 701L 633.5 701L 629 701L 629 696.5L 629 692L 638 692L 647 692L 647 696.5L 647 701L 660.5 701L 674 701L 674 696.5L 674 692L 687.5 692L 701 692L 701 687.5L 701 683L 705.5 683L 710 683L 710 692L 710 701L 705.5 701L 701 701L 701 705.5L 701 710L 692 710L 683 710L 683 714.5L 683 719L 687.5 719L 692 719L 692 723.5L 692 728L 710 728L 728 728L 728 723.5L 728 719L 723.5 719L 719 719L 719 714.5L 719 710L 723.5 710L 728 710L 728 696.5L 728 683L 723.5 683L 719 683L 719 678.5L 719 674L 714.5 674L 710 674L 710 669.5L 710 665L 719 665L 728 665L 728 656L 728 647L 719 647L 710 647L 710 642.5L 710 638L 714.5 638L 719 638L 719 633.5L 719 629L 705.5 629L 692 629L 692 624.5L 692 620L 687.5 620L 683 620L 683 611L 683 602L 692 602L 701 602L 701 606.5L 701 611L 705.5 611L 710 611L 710 615.5L 710 620L 719 620L 728 620L 728 615.5L 728 611L 719 611L 710 611L 710 606.5L 710 602L 719 602L 728 602L 728 597.5L 728 593L 705.5 593L 683 593L 683 588.5L 683 584L 705.5 584L 728 584L 728 579.5L 728 575L 723.5 575L 719 575L 719 570.5L 719 566L 723.5 566L 728 566L 728 561.5L 728 557L 723.5 557L 719 557L 719 561.5L 719 566L 710 566L 701 566L 701 561.5L 701 557L 674 557L 647 557L 647 548L 647 539L 656 539L 665 539L 665 543.5L 665 548L 669.5 548L 674 548L 674 543.5L 674 539L 678.5 539L 683 539L 683 543.5L 683 548L 692 548L 701 548L 701 539L 701 530L 705.5 530L 710 530L 710 525.5L 710 521L 719 521L 728 521L 728 512L 728 503L 719 503L 710 503L 710 512L 710 521L 705.5 521L 701 521L 701 507.5L 701 494L 714.5 494L 728 494L 728 480.5L 728 467L 714.5 467L 701 467L 701 462.5L 701 458L 710 458L 719 458L 719 449L 719 440L 723.5 440L 728 440L 728 435.5L 728 431L 719 431L 710 431L 710 422L 710 413L 701 413L 692 413L 692 399.5L 692 386L 696.5 386L 701 386L 701 395L 701 404L 705.5 404L 710 404L 710 395L 710 386L 719 386L 728 386L 728 372.5L 728 359L 719 359L 710 359L 710 363.5L 710 368L 714.5 368L 719 368L 719 372.5L 719 377L 705.5 377L 692 377L 692 372.5L 692 368L 687.5 368L 683 368L 683 363.5L 683 359L 678.5 359L 674 359L 674 354.5L 674 350L 669.5 350L 665 350L 665 359L 665 368L 660.5 368L 656 368L 656 363.5L 656 359L 651.5 359L 647 359L 647 363.5L 647 368L 651.5 368L 656 368L 656 372.5L 656 377L 665 377L 674 377L 674 381.5L 674 386L 678.5 386L 683 386L 683 390.5L 683 395L 678.5 395L 674 395L 674 399.5L 674 404L 669.5 404L 665 404L 665 395L 665 386L 660.5 386L 656 386L 656 390.5L 656 395L 651.5 395L 647 395L 647 386L 647 377L 638 377L 629 377L 629 386L 629 395L 624.5 395L 620 395L 620 390.5L 620 386L 611 386L 602 386L 602 381.5L 602 377L 606.5 377L 611 377L 611 372.5L 611 368L 624.5 368L 638 368L 638 345.5L 638 323L 642.5 323L 647 323L 647 327.5L 647 332L 656 332L 665 332L 665 336.5L 665 341L 669.5 341L 674 341L 674 336.5L 674 332L 678.5 332L 683 332L 683 336.5L 683 341L 687.5 341L 692 341L 692 336.5L 692 332L 696.5 332L 701 332L 701 323L 701 314L 714.5 314L 728 314L 728 300.5L 728 287L 719 287L 710 287L 710 296L 710 305L 705.5 305L 701 305L 701 300.5L 701 296L 696.5 296L 692 296L 692 291.5L 692 287L 683 287L 674 287L 674 278L 674 269L 678.5 269L 683 269L 683 264.5L 683 260L 687.5 260L 692 260L 692 255.5L 692 251L 696.5 251L 701 251L 701 233L 701 215L 692 215L 683 215L 683 210.5L 683 206L 669.5 206L 656 206L 656 197L 656 188L 660.5 188L 665 188L 665 192.5L 665 197L 674 197L 683 197L 683 192.5L 683 188L 696.5 188L 710 188L 710 192.5L 710 197L 705.5 197L 701 197L 701 201.5L 701 206L 710 206L 719 206L 719 197L 719 188L 723.5 188L 728 188L 728 183.5L 728 179L 710 179L 692 179L 692 174.5L 692 170L 710 170L 728 170L 728 161L 728 152L 719 152L 710 152L 710 147.5L 710 143L 687.5 143L 665 143L 665 147.5L 665 152L 669.5 152L 674 152L 674 156.5L 674 161L 665 161L 656 161L 656 143L 656 125L 651.5 125L 647 125L 647 129.5L 647 134L 642.5 134L 638 134L 638 125L 638 116L 647 116L 656 116L 656 111.5L 656 107L 651.5 107L 647 107L 647 102.5L 647 98L 633.5 98L 620 98L 620 102.5L 620 107L 629 107L 638 107L 638 111.5L 638 116L 633.5 116L 629 116L 629 125L 629 134L 633.5 134L 638 134L 638 138.5L 638 143L 629 143L 620 143L 620 152L 620 161L 624.5 161L 629 161L 629 156.5L 629 152L 633.5 152L 638 152L 638 156.5L 638 161L 642.5 161L 647 161L 647 165.5L 647 170L 638 170L 629 170L 629 174.5L 629 179L 624.5 179L 620 179L 620 174.5L 620 170L 615.5 170L 611 170L 611 174.5L 611 179L 606.5 179L 602 179L 602 174.5L 602 170L 597.5 170L 593 170L 593 165.5L 593 161L 584 161L 575 161L 575 156.5L 575 152L 570.5 152L 566 152L 566 156.5L 566 161L 570.5 161L 575 161L 575 165.5L 575 170L 566 170L 557 170L 557 174.5L 557 179L 552.5 179L 548 179L 548 165.5L 548 152L 552.5 152L 557 152L 557 147.5L 557 143L 561.5 143L 566 143L 566 134L 566 125L 561.5 125L 557 125L 557 134L 557 143L 552.5 143L 548 143L 548 129.5L 548 116L 566 116L 584 116L 584 120.5L 584 125L 579.5 125L 575 125L 575 129.5L 575 134L 579.5 134L 584 134L 584 138.5L 584 143L 588.5 143L 593 143L 593 147.5L 593 152L 597.5 152L 602 152L 602 156.5L 602 161L 606.5 161L 611 161L 611 156.5L 611 152L 606.5 152L 602 152L 602 134L 602 116L 606.5 116L 611 116L 611 125L 611 134L 615.5 134L 620 134L 620 125L 620 116L 615.5 116L 611 116L 611 111.5L 611 107L 606.5 107L 602 107L 602 102.5L 602 98L 597.5 98L 593 98L 593 84.5L 593 71L 575 71L 557 71L 557 75.5L 557 80L 543.5 80L 530 80L 530 89L 530 98L 525.5 98L 521 98L 521 93.5L 521 89L 516.5 89L 512 89L 512 93.5L 512 98L 503 98L 494 98L 494 93.5L 494 89L 498.5 89L 503 89L 503 80L 503 71L 498.5 71L 494 71L 494 75.5L 494 80L 489.5 80L 485 80L 485 75.5L 485 71L 476 71L 467 71L 467 75.5L 467 80L 471.5 80L 476 80L 476 84.5L 476 89L 480.5 89L 485 89L 485 93.5L 485 98L 476 98L 467 98L 467 93.5L 467 89L 462.5 89L 458 89L 458 80L 458 71L 453.5 71L 449 71L 449 80L 449 89L 444.5 89L 440 89L 440 93.5L 440 98L 453.5 98L 467 98L 467 107L 467 116L 462.5 116L 458 116L 458 111.5L 458 107L 444.5 107L 431 107L 431 102.5L 431 98L 422 98L 413 98L 413 93.5L 413 89L 408.5 89L 404 89L 404 84.5L 404 80L 408.5 80L 413 80L 413 75.5L 413 71L 408.5 71L 404 71L 404 75.5L 404 80L 399.5 80L 395 80L 395 84.5L 395 89L 399.5 89L 404 89L 404 93.5L 404 98L 408.5 98L 413 98L 413 107L 413 116L 399.5 116L 386 116L 386 111.5L 386 107L 390.5 107L 395 107L 395 102.5L 395 98L 381.5 98L 368 98L 368 102.5L 368 107L 363.5 107L 359 107L 359 111.5L 359 116L 372.5 116L 386 116L 386 120.5L 386 125L 381.5 125L 377 125L 377 129.5L 377 134L 381.5 134L 386 134L 386 129.5L 386 125L 390.5 125L 395 125L 395 129.5L 395 134L 399.5 134L 404 134L 404 138.5L 404 143L 408.5 143L 413 143L 413 147.5L 413 152L 408.5 152L 404 152L 404 156.5L 404 161L 395 161L 386 161L 386 156.5L 386 152L 390.5 152L 395 152L 395 147.5L 395 143L 381.5 143L 368 143L 368 134L 368 125L 363.5 125L 359 125L 359 134L 359 143L 354.5 143L 350 143L 350 134L 350 125L 345.5 125L 341 125L 341 129.5L 341 134L 336.5 134L 332 134L 332 120.5L 332 107L 336.5 107L 341 107L 341 111.5L 341 116L 345.5 116L 350 116L 350 111.5L 350 107L 345.5 107L 341 107L 341 102.5L 341 98L 345.5 98L 350 98L 350 93.5L 350 89L 354.5 89L 359 89L 359 84.5L 359 80L 363.5 80L 368 80L 368 84.5L 368 89L 372.5 89L 377 89L 377 80L 377 71L 368 71L 359 71L 359 75.5L 359 80L 345.5 80L 332 80L 332 75.5L 332 71L 327.5 71L 323 71L 323 84.5L 323 98L 318.5 98L 314 98L 314 102.5L 314 107L 300.5 107L 287 107L 287 102.5L 287 98L 282.5 98L 278 98L 278 93.5L 278 89L 273.5 89L 269 89L 269 84.5L 269 80L 264.5 80L 260 80L 260 93.5L 260 107L 255.5 107L 251 107L 251 89L 251 71L 242 71L 233 71L 233 80L 233 89L 237.5 89L 242 89L 242 93.5L 242 98L 237.5 98L 233 98L 233 102.5L 233 107L 228.5 107L 224 107L 224 93.5L 224 80L 219.5 80L 215 80L 215 75.5L 215 71L 206 71L 197 71L 197 75.5L 197 80L 192.5 80L 188 80L 188 75.5L 188 71L 174.5 71L 161 71L 161 75.5zM 215 93.5L 215 107L 219.5 107L 224 107L 224 116L 224 125L 228.5 125L 233 125L 233 116L 233 107L 237.5 107L 242 107L 242 111.5L 242 116L 246.5 116L 251 116L 251 125L 251 134L 255.5 134L 260 134L 260 129.5L 260 125L 264.5 125L 269 125L 269 129.5L 269 134L 273.5 134L 278 134L 278 125L 278 116L 273.5 116L 269 116L 269 107L 269 98L 273.5 98L 278 98L 278 102.5L 278 107L 282.5 107L 287 107L 287 125L 287 143L 278 143L 269 143L 269 152L 269 161L 264.5 161L 260 161L 260 170L 260 179L 246.5 179L 233 179L 233 188L 233 197L 237.5 197L 242 197L 242 192.5L 242 188L 255.5 188L 269 188L 269 183.5L 269 179L 273.5 179L 278 179L 278 174.5L 278 170L 282.5 170L 287 170L 287 161L 287 152L 296 152L 305 152L 305 156.5L 305 161L 309.5 161L 314 161L 314 165.5L 314 170L 309.5 170L 305 170L 305 165.5L 305 161L 300.5 161L 296 161L 296 165.5L 296 170L 291.5 170L 287 170L 287 174.5L 287 179L 291.5 179L 296 179L 296 183.5L 296 188L 300.5 188L 305 188L 305 183.5L 305 179L 309.5 179L 314 179L 314 183.5L 314 188L 309.5 188L 305 188L 305 197L 305 206L 309.5 206L 314 206L 314 201.5L 314 197L 323 197L 332 197L 332 188L 332 179L 327.5 179L 323 179L 323 174.5L 323 170L 327.5 170L 332 170L 332 174.5L 332 179L 345.5 179L 359 179L 359 170L 359 161L 354.5 161L 350 161L 350 156.5L 350 152L 345.5 152L 341 152L 341 156.5L 341 161L 332 161L 323 161L 323 156.5L 323 152L 327.5 152L 332 152L 332 147.5L 332 143L 341 143L 350 143L 350 147.5L 350 152L 354.5 152L 359 152L 359 147.5L 359 143L 363.5 143L 368 143L 368 147.5L 368 152L 363.5 152L 359 152L 359 156.5L 359 161L 363.5 161L 368 161L 368 165.5L 368 170L 372.5 170L 377 170L 377 165.5L 377 161L 381.5 161L 386 161L 386 165.5L 386 170L 390.5 170L 395 170L 395 179L 395 188L 399.5 188L 404 188L 404 183.5L 404 179L 408.5 179L 413 179L 413 174.5L 413 170L 408.5 170L 404 170L 404 165.5L 404 161L 408.5 161L 413 161L 413 165.5L 413 170L 417.5 170L 422 170L 422 156.5L 422 143L 417.5 143L 413 143L 413 138.5L 413 134L 408.5 134L 404 134L 404 129.5L 404 125L 408.5 125L 413 125L 413 120.5L 413 116L 426.5 116L 440 116L 440 120.5L 440 125L 444.5 125L 449 125L 449 129.5L 449 134L 444.5 134L 440 134L 440 129.5L 440 125L 435.5 125L 431 125L 431 129.5L 431 134L 426.5 134L 422 134L 422 138.5L 422 143L 444.5 143L 467 143L 467 147.5L 467 152L 471.5 152L 476 152L 476 156.5L 476 161L 471.5 161L 467 161L 467 156.5L 467 152L 462.5 152L 458 152L 458 156.5L 458 161L 453.5 161L 449 161L 449 165.5L 449 170L 435.5 170L 422 170L 422 174.5L 422 179L 426.5 179L 431 179L 431 183.5L 431 188L 426.5 188L 422 188L 422 192.5L 422 197L 431 197L 440 197L 440 188L 440 179L 449 179L 458 179L 458 174.5L 458 170L 462.5 170L 467 170L 467 174.5L 467 179L 471.5 179L 476 179L 476 174.5L 476 170L 480.5 170L 485 170L 485 165.5L 485 161L 489.5 161L 494 161L 494 156.5L 494 152L 503 152L 512 152L 512 161L 512 170L 521 170L 530 170L 530 174.5L 530 179L 521 179L 512 179L 512 183.5L 512 188L 525.5 188L 539 188L 539 183.5L 539 179L 543.5 179L 548 179L 548 183.5L 548 188L 543.5 188L 539 188L 539 192.5L 539 197L 534.5 197L 530 197L 530 201.5L 530 206L 543.5 206L 557 206L 557 201.5L 557 197L 570.5 197L 584 197L 584 206L 584 215L 588.5 215L 593 215L 593 206L 593 197L 602 197L 611 197L 611 192.5L 611 188L 624.5 188L 638 188L 638 183.5L 638 179L 642.5 179L 647 179L 647 174.5L 647 170L 651.5 170L 656 170L 656 179L 656 188L 647 188L 638 188L 638 192.5L 638 197L 642.5 197L 647 197L 647 201.5L 647 206L 638 206L 629 206L 629 210.5L 629 215L 624.5 215L 620 215L 620 210.5L 620 206L 615.5 206L 611 206L 611 215L 611 224L 624.5 224L 638 224L 638 219.5L 638 215L 642.5 215L 647 215L 647 219.5L 647 224L 660.5 224L 674 224L 674 237.5L 674 251L 678.5 251L 683 251L 683 255.5L 683 260L 678.5 260L 674 260L 674 264.5L 674 269L 669.5 269L 665 269L 665 278L 665 287L 660.5 287L 656 287L 656 282.5L 656 278L 647 278L 638 278L 638 282.5L 638 287L 642.5 287L 647 287L 647 300.5L 647 314L 642.5 314L 638 314L 638 318.5L 638 323L 624.5 323L 611 323L 611 327.5L 611 332L 620 332L 629 332L 629 345.5L 629 359L 620 359L 611 359L 611 363.5L 611 368L 606.5 368L 602 368L 602 372.5L 602 377L 593 377L 584 377L 584 386L 584 395L 588.5 395L 593 395L 593 399.5L 593 404L 597.5 404L 602 404L 602 408.5L 602 413L 606.5 413L 611 413L 611 408.5L 611 404L 615.5 404L 620 404L 620 413L 620 422L 624.5 422L 629 422L 629 426.5L 629 431L 624.5 431L 620 431L 620 426.5L 620 422L 615.5 422L 611 422L 611 426.5L 611 431L 606.5 431L 602 431L 602 426.5L 602 422L 597.5 422L 593 422L 593 417.5L 593 413L 584 413L 575 413L 575 417.5L 575 422L 570.5 422L 566 422L 566 426.5L 566 431L 561.5 431L 557 431L 557 435.5L 557 440L 561.5 440L 566 440L 566 444.5L 566 449L 575 449L 584 449L 584 453.5L 584 458L 575 458L 566 458L 566 462.5L 566 467L 579.5 467L 593 467L 593 462.5L 593 458L 597.5 458L 602 458L 602 453.5L 602 449L 597.5 449L 593 449L 593 444.5L 593 440L 584 440L 575 440L 575 435.5L 575 431L 584 431L 593 431L 593 435.5L 593 440L 597.5 440L 602 440L 602 444.5L 602 449L 606.5 449L 611 449L 611 444.5L 611 440L 624.5 440L 638 440L 638 444.5L 638 449L 642.5 449L 647 449L 647 444.5L 647 440L 651.5 440L 656 440L 656 435.5L 656 431L 651.5 431L 647 431L 647 417.5L 647 404L 651.5 404L 656 404L 656 408.5L 656 413L 665 413L 674 413L 674 408.5L 674 404L 678.5 404L 683 404L 683 408.5L 683 413L 687.5 413L 692 413L 692 417.5L 692 422L 696.5 422L 701 422L 701 426.5L 701 431L 696.5 431L 692 431L 692 435.5L 692 440L 701 440L 710 440L 710 444.5L 710 449L 701 449L 692 449L 692 453.5L 692 458L 678.5 458L 665 458L 665 462.5L 665 467L 660.5 467L 656 467L 656 462.5L 656 458L 651.5 458L 647 458L 647 462.5L 647 467L 642.5 467L 638 467L 638 462.5L 638 458L 633.5 458L 629 458L 629 462.5L 629 467L 611 467L 593 467L 593 471.5L 593 476L 575 476L 557 476L 557 480.5L 557 485L 552.5 485L 548 485L 548 480.5L 548 476L 543.5 476L 539 476L 539 480.5L 539 485L 525.5 485L 512 485L 512 480.5L 512 476L 525.5 476L 539 476L 539 471.5L 539 467L 534.5 467L 530 467L 530 462.5L 530 458L 525.5 458L 521 458L 521 462.5L 521 467L 512 467L 503 467L 503 462.5L 503 458L 507.5 458L 512 458L 512 449L 512 440L 507.5 440L 503 440L 503 444.5L 503 449L 498.5 449L 494 449L 494 440L 494 431L 503 431L 512 431L 512 426.5L 512 422L 516.5 422L 521 422L 521 426.5L 521 431L 530 431L 539 431L 539 426.5L 539 422L 543.5 422L 548 422L 548 413L 548 404L 543.5 404L 539 404L 539 408.5L 539 413L 530 413L 521 413L 521 408.5L 521 404L 530 404L 539 404L 539 399.5L 539 395L 543.5 395L 548 395L 548 386L 548 377L 543.5 377L 539 377L 539 372.5L 539 368L 548 368L 557 368L 557 381.5L 557 395L 561.5 395L 566 395L 566 372.5L 566 350L 561.5 350L 557 350L 557 354.5L 557 359L 548 359L 539 359L 539 354.5L 539 350L 543.5 350L 548 350L 548 341L 548 332L 543.5 332L 539 332L 539 336.5L 539 341L 534.5 341L 530 341L 530 368L 530 395L 516.5 395L 503 395L 503 408.5L 503 422L 498.5 422L 494 422L 494 408.5L 494 395L 489.5 395L 485 395L 485 399.5L 485 404L 480.5 404L 476 404L 476 408.5L 476 413L 480.5 413L 485 413L 485 417.5L 485 422L 480.5 422L 476 422L 476 426.5L 476 431L 480.5 431L 485 431L 485 435.5L 485 440L 476 440L 467 440L 467 444.5L 467 449L 462.5 449L 458 449L 458 453.5L 458 458L 467 458L 476 458L 476 462.5L 476 467L 471.5 467L 467 467L 467 485L 467 503L 462.5 503L 458 503L 458 507.5L 458 512L 480.5 512L 503 512L 503 516.5L 503 521L 507.5 521L 512 521L 512 525.5L 512 530L 516.5 530L 521 530L 521 534.5L 521 539L 516.5 539L 512 539L 512 543.5L 512 548L 507.5 548L 503 548L 503 552.5L 503 557L 512 557L 521 557L 521 552.5L 521 548L 530 548L 539 548L 539 543.5L 539 539L 534.5 539L 530 539L 530 534.5L 530 530L 539 530L 548 530L 548 521L 548 512L 543.5 512L 539 512L 539 516.5L 539 521L 530 521L 521 521L 521 516.5L 521 512L 525.5 512L 530 512L 530 507.5L 530 503L 539 503L 548 503L 548 498.5L 548 494L 557 494L 566 494L 566 489.5L 566 485L 588.5 485L 611 485L 611 480.5L 611 476L 620 476L 629 476L 629 480.5L 629 485L 633.5 485L 638 485L 638 480.5L 638 476L 642.5 476L 647 476L 647 480.5L 647 485L 642.5 485L 638 485L 638 489.5L 638 494L 633.5 494L 629 494L 629 498.5L 629 503L 624.5 503L 620 503L 620 512L 620 521L 615.5 521L 611 521L 611 525.5L 611 530L 602 530L 593 530L 593 525.5L 593 521L 588.5 521L 584 521L 584 512L 584 503L 579.5 503L 575 503L 575 507.5L 575 512L 570.5 512L 566 512L 566 516.5L 566 521L 570.5 521L 575 521L 575 530L 575 539L 584 539L 593 539L 593 543.5L 593 548L 597.5 548L 602 548L 602 543.5L 602 539L 611 539L 620 539L 620 534.5L 620 530L 624.5 530L 629 530L 629 534.5L 629 539L 624.5 539L 620 539L 620 543.5L 620 548L 624.5 548L 629 548L 629 552.5L 629 557L 633.5 557L 638 557L 638 561.5L 638 566L 642.5 566L 647 566L 647 570.5L 647 575L 651.5 575L 656 575L 656 570.5L 656 566L 665 566L 674 566L 674 570.5L 674 575L 678.5 575L 683 575L 683 570.5L 683 566L 692 566L 701 566L 701 570.5L 701 575L 692 575L 683 575L 683 579.5L 683 584L 678.5 584L 674 584L 674 579.5L 674 575L 665 575L 656 575L 656 579.5L 656 584L 660.5 584L 665 584L 665 588.5L 665 593L 660.5 593L 656 593L 656 597.5L 656 602L 660.5 602L 665 602L 665 611L 665 620L 656 620L 647 620L 647 624.5L 647 629L 651.5 629L 656 629L 656 633.5L 656 638L 665 638L 674 638L 674 629L 674 620L 678.5 620L 683 620L 683 629L 683 638L 687.5 638L 692 638L 692 642.5L 692 647L 701 647L 710 647L 710 656L 710 665L 701 665L 692 665L 692 656L 692 647L 687.5 647L 683 647L 683 642.5L 683 638L 678.5 638L 674 638L 674 642.5L 674 647L 665 647L 656 647L 656 642.5L 656 638L 651.5 638L 647 638L 647 642.5L 647 647L 642.5 647L 638 647L 638 642.5L 638 638L 633.5 638L 629 638L 629 642.5L 629 647L 624.5 647L 620 647L 620 638L 620 629L 615.5 629L 611 629L 611 642.5L 611 656L 606.5 656L 602 656L 602 660.5L 602 665L 606.5 665L 611 665L 611 669.5L 611 674L 615.5 674L 620 674L 620 669.5L 620 665L 624.5 665L 629 665L 629 660.5L 629 656L 633.5 656L 638 656L 638 665L 638 674L 642.5 674L 647 674L 647 678.5L 647 683L 642.5 683L 638 683L 638 678.5L 638 674L 633.5 674L 629 674L 629 678.5L 629 683L 620 683L 611 683L 611 678.5L 611 674L 606.5 674L 602 674L 602 669.5L 602 665L 597.5 665L 593 665L 593 669.5L 593 674L 579.5 674L 566 674L 566 683L 566 692L 561.5 692L 557 692L 557 687.5L 557 683L 552.5 683L 548 683L 548 678.5L 548 674L 543.5 674L 539 674L 539 669.5L 539 665L 534.5 665L 530 665L 530 674L 530 683L 521 683L 512 683L 512 678.5L 512 674L 516.5 674L 521 674L 521 669.5L 521 665L 516.5 665L 512 665L 512 660.5L 512 656L 516.5 656L 521 656L 521 660.5L 521 665L 525.5 665L 530 665L 530 656L 530 647L 521 647L 512 647L 512 642.5L 512 638L 503 638L 494 638L 494 642.5L 494 647L 489.5 647L 485 647L 485 638L 485 629L 480.5 629L 476 629L 476 638L 476 647L 467 647L 458 647L 458 651.5L 458 656L 462.5 656L 467 656L 467 669.5L 467 683L 462.5 683L 458 683L 458 687.5L 458 692L 453.5 692L 449 692L 449 701L 449 710L 444.5 710L 440 710L 440 714.5L 440 719L 426.5 719L 413 719L 413 714.5L 413 710L 417.5 710L 422 710L 422 705.5L 422 701L 417.5 701L 413 701L 413 696.5L 413 692L 408.5 692L 404 692L 404 696.5L 404 701L 399.5 701L 395 701L 395 696.5L 395 692L 390.5 692L 386 692L 386 687.5L 386 683L 390.5 683L 395 683L 395 678.5L 395 674L 399.5 674L 404 674L 404 678.5L 404 683L 408.5 683L 413 683L 413 674L 413 665L 417.5 665L 422 665L 422 660.5L 422 656L 426.5 656L 431 656L 431 651.5L 431 647L 422 647L 413 647L 413 651.5L 413 656L 408.5 656L 404 656L 404 651.5L 404 647L 408.5 647L 413 647L 413 642.5L 413 638L 417.5 638L 422 638L 422 633.5L 422 629L 431 629L 440 629L 440 624.5L 440 620L 431 620L 422 620L 422 615.5L 422 611L 417.5 611L 413 611L 413 615.5L 413 620L 408.5 620L 404 620L 404 624.5L 404 629L 399.5 629L 395 629L 395 624.5L 395 620L 399.5 620L 404 620L 404 615.5L 404 611L 408.5 611L 413 611L 413 597.5L 413 584L 408.5 584L 404 584L 404 579.5L 404 575L 408.5 575L 413 575L 413 570.5L 413 566L 408.5 566L 404 566L 404 561.5L 404 557L 395 557L 386 557L 386 552.5L 386 548L 390.5 548L 395 548L 395 543.5L 395 539L 390.5 539L 386 539L 386 534.5L 386 530L 390.5 530L 395 530L 395 534.5L 395 539L 404 539L 413 539L 413 543.5L 413 548L 408.5 548L 404 548L 404 552.5L 404 557L 426.5 557L 449 557L 449 552.5L 449 548L 444.5 548L 440 548L 440 543.5L 440 539L 444.5 539L 449 539L 449 534.5L 449 530L 431 530L 413 530L 413 525.5L 413 521L 390.5 521L 368 521L 368 516.5L 368 512L 363.5 512L 359 512L 359 516.5L 359 521L 354.5 521L 350 521L 350 516.5L 350 512L 345.5 512L 341 512L 341 507.5L 341 503L 354.5 503L 368 503L 368 498.5L 368 494L 363.5 494L 359 494L 359 489.5L 359 485L 354.5 485L 350 485L 350 480.5L 350 476L 345.5 476L 341 476L 341 485L 341 494L 336.5 494L 332 494L 332 485L 332 476L 336.5 476L 341 476L 341 471.5L 341 467L 345.5 467L 350 467L 350 471.5L 350 476L 354.5 476L 359 476L 359 480.5L 359 485L 363.5 485L 368 485L 368 480.5L 368 476L 386 476L 404 476L 404 471.5L 404 467L 408.5 467L 413 467L 413 462.5L 413 458L 408.5 458L 404 458L 404 453.5L 404 449L 395 449L 386 449L 386 440L 386 431L 377 431L 368 431L 368 435.5L 368 440L 372.5 440L 377 440L 377 444.5L 377 449L 372.5 449L 368 449L 368 453.5L 368 458L 377 458L 386 458L 386 462.5L 386 467L 377 467L 368 467L 368 462.5L 368 458L 363.5 458L 359 458L 359 453.5L 359 449L 354.5 449L 350 449L 350 444.5L 350 440L 341 440L 332 440L 332 444.5L 332 449L 327.5 449L 323 449L 323 453.5L 323 458L 318.5 458L 314 458L 314 449L 314 440L 309.5 440L 305 440L 305 444.5L 305 449L 296 449L 287 449L 287 453.5L 287 458L 296 458L 305 458L 305 462.5L 305 467L 296 467L 287 467L 287 471.5L 287 476L 282.5 476L 278 476L 278 471.5L 278 467L 273.5 467L 269 467L 269 476L 269 485L 278 485L 287 485L 287 494L 287 503L 282.5 503L 278 503L 278 507.5L 278 512L 273.5 512L 269 512L 269 516.5L 269 521L 278 521L 287 521L 287 516.5L 287 512L 291.5 512L 296 512L 296 516.5L 296 521L 291.5 521L 287 521L 287 525.5L 287 530L 278 530L 269 530L 269 539L 269 548L 273.5 548L 278 548L 278 543.5L 278 539L 282.5 539L 287 539L 287 543.5L 287 548L 282.5 548L 278 548L 278 552.5L 278 557L 273.5 557L 269 557L 269 552.5L 269 548L 264.5 548L 260 548L 260 539L 260 530L 255.5 530L 251 530L 251 552.5L 251 575L 237.5 575L 224 575L 224 579.5L 224 584L 219.5 584L 215 584L 215 588.5L 215 593L 219.5 593L 224 593L 224 597.5L 224 602L 228.5 602L 233 602L 233 606.5L 233 611L 228.5 611L 224 611L 224 615.5L 224 620L 228.5 620L 233 620L 233 624.5L 233 629L 228.5 629L 224 629L 224 638L 224 647L 228.5 647L 233 647L 233 642.5L 233 638L 242 638L 251 638L 251 642.5L 251 647L 242 647L 233 647L 233 651.5L 233 656L 228.5 656L 224 656L 224 665L 224 674L 228.5 674L 233 674L 233 669.5L 233 665L 242 665L 251 665L 251 660.5L 251 656L 255.5 656L 260 656L 260 651.5L 260 647L 264.5 647L 269 647L 269 651.5L 269 656L 278 656L 287 656L 287 669.5L 287 683L 282.5 683L 278 683L 278 687.5L 278 692L 287 692L 296 692L 296 696.5L 296 701L 300.5 701L 305 701L 305 705.5L 305 710L 300.5 710L 296 710L 296 705.5L 296 701L 287 701L 278 701L 278 710L 278 719L 273.5 719L 269 719L 269 710L 269 701L 260 701L 251 701L 251 696.5L 251 692L 246.5 692L 242 692L 242 696.5L 242 701L 237.5 701L 233 701L 233 705.5L 233 710L 228.5 710L 224 710L 224 705.5L 224 701L 215 701L 206 701L 206 705.5L 206 710L 201.5 710L 197 710L 197 705.5L 197 701L 201.5 701L 206 701L 206 687.5L 206 674L 201.5 674L 197 674L 197 683L 197 692L 192.5 692L 188 692L 188 701L 188 710L 179 710L 170 710L 170 714.5L 170 719L 165.5 719L 161 719L 161 714.5L 161 710L 165.5 710L 170 710L 170 705.5L 170 701L 161 701L 152 701L 152 696.5L 152 692L 156.5 692L 161 692L 161 687.5L 161 683L 156.5 683L 152 683L 152 678.5L 152 674L 156.5 674L 161 674L 161 665L 161 656L 156.5 656L 152 656L 152 651.5L 152 647L 147.5 647L 143 647L 143 642.5L 143 638L 138.5 638L 134 638L 134 633.5L 134 629L 129.5 629L 125 629L 125 624.5L 125 620L 120.5 620L 116 620L 116 629L 116 638L 111.5 638L 107 638L 107 629L 107 620L 102.5 620L 98 620L 98 615.5L 98 611L 107 611L 116 611L 116 606.5L 116 602L 125 602L 134 602L 134 597.5L 134 593L 138.5 593L 143 593L 143 597.5L 143 602L 147.5 602L 152 602L 152 597.5L 152 593L 156.5 593L 161 593L 161 588.5L 161 584L 152 584L 143 584L 143 579.5L 143 575L 147.5 575L 152 575L 152 570.5L 152 566L 147.5 566L 143 566L 143 561.5L 143 557L 152 557L 161 557L 161 548L 161 539L 165.5 539L 170 539L 170 534.5L 170 530L 165.5 530L 161 530L 161 525.5L 161 521L 156.5 521L 152 521L 152 525.5L 152 530L 143 530L 134 530L 134 534.5L 134 539L 129.5 539L 125 539L 125 534.5L 125 530L 120.5 530L 116 530L 116 525.5L 116 521L 111.5 521L 107 521L 107 525.5L 107 530L 102.5 530L 98 530L 98 534.5L 98 539L 89 539L 80 539L 80 534.5L 80 530L 89 530L 98 530L 98 525.5L 98 521L 102.5 521L 107 521L 107 516.5L 107 512L 102.5 512L 98 512L 98 507.5L 98 503L 93.5 503L 89 503L 89 498.5L 89 494L 84.5 494L 80 494L 80 489.5L 80 485L 84.5 485L 89 485L 89 480.5L 89 476L 84.5 476L 80 476L 80 471.5L 80 467L 84.5 467L 89 467L 89 471.5L 89 476L 93.5 476L 98 476L 98 480.5L 98 485L 102.5 485L 107 485L 107 489.5L 107 494L 102.5 494L 98 494L 98 498.5L 98 503L 102.5 503L 107 503L 107 507.5L 107 512L 111.5 512L 116 512L 116 516.5L 116 521L 120.5 521L 125 521L 125 516.5L 125 512L 134 512L 143 512L 143 516.5L 143 521L 147.5 521L 152 521L 152 494L 152 467L 156.5 467L 161 467L 161 462.5L 161 458L 170 458L 179 458L 179 462.5L 179 467L 174.5 467L 170 467L 170 471.5L 170 476L 183.5 476L 197 476L 197 467L 197 458L 192.5 458L 188 458L 188 453.5L 188 449L 192.5 449L 197 449L 197 435.5L 197 422L 192.5 422L 188 422L 188 413L 188 404L 192.5 404L 197 404L 197 399.5L 197 395L 201.5 395L 206 395L 206 390.5L 206 386L 201.5 386L 197 386L 197 381.5L 197 377L 183.5 377L 170 377L 170 363.5L 170 350L 165.5 350L 161 350L 161 354.5L 161 359L 156.5 359L 152 359L 152 354.5L 152 350L 156.5 350L 161 350L 161 341L 161 332L 156.5 332L 152 332L 152 327.5L 152 323L 156.5 323L 161 323L 161 318.5L 161 314L 156.5 314L 152 314L 152 305L 152 296L 156.5 296L 161 296L 161 287L 161 278L 156.5 278L 152 278L 152 273.5L 152 269L 147.5 269L 143 269L 143 264.5L 143 260L 147.5 260L 152 260L 152 246.5L 152 233L 156.5 233L 161 233L 161 228.5L 161 224L 170 224L 179 224L 179 219.5L 179 215L 183.5 215L 188 215L 188 201.5L 188 188L 183.5 188L 179 188L 179 192.5L 179 197L 174.5 197L 170 197L 170 192.5L 170 188L 174.5 188L 179 188L 179 183.5L 179 179L 183.5 179L 188 179L 188 183.5L 188 188L 192.5 188L 197 188L 197 201.5L 197 215L 192.5 215L 188 215L 188 219.5L 188 224L 197 224L 206 224L 206 219.5L 206 215L 210.5 215L 215 215L 215 224L 215 233L 219.5 233L 224 233L 224 228.5L 224 224L 228.5 224L 233 224L 233 228.5L 233 233L 237.5 233L 242 233L 242 237.5L 242 242L 246.5 242L 251 242L 251 246.5L 251 251L 246.5 251L 242 251L 242 255.5L 242 260L 246.5 260L 251 260L 251 264.5L 251 269L 246.5 269L 242 269L 242 264.5L 242 260L 237.5 260L 233 260L 233 255.5L 233 251L 228.5 251L 224 251L 224 260L 224 269L 219.5 269L 215 269L 215 251L 215 233L 206 233L 197 233L 197 246.5L 197 260L 201.5 260L 206 260L 206 269L 206 278L 201.5 278L 197 278L 197 269L 197 260L 188 260L 179 260L 179 269L 179 278L 174.5 278L 170 278L 170 282.5L 170 287L 188 287L 206 287L 206 291.5L 206 296L 215 296L 224 296L 224 291.5L 224 287L 219.5 287L 215 287L 215 282.5L 215 278L 219.5 278L 224 278L 224 282.5L 224 287L 228.5 287L 233 287L 233 282.5L 233 278L 246.5 278L 260 278L 260 269L 260 260L 269 260L 278 260L 278 255.5L 278 251L 273.5 251L 269 251L 269 246.5L 269 242L 264.5 242L 260 242L 260 233L 260 224L 251 224L 242 224L 242 219.5L 242 215L 233 215L 224 215L 224 210.5L 224 206L 219.5 206L 215 206L 215 201.5L 215 197L 210.5 197L 206 197L 206 192.5L 206 188L 210.5 188L 215 188L 215 179L 215 170L 201.5 170L 188 170L 188 147.5L 188 125L 192.5 125L 197 125L 197 129.5L 197 134L 201.5 134L 206 134L 206 125L 206 116L 210.5 116L 215 116L 215 111.5L 215 107L 206 107L 197 107L 197 111.5L 197 116L 188 116L 179 116L 179 143L 179 170L 174.5 170L 170 170L 170 174.5L 170 179L 165.5 179L 161 179L 161 183.5L 161 188L 147.5 188L 134 188L 134 192.5L 134 197L 138.5 197L 143 197L 143 224L 143 251L 134 251L 125 251L 125 246.5L 125 242L 120.5 242L 116 242L 116 237.5L 116 233L 111.5 233L 107 233L 107 228.5L 107 224L 120.5 224L 134 224L 134 219.5L 134 215L 129.5 215L 125 215L 125 210.5L 125 206L 129.5 206L 134 206L 134 201.5L 134 197L 129.5 197L 125 197L 125 192.5L 125 188L 129.5 188L 134 188L 134 183.5L 134 179L 143 179L 152 179L 152 174.5L 152 170L 156.5 170L 161 170L 161 161L 161 152L 165.5 152L 170 152L 170 129.5L 170 107L 174.5 107L 179 107L 179 102.5L 179 98L 183.5 98L 188 98L 188 93.5L 188 89L 192.5 89L 197 89L 197 84.5L 197 80L 206 80L 215 80L 215 93.5zM 584 84.5L 584 89L 575 89L 566 89L 566 93.5L 566 98L 579.5 98L 593 98L 593 102.5L 593 107L 597.5 107L 602 107L 602 111.5L 602 116L 597.5 116L 593 116L 593 111.5L 593 107L 575 107L 557 107L 557 98L 557 89L 561.5 89L 566 89L 566 84.5L 566 80L 575 80L 584 80L 584 84.5zM 494 102.5L 494 107L 489.5 107L 485 107L 485 102.5L 485 98L 489.5 98L 494 98L 494 102.5zM 548 102.5L 548 107L 543.5 107L 539 107L 539 111.5L 539 116L 530 116L 521 116L 521 125L 521 134L 525.5 134L 530 134L 530 129.5L 530 125L 534.5 125L 539 125L 539 129.5L 539 134L 534.5 134L 530 134L 530 138.5L 530 143L 521 143L 512 143L 512 129.5L 512 116L 516.5 116L 521 116L 521 111.5L 521 107L 525.5 107L 530 107L 530 102.5L 530 98L 539 98L 548 98L 548 102.5zM 161 125L 161 134L 156.5 134L 152 134L 152 125L 152 116L 156.5 116L 161 116L 161 125zM 323 129.5L 323 143L 309.5 143L 296 143L 296 129.5L 296 116L 309.5 116L 323 116L 323 129.5zM 503 129.5L 503 143L 489.5 143L 476 143L 476 129.5L 476 116L 489.5 116L 503 116L 503 129.5zM 467 129.5L 467 134L 462.5 134L 458 134L 458 129.5L 458 125L 462.5 125L 467 125L 467 129.5zM 593 129.5L 593 134L 588.5 134L 584 134L 584 129.5L 584 125L 588.5 125L 593 125L 593 129.5zM 548 147.5L 548 152L 543.5 152L 539 152L 539 156.5L 539 161L 530 161L 521 161L 521 156.5L 521 152L 530 152L 539 152L 539 147.5L 539 143L 543.5 143L 548 143L 548 147.5zM 647 147.5L 647 152L 642.5 152L 638 152L 638 147.5L 638 143L 642.5 143L 647 143L 647 147.5zM 710 156.5L 710 161L 696.5 161L 683 161L 683 156.5L 683 152L 696.5 152L 710 152L 710 156.5zM 143 165.5L 143 170L 138.5 170L 134 170L 134 165.5L 134 161L 138.5 161L 143 161L 143 165.5zM 89 183.5L 89 188L 84.5 188L 80 188L 80 183.5L 80 179L 84.5 179L 89 179L 89 183.5zM 566 183.5L 566 188L 561.5 188L 557 188L 557 183.5L 557 179L 561.5 179L 566 179L 566 183.5zM 593 183.5L 593 188L 584 188L 575 188L 575 183.5L 575 179L 584 179L 593 179L 593 183.5zM 683 183.5L 683 188L 678.5 188L 674 188L 674 183.5L 674 179L 678.5 179L 683 179L 683 183.5zM 161 210.5L 161 215L 156.5 215L 152 215L 152 210.5L 152 206L 156.5 206L 161 206L 161 210.5zM 692 228.5L 692 233L 687.5 233L 683 233L 683 228.5L 683 224L 687.5 224L 692 224L 692 228.5zM 143 309.5L 143 323L 129.5 323L 116 323L 116 309.5L 116 296L 129.5 296L 143 296L 143 309.5zM 683 309.5L 683 323L 669.5 323L 656 323L 656 309.5L 656 296L 669.5 296L 683 296L 683 309.5zM 134 336.5L 134 341L 129.5 341L 125 341L 125 336.5L 125 332L 129.5 332L 134 332L 134 336.5zM 98 350L 98 359L 93.5 359L 89 359L 89 363.5L 89 368L 84.5 368L 80 368L 80 363.5L 80 359L 84.5 359L 89 359L 89 350L 89 341L 93.5 341L 98 341L 98 350zM 116 363.5L 116 368L 111.5 368L 107 368L 107 363.5L 107 359L 111.5 359L 116 359L 116 363.5zM 134 372.5L 134 377L 129.5 377L 125 377L 125 381.5L 125 386L 120.5 386L 116 386L 116 381.5L 116 377L 120.5 377L 125 377L 125 372.5L 125 368L 129.5 368L 134 368L 134 372.5zM 161 372.5L 161 377L 156.5 377L 152 377L 152 381.5L 152 386L 147.5 386L 143 386L 143 381.5L 143 377L 147.5 377L 152 377L 152 372.5L 152 368L 156.5 368L 161 368L 161 372.5zM 692 381.5L 692 386L 687.5 386L 683 386L 683 381.5L 683 377L 687.5 377L 692 377L 692 381.5zM 638 408.5L 638 413L 633.5 413L 629 413L 629 408.5L 629 404L 633.5 404L 638 404L 638 408.5zM 134 426.5L 134 431L 129.5 431L 125 431L 125 426.5L 125 422L 129.5 422L 134 422L 134 426.5zM 89 449L 89 458L 84.5 458L 80 458L 80 449L 80 440L 84.5 440L 89 440L 89 449zM 134 462.5L 134 467L 129.5 467L 125 467L 125 462.5L 125 458L 129.5 458L 134 458L 134 462.5zM 143 489.5L 143 503L 129.5 503L 116 503L 116 489.5L 116 476L 129.5 476L 143 476L 143 489.5zM 323 489.5L 323 503L 309.5 503L 296 503L 296 489.5L 296 476L 309.5 476L 323 476L 323 489.5zM 503 489.5L 503 503L 489.5 503L 476 503L 476 489.5L 476 476L 489.5 476L 503 476L 503 489.5zM 683 489.5L 683 503L 669.5 503L 656 503L 656 489.5L 656 476L 669.5 476L 683 476L 683 489.5zM 719 480.5L 719 485L 710 485L 701 485L 701 480.5L 701 476L 710 476L 719 476L 719 480.5zM 521 498.5L 521 503L 516.5 503L 512 503L 512 498.5L 512 494L 516.5 494L 521 494L 521 498.5zM 647 507.5L 647 512L 642.5 512L 638 512L 638 516.5L 638 521L 647 521L 656 521L 656 516.5L 656 512L 660.5 512L 665 512L 665 516.5L 665 521L 660.5 521L 656 521L 656 525.5L 656 530L 651.5 530L 647 530L 647 534.5L 647 539L 642.5 539L 638 539L 638 530L 638 521L 633.5 521L 629 521L 629 516.5L 629 512L 633.5 512L 638 512L 638 507.5L 638 503L 642.5 503L 647 503L 647 507.5zM 332 516.5L 332 521L 323 521L 314 521L 314 525.5L 314 530L 323 530L 332 530L 332 534.5L 332 539L 327.5 539L 323 539L 323 543.5L 323 548L 327.5 548L 332 548L 332 552.5L 332 557L 336.5 557L 341 557L 341 561.5L 341 566L 336.5 566L 332 566L 332 561.5L 332 557L 327.5 557L 323 557L 323 552.5L 323 548L 318.5 548L 314 548L 314 552.5L 314 557L 305 557L 296 557L 296 548L 296 539L 300.5 539L 305 539L 305 530L 305 521L 309.5 521L 314 521L 314 516.5L 314 512L 323 512L 332 512L 332 516.5zM 692 525.5L 692 539L 687.5 539L 683 539L 683 534.5L 683 530L 678.5 530L 674 530L 674 534.5L 674 539L 669.5 539L 665 539L 665 534.5L 665 530L 669.5 530L 674 530L 674 521L 674 512L 683 512L 692 512L 692 525.5zM 431 543.5L 431 548L 426.5 548L 422 548L 422 543.5L 422 539L 426.5 539L 431 539L 431 543.5zM 377 552.5L 377 557L 372.5 557L 368 557L 368 552.5L 368 548L 372.5 548L 377 548L 377 552.5zM 395 579.5L 395 584L 390.5 584L 386 584L 386 579.5L 386 575L 390.5 575L 395 575L 395 579.5zM 260 588.5L 260 593L 273.5 593L 287 593L 287 597.5L 287 602L 296 602L 305 602L 305 606.5L 305 611L 300.5 611L 296 611L 296 615.5L 296 620L 300.5 620L 305 620L 305 624.5L 305 629L 309.5 629L 314 629L 314 624.5L 314 620L 323 620L 332 620L 332 629L 332 638L 327.5 638L 323 638L 323 642.5L 323 647L 309.5 647L 296 647L 296 642.5L 296 638L 291.5 638L 287 638L 287 633.5L 287 629L 291.5 629L 296 629L 296 624.5L 296 620L 287 620L 278 620L 278 629L 278 638L 273.5 638L 269 638L 269 629L 269 620L 264.5 620L 260 620L 260 615.5L 260 611L 255.5 611L 251 611L 251 620L 251 629L 246.5 629L 242 629L 242 620L 242 611L 246.5 611L 251 611L 251 606.5L 251 602L 246.5 602L 242 602L 242 593L 242 584L 251 584L 260 584L 260 588.5zM 341 588.5L 341 593L 336.5 593L 332 593L 332 588.5L 332 584L 336.5 584L 341 584L 341 588.5zM 683 597.5L 683 602L 678.5 602L 674 602L 674 597.5L 674 593L 678.5 593L 683 593L 683 597.5zM 323 669.5L 323 683L 309.5 683L 296 683L 296 669.5L 296 656L 309.5 656L 323 656L 323 669.5zM 503 669.5L 503 683L 489.5 683L 476 683L 476 669.5L 476 656L 489.5 656L 503 656L 503 669.5zM 683 669.5L 683 683L 669.5 683L 656 683L 656 669.5L 656 656L 669.5 656L 683 656L 683 669.5zM 701 678.5L 701 683L 696.5 683L 692 683L 692 678.5L 692 674L 696.5 674L 701 674L 701 678.5zM 602 692L 602 701L 606.5 701L 611 701L 611 696.5L 611 692L 615.5 692L 620 692L 620 696.5L 620 701L 624.5 701L 629 701L 629 710L 629 719L 624.5 719L 620 719L 620 710L 620 701L 615.5 701L 611 701L 611 705.5L 611 710L 606.5 710L 602 710L 602 714.5L 602 719L 597.5 719L 593 719L 593 705.5L 593 692L 588.5 692L 584 692L 584 701L 584 710L 575 710L 566 710L 566 705.5L 566 701L 570.5 701L 575 701L 575 692L 575 683L 588.5 683L 602 683L 602 692zM 719 705.5L 719 710L 714.5 710L 710 710L 710 714.5L 710 719L 705.5 719L 701 719L 701 714.5L 701 710L 705.5 710L 710 710L 710 705.5L 710 701L 714.5 701L 719 701L 719 705.5z"/>
<path style="stroke:none; fill:#000000" d="M 197 93.5L 197 98L 201.5 98L 206 98L 206 93.5L 206 89L 201.5 89L 197 89L 197 93.5z"/>
<path style="stroke:none; fill:#000000" d="M 215 134L 215 143L 210.5 143L 206 143L 206 152L 206 161L 215 161L 224 161L 224 156.5L 224 152L 219.5 152L 215 152L 215 147.5L 215 143L 224 143L 233 143L 233 138.5L 233 134L 237.5 134L 242 134L 242 143L 242 152L 251 152L 260 152L 260 147.5L 260 143L 255.5 143L 251 143L 251 138.5L 251 134L 246.5 134L 242 134L 242 129.5L 242 125L 237.5 125L 233 125L 233 129.5L 233 134L 228.5 134L 224 134L 224 129.5L 224 125L 219.5 125L 215 125L 215 134z"/>
<path style="stroke:none; fill:#000000" d="M 413 129.5L 413 134L 417.5 134L 422 134L 422 129.5L 422 125L 417.5 125L 413 125L 413 129.5z"/>
<path style="stroke:none; fill:#000000" d="M 431 156.5L 431 161L 440 161L 449 161L 449 156.5L 449 152L 440 152L 431 152L 431 156.5z"/>
<path style="stroke:none; fill:#000000" d="M 233 165.5L 233 170L 228.5 170L 224 170L 224 174.5L 224 179L 228.5 179L 233 179L 233 174.5L 233 170L 242 170L 251 170L 251 165.5L 251 161L 242 161L 233 161L 233 165.5z"/>
<path style="stroke:none; fill:#000000" d="M 494 165.5L 494 170L 489.5 170L 485 170L 485 174.5L 485 179L 480.5 179L 476 179L 476 183.5L 476 188L 480.5 188L 485 188L 485 192.5L 485 197L 480.5 197L 476 197L 476 201.5L 476 206L 467 206L 458 206L 458 201.5L 458 197L 449 197L 440 197L 440 201.5L 440 206L 444.5 206L 449 206L 449 210.5L 449 215L 444.5 215L 440 215L 440 219.5L 440 224L 435.5 224L 431 224L 431 215L 431 206L 426.5 206L 422 206L 422 201.5L 422 197L 417.5 197L 413 197L 413 201.5L 413 206L 417.5 206L 422 206L 422 228.5L 422 251L 417.5 251L 413 251L 413 242L 413 233L 399.5 233L 386 233L 386 237.5L 386 242L 390.5 242L 395 242L 395 246.5L 395 251L 372.5 251L 350 251L 350 246.5L 350 242L 354.5 242L 359 242L 359 237.5L 359 233L 368 233L 377 233L 377 228.5L 377 224L 372.5 224L 368 224L 368 219.5L 368 215L 372.5 215L 377 215L 377 210.5L 377 206L 381.5 206L 386 206L 386 215L 386 224L 390.5 224L 395 224L 395 215L 395 206L 399.5 206L 404 206L 404 201.5L 404 197L 399.5 197L 395 197L 395 201.5L 395 206L 390.5 206L 386 206L 386 192.5L 386 179L 377 179L 368 179L 368 183.5L 368 188L 363.5 188L 359 188L 359 192.5L 359 197L 354.5 197L 350 197L 350 192.5L 350 188L 345.5 188L 341 188L 341 192.5L 341 197L 336.5 197L 332 197L 332 201.5L 332 206L 336.5 206L 341 206L 341 210.5L 341 215L 332 215L 323 215L 323 210.5L 323 206L 318.5 206L 314 206L 314 210.5L 314 215L 309.5 215L 305 215L 305 210.5L 305 206L 300.5 206L 296 206L 296 201.5L 296 197L 287 197L 278 197L 278 201.5L 278 206L 273.5 206L 269 206L 269 201.5L 269 197L 264.5 197L 260 197L 260 201.5L 260 206L 264.5 206L 269 206L 269 210.5L 269 215L 264.5 215L 260 215L 260 219.5L 260 224L 273.5 224L 287 224L 287 228.5L 287 233L 291.5 233L 296 233L 296 246.5L 296 260L 300.5 260L 305 260L 305 251L 305 242L 309.5 242L 314 242L 314 251L 314 260L 318.5 260L 323 260L 323 255.5L 323 251L 336.5 251L 350 251L 350 255.5L 350 260L 345.5 260L 341 260L 341 264.5L 341 269L 336.5 269L 332 269L 332 273.5L 332 278L 327.5 278L 323 278L 323 273.5L 323 269L 318.5 269L 314 269L 314 273.5L 314 278L 309.5 278L 305 278L 305 273.5L 305 269L 300.5 269L 296 269L 296 273.5L 296 278L 291.5 278L 287 278L 287 269L 287 260L 282.5 260L 278 260L 278 269L 278 278L 273.5 278L 269 278L 269 282.5L 269 287L 260 287L 251 287L 251 291.5L 251 296L 246.5 296L 242 296L 242 300.5L 242 305L 237.5 305L 233 305L 233 300.5L 233 296L 228.5 296L 224 296L 224 300.5L 224 305L 228.5 305L 233 305L 233 309.5L 233 314L 224 314L 215 314L 215 309.5L 215 305L 206 305L 197 305L 197 309.5L 197 314L 206 314L 215 314L 215 318.5L 215 323L 210.5 323L 206 323L 206 327.5L 206 332L 201.5 332L 197 332L 197 327.5L 197 323L 192.5 323L 188 323L 188 318.5L 188 314L 183.5 314L 179 314L 179 309.5L 179 305L 183.5 305L 188 305L 188 300.5L 188 296L 183.5 296L 179 296L 179 300.5L 179 305L 174.5 305L 170 305L 170 300.5L 170 296L 165.5 296L 161 296L 161 300.5L 161 305L 165.5 305L 170 305L 170 309.5L 170 314L 174.5 314L 179 314L 179 318.5L 179 323L 174.5 323L 170 323L 170 327.5L 170 332L 174.5 332L 179 332L 179 336.5L 179 341L 188 341L 197 341L 197 345.5L 197 350L 206 350L 215 350L 215 354.5L 215 359L 201.5 359L 188 359L 188 354.5L 188 350L 183.5 350L 179 350L 179 354.5L 179 359L 183.5 359L 188 359L 188 363.5L 188 368L 201.5 368L 215 368L 215 372.5L 215 377L 210.5 377L 206 377L 206 381.5L 206 386L 210.5 386L 215 386L 215 395L 215 404L 219.5 404L 224 404L 224 408.5L 224 413L 228.5 413L 233 413L 233 417.5L 233 422L 224 422L 215 422L 215 417.5L 215 413L 210.5 413L 206 413L 206 417.5L 206 422L 210.5 422L 215 422L 215 426.5L 215 431L 224 431L 233 431L 233 440L 233 449L 224 449L 215 449L 215 444.5L 215 440L 210.5 440L 206 440L 206 444.5L 206 449L 210.5 449L 215 449L 215 453.5L 215 458L 210.5 458L 206 458L 206 467L 206 476L 201.5 476L 197 476L 197 485L 197 494L 201.5 494L 206 494L 206 498.5L 206 503L 201.5 503L 197 503L 197 507.5L 197 512L 192.5 512L 188 512L 188 516.5L 188 521L 183.5 521L 179 521L 179 530L 179 539L 174.5 539L 170 539L 170 543.5L 170 548L 174.5 548L 179 548L 179 543.5L 179 539L 188 539L 197 539L 197 543.5L 197 548L 201.5 548L 206 548L 206 552.5L 206 557L 192.5 557L 179 557L 179 561.5L 179 566L 174.5 566L 170 566L 170 561.5L 170 557L 165.5 557L 161 557L 161 566L 161 575L 165.5 575L 170 575L 170 584L 170 593L 165.5 593L 161 593L 161 597.5L 161 602L 156.5 602L 152 602L 152 606.5L 152 611L 147.5 611L 143 611L 143 606.5L 143 602L 138.5 602L 134 602L 134 606.5L 134 611L 129.5 611L 125 611L 125 615.5L 125 620L 129.5 620L 134 620L 134 624.5L 134 629L 143 629L 152 629L 152 633.5L 152 638L 156.5 638L 161 638L 161 642.5L 161 647L 165.5 647L 170 647L 170 642.5L 170 638L 174.5 638L 179 638L 179 629L 179 620L 183.5 620L 188 620L 188 629L 188 638L 192.5 638L 197 638L 197 642.5L 197 647L 192.5 647L 188 647L 188 651.5L 188 656L 192.5 656L 197 656L 197 651.5L 197 647L 201.5 647L 206 647L 206 651.5L 206 656L 210.5 656L 215 656L 215 651.5L 215 647L 210.5 647L 206 647L 206 633.5L 206 620L 197 620L 188 620L 188 615.5L 188 611L 197 611L 206 611L 206 606.5L 206 602L 210.5 602L 215 602L 215 606.5L 215 611L 219.5 611L 224 611L 224 606.5L 224 602L 219.5 602L 215 602L 215 597.5L 215 593L 210.5 593L 206 593L 206 588.5L 206 584L 192.5 584L 179 584L 179 579.5L 179 575L 192.5 575L 206 575L 206 570.5L 206 566L 210.5 566L 215 566L 215 570.5L 215 575L 219.5 575L 224 575L 224 570.5L 224 566L 228.5 566L 233 566L 233 561.5L 233 557L 237.5 557L 242 557L 242 552.5L 242 548L 237.5 548L 233 548L 233 552.5L 233 557L 228.5 557L 224 557L 224 552.5L 224 548L 215 548L 206 548L 206 543.5L 206 539L 201.5 539L 197 539L 197 534.5L 197 530L 192.5 530L 188 530L 188 525.5L 188 521L 197 521L 206 521L 206 525.5L 206 530L 228.5 530L 251 530L 251 525.5L 251 521L 255.5 521L 260 521L 260 516.5L 260 512L 264.5 512L 269 512L 269 507.5L 269 503L 273.5 503L 278 503L 278 498.5L 278 494L 269 494L 260 494L 260 480.5L 260 467L 255.5 467L 251 467L 251 471.5L 251 476L 246.5 476L 242 476L 242 471.5L 242 467L 237.5 467L 233 467L 233 462.5L 233 458L 237.5 458L 242 458L 242 449L 242 440L 246.5 440L 251 440L 251 449L 251 458L 264.5 458L 278 458L 278 462.5L 278 467L 282.5 467L 287 467L 287 462.5L 287 458L 282.5 458L 278 458L 278 453.5L 278 449L 273.5 449L 269 449L 269 435.5L 269 422L 273.5 422L 278 422L 278 426.5L 278 431L 282.5 431L 287 431L 287 435.5L 287 440L 296 440L 305 440L 305 426.5L 305 413L 309.5 413L 314 413L 314 399.5L 314 386L 309.5 386L 305 386L 305 381.5L 305 377L 314 377L 323 377L 323 372.5L 323 368L 327.5 368L 332 368L 332 386L 332 404L 327.5 404L 323 404L 323 413L 323 422L 318.5 422L 314 422L 314 426.5L 314 431L 318.5 431L 323 431L 323 435.5L 323 440L 327.5 440L 332 440L 332 435.5L 332 431L 341 431L 350 431L 350 435.5L 350 440L 354.5 440L 359 440L 359 444.5L 359 449L 363.5 449L 368 449L 368 444.5L 368 440L 363.5 440L 359 440L 359 435.5L 359 431L 363.5 431L 368 431L 368 426.5L 368 422L 363.5 422L 359 422L 359 417.5L 359 413L 368 413L 377 413L 377 408.5L 377 404L 386 404L 395 404L 395 399.5L 395 395L 399.5 395L 404 395L 404 404L 404 413L 395 413L 386 413L 386 422L 386 431L 395 431L 404 431L 404 440L 404 449L 408.5 449L 413 449L 413 444.5L 413 440L 417.5 440L 422 440L 422 444.5L 422 449L 435.5 449L 449 449L 449 444.5L 449 440L 444.5 440L 440 440L 440 435.5L 440 431L 449 431L 458 431L 458 435.5L 458 440L 462.5 440L 467 440L 467 435.5L 467 431L 462.5 431L 458 431L 458 426.5L 458 422L 467 422L 476 422L 476 417.5L 476 413L 467 413L 458 413L 458 408.5L 458 404L 462.5 404L 467 404L 467 399.5L 467 395L 462.5 395L 458 395L 458 390.5L 458 386L 467 386L 476 386L 476 390.5L 476 395L 480.5 395L 485 395L 485 390.5L 485 386L 489.5 386L 494 386L 494 390.5L 494 395L 498.5 395L 503 395L 503 390.5L 503 386L 507.5 386L 512 386L 512 381.5L 512 377L 507.5 377L 503 377L 503 381.5L 503 386L 498.5 386L 494 386L 494 381.5L 494 377L 476 377L 458 377L 458 381.5L 458 386L 440 386L 422 386L 422 381.5L 422 377L 435.5 377L 449 377L 449 372.5L 449 368L 435.5 368L 422 368L 422 363.5L 422 359L 440 359L 458 359L 458 363.5L 458 368L 462.5 368L 467 368L 467 363.5L 467 359L 471.5 359L 476 359L 476 350L 476 341L 480.5 341L 485 341L 485 336.5L 485 332L 489.5 332L 494 332L 494 345.5L 494 359L 489.5 359L 485 359L 485 363.5L 485 368L 489.5 368L 494 368L 494 363.5L 494 359L 498.5 359L 503 359L 503 354.5L 503 350L 512 350L 521 350L 521 345.5L 521 341L 525.5 341L 530 341L 530 332L 530 323L 534.5 323L 539 323L 539 318.5L 539 314L 548 314L 557 314L 557 318.5L 557 323L 552.5 323L 548 323L 548 327.5L 548 332L 552.5 332L 557 332L 557 336.5L 557 341L 570.5 341L 584 341L 584 350L 584 359L 588.5 359L 593 359L 593 363.5L 593 368L 597.5 368L 602 368L 602 363.5L 602 359L 597.5 359L 593 359L 593 345.5L 593 332L 575 332L 557 332L 557 327.5L 557 323L 561.5 323L 566 323L 566 318.5L 566 314L 561.5 314L 557 314L 557 309.5L 557 305L 539 305L 521 305L 521 300.5L 521 296L 530 296L 539 296L 539 282.5L 539 269L 543.5 269L 548 269L 548 273.5L 548 278L 552.5 278L 557 278L 557 282.5L 557 287L 552.5 287L 548 287L 548 291.5L 548 296L 552.5 296L 557 296L 557 291.5L 557 287L 561.5 287L 566 287L 566 278L 566 269L 570.5 269L 575 269L 575 282.5L 575 296L 570.5 296L 566 296L 566 300.5L 566 305L 570.5 305L 575 305L 575 309.5L 575 314L 579.5 314L 584 314L 584 318.5L 584 323L 593 323L 602 323L 602 314L 602 305L 606.5 305L 611 305L 611 309.5L 611 314L 615.5 314L 620 314L 620 309.5L 620 305L 615.5 305L 611 305L 611 300.5L 611 296L 606.5 296L 602 296L 602 291.5L 602 287L 611 287L 620 287L 620 291.5L 620 296L 629 296L 638 296L 638 291.5L 638 287L 629 287L 620 287L 620 282.5L 620 278L 611 278L 602 278L 602 273.5L 602 269L 606.5 269L 611 269L 611 264.5L 611 260L 606.5 260L 602 260L 602 246.5L 602 233L 606.5 233L 611 233L 611 228.5L 611 224L 606.5 224L 602 224L 602 219.5L 602 215L 597.5 215L 593 215L 593 219.5L 593 224L 588.5 224L 584 224L 584 233L 584 242L 579.5 242L 575 242L 575 251L 575 260L 566 260L 557 260L 557 255.5L 557 251L 561.5 251L 566 251L 566 242L 566 233L 570.5 233L 575 233L 575 228.5L 575 224L 570.5 224L 566 224L 566 219.5L 566 215L 557 215L 548 215L 548 219.5L 548 224L 543.5 224L 539 224L 539 228.5L 539 233L 530 233L 521 233L 521 228.5L 521 224L 525.5 224L 530 224L 530 215L 530 206L 525.5 206L 521 206L 521 201.5L 521 197L 516.5 197L 512 197L 512 192.5L 512 188L 507.5 188L 503 188L 503 183.5L 503 179L 498.5 179L 494 179L 494 174.5L 494 170L 498.5 170L 503 170L 503 165.5L 503 161L 498.5 161L 494 161L 494 165.5zM 494 183.5L 494 188L 489.5 188L 485 188L 485 183.5L 485 179L 489.5 179L 494 179L 494 183.5zM 377 197L 377 206L 372.5 206L 368 206L 368 210.5L 368 215L 363.5 215L 359 215L 359 206L 359 197L 363.5 197L 368 197L 368 192.5L 368 188L 372.5 188L 377 188L 377 197zM 512 201.5L 512 206L 516.5 206L 521 206L 521 210.5L 521 215L 512 215L 503 215L 503 219.5L 503 224L 507.5 224L 512 224L 512 228.5L 512 233L 516.5 233L 521 233L 521 237.5L 521 242L 525.5 242L 530 242L 530 246.5L 530 251L 521 251L 512 251L 512 242L 512 233L 507.5 233L 503 233L 503 251L 503 269L 498.5 269L 494 269L 494 273.5L 494 278L 507.5 278L 521 278L 521 273.5L 521 269L 516.5 269L 512 269L 512 264.5L 512 260L 516.5 260L 521 260L 521 264.5L 521 269L 525.5 269L 530 269L 530 264.5L 530 260L 534.5 260L 539 260L 539 251L 539 242L 543.5 242L 548 242L 548 233L 548 224L 552.5 224L 557 224L 557 237.5L 557 251L 552.5 251L 548 251L 548 255.5L 548 260L 552.5 260L 557 260L 557 264.5L 557 269L 552.5 269L 548 269L 548 264.5L 548 260L 543.5 260L 539 260L 539 264.5L 539 269L 534.5 269L 530 269L 530 273.5L 530 278L 525.5 278L 521 278L 521 282.5L 521 287L 507.5 287L 494 287L 494 282.5L 494 278L 489.5 278L 485 278L 485 282.5L 485 287L 480.5 287L 476 287L 476 282.5L 476 278L 480.5 278L 485 278L 485 273.5L 485 269L 471.5 269L 458 269L 458 264.5L 458 260L 453.5 260L 449 260L 449 269L 449 278L 444.5 278L 440 278L 440 287L 440 296L 435.5 296L 431 296L 431 287L 431 278L 426.5 278L 422 278L 422 282.5L 422 287L 417.5 287L 413 287L 413 291.5L 413 296L 417.5 296L 422 296L 422 305L 422 314L 426.5 314L 431 314L 431 309.5L 431 305L 440 305L 449 305L 449 309.5L 449 314L 444.5 314L 440 314L 440 318.5L 440 323L 426.5 323L 413 323L 413 327.5L 413 332L 417.5 332L 422 332L 422 336.5L 422 341L 431 341L 440 341L 440 336.5L 440 332L 444.5 332L 449 332L 449 327.5L 449 323L 453.5 323L 458 323L 458 314L 458 305L 462.5 305L 467 305L 467 314L 467 323L 462.5 323L 458 323L 458 327.5L 458 332L 462.5 332L 467 332L 467 336.5L 467 341L 462.5 341L 458 341L 458 336.5L 458 332L 453.5 332L 449 332L 449 341L 449 350L 435.5 350L 422 350L 422 354.5L 422 359L 417.5 359L 413 359L 413 345.5L 413 332L 408.5 332L 404 332L 404 336.5L 404 341L 399.5 341L 395 341L 395 336.5L 395 332L 399.5 332L 404 332L 404 327.5L 404 323L 408.5 323L 413 323L 413 318.5L 413 314L 408.5 314L 404 314L 404 309.5L 404 305L 399.5 305L 395 305L 395 314L 395 323L 386 323L 377 323L 377 327.5L 377 332L 381.5 332L 386 332L 386 341L 386 350L 390.5 350L 395 350L 395 359L 395 368L 408.5 368L 422 368L 422 372.5L 422 377L 417.5 377L 413 377L 413 381.5L 413 386L 417.5 386L 422 386L 422 390.5L 422 395L 417.5 395L 413 395L 413 390.5L 413 386L 408.5 386L 404 386L 404 381.5L 404 377L 399.5 377L 395 377L 395 386L 395 395L 377 395L 359 395L 359 386L 359 377L 363.5 377L 368 377L 368 381.5L 368 386L 372.5 386L 377 386L 377 377L 377 368L 381.5 368L 386 368L 386 363.5L 386 359L 381.5 359L 377 359L 377 350L 377 341L 372.5 341L 368 341L 368 354.5L 368 368L 350 368L 332 368L 332 363.5L 332 359L 327.5 359L 323 359L 323 363.5L 323 368L 318.5 368L 314 368L 314 363.5L 314 359L 305 359L 296 359L 296 368L 296 377L 287 377L 278 377L 278 368L 278 359L 287 359L 296 359L 296 350L 296 341L 291.5 341L 287 341L 287 336.5L 287 332L 282.5 332L 278 332L 278 314L 278 296L 273.5 296L 269 296L 269 305L 269 314L 264.5 314L 260 314L 260 318.5L 260 323L 255.5 323L 251 323L 251 327.5L 251 332L 246.5 332L 242 332L 242 336.5L 242 341L 251 341L 260 341L 260 336.5L 260 332L 264.5 332L 269 332L 269 336.5L 269 341L 273.5 341L 278 341L 278 345.5L 278 350L 273.5 350L 269 350L 269 368L 269 386L 264.5 386L 260 386L 260 390.5L 260 395L 264.5 395L 269 395L 269 399.5L 269 404L 273.5 404L 278 404L 278 399.5L 278 395L 282.5 395L 287 395L 287 399.5L 287 404L 291.5 404L 296 404L 296 395L 296 386L 300.5 386L 305 386L 305 399.5L 305 413L 300.5 413L 296 413L 296 422L 296 431L 291.5 431L 287 431L 287 422L 287 413L 273.5 413L 260 413L 260 404L 260 395L 255.5 395L 251 395L 251 386L 251 377L 242 377L 233 377L 233 372.5L 233 368L 228.5 368L 224 368L 224 363.5L 224 359L 233 359L 242 359L 242 363.5L 242 368L 246.5 368L 251 368L 251 359L 251 350L 237.5 350L 224 350L 224 345.5L 224 341L 228.5 341L 233 341L 233 332L 233 323L 242 323L 251 323L 251 318.5L 251 314L 246.5 314L 242 314L 242 309.5L 242 305L 246.5 305L 251 305L 251 300.5L 251 296L 260 296L 269 296L 269 291.5L 269 287L 273.5 287L 278 287L 278 291.5L 278 296L 282.5 296L 287 296L 287 314L 287 332L 291.5 332L 296 332L 296 336.5L 296 341L 300.5 341L 305 341L 305 345.5L 305 350L 309.5 350L 314 350L 314 341L 314 332L 323 332L 332 332L 332 323L 332 314L 336.5 314L 341 314L 341 318.5L 341 323L 345.5 323L 350 323L 350 327.5L 350 332L 354.5 332L 359 332L 359 327.5L 359 323L 363.5 323L 368 323L 368 318.5L 368 314L 363.5 314L 359 314L 359 309.5L 359 305L 345.5 305L 332 305L 332 296L 332 287L 350 287L 368 287L 368 282.5L 368 278L 381.5 278L 395 278L 395 273.5L 395 269L 390.5 269L 386 269L 386 264.5L 386 260L 390.5 260L 395 260L 395 255.5L 395 251L 404 251L 413 251L 413 255.5L 413 260L 417.5 260L 422 260L 422 255.5L 422 251L 426.5 251L 431 251L 431 242L 431 233L 435.5 233L 440 233L 440 228.5L 440 224L 444.5 224L 449 224L 449 228.5L 449 233L 444.5 233L 440 233L 440 237.5L 440 242L 444.5 242L 449 242L 449 246.5L 449 251L 453.5 251L 458 251L 458 246.5L 458 242L 462.5 242L 467 242L 467 246.5L 467 251L 471.5 251L 476 251L 476 246.5L 476 242L 480.5 242L 485 242L 485 237.5L 485 233L 489.5 233L 494 233L 494 228.5L 494 224L 489.5 224L 485 224L 485 219.5L 485 215L 480.5 215L 476 215L 476 219.5L 476 224L 471.5 224L 467 224L 467 228.5L 467 233L 462.5 233L 458 233L 458 228.5L 458 224L 462.5 224L 467 224L 467 219.5L 467 215L 471.5 215L 476 215L 476 210.5L 476 206L 480.5 206L 485 206L 485 201.5L 485 197L 498.5 197L 512 197L 512 201.5zM 305 219.5L 305 224L 300.5 224L 296 224L 296 219.5L 296 215L 300.5 215L 305 215L 305 219.5zM 323 219.5L 323 224L 332 224L 341 224L 341 228.5L 341 233L 336.5 233L 332 233L 332 237.5L 332 242L 327.5 242L 323 242L 323 237.5L 323 233L 318.5 233L 314 233L 314 224L 314 215L 318.5 215L 323 215L 323 219.5zM 359 228.5L 359 233L 354.5 233L 350 233L 350 228.5L 350 224L 354.5 224L 359 224L 359 228.5zM 593 255.5L 593 260L 597.5 260L 602 260L 602 264.5L 602 269L 597.5 269L 593 269L 593 273.5L 593 278L 597.5 278L 602 278L 602 282.5L 602 287L 597.5 287L 593 287L 593 291.5L 593 296L 597.5 296L 602 296L 602 300.5L 602 305L 593 305L 584 305L 584 296L 584 287L 588.5 287L 593 287L 593 282.5L 593 278L 588.5 278L 584 278L 584 264.5L 584 251L 588.5 251L 593 251L 593 255.5zM 359 264.5L 359 269L 354.5 269L 350 269L 350 264.5L 350 260L 354.5 260L 359 260L 359 264.5zM 377 264.5L 377 269L 372.5 269L 368 269L 368 264.5L 368 260L 372.5 260L 377 260L 377 264.5zM 467 282.5L 467 287L 462.5 287L 458 287L 458 291.5L 458 296L 453.5 296L 449 296L 449 291.5L 449 287L 453.5 287L 458 287L 458 282.5L 458 278L 462.5 278L 467 278L 467 282.5zM 323 309.5L 323 323L 309.5 323L 296 323L 296 309.5L 296 296L 309.5 296L 323 296L 323 309.5zM 503 309.5L 503 323L 489.5 323L 476 323L 476 309.5L 476 296L 489.5 296L 503 296L 503 309.5zM 530 318.5L 530 323L 521 323L 512 323L 512 318.5L 512 314L 521 314L 530 314L 530 318.5zM 215 336.5L 215 341L 210.5 341L 206 341L 206 336.5L 206 332L 210.5 332L 215 332L 215 336.5zM 521 336.5L 521 341L 512 341L 503 341L 503 336.5L 503 332L 512 332L 521 332L 521 336.5zM 467 354.5L 467 359L 462.5 359L 458 359L 458 354.5L 458 350L 462.5 350L 467 350L 467 354.5zM 233 390.5L 233 395L 228.5 395L 224 395L 224 390.5L 224 386L 228.5 386L 233 386L 233 390.5zM 350 399.5L 350 404L 354.5 404L 359 404L 359 408.5L 359 413L 354.5 413L 350 413L 350 417.5L 350 422L 354.5 422L 359 422L 359 426.5L 359 431L 354.5 431L 350 431L 350 426.5L 350 422L 345.5 422L 341 422L 341 417.5L 341 413L 336.5 413L 332 413L 332 408.5L 332 404L 336.5 404L 341 404L 341 399.5L 341 395L 345.5 395L 350 395L 350 399.5zM 440 399.5L 440 404L 435.5 404L 431 404L 431 408.5L 431 413L 444.5 413L 458 413L 458 417.5L 458 422L 449 422L 440 422L 440 426.5L 440 431L 435.5 431L 431 431L 431 435.5L 431 440L 426.5 440L 422 440L 422 435.5L 422 431L 417.5 431L 413 431L 413 417.5L 413 404L 422 404L 431 404L 431 399.5L 431 395L 435.5 395L 440 395L 440 399.5zM 458 399.5L 458 404L 453.5 404L 449 404L 449 399.5L 449 395L 453.5 395L 458 395L 458 399.5zM 242 426.5L 242 431L 237.5 431L 233 431L 233 426.5L 233 422L 237.5 422L 242 422L 242 426.5zM 332 426.5L 332 431L 327.5 431L 323 431L 323 426.5L 323 422L 327.5 422L 332 422L 332 426.5zM 260 435.5L 260 440L 255.5 440L 251 440L 251 435.5L 251 431L 255.5 431L 260 431L 260 435.5zM 233 471.5L 233 476L 228.5 476L 224 476L 224 471.5L 224 467L 228.5 467L 233 467L 233 471.5zM 215 480.5L 215 485L 210.5 485L 206 485L 206 480.5L 206 476L 210.5 476L 215 476L 215 480.5zM 251 489.5L 251 494L 246.5 494L 242 494L 242 498.5L 242 503L 246.5 503L 251 503L 251 507.5L 251 512L 246.5 512L 242 512L 242 516.5L 242 521L 237.5 521L 233 521L 233 516.5L 233 512L 228.5 512L 224 512L 224 516.5L 224 521L 219.5 521L 215 521L 215 512L 215 503L 224 503L 233 503L 233 498.5L 233 494L 228.5 494L 224 494L 224 489.5L 224 485L 237.5 485L 251 485L 251 489.5zM 206 597.5L 206 602L 197 602L 188 602L 188 606.5L 188 611L 183.5 611L 179 611L 179 615.5L 179 620L 174.5 620L 170 620L 170 624.5L 170 629L 165.5 629L 161 629L 161 624.5L 161 620L 156.5 620L 152 620L 152 615.5L 152 611L 156.5 611L 161 611L 161 606.5L 161 602L 165.5 602L 170 602L 170 597.5L 170 593L 188 593L 206 593L 206 597.5z"/>
<path style="stroke:none; fill:#000000" d="M 485 210.5L 485 215L 489.5 215L 494 215L 494 210.5L 494 206L 489.5 206L 485 206L 485 210.5z"/>
<path style="stroke:none; fill:#000000" d="M 485 246.5L 485 251L 480.5 251L 476 251L 476 255.5L 476 260L 485 260L 494 260L 494 251L 494 242L 489.5 242L 485 242L 485 246.5z"/>
<path style="stroke:none; fill:#000000" d="M 431 255.5L 431 260L 426.5 260L 422 260L 422 264.5L 422 269L 417.5 269L 413 269L 413 264.5L 413 260L 408.5 260L 404 260L 404 264.5L 404 269L 408.5 269L 413 269L 413 273.5L 413 278L 417.5 278L 422 278L 422 273.5L 422 269L 426.5 269L 431 269L 431 273.5L 431 278L 435.5 278L 440 278L 440 264.5L 440 251L 435.5 251L 431 251L 431 255.5z"/>
<path style="stroke:none; fill:#000000" d="M 458 255.5L 458 260L 462.5 260L 467 260L 467 255.5L 467 251L 462.5 251L 458 251L 458 255.5z"/>
<path style="stroke:none; fill:#000000" d="M 395 287L 395 296L 399.5 296L 404 296L 404 287L 404 278L 399.5 278L 395 278L 395 287z"/>
<path style="stroke:none; fill:#000000" d="M 368 291.5L 368 296L 363.5 296L 359 296L 359 300.5L 359 305L 368 305L 377 305L 377 309.5L 377 314L 381.5 314L 386 314L 386 309.5L 386 305L 381.5 305L 377 305L 377 300.5L 377 296L 381.5 296L 386 296L 386 291.5L 386 287L 377 287L 368 287L 368 291.5z"/>
<path style="stroke:none; fill:#000000" d="M 251 309.5L 251 314L 255.5 314L 260 314L 260 309.5L 260 305L 255.5 305L 251 305L 251 309.5z"/>
<path style="stroke:none; fill:#000000" d="M 341 341L 341 350L 336.5 350L 332 350L 332 345.5L 332 341L 327.5 341L 323 341L 323 345.5L 323 350L 327.5 350L 332 350L 332 354.5L 332 359L 341 359L 350 359L 350 354.5L 350 350L 354.5 350L 359 350L 359 345.5L 359 341L 363.5 341L 368 341L 368 336.5L 368 332L 363.5 332L 359 332L 359 336.5L 359 341L 354.5 341L 350 341L 350 336.5L 350 332L 345.5 332L 341 332L 341 341z"/>
<path style="stroke:none; fill:#000000" d="M 260 345.5L 260 350L 264.5 350L 269 350L 269 345.5L 269 341L 264.5 341L 260 341L 260 345.5z"/>
<path style="stroke:none; fill:#000000" d="M 251 372.5L 251 377L 255.5 377L 260 377L 260 372.5L 260 368L 255.5 368L 251 368L 251 372.5z"/>
<path style="stroke:none; fill:#000000" d="M 305 309.5L 305 314L 309.5 314L 314 314L 314 309.5L 314 305L 309.5 305L 305 305L 305 309.5z"/>
<path style="stroke:none; fill:#000000" d="M 485 309.5L 485 314L 489.5 314L 494 314L 494 309.5L 494 305L 489.5 305L 485 305L 485 309.5z"/>
<path style="stroke:none; fill:#000000" d="M 341 408.5L 341 413L 345.5 413L 350 413L 350 408.5L 350 404L 345.5 404L 341 404L 341 408.5z"/>
<path style="stroke:none; fill:#000000" d="M 233 507.5L 233 512L 237.5 512L 242 512L 242 507.5L 242 503L 237.5 503L 233 503L 233 507.5z"/>
<path style="stroke:none; fill:#000000" d="M 413 183.5L 413 188L 417.5 188L 422 188L 422 183.5L 422 179L 417.5 179L 413 179L 413 183.5z"/>
<path style="stroke:none; fill:#000000" d="M 458 183.5L 458 188L 462.5 188L 467 188L 467 183.5L 467 179L 462.5 179L 458 179L 458 183.5z"/>
<path style="stroke:none; fill:#000000" d="M 215 192.5L 215 197L 219.5 197L 224 197L 224 192.5L 224 188L 219.5 188L 215 188L 215 192.5z"/>
<path style="stroke:none; fill:#000000" d="M 242 206L 242 215L 246.5 215L 251 215L 251 206L 251 197L 246.5 197L 242 197L 242 206z"/>
<path style="stroke:none; fill:#000000" d="M 620 201.5L 620 206L 624.5 206L 629 206L 629 201.5L 629 197L 624.5 197L 620 197L 620 201.5z"/>
<path style="stroke:none; fill:#000000" d="M 404 219.5L 404 224L 408.5 224L 413 224L 413 219.5L 413 215L 408.5 215L 404 215L 404 219.5z"/>
<path style="stroke:none; fill:#000000" d="M 179 228.5L 179 233L 170 233L 161 233L 161 237.5L 161 242L 165.5 242L 170 242L 170 246.5L 170 251L 165.5 251L 161 251L 161 264.5L 161 278L 165.5 278L 170 278L 170 269L 170 260L 174.5 260L 179 260L 179 255.5L 179 251L 183.5 251L 188 251L 188 237.5L 188 224L 183.5 224L 179 224L 179 228.5z"/>
<path style="stroke:none; fill:#000000" d="M 638 228.5L 638 233L 642.5 233L 647 233L 647 237.5L 647 242L 642.5 242L 638 242L 638 246.5L 638 251L 629 251L 620 251L 620 246.5L 620 242L 624.5 242L 629 242L 629 237.5L 629 233L 624.5 233L 620 233L 620 237.5L 620 242L 615.5 242L 611 242L 611 246.5L 611 251L 615.5 251L 620 251L 620 260L 620 269L 624.5 269L 629 269L 629 273.5L 629 278L 633.5 278L 638 278L 638 273.5L 638 269L 642.5 269L 647 269L 647 255.5L 647 242L 651.5 242L 656 242L 656 246.5L 656 251L 660.5 251L 665 251L 665 255.5L 665 260L 669.5 260L 674 260L 674 255.5L 674 251L 669.5 251L 665 251L 665 242L 665 233L 656 233L 647 233L 647 228.5L 647 224L 642.5 224L 638 224L 638 228.5zM 638 264.5L 638 269L 633.5 269L 629 269L 629 264.5L 629 260L 633.5 260L 638 260L 638 264.5z"/>
<path style="stroke:none; fill:#000000" d="M 125 237.5L 125 242L 129.5 242L 134 242L 134 237.5L 134 233L 129.5 233L 125 233L 125 237.5z"/>
<path style="stroke:none; fill:#000000" d="M 269 237.5L 269 242L 273.5 242L 278 242L 278 237.5L 278 233L 273.5 233L 269 233L 269 237.5z"/>
<path style="stroke:none; fill:#000000" d="M 233 246.5L 233 251L 237.5 251L 242 251L 242 246.5L 242 242L 237.5 242L 233 242L 233 246.5z"/>
<path style="stroke:none; fill:#000000" d="M 629 309.5L 629 314L 633.5 314L 638 314L 638 309.5L 638 305L 633.5 305L 629 305L 629 309.5z"/>
<path style="stroke:none; fill:#000000" d="M 602 336.5L 602 341L 606.5 341L 611 341L 611 345.5L 611 350L 615.5 350L 620 350L 620 345.5L 620 341L 615.5 341L 611 341L 611 336.5L 611 332L 606.5 332L 602 332L 602 336.5z"/>
<path style="stroke:none; fill:#000000" d="M 512 363.5L 512 368L 516.5 368L 521 368L 521 363.5L 521 359L 516.5 359L 512 359L 512 363.5z"/>
<path style="stroke:none; fill:#000000" d="M 548 399.5L 548 404L 552.5 404L 557 404L 557 413L 557 422L 561.5 422L 566 422L 566 417.5L 566 413L 570.5 413L 575 413L 575 408.5L 575 404L 566 404L 557 404L 557 399.5L 557 395L 552.5 395L 548 395L 548 399.5z"/>
<path style="stroke:none; fill:#000000" d="M 674 417.5L 674 422L 665 422L 656 422L 656 426.5L 656 431L 665 431L 674 431L 674 426.5L 674 422L 678.5 422L 683 422L 683 417.5L 683 413L 678.5 413L 674 413L 674 417.5z"/>
<path style="stroke:none; fill:#000000" d="M 521 444.5L 521 449L 525.5 449L 530 449L 530 453.5L 530 458L 534.5 458L 539 458L 539 462.5L 539 467L 543.5 467L 548 467L 548 471.5L 548 476L 552.5 476L 557 476L 557 471.5L 557 467L 552.5 467L 548 467L 548 462.5L 548 458L 543.5 458L 539 458L 539 453.5L 539 449L 543.5 449L 548 449L 548 444.5L 548 440L 543.5 440L 539 440L 539 444.5L 539 449L 534.5 449L 530 449L 530 444.5L 530 440L 525.5 440L 521 440L 521 444.5z"/>
<path style="stroke:none; fill:#000000" d="M 665 444.5L 665 449L 669.5 449L 674 449L 674 444.5L 674 440L 669.5 440L 665 440L 665 444.5z"/>
<path style="stroke:none; fill:#000000" d="M 683 444.5L 683 449L 687.5 449L 692 449L 692 444.5L 692 440L 687.5 440L 683 440L 683 444.5z"/>
<path style="stroke:none; fill:#000000" d="M 557 453.5L 557 458L 561.5 458L 566 458L 566 453.5L 566 449L 561.5 449L 557 449L 557 453.5z"/>
<path style="stroke:none; fill:#000000" d="M 611 453.5L 611 458L 615.5 458L 620 458L 620 453.5L 620 449L 615.5 449L 611 449L 611 453.5z"/>
<path style="stroke:none; fill:#000000" d="M 431 467L 431 476L 426.5 476L 422 476L 422 471.5L 422 467L 417.5 467L 413 467L 413 471.5L 413 476L 408.5 476L 404 476L 404 480.5L 404 485L 395 485L 386 485L 386 489.5L 386 494L 395 494L 404 494L 404 498.5L 404 503L 386 503L 368 503L 368 507.5L 368 512L 386 512L 404 512L 404 507.5L 404 503L 408.5 503L 413 503L 413 512L 413 521L 431 521L 449 521L 449 516.5L 449 512L 444.5 512L 440 512L 440 507.5L 440 503L 449 503L 458 503L 458 498.5L 458 494L 453.5 494L 449 494L 449 485L 449 476L 444.5 476L 440 476L 440 471.5L 440 467L 449 467L 458 467L 458 462.5L 458 458L 444.5 458L 431 458L 431 467zM 422 480.5L 422 485L 431 485L 440 485L 440 489.5L 440 494L 435.5 494L 431 494L 431 503L 431 512L 426.5 512L 422 512L 422 507.5L 422 503L 417.5 503L 413 503L 413 498.5L 413 494L 417.5 494L 422 494L 422 489.5L 422 485L 417.5 485L 413 485L 413 480.5L 413 476L 417.5 476L 422 476L 422 480.5z"/>
<path style="stroke:none; fill:#000000" d="M 161 485L 161 494L 165.5 494L 170 494L 170 485L 170 476L 165.5 476L 161 476L 161 485z"/>
<path style="stroke:none; fill:#000000" d="M 179 489.5L 179 494L 183.5 494L 188 494L 188 489.5L 188 485L 183.5 485L 179 485L 179 489.5z"/>
<path style="stroke:none; fill:#000000" d="M 620 489.5L 620 494L 602 494L 584 494L 584 498.5L 584 503L 588.5 503L 593 503L 593 507.5L 593 512L 597.5 512L 602 512L 602 516.5L 602 521L 606.5 521L 611 521L 611 516.5L 611 512L 606.5 512L 602 512L 602 507.5L 602 503L 611 503L 620 503L 620 498.5L 620 494L 624.5 494L 629 494L 629 489.5L 629 485L 624.5 485L 620 485L 620 489.5z"/>
<path style="stroke:none; fill:#000000" d="M 566 498.5L 566 503L 570.5 503L 575 503L 575 498.5L 575 494L 570.5 494L 566 494L 566 498.5z"/>
<path style="stroke:none; fill:#000000" d="M 161 512L 161 521L 165.5 521L 170 521L 170 512L 170 503L 165.5 503L 161 503L 161 512z"/>
<path style="stroke:none; fill:#000000" d="M 548 507.5L 548 512L 552.5 512L 557 512L 557 507.5L 557 503L 552.5 503L 548 503L 548 507.5z"/>
<path style="stroke:none; fill:#000000" d="M 125 525.5L 125 530L 129.5 530L 134 530L 134 525.5L 134 521L 129.5 521L 125 521L 125 525.5z"/>
<path style="stroke:none; fill:#000000" d="M 458 525.5L 458 530L 462.5 530L 467 530L 467 539L 467 548L 462.5 548L 458 548L 458 552.5L 458 557L 453.5 557L 449 557L 449 561.5L 449 566L 444.5 566L 440 566L 440 570.5L 440 575L 453.5 575L 467 575L 467 579.5L 467 584L 462.5 584L 458 584L 458 588.5L 458 593L 449 593L 440 593L 440 597.5L 440 602L 435.5 602L 431 602L 431 597.5L 431 593L 426.5 593L 422 593L 422 597.5L 422 602L 426.5 602L 431 602L 431 606.5L 431 611L 449 611L 467 611L 467 615.5L 467 620L 462.5 620L 458 620L 458 624.5L 458 629L 449 629L 440 629L 440 633.5L 440 638L 435.5 638L 431 638L 431 642.5L 431 647L 435.5 647L 440 647L 440 651.5L 440 656L 435.5 656L 431 656L 431 660.5L 431 665L 435.5 665L 440 665L 440 660.5L 440 656L 444.5 656L 449 656L 449 660.5L 449 665L 453.5 665L 458 665L 458 660.5L 458 656L 453.5 656L 449 656L 449 651.5L 449 647L 453.5 647L 458 647L 458 642.5L 458 638L 462.5 638L 467 638L 467 629L 467 620L 485 620L 503 620L 503 624.5L 503 629L 507.5 629L 512 629L 512 624.5L 512 620L 516.5 620L 521 620L 521 629L 521 638L 525.5 638L 530 638L 530 642.5L 530 647L 534.5 647L 539 647L 539 638L 539 629L 543.5 629L 548 629L 548 624.5L 548 620L 552.5 620L 557 620L 557 624.5L 557 629L 570.5 629L 584 629L 584 638L 584 647L 579.5 647L 575 647L 575 651.5L 575 656L 566 656L 557 656L 557 651.5L 557 647L 552.5 647L 548 647L 548 651.5L 548 656L 543.5 656L 539 656L 539 660.5L 539 665L 543.5 665L 548 665L 548 660.5L 548 656L 552.5 656L 557 656L 557 660.5L 557 665L 570.5 665L 584 665L 584 656L 584 647L 588.5 647L 593 647L 593 651.5L 593 656L 597.5 656L 602 656L 602 651.5L 602 647L 597.5 647L 593 647L 593 638L 593 629L 602 629L 611 629L 611 624.5L 611 620L 615.5 620L 620 620L 620 624.5L 620 629L 624.5 629L 629 629L 629 624.5L 629 620L 638 620L 647 620L 647 615.5L 647 611L 642.5 611L 638 611L 638 606.5L 638 602L 642.5 602L 647 602L 647 588.5L 647 575L 642.5 575L 638 575L 638 570.5L 638 566L 633.5 566L 629 566L 629 561.5L 629 557L 624.5 557L 620 557L 620 561.5L 620 566L 624.5 566L 629 566L 629 570.5L 629 575L 620 575L 611 575L 611 579.5L 611 584L 606.5 584L 602 584L 602 570.5L 602 557L 606.5 557L 611 557L 611 552.5L 611 548L 606.5 548L 602 548L 602 552.5L 602 557L 597.5 557L 593 557L 593 552.5L 593 548L 579.5 548L 566 548L 566 552.5L 566 557L 561.5 557L 557 557L 557 561.5L 557 566L 561.5 566L 566 566L 566 575L 566 584L 561.5 584L 557 584L 557 579.5L 557 575L 552.5 575L 548 575L 548 561.5L 548 548L 552.5 548L 557 548L 557 543.5L 557 539L 552.5 539L 548 539L 548 543.5L 548 548L 543.5 548L 539 548L 539 552.5L 539 557L 534.5 557L 530 557L 530 561.5L 530 566L 525.5 566L 521 566L 521 570.5L 521 575L 516.5 575L 512 575L 512 570.5L 512 566L 507.5 566L 503 566L 503 561.5L 503 557L 498.5 557L 494 557L 494 552.5L 494 548L 498.5 548L 503 548L 503 543.5L 503 539L 498.5 539L 494 539L 494 543.5L 494 548L 489.5 548L 485 548L 485 534.5L 485 521L 480.5 521L 476 521L 476 525.5L 476 530L 471.5 530L 467 530L 467 525.5L 467 521L 462.5 521L 458 521L 458 525.5zM 485 552.5L 485 557L 489.5 557L 494 557L 494 561.5L 494 566L 489.5 566L 485 566L 485 561.5L 485 557L 480.5 557L 476 557L 476 561.5L 476 566L 471.5 566L 467 566L 467 557L 467 548L 476 548L 485 548L 485 552.5zM 584 561.5L 584 566L 575 566L 566 566L 566 561.5L 566 557L 575 557L 584 557L 584 561.5zM 512 579.5L 512 584L 507.5 584L 503 584L 503 597.5L 503 611L 498.5 611L 494 611L 494 606.5L 494 602L 489.5 602L 485 602L 485 606.5L 485 611L 476 611L 467 611L 467 597.5L 467 584L 476 584L 485 584L 485 588.5L 485 593L 489.5 593L 494 593L 494 588.5L 494 584L 498.5 584L 503 584L 503 579.5L 503 575L 507.5 575L 512 575L 512 579.5zM 593 579.5L 593 584L 597.5 584L 602 584L 602 588.5L 602 593L 606.5 593L 611 593L 611 588.5L 611 584L 624.5 584L 638 584L 638 588.5L 638 593L 633.5 593L 629 593L 629 602L 629 611L 620 611L 611 611L 611 606.5L 611 602L 597.5 602L 584 602L 584 606.5L 584 611L 588.5 611L 593 611L 593 615.5L 593 620L 575 620L 557 620L 557 615.5L 557 611L 534.5 611L 512 611L 512 602L 512 593L 516.5 593L 521 593L 521 588.5L 521 584L 530 584L 539 584L 539 588.5L 539 593L 530 593L 521 593L 521 597.5L 521 602L 534.5 602L 548 602L 548 593L 548 584L 552.5 584L 557 584L 557 593L 557 602L 561.5 602L 566 602L 566 597.5L 566 593L 570.5 593L 575 593L 575 597.5L 575 602L 579.5 602L 584 602L 584 597.5L 584 593L 588.5 593L 593 593L 593 588.5L 593 584L 584 584L 575 584L 575 579.5L 575 575L 584 575L 593 575L 593 579.5zM 539 624.5L 539 629L 534.5 629L 530 629L 530 624.5L 530 620L 534.5 620L 539 620L 539 624.5z"/>
<path style="stroke:none; fill:#000000" d="M 611 597.5L 611 602L 615.5 602L 620 602L 620 597.5L 620 593L 615.5 593L 611 593L 611 597.5z"/>
<path style="stroke:none; fill:#000000" d="M 566 606.5L 566 611L 570.5 611L 575 611L 575 606.5L 575 602L 570.5 602L 566 602L 566 606.5z"/>
<path style="stroke:none; fill:#000000" d="M 413 579.5L 413 584L 422 584L 431 584L 431 579.5L 431 575L 422 575L 413 575L 413 579.5z"/>
<path style="stroke:none; fill:#000000" d="M 638 633.5L 638 638L 642.5 638L 647 638L 647 633.5L 647 629L 642.5 629L 638 629L 638 633.5z"/>
<path style="stroke:none; fill:#000000" d="M 170 678.5L 170 701L 174.5 701L 179 701L 179 692L 179 683L 183.5 683L 188 683L 188 678.5L 188 674L 192.5 674L 197 674L 197 669.5L 197 665L 192.5 665L 188 665L 188 669.5L 188 674L 183.5 674L 179 674L 179 665L 179 656L 174.5 656L 170 656L 170 678.5z"/>
<path style="stroke:none; fill:#000000" d="M 206 669.5L 206 674L 210.5 674L 215 674L 215 669.5L 215 665L 210.5 665L 206 665L 206 669.5z"/>
<path style="stroke:none; fill:#000000" d="M 251 669.5L 251 674L 246.5 674L 242 674L 242 678.5L 242 683L 228.5 683L 215 683L 215 687.5L 215 692L 228.5 692L 242 692L 242 687.5L 242 683L 246.5 683L 251 683L 251 687.5L 251 692L 255.5 692L 260 692L 260 687.5L 260 683L 269 683L 278 683L 278 674L 278 665L 264.5 665L 251 665L 251 669.5zM 260 678.5L 260 683L 255.5 683L 251 683L 251 678.5L 251 674L 255.5 674L 260 674L 260 678.5z"/>
<path style="stroke:none; fill:#000000" d="M 449 678.5L 449 683L 453.5 683L 458 683L 458 678.5L 458 674L 453.5 674L 449 674L 449 678.5z"/>
<path style="stroke:none; fill:#000000" d="M 395 687.5L 395 692L 399.5 692L 404 692L 404 687.5L 404 683L 399.5 683L 395 683L 395 687.5z"/>
<path style="stroke:none; fill:#000000" d="M 413 687.5L 413 692L 417.5 692L 422 692L 422 696.5L 422 701L 431 701L 440 701L 440 696.5L 440 692L 431 692L 422 692L 422 687.5L 422 683L 417.5 683L 413 683L 413 687.5z"/>
<path style="stroke:none; fill:#000000" d="M 305 129.5L 305 134L 309.5 134L 314 134L 314 129.5L 314 125L 309.5 125L 305 125L 305 129.5z"/>
<path style="stroke:none; fill:#000000" d="M 485 129.5L 485 134L 489.5 134L 494 134L 494 129.5L 494 125L 489.5 125L 485 125L 485 129.5z"/>
<path style="stroke:none; fill:#000000" d="M 125 309.5L 125 314L 129.5 314L 134 314L 134 309.5L 134 305L 129.5 305L 125 305L 125 309.5z"/>
<path style="stroke:none; fill:#000000" d="M 665 309.5L 665 314L 669.5 314L 674 314L 674 309.5L 674 305L 669.5 305L 665 305L 665 309.5z"/>
<path style="stroke:none; fill:#000000" d="M 125 489.5L 125 494L 129.5 494L 134 494L 134 489.5L 134 485L 129.5 485L 125 485L 125 489.5z"/>
<path style="stroke:none; fill:#000000" d="M 305 489.5L 305 494L 309.5 494L 314 494L 314 489.5L 314 485L 309.5 485L 305 485L 305 489.5z"/>
<path style="stroke:none; fill:#000000" d="M 485 489.5L 485 494L 489.5 494L 494 494L 494 489.5L 494 485L 489.5 485L 485 485L 485 489.5z"/>
<path style="stroke:none; fill:#000000" d="M 665 489.5L 665 494L 669.5 494L 674 494L 674 489.5L 674 485L 669.5 485L 665 485L 665 489.5z"/>
<path style="stroke:none; fill:#000000" d="M 251 597.5L 251 602L 255.5 602L 260 602L 260 597.5L 260 593L 255.5 593L 251 593L 251 597.5z"/>
<path style="stroke:none; fill:#000000" d="M 305 669.5L 305 674L 309.5 674L 314 674L 314 669.5L 314 665L 309.5 665L 305 665L 305 669.5z"/>
<path style="stroke:none; fill:#000000" d="M 485 669.5L 485 674L 489.5 674L 494 674L 494 669.5L 494 665L 489.5 665L 485 665L 485 669.5z"/>
<path style="stroke:none; fill:#000000" d="M 665 669.5L 665 674L 669.5 674L 674 674L 674 669.5L 674 665L 669.5 665L 665 665L 665 669.5z"/>
<path style="stroke:none; fill:#000000" d="M 287 80L 287 89L 296 89L 305 89L 305 84.5L 305 80L 309.5 80L 314 80L 314 75.5L 314 71L 300.5 71L 287 71L 287 80z"/>
<path style="stroke:none; fill:#000000" d="M 431 75.5L 431 80L 435.5 80L 440 80L 440 75.5L 440 71L 435.5 71L 431 71L 431 75.5z"/>
<path style="stroke:none; fill:#000000" d="M 602 75.5L 602 80L 611 80L 620 80L 620 84.5L 620 89L 629 89L 638 89L 638 80L 638 71L 620 71L 602 71L 602 75.5z"/>
<path style="stroke:none; fill:#000000" d="M 647 75.5L 647 80L 651.5 80L 656 80L 656 75.5L 656 71L 651.5 71L 647 71L 647 75.5z"/>
<path style="stroke:none; fill:#000000" d="M 665 102.5L 665 134L 696.5 134L 728 134L 728 102.5L 728 71L 696.5 71L 665 71L 665 102.5zM 719 102.5L 719 125L 696.5 125L 674 125L 674 102.5L 674 80L 696.5 80L 719 80L 719 102.5z"/>
<path style="stroke:none; fill:#000000" d="M 683 102.5L 683 116L 696.5 116L 710 116L 710 102.5L 710 89L 696.5 89L 683 89L 683 102.5z"/>
<path style="stroke:none; fill:#000000" d="M 710 219.5L 710 224L 719 224L 728 224L 728 219.5L 728 215L 719 215L 710 215L 710 219.5z"/>
<path style="stroke:none; fill:#000000" d="M 719 237.5L 719 242L 714.5 242L 710 242L 710 255.5L 710 269L 701 269L 692 269L 692 273.5L 692 278L 701 278L 710 278L 710 273.5L 710 269L 714.5 269L 719 269L 719 273.5L 719 278L 723.5 278L 728 278L 728 264.5L 728 251L 723.5 251L 719 251L 719 246.5L 719 242L 723.5 242L 728 242L 728 237.5L 728 233L 723.5 233L 719 233L 719 237.5z"/>
<path style="stroke:none; fill:#000000" d="M 710 327.5L 710 332L 714.5 332L 719 332L 719 336.5L 719 341L 723.5 341L 728 341L 728 332L 728 323L 719 323L 710 323L 710 327.5z"/>
<path style="stroke:none; fill:#000000" d="M 701 345.5L 701 350L 705.5 350L 710 350L 710 345.5L 710 341L 705.5 341L 701 341L 701 345.5z"/>
<path style="stroke:none; fill:#000000" d="M 89 390.5L 89 395L 93.5 395L 98 395L 98 390.5L 98 386L 93.5 386L 89 386L 89 390.5z"/>
<path style="stroke:none; fill:#000000" d="M 161 413L 161 422L 156.5 422L 152 422L 152 426.5L 152 431L 161 431L 170 431L 170 417.5L 170 404L 165.5 404L 161 404L 161 413z"/>
<path style="stroke:none; fill:#000000" d="M 719 408.5L 719 413L 723.5 413L 728 413L 728 408.5L 728 404L 723.5 404L 719 404L 719 408.5z"/>
<path style="stroke:none; fill:#000000" d="M 710 543.5L 710 548L 719 548L 728 548L 728 543.5L 728 539L 719 539L 710 539L 710 543.5z"/>
<path style="stroke:none; fill:#000000" d="M 107 552.5L 107 557L 111.5 557L 116 557L 116 552.5L 116 548L 111.5 548L 107 548L 107 552.5z"/>
<path style="stroke:none; fill:#000000" d="M 71 651.5L 71 656L 75.5 656L 80 656L 80 651.5L 80 647L 75.5 647L 71 647L 71 651.5z"/>
<path style="stroke:none; fill:#000000" d="M 71 696.5L 71 728L 102.5 728L 134 728L 134 696.5L 134 665L 102.5 665L 71 665L 71 696.5zM 125 696.5L 125 719L 102.5 719L 80 719L 80 696.5L 80 674L 102.5 674L 125 674L 125 696.5z"/>
<path style="stroke:none; fill:#000000" d="M 89 696.5L 89 710L 102.5 710L 116 710L 116 696.5L 116 683L 102.5 683L 89 683L 89 696.5z"/>
</g>
</g>
</svg>